<svg width="148" height="148" viewBox="0 0 148 148" fill="none" xmlns="http://www.w3.org/2000/svg">
<path d="M105.947 93.1779V81.682H110.267C117.617 81.682 122.975 77.2724 122.975 69.7541C122.975 62.2358 117.527 58 110.267 58H99.1191V93.1826H105.947V93.1779ZM105.947 64.4805H109.925C113.381 64.4805 115.889 66.2978 115.889 69.7541C115.889 73.2104 113.381 75.1123 109.925 75.1123H105.947V64.4805ZM148 92.7458V86.2606H133.132V58.4273H126.304V92.7458H148ZM17.9953 29.6876C22.5974 31.7962 25.5512 34.4588 26.0865 34.8627C25.8423 33.6699 24.936 27.9548 24.4148 24.3952C27.0962 26.2595 33.3231 30.5799 35.3659 31.984C36.2018 29.4106 39.0945 21.0141 39.0945 21.0141C39.0945 21.0141 44.3165 29.4716 45.2087 30.8476C46.2982 29.7064 52.5439 22.761 54.1594 21C54.4317 24.9963 54.8027 30.7161 54.8872 31.5754C55.2066 31.1481 57.5969 27.7998 61.6026 24.7099C59.865 28.1286 59.0385 32.8528 58.6675 36.6472C54.7276 35.5436 50.5716 34.9519 46.2794 34.9519C38.0473 34.9519 30.3177 37.1214 23.6352 40.9158C22.4189 37.2576 20.5171 32.6978 17.9953 29.6876ZM65.9746 77.2912L65.9652 71.4071C65.9652 71.4071 63.3401 70.5618 60.5272 68.3829C54.8919 69.2376 48.0592 74.9057 48.0592 74.9057C48.0592 74.9057 50.3697 79.2823 52.8867 84.0019C57.3245 84.6123 63.8567 79.0194 65.9652 77.2865L65.9746 77.2912ZM71.6474 87.9606C71.6474 87.9606 71.1965 85.5281 69.2665 83.2505L64.871 83.3585C64.871 83.3585 58.9399 88.4584 55.3193 88.5758C55.3193 88.5758 57.3151 92.2856 58.3153 94.2204C60.3112 93.7884 63.8144 92.2105 65.2232 90.5763C65.2232 90.5763 66.1577 93.5864 65.9793 97.1319C67.961 95.9767 70.6941 92.8679 71.6521 87.9559L71.6474 87.9606ZM73.4506 68.6224C71.2341 70.4914 69.351 71.5245 69.351 71.5245L69.3698 77.4368C70.9617 79.2072 72.5255 80.6724 73.6995 83.3444C75.9207 79.3481 75.4981 73.4593 73.4506 68.6224ZM73.939 63.3534L74.2865 60.6673C74.4039 59.1881 74.0235 56.7367 71.9526 54.1915C69.3839 51.3081 62.9221 46.6685 59.8416 45.5555C59.8416 45.5555 59.588 48.5281 58.5267 49.9604C52.389 45.5273 49.3741 44.4191 49.3741 44.4191C42.6306 45.3818 38.3009 47.9834 35.9482 50.0261L38.0004 51.773C33.9383 53.0222 31.2991 56.516 31.2991 56.516C31.3273 56.5771 34.9292 57.0889 34.9292 57.0889C34.9292 57.0889 34.5629 61.3201 39.86 63.9733C44.3916 66.2415 50.9191 63.4286 57.0615 65.8893C53.0182 61.2261 50.2382 59.1411 50.2382 59.1411C50.2382 59.1411 48.6321 58.8077 47.5004 58.8124C46.0916 58.8218 43.9925 59.1035 41.682 58.2019C40.5832 57.7746 39.2965 57.0138 38.2915 56.3798C38.2915 56.3798 41.1279 53.4683 45.2651 52.8249C45.2651 52.8249 48.9984 53.8769 51.9616 56.0652C53.9293 54.1492 55.9814 54.2103 55.9814 54.2103C55.9814 54.2103 53.948 56.1122 54.5632 58.4132C57.5217 61.0524 60.7291 64.8233 60.7291 64.8233C63.9975 63.0294 71.0979 63.4427 72.5584 65.1332C70.7081 62.7383 68.0455 60.7378 65.9839 59.0237C65.7351 58.1268 63.4857 54.9898 63.1053 54.7034C63.1053 54.7034 65.2467 55.3655 67.1533 57.0749C67.7074 56.2953 68.7311 55.497 70.1305 55.1448C71.5722 56.3517 71.8211 58.2019 71.7835 58.5118C71.1308 59.282 70.5015 59.6013 70.5015 59.6013L73.9578 63.344L74.3053 60.6579M77.3859 65.5465C82.6595 75.2907 83.9415 86.965 80.2786 98.5971C80.0579 98.3482 77.2685 95.23 76.1133 93.9527C75.3807 105.326 72.0324 114.16 62.2647 121.622C62.2647 121.622 61.3349 118.048 60.7901 115.813C44.6828 127.619 30.8342 122.218 26.9412 120.279C29.9561 106.454 27.6221 98.5173 25.6028 92.4641C21.3154 99.5081 16.9246 104.979 12.5432 108.675C9.54715 101.678 9.31704 88.6744 11.7402 80.9917C10.9372 81.2077 6.20358 82.701 3.5785 83.4994C4.63511 76.4459 9.29356 67.0022 14.215 62.2968C13.3556 62.1466 10.8339 61.7897 8.83335 61.4562C10.0637 58.9533 13.6327 54.3042 19.1036 49.9416C18.9439 53.0175 20.085 56.6851 23.5601 58.4461C21.3576 54.5813 21.09 49.8101 23.3863 47.3353C25.6921 44.8464 29.5616 45.7011 32.0317 47.6358C31.5762 46.2928 30.5806 44.7384 29.1108 43.7147C35.9294 40.5402 44.2038 38.704 53.5865 40.1504C55.0328 41.4136 56.5778 43.1887 57.4325 44.2876C57.4701 43.4986 57.3574 41.9865 57.1085 40.836C60.9451 41.747 64.9508 43.2122 69.1021 45.3583C61.7106 37.9855 46.7303 35.769 34.2294 39.3474C31.2991 40.188 28.5191 41.2962 25.9034 42.6064C23.1468 42.6393 21.3717 44.3251 20.3574 45.8185C12.3601 51.125 6.49473 58.108 3.66772 63.9592C4.29699 64.0954 6.18949 64.3302 7.94111 64.6308C4.38152 69.7259 -0.291023 79.3763 0.0142189 88.0404C0.826631 87.7962 5.19393 86.4579 7.33532 85.7629C6.18949 93.408 6.52291 106.252 11.4819 113.596C17.7276 109.173 21.3483 104.523 24.3584 100.33C25.1332 104.106 25.8893 110.816 23.2267 121.936C25.3868 123.603 41.0434 131.826 58.7521 121.082L60.2313 126.919L62.1473 125.674C72.9247 118.673 77.0619 109.215 78.5082 101.513C79.006 102.063 80.9643 104.209 81.6687 104.923C84.3736 97.5452 89.7787 79.8036 77.3859 65.5418V65.5465Z" fill="white"/>
</svg>
