<svg width="148" height="148" viewBox="0 0 148 148" fill="none" xmlns="http://www.w3.org/2000/svg">
<g clip-path="url(#clip0_87_16)">
<path d="M72.9998 147.507C41.5878 147.507 16.0424 121.788 16.0424 90.2261C16.0424 89.8561 16.0424 23.3255 16.0424 9.33872V0.493408H129.918V9.33872C129.918 23.2484 129.918 89.7097 129.918 90.2261C129.957 121.788 104.412 147.507 72.9998 147.507Z" fill="white"/>
<path d="M126.709 9.33877V3.677H19.2914V9.33877C19.2914 23.472 19.2914 89.8562 19.2914 90.2262C19.2914 120.05 43.3809 144.289 73.0387 144.289C102.693 144.289 126.782 120.05 126.782 90.2262C126.743 89.7097 126.709 23.1405 126.709 9.33877ZM72.9999 141.105C45.1389 141.105 22.5054 118.273 22.5054 90.2262C22.5054 89.2279 22.5054 20.2152 22.5054 6.89523H123.495C123.495 20.2152 123.495 89.2279 123.495 90.2262C123.495 118.273 100.861 141.105 72.9999 141.105Z" fill="#B69B40"/>
<path d="M27.3225 52.2625V49.1137C27.3225 46.859 28.4416 45.7837 30.9082 45.7837C31.6556 45.7837 32.5152 45.8955 33.038 46.0805C33.2239 46.1537 33.2626 46.2308 33.2626 46.4158V47.414C33.2626 47.6337 33.1851 47.6722 32.887 47.599C32.4378 47.4872 31.7292 47.3755 31.1328 47.3755C29.7504 47.3755 29.2277 47.969 29.2277 49.3372V52.1122C29.2277 53.4805 29.7504 54.0355 31.1677 54.0355C31.8802 54.0355 32.5888 53.8505 33.1116 53.6655C33.2239 53.6308 33.4485 53.6655 33.371 53.889L33.1851 54.9605C33.1503 55.184 33.0728 55.2572 32.887 55.2958C32.3642 55.4808 31.6556 55.5925 30.8347 55.5925C28.3293 55.5925 27.3225 54.629 27.3225 52.2625Z" fill="#B69B40"/>
<path d="M41.4758 46.1537V55.2573C41.4758 55.4076 41.4022 55.4808 41.2551 55.4808H41.0305C40.0585 55.4808 39.5358 54.999 39.5358 53.9276V51.4108H36.6238V55.2573C36.6238 55.4076 36.5464 55.4808 36.3992 55.4808H36.1746C35.2414 55.4808 34.6799 54.999 34.6799 53.9276V46.1923C34.6799 46.0073 34.7187 45.9687 34.9045 45.9687H36.3992C36.5464 45.9687 36.6238 46.0458 36.6238 46.1923V49.9308H39.5358V46.1923C39.5358 46.0458 39.6093 45.9687 39.7604 45.9687H41.2551C41.4409 45.934 41.4758 46.0073 41.4758 46.1537Z" fill="#B69B40"/>
<path d="M42.5252 55.2573C43.3809 52.0005 44.2057 48.8209 45.0266 46.3041C45.1002 46.0459 45.2512 45.9341 45.5494 45.9341H47.1564C47.4894 45.9341 47.6404 46.0459 47.714 46.3041C48.5349 48.8209 49.3946 52.0005 50.2542 55.2573C50.2929 55.4076 50.2155 55.4809 50.0296 55.4809H48.5737C48.3878 55.4809 48.2368 55.4076 48.2368 55.2573L47.865 53.5923H44.9492C44.8021 54.1473 44.6898 54.7023 44.5775 55.2959C44.5387 55.4076 44.4264 55.4809 44.2793 55.4809H42.7459C42.56 55.4809 42.4864 55.4076 42.5252 55.2573ZM47.5281 52.1123C47.2648 50.7055 46.8195 48.9673 46.4439 47.5259H46.3703C45.9986 48.9673 45.5494 50.7055 45.2861 52.1123H47.5281Z" fill="#B69B40"/>
<path d="M51.2262 55.2573C51.2262 52.7059 51.3385 49.1138 51.5244 46.1538C51.5244 46.0073 51.5979 45.9341 51.749 45.9341H53.2437C53.4295 45.9341 53.5031 45.9688 53.5805 46.1191L55.8962 50.8173H55.931L58.0995 46.1191C58.1731 45.9688 58.2466 45.9341 58.4325 45.9341H59.9272C60.0782 45.9341 60.1131 46.0073 60.1518 46.1538C60.3764 49.1138 60.5274 52.7059 60.5274 55.2573C60.5274 55.4076 60.45 55.4809 60.3028 55.4809H58.8817C58.7346 55.4809 58.6571 55.4076 58.6571 55.2573C58.6571 53.0026 58.6223 50.5591 58.5448 48.8555H58.4712L56.6048 52.8909C56.5273 53.0373 56.4189 53.1491 56.2292 53.1491H55.6329C55.447 53.1491 55.3695 53.0373 55.2611 52.8909L53.2785 48.8555H53.2049C53.1662 50.5938 53.1662 52.8909 53.1662 55.2573C53.1662 55.4076 53.0926 55.4809 52.9455 55.4809H51.5244C51.2998 55.4809 51.2262 55.4076 51.2262 55.2573Z" fill="#B69B40"/>
<path d="M68.2565 48.8941V49.0406C68.2565 50.1506 67.9583 50.9638 67.2846 51.4841C66.7269 51.9273 65.9409 52.1509 64.8566 52.1509H63.9234V55.3306C63.9234 55.4809 63.8498 55.5541 63.6988 55.5541H63.4742C62.5062 55.5541 61.9834 55.0723 61.9834 54.0009V46.2656C61.9834 46.0806 62.057 46.0073 62.2428 46.0073H64.8218C66.0144 46.0073 66.7618 46.1923 67.2846 46.6009C67.9196 46.9709 68.2565 47.6338 68.2565 48.8941ZM66.3165 48.8941C66.3165 48.3006 66.1655 47.9691 65.9409 47.7841C65.6814 47.5606 65.3445 47.4873 64.6708 47.4873H63.9621V50.5938H64.5585C65.3445 50.5938 65.6814 50.5206 65.9409 50.2623C66.1655 50.0388 66.2778 49.6688 66.2778 49.0059L66.3165 48.8941Z" fill="#B69B40"/>
<path d="M68.9303 55.2573V54.2976C68.9303 54.1473 69.0039 54.074 69.1549 54.074H70.1229V47.3023H69.1549C69.0039 47.3023 68.9303 47.229 68.9303 47.0787V46.119C68.9303 45.9687 69.0039 45.8955 69.1549 45.8955H73.1123C73.2634 45.8955 73.3718 45.934 73.3369 46.119L73.1859 47.1173C73.1511 47.2637 73.0736 47.3408 72.9265 47.3408H72.0668V54.1126H73.0388C73.1859 54.1126 73.2246 54.1473 73.2246 54.3323V55.2958C73.2246 55.4423 73.1511 55.5155 73.0001 55.5155H69.1162C69.0039 55.4808 68.8916 55.4076 68.9303 55.2573Z" fill="#B69B40"/>
<path d="M75.3544 54.814C74.7542 54.2976 74.4211 53.4805 74.4211 52.4476V49.0058C74.4211 47.8187 74.8665 46.9323 75.6525 46.4158C76.2489 46.0073 77.0349 45.8223 77.9294 45.8223C78.8278 45.8223 79.7223 46.0458 80.3186 46.489C81.0311 47.0055 81.4764 47.8573 81.4764 49.0058V52.4476C81.4764 53.5923 81.066 54.444 80.3186 54.999C79.7223 55.4423 78.9014 55.6658 77.9294 55.6658C76.8452 55.6273 75.9507 55.3305 75.3544 54.814ZM79.0872 53.6655C79.3854 53.3726 79.5364 52.8523 79.5364 52.2626V49.2255C79.5364 48.524 79.3506 48.0808 79.0524 47.8187C78.7891 47.5605 78.3786 47.4487 77.9294 47.4487C77.4802 47.4487 77.0349 47.5605 76.7716 47.8187C76.4735 48.1155 76.3224 48.524 76.3224 49.2255V52.2626C76.3224 52.8523 76.4735 53.3726 76.7716 53.6655C77.0349 53.9276 77.4454 54.0355 77.9294 54.0355C78.4173 54.0355 78.8627 53.889 79.0872 53.6655Z" fill="#B69B40"/>
<path d="M90.0303 46.1538V55.2573C90.0303 55.4076 89.918 55.4809 89.8057 55.4809H88.8376C88.5743 55.4809 88.4233 55.3691 88.3497 55.2226L84.915 49.3373H84.8414V55.2573C84.8414 55.4076 84.764 55.4809 84.6168 55.4809H84.5394C83.6449 55.4809 83.157 54.9991 83.157 53.9276V46.1538C83.157 46.0073 83.1957 45.9341 83.3467 45.9341H84.4271C84.6517 45.9341 84.764 46.0073 84.8414 46.1923L88.2374 52.0005H88.3149V46.1538C88.3149 46.0073 88.3884 45.9341 88.5007 45.9341H89.7708C89.9567 45.9341 90.0303 46.0073 90.0303 46.1538Z" fill="#B69B40"/>
<path d="M91.9355 55.2958C91.7109 55.2225 91.676 55.1108 91.6373 54.9605L91.4127 53.7425C91.374 53.5575 91.525 53.519 91.7109 53.5922C92.1988 53.8158 93.0546 54.0355 93.7671 54.0355C94.8474 54.0355 95.4089 53.5922 95.4089 52.8908V52.8175C95.4089 52.1508 95.1107 51.7422 94.1775 51.4108L93.5773 51.1872C92.3111 50.744 91.5637 49.8922 91.5637 48.4855V48.4122C91.5637 46.674 92.9074 45.7837 94.8474 45.7837C95.4089 45.7837 96.0827 45.8955 96.528 46.0072C96.7526 46.0805 96.7913 46.1922 96.7913 46.3387V47.3408C96.7913 47.5605 96.6403 47.599 96.4196 47.5605C95.9704 47.4487 95.4825 47.3755 94.9249 47.3755C94.0652 47.3755 93.4689 47.6337 93.4689 48.4122V48.4508C93.4689 49.1137 93.7671 49.4837 94.5493 49.7458L95.223 50.004C96.7177 50.559 97.3528 51.299 97.3528 52.6672V52.779C97.3528 54.4825 96.1175 55.5925 94.0265 55.5925C93.3179 55.6272 92.497 55.4808 91.9355 55.2958Z" fill="#B69B40"/>
<path d="M105.38 46.1537V55.2573C105.38 55.4076 105.307 55.4808 105.155 55.4808H104.935C103.963 55.4808 103.44 54.999 103.44 53.9276V51.4108H100.524V55.2573C100.524 55.4076 100.451 55.4808 100.304 55.4808H100.079C99.107 55.4808 98.5842 54.999 98.5842 53.9276V46.1923C98.5842 46.0073 98.623 45.9687 98.8088 45.9687H100.304C100.451 45.9687 100.524 46.0458 100.524 46.1923V49.9308H103.44V46.1923C103.44 46.0458 103.514 45.9687 103.665 45.9687H105.155C105.307 45.934 105.38 46.0073 105.38 46.1537Z" fill="#B69B40"/>
<path d="M106.728 55.2573V54.2976C106.728 54.1473 106.801 54.074 106.948 54.074H107.92V47.3023H106.948C106.801 47.3023 106.728 47.229 106.728 47.0787V46.119C106.728 45.9687 106.801 45.8955 106.948 45.8955H110.91C111.057 45.8955 111.169 45.934 111.134 46.119L111.022 47.0787C110.983 47.229 110.91 47.3023 110.759 47.3023H109.864V54.074H110.836C110.983 54.074 111.022 54.1126 111.022 54.2976V55.2573C111.022 55.4076 110.944 55.4808 110.797 55.4808H106.913C106.801 55.4808 106.728 55.4076 106.728 55.2573Z" fill="#B69B40"/>
<path d="M118.677 48.8941V49.0406C118.677 50.1506 118.379 50.9638 117.744 51.4841C117.183 51.9273 116.4 52.1509 115.316 52.1509H114.383V55.3306C114.383 55.4809 114.309 55.5541 114.158 55.5541H113.895C112.962 55.5541 112.404 55.0723 112.404 54.0009V46.2656C112.404 46.0806 112.478 46.0073 112.664 46.0073H115.278C116.474 46.0073 117.221 46.1923 117.744 46.6009C118.306 46.9709 118.677 47.6338 118.677 48.8941ZM116.699 48.8941C116.699 48.3006 116.548 47.9691 116.323 47.7841C116.064 47.5606 115.727 47.4873 115.053 47.4873H114.344V50.5938H114.945C115.688 50.5938 116.064 50.5206 116.323 50.2623C116.548 50.0388 116.66 49.6688 116.66 49.0059V48.8941H116.699Z" fill="#B69B40"/>
<path d="M27.3225 60.2522C27.3225 60.6222 27.6207 60.9576 28.0311 60.9576H117.969C118.341 60.9576 118.677 60.6222 118.677 60.2522C118.677 59.8822 118.379 59.5508 117.969 59.5508H28.0311C27.6594 59.5508 27.3225 59.8822 27.3225 60.2522Z" fill="#B69B40"/>
<path d="M71.4317 129.265C70.088 129.265 68.9651 128.19 68.9651 126.821V113.501H78.6032V117.163H72.9264V119.533H78.0804V123.195H72.9264V129.265H71.4317ZM56.717 126.821C56.717 128.155 57.7974 129.265 59.1798 129.265H66.2777V125.638H60.6745V123.195H65.8285V119.533H60.6745V117.163H66.3164V113.501H56.717V126.821ZM89.918 129.265V125.638H84.9886V113.536H81.0311V126.86C81.0311 128.19 82.1115 129.3 83.4939 129.3H89.918V129.265Z" fill="#283271"/>
<path d="M79.9856 83.7126C78.3399 83.7126 76.9962 85.0462 76.9962 86.6726C76.9962 88.303 78.3399 89.6326 79.9856 89.6326C81.6275 89.6326 82.9711 88.303 82.9711 86.6726C82.9711 85.0462 81.6662 83.7126 79.9856 83.7126Z" fill="#B69B40"/>
<path d="M76.547 78.5325C75.0523 78.5325 73.8596 79.7157 73.8596 81.1957C73.8596 82.6757 75.0523 83.8628 76.547 83.8628C78.0417 83.8628 79.2382 82.6757 79.2382 81.1957C79.2382 79.7157 78.0417 78.5325 76.547 78.5325Z" fill="#B69B40"/>
<path d="M81.8907 75.8308C80.4309 75.8308 79.2731 76.9794 79.2731 78.4208C79.2731 79.8661 80.4309 81.0108 81.8907 81.0108C83.3467 81.0108 84.5045 79.8661 84.5045 78.4208C84.5045 76.9794 83.308 75.8308 81.8907 75.8308Z" fill="#B69B40"/>
<path d="M72.9613 74.8325C71.7299 74.8325 70.7579 75.8307 70.7579 77.014C70.7579 78.2011 71.7686 79.1993 72.9613 79.1993C74.1578 79.1993 75.1646 78.2011 75.1646 77.014C75.1646 75.8307 74.1578 74.8325 72.9613 74.8325Z" fill="#B69B40"/>
<path d="M68.9302 73.021C67.9196 73.021 67.0986 73.8342 67.0986 74.8325C67.0986 75.8307 67.9196 76.6439 68.9302 76.6439C69.937 76.6439 70.7579 75.8307 70.7579 74.8325C70.7579 73.8342 69.937 73.021 68.9302 73.021Z" fill="#B69B40"/>
<path d="M65.1935 72.574C64.4113 72.574 63.7375 73.2061 63.7375 74.0193C63.7375 74.8325 64.3726 75.4607 65.1935 75.4607C66.0145 75.4607 66.6495 74.8325 66.6495 74.0193C66.6495 73.2061 65.9796 72.574 65.1935 72.574Z" fill="#B69B40"/>
<path d="M69.7899 69.9492C69.0038 69.9492 68.4075 70.5774 68.4075 71.3174C68.4075 72.0574 69.0425 72.6857 69.7899 72.6857C70.5334 72.6857 71.1684 72.0574 71.1684 71.3174C71.1684 70.5774 70.5334 69.9492 69.7899 69.9492Z" fill="#B69B40"/>
<path d="M73.2633 67.3208C72.5159 67.3208 71.8809 67.9143 71.8809 68.689C71.8809 69.4676 72.4772 70.0611 73.2633 70.0611C74.0455 70.0611 74.6418 69.4676 74.6418 68.689C74.6418 67.9143 74.0067 67.3208 73.2633 67.3208Z" fill="#B69B40"/>
<path d="M70.2003 67.5444C69.6001 67.5444 69.1161 68.0223 69.1161 68.6159C69.1161 69.2094 69.6001 69.6912 70.2003 69.6912C70.7967 69.6912 71.2807 69.2094 71.2807 68.6159C71.2807 68.0223 70.7967 67.5444 70.2003 67.5444Z" fill="#B69B40"/>
<path d="M67.5479 68.0994C67.0251 68.0994 66.5759 68.5426 66.5759 69.0591C66.5759 69.5794 67.0251 70.0226 67.5479 70.0226C68.0706 70.0226 68.5198 69.5794 68.5198 69.0591C68.5198 68.5426 68.1055 68.0994 67.5479 68.0994Z" fill="#B69B40"/>
<path d="M66.3165 70.2075C65.7163 70.2075 65.2671 70.6893 65.2671 71.2443C65.2671 71.7993 65.755 72.2811 66.3165 72.2811C66.8741 72.2811 67.362 71.7993 67.362 71.2443C67.362 70.6893 66.9128 70.2075 66.3165 70.2075Z" fill="#B69B40"/>
<path d="M62.9515 70.4658C62.4287 70.4658 61.9834 70.9091 61.9834 71.4294C61.9834 71.9458 62.4287 72.389 62.9515 72.389C63.4742 72.389 63.9234 71.9458 63.9234 71.4294C63.9234 70.9091 63.4742 70.5044 62.9515 70.4658Z" fill="#B69B40"/>
<path d="M64.5585 69.1709C64.148 69.1709 63.8499 69.5062 63.8499 69.8762C63.8499 70.2462 64.1867 70.5777 64.5585 70.5777C64.9341 70.5777 65.2671 70.2462 65.2671 69.8762C65.2671 69.5062 64.9341 69.1709 64.5585 69.1709Z" fill="#B69B40"/>
<path d="M60.6009 71.5027C60.2253 71.5027 59.9271 71.7995 59.9271 72.1695C59.9271 72.5395 60.2253 72.8362 60.6009 72.8362C60.9726 72.8362 61.2708 72.5395 61.2708 72.1695C61.2708 71.7995 60.9726 71.5027 60.6009 71.5027Z" fill="#B69B40"/>
<path d="M61.9059 72.759C61.2708 72.759 60.748 73.2793 60.748 73.9076C60.748 74.5358 61.2708 75.0561 61.9059 75.0561C62.5409 75.0561 63.0637 74.5358 63.0637 73.9076C63.0637 73.2793 62.5409 72.759 61.9059 72.759Z" fill="#B69B40"/>
<path d="M59.0326 73.0942C58.5447 73.0942 58.1343 73.4989 58.1343 73.9807C58.1343 74.4625 58.5447 74.871 59.0326 74.871C59.5167 74.871 59.9271 74.4625 59.9271 73.9807C59.9271 73.4989 59.5554 73.0942 59.0326 73.0942Z" fill="#B69B40"/>
<path d="M57.1624 74.7207C56.8294 74.7207 56.566 74.9789 56.566 75.3142C56.566 75.6457 56.8294 75.9039 57.1624 75.9039C57.4993 75.9039 57.7626 75.6457 57.7626 75.3142C57.7626 74.9789 57.4993 74.7207 57.1624 74.7207Z" fill="#B69B40"/>
<path d="M77.6313 72.574C76.4348 72.574 75.428 73.5375 75.428 74.7593C75.428 75.9811 76.3999 76.9407 77.6313 76.9407C78.8627 76.9407 79.8346 75.9811 79.8346 74.7593C79.8346 73.5375 78.8278 72.574 77.6313 72.574Z" fill="#B69B40"/>
<path d="M85.6972 80.5676C84.1677 80.5676 82.9363 81.7894 82.9363 83.3079C82.9363 84.8226 84.1677 86.0444 85.6972 86.0444C87.2306 86.0444 88.462 84.8226 88.462 83.3079C88.462 81.7894 87.2306 80.5676 85.6972 80.5676Z" fill="#B69B40"/>
<path d="M88.7253 75.7961C87.4165 75.7961 86.3323 76.8676 86.3323 78.1626C86.3323 79.4576 87.4165 80.5329 88.7253 80.5329C90.0303 80.5329 91.1145 79.4576 91.1145 78.1626C91.1145 76.8676 90.0303 75.7961 88.7253 75.7961Z" fill="#B69B40"/>
<path d="M85.2868 71.834C84.0554 71.834 83.0486 72.8361 83.0486 74.054C83.0486 75.2758 84.0554 76.274 85.2868 76.274C86.522 76.274 87.5288 75.2758 87.5288 74.054C87.5288 72.8361 86.522 71.834 85.2868 71.834Z" fill="#B69B40"/>
<path d="M81.1047 69.1323C79.9469 69.1323 79.0524 70.0612 79.0524 71.1712C79.0524 72.2812 79.9856 73.2062 81.1047 73.2062C82.2238 73.2062 83.157 72.2812 83.157 71.1712C83.157 70.0612 82.2625 69.1323 81.1047 69.1323Z" fill="#B69B40"/>
<path d="M76.9227 67.7642C75.9507 67.7642 75.2034 68.5427 75.2034 69.4677C75.2034 70.3927 75.9894 71.1712 76.9227 71.1712C77.8559 71.1712 78.6381 70.3927 78.6381 69.4677C78.6381 68.5427 77.8946 67.7642 76.9227 67.7642Z" fill="#B69B40"/>
<path d="M73.4491 70.6895C72.4385 70.6895 71.6176 71.5027 71.6176 72.5009C71.6176 73.4991 72.4385 74.3162 73.4491 74.3162C74.4559 74.3162 75.2769 73.4991 75.2769 72.5009C75.2769 71.5027 74.4559 70.6895 73.4491 70.6895Z" fill="#B69B40"/>
<path d="M73.9332 95.148C73.9332 96.7744 72.5895 98.108 70.9477 98.108C69.3019 98.108 67.9583 96.7744 67.9583 95.148C67.9583 93.5177 69.3019 92.188 70.9477 92.188C72.5895 92.188 73.9332 93.5177 73.9332 95.148Z" fill="#283271"/>
<path d="M77.4454 92.2612C75.9507 92.2612 74.7542 93.4445 74.7542 94.9245C74.7542 96.4045 75.9507 97.5915 77.4454 97.5915C78.9401 97.5915 80.1328 96.4045 80.1328 94.9245C80.1328 93.4445 78.9401 92.2612 77.4454 92.2612Z" fill="#283271"/>
<path d="M77.2208 98.293C75.7649 98.293 74.6071 99.4415 74.6071 100.883C74.6071 102.324 75.7649 103.473 77.2208 103.473C78.6768 103.473 79.8346 102.324 79.8346 100.883C79.8346 99.4415 78.6381 98.293 77.2208 98.293Z" fill="#283271"/>
<path d="M82.8588 91.7061C81.6275 91.7061 80.6555 92.7043 80.6555 93.8875C80.6555 95.0746 81.6662 96.0728 82.8588 96.0728C84.0554 96.0728 85.0622 95.0746 85.0622 93.8875C85.0622 92.7043 84.0941 91.7061 82.8588 91.7061Z" fill="#283271"/>
<path d="M86.8202 89.7444C85.8096 89.7444 84.9886 90.5576 84.9886 91.5597C84.9886 92.5579 85.8096 93.3712 86.8202 93.3712C87.827 93.3712 88.648 92.5579 88.648 91.5597C88.648 90.5576 87.827 89.7444 86.8202 89.7444Z" fill="#283271"/>
<path d="M89.434 87.3394C88.6479 87.3394 87.978 87.9676 87.978 88.7847C87.978 89.5979 88.6131 90.2261 89.434 90.2261C90.2549 90.2261 90.89 89.5979 90.89 88.7847C90.89 87.9676 90.2162 87.3394 89.434 87.3394Z" fill="#283271"/>
<path d="M89.4727 92.6697C88.6867 92.6697 88.0903 93.2979 88.0903 94.0379C88.0903 94.7779 88.7254 95.4061 89.4727 95.4061C90.2162 95.4061 90.8513 94.7779 90.8513 94.0379C90.8513 93.2979 90.2162 92.6697 89.4727 92.6697Z" fill="#283271"/>
<path d="M90.0304 96.9978C89.283 96.9978 88.6479 97.5913 88.6479 98.366C88.6479 99.1446 89.2482 99.7343 90.0304 99.7343C90.8164 99.7343 91.4128 99.1446 91.4128 98.366C91.4128 97.5913 90.7777 96.9978 90.0304 96.9978Z" fill="#283271"/>
<path d="M91.6373 94.7046C91.041 94.7046 90.5531 95.1825 90.5531 95.776C90.5531 96.3696 91.041 96.8475 91.6373 96.8475C92.2337 96.8475 92.7216 96.3696 92.7216 95.776C92.7216 95.1825 92.2337 94.7046 91.6373 94.7046Z" fill="#283271"/>
<path d="M92.5318 92.2996C92.009 92.2996 91.5637 92.7428 91.5637 93.2592C91.5637 93.7796 92.009 94.2228 92.5318 94.2228C93.0545 94.2228 93.5037 93.7796 93.5037 93.2592C93.5037 92.7428 93.0933 92.2996 92.5318 92.2996Z" fill="#283271"/>
<path d="M91.2617 90.0796C90.6654 90.0796 90.2162 90.5575 90.2162 91.1125C90.2162 91.6675 90.7041 92.1493 91.2617 92.1493C91.8232 92.1493 92.3111 91.6675 92.3111 91.1125C92.3111 90.5575 91.8232 90.0796 91.2617 90.0796Z" fill="#283271"/>
<path d="M92.7951 87.1929C92.2723 87.1929 91.8231 87.6361 91.8231 88.1526C91.8231 88.6729 92.2336 89.1161 92.7951 89.1161C93.3565 89.1161 93.767 88.6729 93.767 88.1526C93.767 87.6361 93.3178 87.1929 92.7951 87.1929Z" fill="#283271"/>
<path d="M93.3915 89.5593C92.981 89.5593 92.6829 89.8946 92.6829 90.2646C92.6829 90.6346 93.0197 90.9661 93.3915 90.9661C93.7671 90.9661 94.104 90.6346 94.104 90.2646C94.104 89.8946 93.7671 89.5593 93.3915 89.5593Z" fill="#283271"/>
<path d="M93.3178 85.1194C92.9461 85.1194 92.644 85.4162 92.644 85.7862C92.644 86.1562 92.9461 86.4529 93.3178 86.4529C93.6896 86.4529 93.9916 86.1562 93.9916 85.7862C93.9916 85.4162 93.6896 85.1194 93.3178 85.1194Z" fill="#283271"/>
<path d="M91.1533 84.8225C90.5182 84.8225 89.9955 85.3428 89.9955 85.9711C89.9955 86.5993 90.5182 87.1157 91.1533 87.1157C91.7884 87.1157 92.3111 86.5993 92.3111 85.9711C92.3111 85.3428 91.7884 84.8225 91.1533 84.8225Z" fill="#283271"/>
<path d="M92.497 82.6025C92.0091 82.6025 91.5986 83.0111 91.5986 83.4929C91.5986 83.9708 92.0091 84.3793 92.497 84.3793C92.981 84.3793 93.3915 83.9708 93.3915 83.4929C93.3915 83.0111 92.981 82.6025 92.497 82.6025Z" fill="#283271"/>
<path d="M92.2724 80.6409C91.9355 80.6409 91.676 80.903 91.676 81.2344C91.676 81.5659 91.9355 81.828 92.2724 81.828C92.6092 81.828 92.8687 81.5659 92.8687 81.2344C92.8687 80.903 92.6092 80.6409 92.2724 80.6409Z" fill="#283271"/>
<path d="M82.5606 96.9246C81.368 96.9246 80.3573 97.8842 80.3573 99.106C80.3573 100.328 81.3292 101.291 82.5606 101.291C83.792 101.291 84.764 100.328 84.764 99.106C84.764 97.8842 83.7572 96.9246 82.5606 96.9246Z" fill="#283271"/>
<path d="M71.0213 98.9944C69.4879 98.9944 68.2565 100.216 68.2565 101.735C68.2565 103.249 69.4879 104.471 71.0213 104.471C72.5508 104.471 73.7861 103.249 73.7861 101.735C73.7861 100.216 72.5508 98.9944 71.0213 98.9944Z" fill="#283271"/>
<path d="M74.0068 104.51C72.7018 104.51 71.6176 105.581 71.6176 106.876C71.6176 108.171 72.7018 109.247 74.0068 109.247C75.3156 109.247 76.3998 108.171 76.3998 106.876C76.3998 105.581 75.3543 104.51 74.0068 104.51Z" fill="#283271"/>
<path d="M79.3506 103.804C78.1153 103.804 77.1085 104.807 77.1085 106.024C77.1085 107.246 78.1153 108.248 79.3506 108.248C80.582 108.248 81.5888 107.246 81.5888 106.024C81.5888 104.807 80.582 103.804 79.3506 103.804Z" fill="#283271"/>
<path d="M83.9044 101.808C82.7465 101.808 81.8521 102.733 81.8521 103.843C81.8521 104.953 82.7853 105.878 83.9044 105.878C85.0273 105.878 85.9605 104.953 85.9605 103.843C85.9605 102.733 85.0622 101.808 83.9044 101.808Z" fill="#283271"/>
<path d="M87.4901 99.4028C86.522 99.4028 85.7747 100.181 85.7747 101.106C85.7747 102.031 86.5569 102.806 87.4901 102.806C88.4233 102.806 89.2094 102.031 89.2094 101.106C89.2094 100.181 88.462 99.4028 87.4901 99.4028Z" fill="#283271"/>
<path d="M86.6305 94.8511C85.6237 94.8511 84.8027 95.6643 84.8027 96.6625C84.8027 97.6646 85.6237 98.4778 86.6305 98.4778C87.6411 98.4778 88.462 97.6646 88.462 96.6625C88.462 95.6643 87.6024 94.8511 86.6305 94.8511Z" fill="#283271"/>
<path d="M68.0706 80.1628C66.4249 80.1628 65.0812 81.4925 65.0812 83.1228C65.0812 84.7493 66.4249 86.0828 68.0706 86.0828C69.7125 86.0828 71.0561 84.7493 71.0561 83.1228C71.0561 81.4925 69.7125 80.1628 68.0706 80.1628ZM65.0076 86.1907C63.5129 86.1907 62.3164 87.3778 62.3164 88.8578C62.3164 90.3378 63.5129 91.5211 65.0076 91.5211C66.5023 91.5211 67.695 90.3378 67.695 88.8578C67.6602 87.3778 66.4636 86.1907 65.0076 86.1907ZM59.8924 83.0457C58.4325 83.0457 57.2747 84.1943 57.2747 85.6357C57.2747 87.0811 58.4325 88.2296 59.8924 88.2296C61.3483 88.2296 62.5061 87.0811 62.5061 85.6357C62.5061 84.1943 61.3483 83.0457 59.8924 83.0457ZM63.1761 91.8178C61.9447 91.8178 60.9727 92.8161 60.9727 93.9993C60.9727 95.1825 61.9834 96.2193 63.1761 96.2193C64.3726 96.2193 65.3794 95.2211 65.3794 94.0378C65.3794 92.8546 64.4113 91.8178 63.1761 91.8178ZM63.2535 96.7396C62.2428 96.7396 61.4219 97.5528 61.4219 98.5511C61.4219 99.5493 62.2428 100.366 63.2535 100.366C64.2603 100.366 65.0812 99.5493 65.0812 98.5511C65.0812 97.5528 64.2603 96.7396 63.2535 96.7396ZM64.3726 100.771C63.5517 100.771 62.9166 101.399 62.9166 102.216C62.9166 103.03 63.5517 103.658 64.3726 103.658C65.1587 103.658 65.8286 103.03 65.8286 102.216C65.8286 101.399 65.1935 100.771 64.3726 100.771ZM59.7801 98.2196C58.994 98.2196 58.3977 98.8478 58.3977 99.5878C58.3977 100.328 59.0327 100.956 59.7801 100.956C60.5274 100.956 61.1586 100.328 61.1586 99.5878C61.1586 98.8093 60.5274 98.2196 59.7801 98.2196ZM55.7064 96.5546C54.9591 96.5546 54.324 97.1443 54.324 97.9228C54.324 98.7014 54.9242 99.2911 55.7064 99.2911C56.4925 99.2911 57.0888 98.7014 57.0888 97.9228C57.0888 97.1443 56.4925 96.5546 55.7064 96.5546ZM57.1624 99.5146C56.5661 99.5146 56.082 99.9964 56.082 100.586C56.082 101.18 56.5661 101.661 57.1624 101.661C57.7626 101.661 58.2466 101.18 58.2466 100.586C58.2466 99.9964 57.7626 99.5146 57.1624 99.5146ZM58.8817 101.661C58.3589 101.661 57.9097 102.105 57.9097 102.621C57.9097 103.141 58.3589 103.585 58.8817 103.585C59.4044 103.585 59.8536 103.141 59.8536 102.621C59.8536 102.105 59.4432 101.661 58.8817 101.661ZM61.4219 101.55C60.8256 101.55 60.3764 102.031 60.3764 102.586C60.3764 103.141 60.8604 103.619 61.4219 103.619C61.9834 103.619 62.4674 103.141 62.4674 102.586C62.4674 102.031 61.9834 101.55 61.4219 101.55ZM63.2883 104.436C62.7656 104.436 62.3164 104.841 62.3164 105.396C62.3164 105.951 62.7656 106.36 63.2883 106.36C63.8111 106.36 64.2603 105.916 64.2603 105.396C64.2603 104.841 63.8111 104.436 63.2883 104.436ZM61.1237 104.066C60.7133 104.066 60.4151 104.398 60.4151 104.768C60.4151 105.138 60.7481 105.469 61.1237 105.469C61.4955 105.469 61.8324 105.138 61.8324 104.768C61.8324 104.398 61.4955 104.066 61.1237 104.066ZM65.0464 106.36C64.6708 106.36 64.3726 106.656 64.3726 107.026C64.3726 107.396 64.6708 107.693 65.0464 107.693C65.4181 107.693 65.7163 107.396 65.7163 107.026C65.7163 106.656 65.4181 106.36 65.0464 106.36ZM65.9409 103.916C65.3058 103.916 64.783 104.436 64.783 105.065C64.783 105.693 65.3058 106.213 65.9409 106.213C66.5759 106.213 67.0987 105.693 67.0987 105.065C67.0987 104.436 66.6146 103.916 65.9409 103.916ZM67.4743 106.583C66.9864 106.583 66.5759 106.988 66.5759 107.47C66.5759 107.951 66.9864 108.356 67.4743 108.356C67.9583 108.356 68.3688 107.951 68.3688 107.47C68.3688 106.988 67.9583 106.583 67.4743 106.583ZM69.5266 107.801C69.1897 107.801 68.9303 108.063 68.9303 108.395C68.9303 108.726 69.1897 108.988 69.5266 108.988C69.8635 108.988 70.1229 108.726 70.1229 108.395C70.1229 108.063 69.8635 107.801 69.5266 107.801ZM58.843 88.9696C57.6503 88.9696 56.6396 89.9293 56.6396 91.1511C56.6396 92.3728 57.6116 93.3325 58.843 93.3325C60.0782 93.3325 61.0502 92.3728 61.0502 91.1511C61.0502 89.9293 60.0395 88.9696 58.843 88.9696ZM62.2816 77.199C60.7481 77.199 59.5167 78.4207 59.5167 79.9393C59.5167 81.4578 60.7481 82.6757 62.2816 82.6757C63.8111 82.6757 65.0464 81.4578 65.0464 79.9393C65.0464 78.4207 63.7763 77.199 62.2816 77.199ZM56.2679 77.5343C54.9591 77.5343 53.8787 78.6057 53.8787 79.9007C53.8787 81.1957 54.9591 82.2711 56.2679 82.2711C57.5767 82.2711 58.6571 81.1957 58.6571 79.9007C58.6571 78.6057 57.5767 77.5343 56.2679 77.5343ZM54.3627 82.7143C53.1313 82.7143 52.1207 83.7125 52.1594 84.8957C52.1594 86.1175 53.1662 87.1157 54.3627 87.1157C55.5593 87.1157 56.6048 86.1175 56.6048 84.8957C56.6048 83.6778 55.5941 82.7143 54.3627 82.7143ZM53.991 87.8943C52.8332 87.8943 51.9348 88.8193 51.9348 89.9293C51.9348 91.0393 52.868 91.9643 53.991 91.9643C55.1101 91.9643 56.0433 91.0393 56.0433 89.9293C56.0433 88.8193 55.1101 87.8943 53.991 87.8943ZM54.5486 92.6696C53.5805 92.6696 52.8332 93.4443 52.8332 94.3693C52.8332 95.2943 53.6154 96.0728 54.5486 96.0728C55.4818 96.0728 56.2679 95.2943 56.2679 94.3693C56.2679 93.4443 55.5205 92.6696 54.5486 92.6696ZM58.9204 94.0378C57.9097 94.0378 57.1275 94.8511 57.1275 95.8146C57.1275 96.8128 57.9485 97.6261 58.9204 97.6261C59.8924 97.6261 60.7133 96.8128 60.7133 95.8146C60.7133 94.8511 59.9272 94.0378 58.9204 94.0378Z" fill="#283271"/>
<path d="M116.772 13.2236H72.1791C71.2072 13.2236 70.3862 14.0369 70.3862 15.0004V38.1254C70.3862 39.0889 71.2072 39.9022 72.1791 39.9022H116.772C117.744 39.9022 118.565 39.0889 118.565 38.1254V15.0004C118.565 14.0369 117.744 13.2236 116.772 13.2236Z" fill="url(#paint0_linear_87_16)"/>
<mask id="mask0_87_16" style="mask-type:luminance" maskUnits="userSpaceOnUse" x="16" y="0" width="114" height="148">
<path d="M130 0.493408H16V147.507H130V0.493408Z" fill="black" fill-opacity="0.4"/>
</mask>
<g mask="url(#mask0_87_16)">
<mask id="mask1_87_16" style="mask-type:luminance" maskUnits="userSpaceOnUse" x="16" y="0" width="114" height="148">
<path d="M130 0.493408H16V147.507H130V0.493408Z" fill="white"/>
</mask>
<g mask="url(#mask1_87_16)">
<path d="M71.6563 26.4704C71.6563 26.4704 71.7299 26.4704 71.8035 26.4704C77.1085 26.2854 117.183 24.9172 117.183 24.9172C117.857 24.8786 118.526 24.3969 118.526 23.5451V15.0004C118.526 14.0369 117.706 13.2236 116.734 13.2236H72.1791C71.2072 13.2236 70.3862 14.0369 70.3862 15.0004V27.8386C70.3862 27.7269 70.4211 26.5822 71.6563 26.4704Z" fill="url(#paint1_linear_87_16)"/>
</g>
</g>
<path d="M54.2504 38.0138C54.5873 38.1642 55.2223 38.3838 56.0433 38.3838C57.4644 38.4224 58.2117 37.9021 58.7694 36.6456L66.3164 19.9956C66.0144 19.8453 65.3058 19.6603 64.7443 19.6256C63.7762 19.6256 62.4674 19.8106 61.6465 21.7685L59.1798 27.4688L54.4014 19.7721C54.1033 19.6988 53.3559 19.5485 52.7944 19.5485C51.0751 19.5485 50.1419 20.1806 49.17 21.2135L44.5387 26.2471L48.2755 32.0938C48.9841 33.1692 49.8825 33.7241 51.3733 33.7241C52.3452 33.7241 53.1662 33.5006 53.5418 33.3156L49.0228 26.5824L52.1981 23.2138L57.4257 31.3538L54.2504 38.0138ZM44.3916 31.6853C44.3916 32.9071 43.9037 33.6124 41.4757 33.6124C41.1427 33.6124 40.8794 33.6124 40.62 33.5392V17.2553C40.62 16.0335 41.0304 14.7385 43.4932 14.7385C43.7914 14.7385 44.1283 14.7771 44.3916 14.8156V31.6853ZM39.3847 29.2456C39.3847 31.5388 37.8939 33.2038 34.7922 33.5392C32.5888 33.7974 29.34 33.5006 27.8066 33.3156C27.7717 33.0574 27.733 32.7606 27.733 32.5024C27.733 30.5021 28.8172 30.0588 29.8628 30.0588C30.9083 30.0588 32.5888 30.2438 33.859 30.2438C35.2414 30.2438 35.6518 29.7621 35.6518 29.3574C35.6518 28.8024 35.0903 28.5403 34.0448 28.3553L31.1329 27.8003C28.7049 27.3571 27.3961 25.6921 27.3961 23.9153C27.3961 21.7685 28.9295 19.9956 31.9538 19.6603C34.2307 19.4021 36.9955 19.6988 38.5289 19.8838C38.5638 20.1421 38.6025 20.3656 38.6025 20.6585C38.6025 22.6588 37.557 23.1021 36.5115 23.1021C35.7254 23.1021 34.494 22.9556 33.1116 22.9556C31.6905 22.9556 31.0941 23.3603 31.0941 23.8074C31.0941 24.2853 31.6556 24.5088 32.5501 24.6553L35.3149 25.1756C38.1533 25.6574 39.3847 27.2453 39.3847 29.2456Z" fill="url(#paint2_linear_87_16)"/>
<mask id="mask2_87_16" style="mask-type:luminance" maskUnits="userSpaceOnUse" x="16" y="0" width="114" height="148">
<path d="M130 0.493408H16V147.507H130V0.493408Z" fill="black" fill-opacity="0.25098"/>
</mask>
<g mask="url(#mask2_87_16)">
<mask id="mask3_87_16" style="mask-type:luminance" maskUnits="userSpaceOnUse" x="16" y="0" width="114" height="148">
<path d="M130 0.493408H16V147.507H130V0.493408Z" fill="white"/>
</mask>
<g mask="url(#mask3_87_16)">
<path d="M66.3513 19.9569L63.5865 26.0619C63.513 26.2122 63.1761 26.7672 62.4287 26.7672C62.2429 26.7672 59.8924 26.8404 59.8924 26.8404C59.4432 26.8404 59.2922 27.2836 59.2922 27.2836L61.6852 21.6951C62.5062 19.7333 63.8111 19.5483 64.7831 19.5483C65.3445 19.6254 66.0145 19.8104 66.3513 19.9569ZM59.1063 27.2451L54.4363 19.7333C54.1382 19.6601 53.3908 19.5136 52.8332 19.5136C51.1139 19.5136 50.1807 20.1419 49.2087 21.1786L44.5388 26.2122L44.9144 26.7672C45.0615 26.9869 45.3984 27.3222 46.0335 27.3222C46.2581 27.3222 48.5001 27.2451 48.686 27.2451C49.2475 27.2451 49.6579 27.4686 49.8438 27.7654L49.0229 26.5436L52.1981 23.1751L54.324 26.5051C54.7384 26.9869 55.296 27.0254 55.4083 27.0254C55.5206 27.0254 58.3589 26.9136 58.4712 26.9136C58.7346 26.9136 58.9204 27.0254 59.1063 27.2451ZM43.4584 14.7769C40.9918 14.7769 40.5813 16.0719 40.5813 17.2936V28.4669C40.5813 28.0236 40.9182 27.5419 41.5145 27.5072C41.925 27.5072 43.0828 27.4301 43.381 27.4301C43.7566 27.4301 44.3181 27.1719 44.3529 26.4704V14.8501C44.0935 14.7769 43.7566 14.7769 43.4584 14.7769ZM35.2763 25.1369L32.5153 24.6204C31.617 24.4701 31.0555 24.2504 31.0555 23.7686C31.0555 23.2869 31.6557 22.9169 33.0729 22.9169C34.4553 22.9169 35.6867 23.0633 36.4728 23.0633C37.4796 23.0633 38.5638 22.6201 38.5638 20.6236C38.5638 20.3654 38.529 20.1033 38.4903 19.8451C36.9568 19.6601 34.1959 19.3633 31.9151 19.6254C28.8909 19.9569 27.3613 21.7336 27.3613 23.8804C27.3613 24.9904 27.8454 26.0272 28.8173 26.8019C29.5647 27.2836 30.2733 27.4686 31.0555 27.6151C31.6905 27.7269 33.1117 27.8001 34.1572 27.7654C34.4941 27.7654 36.922 27.6922 37.4796 27.6536C38.7149 27.6151 39.3848 28.6519 39.3499 29.7272V29.6886C39.3499 29.5422 39.3499 29.4304 39.3499 29.2801C39.3848 27.2451 38.1534 25.6572 35.2763 25.1369Z" fill="url(#paint3_linear_87_16)"/>
</g>
</g>
<path d="M88.8377 26.7288C88.8377 30.8373 85.9219 33.277 82.7117 33.277C80.8066 33.277 79.2383 32.3905 78.3051 31.1302V32.3173C78.3051 32.8338 78.003 33.1305 77.1473 33.1305C76.7717 33.1305 76.3612 33.0573 76.1366 33.0188V16.7388C76.1366 16.257 76.4348 15.9255 77.2944 15.9255C77.67 15.9255 78.0805 15.9988 78.3051 16.0335V22.3235C79.2383 21.067 80.7678 20.1805 82.7117 20.1805C85.9219 20.2152 88.8377 22.6202 88.8377 26.7288ZM86.6305 26.7288C86.6305 23.9923 84.764 22.1038 82.3013 22.1038C80.6207 22.1038 79.0524 23.0635 78.3399 24.4702V28.9873C79.0524 30.3902 80.6207 31.3538 82.3013 31.3538C84.764 31.3923 86.6305 29.5038 86.6305 26.7288ZM102.917 27.5073H93.0933C93.3915 29.947 95.0721 31.3152 97.5774 31.3152C98.6578 31.3152 99.5174 31.0955 100.304 30.8373C100.861 30.6523 101.086 30.5752 101.31 30.5752C101.907 30.5752 102.317 31.057 102.209 32.2402C101.051 32.722 99.3316 33.277 97.5 33.277C93.5425 33.277 90.8513 30.6138 90.8513 26.6902C90.8513 22.917 93.6897 20.2152 97.1282 20.2152C101.051 20.2152 102.952 23.2138 102.952 26.2855C102.991 26.617 102.952 27.0602 102.917 27.5073ZM93.0933 25.8423H100.9C100.826 23.6955 99.4439 22.0305 97.1631 22.0305C95.2231 21.992 93.4302 23.3255 93.0933 25.8423ZM113.299 32.3905C112.18 32.907 110.91 33.2423 109.64 33.2423C107.138 33.2423 105.605 31.797 105.605 29.3573V18.5155C105.605 17.9605 105.942 17.5905 106.762 17.5905C107.138 17.5905 107.549 17.6638 107.773 17.737V20.4735H112.703C112.737 20.6585 112.776 21.0285 112.776 21.3252C112.776 22.1038 112.439 22.362 111.994 22.362H107.773V29.207C107.773 30.6523 108.443 31.3923 109.864 31.3923C111.134 31.3923 111.843 30.8373 112.439 30.8373C113.113 30.8373 113.411 31.3538 113.299 32.3905Z" fill="white"/>
</g>
<defs>
<linearGradient id="paint0_linear_87_16" x1="94.4666" y1="13.2261" x2="94.4666" y2="39.9121" gradientUnits="userSpaceOnUse">
<stop offset="0.4" stop-color="#FF0000"/>
<stop offset="1" stop-color="#D42321"/>
</linearGradient>
<linearGradient id="paint1_linear_87_16" x1="94.6323" y1="26.0956" x2="94.1724" y2="12.8035" gradientUnits="userSpaceOnUse">
<stop stop-color="white"/>
<stop offset="1" stop-color="white" stop-opacity="0.25098"/>
</linearGradient>
<linearGradient id="paint2_linear_87_16" x1="46.8433" y1="14.7623" x2="46.8433" y2="38.3774" gradientUnits="userSpaceOnUse">
<stop stop-color="#002A91"/>
<stop offset="0.8" stop-color="#002672"/>
</linearGradient>
<linearGradient id="paint3_linear_87_16" x1="47.0455" y1="27.2732" x2="46.7363" y2="18.3338" gradientUnits="userSpaceOnUse">
<stop stop-color="white"/>
<stop offset="1" stop-color="white" stop-opacity="0.25098"/>
</linearGradient>
<clipPath id="clip0_87_16">
<rect width="114" height="148" fill="white" transform="translate(16)"/>
</clipPath>
</defs>
</svg>
