<svg width="148" height="148" viewBox="0 0 148 148" fill="none" xmlns="http://www.w3.org/2000/svg">
<path fill-rule="evenodd" clip-rule="evenodd" d="M148 92.8761V86.2562H132.817V57.8339H125.845V92.8761H148ZM105.06 64.0125H109.12C112.651 64.0125 115.212 65.8664 115.212 69.3976C115.212 72.9283 112.651 74.8699 109.12 74.8699H105.06V64.0125ZM105.06 93.3172V81.578H109.473C116.976 81.578 122.449 77.0762 122.449 69.3976C122.449 61.8062 116.888 57.3927 109.473 57.3927H98.0872V93.3172H105.06ZM73.5236 69.1545C71.2458 71.0726 69.3129 72.1366 69.3129 72.1366L69.3326 78.2069C70.9658 80.0234 72.5756 81.5315 73.7782 84.2744C76.0598 80.1701 75.6277 74.1214 73.5236 69.1545ZM71.6683 89.0207C71.6683 89.0207 71.2041 86.5214 69.2227 84.1847L64.7075 84.2964C64.7075 84.2964 58.6137 89.5338 54.8969 89.6542C54.8969 89.6542 56.945 93.4654 57.974 95.4535C60.0235 95.0095 63.62 93.3911 65.0696 91.7084C65.0696 91.7084 66.0272 94.7985 65.844 98.4434C67.8782 97.256 70.6872 94.0643 71.6683 89.0207ZM65.844 78.0583L65.8363 72.0168C65.8363 72.0168 63.139 71.1474 60.2527 68.9114C54.4634 69.7874 47.4494 75.6132 47.4494 75.6132C47.4494 75.6132 49.8221 80.1087 52.4096 84.9562C56.969 85.5839 63.6785 79.8388 65.844 78.0583ZM81.2833 103.248L77.5593 99.1209C76.4938 110.271 71.0382 119.735 61.0099 126.334L59.4826 120.319C50.9711 126.473 36.3619 130.458 23.8146 123.365C25.3697 115.414 26.7527 107.362 23.7854 97.714C16.8385 108.473 10.6843 112.688 10.6843 112.688C5.99406 104.809 6.41508 88.99 7.81385 84.3343L0 86.7554C0 81.4432 3.82948 70.1643 9.36751 63.8351L4.48499 63.0559L4.48356 63.0568C7.79851 56.2754 12.7414 50.4353 18.8036 46.0447L18.8094 46.0414C16.991 48.9185 16.9646 56.0026 22.2969 58.7023C20.0326 54.7352 19.7607 49.8339 22.1195 47.291C24.4893 44.7371 28.4631 45.6127 31.0008 47.6008C30.2465 45.3883 28.0325 42.6022 24.7157 42.4123L24.7133 42.4133C30.9783 39.1904 38.0834 37.3716 45.6133 37.3716C47.0198 37.3716 48.4114 37.4349 49.7852 37.5591L49.7866 37.5605C51.9747 38.44 55.1885 41.5228 56.687 43.4409C56.687 43.4409 56.792 41.1785 55.5347 38.4505C63.6852 40.43 67.5665 43.7459 69.1968 45.3528C69.5306 48.8687 70.5851 50.9838 71.98 54.3343C69.3402 51.3751 62.7065 46.6063 59.5426 45.4631C59.5426 45.4631 59.2812 48.5153 58.1937 49.985C51.8903 45.4329 48.7916 44.293 48.7916 44.293C41.8668 45.2804 37.4173 47.9523 35.0005 50.0502L37.1066 51.8441C32.9333 53.1288 30.2244 56.7161 30.2244 56.7161C30.2513 56.7779 33.9508 57.3064 33.9508 57.3064C33.9508 57.3064 33.5725 61.6513 39.0136 64.3755C43.6684 66.7065 50.3717 63.815 56.6798 66.3454C52.5295 61.5569 49.6696 59.4153 49.6696 59.4153C49.6696 59.4153 48.0182 59.0725 46.8572 59.0801C45.4091 59.0897 43.2531 59.3774 40.879 58.4539C39.7497 58.0142 38.431 57.232 37.3952 56.5833C37.3952 56.5833 40.306 53.5929 44.5589 52.9312C44.5589 52.9312 48.3951 54.0101 51.4352 56.261C53.4569 54.2935 55.5659 54.3535 55.5659 54.3535C55.5659 54.3535 53.4785 56.308 54.1091 58.6687C57.1497 61.3775 60.4417 65.2535 60.4417 65.2535C63.7969 63.4122 71.091 63.8346 72.5895 65.5729C70.6915 63.1153 67.9544 61.0577 65.8363 59.2993C65.5788 58.3776 63.2685 55.1576 62.8791 54.8637C62.8791 54.8637 65.0772 55.5432 67.0351 57.3011C67.6024 56.4993 68.6535 55.6798 70.0921 55.3202C71.5705 56.5593 71.8304 58.4601 71.7906 58.78C71.1217 59.5707 70.4719 59.8987 70.4719 59.8987L74.0223 63.745L74.3776 60.9877C82.5626 72.6747 87.0284 86.2164 81.2833 103.248ZM16.5652 29.1693C21.2909 31.3329 24.3244 34.0705 24.8768 34.4839C24.6241 33.2611 23.6952 27.3869 23.1586 23.7344C25.913 25.6486 32.3065 30.0842 34.4073 31.5267C35.2638 28.8854 38.2335 20.2578 38.2335 20.2578C38.2335 20.2578 43.5955 28.9454 44.5124 30.3581C45.6335 29.1851 52.0471 22.0522 53.7044 20.2454C53.9854 24.3501 54.3647 30.2243 54.4543 31.1052C54.7838 30.6678 57.237 27.2268 61.3537 24.0533C59.5685 27.5658 58.7197 32.4167 58.3375 36.3147C54.2899 35.183 50.0226 34.576 45.6133 34.576C37.1564 34.576 29.2208 36.8043 22.3578 40.7033C21.1101 36.9443 19.158 32.2618 16.5652 29.1693Z" fill="#3E1151"/>
</svg>
