<svg width="148" height="148" viewBox="0 0 148 148" fill="none" xmlns="http://www.w3.org/2000/svg">
<g filter="url(#filter0_d_22_1118)">
<path d="M98.4801 45.4265C98.3982 45.5943 98.2362 45.7101 98.0502 45.7316C93.8122 46.2232 89.3091 45.6339 87.5731 45.3614C84.6748 42.4658 81.5373 39.245 79.2243 36.4303C78.987 36.1421 78.9756 35.7297 79.1938 35.4261C82.4924 30.8273 85.5131 27.1783 86.7901 25.7336C90.4388 24.9384 94.077 24.2344 96.534 24.134C96.7196 24.1266 96.8961 24.212 97.0048 24.3626C100.172 28.7677 102.437 32.9886 103.164 34.531C101.71 38.4381 99.9605 42.3849 98.4801 45.4265ZM94.4368 52.8795C92.1007 56.7906 90.326 59.1486 89.7572 59.8654C88.9853 60.9551 87.0176 63.794 83.961 66.6654C83.766 66.8486 83.5116 66.954 83.2435 66.9658C79.4156 67.1252 75.8565 66.8567 74.4705 66.5543C73.2969 66.069 70.5654 64.8407 67.3369 63.0557C67.0554 62.9003 66.8896 62.5969 66.9107 62.2767C67.0792 59.7742 67.8732 56.2094 68.5756 52.4396C70.3124 49.39 72.1129 45.9104 73.9798 43.0524C74.1765 42.7517 74.5447 42.6118 74.892 42.7068C80.4821 44.2328 85.3329 45.3916 87.3022 45.8346C89.9988 48.9614 92.6118 51.1599 94.3697 52.5228C94.4791 52.6077 94.5073 52.7607 94.4368 52.8795ZM60.6148 58.3146C60.3316 58.4901 59.9708 58.4807 59.6986 58.2881C57.2645 56.5651 54.3602 54.3632 51.9412 52.103C50.5142 49.6645 49.4138 46.5437 48.6456 43.8861C48.5959 43.7149 48.6342 43.5297 48.7469 43.3917C51.4613 40.0548 54.719 37.4147 56.0808 36.4095C59.1533 37.7349 62.6798 38.9041 65.7646 39.93C66.0801 40.0347 66.3029 40.3176 66.3291 40.6482C66.7641 46.136 67.7695 50.574 68.038 52.2698C66.8862 53.5004 63.8765 56.2903 60.6148 58.3146ZM47.0948 36.7213C46.692 34.1308 46.4272 31.4101 46.398 30.164C46.3313 27.2868 46.7883 24.7386 47.3193 22.3794C47.4065 21.9931 47.6069 21.643 47.8992 21.3755C49.4413 19.963 52.2298 17.4711 53.9897 16.3425C55.6486 15.2789 60.2591 13.7905 62.1603 13.2384C62.5288 13.131 62.9214 13.2948 63.111 13.6279C63.3396 14.0295 63.5785 14.4281 63.8319 14.8205C65.3287 17.1505 66.9782 19.1565 67.6729 20.0254C66.752 23.6814 66.3607 27.7808 66.1825 31.2388C66.1657 31.5632 65.9589 31.8474 65.6559 31.9656C60.8457 33.8418 57.2101 35.3099 55.9885 35.8737C52.6835 36.0131 49.5356 36.5764 47.4109 36.9477C47.2602 36.9742 47.1182 36.8715 47.0948 36.7213ZM71.3434 11.6129C71.4749 11.4088 71.6904 11.2728 71.9313 11.2408C76.8778 10.5875 81.4034 10.4913 83.1428 10.5393C86.3082 12.6441 89.4014 15.4213 91.8701 18.0552C92.0429 18.2397 92.0688 18.5177 91.9322 18.7309C90.1706 21.4857 87.6086 24.1307 86.4834 25.2825C82.3098 26.2702 77.8852 27.7079 74.294 28.8865C73.9446 29.001 73.5607 28.8712 73.3519 28.5684C70.6268 24.6103 68.8951 21.217 68.2162 19.9582C68.9532 16.6583 69.9838 13.7197 71.3434 11.6134V11.6129ZM104.385 44.1049C104.296 44.1448 104.195 44.0824 104.19 43.9858C103.982 39.9226 103.608 35.9746 103.413 34.5308C103.429 31.0218 102.847 27.3805 102.266 24.6957C102.245 24.5986 102.331 24.5119 102.429 24.5314C105.749 25.2092 106.815 26.4524 106.815 26.4524C105.057 22.5121 102.524 19.5427 99.7715 17.2985C97.418 12.3719 94.709 10.0932 94.709 10.0932C94.9281 11.1829 94.7771 12.4153 94.3888 13.6871C94.3643 13.768 94.2717 13.8066 94.1955 13.7697C89.6843 11.5645 85.0262 10.5573 83.2243 10.3053C80.5318 8.99692 77.5909 8.1312 75.1994 7.47496C75.1357 7.45754 75.1182 7.37498 75.1696 7.33225C78.3437 4.69898 81.2634 4.02865 81.2634 4.02865C76.0945 3.82166 71.6454 4.75624 67.9252 6.1853C62.367 5.74019 58.8264 6.70632 58.8264 6.70632C58.8264 6.70632 60.3611 8.5423 60.9578 9.56441C61.0296 9.68804 60.992 9.84648 60.8742 9.9278C57.3783 12.3503 54.87 15.0115 53.881 16.1193C52.7792 16.2682 50.8709 16.5316 49.2043 16.9423C49.1379 16.9589 49.0815 16.8921 49.1084 16.8291C50.7773 12.8562 52.5966 10.657 52.5966 10.657C52.5966 10.657 41.8694 18.2688 39.836 31.947C39.836 31.947 40.7193 29.5224 43.7062 25.8474C43.7454 25.7993 43.8216 25.8088 43.8471 25.8656C44.6935 27.7381 45.6611 29.4009 46.1474 30.164C44.5046 32.8064 43.3706 35.6877 42.6722 38.0457C42.648 38.1275 42.5863 38.1933 42.5057 38.2235C40.0213 39.1659 39.3883 40.065 39.3883 40.065C39.7746 41.3832 40.5331 42.6682 41.4912 43.8794C41.5744 43.9841 41.6167 44.115 41.611 44.2486C41.3472 50.0861 43.232 53.9284 43.232 53.9284C43.6575 51.8896 44.4908 49.9092 45.5433 48.0506C45.5852 47.9765 45.6839 47.958 45.7503 48.0107C48.2022 49.9565 50.7421 51.6577 51.7499 52.2618C52.2697 53.5881 53.7581 57.0297 55.7469 60.5605C55.7885 60.635 55.7546 60.7293 55.6744 60.7585C53.293 61.6254 50.8498 62.0177 48.6097 61.4727C48.6097 61.4727 51.3113 64.8354 59.6449 66.2695C61.9569 68.9992 64.7706 71.2599 68.0565 72.0452C68.0565 72.0452 67.0933 70.9874 66.8553 67.0454C66.8503 66.9655 66.9144 66.8974 66.9946 66.8987C69.0522 66.9296 71.8434 66.9742 74.3983 66.789C75.3038 67.5021 77.2798 69.0677 79.2072 70.0654C79.3032 70.1151 79.3092 70.25 79.2169 70.3061C75.829 72.3522 73.5748 72.5304 73.5748 72.5304C88.9209 72.857 98.1348 62.8601 98.1348 62.8601C95.607 64.521 92.688 65.5536 89.7823 66.1688C89.6843 66.1896 89.5984 66.103 89.6189 66.005C90.1585 63.3977 90.0072 60.8767 89.9693 59.9883C93.6102 59.0862 96.7863 57.4612 99.1379 55.8C99.1852 55.7665 99.2487 55.7661 99.2967 55.7993C100.276 56.4796 101.113 57.2428 101.949 58.5134C101.949 58.5134 103.541 56.2635 104.089 51.0506C108.031 45.9105 108.617 40.6493 108.617 40.6493C107.628 42.194 106.135 43.3072 104.385 44.1049ZM74.003 94.858C67.4208 94.858 61.4491 97.7969 57.8065 102.142L58.962 103.566C62.27 99.4581 67.8977 96.6337 74.003 96.6337C80.1089 96.6337 85.7363 99.4581 89.0443 103.566L90.1998 102.142C86.5569 97.7969 80.5855 94.858 74.003 94.858ZM58.6066 95.7806C58.1737 96.1319 57.6703 96.3034 57.2259 96.2507C56.6628 96.1863 56.3208 95.9561 55.7603 95.2658L52.5325 91.306L50.7921 92.7175L54.3075 97.0334C55.0546 97.9472 55.9063 98.4365 56.9101 98.5285C57.0289 98.5396 57.1464 98.5456 57.2625 98.5466C58.2357 98.555 59.1395 98.2127 60.0154 97.5056C60.991 96.7102 61.5267 95.7869 61.6522 94.6828C61.7663 93.6824 61.4605 92.7504 60.7155 91.8342L57.2007 87.5197L55.4603 88.9313L58.6868 92.8931V92.8937C59.2493 93.5814 59.4046 93.963 59.3526 94.5271C59.3137 94.9711 59.0419 95.4282 58.6066 95.7806ZM70.5104 83.3056L64.8723 84.4476C64.6149 84.4996 64.4112 84.6282 64.2846 84.8201C64.1568 85.0118 64.1175 85.2484 64.1695 85.5051L65.2931 91.0295C65.476 91.9279 65.8798 92.5749 66.4932 92.9528C66.899 93.2025 67.3856 93.3273 67.9464 93.327C68.232 93.3267 68.537 93.2938 68.8599 93.2283L72.3837 92.5148L71.9599 90.4294L68.5317 91.1241C67.8299 91.2657 67.6021 91.1882 67.442 90.4022L67.3215 89.8095L71.2866 89.0064L70.8675 86.9448L66.902 87.7476L66.601 86.2686L70.9346 85.3907L70.5104 83.3056ZM81.4738 86.3199L84.8523 87.1932L85.3863 85.1373L81.9121 84.2392C80.0079 83.7469 78.7038 84.4584 78.2406 86.2421L76.8221 91.705C76.7566 91.9587 76.7831 92.1967 76.8996 92.3947C77.016 92.5924 77.2117 92.7313 77.4657 92.7971L78.7555 93.1303L79.6696 89.5971L83.5797 90.6079L84.108 88.5759L80.1965 87.5644L80.3486 86.9804C80.5496 86.2058 80.7812 86.1407 81.4738 86.3199ZM99.0047 91.3093L100.197 89.8397C99.6051 89.2484 98.9886 88.6745 98.3462 88.1215C91.6721 82.3723 83.0267 79.2065 74.003 79.2065C64.9797 79.2065 56.3346 82.3723 49.6598 88.1215C49.0178 88.6745 48.4009 89.2481 47.8086 89.8394L49.0013 91.309C49.6037 90.7009 50.2333 90.1112 50.8907 89.5444C57.2236 84.0902 65.4314 81.0866 74.003 81.0866C82.5746 81.0866 90.7824 84.0902 97.1149 89.5444C97.773 90.1112 98.4023 90.7009 99.0047 91.3093ZM89.8998 98.6027L90.2867 97.2706L88.6222 96.0296L89.9626 95.0714L90.7388 95.6534L91.6204 92.687L86.5045 95.988L84.4073 94.804L92.4319 89.6219C92.7413 89.4219 93.1645 89.2457 93.7001 89.6568L94.0431 89.9206C94.5838 90.3361 94.5066 90.812 94.4009 91.1338L91.7372 100.281L89.8998 98.6027ZM52.1345 141.922H46.2165V137.387H49.7433L51.1871 138.616H51.2354V133.986H51.1871L49.7433 135.215H46.2165V131.27H51.9217L53.5789 133.042H53.6259L53.4366 129.12H41.2684V129.168L42.3822 130.514V142.702L41.2684 144.048V144.095H53.9575L54.2652 139.584H54.2172L52.1345 141.922ZM54.3703 111.78L58.5609 122.456H60.9044L64.787 111.662L65.4492 121.062L63.9813 122.408V122.456H70.349V122.408L69.119 121.062L68.2182 108.874L69.1895 107.528V107.481H63.8873L60.2886 117.471L56.406 107.481H51.0327V107.528L52.1221 108.874L51.4821 121.062L50.1813 122.408V122.456H55.4116V122.408L54.1105 121.062L54.3703 111.78ZM36.7498 141.898H31.6134V130.514L33.0107 129.168V129.12H26.6655V129.168L27.7792 130.514V142.702L26.6655 144.024V144.095H38.5726L39.1415 139.396H39.0932L36.7498 141.898ZM25.2823 122.408V122.456H31.3194V122.408L30.2057 121.062V108.874L31.3194 107.528V107.481H25.2823V107.528L26.3715 108.874V113.409H20.9982V108.874L22.0874 107.528V107.481H16.0506V107.528L17.1635 108.874V121.062L16.0506 122.408V122.456H22.0874V122.408L20.9982 121.062V115.795H26.3715V121.062L25.2823 122.408ZM119.566 141.922H113.648V137.387H117.175L118.619 138.616H118.667V133.986H118.619L117.175 135.215H113.648V131.27H119.354L121.01 133.042H121.057L120.868 129.12H108.7V129.168L109.814 130.514V142.702L108.7 144.048V144.095H121.389L121.697 139.584H121.649L119.566 141.922ZM65.2391 138.119L63.4644 132.168L61.3807 138.119H65.2391ZM70.5416 142.702L71.7726 144.048V144.095H65.3582V144.048L66.5892 142.702L65.9029 140.364H60.6004L59.7946 142.702L60.9548 144.048V144.095H55.9365V144.048L57.1205 142.702L61.7364 130.514L60.8601 129.168V129.12H65.9496L70.5416 142.702ZM9.04586 120.472C5.96779 120.472 4.00311 117.353 4.00311 114.66C4.00311 111.354 5.80197 109.205 8.38238 109.205C9.06875 109.205 9.73227 109.276 10.3243 109.44L12.6437 112.299H12.6914L12.5256 107.575C11.8621 107.315 10.419 106.96 8.64301 106.96C3.15189 106.96 0.00292969 110.693 0.00292969 114.991C0.00292969 119.244 3.03278 122.974 8.24062 122.974C9.6375 122.974 11.697 122.503 13.1173 121.44L13.3301 118.96H13.2831C12.0763 119.904 10.3469 120.472 9.04586 120.472ZM95.2453 122.408L94.1562 121.062V108.874L95.2453 107.528V107.481H89.2085V107.528L90.3213 108.874V121.062L89.2085 122.408V122.456H95.2453V122.408ZM82.0031 137.08L83.4938 138.428V141.238C83.02 141.781 82.1917 142.229 81.0798 142.229C78.4282 142.229 77.0315 138.994 77.0315 136.277C77.0315 133.325 78.5236 130.845 81.6004 130.845C82.4525 130.845 83.3522 130.916 84.0855 131.175L86.4532 133.725H86.5002L86.3578 129.616C84.9852 128.908 83.328 128.602 81.6473 128.602C76.6056 128.602 73.0308 131.696 73.0308 136.797C73.0308 141.071 75.777 144.616 80.0613 144.616C81.9319 144.616 83.6358 144.19 85.2218 143.033L87.0911 144.616H87.1395V138.428L88.3225 137.08V137.033H82.0031V137.08ZM78.0849 115.181C78.5588 115.323 79.1025 115.393 79.671 115.393C81.7547 115.393 82.6542 114.259 82.6542 112.582C82.6542 110.598 81.494 109.654 79.3391 109.654H78.0849V115.181ZM74.2507 121.062V108.874L73.1371 107.528V107.481H80.2395C84.548 107.481 86.5126 109.44 86.5126 112.418C86.5126 115.512 84.1691 117.425 80.9734 117.425C79.9321 117.425 78.8665 117.353 78.0849 117.165V121.062L79.6472 122.408V122.456H73.1371V122.408L74.2507 121.062ZM110.016 116.054C110.016 113.457 109.046 109.323 105.73 109.323C103.079 109.323 102.322 111.968 102.322 113.763C102.322 116.385 103.411 120.613 106.607 120.613C108.903 120.613 110.016 118.439 110.016 116.054ZM106.039 122.974C101.352 122.974 98.3217 119.124 98.3217 114.756C98.3217 110.244 101.801 106.96 106.157 106.96C110.962 106.96 114.04 110.717 114.04 115.015C114.04 119.928 110.324 122.974 106.039 122.974ZM101.032 129.168L102.264 130.514V139.042C102.264 141.498 101.057 142.112 99.0916 142.112C97.1028 142.112 95.896 141.544 95.896 139.042V130.514L97.127 129.168V129.12H90.9479V129.168L92.0611 130.514V139.042C92.0611 143.127 94.1441 144.616 98.5939 144.616C102.642 144.616 104.702 143.222 104.702 139.159V130.514L105.79 129.168V129.12H101.032V129.168ZM129.623 131.008C129.623 129.944 128.814 129.139 127.793 129.139C126.761 129.139 125.953 129.944 125.953 131.008C125.953 132.094 126.761 132.894 127.793 132.894C128.814 132.894 129.623 132.094 129.623 131.008ZM130.077 131.008C130.077 132.315 129.022 133.268 127.793 133.268C126.553 133.268 125.499 132.315 125.499 131.008C125.499 129.717 126.553 128.763 127.793 128.763C129.022 128.763 130.077 129.717 130.077 131.008ZM127.789 130.852C128.122 130.852 128.422 130.834 128.422 130.433C128.422 130.11 128.129 130.052 127.852 130.052H127.314V130.852H127.789ZM128.159 131.17L128.894 132.315H128.456L127.771 131.189H127.314V132.315H126.922V129.717H127.913C128.529 129.717 128.832 129.944 128.832 130.455C128.832 130.92 128.539 131.121 128.159 131.17ZM127.175 107.528L128.62 108.874V116.81L122.535 107.481H117.067V107.528L118.18 108.874V121.062L117.067 122.408V122.456H122.062V122.408L120.595 121.062V111.141L128.192 122.456H131.034V108.874L132.146 107.528V107.481H127.175V107.528ZM142.44 113.244C139.717 112.489 138.889 112.158 138.889 110.906C138.889 109.465 140.76 109.181 141.943 109.181C142.937 109.181 143.861 109.299 144.689 109.559L146.962 112.016H147.009L146.82 107.787C145.398 107.245 143.908 106.96 142.204 106.96C138.629 106.96 135.196 108.189 135.196 111.733C135.196 114.023 136.782 115.393 140.215 116.339C142.867 117.071 144.169 117.542 144.169 118.889C144.169 120.448 142.18 120.778 140.854 120.778C139.741 120.778 138.747 120.613 137.894 120.353L135.599 117.519H135.551L135.717 122.006C137.28 122.715 139.174 122.974 140.948 122.974C144.783 122.974 148.003 121.369 148.003 118.133C148.003 115.086 145.896 114.213 142.44 113.244ZM38.5104 116.48H42.3688L40.5941 110.527L38.5104 116.48ZM38.0848 122.456H33.0662V122.408L34.2507 121.062L38.8666 108.874L37.9903 107.528V107.481H43.0794L47.6718 121.062L48.9028 122.408V122.456H42.4881V122.408L43.7194 121.062L43.0328 118.724H37.7302L36.9248 121.062L38.085 122.408L38.0848 122.456Z" fill="#00004B"/>
</g>
<defs>
<filter id="filter0_d_22_1118" x="0" y="0" width="148.003" height="148" filterUnits="userSpaceOnUse" color-interpolation-filters="sRGB">
<feFlood flood-opacity="0" result="BackgroundImageFix"/>
<feColorMatrix in="SourceAlpha" type="matrix" values="0 0 0 0 0 0 0 0 0 0 0 0 0 0 0 0 0 0 127 0" result="hardAlpha"/>
<feOffset/>
<feComposite in2="hardAlpha" operator="out"/>
<feColorMatrix type="matrix" values="0 0 0 0 0 0 0 0 0 0 0 0 0 0 0 0 0 0 1 0"/>
<feBlend mode="normal" in2="BackgroundImageFix" result="effect1_dropShadow_22_1118"/>
<feBlend mode="normal" in="SourceGraphic" in2="effect1_dropShadow_22_1118" result="shape"/>
</filter>
</defs>
</svg>
