<svg width="148" height="148" viewBox="0 0 148 148" fill="none" xmlns="http://www.w3.org/2000/svg">
<path fill-rule="evenodd" clip-rule="evenodd" d="M19.0413 57V60.2227L19.0397 60.2212C18.9189 60.2281 18.8027 60.2345 18.6895 60.2408L18.6895 60.2408L18.6894 60.2408C18.4473 60.2542 18.2194 60.2669 17.9914 60.2817C15.4754 60.4415 13.593 62.1235 13.334 64.5502C13.0843 66.8885 14.1927 68.9987 16.7658 69.6721C18.5078 70.1283 20.1682 69.7947 21.7916 69.1461C21.8856 69.1089 21.9673 68.9149 21.9673 68.7924C21.9706 68.5681 21.9583 68.3439 21.946 68.1196C21.9351 67.9203 21.9242 67.7209 21.9242 67.5216C21.9211 64.1949 21.9211 60.8667 21.9211 57.54C21.9211 57.4224 21.9144 57.3048 21.9076 57.1859L21.9076 57.1858C21.9041 57.1243 21.9006 57.0624 21.898 57H19.0413ZM18.9338 66.3258C18.9336 66.5913 18.9333 66.8574 18.9333 67.1244C17.3732 67.5433 16.3541 66.7877 16.3233 65.2453C16.3202 65.1041 16.3202 64.963 16.3233 64.8218C16.3588 63.2375 17.3763 62.7984 18.6389 62.8683C18.7422 62.8745 18.9195 63.0638 18.921 63.1708C18.9358 64.219 18.9348 65.2672 18.9338 66.3258ZM84.5002 57.4918C84.4563 57.5866 84.4161 57.6839 84.3758 57.7813L84.3758 57.7813L84.3758 57.7814L84.3758 57.7814V57.7814C84.289 57.9914 84.2021 58.2016 84.0778 58.3871C83.5834 59.1271 83.0745 59.8577 82.5651 60.589L82.5623 60.593L82.5602 60.5961L82.5583 60.5989L82.5565 60.6014C82.3841 60.8489 82.2117 61.0964 82.0397 61.3445C82.809 61.7975 83.4118 62.1529 84.0131 62.5082L84.0013 62.5497C83.9836 62.6123 83.9657 62.6756 83.9468 62.7378C82.2864 62.1513 80.6245 62.1746 78.9641 62.6959C78.9364 62.623 78.9086 62.5501 78.8824 62.4772C79.2124 62.2799 79.5424 62.0831 79.87 61.8877L79.8789 61.8824C80.1177 61.74 80.3552 61.5983 80.5906 61.4577C80.6101 61.0942 80.6294 60.7262 80.6489 60.3554C80.6895 59.5818 80.7308 58.7956 80.7756 58.01C80.8033 57.5073 82.3419 56.7408 82.6996 57.0884C82.8537 57.2373 82.8353 57.6407 82.7875 57.9092C82.7702 58.0051 82.7318 58.097 82.6915 58.1933C82.6276 58.3462 82.5592 58.51 82.5639 58.7176C82.8453 58.4908 83.1264 58.2641 83.4074 58.0373C83.6898 57.8095 83.9723 57.5816 84.2551 57.3537C84.296 57.377 84.3368 57.3998 84.3777 57.4227L84.3779 57.4228C84.4186 57.4457 84.4594 57.4685 84.5002 57.4918ZM71.9406 66.7361L71.9652 66.7021C72.5732 65.8579 73.1141 65.1071 74.0587 64.7549C75.2227 64.3205 75.79 64.5703 76.2109 65.7185C77.0249 67.9373 77.566 70.212 77.4011 72.5938C77.2238 75.1353 76.2587 77.2549 74.0957 78.5924L74.3009 78.0726L74.3034 78.0663C74.6711 77.1351 75.0498 76.1759 75.4231 75.2145C75.4617 75.1163 75.4779 75.0091 75.4941 74.9024V74.9023L75.4941 74.9022L75.4941 74.9021L75.4941 74.9019L75.4942 74.9016L75.4942 74.9014C75.5013 74.8549 75.5083 74.8085 75.5171 74.7629C75.659 74.0042 75.4663 73.5496 74.6739 73.1725C72.4492 72.1128 71.1296 70.2043 70.2878 67.9296C70.2643 67.8666 70.2448 67.8019 70.2254 67.7371L70.2254 67.737C70.2003 67.6535 70.1752 67.57 70.1413 67.4905C70.099 67.3914 70.0347 67.2833 69.9709 67.176L69.9708 67.1758C69.8418 66.9588 69.7146 66.7451 69.7744 66.6153L69.7819 66.5992C70.0895 65.9273 70.4163 65.2139 71.2452 64.9846C71.6738 64.8667 72.0576 65.284 72.0176 65.8613C72.0035 66.0671 71.9841 66.2721 71.9648 66.4769L71.9647 66.4771L71.9646 66.4781C71.9565 66.5642 71.9484 66.6502 71.9406 66.7361ZM75.5541 72.4448C75.4447 70.361 74.9544 68.5642 73.5361 67.07C72.6728 68.7581 73.5639 71.1895 75.5541 72.4448ZM77.5229 75.7586L77.5228 75.7591H77.5213L77.5229 75.7586ZM77.5229 75.7586C77.6986 74.3098 77.8298 74.1298 79.1216 73.8661C81.2768 73.4239 83.3981 73.5061 85.4594 74.4572C85.561 73.1299 85.6583 71.8522 85.7556 70.576L85.7609 70.5063L85.7646 70.4571C85.7548 70.4522 85.745 70.4471 85.7352 70.4419C85.7201 70.4339 85.7049 70.4259 85.6891 70.4184L85.6818 70.4434C85.416 71.366 85.1499 72.2896 84.8566 73.3106C82.6304 72.6294 80.3657 72.586 78.2968 73.2159C78.1207 71.8548 77.9477 70.5201 77.7728 69.1702L77.3826 66.1576C78.4093 65.6207 79.7182 65.3895 81.0363 65.3026C83.2609 65.1552 85.3083 65.734 87.075 67.1382C87.2693 67.2918 87.4419 67.7278 87.3648 67.9342C86.3998 70.5177 86.3258 73.174 86.631 75.8708C86.6462 76.0031 86.6428 76.1375 86.6386 76.3006L86.6386 76.3011C86.6365 76.3864 86.6341 76.4796 86.6341 76.5845C83.7301 74.8098 80.7028 74.7614 77.5229 75.7586ZM68.3913 90.2653H64.3028V85.8338C64.2118 85.8266 64.1269 85.8181 64.0461 85.8101L64.046 85.8101C63.8847 85.794 63.7395 85.7795 63.5936 85.7795C62.8201 85.7786 62.0466 85.7795 61.2731 85.7803H61.2706H61.2706H61.2705H61.2705H61.2704H61.2704H61.2703H61.2702H61.2702H61.2701H61.2701H61.27H61.27H61.2699H61.2698H61.2698H61.2697H61.2697H61.2696H61.2696H61.2695H61.2694H61.2694H61.2693C59.4234 85.7823 57.5776 85.7843 55.7327 85.7625C55.1885 85.7563 54.9865 85.9316 54.8647 86.4576C54.6088 87.5608 54.285 88.6485 53.9474 89.7284C53.878 89.9487 53.6345 90.2684 53.4618 90.2761C52.5417 90.3123 51.6198 90.3081 50.6577 90.3038C50.3383 90.3024 50.0144 90.301 49.6847 90.301C49.7727 89.9753 49.8572 89.6601 49.9398 89.352L49.9421 89.3436L49.9424 89.3423L49.9425 89.3418L49.943 89.34C50.1095 88.719 50.2682 88.1268 50.4324 87.536C50.6909 86.6091 50.9475 85.6817 51.2042 84.7544L51.2043 84.754L51.2044 84.7536L51.2045 84.7532L51.2046 84.7527L51.2047 84.7523L51.2049 84.7519L51.205 84.7515L51.2051 84.7511L51.2052 84.7507L51.2053 84.7503L51.2054 84.7499L51.2055 84.7495L51.2057 84.7491L51.2058 84.7487L51.2059 84.7483L51.206 84.7479L51.2061 84.7475L51.2062 84.7471L51.2063 84.7467L51.2065 84.7462L51.2066 84.7458L51.2067 84.7454L51.2068 84.745L51.207 84.7443C51.8633 82.3731 52.5195 80.002 53.2059 77.6397C54.1 74.5613 55.7789 72.1842 59.0981 71.427C60.908 71.0142 62.7241 71.0453 64.494 71.6318C66.8373 72.4092 68.2171 74.1485 68.2926 76.6296C68.3661 79.0525 68.3725 81.4778 68.3789 83.9027V83.9028V83.903V83.9031V83.9032V83.9033V83.9035V83.9036V83.9037V83.9038V83.904V83.9041V83.9042V83.9044V83.9045V83.9046V83.9047V83.9049V83.905V83.9051V83.9052V83.9054V83.9055V83.9056C68.3815 84.8929 68.3842 85.8802 68.3913 86.8672C68.3964 87.6003 68.3948 88.3327 68.3931 89.0874V89.0901V89.0929V89.0956V89.0984V89.1011V89.1039V89.1066V89.1093V89.112V89.1147V89.1174V89.1201V89.1228V89.1255V89.1282C68.3922 89.5008 68.3913 89.8789 68.3913 90.2653ZM64.2535 83.1123C64.2535 82.5438 64.2562 81.9819 64.2589 81.4248C64.2655 80.0616 64.272 78.7269 64.238 77.393C64.218 76.566 63.8788 75.8088 63.1034 75.4038C61.5694 74.6001 58.3643 74.6575 57.4732 77.2859C57.0316 78.5916 56.6671 79.9246 56.297 81.2778L56.297 81.2779L56.297 81.278L56.2968 81.2785C56.1309 81.8854 55.9638 82.4964 55.7882 83.1107H64.2519L64.2535 83.1123ZM33.855 71.6241L33.8546 71.6255C33.7334 71.6188 33.6249 71.6117 33.5249 71.6051C33.3224 71.5917 33.1547 71.5807 32.987 71.5807C32.2797 71.5797 31.5722 71.5816 30.8646 71.5836H30.8645H30.8644H30.8643H30.8642H30.8641H30.864H30.8639H30.8638H30.8637H30.8636H30.8635H30.8633H30.8632H30.8631H30.863H30.8629H30.8628H30.8627H30.8626H30.8625H30.8624H30.8623H30.8621H30.8621H30.8621H30.8621H30.8621H30.862H30.862H30.862H30.862H30.8619H30.8619H30.8619H30.8619H30.8619H30.8618H30.8618H30.8618H30.8618H30.8617H30.8617H30.8617H30.8617H30.8616H30.8616C29.2324 71.5879 27.6028 71.5923 25.974 71.5621C25.3311 71.5496 25.0953 71.7808 24.9257 72.3689C23.9267 75.8337 22.8999 79.2907 21.8423 82.7369C21.7824 82.9325 21.58 83.0849 21.3776 83.2373C21.2831 83.3085 21.1885 83.3797 21.1085 83.4553C21.0779 83.3648 21.0393 83.2744 21.0007 83.1841C20.9169 82.9879 20.8331 82.7917 20.831 82.5941C20.819 81.6075 20.8199 80.6205 20.8209 79.6335C20.8221 78.4739 20.8232 77.3141 20.8033 76.1549C20.7693 74.2433 19.8937 72.9989 18.3952 72.6063C17.2667 72.3099 16.1474 72.3937 15.0652 72.7894C13.1643 73.4845 12.3133 75.0874 11.7074 76.8702C11.4537 77.617 11.2054 78.3658 10.9572 79.1145L10.9572 79.1146C10.5494 80.3447 10.1416 81.5748 9.70943 82.7958C9.64314 82.9812 9.45191 83.1209 9.26021 83.2611C9.17102 83.3263 9.08174 83.3915 9.00488 83.4615C8.96795 83.3739 8.92121 83.2864 8.87447 83.1988L8.87445 83.1988C8.77293 83.0086 8.6714 82.8184 8.67034 82.6283C8.65236 80.0147 8.65396 77.4002 8.65555 74.7855V74.7854V74.7854V74.7853V74.7853V74.7852V74.7852V74.7851V74.785V74.785V74.7849V74.7849V74.7848V74.7848V74.7847V74.7847V74.7846V74.7846V74.7845V74.7845V74.7844V74.7844V74.7843V74.7843C8.65601 74.0371 8.65647 73.2899 8.65647 72.5427V71.5915C8.1355 71.5915 7.61851 71.5912 7.10476 71.5908H7.10467H7.10457H7.10448H7.10439H7.1043H7.10421H7.10412H7.10402H7.10393H7.10384H7.10375H7.10366H7.10357H7.10348H7.1034H7.10331H7.10322H7.10313H7.10304H7.10295H7.10287H7.10278H7.10269C4.84566 71.5892 2.65126 71.5876 0.457885 71.6179C0.306802 71.6195 0.0339269 72.0074 0.0293019 72.2199C-0.00615641 73.9779 -0.00461474 75.7375 0.0123436 77.4955C0.0172365 78.0093 0.020611 78.5232 0.0239859 79.0372C0.0365613 80.9524 0.0491414 82.8683 0.140302 84.7804C0.214302 86.318 0.649052 87.7921 1.70972 88.9806C3.31459 90.779 6.5968 91.2553 8.99101 90.0543C11.3097 88.8906 12.5553 86.8301 13.3925 84.5057C13.8909 83.1212 14.3358 81.7177 14.7807 80.3139C15.0982 79.3123 15.4157 78.3105 15.7528 77.3155C15.8286 77.0929 16.0238 76.9109 16.219 76.7288C16.3096 76.6444 16.4002 76.5599 16.4789 76.4714C16.5111 76.5776 16.5519 76.6837 16.5926 76.7897C16.6804 77.0182 16.7682 77.2464 16.7703 77.4753C16.782 78.5487 16.7799 79.6223 16.7779 80.696V80.696V80.696V80.696V80.6961V80.6961V80.6961V80.6961V80.6961V80.6961V80.6962V80.6962V80.6962V80.6962V80.6962V80.6962V80.6963V80.6963V80.6963V80.6963V80.6963V80.6964V80.6964V80.6968C16.775 82.1574 16.7722 83.6181 16.8042 85.0783C16.8396 86.7401 17.2019 88.3522 18.5509 89.4725C20.1881 90.8317 22.1229 90.9155 24.0993 90.4997C26.5367 89.9861 28.174 88.3786 29.1082 86.1861C29.9316 84.2507 30.5746 82.2347 31.2163 80.223L31.2163 80.2229C31.3411 79.8317 31.4658 79.4405 31.5918 79.0502C32.1348 77.3722 32.6399 75.6807 33.1571 73.9489L33.1572 73.9486L33.1592 73.9418C33.3872 73.1783 33.6176 72.407 33.8546 71.6255L33.8581 71.6257L33.855 71.6241ZM105.196 78.749H109.172L109.17 78.7475C109.161 75.0515 107.252 72.0569 103.72 71.4874C102.222 71.2454 100.655 71.2314 99.1368 71.3447C96.1552 71.5681 93.9692 73.4037 93.2785 76.3363C92.5477 79.438 92.5385 82.6017 93.3124 85.7019C93.9075 88.0852 95.4661 89.7299 97.8773 90.2513C99.3342 90.5662 100.876 90.65 102.368 90.5849C106.656 90.4002 109.124 87.4537 109.168 82.5304H105.172C105.156 82.6288 105.14 82.7259 105.125 82.8219L105.108 82.9259L105.108 82.926L105.108 82.9265L105.108 82.9267L105.107 82.9272L105.107 82.9275L105.107 82.928L105.107 82.9282C105.061 83.2125 105.016 83.4886 104.967 83.7639C104.668 85.4769 103.797 86.4994 102.299 86.7865C101.75 86.892 101.172 86.878 100.609 86.8625C98.7267 86.8097 97.3778 85.7391 97.1712 83.8648C96.9816 82.1518 96.9168 80.4 97.0494 78.6854C97.236 76.2882 98.3583 75.1601 100.618 74.9941C102.872 74.8281 104.627 75.5201 105.038 78.1237C105.059 78.2563 105.095 78.3861 105.135 78.5258C105.155 78.5971 105.176 78.6709 105.196 78.749ZM123.429 71.6302H127.476C127.482 71.6903 127.489 71.7465 127.495 71.7999C127.508 71.9133 127.521 72.0146 127.521 72.1159C127.52 73.1604 127.521 74.205 127.522 75.2496V75.2498V75.2499V75.25V75.2501V75.2502V75.2503V75.2504V75.2505V75.2506V75.2507V75.2508V75.2509V75.2511V75.2512V75.2513V75.2514V75.2515V75.2516V75.2517V75.2518V75.2519V75.2539C127.525 78.165 127.529 81.0766 127.499 83.9874C127.484 85.5079 127.08 86.9432 126.136 88.1814C125.18 89.4351 123.867 90.1008 122.373 90.4157C120.363 90.8393 118.351 90.8207 116.351 90.2916C113.738 89.5996 111.893 87.5452 111.785 84.8097C111.679 82.1455 111.668 79.4774 111.657 76.8093L111.657 76.8055C111.653 75.7005 111.648 74.5954 111.637 73.4906C111.633 73.1039 111.634 72.7164 111.635 72.3104V72.3102V72.31V72.3098V72.3095V72.3093V72.3091V72.3088V72.3086V72.3084V72.3081V72.3078V72.3076V72.3073V72.307V72.3068V72.3065V72.3062V72.3059V72.3056V72.3053V72.3049C111.636 72.0937 111.637 71.8774 111.637 71.6535H115.795V72.5301C115.795 73.7115 115.795 74.8927 115.794 76.0738V76.074V76.0742V76.0743V76.0745V76.0747V76.0749V76.075V76.0752V76.0754V76.0755V76.0757V76.0759V76.0761V76.0762V76.0764V76.0766V76.0767V76.0769V76.0771V76.0773V76.0774C115.794 78.4383 115.794 80.799 115.795 83.1603C115.796 85.6523 117.002 86.8656 119.484 86.8672L119.605 86.8673C120.027 86.8682 120.457 86.8691 120.862 86.7756C122.638 86.3675 123.415 85.2209 123.424 83.0005C123.434 80.5071 123.432 78.013 123.431 75.5191V75.5189V75.5188V75.5186V75.5185V75.5183V75.5181V75.518V75.5178V75.5177V75.5175V75.5173V75.5172V75.517V75.5169V75.5167V75.5165V75.5164V75.5162V75.5161V75.5159V75.5157C123.43 74.5189 123.429 73.5221 123.429 72.5255V71.6302ZM130.271 90.2637H134.313V90.2621V83.3139H135.25C135.905 83.313 136.56 83.3171 137.215 83.3212H137.215H137.215H137.216H137.216H137.216H137.216H137.216H137.217H137.217H137.217H137.217H137.217H137.217H137.218H137.218H137.218H137.218H137.218H137.219H137.219H137.219C138.719 83.3305 140.22 83.3398 141.718 83.2891C143.404 83.2332 145.068 82.8826 146.321 81.6366C148.119 79.8507 148.302 77.6241 147.664 75.3122C147.064 73.1384 145.393 72.0336 143.309 71.8226C140.945 71.5821 138.545 71.5557 136.168 71.6333C132.317 71.7574 130.245 73.9949 130.232 77.8506C130.223 80.8449 130.226 83.8401 130.23 86.8348V86.8352V86.8356V86.8361V86.8365V86.8369V86.8374C130.231 87.692 130.232 88.5465 130.232 89.401C130.232 89.5828 130.243 89.7646 130.254 89.9561C130.26 90.0555 130.266 90.1576 130.271 90.2637ZM136.481 80.6646H136.48H136.48H136.48H136.48H136.48H136.48H136.48H136.479H136.479C135.75 80.6596 135.013 80.6544 134.265 80.6544V80.6529C134.283 80.2441 134.294 79.8415 134.304 79.4438V79.443V79.4426C134.327 78.5485 134.35 77.6792 134.457 76.8204C134.589 75.7575 135.26 75.2439 136.31 75.2299C137.976 75.2067 139.643 75.1958 141.309 75.2377C142.931 75.278 143.833 76.2261 143.859 77.8134C143.888 79.59 143.11 80.5831 141.431 80.6358C139.796 80.6877 138.158 80.6763 136.481 80.6646ZM38.7543 90.259H34.6781C34.6734 90.1849 34.6678 90.1158 34.6624 90.05C34.652 89.923 34.6427 89.8082 34.6427 89.6927C34.6427 88.7498 34.6421 87.8069 34.6414 86.8641C34.6395 83.9015 34.6375 80.9389 34.655 77.9764C34.6596 77.2595 34.7229 76.5225 34.8955 75.8289C35.5091 73.3649 37.3159 71.7854 40.0169 71.6721C42.4328 71.5699 44.8526 71.5829 47.2729 71.5958C48.2705 71.6012 49.2683 71.6065 50.2659 71.6038C50.3102 71.6038 50.3538 71.6213 50.4186 71.6473C50.4576 71.663 50.5043 71.6817 50.5635 71.7016C50.5635 71.9482 50.565 72.1959 50.5665 72.4445C50.5712 73.2375 50.5761 74.0388 50.5326 74.8374C50.5249 74.9755 50.101 75.1974 49.8666 75.2005C48.1205 75.2228 46.3733 75.2213 44.626 75.2199H44.6259H44.6259H44.6259H44.6258H44.6258H44.6258H44.6257H44.6257H44.6256H44.6256H44.6256H44.6255H44.6255H44.6255H44.6254H44.6254H44.6254H44.6253H44.6253C44.1884 75.2195 43.7515 75.2191 43.3146 75.2191H41.2333C39.5406 75.2238 38.8345 75.8661 38.7358 77.5543C38.7054 78.0786 38.7128 78.6059 38.7206 79.1657V79.1658C38.7243 79.4293 38.7281 79.7 38.7281 79.9811H49.4658V82.6111H38.7543V90.2575V90.259ZM78.0279 82.2105L78.0278 82.2105C77.3816 81.8653 76.7504 81.5282 76.2261 81.0688C74.9897 79.9842 75.0329 78.3814 76.3772 77.4163C77.2621 76.7816 78.3706 76.3689 79.439 76.1098C81.1286 75.7002 82.8368 75.86 84.5157 76.4046C85.2942 76.6575 85.6318 77.1494 85.544 77.8817C85.4761 78.4404 85.3366 78.9899 85.1993 79.5308L85.1992 79.531L85.1992 79.5311L85.199 79.5318C85.14 79.7643 85.0814 79.9953 85.029 80.2247C85.7922 79.6366 86.1653 78.7289 86.3795 77.7235C87.2891 78.3146 87.4865 79.5513 86.8266 80.5614C86.0681 81.722 84.878 82.1704 83.623 82.5149C83.3193 81.4505 82.7983 81.1308 81.3938 81.1246C79.8398 81.1184 79.3002 81.421 78.9148 82.7011L78.9117 82.6995C78.6198 82.5267 78.3223 82.3677 78.0279 82.2105ZM79.7232 90.3037H79.7231C78.2784 90.3055 76.8332 90.3072 75.389 90.2933C75.2154 90.2911 75.0426 90.2247 74.8695 90.1581C74.7905 90.1277 74.7113 90.0972 74.632 90.0729C74.6635 89.9868 74.6922 89.8991 74.7209 89.8113L74.7209 89.8112C74.7838 89.6192 74.8468 89.4268 74.9388 89.249C75.6433 87.8901 76.968 87.7118 78.2395 87.5407L78.423 87.5158C80.7216 87.2024 83.0202 87.2505 85.3096 87.7424C86.3595 87.9674 87.1427 88.4732 87.6576 89.4042C87.7624 89.5935 87.8981 89.9131 87.8179 90.0248C87.7007 90.1877 87.4001 90.2886 87.1766 90.2901C85.6964 90.3039 84.2154 90.3033 82.7348 90.3026H82.7348H82.7347H82.7346C82.2121 90.3024 81.6896 90.3022 81.1672 90.3026C80.6866 90.3026 80.2059 90.3031 79.7251 90.3037H79.725H79.7248H79.7247H79.7246H79.7244H79.7243H79.7242H79.724H79.7239H79.7237H79.7236H79.7235H79.7233H79.7232ZM86.2855 87.5293L86.2871 87.5298H86.2855L86.2855 87.5293ZM84.9489 85.2954C85.6595 85.5312 86.33 86.693 86.2855 87.5293C82.8929 86.4234 79.5572 86.4438 76.2184 87.5189C76.1753 86.7151 76.8582 85.5406 77.5535 85.3047C80.0156 84.4715 82.4869 84.4793 84.9489 85.2954ZM74.9497 88.4143C72.6557 85.7811 71.0647 83.131 72.8283 79.48C70.0549 82.1736 70.4403 86.2187 72.9008 89.3809C73.2985 88.5322 74.0308 88.3103 74.9497 88.4143ZM89.0052 69.8816L89.0809 69.6702C89.1453 69.4904 89.2175 69.2888 89.2904 69.0871C89.3742 69.1226 89.4627 69.1526 89.5513 69.1826C89.7494 69.2497 89.9476 69.3169 90.0936 69.4456C90.3665 69.6861 90.5731 69.9452 90.3172 70.4308C90.0762 70.8875 89.8842 71.3704 89.6922 71.8534C89.4961 72.3468 89.3 72.8403 89.0514 73.306C88.6676 74.026 88.0509 74.5814 87.1675 74.8607C86.8114 72.825 87.0426 70.9413 87.741 68.8839L87.8226 68.9483C88.2865 69.3143 88.6804 69.625 89.0067 69.8831L89.0052 69.8816ZM87.5113 73.6955C87.5445 73.7056 87.5777 73.716 87.6108 73.7265C87.6439 73.737 87.6771 73.7474 87.7102 73.7575C88.3515 73.05 88.6614 72.2354 88.4795 71.2641L88.4366 71.2509C88.3749 71.232 88.3126 71.2128 88.2513 71.1927L87.8813 72.4433L87.5113 73.6939V73.6955ZM81.4754 62.9768C79.6531 63.0048 77.9219 63.3771 76.9629 65.2313C79.9399 64.1111 82.8721 64.0149 85.8244 65.267C84.8809 63.4889 83.2807 62.9489 81.4754 62.9768ZM87.6978 78.3953L87.7008 78.3989C88.7069 80.8101 88.0084 82.8198 86.3704 84.4715C86.7432 84.6532 87.1062 84.8295 87.4714 85.0068L88.1295 85.3264C89.5871 83.3461 89.4693 80.4716 87.7008 78.3989L87.6993 78.3953H87.6978ZM85.2414 84.637L85.2434 84.6376H85.2419L85.2414 84.637ZM80.7186 82.982C82.4281 82.9091 84.0821 83.0859 85.2414 84.637C82.5704 83.8308 79.9317 83.876 77.2622 84.7617C77.68 83.733 78.9688 83.0549 80.7186 82.982ZM89.2763 88.0278C88.7182 87.7144 88.2218 87.4367 87.6698 87.1279C88.9109 85.9037 89.7835 84.3241 89.8636 82.3272C90.7594 84.0293 90.4587 86.5678 89.2763 88.0278ZM73.2018 80.8323L73.2014 80.8298H73.203L73.2018 80.8323ZM73.2018 80.8323C73.4736 82.679 74.3814 83.9801 75.6619 85.0177C75.2341 85.1975 74.8147 85.3747 74.3659 85.5644L74.3658 85.5644L74.3579 85.5678L74.3571 85.5681L73.8752 85.7718C72.9476 84.8909 72.4928 82.3517 73.2018 80.8323ZM74.0293 76.9771C73.8551 75.7994 73.6809 74.6217 73.499 73.399C73.6031 73.4553 73.7066 73.5082 73.8087 73.5603L73.8092 73.5606L73.8095 73.5608L73.8096 73.5608C74.0533 73.6853 74.2882 73.8053 74.501 73.9561C74.6336 74.0507 74.7708 74.2897 74.7446 74.434C74.6265 75.0905 74.481 75.7426 74.3355 76.3943L74.3354 76.3945L74.3354 76.3946L74.3354 76.3948L74.3354 76.3949L74.3354 76.3951L74.3351 76.396C74.2889 76.6031 74.2427 76.8102 74.1973 77.0174L74.1696 77.0106C74.1222 76.999 74.0755 76.9875 74.0278 76.9771H74.0293ZM13.2321 69.6512C13.4814 69.6508 13.7321 69.6504 13.9846 69.6504L13.9861 69.6519C13.9772 69.611 13.9717 69.5796 13.9673 69.5541L13.9673 69.5541C13.9609 69.5176 13.9566 69.4932 13.9476 69.4704L13.3807 68.0966C11.9205 64.5579 10.4609 61.0207 8.98802 57.4872C8.93715 57.3661 8.7244 57.2436 8.58565 57.2405C8.11556 57.2298 7.64511 57.2303 7.17465 57.2309C6.68851 57.2315 6.20236 57.2321 5.7166 57.2203C5.37281 57.211 5.20477 57.3134 5.06602 57.6439C3.90284 60.428 2.728 63.2076 1.55244 65.9888L1.55244 65.9888L1.55243 65.9889L1.55243 65.9889L1.55242 65.9889C1.18705 66.8533 0.821616 67.7179 0.456438 68.5829C0.355329 68.8232 0.257972 69.065 0.157036 69.3158L0.156984 69.3159L0.156684 69.3166L0.156608 69.3168C0.113015 69.4251 0.0687524 69.5351 0.0232302 69.6473H8.42377C8.40751 69.5961 8.39327 69.5489 8.37987 69.5044C8.35261 69.414 8.32887 69.3353 8.2989 69.2594C8.21075 69.0341 8.12062 68.8096 8.03048 68.5851L8.03048 68.5851L8.03048 68.5851L8.03047 68.5851L8.03047 68.5851C7.85733 68.1538 7.68415 67.7224 7.52498 67.2857C7.42631 67.0126 7.27985 66.9257 6.99619 66.9335C6.46298 66.9477 5.92978 66.945 5.37233 66.9421H5.37231H5.37229H5.37228H5.37216H5.37212H5.37208H5.37204H5.372C5.13817 66.9409 4.90008 66.9397 4.65594 66.9397C5.44527 65.0126 6.2084 63.1491 7.01006 61.1909C7.06318 61.3205 7.11176 61.4375 7.15709 61.5466L7.1571 61.5466L7.15716 61.5468C7.23284 61.729 7.29948 61.8894 7.3631 62.0505C7.64382 62.7561 7.92413 63.462 8.20448 64.168C8.88334 65.8775 9.56236 67.5875 10.2476 69.295C10.3031 69.4316 10.4403 69.6333 10.5436 69.6349C11.4337 69.6543 12.3239 69.6528 13.2319 69.6512H13.232H13.232H13.232H13.2321ZM35.8437 60.1761C36.1027 60.1761 36.3574 60.1652 36.608 60.1545C37.1436 60.1317 37.6604 60.1096 38.1593 60.1963C40.0925 60.533 41.2395 61.7495 41.5201 63.7092C41.7113 65.0358 41.5679 66.3392 40.9143 67.5401C40.1542 68.9366 38.9055 69.5898 37.3946 69.7962C35.947 69.9948 34.5395 69.7745 33.1597 69.3214C32.9022 69.2376 32.8005 69.115 32.8005 68.842C32.8066 65.0358 32.8082 61.2281 32.8005 57.422C32.8005 57.1241 32.8991 57.0263 33.1905 57.0325C33.949 57.048 34.709 57.0511 35.4691 57.0325C35.8113 57.0232 35.9038 57.1598 35.89 57.484C35.8683 57.9905 35.8611 58.4985 35.8539 59.0065V59.0066V59.0067V59.0068C35.8509 59.2208 35.8478 59.4348 35.8437 59.6486C35.8417 59.7556 35.8423 59.8626 35.843 59.9799V59.9801V59.9803V59.9805C35.8433 60.0432 35.8437 60.109 35.8437 60.1792V60.1761ZM35.902 65.5691V65.5692V65.5693V65.5693V65.5694C35.9088 65.9459 35.9156 66.3225 35.8853 66.6961C35.853 67.1088 36.0426 67.2143 36.3848 67.2221C37.1757 67.2376 37.8941 67.0436 38.2795 66.288C38.7297 65.4051 38.7605 64.4726 38.2025 63.6254C37.7245 62.8992 36.9537 62.8263 36.1675 62.938C36.0642 62.952 35.9146 63.1475 35.91 63.2639C35.8905 63.7144 35.8932 64.1658 35.8958 64.6175V64.6176V64.6176V64.6177L35.8959 64.6196C35.8968 64.7754 35.8977 64.9312 35.8977 65.087L35.8961 65.0855C35.8961 65.2464 35.899 65.4077 35.902 65.5689V65.569V65.5691ZM32.1161 65.0359L32.116 65.0371C32.1096 65.0358 32.1032 65.0347 32.0969 65.0336C32.0899 65.0324 32.083 65.0313 32.0761 65.0297C32.0713 64.9471 32.0672 64.8646 32.063 64.782C32.0536 64.5961 32.0443 64.4103 32.0283 64.2244C31.8618 62.2585 30.6423 60.8186 28.7383 60.4198C28.1541 60.2973 27.5343 60.2709 26.9361 60.3004C24.8626 60.3997 23.3317 61.6487 22.8631 63.6239C22.584 64.8032 22.6303 65.9886 23.0296 67.1399C23.4782 68.4309 24.3538 69.3153 25.6812 69.6381C26.3688 69.8056 27.0996 69.8879 27.8056 69.8599C29.9301 69.7746 31.3731 68.6093 31.8787 66.6248C31.9703 66.2679 32.0126 65.8991 32.0549 65.5302L32.0549 65.5301L32.0549 65.5299C32.0738 65.3653 32.0927 65.2007 32.116 65.0371L32.1177 65.0375L32.1161 65.0359ZM29.01 64.6882C29.0255 64.8157 29.0414 64.9475 29.062 65.0847C29.0404 65.192 29.0218 65.305 29.0027 65.4209L29.0027 65.421C28.9592 65.6853 28.9131 65.9651 28.8231 66.2291C28.6027 66.8746 28.0801 67.2113 27.4017 67.2222C26.7126 67.233 26.1638 66.887 25.9248 66.2431C25.6242 65.4347 25.6304 64.6092 25.9325 63.8024C26.1792 63.1476 26.7434 62.8124 27.4603 62.8481C28.208 62.8869 28.6967 63.2438 28.8848 63.942C28.9482 64.1784 28.978 64.424 29.01 64.6882L29.01 64.6882ZM46.4582 67.0809C45.9279 66.856 45.5008 66.5177 45.2696 65.9064L45.268 65.9033C45.3216 65.9006 45.371 65.8977 45.4173 65.8951C45.5309 65.8886 45.6265 65.8831 45.7228 65.8831H49.7728C50.6207 65.8831 51.0447 65.4507 51.0447 64.5859C51.0462 62.3733 49.2656 60.4462 47.0749 60.291C45.0352 60.1467 43.2993 61.1817 42.5747 62.9753C41.7654 64.9769 42.2818 67.3137 43.8081 68.6077C45.6242 70.147 48.3359 70.0663 50.243 69.2718C50.3216 69.2393 50.4234 69.1353 50.4234 69.0639C50.433 68.4717 50.4323 67.8785 50.4315 67.2656C50.4313 67.0966 50.4311 66.926 50.4311 66.7536C49.8267 66.9103 49.2594 67.0561 48.6905 67.2004C47.9351 67.3913 47.1859 67.3897 46.4582 67.0809ZM46.7634 62.665C47.5312 62.6929 48.1633 63.2593 48.2234 63.9979H45.3035C45.4299 63.1383 45.9972 62.6371 46.7634 62.665Z" fill="black"/>
</svg>
