<svg width="148" height="148" viewBox="0 0 148 148" fill="none" xmlns="http://www.w3.org/2000/svg">
<path d="M52.4992 7.4259C56.4333 9.22868 58.9563 11.5074 59.4197 11.8486C59.2091 10.8293 58.434 5.94325 57.9876 2.90213C60.2789 4.49429 65.603 8.18829 67.351 9.38874C68.0629 7.19003 70.5354 0.00842417 70.5354 0.00842417C70.5354 0.00842417 75.0002 7.24057 75.7626 8.41574C76.6976 7.43854 82.0343 1.50371 83.4117 0C83.6434 3.416 83.9593 8.30623 84.0351 9.03913C84.3089 8.67689 86.3517 5.81268 89.7762 3.16749C88.2893 6.09067 87.5859 10.1301 87.2658 13.3734C83.8961 12.4299 80.3453 11.9244 76.6766 11.9244C69.6382 11.9244 63.0336 13.7777 57.3178 17.0252C56.2775 13.8957 54.6558 9.99949 52.495 7.4259H52.4992ZM93.5165 48.1231V43.0938C93.5165 43.0938 91.263 42.3694 88.8621 40.5076C84.0435 41.2363 78.2056 46.0844 78.2056 46.0844C78.2056 46.0844 80.181 49.8247 82.3334 53.8599C86.1285 54.3822 91.7137 49.6015 93.5165 48.1188V48.1231ZM98.3646 57.2464C98.3646 57.2464 97.9771 55.1657 96.3302 53.2197L92.573 53.3123C92.573 53.3123 87.5016 57.6719 84.4058 57.7729C84.4058 57.7729 86.1116 60.9446 86.9667 62.6C88.6726 62.2293 91.6674 60.8815 92.872 59.4831C92.872 59.4831 93.6681 62.0566 93.5165 65.0893C95.2097 64.0995 97.5475 61.4459 98.3646 57.2464ZM99.9104 40.7098C98.015 42.3062 96.406 43.1907 96.406 43.1907L96.4228 48.2452C97.7833 49.7574 99.1228 51.0126 100.125 53.2955C102.025 49.8795 101.663 44.8461 99.9146 40.7098H99.9104ZM100.323 36.2071L100.618 33.9115C100.719 32.6479 100.395 30.5502 98.6215 28.3726C96.4228 25.9085 90.9008 21.9407 88.2682 20.9888C88.2682 20.9888 88.0492 23.5287 87.1436 24.7544C81.8953 20.9635 79.3176 20.0158 79.3176 20.0158C73.5554 20.8372 69.8488 23.0612 67.8396 24.8092L69.5919 26.3003C66.1169 27.3701 63.8634 30.3565 63.8634 30.3565C63.8845 30.407 66.9635 30.8493 66.9635 30.8493C66.9635 30.8493 66.6476 34.4675 71.1756 36.7336C75.0507 38.6754 80.6317 36.266 85.88 38.3721C82.4261 34.3875 80.0462 32.6057 80.0462 32.6057C80.0462 32.6057 78.6731 32.3193 77.7043 32.3277C76.4997 32.3362 74.7053 32.5763 72.7299 31.8054C71.7906 31.439 70.6912 30.7903 69.8319 30.247C69.8319 30.247 72.2539 27.7576 75.7963 27.2059C75.7963 27.2059 78.989 28.103 81.5205 29.9774C83.2011 28.3389 84.9575 28.3894 84.9575 28.3894C84.9575 28.3894 83.2179 30.0153 83.7445 31.9824C86.2759 34.2358 89.0138 37.4623 89.0138 37.4623C91.8064 35.9291 97.876 36.2829 99.127 37.7276C97.5475 35.6806 95.2687 33.9705 93.5039 32.5047C93.289 31.7381 91.3683 29.0592 91.044 28.8107C91.044 28.8107 92.872 29.3751 94.5021 30.8409C94.9739 30.1754 95.85 29.493 97.0462 29.194C98.2761 30.2259 98.4952 31.8054 98.4615 32.075C97.9055 32.7321 97.3621 33.0059 97.3621 33.0059L100.319 36.2071L100.614 33.9115M103.272 38.0815C107.779 46.413 108.878 56.3914 105.744 66.3361C105.555 66.1255 103.171 63.4593 102.185 62.3683C101.557 72.0898 98.6974 79.6421 90.3448 86.0234C90.3448 86.0234 89.5529 82.9696 89.0854 81.0574C75.3161 91.1495 63.4759 86.5331 60.1484 84.8735C62.7262 73.0544 60.7296 66.2687 59.0069 61.0963C55.3424 67.1196 51.5852 71.795 47.8407 74.954C45.2797 68.9729 45.0817 57.853 47.1541 51.2863C46.4675 51.4717 42.4197 52.7479 40.1747 53.4303C41.076 47.4028 45.0607 39.3282 49.2685 35.3057C48.5356 35.1751 46.3748 34.8718 44.669 34.5854C45.722 32.4457 48.7715 28.4737 53.4511 24.7418C53.3164 27.3701 54.2894 30.5039 57.2589 32.0118C55.3761 28.7096 55.1486 24.6281 57.1114 22.5136C59.0827 20.3865 62.3934 21.1152 64.5037 22.7705C64.1119 21.6206 63.2611 20.2938 62.0101 19.4177C67.8396 16.7051 74.9117 15.134 82.9357 16.3682C84.1699 17.4465 85.4925 18.9628 86.2254 19.9021C86.2591 19.2282 86.1622 17.9351 85.9474 16.9536C89.2286 17.7329 92.653 18.9839 96.2038 20.8203C89.8857 14.5191 77.0767 12.6194 66.3907 15.6816C63.8845 16.3976 61.5089 17.3496 59.2722 18.4658C56.9135 18.4953 55.3971 19.9358 54.5294 21.2121C47.689 25.7485 42.6766 31.717 40.2631 36.721C40.798 36.8389 42.4197 37.0369 43.915 37.298C40.8612 41.6575 36.864 49.909 37.1293 57.318C37.8243 57.1074 41.5562 55.9618 43.3885 55.3721C42.4071 61.9092 42.6935 72.8859 46.9351 79.1661C52.276 75.3837 55.3676 71.4117 57.9412 67.823C58.6025 71.0494 59.2512 76.7863 56.9725 86.293C58.8173 87.7167 72.2034 94.7466 87.3458 85.5643L88.6094 90.5556L90.2479 89.4941C99.464 83.5088 102.998 75.4216 104.232 68.8423C104.657 69.3141 106.334 71.1463 106.932 71.7571C109.244 65.4474 113.865 50.2796 103.272 38.0899V38.0815ZM32.9804 119.181V112.479H35.4992C39.7829 112.479 42.9083 109.91 42.9083 105.525C42.9083 101.141 39.7324 98.6723 35.4992 98.6723H29V119.185H32.9804V119.181ZM32.9804 102.446H35.2971C37.3147 102.446 38.7762 103.504 38.7762 105.521C38.7762 107.539 37.3147 108.646 35.2971 108.646H32.9804V102.446ZM96.3302 141.707C99.2534 141.707 102.931 140.094 102.931 135.056V127.849H99.2028V134.804C99.2028 136.969 97.9939 138.131 96.3302 138.131C94.5148 138.131 93.4575 137.124 93.4575 134.804V127.849H89.7298V135.056C89.7298 140.098 93.3564 141.707 96.3302 141.707ZM64.2299 141.707C66.0958 141.707 67.608 140.852 68.4125 139.639L68.8168 141.353H72.0938V127.845H68.8168L68.4125 129.61C67.6038 128.351 66.2475 127.643 64.2299 127.643C60.6538 127.643 57.5284 130.819 57.5284 134.597C57.5284 138.375 60.6538 141.703 64.2299 141.703M64.9838 131.021C66.9509 131.021 68.463 132.533 68.463 134.601C68.463 136.669 66.9509 138.127 64.9838 138.127C63.0168 138.127 61.4583 136.564 61.4583 134.601C61.4583 132.533 62.9705 131.021 64.9838 131.021ZM89.4266 119.181H93.1543V105.673H89.4266V119.181ZM91.3431 103.857C92.653 103.857 93.6597 102.851 93.6597 101.591C93.6597 100.332 92.653 99.2746 91.3431 99.2746C90.0331 99.2746 89.0264 100.281 89.0264 101.591C89.0264 102.901 90.0331 103.857 91.3431 103.857ZM83.8329 119.181H87.5606V110.563C87.5606 107.488 85.5936 105.323 82.7209 105.323C81.7142 105.323 80.101 105.475 78.791 107.341L78.69 107.492L78.5889 107.341C77.6833 105.98 76.3733 105.323 74.8106 105.323C72.2918 105.323 71.4831 107.442 71.4831 107.442L71.0787 105.677H67.8017V119.181H71.5294V111.271C71.5294 109.758 72.2834 108.853 73.745 108.853C75.0044 108.853 75.8131 109.758 75.8131 111.22V119.181H79.5408V111.271C79.5408 109.758 80.2948 108.853 81.7564 108.853C83.0158 108.853 83.8245 109.758 83.8245 111.22V119.181H83.8329ZM113.617 119.181V112.378C113.617 110.209 114.876 109.101 116.691 109.101C117.146 109.101 117.546 109.152 118.001 109.253V105.677C117.648 105.576 117.298 105.525 116.944 105.525C115.331 105.525 114.122 106.38 113.515 107.64L113.111 105.673H109.885V119.177H113.612L113.617 119.181ZM47.8996 119.181V112.378C47.8996 110.209 49.159 109.101 50.9744 109.101C51.4293 109.101 51.8295 109.152 52.2844 109.253V105.677C51.9306 105.576 51.581 105.525 51.2272 105.525C49.6139 105.525 48.4051 106.38 47.7985 107.64L47.3942 105.673H44.1677V119.177H47.8954L47.8996 119.181ZM49.715 141.707C51.9811 141.707 54.0998 140.802 55.5614 139.138L53.2911 136.821C52.3349 137.828 51.1766 138.384 49.6645 138.384C48.0007 138.384 46.6402 137.377 46.2864 135.865H56.1637C56.2648 135.36 56.2648 134.909 56.2648 134.555C56.2648 129.968 52.8867 127.5 49.6139 127.5C45.2292 127.5 42.4576 130.878 42.4576 134.656C42.4576 138.839 45.5324 141.711 49.715 141.711M49.5128 130.773C51.025 130.773 52.2844 131.729 52.5877 133.14H46.3369C46.6402 131.678 47.9502 130.773 49.5128 130.773ZM111.502 141.707C113.772 141.707 115.887 140.802 117.348 139.138L115.082 136.821C114.126 137.828 112.968 138.384 111.456 138.384C109.792 138.384 108.431 137.377 108.078 135.865H117.955C118.056 135.36 118.056 134.909 118.056 134.555C118.056 129.968 114.678 127.5 111.405 127.5C107.02 127.5 104.249 130.878 104.249 134.656C104.249 138.839 107.324 141.711 111.506 141.711M111.3 130.773C112.812 130.773 114.071 131.729 114.375 133.14H108.124C108.427 131.678 109.737 130.773 111.3 130.773ZM101.873 119.531C104.139 119.531 106.258 118.625 107.72 116.961L105.449 114.645C104.493 115.651 103.335 116.207 101.823 116.207C100.159 116.207 98.7984 115.201 98.4446 113.688H108.322C108.423 113.187 108.423 112.732 108.423 112.378C108.423 107.791 105.049 105.323 101.772 105.323C97.3874 105.323 94.6158 108.701 94.6158 112.479C94.6158 116.662 97.6907 119.535 101.873 119.535M101.675 108.596C103.187 108.596 104.447 109.552 104.75 110.963H98.4994C98.8027 109.502 100.113 108.596 101.675 108.596ZM59.7945 119.531C62.0649 119.531 64.1793 118.625 65.6409 116.961L63.3748 114.645C62.4187 115.651 61.2561 116.207 59.744 116.207C58.0802 116.207 56.7197 115.201 56.3659 113.688H66.2432C66.3443 113.187 66.3443 112.732 66.3443 112.378C66.3443 107.791 62.9662 105.323 59.6935 105.323C55.3087 105.323 52.5371 108.701 52.5371 112.479C52.5371 116.662 55.6119 119.535 59.7945 119.535M59.5924 108.596C61.1045 108.596 62.3639 109.552 62.6672 110.963H56.4165C56.7197 109.502 58.0297 108.596 59.5924 108.596ZM80.9097 131.021C82.8768 131.021 84.4352 132.533 84.4352 134.601C84.4352 136.669 82.8726 138.127 80.9097 138.127C78.9469 138.127 77.38 136.564 77.38 134.601C77.38 132.533 78.9427 131.021 80.9097 131.021ZM84.2373 129.559C83.4328 128.401 82.0217 127.643 80.459 127.643C76.6302 127.643 73.5049 130.667 73.5049 134.597C73.5049 138.527 76.5292 141.703 80.3579 141.703C81.8195 141.703 83.1295 141.248 84.2373 140.09V141.046C84.2373 143.063 83.0284 144.424 80.2569 144.424C78.492 144.424 77.1315 143.569 76.1248 142.609L74.0567 145.481C75.6699 147.044 77.6833 148 80.5054 148C82.5735 148 84.2836 147.292 85.5472 146.336C87.211 145.026 87.9144 143.261 87.9144 140.743V127.841H84.6374L84.2331 129.555M41.6489 141.353V137.575H32.9804L33.0015 121.367H29.0211L29 141.358H41.6489V141.353Z" fill="white"/>
</svg>
