<svg width="148" height="148" viewBox="0 0 148 148" fill="none" xmlns="http://www.w3.org/2000/svg">
<path fill-rule="evenodd" clip-rule="evenodd" d="M121.117 70.4572L121.437 69.0949H124.041V79.3516C124.041 81.3549 123.481 82.7571 122.158 83.7988C121.157 84.56 119.795 85.1209 118.152 85.1209C115.908 85.1209 114.306 84.3597 113.024 83.1176L114.666 80.8339C115.467 81.5953 116.549 82.2763 117.952 82.2763C120.155 82.2763 121.117 81.1946 121.117 79.592V78.8307C120.235 79.7523 119.194 80.1128 118.032 80.1128C114.987 80.1128 112.583 77.6287 112.583 74.4636C112.583 71.3386 115.067 68.9347 118.112 68.9347C119.354 68.9347 120.476 69.5356 121.117 70.4572ZM118.472 71.619C116.91 71.619 115.668 72.821 115.668 74.4636C115.668 76.0262 116.91 77.2682 118.472 77.2682C120.035 77.2682 121.277 76.0262 121.277 74.4636C121.277 72.821 120.035 71.619 118.472 71.619ZM142.632 71.4187C141.39 71.4187 140.349 72.1399 140.107 73.3017H145.076C144.834 72.1799 143.833 71.4187 142.632 71.4187ZM142.792 80.1128C139.466 80.1128 137.023 77.8291 137.023 74.5037C137.023 71.4989 139.225 68.8144 142.711 68.8144C145.315 68.8144 148 70.7777 148 74.4236C148 74.704 148 75.0646 147.921 75.4653H140.068C140.349 76.6673 141.429 77.4684 142.753 77.4684C143.954 77.4684 144.876 77.0278 145.636 76.2265L147.438 78.0695C146.277 79.3916 144.595 80.1128 142.792 80.1128ZM93.5122 71.4187C92.2698 71.4187 91.2281 72.1399 90.9877 73.3017H95.9558C95.7154 72.1799 94.7139 71.4187 93.5122 71.4187ZM93.6722 80.1128C90.3468 80.1128 87.9027 77.8291 87.9027 74.5037C87.9027 71.4989 90.1064 68.8144 93.592 68.8144C96.1962 68.8144 98.8806 70.7777 98.8806 74.4236C98.8806 74.704 98.8806 75.0646 98.8004 75.4653H90.9477C91.2281 76.6673 92.3099 77.4684 93.6317 77.4684C94.834 77.4684 95.7554 77.0278 96.5168 76.2265L98.3196 78.0695C97.1578 79.3916 95.4751 80.1128 93.6722 80.1128ZM87.2617 79.8324V76.8275H80.3705V63.5283H77.2054V79.8324H87.2617ZM105.812 71.619C104.209 71.619 103.007 72.821 103.007 74.4636C103.007 76.0262 104.209 77.2682 105.812 77.2682C107.374 77.2682 108.576 76.0262 108.576 74.4636C108.576 72.821 107.374 71.619 105.812 71.619ZM105.211 80.1128C102.366 80.1128 99.8823 77.5086 99.8823 74.4636C99.8823 71.4587 102.366 68.9347 105.211 68.9347C106.813 68.9347 107.895 69.4956 108.536 70.4972L108.857 69.0949H111.461V79.8324H108.857L108.536 78.4701C107.895 79.4317 106.693 80.1128 105.211 80.1128ZM130.732 80.1128C133.056 80.1128 135.981 78.8307 135.981 74.8242V69.0949H133.016V74.6238C133.016 76.3467 132.054 77.2682 130.732 77.2682C129.29 77.2682 128.449 76.4669 128.449 74.6238V69.0949H125.484V74.8242C125.484 78.8307 128.368 80.1128 130.732 80.1128ZM24.3195 71.4209C23.0778 71.4209 22.0358 72.1421 21.7954 73.3042H26.7639C26.5232 72.182 25.5215 71.4209 24.3195 71.4209ZM24.4797 80.1149C21.1544 80.1149 18.7104 77.8312 18.7104 74.5059C18.7104 71.501 20.914 68.8165 24.3996 68.8165C27.004 68.8165 29.6883 70.7798 29.6883 74.4257C29.6883 74.7061 29.6883 75.0668 29.6085 75.4674H21.7554C22.0358 76.6694 23.118 77.4707 24.4398 77.4707C25.642 77.4707 26.5635 77.0299 27.3245 76.2286L29.1274 78.0716C27.9658 79.3937 26.2831 80.1149 24.4797 80.1149ZM57.7738 71.4209C56.5318 71.4209 55.4904 72.1421 55.2497 73.3042H60.2179C59.9775 72.182 58.9758 71.4209 57.7738 71.4209ZM57.934 80.1149C54.6087 80.1149 52.1647 77.8312 52.1647 74.5059C52.1647 71.501 54.3687 68.8165 57.8539 68.8165C60.4583 68.8165 63.1426 70.7798 63.1426 74.4257C63.1426 74.7061 63.1426 75.0668 63.0625 75.4674H55.2097C55.4904 76.6694 56.572 77.4707 57.8944 77.4707C59.096 77.4707 60.0175 77.0299 60.7788 76.2286L62.5817 78.0716C61.4197 79.3937 59.7371 80.1149 57.934 80.1149ZM15.0249 79.8345V74.4257C15.0249 72.703 16.0264 71.8215 17.4685 71.8215C17.8293 71.8215 18.1498 71.8615 18.51 71.9417V69.0971C18.2297 69.0169 17.9493 68.9773 17.669 68.9773C16.3866 68.9773 15.4251 69.658 14.9443 70.6596L14.6242 69.0971H12.06V79.8345H15.0249ZM67.2693 79.8345V74.4257C67.2693 72.703 68.2708 71.8215 69.7132 71.8215C70.0742 71.8215 70.3944 71.8615 70.7549 71.9417V69.0971C70.4745 69.0169 70.194 68.9773 69.9136 68.9773C68.6315 68.9773 67.6702 69.658 67.1891 70.6596L66.8686 69.0971H64.3044V79.8345H67.2693ZM43.5908 79.8345H46.556V72.9834C46.556 70.5394 44.9931 68.8165 42.7094 68.8165C41.9084 68.8165 40.6263 68.9368 39.5843 70.4192L39.5046 70.5394L39.424 70.4192C38.7033 69.3375 37.6611 68.8165 36.4192 68.8165C34.4163 68.8165 33.7753 70.4997 33.7753 70.4997L33.4543 69.0971H30.8504V79.8345H33.8153V73.5443C33.8153 72.3423 34.4163 71.6211 35.5779 71.6211C36.5794 71.6211 37.2208 72.3423 37.2208 73.5043V79.8345H40.1856V73.5443C40.1856 72.3423 40.7862 71.6211 41.9485 71.6211C42.9501 71.6211 43.5908 72.3423 43.5908 73.5043V79.8345ZM49.5606 67.6547C48.5188 67.6547 47.7175 66.8534 47.7175 65.8518C47.7175 64.8101 48.5188 64.0088 49.5606 64.0088C50.6023 64.0088 51.4036 64.8101 51.4036 65.8518C51.4036 66.8534 50.6023 67.6547 49.5606 67.6547ZM48.0381 79.8345H51.0029V69.0971H48.0381V79.8345ZM3.16557 71.4609H5.00813C6.61106 71.4609 7.77305 70.5794 7.77305 68.9773C7.77305 67.3743 6.61106 66.5329 5.00813 66.5329H3.16557V71.4609ZM0 79.8345V63.5283H5.1684C8.53422 63.5283 11.0584 65.5313 11.0584 68.9773C11.0584 72.4626 8.5739 74.5059 5.1684 74.5059H3.16557V79.8345H0Z" fill="#3E1151"/>
</svg>
