<svg width="148" height="148" viewBox="0 0 148 148" fill="none" xmlns="http://www.w3.org/2000/svg">
<g filter="url(#filter0_d_394_190)">
<path d="M76.5679 15.6786L84.5312 16.5745L85.8514 13.8523L80.7928 13.283L81.888 3.5535L77.9827 3.11443L76.5679 15.6786ZM64.8167 3.69357L59.7669 4.34084L61.3752 16.8804L65.2725 16.3802L64.7742 12.4996L65.3337 12.4286L67.8132 16.0546L72.1357 15.5011L68.7949 11.3472C70.1437 10.4513 70.86 9.04924 70.6321 7.27126C70.3449 5.03548 68.6124 3.62059 65.9148 3.62059C65.5645 3.62059 65.1975 3.64424 64.8167 3.69357ZM64.0273 6.67038L64.8571 6.56378C66.0944 6.40492 66.6982 6.94859 66.8245 7.93033C66.9518 8.9308 66.5048 9.60765 65.2676 9.7675L64.4378 9.87408L64.0273 6.67038ZM89.7626 17.6293L94.1187 19.2958C98.2518 20.8754 101.552 19.4655 102.919 15.8918C104.284 12.3171 102.765 9.06596 98.6327 7.48631L94.2756 5.82185L89.7626 17.6293ZM95.2435 16.689L94.4453 16.3831L96.9277 9.88986L97.7259 10.1937C99.5611 10.8953 100.012 12.4404 99.2316 14.4828C98.6277 16.0634 97.6815 16.9317 96.4433 16.9307C96.0693 16.9307 95.6687 16.8518 95.2435 16.689ZM45.6359 8.66045C42.0858 10.1809 40.5506 13.6273 42.1253 17.3037C43.7 20.979 47.254 22.2439 50.804 20.7245C54.3531 19.203 55.8883 15.7566 54.3146 12.0813C53.1779 9.42812 51.0092 8.03 48.5554 8.03C47.6102 8.03 46.6225 8.23717 45.6359 8.66045ZM45.7543 15.7487C44.885 13.7221 45.2718 12.1069 46.8268 11.4409C48.366 10.7809 49.8174 11.6096 50.6856 13.6353C51.547 15.6461 51.1523 17.2839 49.6131 17.944C49.2619 18.094 48.9175 18.167 48.583 18.167C47.4365 18.167 46.4212 17.3056 45.7543 15.7487ZM30.4353 17.6411L33.9606 23.721L28.1748 19.5986L26.0051 21.4792L29.2592 27.7939L23.7319 23.4486L20.8518 25.943L31.2887 33.632L34.1037 31.194L31.1555 25.3371L36.5191 29.1002L39.3084 26.6839L33.1861 15.2583L30.4353 17.6411ZM114.82 23.6075C112.117 26.4836 112.529 30.3869 115.342 33.0311C116.388 34.0129 117.432 34.5486 118.6 34.8022L120.741 32.525C119.683 32.3276 118.631 31.9251 117.785 31.1298C116.304 29.7376 116.234 27.866 117.754 26.2488C119.298 24.605 121.124 24.6326 122.456 25.8847C123.166 26.5507 123.491 27.2542 123.763 28.2616L126.392 26.9108C126.14 25.8068 125.41 24.4876 124.326 23.4694C122.997 22.2202 121.271 21.5098 119.528 21.5098C117.862 21.5098 116.182 22.1591 114.82 23.6075ZM78.2205 41.7632C81.222 42.1499 84.1001 42.9353 86.7976 44.066V34.9265C101.641 39.7138 112.864 52.5632 115.308 68.3143L106.286 66.8857C106.903 69.4184 107.229 72.0647 107.229 74.7869C107.229 75.0977 107.225 75.4075 107.216 75.7163L124.253 78.4148C124.338 77.217 124.382 76.0064 124.382 74.7869C124.382 48.3689 104.076 26.6928 78.2205 24.5172V41.7632ZM23.4832 74.7869C23.4832 76.0064 23.5266 77.217 23.6115 78.4148L40.6483 75.7163C40.6404 75.4075 40.6354 75.0977 40.6354 74.7869C40.6354 72.0647 40.962 69.4184 41.5787 66.8857L32.5566 68.3143C35.0006 52.5632 46.2239 39.7138 61.0673 34.9265V44.066C63.7639 42.9353 66.641 42.1499 69.6444 41.7632V24.5172C43.7888 26.6928 23.4832 48.3689 23.4832 74.7869ZM125.041 36.52C122.198 38.2911 122.099 40.9107 123.816 43.6654C125.579 46.4932 127.955 47.5282 130.798 45.7581L137.643 41.4918L135.591 38.2003L128.731 42.4735C127.847 43.0251 127.025 42.9343 126.474 42.0493C125.95 41.2086 126.22 40.4153 127.105 39.8638L133.964 35.5896L131.885 32.2537L125.041 36.52ZM9.22588 43.9358L6.7602 49.2697L18.2351 54.575L20.5074 49.6595C21.8414 46.7754 21.2425 44.4469 19.2731 43.5372C17.9086 42.9057 16.6338 43.2194 15.4715 44.4705C15.6027 43.0063 14.9624 42.0325 13.8455 41.5165C13.4133 41.3172 12.9831 41.2195 12.5628 41.2195C11.2495 41.2195 10.0409 42.1736 9.22588 43.9358ZM10.7967 46.807L11.2624 45.7996C11.6136 45.0399 12.2027 44.7843 12.8696 45.0921C13.5208 45.3941 13.7231 46.0147 13.3719 46.7744L12.9052 47.7828L10.7967 46.807ZM15.0926 48.7932L15.5583 47.7848C15.9747 46.8859 16.6446 46.5751 17.3886 46.9194C18.1325 47.2628 18.3782 47.9969 17.9618 48.8967L17.4951 49.9051L15.0926 48.7932ZM129.023 52.9677L130.159 56.7299L133.708 55.6594L134.018 56.6895C134.958 59.7975 137.133 61.3899 139.816 60.5799C142.384 59.8053 143.513 57.2153 142.575 54.1063L141.128 49.3141L129.023 52.9677ZM136.527 55.5932L136.31 54.874L139.532 53.9011L139.749 54.6214C140.135 55.8971 139.649 56.5967 138.684 56.8878C138.46 56.9558 138.247 56.9913 138.046 56.9913C137.364 56.9913 136.824 56.5789 136.527 55.5932ZM3.52394 61.2666L11.4923 62.6154C12.5204 62.79 13.0749 63.4027 12.9022 64.4318C12.7355 65.4086 12.0073 65.822 10.9792 65.6484L3.01087 64.3006L2.35474 68.1742L10.3073 69.521C13.6096 70.0795 15.4202 68.1851 15.9619 64.9833C16.5174 61.6977 15.4251 59.3475 12.1227 58.7881L4.17119 57.4423L3.52394 61.2666ZM12.2372 79.5416L2.47412 80.2609L2.76223 84.179L15.3718 83.2505L14.7828 75.2595L11.8632 74.4642L12.2372 79.5416ZM132.453 83.5682L135.316 84.844L135.628 80.9605L137.363 82.4029C138.712 83.5396 140.007 84.5016 141.42 84.6151C144.026 84.8232 145.425 82.9821 145.623 80.5293C145.752 78.9111 145.339 77.2318 144.705 75.9472L141.537 75.6926C142.158 76.926 142.679 78.1159 142.596 79.1548C142.526 80.0409 142.02 80.5658 141.169 80.4967C140.384 80.4346 139.647 79.7922 138.858 79.1627L133.236 74.6823L133.168 74.6774L132.453 83.5682ZM91.1794 112.957L73.9394 104.173L56.7013 112.957C45.3547 107.824 36.7045 97.7821 33.4604 85.5396L24.9514 86.8874C29.0234 103.426 41.2521 116.756 57.1266 122.366L73.9394 113.799L90.7542 122.366C106.629 116.756 118.857 103.426 122.929 86.8874L114.419 85.5396C111.175 97.7821 102.525 107.824 91.1794 112.957ZM12.5233 89.1873C13.3541 89.87 14.0813 90.7304 14.4384 91.8365C15.064 93.7703 14.2214 95.4418 12.1079 96.1255C9.96194 96.8182 8.37735 95.9124 7.81495 94.1729C7.51599 93.2474 7.57124 92.4748 7.8189 91.4615L4.86383 91.3747C4.55106 92.463 4.55402 93.9697 5.01084 95.3845C6.10802 98.7816 9.53372 101.104 13.4024 99.8551C17.1577 98.6405 18.6821 95.0244 17.4951 91.351C17.0541 89.9855 16.398 89.0126 15.4981 88.2253L12.5233 89.1873ZM129.927 92.7857C128.949 95.7368 129.932 98.312 132.462 99.1497C134.846 99.94 137.21 98.8329 138.149 95.1852L139.543 95.646L138.254 99.5384L140.646 101.392L143.294 93.3974L136.272 91.0718C136.038 93.0817 135.411 96.0604 133.644 95.4743C132.8 95.1951 132.583 94.3308 132.948 93.2287C133.254 92.3042 133.965 91.4053 134.661 90.7176L132.28 88.8854C131.298 89.8385 130.404 91.3422 129.927 92.7857ZM92.84 107.072L93.1261 108.411L92.1651 107.435L91.5445 107.768L92.2894 109.662L92.7581 109.41L92.2628 108.227L93.2188 109.161L93.6806 108.913L93.427 107.599L94.1285 108.671L94.6248 108.404L93.4537 106.741L92.84 107.072ZM89.7468 108.737L89.9648 109.144L90.4887 108.861L91.2277 110.233L91.7448 109.955L91.0058 108.584L91.5297 108.301L91.3106 107.894L89.7468 108.737ZM83.1825 133.812L79.1559 144.863H82.5431L82.9743 143.378H86.8598L87.3097 144.863H90.7828L86.7581 133.812H83.1825ZM84.917 136.652L86.2915 141.255H83.587L84.917 136.652ZM72.4495 133.812V144.863H75.889V140.872H78.3656L79.2447 138.456H75.889V136.22H80.0577L80.9348 133.812H72.4495ZM66.644 144.863H70.0835V133.812H66.644V144.863ZM57.1059 133.812V144.863H60.5444V140.872H63.0209L63.9 138.456H60.5444V136.22H64.7131L65.5912 133.812H57.1059Z" fill="url(#paint0_linear_394_190)"/>
</g>
<defs>
<filter id="filter0_d_394_190" x="0" y="0" width="148" height="148" filterUnits="userSpaceOnUse" color-interpolation-filters="sRGB">
<feFlood flood-opacity="0" result="BackgroundImageFix"/>
<feColorMatrix in="SourceAlpha" type="matrix" values="0 0 0 0 0 0 0 0 0 0 0 0 0 0 0 0 0 0 127 0" result="hardAlpha"/>
<feOffset/>
<feComposite in2="hardAlpha" operator="out"/>
<feColorMatrix type="matrix" values="0 0 0 0 0 0 0 0 0 0 0 0 0 0 0 0 0 0 1 0"/>
<feBlend mode="normal" in2="BackgroundImageFix" result="effect1_dropShadow_394_190"/>
<feBlend mode="normal" in="SourceGraphic" in2="effect1_dropShadow_394_190" result="shape"/>
</filter>
<linearGradient id="paint0_linear_394_190" x1="-24.7693" y1="53.4285" x2="90.2957" y2="-27.1437" gradientUnits="userSpaceOnUse">
<stop stop-color="#AA8600"/>
<stop offset="0.15" stop-color="#F3C460"/>
<stop offset="0.36" stop-color="#FFD66C"/>
<stop offset="0.55" stop-color="#AA8600"/>
<stop offset="0.7" stop-color="#F8CF62"/>
<stop offset="0.85" stop-color="#FFD66C"/>
<stop offset="1" stop-color="#F3C460"/>
</linearGradient>
</defs>
</svg>
