<svg width="148" height="148" viewBox="0 0 148 148" fill="none" xmlns="http://www.w3.org/2000/svg">
<g clip-path="url(#clip0_26_278)">
<path fill-rule="evenodd" clip-rule="evenodd" d="M98.4774 45.0305C98.3955 45.1989 98.2337 45.315 98.0475 45.3366C93.8095 45.8295 89.3064 45.2384 87.5703 44.9651C84.6722 42.0618 81.5347 38.8324 79.2216 36.0101C78.9842 35.7206 78.973 35.3076 79.1912 35.0027C82.4896 30.3919 85.5103 26.7327 86.7875 25.2836C90.4359 24.4862 94.0744 23.7803 96.5313 23.6801C96.7168 23.6726 96.8934 23.7583 97.0019 23.9093C100.169 28.3258 102.434 32.559 103.161 34.1051C101.707 38.0229 99.9578 41.9811 98.4774 45.0305ZM94.434 52.5043C92.0984 56.4259 90.3232 58.7905 89.7549 59.5089C88.9825 60.6016 87.0149 63.4488 83.9588 66.3276C83.7634 66.5114 83.509 66.6175 83.2409 66.6287C79.4128 66.7889 75.8537 66.5198 74.4677 66.2165C73.2941 65.7299 70.5627 64.4982 67.3342 62.708C67.0531 62.552 66.8869 62.2479 66.9081 61.9272C67.0764 59.4178 67.8705 55.8431 68.5731 52.0634C70.31 49.0053 72.1101 45.5163 73.9771 42.65C74.1738 42.3484 74.5421 42.2086 74.8893 42.3035C80.4796 43.8338 85.3303 44.9959 87.2996 45.4402C89.9961 48.5752 92.6089 50.7802 94.367 52.1461C94.4768 52.2314 94.5051 52.3853 94.434 52.5043ZM60.6122 57.9541C60.3291 58.1304 59.9683 58.1209 59.696 57.9274C57.2623 56.2 54.3576 53.9921 51.9384 51.7256C50.5121 49.2802 49.4112 46.151 48.6429 43.486C48.5935 43.3147 48.6317 43.1291 48.7444 42.9902C51.4587 39.6443 54.7163 36.9972 56.0783 35.9889C59.1505 37.3179 62.6772 38.4904 65.7623 39.5191C66.0774 39.6243 66.3003 39.9076 66.3264 40.2391C66.7617 45.7421 67.767 50.1924 68.0355 51.8928C66.8835 53.1265 63.8741 55.9242 60.6122 57.9541ZM47.0923 36.3017C46.6894 33.7041 46.4246 30.9763 46.3955 29.7268C46.3286 26.8417 46.7863 24.2865 47.3172 21.9206C47.4041 21.5338 47.6045 21.1827 47.8967 20.914C49.4387 19.4981 52.2274 16.9991 53.9872 15.8677C55.6459 14.8012 60.2564 13.3087 62.1575 12.7547C62.5263 12.6474 62.9187 12.8113 63.1083 13.1453C63.3369 13.5479 63.5764 13.9481 63.8292 14.3411C65.3262 16.6775 66.9754 18.6895 67.6701 19.5605C66.7493 23.2267 66.358 27.3367 66.1797 30.8045C66.1631 31.1298 65.9569 31.4147 65.6534 31.5332C60.843 33.4146 57.2074 34.8866 55.986 35.4515C52.6809 35.5913 49.533 36.1561 47.4082 36.5288C47.2577 36.555 47.1156 36.4527 47.0923 36.3017ZM71.3406 11.1246C71.4724 10.9199 71.6877 10.7835 71.9288 10.7515C76.8752 10.0968 81.4013 10.0003 83.1403 10.0485C86.3056 12.1586 89.3987 14.9434 91.8673 17.5843C92.0406 17.7694 92.0664 18.0481 91.9296 18.2623C90.1678 21.0242 87.606 23.6768 86.4806 24.8319C82.3071 25.8222 77.8825 27.2639 74.2918 28.4452C73.9418 28.5604 73.5581 28.4302 73.3494 28.1266C70.6247 24.1572 68.8928 20.7551 68.2135 19.4923C68.9505 16.1838 69.9811 13.2372 71.3406 11.1246ZM104.382 43.7052C104.294 43.746 104.192 43.6832 104.187 43.5859C103.98 39.5116 103.606 35.553 103.41 34.1051C103.426 30.5865 102.844 26.9357 102.264 24.2433C102.243 24.1459 102.328 24.0586 102.426 24.0786C105.747 24.7582 106.812 26.0048 106.812 26.0048C105.055 22.0533 102.522 19.0763 99.7686 16.826C97.4152 11.8854 94.7063 9.60054 94.7063 9.60054C94.9254 10.6937 94.7745 11.929 94.3862 13.2043C94.3616 13.2855 94.2689 13.3246 94.1929 13.2871C89.6822 11.0763 85.0235 10.066 83.2217 9.81351C80.529 8.5016 77.5882 7.63351 75.1969 6.97547C75.1329 6.95758 75.1158 6.87481 75.167 6.83238C78.3415 4.19151 81.2607 3.51933 81.2607 3.51933C76.092 3.31177 71.6428 4.24891 67.9224 5.68228C62.3645 5.23555 58.8238 6.2043 58.8238 6.2043C58.8238 6.2043 60.3586 8.04571 60.9552 9.07062C61.0271 9.19457 60.9893 9.35305 60.8717 9.43499C57.3758 11.8641 54.8673 14.5321 53.8782 15.6431C52.7766 15.7928 50.8684 16.0569 49.2017 16.4687C49.1352 16.485 49.079 16.418 49.1057 16.3548C50.7748 12.3716 52.594 10.1658 52.594 10.1658C52.594 10.1658 41.867 17.7985 39.8336 31.5141C39.8336 31.5141 40.7166 29.0833 43.7037 25.398C43.7427 25.3497 43.8192 25.3597 43.8446 25.4163C44.691 27.2939 45.6584 28.9614 46.1448 29.7268C44.5019 32.376 43.3682 35.2652 42.6697 37.6298C42.6456 37.7122 42.5837 37.7775 42.503 37.8083C40.019 38.7529 39.3859 39.6547 39.3859 39.6547C39.7721 40.9762 40.5304 42.2648 41.4886 43.4794C41.5718 43.5846 41.6146 43.716 41.6084 43.85C41.3448 49.7033 43.2293 53.5562 43.2293 53.5562C43.655 51.5118 44.4881 49.5261 45.5408 47.6618C45.5828 47.5877 45.6813 47.569 45.7478 47.6218C48.1998 49.5731 50.7395 51.2789 51.7472 51.8845C52.2673 53.2147 53.7556 56.6659 55.7445 60.2064C55.7864 60.2809 55.7519 60.3753 55.6721 60.4044C53.2904 61.2738 50.8471 61.6677 48.6072 61.1207C48.6072 61.1207 51.3086 64.4928 59.6423 65.9304C61.9546 68.6677 64.7679 70.9347 68.0538 71.7225C68.0538 71.7225 67.0906 70.6618 66.8528 66.7086C66.8478 66.6283 66.9118 66.5605 66.992 66.5618C69.0495 66.5925 71.8407 66.6371 74.3958 66.4515C75.3012 67.167 77.2772 68.7364 79.2045 69.7367C79.3006 69.7871 79.3064 69.9218 79.2141 69.978C75.8263 72.0303 73.5722 72.2087 73.5722 72.2087C88.9181 72.5365 98.1319 62.5117 98.1319 62.5117C95.6043 64.1771 92.6854 65.2128 89.7795 65.8301C89.6818 65.8509 89.5957 65.7636 89.6161 65.6658C90.1557 63.0511 90.0044 60.523 89.9665 59.632C93.6075 58.7277 96.7837 57.098 99.1351 55.433C99.1824 55.3993 99.2461 55.3989 99.2939 55.4322C100.273 56.1139 101.111 56.8797 101.947 58.1537C101.947 58.1537 103.538 55.8972 104.087 50.6699C108.028 45.5159 108.614 40.2404 108.614 40.2404C107.626 41.7894 106.132 42.9058 104.382 43.7052ZM74.0004 94.5977C67.4182 94.5977 61.4466 97.5443 57.804 101.902L58.9593 103.329C62.2673 99.2102 67.895 96.3784 74.0004 96.3784C80.1063 96.3784 85.7336 99.2106 89.0415 103.329L90.1973 101.902C86.5542 97.5443 80.5827 94.5977 74.0004 94.5977ZM58.6038 95.5232C58.1711 95.8751 57.668 96.0469 57.2232 95.9941C56.6603 95.93 56.3182 95.6992 55.7582 95.007L52.53 91.0359L50.7894 92.4514L54.3048 96.779C55.0518 97.6957 55.9037 98.1861 56.9077 98.2785C57.0261 98.2893 57.1438 98.2955 57.2598 98.2964C58.2334 98.3051 59.1368 97.9615 60.0128 97.2527C60.9885 96.4554 61.5239 95.5295 61.6495 94.4222C61.7638 93.4189 61.4578 92.4847 60.7128 91.5654L57.1983 87.2395L55.4576 88.6546L58.6841 92.6278C59.2466 93.3178 59.402 93.7005 59.3501 94.2658C59.311 94.7113 59.0391 95.1697 58.6038 95.5232ZM70.5079 83.0139L64.8697 84.1586C64.6124 84.211 64.4091 84.3404 64.2819 84.5321C64.1543 84.7243 64.1148 84.9618 64.1671 85.2197L65.2909 90.7589C65.4734 91.6599 65.877 92.3088 66.4907 92.6873C66.8964 92.9377 67.3828 93.0633 67.9436 93.0625C68.2292 93.062 68.5344 93.0292 68.8574 92.9639L72.3811 92.248L71.9571 90.1574L68.529 90.8533C67.8272 90.996 67.5994 90.9182 67.4394 90.13L67.3188 89.5356L71.284 88.7303L70.865 86.663L66.8993 87.4683L66.5988 85.9846L70.9319 85.1045L70.5079 83.0139ZM81.4711 86.0362L84.8497 86.9122L85.3835 84.8507L81.9093 83.9498C80.0052 83.4565 78.7015 84.1694 78.238 85.958L76.8195 91.4361C76.7538 91.6902 76.7804 91.9294 76.8968 92.1278C77.0132 92.3258 77.209 92.4651 77.463 92.5309L78.7526 92.8653L79.6668 89.3226L83.5772 90.3363L84.1052 88.2981L80.194 87.284L80.3461 86.6988C80.5469 85.9218 80.7789 85.8569 81.4711 86.0362ZM99.002 91.0393L100.195 89.5656C99.6023 88.9728 98.9858 88.3976 98.3435 87.8427C91.6694 82.078 83.0238 78.9035 74.0004 78.9035C64.977 78.9035 56.3319 82.078 49.6573 87.8427C49.015 88.3976 48.3985 88.9728 47.8061 89.5656L48.9988 91.0393C49.6012 90.4291 50.2306 89.838 50.8883 89.2698C57.2211 83.8005 65.4289 80.789 74.0004 80.789C82.572 80.789 90.7797 83.8005 97.1121 89.2698C97.7702 89.838 98.3996 90.4291 99.002 91.0393ZM89.8971 98.3529L90.2842 97.0169L88.6196 95.7728L89.9599 94.8119L90.7361 95.3955L91.6178 92.4206L86.5018 95.7308L84.4045 94.5437L92.4293 89.3476C92.7386 89.1471 93.1618 88.9699 93.6973 89.3825L94.0403 89.6467C94.5811 90.0639 94.5038 90.5405 94.3982 90.8633L91.7346 100.035L89.8971 98.3529ZM52.1313 141.792H46.213V137.244H49.7396L51.1835 138.476H51.2317V133.834H51.1835L49.7396 135.066H46.213V131.11H51.9181L53.5752 132.887H53.6217L53.433 128.954H41.2654V129.002L42.3787 130.353V142.574L41.2654 143.923V143.97H53.9539L54.2615 139.447H54.2137L52.1313 141.792ZM54.3667 111.566L58.5573 122.272H60.9008L64.7833 111.449L65.4455 120.874L63.9776 122.224V122.272H70.3453V122.224L69.1152 120.874L68.2147 108.653L69.1863 107.303V107.256H63.8836L60.2851 117.274L56.4025 107.256H51.0292V107.303L52.1185 108.653L51.4791 120.874L50.1778 122.224V122.272H55.4081V122.224L54.1069 120.874L54.3667 111.566ZM36.7464 141.767H31.6101V130.353L33.0073 129.002V128.954H26.662V129.002L27.7758 130.353V142.574L26.662 143.899V143.97H38.5694L39.1381 139.258H39.0899L36.7464 141.767ZM25.2789 122.224V122.272H31.3161V122.224L30.2024 120.874V108.653L31.3161 107.303V107.256H25.2789V107.303L26.3681 108.653V113.2H20.9948V108.653L22.084 107.303V107.256H16.0472V107.303L17.1605 108.653V120.874L16.0472 122.224V122.272H22.084V122.224L20.9948 120.874V115.593H26.3681V120.874L25.2789 122.224ZM119.563 141.792H113.645V137.244H117.172L118.615 138.476H118.664V133.834H118.615L117.172 135.066H113.645V131.11H119.35L121.007 132.887H121.054L120.865 128.954H108.697V129.002L109.811 130.353V142.574L108.697 143.923V143.97H121.386L121.694 139.447H121.646L119.563 141.792ZM65.2364 137.978L63.4617 132.011L61.378 137.978H65.2364ZM70.539 142.574L71.77 143.923V143.97H65.3557V143.923L66.5867 142.574L65.9003 140.229H60.5977L59.792 142.574L60.9523 143.923V143.97H55.934V143.923L57.118 142.574L61.7339 130.353L60.8575 129.002V128.954H65.9469L70.539 142.574ZM9.04297 120.283C5.9649 120.283 4.00057 117.156 4.00057 114.455C4.00057 111.14 5.79902 108.985 8.37946 108.985C9.06583 108.985 9.72975 109.056 10.3213 109.221L12.6407 112.088H12.6889L12.5226 107.35C11.8591 107.09 10.4161 106.734 8.64012 106.734C3.14916 106.734 0 110.477 0 114.787C0 119.051 3.03026 122.792 8.2377 122.792C9.63455 122.792 11.6941 122.319 13.1142 121.254L13.3271 118.767H13.2801C12.0732 119.713 10.3442 120.283 9.04297 120.283ZM95.243 122.224L94.1538 120.874V108.653L95.243 107.303V107.256H89.2062V107.303L90.3191 108.653V120.874L89.2062 122.224V122.272H95.243V122.224ZM82.0007 136.936L83.4915 138.287V141.106C83.0176 141.65 82.1895 142.1 81.0774 142.1C78.4263 142.1 77.029 138.855 77.029 136.132C77.029 133.171 78.5211 130.684 81.5979 130.684C82.4506 130.684 83.3498 130.755 84.0831 131.015L86.4507 133.573H86.4977L86.3555 129.452C84.9828 128.742 83.3257 128.435 81.6449 128.435C76.6033 128.435 73.0284 131.537 73.0284 136.652C73.0284 140.939 75.7747 144.492 80.0589 144.492C81.9296 144.492 83.6333 144.065 85.2193 142.906L87.0893 144.492H87.1371V138.287L88.3203 136.936V136.889H82.0007V136.936ZM78.0825 114.977C78.5564 115.119 79.1002 115.19 79.6685 115.19C81.7525 115.19 82.6518 114.053 82.6518 112.371C82.6518 110.382 81.4915 109.435 79.3367 109.435H78.0825V114.977ZM74.2482 120.874V108.653L73.1353 107.303V107.256H80.2372C84.5454 107.256 86.5102 109.221 86.5102 112.207C86.5102 115.309 84.1667 117.227 80.971 117.227C79.9296 117.227 78.864 117.156 78.0825 116.967V120.874L79.6448 122.224V122.272H73.1353V122.224L74.2482 120.874ZM110.013 115.853C110.013 113.249 109.043 109.103 105.728 109.103C103.077 109.103 102.319 111.756 102.319 113.556C102.319 116.185 103.408 120.425 106.604 120.425C108.9 120.425 110.013 118.245 110.013 115.853ZM106.036 122.792C101.349 122.792 98.319 118.931 98.319 114.551C98.319 110.027 101.799 106.734 106.155 106.734C110.959 106.734 114.037 110.501 114.037 114.811C114.037 119.737 110.321 122.792 106.036 122.792ZM101.03 129.002L102.261 130.353V138.903C102.261 141.366 101.054 141.982 99.0889 141.982C97.1001 141.982 95.8932 141.413 95.8932 138.903V130.353L97.1242 129.002V128.954H90.9452V129.002L92.0589 130.353V138.903C92.0589 143 94.1413 144.492 98.5913 144.492C102.64 144.492 104.699 143.094 104.699 139.021V130.353L105.787 129.002V128.954H101.03V129.002ZM129.62 130.847C129.62 129.78 128.811 128.974 127.79 128.974C126.758 128.974 125.95 129.78 125.95 130.847C125.95 131.937 126.758 132.738 127.79 132.738C128.811 132.738 129.62 131.937 129.62 130.847ZM130.074 130.847C130.074 132.158 129.019 133.114 127.79 133.114C126.55 133.114 125.497 132.158 125.497 130.847C125.497 129.553 126.55 128.596 127.79 128.596C129.019 128.596 130.074 129.553 130.074 130.847ZM127.787 130.692C128.119 130.692 128.419 130.673 128.419 130.271C128.419 129.947 128.126 129.889 127.849 129.889H127.311V130.692H127.787ZM128.156 131.011L128.891 132.158H128.453L127.768 131.028H127.311V132.158H126.92V129.553H127.911C128.526 129.553 128.829 129.78 128.829 130.293C128.829 130.76 128.536 130.961 128.156 131.011ZM127.172 107.303L128.617 108.653V116.611L122.532 107.256H117.064V107.303L118.177 108.653V120.874L117.064 122.224V122.272H122.059V122.224L120.592 120.874V110.927L128.19 122.272H131.031V108.653L132.143 107.303V107.256H127.172V107.303ZM142.437 113.036C139.715 112.278 138.886 111.946 138.886 110.691C138.886 109.246 140.757 108.961 141.94 108.961C142.934 108.961 143.858 109.079 144.686 109.34L146.959 111.804H147.006L146.817 107.563C145.395 107.019 143.905 106.734 142.201 106.734C138.627 106.734 135.193 107.966 135.193 111.52C135.193 113.816 136.779 115.19 140.212 116.138C142.864 116.872 144.166 117.345 144.166 118.696C144.166 120.259 142.177 120.589 140.851 120.589C139.739 120.589 138.744 120.425 137.892 120.163L135.596 117.322H135.548L135.714 121.821C137.277 122.532 139.171 122.792 140.946 122.792C144.78 122.792 148 121.182 148 117.938C148 114.882 145.894 114.006 142.437 113.036ZM38.5087 116.28H42.3671L40.5923 110.311L38.5087 116.28ZM38.083 122.272H33.0643V122.224L34.2487 120.874L38.8646 108.653L37.9882 107.303V107.256H43.0776L47.6697 120.874L48.9011 122.224V122.272H42.486V122.224L43.7174 120.874L43.0306 118.53H37.7284L36.9231 120.874L38.083 122.224V122.272Z" fill="white"/>
</g>
<defs>
<clipPath id="clip0_26_278">
<rect width="148" height="141.002" fill="white" transform="translate(0 3.4906)"/>
</clipPath>
</defs>
</svg>
