<svg width="148" height="148" viewBox="0 0 148 148" fill="none" xmlns="http://www.w3.org/2000/svg">
<g filter="url(#filter0_d_26_427)">
<path d="M124.592 72.8788C122.514 67.6079 119.685 62.6477 116.375 57.9191C116.674 55.4025 116.375 53.1662 113.339 49.5039C112.674 47.9074 112.071 46.5364 111.553 45.208C111.266 42.5086 111.675 38.8159 112.217 37.2559C109.779 33.3073 104.987 29.9559 98.818 27.683C99.8421 19.6273 101.988 11.6935 104.615 5.46591C101.348 6.8857 97.2086 9.54249 93.5692 12.9366C93.2278 8.26285 92.7706 3.63175 92.4292 0.219368C91.7099 0.87747 79.0421 14.4051 79.0421 14.4051L69.9833 0L64.2041 16.0565C64.2041 16.0565 52.207 7.70224 48.4152 5.2892C48.7566 10.1092 49.3601 14.6245 49.7563 17.9516C47.519 16.6049 41.1547 13.9725 37.3629 13.7958C40.8194 18.6341 45.9462 26.6044 47.7507 33.9715C37.2836 40.3271 29.1941 47.682 19.9828 64.1528C21.2569 64.2381 23.86 64.4027 26.1826 64.6464C21.7141 70.3926 15.1974 84.7978 16.0813 96.1257C17.6968 95.5894 23.165 93.8832 26.1826 92.8717C23.7807 102.81 25.3596 123.108 32.9066 130.877C37.0642 128.958 44.7453 121.517 49.1345 115.241C49.8234 127.629 45.8182 139.365 45.0684 140.706C69.7394 156.708 94.7335 140.602 94.7335 140.602C94.7335 140.602 95.9406 146.166 96.4587 148C103.28 146.3 117.637 137.263 122.861 116.789C124.068 118.166 126.464 120.817 127.506 122.334C136.559 99.1968 131.414 83.6948 124.586 72.8849L124.592 72.8788Z" fill="white"/>
<path d="M43.3067 17.7261C49.2809 20.4621 53.1153 23.9171 53.8103 24.4411C53.4933 22.8934 52.3167 15.4775 51.6401 10.8586C55.1209 13.2778 63.2044 18.8838 65.8562 20.7058C66.9413 17.3665 70.6905 6.47128 70.6905 6.47128C70.6905 6.47128 77.4693 17.4458 78.6276 19.2312C80.0419 17.7504 88.1498 8.73808 90.2468 6.453C90.6004 11.6386 91.082 19.0605 91.1978 20.1757C91.6124 19.6212 94.7153 15.2765 99.9153 11.2669C97.6597 15.703 96.5868 21.8331 96.1052 26.7567C90.8702 25.2932 85.4595 24.5531 80.0236 24.5569C69.3371 24.5569 59.3029 27.3721 50.6281 32.2957C49.0492 27.5489 46.5803 21.632 43.3067 17.7261ZM125.104 111.317L120.398 106.101C119.051 120.189 112.156 132.145 99.4825 140.481L97.55 132.882C86.7903 140.657 68.3252 145.69 52.4691 136.733C54.4321 126.685 56.1817 116.515 52.4326 104.328C43.6541 117.922 35.8755 123.248 35.8755 123.248C29.95 113.291 30.4804 93.3104 32.2483 87.424L22.3726 90.483C22.3726 83.774 27.2129 69.5212 34.2112 61.5265L28.042 60.5393C32.2223 52.0012 38.4376 44.6208 46.1414 39.0474H46.1474C43.8492 42.6791 43.8187 51.6305 50.5549 55.0368C47.6898 50.0218 47.3484 43.8308 50.3294 40.6195C53.3226 37.3899 58.3458 38.499 61.5524 41.0095C60.6014 38.2126 57.8032 34.6966 53.6091 34.4528C61.528 30.3824 70.5076 28.0851 80.0236 28.0851C81.8037 28.0851 83.5594 28.1643 85.2968 28.3227C88.0644 29.4379 92.1244 33.3316 94.0203 35.7508C94.0203 35.7508 94.1544 32.8929 92.5634 29.4439C102.866 31.9423 107.773 36.1347 109.834 38.1638C110.254 42.606 111.589 45.2811 113.351 49.51C110.017 45.7686 101.628 39.7481 97.6292 38.304C97.6292 38.304 97.3 42.1612 95.9223 44.0197C87.9547 38.2674 84.041 36.8293 84.041 36.8293C75.2869 38.0785 69.6663 41.4543 66.6121 44.105L69.2762 46.3718C64.003 47.9927 60.577 52.5263 60.577 52.5263C60.6136 52.6055 65.2893 53.2697 65.2893 53.2697C65.2893 53.2697 64.8138 58.76 71.6902 62.2028C77.573 65.146 86.0466 61.496 94.0203 64.689C88.7716 58.6381 85.1627 55.9326 85.1627 55.9326C85.1627 55.9326 83.0778 55.4999 81.6086 55.506C79.7798 55.5182 77.0548 55.8838 74.0555 54.7139C72.629 54.1594 70.9587 53.1722 69.6541 52.3496C69.6541 52.3496 73.3362 48.5716 78.7069 47.7368C78.7069 47.7368 83.5533 49.1017 87.3999 51.9413C89.9542 49.4551 92.6182 49.5344 92.6182 49.5344C92.6182 49.5344 89.9786 52.0022 90.7772 54.9881C94.6178 58.4127 98.7814 63.3058 98.7814 63.3058C103.024 60.978 112.242 61.5143 114.138 63.708C111.736 60.6002 108.279 58.0044 105.603 55.7802C105.28 54.6164 102.36 50.5459 101.866 50.1742C101.866 50.1742 104.646 51.0334 107.121 53.2514C107.84 52.2399 109.169 51.204 110.986 50.747C112.857 52.313 113.18 54.7139 113.132 55.116C112.284 56.1154 111.467 56.5297 111.467 56.5297L115.954 61.3863L116.405 57.9008C126.75 72.6655 132.395 89.7761 125.135 111.292L125.104 111.317ZM105.591 79.4902L105.579 71.855C105.579 71.855 102.171 70.7582 98.5193 67.9308C91.2039 69.0398 82.3341 76.3947 82.3341 76.3947C82.3341 76.3947 85.3333 82.0739 88.6009 88.1979C94.3617 88.9901 102.841 81.7327 105.579 79.4841L105.591 79.4902ZM112.955 93.3409C112.955 93.3409 112.37 90.1844 109.864 87.229L104.158 87.3692C104.158 87.3692 96.4527 93.9868 91.7587 94.1391C91.7587 94.1391 94.3495 98.953 95.648 101.464C98.2388 100.903 102.787 98.8555 104.615 96.735C104.615 96.735 105.829 100.641 105.597 105.242C108.169 103.743 111.717 99.7086 112.961 93.3348L112.955 93.3409ZM115.302 68.2415C112.425 70.6668 109.98 72.0074 109.98 72.0074L110.004 79.6791C112.071 81.9764 114.101 83.8776 115.625 87.3448C118.508 82.1592 117.96 74.5179 115.302 68.2415Z" fill="#3C175C"/>
</g>
<defs>
<filter id="filter0_d_26_427" x="0" y="0" width="148" height="148" filterUnits="userSpaceOnUse" color-interpolation-filters="sRGB">
<feFlood flood-opacity="0" result="BackgroundImageFix"/>
<feColorMatrix in="SourceAlpha" type="matrix" values="0 0 0 0 0 0 0 0 0 0 0 0 0 0 0 0 0 0 127 0" result="hardAlpha"/>
<feOffset/>
<feComposite in2="hardAlpha" operator="out"/>
<feColorMatrix type="matrix" values="0 0 0 0 0 0 0 0 0 0 0 0 0 0 0 0 0 0 1 0"/>
<feBlend mode="normal" in2="BackgroundImageFix" result="effect1_dropShadow_26_427"/>
<feBlend mode="normal" in="SourceGraphic" in2="effect1_dropShadow_26_427" result="shape"/>
</filter>
</defs>
</svg>
