<svg width="148" height="148" viewBox="0 0 148 148" fill="none" xmlns="http://www.w3.org/2000/svg">
<g filter="url(#filter0_d_26_431)">
<mask id="mask0_26_431" style="mask-type:luminance" maskUnits="userSpaceOnUse" x="22" y="0" width="104" height="148">
<path d="M125.622 0H22V148H125.622V0Z" fill="white"/>
</mask>
<g mask="url(#mask0_26_431)">
<path d="M73.8088 148C45.2425 148 22 124.412 22 95.4211C22 95.0681 22.0092 20.9822 22.0119 8.12041V0H125.604L125.607 8.11865C125.612 20.8894 125.623 94.9393 125.623 95.4211C125.622 124.412 102.379 148 73.8088 148Z" fill="white"/>
</g>
<mask id="mask1_26_431" style="mask-type:luminance" maskUnits="userSpaceOnUse" x="22" y="0" width="104" height="148">
<path d="M125.622 0H22V148H125.622V0Z" fill="white"/>
</mask>
<g mask="url(#mask1_26_431)">
<path d="M122.674 8.1204L122.674 2.93201H24.9439V8.12084C24.9403 21.0828 24.9307 95.0725 24.9307 95.4211C24.9307 122.796 46.8566 145.068 73.8087 145.068C100.762 145.068 122.691 122.796 122.691 95.4211C122.691 94.9362 122.681 20.7931 122.674 8.1204Z" fill="#008F5E"/>
</g>
<mask id="mask2_26_431" style="mask-type:luminance" maskUnits="userSpaceOnUse" x="22" y="0" width="104" height="148">
<path d="M125.622 0H22V148H125.622V0Z" fill="white"/>
</mask>
<g mask="url(#mask2_26_431)">
<path d="M70.886 61.1564C71.8306 61.4039 72.5801 61.9903 73.065 62.8691C73.2118 63.135 73.3164 63.3944 73.3881 63.6194C74.2338 63.3319 75.1548 63.2137 75.7332 63.1649C75.7315 63.1337 75.7306 63.0998 75.7306 63.0677C75.7209 62.3429 75.8207 62.0519 75.8972 61.8971L75.9003 61.8883C76.0379 61.6162 76.3407 61.3586 76.8836 61.0549C77.0045 60.9859 77.1219 60.9257 77.2252 60.8747C77.2511 60.1432 77.3127 58.4165 77.3426 57.6446C77.3795 56.6529 77.5487 54.3126 77.558 54.1776C77.5707 53.9864 77.678 53.7161 77.943 53.524L77.9637 53.5099C78.3628 53.2457 78.6899 53.0048 78.8156 52.8945C78.8552 52.7077 78.8991 52.232 78.9163 51.7946L78.9356 51.2852L79.4209 51.2619C79.4495 51.2575 79.6214 51.2285 79.7282 51.1212C79.7537 50.9445 79.7282 50.4768 79.6706 50.0754L79.6148 49.6855L79.9625 49.5044C80.1198 49.4191 80.5744 49.1211 80.7568 48.7677C80.9489 48.3896 81.0685 47.6481 81.0975 47.0212C80.8869 47.2371 80.6667 47.3461 80.4385 47.3461C80.2728 47.3461 79.7282 47.2766 79.682 46.3983C79.6112 45.1112 80.6684 44.3402 80.7137 44.3094L81.0808 44.0466L81.4127 44.3512C81.4839 44.4176 81.5907 44.4888 81.7089 44.5618C81.7397 44.4532 81.7749 44.3424 81.8096 44.2277C81.9494 43.7841 82.1243 43.2303 82.2065 42.323L82.2074 42.3093C82.3309 41.2266 82.0544 40.9831 81.963 40.9035C81.9533 40.8952 81.9432 40.8864 81.9344 40.878C81.8579 40.8482 81.6817 40.802 81.479 40.802C81.3379 40.802 81.2122 40.8249 81.1129 40.8693C80.8834 41.0605 80.6636 41.1528 80.4425 41.1528C80.1801 41.1528 79.9488 41.0205 79.8099 40.7897C79.5972 40.4341 79.6565 39.9132 79.8218 39.6006L79.8258 39.594C79.9946 39.285 80.3682 39.1188 81.1533 39.0002C81.2786 38.9813 81.4021 38.9663 81.5133 38.954C81.4957 38.8709 81.4724 38.8155 81.4724 38.8147L81.0197 37.863L82.0588 38.026C82.0685 38.0278 82.9784 38.1667 84.124 38.1667C85.2594 38.1667 86.2147 38.0361 86.9597 37.7759C89.5581 36.866 92.9957 36.7702 93.9869 36.7622H93.9988H94.0098C94.6371 36.7833 95.263 36.7939 95.8696 36.7939C102.949 36.7939 106.859 35.3696 108.529 34.7626C108.596 34.7384 108.66 34.7147 108.72 34.6922L108.727 34.69C110.497 34.0755 112.432 32.9625 114.035 31.6367C115.769 30.2032 117.002 28.6172 117.502 27.1697L117.51 27.1508L117.517 27.1323C118.444 24.9748 118.668 21.5914 116.258 19.1512C114.933 17.807 113.245 17.1265 111.236 17.1265C110.535 17.1265 109.884 17.2105 109.331 17.3208C110.988 17.8835 112.258 18.5732 113.184 19.4141C114.237 20.3684 114.655 21.3351 114.95 22.2367L114.964 22.2758L114.97 22.3162C115.165 23.4521 115.06 24.5282 114.663 25.5151C114.175 26.7222 113.237 27.8123 111.877 28.7548C108.623 31.2604 103.331 31.9558 101.198 32.1383C100.376 32.2262 99.3727 32.2706 98.217 32.2706C95.5536 32.2706 92.4646 32.0244 91.2496 31.7941C90.0236 31.5637 87.0208 31.3022 85.4076 31.1615C85.0643 31.1312 84.7662 31.1048 84.564 31.0859C84.215 31.0556 83.8849 31.027 83.5864 31.027C82.9094 31.027 82.4918 31.1778 82.0971 31.5651L82.0764 31.5844C81.5753 32.0257 81.1762 32.2328 80.8232 32.2328C80.6038 32.2328 80.4069 32.1501 80.279 32.0055L80.2653 31.9893C80.2561 31.9774 79.1514 30.6608 77.5144 30.6608C77.4322 30.6608 77.3496 30.6644 77.2678 30.6705C75.9297 30.7751 75.5653 31.1105 75.2431 31.4068C75.091 31.5462 74.9336 31.6908 74.7112 31.8033C74.5376 31.9053 74.3631 31.9936 74.1455 31.9936C73.8839 31.9936 73.6945 31.8627 73.556 31.7655C73.4848 31.7185 72.2482 30.9083 70.9348 30.7035C70.7915 30.6907 70.642 30.6837 70.493 30.6837C68.5799 30.6837 66.8225 31.6987 66.8044 31.7088L66.1631 32.0842L65.9965 31.4116C65.8633 31.2987 65.3165 31.1044 64.4975 31.1044C64.3287 31.1044 64.1617 31.114 64.0003 31.1307C63.6518 31.1699 63.0249 31.2191 62.2987 31.2767C60.6068 31.4108 58.2866 31.5936 57.2593 31.8068C56.0813 32.0526 52.1351 32.4249 48.8734 32.4249C47.9798 32.4249 47.2061 32.3954 46.5731 32.3392C45.5541 32.2701 43.5149 32.0684 41.2704 31.4811C39.0184 30.8921 37.1884 30.0841 35.8301 29.0783C34.4542 28.1605 33.4986 27.0866 32.9904 25.8865C32.5763 24.9098 32.4537 23.8368 32.626 22.6974L32.6322 22.6569L32.6445 22.6182C32.9219 21.7101 33.3223 20.7364 34.3588 19.7623C35.2701 18.9068 36.5269 18.1938 38.1749 17.603C37.6597 17.5085 37.0605 17.4377 36.4174 17.4377C34.3435 17.4377 32.6155 18.149 31.2813 19.5499C28.9067 22.0428 29.1951 25.4171 30.1639 27.5495L30.1727 27.5692L30.1797 27.589C30.7006 29.0172 31.9886 30.5817 33.8107 31.9958C35.4749 33.2873 37.4645 34.3652 39.2699 34.956L39.2773 34.9582C39.3749 34.9907 39.4822 35.0281 39.5987 35.0685C41.3676 35.6835 45.0486 36.9636 51.7465 36.9636C52.6683 36.9636 53.6258 36.9385 54.592 36.8884L54.6161 36.8875C54.7291 36.8875 54.8579 36.8858 54.9986 36.8836C55.2997 36.8792 55.6729 36.8743 56.0848 36.8743C58.6928 36.8743 60.6323 37.0972 62.0165 37.5557C63.8755 38.1619 65.9815 38.1926 66.3846 38.1926H66.4523L66.7328 38.1882L66.9011 38.4102C67.0036 38.5421 67.0172 38.6617 67.044 38.8969C67.0765 39.1725 67.1179 39.638 67.1702 40.2824C67.2366 41.1207 66.8576 41.8346 66.1024 42.2922C65.9437 42.3889 65.7842 42.4641 65.6378 42.5234C65.6835 42.6729 65.7301 42.8386 65.7644 42.9982C65.8756 43.4457 65.9587 43.8949 66.0255 44.2567C66.0563 44.422 66.0919 44.6158 66.1187 44.7376C66.3029 44.9121 66.4304 45.1319 66.5363 45.3156C66.5763 45.3829 66.6242 45.4669 66.6515 45.5016C66.7271 45.5908 66.9192 45.7429 67.0247 45.8172L67.9135 46.4401L66.9895 46.7623C67.0106 47.7571 67.1196 48.8855 67.4783 49.3835C67.5104 49.3963 67.5548 49.4112 67.59 49.4249C67.9592 49.5585 68.6472 49.8051 68.9263 50.6073L68.9527 50.6847L68.9566 50.7669C68.9914 51.5929 69.0723 52.4967 69.1193 52.9842C69.6991 53.2365 70.0591 53.7249 70.1541 53.8638C70.478 54.2704 70.5835 54.7456 70.6407 55.1148L70.6446 55.146C70.6495 55.1983 70.6622 55.339 70.6767 55.5069C70.7005 55.7861 70.7326 56.1338 70.7457 56.2692L70.7466 56.2815C70.769 56.561 70.7506 56.9531 70.7268 57.4477C70.7013 57.9765 70.6736 58.5748 70.6882 59.1704C70.7101 59.9665 70.8156 60.7287 70.886 61.1564ZM72.5217 65.2314L72.4447 64.4392C72.4342 64.3434 72.1889 62.4638 70.3198 62.1723L69.9365 62.113L69.8591 61.7341C69.8494 61.6848 69.6125 60.5023 69.5773 59.199C69.5619 58.5638 69.5932 57.9154 69.616 57.3954C69.6371 56.9602 69.6547 56.5843 69.6398 56.3725C69.6252 56.2265 69.5945 55.8828 69.5694 55.6041C69.5567 55.4559 69.5457 55.3271 69.54 55.2678C69.4859 54.9245 69.4046 54.7029 69.2758 54.5464L69.2529 54.517L69.2371 54.4928C69.1501 54.3614 68.8529 54.0128 68.5061 53.9517L68.0955 53.8783L68.0502 53.4633C68.0441 53.4084 67.9074 52.1208 67.8502 50.9093C67.7412 50.6768 67.5232 50.5827 67.2137 50.4706C67.0053 50.3959 66.8093 50.3238 66.6655 50.148L66.6576 50.1392C66.4435 49.8789 65.8734 49.1892 65.8747 46.3684V46.2985C65.847 46.2695 65.8198 46.2388 65.7943 46.2089L65.7899 46.204C65.7086 46.1038 65.6439 45.9917 65.5758 45.8726C65.5191 45.7754 65.4013 45.5741 65.3389 45.5319L65.2096 45.4506L65.1393 45.313C65.0646 45.1631 65.0246 44.9556 64.9327 44.4598C64.8676 44.1103 64.7885 43.676 64.6835 43.2588L64.6808 43.2408C64.5947 42.8412 64.4083 42.366 64.4065 42.3616L64.1498 41.7137L64.832 41.6091C64.8575 41.6042 65.2193 41.5361 65.5508 41.3277C66.0528 41.013 66.0831 40.6314 66.0629 40.3717C66.0224 39.8613 65.9908 39.5215 65.9692 39.2982C65.1217 39.2709 63.3155 39.1492 61.671 38.6124L61.6688 38.6116C60.3993 38.19 58.5728 37.9869 56.0852 37.9869C55.6812 37.9869 55.3124 37.9918 55.014 37.9957C54.8746 37.997 54.7498 37.9983 54.6372 37.9983C53.6561 38.0502 52.6842 38.0757 51.747 38.0757C48.7895 38.0757 46.0394 37.8234 43.5738 37.3271C41.521 36.9143 40.0892 36.4167 39.2338 36.12C39.1217 36.0796 39.018 36.0435 38.9226 36.0114C37.0007 35.3841 34.889 34.2404 33.1293 32.8746C31.7301 31.7875 29.9046 30.0599 29.1432 27.9899C28.5098 26.5863 28.2333 24.9867 28.366 23.4838C28.5238 21.6933 29.2527 20.0682 30.4765 18.7842C31.3222 17.8958 32.3205 17.2386 33.4419 16.8294C34.3575 16.4953 35.3585 16.3269 36.4179 16.3269C38.5973 16.3269 40.2871 17.0373 40.3578 17.0672L41.8423 17.7006L40.2822 18.1151C34.7962 19.5754 34.0819 21.7228 33.7201 22.9031C33.4159 25.0122 34.3114 26.7332 36.4574 28.1622L36.4825 28.1798C39.0712 30.1008 43.434 31.0147 46.6549 31.2301L46.6667 31.231C47.2685 31.2855 48.0101 31.3132 48.8739 31.3132C51.9545 31.3132 55.887 30.9584 57.0334 30.7184C58.131 30.4938 60.4894 30.3052 62.2117 30.1689C62.9295 30.1122 63.5485 30.0634 63.8803 30.027C64.0808 30.005 64.2896 29.9935 64.498 29.9935C64.7951 29.9935 66.0145 30.0252 66.6708 30.5263C67.3755 30.1839 68.8656 29.572 70.4934 29.572C70.682 29.572 70.8715 29.5812 71.0534 29.597L71.086 29.6019C72.6096 29.8331 73.989 30.7184 74.1644 30.8358L74.1833 30.8244L74.2035 30.8138C74.2923 30.7716 74.3763 30.6951 74.4914 30.5874C74.8998 30.2129 75.4603 29.6973 77.1812 29.5619C77.2924 29.5544 77.4037 29.5496 77.5149 29.5496C79.2367 29.5496 80.4605 30.5936 80.9243 31.0639C81.0113 31.0147 81.1432 30.9241 81.3309 30.7602C82.101 30.0111 82.9406 29.9149 83.5868 29.9149C83.9345 29.9149 84.2875 29.9461 84.662 29.979H84.6651C84.8638 29.9979 85.1601 30.0243 85.5039 30.0533C87.136 30.1971 90.1749 30.4608 91.4562 30.703C92.4686 30.8938 95.3804 31.1589 98.217 31.1589C99.3366 31.1589 100.302 31.1171 101.086 31.0332L101.097 31.0314C103.131 30.8573 108.187 30.1997 111.209 27.866L111.233 27.8484C113.359 26.3806 114.225 24.6443 113.879 22.5426C113.496 21.3663 112.74 19.2299 107.234 17.8703L105.664 17.4835L107.14 16.8241C107.214 16.7902 108.977 16.0153 111.236 16.0153C112.269 16.0153 113.246 16.1788 114.144 16.5006C115.233 16.8927 116.212 17.5208 117.049 18.3705C117.699 19.0299 118.219 19.7825 118.593 20.6067C118.933 21.3619 119.152 22.1769 119.243 23.031C119.4 24.5278 119.153 26.1323 118.547 27.5525C117.816 29.6423 116.076 31.3923 114.743 32.4935C113.044 33.8992 110.984 35.0813 109.096 35.7389C109.037 35.7609 108.975 35.7824 108.911 35.807C108.036 36.1244 106.577 36.6559 104.442 37.1003C101.878 37.6348 98.9951 37.9047 95.8718 37.9047H95.8705C95.2564 37.9047 94.6204 37.8946 93.9847 37.8739C93.2831 37.8797 89.814 37.9548 87.3259 38.8252C86.4626 39.1263 85.3847 39.2793 84.1244 39.2793C83.5473 39.2793 83.0316 39.2463 82.6395 39.2112C82.6338 39.3443 82.6118 39.4837 82.5666 39.6288L82.4817 39.9053C82.5872 39.9615 82.6514 40.0173 82.6945 40.0648C82.6949 40.0657 82.6954 40.067 82.6962 40.0675C83.0417 40.3712 83.4826 40.9457 83.3125 42.4307C83.2198 43.4522 83.0171 44.094 82.8699 44.5618C82.7609 44.9108 82.6905 45.1411 82.7046 45.3732L82.7674 46.2836L82.0896 45.9913C82.1626 46.1504 82.2074 46.3513 82.2127 46.5948C82.2294 47.2691 82.1195 48.536 81.7481 49.2692L81.7472 49.2714C81.5116 49.7334 81.1049 50.0763 80.8135 50.2807C80.8232 50.377 80.832 50.4869 80.8394 50.5999C80.8759 51.2219 80.8157 51.5586 80.6276 51.7793C80.4421 52.0162 80.2095 52.1577 80.0055 52.243C79.9994 52.3252 79.9932 52.414 79.9849 52.505C79.9238 53.1991 79.8429 53.418 79.708 53.5701C79.5651 53.7398 79.213 54.0128 78.6587 54.3829C78.6209 54.8968 78.4846 56.8367 78.4534 57.6868C78.4143 58.6737 78.3233 61.2228 78.3228 61.2496L78.3101 61.5969L77.9936 61.7371C77.5201 61.9477 77.0054 62.255 76.892 62.3943C76.8348 62.5627 76.8247 63.1495 76.8718 63.6339L76.9298 64.2331L76.328 64.2427C76.31 64.2436 74.4448 64.2871 73.2421 64.8771L72.5217 65.2314Z" fill="#FCEB20"/>
</g>
<mask id="mask3_26_431" style="mask-type:luminance" maskUnits="userSpaceOnUse" x="22" y="0" width="104" height="148">
<path d="M125.622 0H22V148H125.622V0Z" fill="white"/>
</mask>
<g mask="url(#mask3_26_431)">
<path d="M80.5665 40.0271C80.5414 40.0873 80.5282 40.1717 80.5282 40.242C80.5397 40.2332 80.5524 40.2236 80.5665 40.2117L80.6597 40.1348L80.7709 40.086C80.9815 39.9932 81.2197 39.9471 81.4795 39.9471C81.5107 39.9471 81.541 39.9475 81.5718 39.9493L81.6175 39.8029L81.6083 39.8038C81.4927 39.817 81.3819 39.8315 81.2799 39.8468C80.7841 39.9216 80.6144 39.9976 80.5665 40.0271ZM80.8632 45.3601C80.6861 45.5935 80.5142 45.9333 80.537 46.3509V46.3549C80.537 46.3597 80.5375 46.365 80.5375 46.3707L81.0738 45.8212L80.8632 45.3601ZM71.6553 60.5125C72.5727 60.8848 73.3116 61.5486 73.8123 62.455C73.8378 62.5003 73.8615 62.5438 73.8853 62.59C74.2369 62.5056 74.5825 62.4445 74.902 62.3979C74.9363 62.0449 75.0119 61.7631 75.128 61.5231L75.1372 61.5024C75.3508 61.0804 75.7267 60.7327 76.3869 60.3534C76.416 59.563 76.463 58.2531 76.4876 57.6113C76.5241 56.6248 76.6867 54.3764 76.7048 54.117C76.7399 53.6216 77.0142 53.142 77.4397 52.8321L77.4921 52.797C77.6995 52.658 77.8806 52.5314 78.016 52.433C78.0341 52.2567 78.0521 52.018 78.0609 51.7622L78.1114 50.4694L78.8534 50.4338C78.8455 50.3568 78.8363 50.2777 78.8253 50.1973L78.6829 49.21L79.5625 48.748C79.7058 48.6715 79.9432 48.4763 79.9955 48.3774C80.021 48.3273 80.0473 48.2521 80.0733 48.1572C79.4469 48.0086 78.8829 47.4617 78.8293 46.4441C78.7347 44.724 80.0654 43.7218 80.217 43.6132L81.1467 42.9481L81.2443 43.0373C81.2878 42.8105 81.327 42.5512 81.3555 42.2456L81.3582 42.2122C81.3828 41.9977 81.3881 41.8404 81.3828 41.7274C81.0812 41.9133 80.7669 42.0074 80.443 42.0074C79.8816 42.0074 79.3708 41.7173 79.0781 41.2307C78.6811 40.5708 78.7941 39.7154 79.0671 39.2007L79.0763 39.1804C79.3405 38.7048 79.7827 38.4578 80.2874 38.3096L79.5511 36.768L82.193 37.1817C82.2 37.1825 83.0607 37.3113 84.1249 37.3113C85.1654 37.3113 86.0257 37.1966 86.6798 36.9689C89.4021 36.0154 92.957 35.9152 93.9817 35.9073H94.0102L94.0388 35.9082C94.6573 35.928 95.2745 35.939 95.8714 35.939C102.8 35.939 106.612 34.5508 108.238 33.9586L108.243 33.9569C108.307 33.9331 108.371 33.9103 108.43 33.8892L108.448 33.8826C110.126 33.2988 111.964 32.2407 113.492 30.9778C115.108 29.6428 116.246 28.1913 116.697 26.8893L116.712 26.8418L116.734 26.7943C117.555 24.8826 117.765 21.8903 115.652 19.7526C114.919 19.0093 114.055 18.4981 113.072 18.222C113.317 18.3996 113.545 18.5864 113.76 18.7803C114.963 19.8718 115.448 21.0059 115.765 21.9708L115.796 22.0692L115.814 22.1712C116.036 23.4671 115.915 24.6993 115.456 25.8343C114.907 27.193 113.872 28.4089 112.382 29.445C110.884 30.5941 108.847 31.5036 106.329 32.1454C104.334 32.6553 102.484 32.8856 101.281 32.9894C100.429 33.0808 99.4004 33.1265 98.2162 33.1265C95.5066 33.1265 92.3451 32.872 91.091 32.6346C89.9085 32.4117 86.9325 32.152 85.3338 32.0135C84.9904 31.9823 84.6942 31.9572 84.4893 31.9383C84.1588 31.9089 83.848 31.882 83.5877 31.882C83.0849 31.882 82.8994 31.9766 82.6958 32.1757L82.6422 32.2245C82.2228 32.5946 81.5788 33.0878 80.8241 33.0878C80.3594 33.0878 79.9269 32.8988 79.6377 32.5709L79.6108 32.5383C79.5818 32.5054 78.7097 31.5163 77.5149 31.5163C77.4564 31.5163 77.3958 31.5185 77.3356 31.5233C76.292 31.6047 76.0753 31.8051 75.8225 32.0359C75.6493 32.195 75.4379 32.3898 75.1236 32.5533C74.9455 32.6566 74.6009 32.8483 74.1468 32.8483C73.622 32.8483 73.2576 32.6008 73.0764 32.4733C72.9811 32.4117 71.912 31.7295 70.8319 31.5519C70.7225 31.5431 70.6077 31.5392 70.4935 31.5392C68.8367 31.5392 67.2546 32.4372 67.2331 32.4487L65.6097 33.3986L65.2725 32.0403C65.0963 31.9999 64.836 31.9594 64.4993 31.9594C64.3604 31.9594 64.2233 31.9678 64.0931 31.9818C63.7336 32.0214 63.1006 32.0724 62.3678 32.1304C60.696 32.2614 58.4071 32.4425 57.4313 32.6438C56.2215 32.8966 52.1879 33.2799 48.8739 33.2799C47.9596 33.2799 47.1635 33.2496 46.5063 33.192C45.4575 33.1208 43.362 32.9116 41.055 32.3076C38.7059 31.6939 36.7836 30.8442 35.3392 29.7795C33.8301 28.7689 32.7751 27.5719 32.2032 26.2202C31.7267 25.0967 31.5851 23.868 31.7816 22.5699L31.7961 22.4666L31.8273 22.3682C32.1245 21.3967 32.5887 20.2525 33.7734 19.1399C33.987 18.9399 34.2147 18.7495 34.4578 18.5653C33.4771 18.8563 32.6217 19.383 31.9007 20.1395C29.8206 22.3246 30.0839 25.3055 30.9429 27.1961L30.9649 27.2458L30.9833 27.2968C31.4493 28.5751 32.6388 30.0037 34.3356 31.3211C35.9242 32.5537 37.8202 33.5828 39.5367 34.1428L39.5526 34.1485C39.6528 34.1824 39.7605 34.2198 39.8792 34.2606C41.6045 34.8611 45.1942 36.1091 51.747 36.1091C52.6539 36.1091 53.5968 36.084 54.5494 36.0348L54.6087 36.0335C54.7217 36.0326 54.8474 36.03 54.9867 36.0286C55.2905 36.0247 55.6699 36.0194 56.0844 36.0194C58.7843 36.0194 60.8125 36.2559 62.2829 36.7434C64.0188 37.3096 66.0049 37.3382 66.3851 37.3382H66.4392L67.1496 37.3267L67.5803 37.8894C67.8261 38.2107 67.8612 38.5092 67.8938 38.7998C67.9272 39.0842 67.9698 39.5598 68.023 40.2139C68.1127 41.3405 67.6085 42.338 66.6361 42.9679C66.7333 43.3785 66.8067 43.7763 66.866 44.102C66.8805 44.1767 66.8955 44.2598 66.9109 44.3367C67.0713 44.5324 67.1869 44.7302 67.2766 44.8858C67.2871 44.9056 67.3052 44.9368 67.3205 44.9627C67.3693 45.0062 67.4537 45.0722 67.5184 45.117L69.7695 46.6986L67.8713 47.3602C67.9188 48.0969 68.0151 48.4948 68.0859 48.6978C68.5764 48.8904 69.3778 49.3018 69.7339 50.3269L69.8016 50.523L69.8112 50.73C69.8367 51.3296 69.8868 51.9741 69.9295 52.4576C70.3998 52.7723 70.7049 53.1574 70.8438 53.357C71.2829 53.9223 71.4201 54.5566 71.4865 54.9861L71.4957 55.0665C71.501 55.1171 71.5137 55.2608 71.5287 55.4309C71.552 55.6934 71.5841 56.0521 71.5968 56.1844L71.5999 56.216C71.6249 56.5492 71.6056 56.9642 71.5814 57.4895C71.5577 58.0012 71.5296 58.5849 71.5441 59.1498C71.5577 59.647 71.606 60.1318 71.6553 60.5125ZM71.7885 66.5431L71.5955 64.5325C71.5889 64.4894 71.5335 64.1399 71.3287 63.7896C71.0719 63.3487 70.6979 63.0968 70.1875 63.0164L69.2178 62.8652L69.0226 61.9038C69.0112 61.8519 68.7584 60.5995 68.7224 59.2223C68.707 58.5537 68.7378 57.89 68.7628 57.3554C68.7804 56.9893 68.7975 56.6095 68.7879 56.4428C68.7716 56.2872 68.7426 55.9536 68.7189 55.6819L68.7167 55.6586C68.7057 55.5404 68.6956 55.4375 68.6916 55.3751C68.6569 55.1645 68.6204 55.0964 68.6142 55.0872L68.5558 55.0164L68.5202 54.9588C68.4815 54.9052 68.3892 54.8164 68.3382 54.79L67.314 54.6089L67.201 53.5544C67.1874 53.4295 67.0775 52.3965 67.0159 51.3094C66.9891 51.2984 66.9575 51.287 66.924 51.2742C66.6594 51.1788 66.2985 51.0487 66.0031 50.6892L65.9992 50.6834C65.8655 50.5217 65.5873 50.1845 65.367 49.4632C65.1503 48.7475 65.0343 47.7857 65.0211 46.6015C64.9503 46.4986 64.8901 46.3962 64.836 46.3026C64.8066 46.2516 64.7828 46.2111 64.7626 46.1795L64.5529 46.0458L64.3762 45.6981C64.243 45.4335 64.1925 45.1592 64.0918 44.6141C64.0298 44.2765 63.9525 43.8563 63.8549 43.4651L63.8435 43.4189C63.7867 43.149 63.6557 42.7907 63.6105 42.6756L62.9608 41.0315L64.6839 40.7665C64.7551 40.7511 64.945 40.6983 65.0949 40.6034C65.1899 40.544 65.2101 40.5071 65.2101 40.5071C65.2101 40.5071 65.2145 40.4908 65.2101 40.4394C65.2013 40.3256 65.1917 40.2161 65.1837 40.1132C64.1692 40.0411 62.7467 39.8627 61.4051 39.4257L61.3985 39.4235C60.2178 39.0323 58.4788 38.8406 56.0844 38.8406C55.6874 38.8406 55.3204 38.8468 55.0263 38.8508C54.8927 38.8521 54.7722 38.8543 54.6632 38.8556C53.6724 38.9044 52.6917 38.9308 51.747 38.9308C48.7332 38.9308 45.9261 38.6727 43.4059 38.1654C41.2946 37.7399 39.8295 37.2304 38.9534 36.9267L38.942 36.9232C38.8378 36.8858 38.7411 36.8528 38.6523 36.8225C36.6425 36.1653 34.438 34.9723 32.6058 33.5503C31.1253 32.4008 29.1885 30.562 28.352 28.314C27.668 26.7851 27.37 25.0443 27.5141 23.4082C27.6887 21.4231 28.4992 19.6195 29.8567 18.1943C30.7952 17.2092 31.9029 16.48 33.15 16.025C34.1589 15.6584 35.2587 15.4716 36.4192 15.4716C38.7297 15.4716 40.4985 16.1977 40.6924 16.2804L45.421 18.0866L40.5025 18.9412C35.5233 20.267 34.8701 22.0754 34.5576 23.0891C34.3281 24.8329 35.0838 26.2202 36.9322 27.4506L36.9911 27.4919C39.4312 29.3021 43.6125 30.1699 46.7107 30.3778L46.7432 30.3796C47.32 30.4314 48.0369 30.4578 48.8739 30.4578C51.8543 30.4578 55.7723 30.1083 56.8594 29.8815C58.0098 29.6441 60.3993 29.4556 62.1445 29.3171H62.1462C62.8557 29.2608 63.4667 29.2129 63.7867 29.1755C64.0188 29.1509 64.2584 29.1391 64.4993 29.1391C64.9376 29.1391 65.9183 29.1861 66.7183 29.5641C67.5944 29.1852 68.9813 28.7184 70.4935 28.7184C70.708 28.7184 70.9229 28.7276 71.1313 28.7456L71.2153 28.7566C72.3889 28.9346 73.462 29.4437 74.0941 29.7958C74.3046 29.6129 74.5803 29.4006 74.979 29.2129C75.5487 28.9421 76.2472 28.7782 77.1144 28.7096C77.2472 28.6999 77.3822 28.6946 77.5149 28.6946C79.0407 28.6946 80.2289 29.3782 80.9546 29.9483C81.8958 29.1575 82.8967 29.0595 83.5873 29.0595C83.9719 29.0595 84.3429 29.0933 84.7346 29.1263L84.7434 29.1276C84.9421 29.1465 85.2516 29.1738 85.5777 29.2024C87.2248 29.3457 90.2927 29.6129 91.6145 29.8617C92.5939 30.0477 95.4323 30.304 98.2153 30.304C99.3059 30.304 100.24 30.2639 100.993 30.1822L101.024 30.1795C102.982 30.0112 107.843 29.3852 110.684 27.1886L110.747 27.1451C112.576 25.8809 113.309 24.4804 113.046 22.7436C112.714 21.7347 112.026 19.9351 107.028 18.7012L103.046 17.7165L106.791 16.0434C106.992 15.9525 108.838 15.1586 111.236 15.1586C112.366 15.1586 113.442 15.3397 114.433 15.6962C115.645 16.1314 116.73 16.829 117.658 17.7714C118.38 18.5012 118.958 19.3386 119.371 20.2555C119.75 21.0929 119.993 21.9963 120.092 22.9405C120.264 24.57 119.999 26.3169 119.345 27.8621C118.543 30.1259 116.699 31.988 115.288 33.1524C113.515 34.6189 111.362 35.8546 109.383 36.5443C109.328 36.5636 109.272 36.5847 109.213 36.6058L109.202 36.6106C108.308 36.9355 106.813 37.4801 104.617 37.9373C101.995 38.4841 99.0531 38.7602 95.871 38.7602C95.2512 38.7602 94.6138 38.7488 93.9751 38.729C93.2827 38.7356 89.9547 38.8116 87.6086 39.6328C86.6525 39.9647 85.4801 40.1339 84.1232 40.1339C84.0251 40.1339 83.9262 40.1326 83.8282 40.1313C84.164 40.7462 84.2722 41.5362 84.1627 42.5169C84.0599 43.6264 83.8352 44.3425 83.6858 44.8185C83.6172 45.037 83.5521 45.2432 83.557 45.3157L83.7161 47.6248L83.0466 47.3369C82.9965 48.0662 82.8497 48.988 82.5103 49.6557L82.5055 49.6662C82.2914 50.0803 81.9877 50.4162 81.698 50.6716C81.7239 51.2589 81.6782 51.8558 81.2865 52.3209C81.1516 52.4914 80.9951 52.6391 80.8184 52.7649C80.7542 53.3798 80.6478 53.7935 80.3542 54.1302C80.2377 54.2652 80.0298 54.4687 79.4807 54.8546C79.4271 55.6406 79.3313 57.0376 79.3062 57.7185C79.2728 58.5871 79.1994 60.6466 79.1778 61.2572L79.1453 62.1618L78.3404 62.5179C78.0908 62.6304 77.8569 62.7579 77.6987 62.8559C77.6938 63.0383 77.6978 63.2964 77.7233 63.5522L77.8701 65.0701L76.3456 65.0982C75.8735 65.1088 74.466 65.2283 73.618 65.6438L71.7885 66.5431Z" fill="#FCEB20"/>
</g>
<mask id="mask4_26_431" style="mask-type:luminance" maskUnits="userSpaceOnUse" x="22" y="0" width="104" height="148">
<path d="M125.622 0H22V148H125.622V0Z" fill="white"/>
</mask>
<g mask="url(#mask4_26_431)">
<path d="M48.3939 42.4289C48.3653 28.3689 59.7386 16.9459 73.7987 16.9195C87.8591 16.89 99.2826 28.2682 99.3098 42.3274C99.3371 56.3892 87.9602 67.8051 73.8998 67.8346C59.8406 67.8632 48.4215 56.489 48.3939 42.4289Z" fill="#E2231A"/>
</g>
<mask id="mask5_26_431" style="mask-type:luminance" maskUnits="userSpaceOnUse" x="22" y="0" width="104" height="148">
<path d="M125.622 0H22V148H125.622V0Z" fill="white"/>
</mask>
<g mask="url(#mask5_26_431)">
<path d="M73.8505 17.9719H73.7999C67.2822 17.9842 61.1588 20.5342 56.5586 25.1547C51.9579 29.7742 49.4339 35.9077 49.447 42.4263C49.473 55.8556 60.4177 66.7814 73.843 66.7814H73.8975C87.3545 66.7537 98.2825 55.7848 98.2574 42.3292C98.2306 28.8986 87.2819 17.9719 73.8505 17.9719ZM73.843 68.887C59.2572 68.887 47.3691 57.0182 47.341 42.4311C47.3256 35.3503 50.0695 28.6858 55.0662 23.6693C60.0643 18.6497 66.7156 15.879 73.796 15.8658H73.8505C88.4402 15.8658 100.334 27.7355 100.363 42.3252C100.39 56.9418 88.5215 68.8562 73.9023 68.887H73.843Z" fill="#FCEB20"/>
</g>
<mask id="mask6_26_431" style="mask-type:luminance" maskUnits="userSpaceOnUse" x="22" y="0" width="104" height="148">
<path d="M125.622 0H22V148H125.622V0Z" fill="white"/>
</mask>
<g mask="url(#mask6_26_431)">
<path d="M48.3939 42.4289C48.3653 28.3689 59.7386 16.9459 73.7987 16.9195C87.8591 16.89 99.2826 28.2682 99.3098 42.3274C99.3371 56.3892 87.9602 67.8051 73.8998 67.8346C59.8406 67.8632 48.4215 56.489 48.3939 42.4289Z" fill="#E2231A"/>
</g>
<mask id="mask7_26_431" style="mask-type:luminance" maskUnits="userSpaceOnUse" x="22" y="0" width="104" height="148">
<path d="M125.622 0H22V148H125.622V0Z" fill="white"/>
</mask>
<g mask="url(#mask7_26_431)">
<path d="M91.7727 25.6866L108.574 24.2755L90.8922 24.5665L91.7727 25.6866Z" fill="#100C08"/>
</g>
<mask id="mask8_26_431" style="mask-type:luminance" maskUnits="userSpaceOnUse" x="22" y="0" width="104" height="148">
<path d="M125.622 0H22V148H125.622V0Z" fill="white"/>
</mask>
<g mask="url(#mask8_26_431)">
<path d="M72.2646 19.0045C85.8982 19.0045 96.9484 30.0551 96.9484 43.6879C96.9484 49.3897 95.009 54.637 91.7618 58.8157C95.8469 54.4493 98.3534 48.5844 98.3534 42.1313C98.3534 28.6379 87.4148 17.6993 73.9214 17.6993C68.012 17.6993 62.5955 19.7966 58.3702 23.2869C62.3282 20.5861 67.1113 19.0045 72.2646 19.0045Z" fill="white"/>
</g>
<mask id="mask9_26_431" style="mask-type:luminance" maskUnits="userSpaceOnUse" x="22" y="0" width="104" height="148">
<path d="M125.622 0H22V148H125.622V0Z" fill="white"/>
</mask>
<g mask="url(#mask9_26_431)">
<path d="M91.3234 24.4944L102.472 11.1188L90.6289 23.7427L91.3234 24.4944Z" fill="#100C08"/>
</g>
<mask id="mask10_26_431" style="mask-type:luminance" maskUnits="userSpaceOnUse" x="22" y="0" width="104" height="148">
<path d="M125.622 0H22V148H125.622V0Z" fill="white"/>
</mask>
<g mask="url(#mask10_26_431)">
<path d="M89.6364 22.9594C88.3748 21.809 76.5144 12.3153 76.5144 12.3153C76.5144 12.3153 88.0864 22.5879 89.1871 23.7506L89.6364 22.9594Z" fill="#100C08"/>
</g>
<mask id="mask11_26_431" style="mask-type:luminance" maskUnits="userSpaceOnUse" x="22" y="0" width="104" height="148">
<path d="M125.622 0H22V148H125.622V0Z" fill="white"/>
</mask>
<g mask="url(#mask11_26_431)">
<path d="M89.6685 4.97339L89.8324 23.2345L91.3116 23.802L89.6685 4.97339Z" fill="#100C08"/>
</g>
<mask id="mask12_26_431" style="mask-type:luminance" maskUnits="userSpaceOnUse" x="22" y="0" width="104" height="148">
<path d="M125.622 0H22V148H125.622V0Z" fill="white"/>
</mask>
<g mask="url(#mask12_26_431)">
<path d="M89.7106 7.08435L89.4803 23.1335L77.1812 12.8833L88.1185 24.1208L71.3616 24.6224L88.1185 25.4255L79.9923 34.757L89.0209 26.1288L89.9238 43.0857L90.3265 26.2286L98.8548 33.9547L91.3301 25.3257L107.973 24.2755L91.2294 24.1208L100.637 13.0706L90.6773 23.268L89.7106 7.08435Z" fill="white"/>
</g>
<mask id="mask13_26_431" style="mask-type:luminance" maskUnits="userSpaceOnUse" x="22" y="0" width="104" height="148">
<path d="M125.622 0H22V148H125.622V0Z" fill="white"/>
</mask>
<g mask="url(#mask13_26_431)">
<path d="M64.891 38.954C64.891 38.954 64.92 38.987 65.0449 40.5229C65.1662 42.0592 63.3507 42.3538 63.3507 42.3538C63.3507 42.3538 63.5564 42.8698 63.6536 43.3283C63.8681 44.1868 63.9736 45.0897 64.065 45.2629C64.3288 45.43 64.4927 45.8603 64.6488 46.0511C64.8062 46.2441 65.1363 46.4753 65.1363 46.4753L64.8567 46.5676C64.8567 49.2328 65.3671 49.8034 65.5222 49.9985C65.6779 50.1898 66.55 50.1959 66.8313 50.9929C66.8801 52.2228 67.0309 53.6022 67.0309 53.6022C67.7048 53.7253 68.1325 54.3966 68.1325 54.3966C68.3567 54.6687 68.4609 55.0138 68.5211 55.3971C68.5316 55.5377 68.5967 56.3057 68.6151 56.5198C68.6635 57.0477 68.5316 58.2297 68.5633 59.3845C68.5954 60.6571 68.8319 61.8264 68.8319 61.8264C71.17 62.193 71.4188 64.5734 71.4188 64.5734C72.7551 63.9263 74.7486 63.8867 74.7486 63.8867C74.7486 63.8867 74.6348 62.7293 74.826 62.3429C75.0163 61.9517 76.19 61.4312 76.19 61.4312C76.19 61.4312 76.2824 58.8632 76.3228 57.8666C76.3637 56.8657 76.5426 54.4168 76.5426 54.4168C76.5426 54.4168 76.5457 54.2818 76.6947 54.1777C77.0362 53.9442 77.6081 53.5517 77.711 53.4101C77.8583 53.2625 77.8991 52.0189 77.8991 52.0189C77.8991 52.0189 78.3607 51.9793 78.628 51.6237C78.8218 51.4175 78.6451 50.1933 78.6451 50.1933C78.6451 50.1933 79.3779 49.8135 79.6799 49.2152C79.985 48.6143 80.1054 47.4877 80.0817 46.8072C80.0707 46.128 79.6786 46.1685 79.4957 46.2155C79.4412 46.5179 78.7185 47.5624 78.6622 46.5676C78.6113 45.5741 79.4605 44.9627 79.4605 44.9627C79.8148 45.284 80.574 45.6124 80.574 45.6124C80.5296 44.8761 81.0272 44.3565 81.1855 42.5788C81.3648 41.0122 80.7802 40.737 80.705 40.6346C80.6333 40.537 79.8228 40.2785 79.2267 40.602C78.6174 41.1594 78.5757 40.3743 78.7387 40.0688C78.9089 39.7594 80.4632 39.6666 80.4632 39.6666C80.6017 39.2086 80.4008 38.7778 80.4008 38.7778C80.4008 38.7778 83.4234 39.2472 85.5725 38.5004C87.89 37.6907 91.0514 37.5285 92.4133 37.5166" fill="#100C08"/>
</g>
<mask id="mask14_26_431" style="mask-type:luminance" maskUnits="userSpaceOnUse" x="22" y="0" width="104" height="148">
<path d="M125.622 0H22V148H125.622V0Z" fill="white"/>
</mask>
<g mask="url(#mask14_26_431)">
<path d="M74.127 30.863C74.127 30.863 75.2998 29.5157 77.2775 29.543C79.5475 29.5883 80.8812 31.0617 80.8812 31.0617C80.8812 31.0617 82.1226 30.0116 82.6598 30.027C83.1961 30.0494 83.0673 29.7755 86.9919 30.1909C88.8214 30.3905 90.9648 30.5707 92.8743 30.9299C93.2124 30.9967 99.0136 31.2877 100.014 31.1132C100.719 30.987 104.509 30.5865 105.375 30.3716C110.844 29.008 112.685 26.538 112.685 26.538C112.685 26.538 114.491 25.0412 113.771 22.289C112.816 18.6664 105.718 17.4971 105.718 17.4971C105.718 17.4971 113.986 12.79 118.342 20.2542C118.712 20.8845 118.893 21.6164 119.103 22.5004C119.379 23.6543 119.248 25.501 118.61 27.4185C117.273 31.4837 112.991 33.7326 111.755 34.4351C106.852 37.2155 100.102 37.6379 99.7068 37.7148C98.8848 37.8797 93.1363 37.8234 92.7996 37.8361C91.3754 37.91 89.9731 38.1034 88.8456 38.3544C87.6912 38.6138 86.8187 38.9325 86.2995 39.0573C85.0291 39.3395 83.0396 39.2252 82.5644 39.1663C82.5644 39.2147 82.5415 39.478 82.3881 39.9022C83.6159 40.6275 83.2066 42.5999 83.2066 42.5999C83.2066 42.5999 83.0563 43.9644 82.6703 44.9231C82.5327 45.2647 82.6866 46.2137 82.6866 46.2137C82.6866 46.2137 81.9534 45.8761 81.9767 45.9152C82.3226 46.5109 81.9767 48.3092 81.9432 48.3725C81.8566 48.8072 81.6856 49.6416 80.7269 50.2495C80.719 50.2552 80.8302 51.1669 80.6816 51.5067C80.5397 51.927 79.9686 52.2008 79.9216 52.2039C79.8908 53.0664 79.7238 53.3917 79.6895 53.4567C79.591 53.6646 78.5769 54.3469 78.5769 54.3469C78.5769 54.3469 78.2195 61.4655 78.2244 61.5626C78.1914 61.5951 76.9549 62.0914 76.794 62.4163C76.6867 63.0647 76.9109 64.1944 76.8524 64.1944C75.2563 64.1518 73.5964 64.5245 72.4935 65.1641C72.4562 62.0703 70.0235 62.1257 69.8982 62.0809C69.5461 60.7951 69.598 58.7449 69.5501 58.6253C69.4995 58.5058 69.936 55.1808 69.1083 54.3139C69.0208 54.2154 68.6406 53.837 68.0828 53.8484C67.9285 53.4343 67.8682 51.3516 67.7948 50.8157C67.637 50.4926 66.5869 50.3511 66.5451 49.9827C66.2985 49.8025 65.8638 48.9312 65.8519 46.2801C65.6273 46.0278 65.4497 45.637 65.338 45.5315C65.2817 45.4664 65.2189 45.451 65.1907 45.4181C64.9455 45.1587 64.7301 42.9362 64.1366 41.7607C64.0892 41.6794 64.1775 41.7348 64.3213 41.7159C66.244 41.442 66.0172 40.4024 66.0172 40.4024C66.0172 40.4024 65.9525 39.2613 65.9429 39.2556C65.931 39.2476 63.8382 39.0648 63.5335 39.0349C62.8601 38.961 61.4697 38.4876 60.3074 38.2304C58.5267 37.8326 55.0113 37.9386 55.0113 37.9386C55.0113 37.9386 51.358 38.132 49.4106 37.9926C46.174 37.8599 43.8538 37.3174 43.2288 37.2278C40.7179 36.8774 37.0953 35.2127 36.8122 35.1222C35.4701 34.6676 32.3311 32.2671 31.7438 31.7211C29.7239 29.8349 29.0324 27.757 29.0324 27.757C29.0324 27.757 28.0649 25.6012 28.3564 23.1453C29.1006 18.3776 32.9597 17.0259 33.408 16.8505C37.5986 15.3656 41.5087 17.64 41.6476 17.6725C41.5214 17.8602 34.3747 18.8853 33.663 23.0943C33.6283 23.4341 33.0674 25.8413 36.2609 28.0849C36.7467 28.4238 40.0018 30.7167 46.3252 31.2406C47.4101 31.4569 54.7344 31.2371 56.0439 30.8569C56.4672 30.7325 64.3419 29.9549 65.0795 30.0182C65.6901 30.0652 66.5047 30.3729 66.6172 30.5778C68.4577 29.6537 69.496 29.5948 70.133 29.5803C72.4874 29.5395 74.127 30.863 74.127 30.863Z" fill="white"/>
</g>
<mask id="mask15_26_431" style="mask-type:luminance" maskUnits="userSpaceOnUse" x="22" y="0" width="104" height="148">
<path d="M125.622 0H22V148H125.622V0Z" fill="white"/>
</mask>
<g mask="url(#mask15_26_431)">
<path d="M116.654 18.7614C112.834 14.8865 107.367 17.3306 107.367 17.3306C112.969 18.7152 113.931 20.9061 114.422 22.4095C114.728 24.1999 114.34 26.3767 111.548 28.3056C108.68 30.522 103.972 31.3436 101.145 31.5849C98.0289 31.919 92.8743 31.5365 91.353 31.2486C89.8333 30.9616 85.7575 30.6389 84.6137 30.533C83.4708 30.4328 82.542 30.3519 81.7094 31.1677C80.9067 31.8763 80.6975 31.639 80.6975 31.639C80.6975 31.639 79.3268 29.9514 77.2261 30.1171C75.1178 30.2815 75.0321 31.031 74.447 31.3141C74.1618 31.4838 74.1116 31.4768 73.8716 31.3071C73.6281 31.1431 72.3524 30.3567 71.0033 30.151C68.7259 29.9431 66.5244 31.2297 66.5244 31.2297C66.4009 30.7326 65.0835 30.4552 63.9419 30.58C62.8056 30.704 58.666 30.9501 57.1473 31.2622C55.6329 31.5792 49.7333 32.0654 46.6166 31.7849C43.7818 31.5955 39.0602 30.7853 36.1493 28.6248C33.3258 26.7451 32.9052 24.5744 33.1764 22.7809C33.6401 21.2657 34.5615 19.0634 40.1394 17.5789C40.1394 17.5789 34.6305 15.2289 30.8782 19.168C28.3946 21.7765 28.5449 25.3292 29.658 27.7799C30.8695 31.1075 35.4653 34.2989 39.0984 35.4849C40.8493 36.0805 45.4992 37.9109 54.621 37.4445C55.9868 37.4331 59.5113 37.3118 61.8433 38.0846C64.0052 38.7897 66.4616 38.7483 66.4616 38.7483C66.4616 38.7483 66.4932 38.7897 66.6168 40.3278C66.7381 41.8606 64.9222 42.1573 64.9222 42.1573C64.9222 42.1573 65.1266 42.6729 65.2233 43.1239C65.4378 43.9886 65.5503 44.8928 65.636 45.0629C65.9024 45.2309 66.0642 45.6603 66.2211 45.8542C66.3789 46.0441 66.7069 46.2727 66.7069 46.2727L66.4304 46.3685C66.4304 49.035 66.9381 49.6047 67.095 49.7964C67.2493 49.9867 68.1236 49.9951 68.401 50.7911C68.4542 52.0255 68.6023 53.4049 68.6023 53.4049C69.278 53.5245 69.7053 54.1935 69.7053 54.1935C69.9334 54.4687 70.0328 54.8182 70.0917 55.2002C70.1044 55.3342 70.1712 56.1044 70.1923 56.3242C70.2332 56.849 70.1044 58.0262 70.1325 59.185C70.1668 60.4532 70.4042 61.6233 70.4042 61.6233C72.7445 61.9878 72.9973 64.3786 72.9973 64.3786C74.3297 63.7241 76.3188 63.6885 76.3188 63.6885C76.3188 63.6885 76.2058 62.5302 76.3966 62.1394C76.5926 61.7513 77.7672 61.229 77.7672 61.229C77.7672 61.229 77.8591 58.6641 77.8978 57.6662C77.9342 56.6657 78.1127 54.2155 78.1127 54.2155C78.1127 54.2155 78.1206 54.0827 78.2705 53.9728C78.6103 53.7482 79.1791 53.3495 79.2864 53.2071C79.4249 53.0607 79.4719 51.8154 79.4719 51.8154C79.4719 51.8154 79.9295 51.778 80.1981 51.4246C80.3985 51.2175 80.2214 49.9951 80.2214 49.9951C80.2214 49.9951 80.9476 49.6153 81.2527 49.0192C81.5577 48.4174 81.6747 47.2855 81.6588 46.609C81.6417 45.9324 81.2509 45.9676 81.0645 46.0155C81.0157 46.3202 80.2878 47.3642 80.2377 46.3685C80.1823 45.3729 81.0368 44.761 81.0368 44.761C81.3902 45.0845 82.1498 45.412 82.1498 45.412C82.0993 44.6735 82.5982 44.1552 82.7604 42.3736C82.9402 40.8109 82.3543 40.5348 82.2835 40.4407C82.2044 40.3414 81.3951 40.0807 80.8025 40.4025C80.1849 40.9608 80.1475 40.1721 80.3128 39.8614C80.4777 39.5607 82.0356 39.4649 82.0356 39.4649C82.1784 39.0046 81.9745 38.5751 81.9745 38.5751C81.9745 38.5751 84.9966 39.0481 87.1431 38.3013C89.4658 37.4881 92.6269 37.3289 93.9926 37.3175C102.668 37.6041 107.124 35.8616 108.911 35.2159C112.522 33.9608 116.87 30.6921 118.03 27.3517C119.091 24.876 119.186 21.3233 116.654 18.7614Z" fill="#100C08"/>
</g>
<mask id="mask16_26_431" style="mask-type:luminance" maskUnits="userSpaceOnUse" x="22" y="0" width="104" height="148">
<path d="M125.622 0H22V148H125.622V0Z" fill="white"/>
</mask>
<g mask="url(#mask16_26_431)">
<path d="M88.6337 35.6765C88.3295 35.3314 87.5936 34.7274 87.1123 34.687L87.3053 32.9322C87.3053 32.9322 86.2608 32.3299 84.524 31.8833C82.9824 31.4358 82.9824 31.5659 82.665 31.7198C81.7758 32.3528 80.9986 32.5484 80.9986 32.5484C80.9986 32.5484 79.6455 30.951 77.7835 30.8099C76.805 30.7378 75.9254 31.0209 75.4396 31.3725C74.8567 31.7906 74.5591 32.0592 74.5591 32.0592C74.5591 32.0592 74.3266 32.3418 73.6123 32.0425C72.8729 31.7422 72.0223 30.4912 69.4657 30.8485C67.3676 31.4648 66.4581 32.0548 66.4581 32.0548C66.4581 32.0548 66.2655 31.1883 64.9841 31.1945C63.7054 31.2006 62.2556 31.249 61.9497 31.3141C61.6525 31.3844 61.1303 31.6684 61.0015 31.6917C60.8714 31.7101 61.3985 32.8126 60.9224 33.4874C60.6666 33.8803 60.8191 34.1357 60.318 34.1186C60.318 34.1186 59.2155 34.0997 59.132 34.9433C59.1157 35.8347 60.5255 36.3046 61.1681 34.5503C61.1681 34.5503 61.8231 36.2348 62.559 36.4286C63.468 36.5939 64.3538 35.2268 64.5683 35.1156C64.5683 35.1156 63.6016 36.8519 64.105 37.4994C64.7094 37.8432 65.4694 37.91 65.5974 37.7553C65.724 37.6001 66.1332 36.8616 66.0242 36.066C66.0242 36.066 66.5688 36.4967 66.8691 36.1011C67.1711 35.7112 67.248 34.0215 67.248 34.0215C67.248 34.0215 67.6155 33.9546 67.6225 34.7793C67.6269 35.5982 67.6489 36.2299 67.6489 36.2299C67.6489 36.2299 67.15 36.1671 67.0853 36.4915C67.0256 36.815 67.1328 37.0102 67.1328 37.0102L67.6089 36.9627C67.6089 36.9627 67.7619 37.2673 67.1377 37.6181C67.1377 37.6181 67.7733 39.3272 67.3223 40.5875C66.8537 42.0126 65.902 42.217 65.902 42.217C65.902 42.217 66.2119 43.7714 66.2119 44.1191C66.2137 44.469 66.7574 44.92 66.8897 45.2444C67.0853 45.5645 67.2594 45.8484 67.2594 45.8484C67.2594 45.8484 66.6506 44.6594 66.5587 43.6835C66.4664 42.7142 67.353 42.3792 68.5215 42.0509C68.5215 42.0509 69.0868 42.0289 69.3628 42.1572C69.6499 42.286 70.0631 42.4364 70.0631 42.4364C70.0631 42.4364 70.5396 42.8426 70.5607 42.9964C70.5871 43.1459 70.7409 44.2699 70.7229 44.5732C70.6794 44.88 70.3123 45.0295 70.3123 45.0295C70.3123 45.0295 70.5378 47.2419 70.5158 47.5637C70.4987 47.8868 70.4794 47.9773 70.4794 47.9773C70.4794 47.9773 70.2815 47.9338 70.1712 47.8279C70.064 47.7241 70.0407 47.8081 70.0407 47.8081C70.0407 47.8081 69.9167 48.5637 69.289 48.9356C69.289 48.9356 69.1114 48.6134 68.9641 48.5035C68.8116 48.3976 68.5527 48.1822 67.8722 46.9522C67.8722 46.9522 67.6317 46.5597 67.2432 46.63C67.2432 46.63 67.2489 48.0178 67.5794 48.7716C67.9693 49.3532 68.2269 49.0903 68.4709 49.6112C68.645 49.9994 68.9276 50.239 69.0393 50.8671C69.2582 51.6861 69.4586 52.8549 69.4586 52.8549C69.4586 52.8549 70.4591 53.5996 70.7014 54.1025C70.8521 54.4229 70.9436 54.8889 70.9414 55.5636C70.9414 55.5781 70.8583 59.8592 70.9607 60.4417C71.0091 60.741 71.1242 60.9125 71.1242 60.9125C71.1242 60.9125 72.4773 60.9811 73.4356 63.3777L75.3728 62.9587C75.3728 62.9587 75.3526 62.7486 75.4238 62.4321C75.5403 61.9024 75.9561 61.349 76.0902 61.2263C76.2726 61.0633 76.9368 60.8694 76.9368 60.8694C76.9368 60.8694 77.0687 60.8887 77.0854 60.6536C77.0854 60.6536 77.2252 55.8744 77.2111 55.674L77.3272 53.9706C77.3272 53.9706 77.8912 53.6383 78.4055 52.9631C78.7294 52.7046 78.7457 51.5784 78.7457 51.5784L79.3967 51.6632C79.3967 51.6632 79.7242 51.7037 79.4095 49.6693C79.4095 49.6693 79.8192 49.5374 80.552 48.4951L80.6539 47.3039L78.8855 48.9356C78.8855 48.9356 78.0578 48.0081 78.0349 47.9C78.0129 47.7914 77.8406 47.4239 77.9342 45.2374L77.6542 44.8871L77.6296 44.7156L77.8665 44.3459C77.8665 44.3459 78.2081 42.7428 78.4209 42.4843C78.6389 42.2241 79.4161 42.0443 80.4341 42.3643C81.5208 42.7691 81.7445 44.247 81.7445 44.247C81.7445 44.247 82.0101 44.058 82.0219 42.7331C82.0698 42.2337 81.9815 41.5541 81.9815 41.5541C81.9815 41.5541 81.9573 41.0596 81.2896 41.0873C80.9208 41.1717 80.7581 41.5168 80.213 41.2627C79.7374 41.199 79.6688 41.3075 79.4271 40.5057C79.3387 39.6631 80.3106 39.2477 80.959 39.0727L81.0263 38.5324C81.0263 38.5324 80.1977 37.6427 80.1273 37.1447L80.4983 37.1218C80.4983 37.1218 79.6684 35.3059 80.5704 34.2896C80.5704 34.2896 80.3445 36.6229 81.599 36.4655L81.9494 37.4827C81.9494 37.4827 82.7758 37.9975 82.8184 38.1047C82.8184 38.1047 83.2769 38.1733 84.1183 38.0392C84.3143 37.7311 83.9662 37.6454 83.6176 37.455C83.0954 37.1785 82.9437 36.6357 83.3521 36.1539C83.3521 36.1539 83.8554 36.8919 84.7895 37.2757C86.2384 37.2449 86.125 36.8361 86.125 36.8361L86.2762 36.3192C86.2762 36.3192 86.1909 35.7538 86.449 35.4492L87.322 36.8321C87.322 36.8321 87.6244 36.6343 87.7752 36.6132C87.9268 36.5891 88.81 36.437 88.81 36.437C88.81 36.437 88.9449 36.0246 88.6337 35.6765Z" fill="white"/>
</g>
<mask id="mask17_26_431" style="mask-type:luminance" maskUnits="userSpaceOnUse" x="22" y="0" width="104" height="148">
<path d="M125.622 0H22V148H125.622V0Z" fill="white"/>
</mask>
<g mask="url(#mask17_26_431)">
<path d="M73.7525 34.4303C73.7525 34.4303 73.7499 32.7942 73.7837 32.6751C73.814 32.5524 73.923 32.4144 74.0848 32.4285C74.2417 32.4491 74.3666 32.7432 74.3666 32.7432C74.3666 32.7432 74.2237 33.64 74.1908 33.7609C74.1573 33.8804 74.065 34.1538 73.7525 34.4303Z" fill="#100C08"/>
</g>
<mask id="mask18_26_431" style="mask-type:luminance" maskUnits="userSpaceOnUse" x="22" y="0" width="104" height="148">
<path d="M125.622 0H22V148H125.622V0Z" fill="white"/>
</mask>
<g mask="url(#mask18_26_431)">
<path d="M73.8299 44.0629C73.8299 44.0629 73.5859 46.9698 73.5424 47.1417C73.5006 47.3118 73.9517 47.2235 73.9517 47.2235C73.9517 47.2235 74.4695 46.3109 74.557 46.1843C74.6427 46.0511 74.6365 45.9676 74.5112 45.6849C74.3811 45.4032 73.8299 44.0629 73.8299 44.0629Z" fill="#100C08"/>
</g>
<mask id="mask19_26_431" style="mask-type:luminance" maskUnits="userSpaceOnUse" x="22" y="0" width="104" height="148">
<path d="M125.622 0H22V148H125.622V0Z" fill="white"/>
</mask>
<g mask="url(#mask19_26_431)">
<path d="M74.0694 47.8319L74.4576 47.8526C74.4576 47.8526 74.2549 49.7357 74.2571 50.2997C74.2571 50.8633 74.2207 51.6444 74.2207 51.6444H73.9165C73.9165 51.6444 73.5635 50.3006 73.5635 50.2202C73.5635 50.13 74.0549 48.9797 74.0549 48.9797L74.0694 47.8319Z" fill="#100C08"/>
</g>
<mask id="mask20_26_431" style="mask-type:luminance" maskUnits="userSpaceOnUse" x="22" y="0" width="104" height="148">
<path d="M125.622 0H22V148H125.622V0Z" fill="white"/>
</mask>
<g mask="url(#mask20_26_431)">
<path d="M73.6189 52.9881C73.6189 52.9881 73.967 52.8787 74.0527 52.9011C74.1349 52.9231 74.1815 52.9842 74.1815 52.9842L74.1894 54.9355C74.1894 54.9355 74.2585 55.3667 74.3424 55.4749C74.4334 55.5839 74.8216 55.7316 74.909 55.9689C75.0005 56.2081 75.153 57.0934 74.9596 57.7923C74.7033 58.8728 74.2958 59.0711 74.3424 59.523C74.3846 59.9815 74.6479 60.7811 74.6519 61.0628C74.6519 61.0628 74.5002 61.2554 74.0897 61.1507C73.96 61.0008 73.6782 61.0233 73.6782 61.0233C73.6782 61.0233 73.8681 59.8087 73.7556 59.1827C73.6857 58.6636 73.105 58.9484 73.105 58.9484L73.0931 56.0868C73.0931 56.0868 72.9832 55.8476 73.327 55.6753C73.6738 55.5003 73.782 55.4788 73.782 55.4788L73.6189 52.9881Z" fill="#100C08"/>
</g>
<mask id="mask21_26_431" style="mask-type:luminance" maskUnits="userSpaceOnUse" x="22" y="0" width="104" height="148">
<path d="M125.622 0H22V148H125.622V0Z" fill="white"/>
</mask>
<g mask="url(#mask21_26_431)">
<path d="M75.3174 36.5416C75.3174 36.5416 75.7777 36.124 75.7895 36.0541C75.7996 35.982 75.5627 35.5943 75.1684 35.4211C74.7706 35.2448 74.5569 35.3886 74.5569 35.3886C74.5569 35.3886 73.9705 36.4273 73.6677 36.5482C73.0549 36.3447 72.6641 35.8479 72.3019 35.4602C71.9366 35.0743 70.784 33.8646 70.784 33.8646L70.6385 33.7802C70.6385 33.7802 70.6596 34.3551 70.6952 35.062C70.7159 35.4255 70.7748 35.8712 70.8016 36.2357C70.8464 36.8871 70.8592 37.4102 70.8825 37.4428C70.9326 37.5232 71.6557 38.2555 71.6557 38.2555C71.6557 38.2555 71.7388 38.3518 71.6601 38.3971C71.5858 38.4406 71.0772 39.0266 70.6961 39.0626C70.2666 39.1519 69.8965 39.0204 69.8336 38.9773L69.8631 39.2424C69.8631 39.2424 70.2165 40.3625 70.3457 40.5264C70.4789 40.6948 70.5233 40.555 70.6385 40.69C70.8702 40.8139 70.8578 41.3577 70.8578 41.3577L72.6971 41.2526L73.2518 39.8635C73.2518 39.8635 73.8351 39.7998 73.9362 39.7677C74.0369 39.7427 74.6343 39.6974 74.7482 39.7128C74.8624 39.7229 75.0198 40.0728 75.1381 40.1374C75.1891 40.1787 75.3636 40.0803 75.502 39.9756C75.6423 39.8772 76.6067 39.4534 76.8502 39.4187C76.9861 39.3585 78.1316 37.5707 78.645 37.1794C78.645 37.1794 77.9087 37.3056 77.4173 37.43C76.9232 37.55 75.9078 37.5417 75.8062 37.5289C75.5535 37.5047 75.2102 37.4291 75.2102 37.4291C75.2102 37.4291 75.2273 37.004 75.3174 36.5416Z" fill="#E2231A"/>
</g>
<mask id="mask22_26_431" style="mask-type:luminance" maskUnits="userSpaceOnUse" x="22" y="0" width="104" height="148">
<path d="M125.622 0H22V148H125.622V0Z" fill="white"/>
</mask>
<g mask="url(#mask22_26_431)">
<path d="M68.8459 46.6854C68.8459 46.6854 69.3852 46.572 69.2292 45.9267C68.9465 45.3223 68.408 45.4994 68.2775 45.95C68.1496 46.4067 68.4344 46.794 68.8459 46.6854Z" fill="white"/>
</g>
<mask id="mask23_26_431" style="mask-type:luminance" maskUnits="userSpaceOnUse" x="22" y="0" width="104" height="148">
<path d="M125.622 0H22V148H125.622V0Z" fill="white"/>
</mask>
<g mask="url(#mask23_26_431)">
<path d="M79.0227 45.4463C79.0227 45.4463 78.4996 45.5566 78.8292 46.3351C79.2218 46.6156 79.6077 46.2239 79.5462 46.009C79.5229 45.79 79.5018 45.5087 79.0227 45.4463Z" fill="white"/>
</g>
<mask id="mask24_26_431" style="mask-type:luminance" maskUnits="userSpaceOnUse" x="22" y="0" width="104" height="148">
<path d="M125.622 0H22V148H125.622V0Z" fill="white"/>
</mask>
<g mask="url(#mask24_26_431)">
<path d="M43.3026 31.8126C43.3026 31.8126 47.6659 33.4404 58.5764 31.8289C58.5764 31.8289 58.9157 35.2286 55.3859 35.6344C52.3782 35.997 49.0163 34.8875 48.2774 34.6062C46.5837 34.029 43.6767 32.6566 43.3026 31.8126Z" fill="white"/>
</g>
<mask id="mask25_26_431" style="mask-type:luminance" maskUnits="userSpaceOnUse" x="22" y="0" width="104" height="148">
<path d="M125.622 0H22V148H125.622V0Z" fill="white"/>
</mask>
<g mask="url(#mask25_26_431)">
<path d="M99.2993 34.4497C98.5503 34.7104 95.1668 35.7548 92.1653 35.3337C88.6482 34.8576 89.0566 31.4667 89.0566 31.4667C99.9319 33.298 104.327 31.7603 104.327 31.7603C103.933 32.5942 100.998 33.9072 99.2993 34.4497Z" fill="white"/>
</g>
<mask id="mask26_26_431" style="mask-type:luminance" maskUnits="userSpaceOnUse" x="22" y="0" width="104" height="148">
<path d="M125.622 0H22V148H125.622V0Z" fill="white"/>
</mask>
<g mask="url(#mask26_26_431)">
<path d="M117.709 57.5098L84.4946 64.2996L84.5004 60.1407L79.8298 61.0981L79.8333 65.26L45.0878 72.4305L45.0724 68.2598L30.1104 71.3707V88.8204L62.4373 82.1682L62.4562 73.4842L67.1267 72.5211L67.1452 81.1927L117.71 70.7676L117.709 57.5098ZM45.0606 81.0213L34.9277 83.1181L34.9009 75.2223L45.1006 73.0925L45.0606 81.0213ZM87.6526 72.3105L84.492 72.9475L84.5276 68.9345L87.6565 68.2954L87.6526 72.3105ZM109.612 67.7784L109.624 63.8182L113.013 63.1127L113.032 67.0716L109.612 67.7784Z" fill="#100C08"/>
</g>
<mask id="mask27_26_431" style="mask-type:luminance" maskUnits="userSpaceOnUse" x="22" y="0" width="104" height="148">
<path d="M125.622 0H22V148H125.622V0Z" fill="white"/>
</mask>
<g mask="url(#mask27_26_431)">
<path d="M117.709 57.5098L84.4946 64.2996L84.5003 60.1407L79.8298 61.0981L79.8333 65.26L45.0878 72.4305L45.0724 68.2598L30.1104 71.3707V88.8204L62.4373 82.1682L62.4562 73.4842L67.1267 72.5211L67.1452 81.1927L117.71 70.7676L117.709 57.5098ZM45.0606 81.0213L34.9277 83.1181L34.9009 75.2223L45.1006 73.0925L45.0606 81.0213ZM87.6526 72.3105L84.492 72.9475L84.5276 68.9345L87.6565 68.2954L87.6526 72.3105ZM109.612 67.7784L109.624 63.8182L113.013 63.1127L113.032 67.0716L109.612 67.7784Z" stroke="#100C08" stroke-width="0.0764874" stroke-miterlimit="10"/>
</g>
<mask id="mask28_26_431" style="mask-type:luminance" maskUnits="userSpaceOnUse" x="22" y="0" width="104" height="148">
<path d="M125.622 0H22V148H125.622V0Z" fill="white"/>
</mask>
<g mask="url(#mask28_26_431)">
<path d="M67.7407 68.4347L67.7376 71.7021C67.7376 71.7021 74.7305 70.2612 75.5631 70.0897C75.5631 70.4506 75.5627 70.7087 75.5627 71.0709C74.7297 71.2428 67.7368 72.6855 67.7368 72.6855L67.7297 80.3694L79.1268 78.0062L79.1272 66.0913L67.7407 68.4347ZM75.8211 74.2798C75.8211 74.679 75.8207 75.0285 75.8203 75.4267C75.0976 75.5766 71.7554 76.2663 71.0341 76.4171C71.0341 76.018 71.0341 75.6689 71.035 75.2707C71.7568 75.1203 75.0989 74.4302 75.8211 74.2798Z" fill="white"/>
</g>
<mask id="mask29_26_431" style="mask-type:luminance" maskUnits="userSpaceOnUse" x="22" y="0" width="104" height="148">
<path d="M125.622 0H22V148H125.622V0Z" fill="white"/>
</mask>
<g mask="url(#mask29_26_431)">
<path d="M92.8669 63.2744L92.8633 66.5339C92.8633 66.5339 99.858 65.1013 100.694 64.9286C100.692 65.2921 100.692 65.5488 100.692 65.9093C99.8567 66.0799 92.8625 67.5129 92.8625 67.5129L92.855 75.1726L104.254 72.8261V60.9464L92.8669 63.2744ZM100.949 69.1081C100.948 69.5055 100.948 69.8532 100.947 70.2519C100.223 70.401 96.8833 71.0863 96.1606 71.2348C96.1606 70.8379 96.1615 70.4876 96.1615 70.0906C96.8846 69.942 100.224 69.2576 100.949 69.1081Z" fill="white"/>
</g>
<mask id="mask30_26_431" style="mask-type:luminance" maskUnits="userSpaceOnUse" x="22" y="0" width="104" height="148">
<path d="M125.622 0H22V148H125.622V0Z" fill="white"/>
</mask>
<g mask="url(#mask30_26_431)">
<path d="M30.6735 88.0946L44.3766 85.2303L44.3915 81.8147C44.3915 81.8147 34.9686 83.7805 34.1092 83.959C34.1101 83.1444 34.1176 75.4649 34.1176 74.6491C34.977 74.4715 44.3027 72.5364 44.3027 72.5364L44.3005 69.109L30.6884 71.9241L30.6735 88.0946Z" fill="white"/>
</g>
<mask id="mask31_26_431" style="mask-type:luminance" maskUnits="userSpaceOnUse" x="22" y="0" width="104" height="148">
<path d="M125.622 0H22V148H125.622V0Z" fill="white"/>
</mask>
<g mask="url(#mask31_26_431)">
<path d="M45.6826 72.9922L45.6799 76.2684C45.6799 76.2684 52.6759 74.8178 53.5098 74.645C53.5093 75.0077 53.5093 75.2675 53.5093 75.6306C52.675 75.8038 45.6786 77.2535 45.6786 77.2535L45.6711 84.959L57.0713 82.5843V70.6343L45.6826 72.9922ZM53.7669 78.8488C53.7665 79.2461 53.7661 79.5978 53.7661 79.9974C53.0412 80.1508 49.699 80.844 48.9755 80.9935C48.9759 80.5943 48.9759 80.244 48.9764 79.8435C49.7004 79.6923 53.0425 78.9991 53.7669 78.8488Z" fill="white"/>
</g>
<mask id="mask32_26_431" style="mask-type:luminance" maskUnits="userSpaceOnUse" x="22" y="0" width="104" height="148">
<path d="M125.622 0H22V148H125.622V0Z" fill="white"/>
</mask>
<g mask="url(#mask32_26_431)">
<path d="M58.3908 70.3622L58.3552 82.3167L61.6609 81.6274C61.6609 81.6274 61.6684 73.7932 61.6692 72.9562C62.4376 72.798 66.4418 71.9693 66.4418 71.9693L66.4545 68.6989L58.3908 70.3622Z" fill="white"/>
</g>
<mask id="mask33_26_431" style="mask-type:luminance" maskUnits="userSpaceOnUse" x="22" y="0" width="104" height="148">
<path d="M125.622 0H22V148H125.622V0Z" fill="white"/>
</mask>
<g mask="url(#mask33_26_431)">
<path d="M80.4263 61.6694L80.4381 77.7349L91.5701 75.4363L91.5719 63.5324C91.5719 63.5324 84.5566 64.976 83.7196 65.1457C83.7209 64.4111 83.724 60.9929 83.724 60.9929L80.4263 61.6694ZM88.2728 67.4684C88.2719 68.2038 88.2684 72.1245 88.268 72.859C87.5537 73.0045 84.4432 73.6472 83.7311 73.7949C83.7324 73.0577 83.7354 69.1371 83.7363 68.4008C84.448 68.2526 87.5585 67.6135 88.2728 67.4684Z" fill="white"/>
</g>
<mask id="mask34_26_431" style="mask-type:luminance" maskUnits="userSpaceOnUse" x="22" y="0" width="104" height="148">
<path d="M125.622 0H22V148H125.622V0Z" fill="white"/>
</mask>
<g mask="url(#mask34_26_431)">
<path d="M105.552 60.6822L105.541 72.5619L116.927 70.2273L116.938 58.3621L105.552 60.6822ZM113.625 62.288C113.624 63.0208 113.621 66.9207 113.62 67.6535C112.897 67.803 109.563 68.4861 108.84 68.6316C108.84 67.8992 108.844 63.9962 108.845 63.2638C109.568 63.1153 112.902 62.437 113.625 62.288Z" fill="white"/>
</g>
<mask id="mask35_26_431" style="mask-type:luminance" maskUnits="userSpaceOnUse" x="22" y="0" width="104" height="148">
<path d="M125.622 0H22V148H125.622V0Z" fill="white"/>
</mask>
<g mask="url(#mask35_26_431)">
<path d="M93.8216 82.2437L76.7258 85.6869L76.7715 94.3761L73.3507 95.083L73.3331 86.363L68.7764 87.2839L68.761 83.1127L53.7998 86.2241V103.673L93.822 95.5028L93.8216 82.2437ZM68.6485 96.0096L58.5161 98.1069L58.4888 90.2111L68.6889 88.0826L68.6485 96.0096ZM89.1436 91.8877L85.9834 92.5259L86.019 88.513L89.148 87.8738L89.1436 91.8877Z" fill="#100C08"/>
</g>
<mask id="mask36_26_431" style="mask-type:luminance" maskUnits="userSpaceOnUse" x="22" y="0" width="104" height="148">
<path d="M125.622 0H22V148H125.622V0Z" fill="white"/>
</mask>
<g mask="url(#mask36_26_431)">
<path d="M93.8216 82.2437L76.7258 85.6869L76.7715 94.3761L73.3507 95.083L73.3331 86.363L68.7764 87.2839L68.761 83.1127L53.7998 86.2241V103.673L93.822 95.5028L93.8216 82.2437ZM68.6485 96.0096L58.5161 98.1069L58.4888 90.2111L68.6889 88.0826L68.6485 96.0096ZM89.1436 91.8877L85.9834 92.5259L86.019 88.513L89.148 87.8738L89.1436 91.8877Z" stroke="#100C08" stroke-width="0.0764874" stroke-miterlimit="10"/>
</g>
<mask id="mask37_26_431" style="mask-type:luminance" maskUnits="userSpaceOnUse" x="22" y="0" width="104" height="148">
<path d="M125.622 0H22V148H125.622V0Z" fill="white"/>
</mask>
<g mask="url(#mask37_26_431)">
<path d="M86.001 97.0585L81.3401 98.0203L81.334 102.178L86.0045 101.221L86.001 97.0585Z" fill="#100C08"/>
</g>
<mask id="mask38_26_431" style="mask-type:luminance" maskUnits="userSpaceOnUse" x="22" y="0" width="104" height="148">
<path d="M125.622 0H22V148H125.622V0Z" fill="white"/>
</mask>
<g mask="url(#mask38_26_431)">
<path d="M86.001 97.0585L81.3401 98.0203L81.334 102.178L86.0045 101.221L86.001 97.0585Z" stroke="#100C08" stroke-width="0.0764874" stroke-miterlimit="10"/>
</g>
<mask id="mask39_26_431" style="mask-type:luminance" maskUnits="userSpaceOnUse" x="22" y="0" width="104" height="148">
<path d="M125.622 0H22V148H125.622V0Z" fill="white"/>
</mask>
<g mask="url(#mask39_26_431)">
<path d="M54.2618 102.969L67.965 100.104L67.9799 96.6888C67.9799 96.6888 58.5566 98.6547 57.6972 98.8336C57.6976 98.0199 57.7051 90.3386 57.706 89.5241C58.5654 89.3461 67.8907 87.411 67.8907 87.411L67.888 83.9832L54.2763 86.8L54.2618 102.969Z" fill="white"/>
</g>
<mask id="mask40_26_431" style="mask-type:luminance" maskUnits="userSpaceOnUse" x="22" y="0" width="104" height="148">
<path d="M125.622 0H22V148H125.622V0Z" fill="white"/>
</mask>
<g mask="url(#mask40_26_431)">
<path d="M93.0634 82.9963L81.9182 85.2945L81.9296 97.0498L81.9332 101.359L85.2243 100.675C85.2243 100.029 85.2265 97.1878 85.2274 96.5183L93.0621 94.9011L93.0634 82.9963ZM89.7595 92.3234C89.0452 92.4689 85.9347 93.1107 85.2234 93.2584C85.2243 92.5216 85.2274 88.601 85.2283 87.8647C85.9395 87.7161 89.0504 87.0765 89.7648 86.9315C89.7634 87.6665 89.7604 91.5875 89.7595 92.3234Z" fill="white"/>
</g>
<mask id="mask41_26_431" style="mask-type:luminance" maskUnits="userSpaceOnUse" x="22" y="0" width="104" height="148">
<path d="M125.622 0H22V148H125.622V0Z" fill="white"/>
</mask>
<g mask="url(#mask41_26_431)">
<path d="M72.588 87.3183L69.292 87.9864L69.281 99.8661L80.6666 97.5306L80.6772 85.6667L77.3737 86.3393L77.3645 89.5913C77.3636 90.3259 77.3597 94.2237 77.3597 94.9582C76.6361 95.1068 73.3023 95.7899 72.5788 95.9358C72.5792 95.2022 72.5827 91.3004 72.5832 90.5681L72.588 87.3183Z" fill="white"/>
</g>
<mask id="mask42_26_431" style="mask-type:luminance" maskUnits="userSpaceOnUse" x="22" y="0" width="104" height="148">
<path d="M125.622 0H22V148H125.622V0Z" fill="white"/>
</mask>
<g mask="url(#mask42_26_431)">
<path d="M117.5 99.5667L34.3483 115.692L34.4072 114.375L117.486 98.2563L117.5 99.5667Z" fill="white"/>
</g>
<mask id="mask43_26_431" style="mask-type:luminance" maskUnits="userSpaceOnUse" x="22" y="0" width="104" height="148">
<path d="M125.622 0H22V148H125.622V0Z" fill="white"/>
</mask>
<g mask="url(#mask43_26_431)">
<path d="M117.5 99.5667L34.3483 115.692L34.4072 114.375L117.486 98.2563L117.5 99.5667Z" stroke="white" stroke-width="0.439583" stroke-miterlimit="10"/>
</g>
<mask id="mask44_26_431" style="mask-type:luminance" maskUnits="userSpaceOnUse" x="22" y="0" width="104" height="148">
<path d="M125.622 0H22V148H125.622V0Z" fill="white"/>
</mask>
<g mask="url(#mask44_26_431)">
<path d="M74.4224 121.208V123.594V125.101V127.488V129.714H74.4501C74.5393 130.535 74.9916 131.416 76.0457 131.416H80.6262V129.155H76.7873V127.487H80.4192V125.101H76.7873V123.594H80.7022V121.208H76.7873L74.4224 121.208Z" fill="white"/>
</g>
<mask id="mask45_26_431" style="mask-type:luminance" maskUnits="userSpaceOnUse" x="22" y="0" width="104" height="148">
<path d="M125.622 0H22V148H125.622V0Z" fill="white"/>
</mask>
<g mask="url(#mask45_26_431)">
<path d="M82.6321 130.089C82.815 130.916 83.2392 131.418 84.0515 131.404H85.0766V127.381H88.3621V125.174H85.0766V123.412H88.7572V121.178H82.553L82.6321 130.089Z" fill="white"/>
</g>
<mask id="mask46_26_431" style="mask-type:luminance" maskUnits="userSpaceOnUse" x="22" y="0" width="104" height="148">
<path d="M125.622 0H22V148H125.622V0Z" fill="white"/>
</mask>
<g mask="url(#mask46_26_431)">
<path d="M90.5714 121.201V129.169C90.5714 130.258 90.6822 131.354 92.0537 131.354H96.1172V129.169H92.9082V121.201H90.5714Z" fill="white"/>
</g>
<mask id="mask47_26_431" style="mask-type:luminance" maskUnits="userSpaceOnUse" x="22" y="0" width="104" height="148">
<path d="M125.622 0H22V148H125.622V0Z" fill="white"/>
</mask>
<g mask="url(#mask47_26_431)">
<path d="M54.9516 122.222C54.9516 122.881 54.4355 123.417 53.7977 123.417C53.1603 123.417 52.6433 122.881 52.6433 122.222C52.6433 121.563 53.1603 121.029 53.7977 121.029C54.4355 121.029 54.9516 121.563 54.9516 122.222Z" fill="white"/>
</g>
<mask id="mask48_26_431" style="mask-type:luminance" maskUnits="userSpaceOnUse" x="22" y="0" width="104" height="148">
<path d="M125.622 0H22V148H125.622V0Z" fill="white"/>
</mask>
<g mask="url(#mask48_26_431)">
<path d="M58.0691 122.15C58.0691 122.924 57.4629 123.552 56.716 123.552C55.9679 123.552 55.3625 122.924 55.3625 122.15C55.3625 121.378 55.9679 120.752 56.716 120.752C57.4629 120.753 58.0691 121.378 58.0691 122.15Z" fill="white"/>
</g>
<mask id="mask49_26_431" style="mask-type:luminance" maskUnits="userSpaceOnUse" x="22" y="0" width="104" height="148">
<path d="M125.622 0H22V148H125.622V0Z" fill="white"/>
</mask>
<g mask="url(#mask49_26_431)">
<path d="M60.7831 123.712C60.7831 124.532 60.1408 125.196 59.3491 125.196C58.557 125.196 57.9148 124.532 57.9148 123.712C57.9148 122.893 58.557 122.228 59.3491 122.228C60.1408 122.228 60.7831 122.893 60.7831 123.712Z" fill="white"/>
</g>
<mask id="mask50_26_431" style="mask-type:luminance" maskUnits="userSpaceOnUse" x="22" y="0" width="104" height="148">
<path d="M125.622 0H22V148H125.622V0Z" fill="white"/>
</mask>
<g mask="url(#mask50_26_431)">
<path d="M56.8238 124.841C56.8238 125.575 56.2488 126.171 55.5393 126.171C54.8294 126.171 54.2544 125.575 54.2544 124.841C54.2544 124.107 54.8294 123.512 55.5393 123.512C56.2488 123.512 56.8238 124.107 56.8238 124.841Z" fill="white"/>
</g>
<mask id="mask51_26_431" style="mask-type:luminance" maskUnits="userSpaceOnUse" x="22" y="0" width="104" height="148">
<path d="M125.622 0H22V148H125.622V0Z" fill="white"/>
</mask>
<g mask="url(#mask51_26_431)">
<path d="M53.9858 124.555C53.9858 125.15 53.5124 125.634 52.929 125.634C52.3444 125.634 51.871 125.15 51.871 124.555C51.871 123.96 52.3444 123.478 52.929 123.478C53.5124 123.478 53.9858 123.961 53.9858 124.555Z" fill="white"/>
</g>
<mask id="mask52_26_431" style="mask-type:luminance" maskUnits="userSpaceOnUse" x="22" y="0" width="104" height="148">
<path d="M125.622 0H22V148H125.622V0Z" fill="white"/>
</mask>
<g mask="url(#mask52_26_431)">
<path d="M59.2243 126.389C59.2243 127.106 58.6524 127.688 57.9486 127.688C57.2444 127.688 56.6716 127.106 56.6716 126.389C56.6716 125.671 57.2444 125.09 57.9486 125.09C58.6524 125.09 59.2243 125.671 59.2243 126.389Z" fill="white"/>
</g>
<mask id="mask53_26_431" style="mask-type:luminance" maskUnits="userSpaceOnUse" x="22" y="0" width="104" height="148">
<path d="M125.622 0H22V148H125.622V0Z" fill="white"/>
</mask>
<g mask="url(#mask53_26_431)">
<path d="M53.7199 126.939C53.7199 127.516 53.2689 127.983 52.711 127.983C52.1541 127.983 51.7026 127.516 51.7026 126.939C51.7026 126.362 52.1541 125.896 52.711 125.896C53.2689 125.896 53.7199 126.362 53.7199 126.939Z" fill="white"/>
</g>
<mask id="mask54_26_431" style="mask-type:luminance" maskUnits="userSpaceOnUse" x="22" y="0" width="104" height="148">
<path d="M125.622 0H22V148H125.622V0Z" fill="white"/>
</mask>
<g mask="url(#mask54_26_431)">
<path d="M56.1015 127.476C56.1015 128.071 55.636 128.554 55.0606 128.554C54.4852 128.554 54.0197 128.071 54.0197 127.476C54.0197 126.881 54.4852 126.401 55.0606 126.401C55.636 126.401 56.1015 126.881 56.1015 127.476Z" fill="white"/>
</g>
<mask id="mask55_26_431" style="mask-type:luminance" maskUnits="userSpaceOnUse" x="22" y="0" width="104" height="148">
<path d="M125.622 0H22V148H125.622V0Z" fill="white"/>
</mask>
<g mask="url(#mask55_26_431)">
<path d="M58.1491 128.788C58.1491 129.382 57.6831 129.863 57.1082 129.863C56.5341 129.863 56.0681 129.381 56.0681 128.788C56.0681 128.191 56.5341 127.709 57.1082 127.709C57.6831 127.709 58.1491 128.191 58.1491 128.788Z" fill="white"/>
</g>
<mask id="mask56_26_431" style="mask-type:luminance" maskUnits="userSpaceOnUse" x="22" y="0" width="104" height="148">
<path d="M125.622 0H22V148H125.622V0Z" fill="white"/>
</mask>
<g mask="url(#mask56_26_431)">
<path d="M58.0154 131.007C58.0154 131.507 57.6171 131.911 57.1252 131.911C56.6342 131.911 56.236 131.507 56.236 131.007C56.236 130.509 56.6342 130.104 57.1252 130.104C57.6167 130.104 58.0154 130.509 58.0154 131.007Z" fill="white"/>
</g>
<mask id="mask57_26_431" style="mask-type:luminance" maskUnits="userSpaceOnUse" x="22" y="0" width="104" height="148">
<path d="M125.622 0H22V148H125.622V0Z" fill="white"/>
</mask>
<g mask="url(#mask57_26_431)">
<path d="M55.9621 129.738C55.9621 130.242 55.5638 130.65 55.0728 130.65C54.5818 130.65 54.1831 130.242 54.1831 129.738C54.1831 129.236 54.5818 128.829 55.0728 128.829C55.5638 128.829 55.9621 129.236 55.9621 129.738Z" fill="white"/>
</g>
<mask id="mask58_26_431" style="mask-type:luminance" maskUnits="userSpaceOnUse" x="22" y="0" width="104" height="148">
<path d="M125.622 0H22V148H125.622V0Z" fill="white"/>
</mask>
<g mask="url(#mask58_26_431)">
<path d="M53.8869 129.05C53.8869 129.553 53.4891 129.961 52.9977 129.961C52.5066 129.961 52.1071 129.553 52.1071 129.05C52.1071 128.547 52.5066 128.14 52.9977 128.14C53.4891 128.14 53.8869 128.546 53.8869 129.05Z" fill="white"/>
</g>
<mask id="mask59_26_431" style="mask-type:luminance" maskUnits="userSpaceOnUse" x="22" y="0" width="104" height="148">
<path d="M125.622 0H22V148H125.622V0Z" fill="white"/>
</mask>
<g mask="url(#mask59_26_431)">
<path d="M54.2464 130.691C54.2464 131.07 53.9444 131.377 53.5721 131.377C53.1994 131.377 52.8987 131.07 52.8987 130.691C52.8987 130.313 53.1994 130.006 53.5721 130.006C53.9444 130.006 54.2464 130.313 54.2464 130.691Z" fill="white"/>
</g>
<mask id="mask60_26_431" style="mask-type:luminance" maskUnits="userSpaceOnUse" x="22" y="0" width="104" height="148">
<path d="M125.622 0H22V148H125.622V0Z" fill="white"/>
</mask>
<g mask="url(#mask60_26_431)">
<path d="M56.1283 131.503C56.1283 131.88 55.8263 132.189 55.454 132.189C55.0808 132.189 54.7797 131.881 54.7797 131.503C54.7797 131.125 55.0808 130.819 55.454 130.819C55.8263 130.819 56.1283 131.124 56.1283 131.503Z" fill="white"/>
</g>
<mask id="mask61_26_431" style="mask-type:luminance" maskUnits="userSpaceOnUse" x="22" y="0" width="104" height="148">
<path d="M125.622 0H22V148H125.622V0Z" fill="white"/>
</mask>
<g mask="url(#mask61_26_431)">
<path d="M54.7638 131.973C54.7638 132.283 54.5168 132.533 54.2135 132.533C53.9093 132.533 53.6622 132.283 53.6622 131.973C53.6622 131.664 53.9093 131.415 54.2135 131.415C54.5168 131.415 54.7638 131.664 54.7638 131.973Z" fill="white"/>
</g>
<mask id="mask62_26_431" style="mask-type:luminance" maskUnits="userSpaceOnUse" x="22" y="0" width="104" height="148">
<path d="M125.622 0H22V148H125.622V0Z" fill="white"/>
</mask>
<g mask="url(#mask62_26_431)">
<path d="M55.5393 132.972C55.5393 133.261 55.3099 133.496 55.025 133.496C54.741 133.496 54.5103 133.261 54.5103 132.972C54.5103 132.683 54.741 132.449 55.025 132.449C55.3099 132.449 55.5393 132.682 55.5393 132.972Z" fill="white"/>
</g>
<mask id="mask63_26_431" style="mask-type:luminance" maskUnits="userSpaceOnUse" x="22" y="0" width="104" height="148">
<path d="M125.622 0H22V148H125.622V0Z" fill="white"/>
</mask>
<g mask="url(#mask63_26_431)">
<path d="M56.796 132.86C56.796 133.149 56.5679 133.381 56.2852 133.381C56.003 133.381 55.7736 133.149 55.7736 132.86C55.7736 132.574 56.003 132.34 56.2852 132.34C56.5679 132.34 56.796 132.573 56.796 132.86Z" fill="white"/>
</g>
<mask id="mask64_26_431" style="mask-type:luminance" maskUnits="userSpaceOnUse" x="22" y="0" width="104" height="148">
<path d="M125.622 0H22V148H125.622V0Z" fill="white"/>
</mask>
<g mask="url(#mask64_26_431)">
<path d="M58.361 132.724C58.361 133.103 58.059 133.409 57.6866 133.409C57.3143 133.409 57.0123 133.103 57.0123 132.724C57.0123 132.346 57.3143 132.038 57.6866 132.038C58.059 132.038 58.361 132.346 58.361 132.724Z" fill="white"/>
</g>
<mask id="mask65_26_431" style="mask-type:luminance" maskUnits="userSpaceOnUse" x="22" y="0" width="104" height="148">
<path d="M125.622 0H22V148H125.622V0Z" fill="white"/>
</mask>
<g mask="url(#mask65_26_431)">
<path d="M57.6585 134.219C57.6585 134.506 57.4295 134.739 57.1469 134.739C56.8646 134.739 56.6356 134.506 56.6356 134.219C56.6356 133.93 56.8646 133.699 57.1469 133.699C57.4295 133.699 57.6585 133.929 57.6585 134.219Z" fill="white"/>
</g>
<mask id="mask66_26_431" style="mask-type:luminance" maskUnits="userSpaceOnUse" x="22" y="0" width="104" height="148">
<path d="M125.622 0H22V148H125.622V0Z" fill="white"/>
</mask>
<g mask="url(#mask66_26_431)">
<path d="M58.9799 134.099C58.9799 134.404 58.7372 134.653 58.4365 134.653C58.1354 134.653 57.8923 134.405 57.8923 134.099C57.8923 133.794 58.1354 133.547 58.4365 133.547C58.7368 133.547 58.9799 133.794 58.9799 134.099Z" fill="white"/>
</g>
<mask id="mask67_26_431" style="mask-type:luminance" maskUnits="userSpaceOnUse" x="22" y="0" width="104" height="148">
<path d="M125.622 0H22V148H125.622V0Z" fill="white"/>
</mask>
<g mask="url(#mask67_26_431)">
<path d="M56.4734 133.946C56.4734 134.162 56.3007 134.339 56.0884 134.339C55.8747 134.339 55.7015 134.163 55.7015 133.946C55.7015 133.73 55.8747 133.554 56.0884 133.554C56.3007 133.554 56.4734 133.73 56.4734 133.946Z" fill="white"/>
</g>
<mask id="mask68_26_431" style="mask-type:luminance" maskUnits="userSpaceOnUse" x="22" y="0" width="104" height="148">
<path d="M125.622 0H22V148H125.622V0Z" fill="white"/>
</mask>
<g mask="url(#mask68_26_431)">
<path d="M58.3131 135.03C58.3131 135.231 58.1531 135.395 57.9557 135.395C57.7575 135.395 57.5979 135.231 57.5979 135.03C57.5979 134.831 57.7575 134.667 57.9557 134.667C58.1531 134.667 58.3131 134.831 58.3131 135.03Z" fill="white"/>
</g>
<mask id="mask69_26_431" style="mask-type:luminance" maskUnits="userSpaceOnUse" x="22" y="0" width="104" height="148">
<path d="M125.622 0H22V148H125.622V0Z" fill="white"/>
</mask>
<g mask="url(#mask69_26_431)">
<path d="M59.5975 135.139C59.5975 135.405 59.3865 135.619 59.1259 135.619C58.8652 135.619 58.6533 135.405 58.6533 135.139C58.6533 134.875 58.8652 134.661 59.1259 134.661C59.3865 134.661 59.5975 134.876 59.5975 135.139Z" fill="white"/>
</g>
<mask id="mask70_26_431" style="mask-type:luminance" maskUnits="userSpaceOnUse" x="22" y="0" width="104" height="148">
<path d="M125.622 0H22V148H125.622V0Z" fill="white"/>
</mask>
<g mask="url(#mask70_26_431)">
<path d="M60.4525 135.629C60.4525 135.817 60.3044 135.968 60.1206 135.968C59.9373 135.968 59.7878 135.817 59.7878 135.629C59.7878 135.444 59.9373 135.292 60.1206 135.292C60.3044 135.292 60.4525 135.444 60.4525 135.629Z" fill="white"/>
</g>
<mask id="mask71_26_431" style="mask-type:luminance" maskUnits="userSpaceOnUse" x="22" y="0" width="104" height="148">
<path d="M125.622 0H22V148H125.622V0Z" fill="white"/>
</mask>
<g mask="url(#mask71_26_431)">
<path d="M68.7963 122.356C68.1901 122.096 67.9008 121.411 68.1514 120.825C68.402 120.238 69.0965 119.974 69.7031 120.233C70.3093 120.493 70.5986 121.178 70.3471 121.765C70.0974 122.35 69.4016 122.615 68.7963 122.356Z" fill="white"/>
</g>
<mask id="mask72_26_431" style="mask-type:luminance" maskUnits="userSpaceOnUse" x="22" y="0" width="104" height="148">
<path d="M125.622 0H22V148H125.622V0Z" fill="white"/>
</mask>
<g mask="url(#mask72_26_431)">
<path d="M67.2343 124.991C66.5231 124.687 66.185 123.884 66.4787 123.197C66.7719 122.509 67.5864 122.199 68.2977 122.503C69.0085 122.806 69.347 123.61 69.0529 124.297C68.7592 124.985 67.9456 125.296 67.2343 124.991Z" fill="white"/>
</g>
<mask id="mask73_26_431" style="mask-type:luminance" maskUnits="userSpaceOnUse" x="22" y="0" width="104" height="148">
<path d="M125.622 0H22V148H125.622V0Z" fill="white"/>
</mask>
<g mask="url(#mask73_26_431)">
<path d="M64.5889 126.615C63.8342 126.294 63.4759 125.441 63.7871 124.713C64.0988 123.984 64.9617 123.656 65.7151 123.978C66.469 124.3 66.8282 125.151 66.5165 125.88C66.2048 126.608 65.3415 126.937 64.5889 126.615Z" fill="white"/>
</g>
<mask id="mask74_26_431" style="mask-type:luminance" maskUnits="userSpaceOnUse" x="22" y="0" width="104" height="148">
<path d="M125.622 0H22V148H125.622V0Z" fill="white"/>
</mask>
<g mask="url(#mask74_26_431)">
<path d="M65.4228 122.589C64.7476 122.3 64.4267 121.535 64.705 120.884C64.9837 120.233 65.7569 119.938 66.4325 120.226C67.106 120.514 67.4277 121.276 67.149 121.93C66.8703 122.581 66.0971 122.877 65.4228 122.589Z" fill="white"/>
</g>
<mask id="mask75_26_431" style="mask-type:luminance" maskUnits="userSpaceOnUse" x="22" y="0" width="104" height="148">
<path d="M125.622 0H22V148H125.622V0Z" fill="white"/>
</mask>
<g mask="url(#mask75_26_431)">
<path d="M67.1447 120.35C66.5975 120.115 66.3403 119.491 66.5706 118.953C66.7992 118.417 67.4291 118.17 67.976 118.404C68.5233 118.638 68.7804 119.264 68.551 119.8C68.3211 120.338 67.6916 120.583 67.1447 120.35Z" fill="white"/>
</g>
<mask id="mask76_26_431" style="mask-type:luminance" maskUnits="userSpaceOnUse" x="22" y="0" width="104" height="148">
<path d="M125.622 0H22V148H125.622V0Z" fill="white"/>
</mask>
<g mask="url(#mask76_26_431)">
<path d="M62.9981 123.87C62.3375 123.588 62.0276 122.836 62.3045 122.188C62.5819 121.538 63.341 121.244 64.0004 121.524C64.6602 121.807 64.9714 122.56 64.6941 123.208C64.4171 123.856 63.6575 124.152 62.9981 123.87Z" fill="white"/>
</g>
<mask id="mask77_26_431" style="mask-type:luminance" maskUnits="userSpaceOnUse" x="22" y="0" width="104" height="148">
<path d="M125.622 0H22V148H125.622V0Z" fill="white"/>
</mask>
<g mask="url(#mask77_26_431)">
<path d="M65.2576 118.937C64.7283 118.712 64.476 118.113 64.6954 117.602C64.9143 117.089 65.5209 116.856 66.0506 117.083C66.5803 117.311 66.8326 117.909 66.6137 118.421C66.3957 118.933 65.7882 119.163 65.2576 118.937Z" fill="white"/>
</g>
<mask id="mask78_26_431" style="mask-type:luminance" maskUnits="userSpaceOnUse" x="22" y="0" width="104" height="148">
<path d="M125.622 0H22V148H125.622V0Z" fill="white"/>
</mask>
<g mask="url(#mask78_26_431)">
<path d="M63.5414 120.63C62.9942 120.396 62.7339 119.777 62.9599 119.25C63.1858 118.72 63.8122 118.481 64.3591 118.715C64.9059 118.948 65.167 119.567 64.9406 120.096C64.7138 120.625 64.0883 120.863 63.5414 120.63Z" fill="white"/>
</g>
<mask id="mask79_26_431" style="mask-type:luminance" maskUnits="userSpaceOnUse" x="22" y="0" width="104" height="148">
<path d="M125.622 0H22V148H125.622V0Z" fill="white"/>
</mask>
<g mask="url(#mask79_26_431)">
<path d="M61.3022 121.711C60.7558 121.477 60.4947 120.859 60.7211 120.33C60.9471 119.802 61.5735 119.561 62.1203 119.796C62.6676 120.03 62.9278 120.648 62.7014 121.178C62.4755 121.705 61.85 121.945 61.3022 121.711Z" fill="white"/>
</g>
<mask id="mask80_26_431" style="mask-type:luminance" maskUnits="userSpaceOnUse" x="22" y="0" width="104" height="148">
<path d="M125.622 0H22V148H125.622V0Z" fill="white"/>
</mask>
<g mask="url(#mask80_26_431)">
<path d="M59.5131 120.571C59.0542 120.375 58.8388 119.851 59.0322 119.398C59.2252 118.946 59.754 118.738 60.2125 118.934C60.6714 119.131 60.8868 119.655 60.6934 120.108C60.4999 120.559 59.9711 120.767 59.5131 120.571Z" fill="white"/>
</g>
<mask id="mask81_26_431" style="mask-type:luminance" maskUnits="userSpaceOnUse" x="22" y="0" width="104" height="148">
<path d="M125.622 0H22V148H125.622V0Z" fill="white"/>
</mask>
<g mask="url(#mask81_26_431)">
<path d="M61.6015 119.411C61.1391 119.214 60.9206 118.688 61.114 118.235C61.3075 117.785 61.838 117.578 62.3009 117.775C62.762 117.972 62.9814 118.5 62.7884 118.951C62.595 119.403 62.064 119.608 61.6015 119.411Z" fill="white"/>
</g>
<mask id="mask82_26_431" style="mask-type:luminance" maskUnits="userSpaceOnUse" x="22" y="0" width="104" height="148">
<path d="M125.622 0H22V148H125.622V0Z" fill="white"/>
</mask>
<g mask="url(#mask82_26_431)">
<path d="M63.2513 118.004C62.7888 117.806 62.5708 117.28 62.7646 116.827C62.9576 116.378 63.4886 116.17 63.9511 116.367C64.4135 116.565 64.6315 117.092 64.4381 117.543C64.2456 117.996 63.7146 118.201 63.2513 118.004Z" fill="white"/>
</g>
<mask id="mask83_26_431" style="mask-type:luminance" maskUnits="userSpaceOnUse" x="22" y="0" width="104" height="148">
<path d="M125.622 0H22V148H125.622V0Z" fill="white"/>
</mask>
<g mask="url(#mask83_26_431)">
<path d="M61.6587 117.431C61.3102 117.281 61.1475 116.884 61.293 116.542C61.4389 116.199 61.8407 116.041 62.1884 116.191C62.5366 116.34 62.6997 116.737 62.5537 117.08C62.4069 117.422 62.006 117.579 61.6587 117.431Z" fill="white"/>
</g>
<mask id="mask84_26_431" style="mask-type:luminance" maskUnits="userSpaceOnUse" x="22" y="0" width="104" height="148">
<path d="M125.622 0H22V148H125.622V0Z" fill="white"/>
</mask>
<g mask="url(#mask84_26_431)">
<path d="M59.9716 118.755C59.6239 118.607 59.459 118.209 59.6072 117.866C59.7527 117.525 60.1536 117.367 60.5022 117.515C60.8494 117.664 61.013 118.062 60.8666 118.404C60.7206 118.747 60.3197 118.903 59.9716 118.755Z" fill="white"/>
</g>
<mask id="mask85_26_431" style="mask-type:luminance" maskUnits="userSpaceOnUse" x="22" y="0" width="104" height="148">
<path d="M125.622 0H22V148H125.622V0Z" fill="white"/>
</mask>
<g mask="url(#mask85_26_431)">
<path d="M60.2191 117.315C59.9351 117.194 59.8006 116.869 59.9206 116.591C60.0402 116.31 60.3668 116.181 60.6508 116.303C60.9356 116.424 61.0688 116.75 60.9488 117.029C60.8306 117.31 60.5031 117.437 60.2191 117.315Z" fill="white"/>
</g>
<mask id="mask86_26_431" style="mask-type:luminance" maskUnits="userSpaceOnUse" x="22" y="0" width="104" height="148">
<path d="M125.622 0H22V148H125.622V0Z" fill="white"/>
</mask>
<g mask="url(#mask86_26_431)">
<path d="M58.9095 117.464C58.6444 117.352 58.5187 117.048 58.6304 116.786C58.7425 116.524 59.0488 116.405 59.3148 116.517C59.5803 116.632 59.7056 116.936 59.5931 117.197C59.4818 117.459 59.1754 117.579 58.9095 117.464Z" fill="white"/>
</g>
<mask id="mask87_26_431" style="mask-type:luminance" maskUnits="userSpaceOnUse" x="22" y="0" width="104" height="148">
<path d="M125.622 0H22V148H125.622V0Z" fill="white"/>
</mask>
<g mask="url(#mask87_26_431)">
<path d="M58.3746 118.521C58.1099 118.409 57.9868 118.107 58.0981 117.848C58.2084 117.587 58.513 117.467 58.7759 117.581C59.0405 117.694 59.1649 117.997 59.0537 118.256C58.9425 118.515 58.6383 118.634 58.3746 118.521Z" fill="white"/>
</g>
<mask id="mask88_26_431" style="mask-type:luminance" maskUnits="userSpaceOnUse" x="22" y="0" width="104" height="148">
<path d="M125.622 0H22V148H125.622V0Z" fill="white"/>
</mask>
<g mask="url(#mask88_26_431)">
<path d="M57.7121 119.956C57.3653 119.806 57.2013 119.408 57.3473 119.067C57.4941 118.724 57.895 118.566 58.2427 118.716C58.5909 118.864 58.7544 119.262 58.608 119.606C58.4621 119.947 58.0612 120.104 57.7121 119.956Z" fill="white"/>
</g>
<mask id="mask89_26_431" style="mask-type:luminance" maskUnits="userSpaceOnUse" x="22" y="0" width="104" height="148">
<path d="M125.622 0H22V148H125.622V0Z" fill="white"/>
</mask>
<g mask="url(#mask89_26_431)">
<path d="M56.7591 118.637C56.4958 118.523 56.3709 118.221 56.4817 117.961C56.5929 117.703 56.8967 117.584 57.1613 117.696C57.4246 117.809 57.5495 118.11 57.4378 118.369C57.3279 118.629 57.0233 118.75 56.7591 118.637Z" fill="white"/>
</g>
<mask id="mask90_26_431" style="mask-type:luminance" maskUnits="userSpaceOnUse" x="22" y="0" width="104" height="148">
<path d="M125.622 0H22V148H125.622V0Z" fill="white"/>
</mask>
<g mask="url(#mask90_26_431)">
<path d="M56.2615 119.783C55.9819 119.664 55.8491 119.342 55.9678 119.066C56.0852 118.79 56.4087 118.662 56.6892 118.782C56.9701 118.902 57.1015 119.225 56.9846 119.5C56.8654 119.776 56.5432 119.903 56.2615 119.783Z" fill="white"/>
</g>
<mask id="mask91_26_431" style="mask-type:luminance" maskUnits="userSpaceOnUse" x="22" y="0" width="104" height="148">
<path d="M125.622 0H22V148H125.622V0Z" fill="white"/>
</mask>
<g mask="url(#mask91_26_431)">
<path d="M57.5605 117.711C57.3605 117.626 57.2681 117.399 57.3517 117.203C57.4352 117.006 57.6642 116.916 57.8638 117.002C58.0633 117.085 58.1557 117.314 58.0721 117.511C57.9882 117.707 57.7587 117.797 57.5605 117.711Z" fill="white"/>
</g>
<mask id="mask92_26_431" style="mask-type:luminance" maskUnits="userSpaceOnUse" x="22" y="0" width="104" height="148">
<path d="M125.622 0H22V148H125.622V0Z" fill="white"/>
</mask>
<g mask="url(#mask92_26_431)">
<path d="M55.7253 118.776C55.5407 118.696 55.4545 118.485 55.5323 118.304C55.6097 118.123 55.822 118.038 56.0066 118.117C56.1912 118.198 56.2783 118.408 56.2005 118.589C56.1227 118.771 55.9108 118.854 55.7253 118.776Z" fill="white"/>
</g>
<mask id="mask93_26_431" style="mask-type:luminance" maskUnits="userSpaceOnUse" x="22" y="0" width="104" height="148">
<path d="M125.622 0H22V148H125.622V0Z" fill="white"/>
</mask>
<g mask="url(#mask93_26_431)">
<path d="M54.949 119.798C54.7046 119.695 54.5907 119.416 54.6923 119.177C54.7956 118.936 55.076 118.827 55.3187 118.931C55.5631 119.035 55.6774 119.315 55.5754 119.553C55.4721 119.792 55.1921 119.903 54.949 119.798Z" fill="white"/>
</g>
<mask id="mask94_26_431" style="mask-type:luminance" maskUnits="userSpaceOnUse" x="22" y="0" width="104" height="148">
<path d="M125.622 0H22V148H125.622V0Z" fill="white"/>
</mask>
<g mask="url(#mask94_26_431)">
<path d="M54.1036 120.307C53.9326 120.233 53.8517 120.036 53.9238 119.867C53.9955 119.699 54.1933 119.622 54.3656 119.694C54.537 119.768 54.6175 119.964 54.545 120.133C54.4733 120.301 54.2759 120.379 54.1036 120.307Z" fill="white"/>
</g>
<mask id="mask95_26_431" style="mask-type:luminance" maskUnits="userSpaceOnUse" x="22" y="0" width="104" height="148">
<path d="M125.622 0H22V148H125.622V0Z" fill="white"/>
</mask>
<g mask="url(#mask95_26_431)">
<path d="M61.5672 133.972C62.0991 133.581 62.8368 133.683 63.2135 134.195C63.5911 134.709 63.4658 135.443 62.9348 135.833C62.4024 136.224 61.6661 136.123 61.2885 135.61C60.9101 135.095 61.0362 134.362 61.5672 133.972Z" fill="white"/>
</g>
<mask id="mask96_26_431" style="mask-type:luminance" maskUnits="userSpaceOnUse" x="22" y="0" width="104" height="148">
<path d="M125.622 0H22V148H125.622V0Z" fill="white"/>
</mask>
<g mask="url(#mask96_26_431)">
<path d="M60.092 131.287C60.7149 130.83 61.5791 130.946 62.0214 131.549C62.464 132.152 62.3172 133.011 61.6939 133.469C61.071 133.926 60.2068 133.808 59.765 133.208C59.3228 132.604 59.4691 131.745 60.092 131.287Z" fill="white"/>
</g>
<mask id="mask97_26_431" style="mask-type:luminance" maskUnits="userSpaceOnUse" x="22" y="0" width="104" height="148">
<path d="M125.622 0H22V148H125.622V0Z" fill="white"/>
</mask>
<g mask="url(#mask97_26_431)">
<path d="M60.0389 128.183C60.6996 127.699 61.6152 127.822 62.0852 128.461C62.5542 129.099 62.3977 130.01 61.737 130.495C61.0776 130.981 60.1615 130.855 59.6925 130.218C59.2243 129.58 59.3795 128.668 60.0389 128.183Z" fill="white"/>
</g>
<mask id="mask98_26_431" style="mask-type:luminance" maskUnits="userSpaceOnUse" x="22" y="0" width="104" height="148">
<path d="M125.622 0H22V148H125.622V0Z" fill="white"/>
</mask>
<g mask="url(#mask98_26_431)">
<path d="M63.0825 130.949C63.6747 130.516 64.4945 130.625 64.9138 131.197C65.3337 131.77 65.1947 132.583 64.6035 133.018C64.0123 133.454 63.192 133.343 62.7722 132.771C62.3524 132.2 62.4917 131.383 63.0825 130.949Z" fill="white"/>
</g>
<mask id="mask99_26_431" style="mask-type:luminance" maskUnits="userSpaceOnUse" x="22" y="0" width="104" height="148">
<path d="M125.622 0H22V148H125.622V0Z" fill="white"/>
</mask>
<g mask="url(#mask99_26_431)">
<path d="M64.1348 133.57C64.614 133.217 65.2839 133.314 65.6285 133.785C65.9745 134.255 65.8668 134.924 65.3872 135.275C64.9076 135.627 64.2386 135.531 63.8935 135.061C63.5471 134.588 63.6557 133.923 64.1348 133.57Z" fill="white"/>
</g>
<mask id="mask100_26_431" style="mask-type:luminance" maskUnits="userSpaceOnUse" x="22" y="0" width="104" height="148">
<path d="M125.622 0H22V148H125.622V0Z" fill="white"/>
</mask>
<g mask="url(#mask100_26_431)">
<path d="M63.2113 128.208C63.7885 127.784 64.5969 127.9 65.0136 128.468C65.4307 129.036 65.3002 129.842 64.7217 130.266C64.1432 130.69 63.3361 130.575 62.9194 130.007C62.5022 129.439 62.6328 128.635 63.2113 128.208Z" fill="white"/>
</g>
<mask id="mask101_26_431" style="mask-type:luminance" maskUnits="userSpaceOnUse" x="22" y="0" width="104" height="148">
<path d="M125.622 0H22V148H125.622V0Z" fill="white"/>
</mask>
<g mask="url(#mask101_26_431)">
<path d="M66.3099 132.663C66.7741 132.322 67.4176 132.41 67.7469 132.857C68.0774 133.307 67.968 133.947 67.5034 134.288C67.0387 134.63 66.3956 134.542 66.0659 134.095C65.7358 133.646 65.8448 133.005 66.3099 132.663Z" fill="white"/>
</g>
<mask id="mask102_26_431" style="mask-type:luminance" maskUnits="userSpaceOnUse" x="22" y="0" width="104" height="148">
<path d="M125.622 0H22V148H125.622V0Z" fill="white"/>
</mask>
<g mask="url(#mask102_26_431)">
<path d="M65.7262 130.324C66.2053 129.973 66.8704 130.062 67.2102 130.526C67.5504 130.989 67.4379 131.65 66.9583 132.001C66.4787 132.353 65.8145 132.264 65.4743 131.802C65.1332 131.338 65.2466 130.676 65.7262 130.324Z" fill="white"/>
</g>
<mask id="mask103_26_431" style="mask-type:luminance" maskUnits="userSpaceOnUse" x="22" y="0" width="104" height="148">
<path d="M125.622 0H22V148H125.622V0Z" fill="white"/>
</mask>
<g mask="url(#mask103_26_431)">
<path d="M65.9328 127.846C66.4115 127.495 67.0766 127.585 67.4164 128.049C67.7575 128.512 67.6445 129.171 67.1654 129.523C66.6854 129.876 66.0211 129.785 65.6813 129.323C65.3402 128.861 65.4536 128.198 65.9328 127.846Z" fill="white"/>
</g>
<mask id="mask104_26_431" style="mask-type:luminance" maskUnits="userSpaceOnUse" x="22" y="0" width="104" height="148">
<path d="M125.622 0H22V148H125.622V0Z" fill="white"/>
</mask>
<g mask="url(#mask104_26_431)">
<path d="M67.8243 126.886C68.2266 126.591 68.7883 126.673 69.0794 127.068C69.3708 127.464 69.2798 128.023 68.8771 128.321C68.4758 128.616 67.914 128.534 67.6226 128.138C67.3316 127.742 67.4221 127.181 67.8243 126.886Z" fill="white"/>
</g>
<mask id="mask105_26_431" style="mask-type:luminance" maskUnits="userSpaceOnUse" x="22" y="0" width="104" height="148">
<path d="M125.622 0H22V148H125.622V0Z" fill="white"/>
</mask>
<g mask="url(#mask105_26_431)">
<path d="M67.7615 129.274C68.1659 128.976 68.7308 129.056 69.0218 129.451C69.3123 129.847 69.2196 130.41 68.8143 130.706C68.4085 131.006 67.8446 130.925 67.554 130.531C67.2621 130.135 67.3557 129.57 67.7615 129.274Z" fill="white"/>
</g>
<mask id="mask106_26_431" style="mask-type:luminance" maskUnits="userSpaceOnUse" x="22" y="0" width="104" height="148">
<path d="M125.622 0H22V148H125.622V0Z" fill="white"/>
</mask>
<g mask="url(#mask106_26_431)">
<path d="M68.1334 131.41C68.5387 131.113 69.1035 131.192 69.3945 131.588C69.6851 131.984 69.5923 132.548 69.187 132.844C68.7826 133.142 68.2173 133.062 67.9263 132.666C67.6353 132.27 67.7281 131.709 68.1334 131.41Z" fill="white"/>
</g>
<mask id="mask107_26_431" style="mask-type:luminance" maskUnits="userSpaceOnUse" x="22" y="0" width="104" height="148">
<path d="M125.622 0H22V148H125.622V0Z" fill="white"/>
</mask>
<g mask="url(#mask107_26_431)">
<path d="M69.4385 130.331C69.7431 130.105 70.1686 130.166 70.3897 130.469C70.6104 130.768 70.5418 131.193 70.2363 131.417C69.9313 131.641 69.5049 131.579 69.2855 131.28C69.064 130.979 69.133 130.555 69.4385 130.331Z" fill="white"/>
</g>
<mask id="mask108_26_431" style="mask-type:luminance" maskUnits="userSpaceOnUse" x="22" y="0" width="104" height="148">
<path d="M125.622 0H22V148H125.622V0Z" fill="white"/>
</mask>
<g mask="url(#mask108_26_431)">
<path d="M69.1545 128.205C69.4592 127.979 69.8851 128.041 70.1058 128.342C70.3269 128.643 70.2579 129.066 69.9532 129.291C69.6477 129.514 69.2209 129.454 69.0015 129.154C68.7809 128.853 68.8499 128.428 69.1545 128.205Z" fill="white"/>
</g>
<mask id="mask109_26_431" style="mask-type:luminance" maskUnits="userSpaceOnUse" x="22" y="0" width="104" height="148">
<path d="M125.622 0H22V148H125.622V0Z" fill="white"/>
</mask>
<g mask="url(#mask109_26_431)">
<path d="M70.2679 129.148C70.5171 128.966 70.8649 129.017 71.0455 129.261C71.2249 129.507 71.169 129.854 70.9202 130.036C70.671 130.218 70.3233 130.168 70.1435 129.923C69.9637 129.677 70.0204 129.331 70.2679 129.148Z" fill="white"/>
</g>
<mask id="mask110_26_431" style="mask-type:luminance" maskUnits="userSpaceOnUse" x="22" y="0" width="104" height="148">
<path d="M125.622 0H22V148H125.622V0Z" fill="white"/>
</mask>
<g mask="url(#mask110_26_431)">
<path d="M70.8051 127.946C71.038 127.775 71.3633 127.822 71.5321 128.051C71.6996 128.28 71.6482 128.604 71.4152 128.774C71.1818 128.946 70.8565 128.898 70.6877 128.67C70.5198 128.441 70.5725 128.116 70.8051 127.946Z" fill="white"/>
</g>
<mask id="mask111_26_431" style="mask-type:luminance" maskUnits="userSpaceOnUse" x="22" y="0" width="104" height="148">
<path d="M125.622 0H22V148H125.622V0Z" fill="white"/>
</mask>
<g mask="url(#mask111_26_431)">
<path d="M70.1677 126.948C70.399 126.777 70.7225 126.826 70.89 127.052C71.057 127.28 71.006 127.601 70.7735 127.773C70.5427 127.942 70.2192 127.896 70.0526 127.668C69.8847 127.44 69.9374 127.119 70.1677 126.948Z" fill="white"/>
</g>
<mask id="mask112_26_431" style="mask-type:luminance" maskUnits="userSpaceOnUse" x="22" y="0" width="104" height="148">
<path d="M125.622 0H22V148H125.622V0Z" fill="white"/>
</mask>
<g mask="url(#mask112_26_431)">
<path d="M69.2692 125.649C69.5743 125.423 70.0007 125.486 70.2209 125.787C70.4412 126.086 70.373 126.511 70.068 126.736C69.7629 126.959 69.3365 126.897 69.1158 126.598C68.8956 126.297 68.9646 125.873 69.2692 125.649Z" fill="white"/>
</g>
<mask id="mask113_26_431" style="mask-type:luminance" maskUnits="userSpaceOnUse" x="22" y="0" width="104" height="148">
<path d="M125.622 0H22V148H125.622V0Z" fill="white"/>
</mask>
<g mask="url(#mask113_26_431)">
<path d="M70.8899 125.499C71.122 125.329 71.4455 125.375 71.613 125.603C71.7792 125.831 71.7269 126.153 71.4961 126.323C71.2644 126.493 70.9418 126.446 70.7743 126.217C70.6068 125.991 70.6578 125.667 70.8899 125.499Z" fill="white"/>
</g>
<mask id="mask114_26_431" style="mask-type:luminance" maskUnits="userSpaceOnUse" x="22" y="0" width="104" height="148">
<path d="M125.622 0H22V148H125.622V0Z" fill="white"/>
</mask>
<g mask="url(#mask114_26_431)">
<path d="M70.1559 124.488C70.4021 124.306 70.7458 124.356 70.9234 124.597C71.101 124.84 71.0465 125.183 70.8003 125.363C70.5537 125.543 70.21 125.495 70.0324 125.253C69.8548 125.009 69.9097 124.668 70.1559 124.488Z" fill="white"/>
</g>
<mask id="mask115_26_431" style="mask-type:luminance" maskUnits="userSpaceOnUse" x="22" y="0" width="104" height="148">
<path d="M125.622 0H22V148H125.622V0Z" fill="white"/>
</mask>
<g mask="url(#mask115_26_431)">
<path d="M71.2795 126.659C71.454 126.53 71.6984 126.566 71.8241 126.737C71.9503 126.909 71.9111 127.151 71.7366 127.28C71.5612 127.41 71.3186 127.373 71.1924 127.201C71.0654 127.029 71.1054 126.786 71.2795 126.659Z" fill="white"/>
</g>
<mask id="mask116_26_431" style="mask-type:luminance" maskUnits="userSpaceOnUse" x="22" y="0" width="104" height="148">
<path d="M125.622 0H22V148H125.622V0Z" fill="white"/>
</mask>
<g mask="url(#mask116_26_431)">
<path d="M71.2961 124.536C71.4583 124.418 71.6838 124.452 71.8007 124.61C71.9181 124.769 71.8808 124.994 71.7199 125.114C71.5585 125.233 71.3317 125.2 71.2148 125.039C71.0983 124.881 71.1339 124.656 71.2961 124.536Z" fill="white"/>
</g>
<mask id="mask117_26_431" style="mask-type:luminance" maskUnits="userSpaceOnUse" x="22" y="0" width="104" height="148">
<path d="M125.622 0H22V148H125.622V0Z" fill="white"/>
</mask>
<g mask="url(#mask117_26_431)">
<path d="M70.8104 123.347C71.024 123.189 71.3225 123.233 71.4763 123.445C71.6311 123.655 71.5832 123.953 71.3691 124.108C71.1554 124.265 70.8578 124.223 70.7031 124.013C70.5488 123.802 70.5967 123.505 70.8104 123.347Z" fill="white"/>
</g>
<mask id="mask118_26_431" style="mask-type:luminance" maskUnits="userSpaceOnUse" x="22" y="0" width="104" height="148">
<path d="M125.622 0H22V148H125.622V0Z" fill="white"/>
</mask>
<g mask="url(#mask118_26_431)">
<path d="M70.803 122.362C70.9529 122.253 71.163 122.284 71.272 122.431C71.3806 122.578 71.3463 122.789 71.1959 122.897C71.0456 123.008 70.8359 122.979 70.7269 122.831C70.6183 122.683 70.6513 122.472 70.803 122.362Z" fill="white"/>
</g>
</g>
<defs>
<filter id="filter0_d_26_431" x="0" y="0" width="148" height="148" filterUnits="userSpaceOnUse" color-interpolation-filters="sRGB">
<feFlood flood-opacity="0" result="BackgroundImageFix"/>
<feColorMatrix in="SourceAlpha" type="matrix" values="0 0 0 0 0 0 0 0 0 0 0 0 0 0 0 0 0 0 127 0" result="hardAlpha"/>
<feOffset/>
<feComposite in2="hardAlpha" operator="out"/>
<feColorMatrix type="matrix" values="0 0 0 0 0 0 0 0 0 0 0 0 0 0 0 0 0 0 1 0"/>
<feBlend mode="normal" in2="BackgroundImageFix" result="effect1_dropShadow_26_431"/>
<feBlend mode="normal" in="SourceGraphic" in2="effect1_dropShadow_26_431" result="shape"/>
</filter>
</defs>
</svg>
