<svg width="148" height="148" viewBox="0 0 148 148" fill="none" xmlns="http://www.w3.org/2000/svg">
<path d="M58.3118 74.125V53.4662H64.859C69.1235 53.4662 72.3211 56.0033 72.3211 60.37C72.3211 64.7366 69.1732 67.3732 64.859 67.3732H62.3219V74.125H58.3118ZM62.3219 63.5178H64.6573C66.6886 63.5178 68.1589 62.4013 68.1589 60.37C68.1589 58.3386 66.6859 57.2746 64.6573 57.2746H62.3219V63.5178ZM126.125 96.8151C123.129 96.8151 119.476 95.1901 119.476 90.1159V82.8584H123.232V89.8644C123.232 92.1997 124.298 93.214 126.125 93.214C127.8 93.214 129.019 92.0477 129.019 89.8644V82.8584H132.775V90.1159C132.775 95.1928 129.069 96.8151 126.125 96.8151ZM93.7924 96.8151C90.1885 96.8151 87.0406 93.5153 87.0406 89.6571C87.0406 85.799 90.1885 82.6538 93.7924 82.6538C95.8237 82.6538 97.1945 83.3641 98.0043 84.6327L98.4106 82.8556H101.71V96.4586H98.4106L98.0043 94.7341C97.1918 95.9529 95.669 96.8151 93.7924 96.8151ZM94.5524 86.056C92.5211 86.056 91.001 87.5788 91.001 89.6599C91.001 91.7409 92.5239 93.214 94.5524 93.214C96.581 93.214 98.0541 91.6415 98.0541 89.6599C98.0541 87.5788 96.5312 86.056 94.5524 86.056ZM119.172 60.522H122.928V74.125H119.172V60.522ZM121.101 58.6952C119.782 58.6952 118.765 57.6809 118.765 56.4096C118.765 55.1383 119.78 54.0742 121.101 54.0742C122.422 54.0742 123.436 55.0885 123.436 56.4096C123.436 57.7306 122.422 58.6952 121.101 58.6952ZM113.536 66.1075C113.536 64.6344 112.724 63.7224 111.455 63.7224C109.982 63.7224 109.222 64.6372 109.222 66.16V74.1278H105.466V66.1075C105.466 64.6344 104.654 63.7224 103.385 63.7224C101.912 63.7224 101.152 64.6372 101.152 66.16V74.1278H97.3963V60.5247H100.696L101.102 62.3018C101.102 62.3018 101.915 60.171 104.452 60.171C106.025 60.171 107.346 60.8315 108.258 62.2023L108.36 62.3543L108.462 62.2023C109.783 60.3258 111.406 60.171 112.423 60.171C115.316 60.171 117.295 62.3543 117.295 65.4497V74.1305H113.539V66.1102L113.536 66.1075ZM139.781 74.125V60.522H143.031L143.437 62.5008C144.045 61.2323 145.264 60.37 146.889 60.37C147.245 60.37 147.599 60.4197 147.956 60.522V64.1259C147.5 64.0236 147.094 63.9739 146.635 63.9739C144.808 63.9739 143.539 65.0904 143.539 67.2737V74.125H139.783H139.781ZM73.5896 74.125V60.522H76.8398L77.246 62.5008C77.854 61.2323 79.0728 60.37 80.6979 60.37C81.0517 60.37 81.4082 60.4197 81.7647 60.522V64.1259C81.3087 64.0236 80.9024 63.9739 80.4436 63.9739C78.6168 63.9739 77.3483 65.0904 77.3483 67.2737V74.125H73.5924H73.5896ZM58.3118 96.4614V76.3111H62.3219V92.6557H71.0525V96.4614H58.3118ZM79.1723 96.8151C74.9604 96.8151 71.8623 93.9215 71.8623 89.7096C71.8623 85.904 74.6537 82.5018 79.0701 82.5018C82.37 82.5018 85.7693 84.9892 85.7693 89.6074C85.7693 89.9611 85.7693 90.4199 85.6671 90.9257H75.7177C76.0714 92.4485 77.4422 93.4627 79.1171 93.4627C80.6399 93.4627 81.8062 92.9045 82.7735 91.8902L85.0563 94.2255C83.5832 95.9003 81.4524 96.8151 79.1668 96.8151M78.9706 85.8017C77.398 85.8017 76.077 86.7165 75.773 88.1868H82.0659C81.7619 86.7663 80.4934 85.8017 78.9706 85.8017ZM141.403 96.8151C137.191 96.8151 134.093 93.9215 134.093 89.7096C134.093 85.904 136.884 82.5018 141.301 82.5018C144.601 82.5018 148 84.9892 148 89.6074C148 89.9611 148 90.4199 147.898 90.9257H137.948C138.302 92.4485 139.673 93.4627 141.35 93.4627C142.873 93.4627 144.04 92.9045 145.004 91.8902L147.287 94.2255C145.814 95.9003 143.683 96.8151 141.4 96.8151M141.201 85.8017C139.629 85.8017 138.308 86.7165 138.004 88.1868H144.297C143.993 86.7663 142.724 85.8017 141.201 85.8017ZM131.708 74.4815C127.496 74.4815 124.398 71.5879 124.398 67.376C124.398 63.5704 127.189 60.1682 131.606 60.1682C134.905 60.1682 138.305 62.6556 138.305 67.2737C138.305 67.6275 138.305 68.0863 138.203 68.592H128.253C128.61 70.1148 129.978 71.1319 131.655 71.1319C133.178 71.1319 134.344 70.5736 135.309 69.5566L137.592 71.8919C136.119 73.5667 133.988 74.4815 131.702 74.4815M131.506 63.4681C129.934 63.4681 128.613 64.3829 128.309 65.8532H134.601C134.297 64.4326 133.029 63.4681 131.506 63.4681ZM89.3262 74.4815C85.1143 74.4815 82.0162 71.5879 82.0162 67.376C82.0162 63.5704 84.8076 60.1682 89.224 60.1682C92.5239 60.1682 95.9232 62.6556 95.9232 67.2737C95.9232 67.6275 95.9232 68.0863 95.821 68.592H85.8716C86.2281 70.1148 87.5989 71.1319 89.2737 71.1319C90.7965 71.1319 91.9628 70.5736 92.9301 69.5566L95.213 71.8919C93.7399 73.5667 91.6091 74.4815 89.3235 74.4815M89.1217 63.4681C87.5492 63.4681 86.2281 64.3829 85.9241 65.8532H92.2171C91.9131 64.4326 90.6445 63.4681 89.1217 63.4681ZM110.593 86.056C108.614 86.056 107.039 87.5788 107.039 89.6599C107.039 91.7409 108.611 93.214 110.593 93.214C112.575 93.214 114.147 91.6415 114.147 89.6599C114.147 87.5788 112.572 86.056 110.593 86.056ZM113.943 84.5829L114.349 82.8584H117.649V95.8534C117.649 98.3905 116.939 100.168 115.264 101.489C113.995 102.453 112.268 103.163 110.187 103.163C107.346 103.163 105.314 102.199 103.689 100.626L105.77 97.7327C106.785 98.6972 108.155 99.5595 109.933 99.5595C112.724 99.5595 113.943 98.1887 113.943 96.1601V95.1956C112.826 96.3619 111.508 96.8207 110.035 96.8207C106.177 96.8207 103.131 93.6728 103.131 89.6626C103.131 85.6525 106.279 82.6594 110.137 82.6594C111.71 82.6594 113.133 83.4222 113.943 84.5884M10.5906 48.1129C13.2991 49.3538 15.0375 50.9208 15.3525 51.1585C15.2088 50.4565 14.6754 47.0931 14.3687 44.9982C15.9467 46.0954 19.6114 48.638 20.8136 49.4643C21.3056 47.9498 23.008 43.0083 23.008 43.0083C23.008 43.0083 26.0813 47.9857 26.6064 48.7955C27.2476 48.1239 30.9233 44.0364 31.8741 43C32.0343 45.3519 32.2527 48.7181 32.3024 49.2239C32.4904 48.9724 33.8971 47.0019 36.2545 45.1833C35.232 47.1953 34.7456 49.9756 34.5272 52.2087C32.2085 51.5592 29.7626 51.211 27.2365 51.211C22.3917 51.211 17.8426 52.4878 13.9099 54.7209C13.1941 52.568 12.0748 49.8844 10.5906 48.1129ZM38.8276 76.1287L38.822 72.6658C38.822 72.6658 37.2771 72.1683 35.6217 70.8859C32.3052 71.3889 28.284 74.7247 28.284 74.7247C28.284 74.7247 29.6437 77.3005 31.1251 80.0781C33.7368 80.4373 37.5811 77.1457 38.822 76.1259L38.8276 76.1287ZM42.1661 82.4079C42.1661 82.4079 41.9008 80.9763 40.7649 79.6359L38.1781 79.6994C38.1781 79.6994 34.6875 82.7008 32.5567 82.7699C32.5567 82.7699 33.7313 84.9533 34.3199 86.0919C35.4945 85.8376 37.5563 84.909 38.3854 83.9473C38.3854 83.9473 38.9353 85.7188 38.8303 87.8054C39.9966 87.1255 41.6051 85.296 42.1689 82.4051L42.1661 82.4079ZM43.2274 71.0269C41.9229 72.1268 40.8147 72.7349 40.8147 72.7349L40.8257 76.2144C41.7626 77.2563 42.683 78.1186 43.3739 79.6911C44.6811 77.3392 44.4324 73.8735 43.2274 71.0269ZM43.5148 67.926L43.7193 66.3451C43.7884 65.4746 43.5646 64.0319 42.3458 62.534C40.834 60.837 37.0311 58.1065 35.2181 57.4515C35.2181 57.4515 35.0689 59.2009 34.4443 60.0439C30.8321 57.4349 29.0578 56.7827 29.0578 56.7827C25.0891 57.3492 22.541 58.8803 21.1563 60.0825L22.3641 61.1106C19.9735 61.8458 18.4203 63.902 18.4203 63.902C18.4368 63.9379 20.5566 64.2392 20.5566 64.2392C20.5566 64.2392 20.341 66.7293 23.4585 68.2908C26.1255 69.6257 29.9671 67.9702 33.582 69.4184C31.2025 66.674 29.5663 65.4469 29.5663 65.4469C29.5663 65.4469 28.6212 65.2507 27.9551 65.2535C27.126 65.259 25.8906 65.4248 24.5308 64.8942C23.8841 64.6427 23.1269 64.195 22.5354 63.8219C22.5354 63.8219 24.2047 62.1084 26.6396 61.7297C26.6396 61.7297 28.8367 62.3488 30.5806 63.6367C31.7386 62.5091 32.9464 62.545 32.9464 62.545C32.9464 62.545 31.7497 63.6643 32.1117 65.0185C33.8529 66.5718 35.7405 68.791 35.7405 68.791C37.664 67.7353 41.8428 67.9785 42.7023 68.9734C41.6134 67.5639 40.0464 66.3866 38.8331 65.3778C38.6866 64.85 37.3628 63.0038 37.1389 62.8352C37.1389 62.8352 38.3992 63.2249 39.5213 64.2309C39.8474 63.7721 40.4499 63.3023 41.2735 63.095C42.1219 63.8053 42.2684 64.8942 42.2463 65.0766C41.8621 65.5298 41.4918 65.7178 41.4918 65.7178L43.5259 67.9205L43.7304 66.3396M45.5434 69.2166C48.6471 74.9514 49.4016 81.822 47.2458 88.6677C47.116 88.5212 45.4743 86.6861 44.7944 85.9344C44.3633 92.6281 42.3928 97.8267 36.6442 102.218C36.6442 102.218 36.097 100.115 35.7764 98.7995C26.2969 105.747 18.1467 102.569 15.8555 101.428C17.6298 93.2914 16.2563 88.6207 15.0679 85.0583C12.5446 89.2038 9.96052 92.4236 7.38197 94.5986C5.61872 90.4807 5.4833 82.828 6.90937 78.3065C6.43678 78.4336 3.65095 79.3125 2.10603 79.7823C2.72787 75.6312 5.46948 70.0734 8.36585 67.3041C7.86009 67.2157 6.37598 67.0057 5.19863 66.8094C5.92273 65.3364 8.02315 62.6003 11.2429 60.0328C11.1489 61.8403 11.8205 64.0015 13.8657 65.0351C12.5695 62.7606 12.4119 59.9527 13.7634 58.4962C15.1204 57.0314 17.3977 57.5344 18.8514 58.673C18.5833 57.8826 17.9974 56.9678 17.1324 56.3653C21.1453 54.4971 26.015 53.4165 31.5369 54.2677C32.3881 55.0111 33.2974 56.0558 33.8004 56.7025C33.8225 56.2382 33.7561 55.3483 33.6097 54.6712C35.8676 55.2073 38.2251 56.0696 40.6682 57.3326C36.3181 52.9936 27.5018 51.6891 20.1448 53.7951C18.4203 54.2898 16.7841 54.942 15.2448 55.7131C13.6224 55.7325 12.5778 56.7246 11.9808 57.6035C7.27418 60.7265 3.8223 64.8361 2.15854 68.2797C2.52888 68.3599 3.64266 68.4981 4.67353 68.6749C2.57863 71.6763 -0.171274 77.3558 0.00836816 82.4548C0.486492 82.3111 3.05675 81.5235 4.31701 81.1144C3.64266 85.6138 3.83888 93.1726 6.75737 97.495C10.4331 94.8916 12.5639 92.1555 14.3355 89.6875C14.7915 91.9095 15.2365 95.8589 13.6694 102.403C14.9407 103.384 24.155 108.224 34.577 101.9L35.4475 105.336L36.5751 104.603C42.9179 100.483 45.3527 94.9165 46.2039 90.384C46.4969 90.7073 47.6494 91.9703 48.0639 92.3904C49.6558 88.0486 52.8369 77.6073 45.5434 69.2139V69.2166Z" fill="white"/>
</svg>
