<svg width="148" height="148" viewBox="0 0 148 148" fill="none" xmlns="http://www.w3.org/2000/svg">
<g filter="url(#filter0_d_135_157)">
<path d="M0 79.7793V66.5299H4.19944C6.93417 66.5299 8.98552 68.157 8.98552 70.9575C8.98552 73.758 6.96641 75.4496 4.19944 75.4496H2.57225V79.7793H0ZM2.57225 72.9754H4.06922C5.37147 72.9754 6.31529 72.2597 6.31529 70.9575C6.31529 69.6552 5.37147 68.9719 4.06922 68.9719H2.57225V72.9766V72.9754ZM39.034 71.0542H41.4425V79.7793H39.034V71.0542ZM40.2717 69.8822C39.4259 69.8822 38.7748 69.2311 38.7748 68.4175C38.7748 67.6039 39.4259 66.9205 40.2717 66.9205C41.1176 66.9205 41.7687 67.5717 41.7687 68.4175C41.7687 69.2633 41.1176 69.8822 40.2717 69.8822ZM35.4212 74.636C35.4212 73.6922 34.9003 73.1056 34.0867 73.1056C33.1429 73.1056 32.6542 73.6922 32.6542 74.6683V79.7793H30.2457V74.636C30.2457 73.6922 29.7248 73.1056 28.9112 73.1056C27.9674 73.1056 27.4787 73.6922 27.4787 74.6683V79.7793H25.0702V71.0542H27.186L27.4465 72.194C27.4465 72.194 27.9674 70.826 29.5945 70.826C30.6041 70.826 31.4499 71.249 32.0366 72.1283L32.1023 72.2263L32.1668 72.1283C33.0139 70.924 34.0557 70.826 34.7056 70.826C36.561 70.826 37.831 72.2263 37.831 74.2119V79.7793H35.4212V74.636ZM52.2524 79.7793V71.0542H54.336L54.5965 72.3242C54.9872 71.5106 55.7685 70.9575 56.8103 70.9575C57.0385 70.9575 57.2655 70.9897 57.4937 71.0555V73.3673C57.201 73.3015 56.9405 73.2693 56.6478 73.2693C55.4758 73.2693 54.6622 73.9862 54.6622 75.3851V79.7805H52.2537L52.2524 79.7793ZM9.79912 79.7793V71.0542H11.8827L12.1432 72.3242C12.5338 71.5106 13.3152 70.9575 14.357 70.9575C14.5852 70.9575 14.8122 70.9897 15.0404 71.0555V73.3673C14.7477 73.3015 14.4872 73.2693 14.1945 73.2693C13.0225 73.2693 12.2089 73.9862 12.2089 75.3851V79.7805H9.80035L9.79912 79.7793ZM47.0757 80.0075C44.3732 80.0075 42.3876 78.1521 42.3876 75.4496C42.3876 73.0076 44.1785 70.8273 47.01 70.8273C49.1258 70.8273 51.3074 72.4222 51.3074 75.3851C51.3074 75.6133 51.3074 75.906 51.2429 76.2322H44.8619C45.0901 77.2083 45.9682 77.8594 47.0434 77.8594C48.0195 77.8594 48.7686 77.501 49.3875 76.8499L50.8522 78.3468C49.9084 79.4209 48.5404 80.0075 47.0757 80.0075ZM46.9455 72.9431C45.9359 72.9431 45.0901 73.5297 44.8941 74.4736H48.9311C48.7364 73.562 47.9215 72.9431 46.9455 72.9431ZM19.8909 80.0075C17.1884 80.0075 15.2028 78.1521 15.2028 75.4496C15.2028 73.0076 16.9937 70.8273 19.8252 70.8273C21.941 70.8273 24.1226 72.4222 24.1226 75.3851C24.1226 75.6133 24.1226 75.906 24.0581 76.2322H17.6771C17.9053 77.2083 18.7846 77.8594 19.8587 77.8594C20.836 77.8594 21.5839 77.501 22.2027 76.8499L23.6674 78.3468C22.7236 79.4209 21.3569 80.0075 19.8909 80.0075ZM19.7607 72.9431C18.7511 72.9431 17.9053 73.5297 17.7093 74.4736H21.7463C21.5504 73.562 20.7368 72.9431 19.7607 72.9431ZM133.969 80.0063C132.048 80.0063 129.704 78.9645 129.704 75.7088V71.053H132.113V75.5451C132.113 77.0421 132.796 77.6932 133.968 77.6932C135.042 77.6932 135.823 76.9441 135.823 75.5451V71.053H138.232V75.7088C138.232 78.9645 135.856 80.0063 133.967 80.0063M113.231 80.0063C114.435 80.0063 115.413 79.4531 115.934 78.6718L116.194 79.7781H118.31V71.053H116.194L115.934 72.1928C115.413 71.3792 114.533 70.9228 113.231 70.9228C110.919 70.9228 108.902 72.9741 108.902 75.4149C108.902 77.8557 110.919 80.005 113.231 80.005M113.719 73.1043C114.989 73.1043 115.965 74.0804 115.965 75.4162C115.965 76.7519 114.989 77.6945 113.719 77.6945C112.449 77.6945 111.44 76.6849 111.44 75.4162C111.44 74.0817 112.416 73.1043 113.719 73.1043ZM98.646 79.7781V77.336H93.0463V66.5299H90.4741V79.7781H98.646ZM103.855 80.0063C105.32 80.0063 106.688 79.4209 107.632 78.3456L106.167 76.8486C105.548 77.4998 104.8 77.8582 103.823 77.8582C102.749 77.8582 101.869 77.2071 101.642 76.231H108.023C108.089 75.906 108.089 75.6121 108.089 75.3851C108.089 72.4222 105.908 70.8273 103.792 70.8273C100.959 70.8273 99.1694 73.0089 99.1694 75.4496C99.1694 78.1521 101.155 80.0075 103.857 80.0075M103.725 72.9406C104.701 72.9406 105.514 73.5595 105.71 74.4711H101.673C101.868 73.5273 102.715 72.9406 103.725 72.9406ZM143.768 80.0063C145.233 80.0063 146.601 79.4209 147.545 78.3456L146.08 76.8486C145.461 77.4998 144.713 77.8582 143.736 77.8582C142.662 77.8582 141.783 77.2071 141.554 76.231H147.936C148 75.906 148 75.6121 148 75.3851C148 72.4222 145.818 70.8273 143.703 70.8273C140.87 70.8273 139.079 73.0089 139.079 75.4496C139.079 78.1521 141.065 80.0075 143.767 80.0075M143.638 72.9406C144.615 72.9406 145.429 73.5595 145.624 74.4711H141.587C141.781 73.5273 142.629 72.9406 143.637 72.9406M124.006 73.1043C125.276 73.1043 126.285 74.0804 126.285 75.4162C126.285 76.7519 125.275 77.6945 124.006 77.6945C122.738 77.6945 121.728 76.6849 121.728 75.4162C121.728 74.0817 122.738 73.1043 124.006 73.1043ZM126.156 72.1593C125.635 71.4102 124.723 70.9228 123.714 70.9228C121.239 70.9228 119.222 72.8761 119.222 75.4149C119.222 77.9537 121.175 80.005 123.649 80.005C124.593 80.005 125.44 79.7123 126.156 78.9632V79.5821C126.156 80.8844 125.374 81.7637 123.583 81.7637C122.444 81.7637 121.566 81.2105 120.914 80.5917L119.58 82.4471C120.622 83.4566 121.924 84.0742 123.747 84.0742C125.082 84.0742 126.189 83.6191 127.003 83.0002C128.077 82.1544 128.533 81.0146 128.533 79.3862V71.0518H126.417L126.157 72.158M67.4863 62.2944C68.7017 62.8513 69.4818 63.5545 69.6232 63.6612C69.5587 63.3462 69.3193 61.8368 69.1817 60.8967C69.8899 61.3891 71.5344 62.5301 72.0739 62.9009C72.2947 62.2213 73.0574 60.0037 73.0574 60.0037C73.0574 60.0037 74.4366 62.2374 74.6722 62.6008C74.9599 62.2994 76.6095 60.4651 77.0361 60C77.108 61.0554 77.206 62.5661 77.2283 62.793C77.3127 62.6802 77.944 61.7959 79.0019 60.9798C78.543 61.8827 78.3247 63.1304 78.2267 64.1325C77.1862 63.841 76.0886 63.6847 74.955 63.6847C72.7808 63.6847 70.7394 64.2577 68.9746 65.2598C68.6533 64.2937 68.151 63.0894 67.485 62.2944H67.4863ZM80.1578 74.8667L80.1553 73.3127C80.1553 73.3127 79.462 73.0895 78.7191 72.514C77.2308 72.7397 75.4263 74.2367 75.4263 74.2367C75.4263 74.2367 76.0365 75.3926 76.7012 76.639C77.8733 76.8003 79.5984 75.3231 80.1553 74.8655L80.1578 74.8667ZM81.656 77.6845C81.656 77.6845 81.5369 77.0421 81.0272 76.4406L79.8663 76.4691C79.8663 76.4691 78.2999 77.816 77.3437 77.847C77.3437 77.847 77.8708 78.8268 78.135 79.3378C78.6621 79.2237 79.5873 78.807 79.9593 78.3754C79.9593 78.3754 80.2062 79.1703 80.159 80.1067C80.6824 79.8016 81.4042 78.9806 81.6572 77.6833L81.656 77.6845ZM82.1322 72.5772C81.5468 73.0709 81.0495 73.3437 81.0495 73.3437L81.0545 74.9052C81.4749 75.3727 81.8879 75.7597 82.198 76.4654C82.7846 75.4099 82.673 73.8547 82.1322 72.5772ZM82.2612 71.1857L82.353 70.4763C82.384 70.0856 82.2835 69.4382 81.7366 68.766C81.0582 68.0045 79.3516 66.7791 78.538 66.4852C78.538 66.4852 78.4711 67.2703 78.1908 67.6485C76.5698 66.4778 75.7735 66.1851 75.7735 66.1851C73.9926 66.4393 72.8491 67.1264 72.2277 67.6659L72.7697 68.1273C71.6969 68.4572 70.9999 69.3799 70.9999 69.3799C71.0073 69.396 71.9586 69.5312 71.9586 69.5312C71.9586 69.5312 71.8618 70.6487 73.2608 71.3494C74.4576 71.9484 76.1816 71.2055 77.8038 71.8554C76.736 70.6239 76.0017 70.0732 76.0017 70.0732C76.0017 70.0732 75.5776 69.9852 75.2787 69.9864C74.9066 69.9889 74.3522 70.0633 73.742 69.8252C73.4518 69.7123 73.112 69.5114 72.8466 69.3439C72.8466 69.3439 73.5957 68.575 74.6883 68.4051C74.6883 68.4051 75.6743 68.6829 76.4569 69.2609C76.9766 68.7548 77.5186 68.771 77.5186 68.771C77.5186 68.771 76.9815 69.2733 77.144 69.881C77.9254 70.578 78.7724 71.5739 78.7724 71.5739C79.6356 71.1001 81.5109 71.2093 81.8966 71.6558C81.4079 71.0232 80.7047 70.4949 80.1603 70.0422C80.0945 69.8053 79.5005 68.9768 79.4 68.9012C79.4 68.9012 79.9655 69.0761 80.4691 69.5275C80.6154 69.3216 80.8858 69.1108 81.2554 69.0178C81.6361 69.3365 81.7019 69.8252 81.692 69.907C81.5196 70.1104 81.3534 70.1948 81.3534 70.1948L82.2662 71.1832L82.358 70.4738M83.1716 71.7649C84.5643 74.3384 84.9029 77.4216 83.9355 80.4937C83.8773 80.428 83.1406 79.6044 82.8355 79.2671C82.642 82.2709 81.7577 84.6038 79.178 86.5746C79.178 86.5746 78.9324 85.6307 78.7886 85.0404C74.5345 88.1583 70.8771 86.7321 69.8489 86.2199C70.6452 82.5686 70.0288 80.4726 69.4955 78.8739C68.3631 80.7343 67.2035 82.1792 66.0464 83.1552C65.2551 81.3073 65.1943 77.8731 65.8343 75.844C65.6222 75.9011 64.372 76.2955 63.6787 76.5063C63.9578 74.6435 65.1881 72.1494 66.4879 70.9066C66.2609 70.867 65.5949 70.7727 65.0666 70.6846C65.3915 70.0236 66.3341 68.7958 67.779 67.6436C67.7368 68.4559 68.0382 69.4246 68.956 69.8897C68.3743 68.8689 68.3036 67.6089 68.9101 66.9553C69.519 66.2979 70.541 66.5236 71.1934 67.0346C71.073 66.6799 70.8101 66.2694 70.4219 65.999C72.2227 65.1606 74.408 64.6757 76.886 65.0577C77.268 65.3913 77.6761 65.8601 77.9018 66.1503C77.9117 65.942 77.8819 65.5426 77.8162 65.2388C78.8295 65.4794 79.8874 65.8663 80.9838 66.4331C79.0316 64.4859 75.0753 63.9005 71.7738 64.8456C70.9999 65.0676 70.2656 65.3603 69.5748 65.7063C68.8468 65.715 68.378 66.1603 68.1101 66.5547C65.998 67.9561 64.4489 69.8004 63.7023 71.3457C63.8685 71.3817 64.3683 71.4437 64.8309 71.523C63.8871 72.8699 62.6531 75.4199 62.7337 77.7081C62.9482 77.6436 64.1017 77.2901 64.6672 77.1066C64.3646 79.1257 64.4527 82.5177 65.7623 84.4575C67.4119 83.2892 68.3681 82.0613 69.1631 80.9538C69.3677 81.951 69.5674 83.7233 68.8642 86.6601C69.4347 87.1004 73.5696 89.2721 78.2466 86.4344L78.6372 87.976L79.1433 87.6474C81.9896 85.7982 83.0823 83.3003 83.4642 81.2664C83.5957 81.4115 84.1129 81.9782 84.2989 82.1668C85.0133 80.2183 86.4408 75.5327 83.1678 71.7661L83.1716 71.7649Z" fill="white"/>
</g>
<defs>
<filter id="filter0_d_135_157" x="0" y="0" width="148" height="148" filterUnits="userSpaceOnUse" color-interpolation-filters="sRGB">
<feFlood flood-opacity="0" result="BackgroundImageFix"/>
<feColorMatrix in="SourceAlpha" type="matrix" values="0 0 0 0 0 0 0 0 0 0 0 0 0 0 0 0 0 0 127 0" result="hardAlpha"/>
<feOffset/>
<feComposite in2="hardAlpha" operator="out"/>
<feColorMatrix type="matrix" values="0 0 0 0 0 0 0 0 0 0 0 0 0 0 0 0 0 0 1 0"/>
<feBlend mode="normal" in2="BackgroundImageFix" result="effect1_dropShadow_135_157"/>
<feBlend mode="normal" in="SourceGraphic" in2="effect1_dropShadow_135_157" result="shape"/>
</filter>
</defs>
</svg>
