<svg width="148" height="148" viewBox="0 0 148 148" fill="none" xmlns="http://www.w3.org/2000/svg">
<g filter="url(#filter0_d_716_200)">
<path fill-rule="evenodd" clip-rule="evenodd" d="M91.9844 69.4237C93.6007 68.7902 95.2173 68.8627 96.7754 69.6707C97.1973 69.8853 97.3879 70.1421 97.3945 70.1512C97.3843 70.1757 96.7381 71.7285 96.543 72.2703C94.81 71.251 93.4774 71.2657 92.6328 72.2996C91.7812 73.3409 91.8465 75.3282 92.7637 76.2821C93.7757 77.3304 95.3489 77.2575 97.1035 76.0125C97.1035 76.8036 97.0958 78.5494 97.0957 78.5614C97.0845 78.5687 96.8801 78.703 96.7031 78.8162C93.6452 80.7309 89.3569 78.5977 89.0215 74.994C88.7739 72.3365 89.8513 70.2612 91.9844 69.4237ZM51.5879 69.0516C54.7043 69.0516 56.838 71.5136 56.8525 74.2586C56.8667 77.3382 54.7114 79.4929 51.6172 79.493C48.4645 79.5002 46.3165 77.3743 46.3164 74.2508C46.3237 71.1709 48.4643 69.0517 51.5879 69.0516ZM113.741 69.533C115.736 69.533 117.447 70.7344 117.447 73.0789C117.447 75.1392 116.064 76.362 113.741 76.5877C113.13 76.6605 112.875 76.6103 112.161 76.6248V79.4715H109.117V69.533H113.741ZM107.246 69.2557C107.282 69.3284 107.334 69.387 107.334 69.4452C107.327 71.5783 107.385 73.7192 107.275 75.8524C107.173 77.8182 105.834 79.1438 103.875 79.3768C103.249 79.4496 102.586 79.4572 101.968 79.3553C99.9437 79.0349 98.7197 77.7455 98.6104 75.6268C98.5012 73.5445 98.5889 71.4474 98.5889 69.2996H101.684V70.0203C101.684 71.8479 101.683 73.6762 101.69 75.5037C101.691 76.1078 101.851 76.6542 102.484 76.8944C103.402 77.2509 104.232 76.6609 104.254 75.5692C104.272 74.6553 104.275 73.7408 104.275 72.827V69.2557H107.246ZM7.68164 69.285C7.42682 69.9621 7.17963 70.6397 6.9248 71.3241C6.88859 71.4256 6.91707 71.411 6.79395 71.411H3.25488C3.22576 71.411 3.19612 71.4115 3.16699 71.4188V73.4569H6.21777C6.20328 73.4859 6.19671 73.5083 6.18945 73.5301C5.92008 74.2145 5.6576 74.8917 5.39551 75.576C5.37367 75.6341 5.34433 75.6493 5.28613 75.6493H3.16016V78.6639C3.16741 78.8603 3.16699 79.0716 3.16699 79.2752H0V69.2264H7.69629C7.68907 69.2481 7.68889 69.2632 7.68164 69.285ZM11.8027 79.2752H8.66504C8.66504 79.2534 8.67183 79.2384 8.67188 79.2166C8.67188 75.8966 8.67969 72.5836 8.67969 69.2635V69.2264H11.8027V79.2752ZM21.6689 69.2557C21.4068 69.9473 21.1445 70.6392 20.8896 71.3309C20.8678 71.3963 20.8389 71.411 20.7734 71.411H17.1406V73.4569H20.1982C20.191 73.4787 20.184 73.5015 20.1768 73.5233C19.9074 74.2076 19.6375 74.8995 19.3682 75.5838C19.3464 75.6343 19.3245 75.6492 19.2666 75.6493H17.1328V79.2752H13.9805V69.2196H21.6768C21.6767 69.2339 21.669 69.2414 21.6689 69.2557ZM26.8828 69.285C28.0551 72.5396 29.2272 75.8018 30.3994 79.0565C30.414 79.122 30.4436 79.1951 30.4727 79.2606C30.4581 79.2678 30.4354 79.2752 30.4209 79.2752H27.3555C27.2244 78.8458 27.0935 78.4088 26.9697 77.9793C26.9552 77.9356 26.9406 77.9207 26.8896 77.9207H23.4746C23.4312 77.9208 23.4091 77.9358 23.3945 77.9793C23.3218 78.2485 23.2349 78.5183 23.1621 78.7948C23.1185 78.9548 23.0749 79.1152 23.0312 79.2752H20.0088C20.0161 79.2534 20.0162 79.2384 20.0234 79.2166C21.1738 76.0057 22.3247 72.7948 23.4824 69.5838C23.5261 69.4674 23.5628 69.3501 23.6064 69.2264H26.8604C26.8676 69.2481 26.8756 69.2632 26.8828 69.285ZM62.998 69.2703C65.2622 69.2705 66.8132 70.6538 66.8135 72.7723C66.8134 74.5269 65.6767 75.2556 64.6064 75.6561C65.4292 76.8283 66.267 77.9937 67.1553 79.2606C66.0414 79.2606 64.9056 79.297 63.9082 79.2606L61.8838 76.1004H61.2725V79.2606H58.2432C58.2432 75.9404 58.2139 72.4959 58.2139 69.2703H62.998ZM46.1631 69.2196C46.143 69.2942 43.4686 79.2528 43.4033 79.2528C43.3715 79.2599 41.5639 79.2606 40.877 79.2606L39.5156 74.0106C39.326 74.6452 38.1025 79.2606 38.1025 79.2606H35.5693C34.8922 76.7778 33.77 72.4237 33.1074 69.9334C33.0492 69.7297 33.0133 69.5181 32.9551 69.2635H36.0059L37.251 74.5203L38.6631 69.2635H40.4551C40.7536 70.3702 41.8506 74.5132 41.8525 74.5203C41.8525 74.5203 42.8792 70.3124 43.127 69.2196H46.1631ZM71.4443 77.0028H75.4492C75.1725 77.76 74.8075 78.6563 74.5527 79.2606C74.4983 79.2604 70.3758 79.2459 68.4082 79.2459V69.2782H71.4443V77.0028ZM80.3779 69.2703C83.6545 69.2703 85.6133 71.4621 85.6133 74.2508C85.6131 76.9957 83.5889 79.2606 80.3779 79.2606C78.6963 79.2606 78.0408 79.2606 76.3154 79.2606V69.2703H80.3779ZM130.853 69.1981C132.694 69.1982 134.187 70.6902 134.188 72.5321C134.187 74.374 132.695 75.8669 130.853 75.867H134.188V79.202H120.841V75.867C120.841 74.025 122.334 72.5321 124.176 72.5321H120.841C120.841 70.6901 122.334 69.1981 124.176 69.1981H130.853ZM144.665 69.1981C146.507 69.1981 148 70.6901 148 72.5321H144.665C146.507 72.5321 148 74.025 148 75.867C148 77.709 146.5 79.2019 144.665 79.202H137.988C136.146 79.2019 134.653 77.709 134.653 75.867V72.5321C134.654 70.6901 136.146 69.1981 137.988 69.1981H144.665ZM51.624 71.4403C50.6486 71.4258 49.9279 71.9064 49.6221 72.8455C49.2872 73.8575 49.2793 74.8847 49.6943 75.8748C50.0438 76.712 50.7145 77.1125 51.6172 77.1053C52.498 77.098 53.1532 76.6972 53.4736 75.8748C53.6629 75.3725 53.7646 74.855 53.7646 74.3162C53.7646 73.8212 53.6993 73.3042 53.5537 72.8455C53.2552 71.9281 52.5633 71.4475 51.624 71.4403ZM79.3662 71.4989V77.0399H80.3779C81.4555 77.0399 82.577 75.7798 82.5771 74.2508C82.5771 72.3941 81.5138 71.4989 80.3779 71.4989C79.9851 71.4989 79.8465 71.4843 79.3662 71.4989ZM23.9697 75.991H26.4316C26.0166 74.6004 25.6015 73.2094 25.1865 71.826H25.1719C24.7714 73.2167 24.3702 74.6004 23.9697 75.991ZM112.197 74.4256H113.319C114.083 74.4253 114.44 73.7267 114.44 73.0789C114.44 72.3145 114.04 71.7389 113.145 71.7606C113.146 71.7667 112.984 71.7459 112.197 71.7244V74.4256ZM61.2725 74.1268H62.5244C63.3034 74.1268 63.7762 73.5805 63.7764 72.8016C63.7763 71.9208 63.3104 71.4764 62.5605 71.4764H61.2793C61.272 72.3936 61.2725 73.2387 61.2725 74.1268Z" fill="black"/>
</g>
<defs>
<filter id="filter0_d_716_200" x="0" y="0" width="148" height="148" filterUnits="userSpaceOnUse" color-interpolation-filters="sRGB">
<feFlood flood-opacity="0" result="BackgroundImageFix"/>
<feColorMatrix in="SourceAlpha" type="matrix" values="0 0 0 0 0 0 0 0 0 0 0 0 0 0 0 0 0 0 127 0" result="hardAlpha"/>
<feOffset/>
<feComposite in2="hardAlpha" operator="out"/>
<feColorMatrix type="matrix" values="0 0 0 0 0 0 0 0 0 0 0 0 0 0 0 0 0 0 1 0"/>
<feBlend mode="normal" in2="BackgroundImageFix" result="effect1_dropShadow_716_200"/>
<feBlend mode="normal" in="SourceGraphic" in2="effect1_dropShadow_716_200" result="shape"/>
</filter>
</defs>
</svg>
