<svg width="148" height="148" viewBox="0 0 148 148" fill="none" xmlns="http://www.w3.org/2000/svg">
<g clip-path="url(#clip0_100_285)">
<path fill-rule="evenodd" clip-rule="evenodd" d="M83.2542 1.68986L83.2541 1.68994C83.0672 2.14215 82.8811 2.59256 82.6145 2.98633C81.5968 4.49903 80.5535 5.99257 79.5095 7.48721L79.5094 7.48734L79.5093 7.48746L79.5092 7.48759L79.5091 7.48772L79.509 7.48784L79.509 7.48797L79.5089 7.48809L79.5088 7.48822C79.0726 8.11266 78.6363 8.73729 78.2016 9.36359C78.8171 9.72384 79.3827 10.0552 79.9173 10.3684L79.9263 10.3737L79.9334 10.3779L79.9403 10.3819L79.9465 10.3855L79.9481 10.3865C80.8497 10.9147 81.6635 11.3915 82.4798 11.8683C82.4574 11.9518 82.4333 12.0336 82.4092 12.1155C82.3852 12.1974 82.3611 12.2793 82.3387 12.3628C78.7404 11.0976 75.1421 11.149 71.5438 12.2729C71.515 12.1926 71.4846 12.114 71.4541 12.0354L71.4541 12.0352L71.454 12.035L71.4538 12.0346C71.4234 11.9562 71.393 11.8777 71.3643 11.7976C71.7719 11.5557 72.1788 11.3137 72.5847 11.0724L72.5853 11.0721L72.5874 11.0708L72.5892 11.0697C73.4206 10.5754 74.2472 10.084 75.0652 9.60121C75.0979 8.98432 75.1305 8.36202 75.1634 7.73567L75.1635 7.7336C75.2597 5.90231 75.3577 4.03651 75.4628 2.17071C75.527 1.08535 78.8559 -0.565159 79.632 0.179818C79.9655 0.500929 79.927 1.36793 79.8244 1.94593M83.2542 1.68986L83.2542 1.6897L83.2542 1.68986ZM83.2542 1.6897C83.3417 1.47821 83.4292 1.26633 83.5253 1.05966L83.2542 1.6897ZM83.5253 1.05966L83.5381 1.04682L83.5253 1.05966ZM83.5381 1.04682C83.4483 0.998653 83.3601 0.948884 83.272 0.899114L83.5381 1.04682ZM83.272 0.899114C83.1838 0.849339 83.0956 0.799564 83.0058 0.751395L83.272 0.899114ZM83.0058 0.751395C82.3968 1.24236 81.7863 1.73172 81.1758 2.22107L83.0058 0.751395ZM81.1758 2.22107L81.1754 2.22137L81.1758 2.22107ZM81.1754 2.22137L81.1745 2.22208L81.1754 2.22137ZM81.1745 2.22208L81.1736 2.22286L81.1745 2.22208ZM81.1736 2.22286L81.1732 2.22315L81.1736 2.22286ZM81.1732 2.22315L81.1723 2.22386L81.1732 2.22315ZM81.1723 2.22386C80.5621 2.71296 79.9519 3.20206 79.3433 3.69277L81.1723 2.22386ZM79.3433 3.69277C79.3315 3.24189 79.4802 2.886 79.6187 2.55459L79.3433 3.69277ZM56.3252 20.9612L56.3683 20.9018C57.685 19.0846 58.8547 17.4703 60.903 16.7107C63.4237 15.7731 64.6552 16.3125 65.566 18.7915C67.3298 23.576 68.5036 28.4762 68.1444 33.6076C67.7596 39.0857 65.6686 43.6519 60.9863 46.5355C61.9228 44.1785 62.8977 41.7188 63.8598 39.2527C63.9446 39.0426 63.9798 38.8108 64.0149 38.5789L64.0149 38.5788C64.0302 38.4775 64.0456 38.3761 64.0651 38.2765C64.373 36.6453 63.9561 35.6627 62.2371 34.847C57.4201 32.5607 54.5595 28.4505 52.7379 23.5504C52.6886 23.416 52.6475 23.2793 52.6066 23.1433C52.5517 22.9607 52.4971 22.7793 52.4236 22.6063C52.3314 22.3896 52.1906 22.1535 52.051 21.9196C51.773 21.4535 51.5001 20.9961 51.6283 20.7182L51.6439 20.6842C52.3127 19.2363 53.0213 17.7023 54.816 17.2052C55.7461 16.9483 56.5735 17.8538 56.4901 19.0933C56.4564 19.5654 56.4119 20.0374 56.3674 20.5095L56.3674 20.5095C56.3532 20.66 56.339 20.8106 56.3252 20.9612ZM64.1421 33.2864C63.9047 28.7973 62.84 24.9247 59.7677 21.7008C57.9012 25.3422 59.8254 30.5763 64.1421 33.2864ZM68.4074 40.4279L68.4082 40.4212C75.2966 38.27 81.8579 38.3729 88.1499 42.2004C88.1499 41.9746 88.1552 41.774 88.1601 41.5901V41.5901C88.1694 41.2406 88.1771 40.9517 88.1434 40.6655C87.4828 34.8534 87.6432 29.1312 89.7341 23.5632C89.9009 23.12 89.5289 22.1824 89.1056 21.8484C85.2764 18.8236 80.8378 17.5777 76.0209 17.8923C73.1666 18.0786 70.3316 18.5795 68.106 19.7355L68.1521 20.089L68.1524 20.091C68.8151 25.1679 69.4423 29.9728 70.0879 34.9433C74.5713 33.5882 79.4781 33.6782 84.3014 35.1488C84.4736 34.5525 84.6411 33.9714 84.8053 33.4016L84.8071 33.3955C85.2543 31.8444 85.6773 30.3769 86.1038 28.9129C86.117 28.9195 86.1306 28.9265 86.1444 28.9338C86.1575 28.9406 86.1707 28.9476 86.184 28.9546C86.2112 28.9691 86.2385 28.9835 86.2641 28.9964C86.0461 31.8286 85.828 34.6672 85.6035 37.615C81.1329 35.5663 76.5404 35.3929 71.871 36.3434C69.0765 36.921 68.7927 37.2997 68.4082 40.4212L68.4074 40.4215V40.4279ZM69.4775 54.3228L69.4774 54.3228C68.0863 53.5832 66.7285 52.8612 65.5981 51.8785C62.917 49.5409 63.0132 46.0857 65.9252 44.0049C67.843 42.637 70.2419 41.7443 72.5573 41.1856C76.2198 40.3057 79.9207 40.6461 83.5574 41.8214C85.2443 42.3672 85.9755 43.4269 85.7831 45.0068C85.6345 46.2148 85.3312 47.4038 85.0327 48.5738L85.0326 48.5738C84.9058 49.0709 84.7799 49.5645 84.6671 50.0546C86.3219 48.7895 87.1301 46.8307 87.5919 44.66C89.561 45.9316 89.9907 48.5968 88.5604 50.7739C86.9184 53.2722 84.3399 54.2419 81.6204 54.9869C80.9597 52.6942 79.8309 52.0006 76.7906 51.9941C73.4232 51.9813 72.2559 52.6299 71.4221 55.3915H71.4156C70.7753 55.0129 70.1228 54.666 69.4775 54.3228ZM76.3031 71.7747C75.259 71.7747 74.2152 71.7759 73.1716 71.7771C70.042 71.7807 66.9143 71.7843 63.7829 71.7554C63.4091 71.7554 63.0352 71.6105 62.6614 71.4655L62.6613 71.4655C62.49 71.3991 62.3187 71.3326 62.1473 71.2802C62.218 71.0886 62.282 70.893 62.346 70.6973L62.346 70.6972C62.4794 70.2892 62.613 69.8809 62.808 69.5077C64.3322 66.5779 67.2059 66.1927 69.9627 65.8231L69.9658 65.8227C70.0966 65.8052 70.2272 65.7877 70.3573 65.7699C75.3346 65.0956 80.3183 65.1983 85.2764 66.258C87.5534 66.7461 89.2467 67.8315 90.3627 69.8352C90.5872 70.2462 90.8823 70.9334 90.7091 71.171C90.4525 71.5242 89.8047 71.7362 89.3237 71.7426C85.8548 71.7734 82.3818 71.7714 78.908 71.7693C78.0398 71.7688 77.1715 71.7683 76.3031 71.7683V71.7747ZM87.3867 65.7935L87.393 65.7956H87.3866L87.3867 65.7935ZM84.4938 60.9789C86.0326 61.4861 87.4881 63.989 87.3867 65.7935C80.0383 63.413 72.8118 63.4521 65.5788 65.7699C65.4826 64.0359 66.9642 61.5055 68.4715 60.9982C73.808 59.2064 79.1573 59.2192 84.4938 60.9789ZM62.8272 67.703C57.8563 62.0322 54.412 56.3164 58.2347 48.4492C52.2248 54.2485 53.0586 62.9699 58.3887 69.7838C59.2482 67.9599 60.8324 67.4782 62.8272 67.703ZM93.4422 27.3166L93.4429 27.3146C93.5837 26.9249 93.7419 26.4867 93.8969 26.0485C94.0742 26.1218 94.2607 26.1847 94.4473 26.2476C94.8818 26.3941 95.3165 26.5406 95.6351 26.8192C96.2252 27.3394 96.6742 27.8981 96.1162 28.9449C95.5948 29.9318 95.1774 30.9754 94.7601 32.0188L94.7601 32.0188L94.76 32.019C94.3355 33.0805 93.911 34.1416 93.3774 35.1424C92.5435 36.6966 91.2094 37.8911 89.298 38.4948C88.5283 34.1084 89.0286 30.0496 90.5423 25.6118C91.2834 26.1913 91.9434 26.7108 92.5246 27.1682L92.5251 27.1686L92.5267 27.1699L92.5299 27.1724L92.5429 27.1826L92.5457 27.1848C92.8068 27.3903 93.0519 27.5832 93.2811 27.7633C93.3285 27.6315 93.3798 27.4895 93.4337 27.3403L93.4422 27.3166ZM90.2565 36.0446L90.257 36.0447C90.3291 36.0672 90.4013 36.0897 90.4718 36.1121C91.8636 34.5837 92.5307 32.8304 92.1394 30.7367C92.0561 30.7111 91.9743 30.6854 91.8925 30.6597L91.8919 30.6595C91.8103 30.6339 91.7287 30.6082 91.6456 30.5826C91.3795 31.4815 91.1118 32.3803 90.844 33.2791C90.5762 34.1785 90.3083 35.0779 90.0421 35.9773C90.1125 35.9997 90.1845 36.0221 90.2565 36.0446ZM67.1993 17.7302L67.1952 17.7382V17.7317L67.1993 17.7302ZM86.3924 17.8088C79.999 15.1121 73.644 15.3169 67.1993 17.7302C69.2783 13.7425 73.0218 12.9407 76.9702 12.8765C80.8828 12.8187 84.3464 13.9812 86.3924 17.8088ZM90.4461 46.1116L90.4587 46.1262C92.6305 51.3153 91.1163 55.6519 87.5726 59.2065C88.2122 59.5155 88.8376 59.8183 89.4629 60.1209L89.4714 60.1251L89.4776 60.1281C90.1078 60.4331 90.738 60.7382 91.3826 61.0496C94.5348 56.7835 94.2823 50.595 90.4587 46.1262L90.4525 46.1116H90.4461ZM85.1226 59.5578L85.1288 59.5597V59.5661L85.1226 59.5578ZM75.3282 55.9954C79.0324 55.8414 82.6086 56.2195 85.1226 59.5578C79.3392 57.8193 73.6199 57.9163 67.8365 59.8294C68.7409 57.6138 71.531 56.1495 75.3282 55.9954ZM91.6179 65.6136L91.6081 65.6081L90.3883 64.9287C93.0758 62.2892 94.9679 58.8854 95.1411 54.5825C97.0782 58.2496 96.4303 63.7213 93.8711 66.8682C93.0852 66.431 92.3586 66.0263 91.6179 65.6136ZM64.373 60.3816C61.5957 58.1467 59.633 55.3402 59.0429 51.3584C57.5035 54.6273 58.4849 60.1055 60.4989 62.0064C61.8908 61.422 63.1158 60.9082 64.373 60.3816ZM60.8388 43.0546L60.8384 43.0517L60.8383 43.0516C60.4601 40.5159 60.0818 37.98 59.6907 35.3416C59.9187 35.4644 60.1456 35.5797 60.3694 35.6934L60.3696 35.6936L60.3697 35.6936C60.8946 35.9605 61.4019 36.2183 61.865 36.5425C62.1537 36.748 62.4487 37.2618 62.391 37.5701C62.1254 39.0303 61.801 40.4748 61.4761 41.9221C61.3851 42.3271 61.2941 42.7323 61.2044 43.1381C61.1435 43.1221 61.0826 43.1076 61.0216 43.0932C60.9607 43.0787 60.8997 43.0643 60.8388 43.0482V43.0546ZM62.7886 76.1611V81.6907C62.524 81.7062 62.2719 81.7197 62.0274 81.7328L62.0273 81.7328C61.6673 81.7521 61.3235 81.7705 60.9798 81.7934C56.6439 82.0696 53.392 84.9531 52.9494 89.1147C52.5197 93.1286 54.4311 96.7443 58.8632 97.9003C61.8713 98.6839 64.732 98.1123 67.5285 97.0012C67.6889 96.937 67.83 96.6031 67.83 96.3911C67.8333 96.0108 67.8124 95.6322 67.7916 95.2544V95.2543V95.2543V95.2542V95.2541C67.7723 94.9048 67.753 94.5562 67.753 94.2076V77.0859C67.753 76.8875 67.7419 76.6862 67.7307 76.4822V76.4821V76.482L67.7307 76.4818C67.7248 76.3756 67.7189 76.2688 67.7145 76.1611H62.7886ZM62.5974 92.0074L62.5974 92.0133C62.5968 92.5167 62.5961 93.0211 62.5961 93.5268H62.6026C59.9087 94.2461 58.1512 92.9488 58.0999 90.3029V89.5771C58.1576 86.8541 59.9151 86.1027 62.0894 86.2247C62.269 86.2376 62.5769 86.5651 62.5769 86.745C62.6018 88.4922 62.5996 90.2433 62.5974 92.0074ZM93.0603 81.578L93.06 81.578C92.6335 81.5956 92.2004 81.6134 91.7609 81.6136V80.708C91.7651 80.433 91.7688 80.1581 91.7724 79.8831C91.7851 78.9189 91.7979 77.9555 91.8378 76.996C91.8635 76.4373 91.7031 76.2061 91.113 76.2189C89.8046 76.251 88.4961 76.2446 87.1876 76.2189C86.6809 76.2061 86.5142 76.3795 86.5142 76.8868C86.527 83.4182 86.527 89.9432 86.5142 96.4746C86.5142 96.9434 86.6873 97.1489 87.1299 97.2966C89.5095 98.0737 91.934 98.4526 94.4291 98.1123C97.0332 97.759 99.1883 96.6416 100.497 94.2461C101.626 92.1846 101.869 89.9496 101.542 87.6762C101.055 84.3173 99.0793 82.2301 95.744 81.6521C94.8841 81.5028 93.9881 81.5397 93.0603 81.578ZM91.8442 90.0331C91.8442 90.3083 91.8494 90.5847 91.8546 90.8614C91.8667 91.5079 91.8789 92.156 91.825 92.7947C91.7673 93.5011 92.0944 93.6873 92.6845 93.6938C94.0507 93.7195 95.2886 93.3855 95.9492 92.0946C96.7253 90.579 96.7766 88.9799 95.8145 87.5284C94.9935 86.2825 93.6594 86.1541 92.306 86.3468C92.1265 86.3724 91.8699 86.7064 91.8635 86.9055C91.8305 87.6685 91.8356 88.435 91.8406 89.1999V89.2V89.2003V89.2009V89.2016V89.2022C91.8424 89.4795 91.8442 89.7565 91.8442 90.0331ZM54.0655 97.8618H54.0643C54.0546 97.8111 54.0473 97.7688 54.0411 97.7327C54.0273 97.6531 54.0188 97.6036 54.0014 97.56C51.1599 90.7075 48.3185 83.855 45.4514 77.0089C45.3616 76.8034 44.996 76.585 44.7587 76.585C43.9704 76.5696 43.182 76.5704 42.3936 76.5713H42.3927C41.533 76.5721 40.6732 76.573 39.8135 76.5529C39.2234 76.5336 38.9284 76.7134 38.691 77.2786C36.4711 82.559 34.2283 87.8349 31.9858 93.11L31.9857 93.1104L31.9844 93.1133L31.9843 93.1135L31.9843 93.1135L31.9842 93.1139L30.744 96.0315C30.6018 96.3674 30.4658 96.7054 30.3266 97.0513L30.3261 97.0527L30.3259 97.0532C30.2205 97.3151 30.1132 97.5817 30 97.8554H44.4829C44.448 97.7505 44.4189 97.6553 44.3918 97.5668L44.3918 97.5666C44.3493 97.4276 44.3119 97.3052 44.2648 97.1875C44.1044 96.7778 43.9398 96.3697 43.7752 95.9618L43.7751 95.9616L43.775 95.9614C43.4856 95.2442 43.1965 94.5275 42.9307 93.803C42.764 93.3341 42.5074 93.1864 42.0199 93.1993C41.0964 93.2266 40.1697 93.2216 39.2008 93.2164H39.2007H39.2006H39.2006H39.2005C38.8035 93.2143 38.3993 93.2121 37.9855 93.2121C38.4819 92.007 38.9723 90.8157 39.4624 89.6252L39.4686 89.61L39.4746 89.5954L39.4749 89.5948L39.475 89.5945C40.3231 87.5342 41.1703 85.4761 42.0456 83.354C42.1477 83.6015 42.2396 83.8219 42.3252 84.0271L42.3257 84.0282C42.4443 84.3125 42.5507 84.5675 42.6549 84.8247C43.1 85.9389 43.5447 87.0535 43.9893 88.1683L43.9903 88.1707L43.9906 88.1714C45.1987 91.2 46.4071 94.2293 47.6258 97.2517C47.7156 97.4893 47.9529 97.8361 48.1325 97.8361C49.6955 97.8669 51.2585 97.8649 52.8542 97.8628H52.8545L52.8659 97.8628C53.2632 97.8623 53.6625 97.8618 54.0643 97.8618L54.0655 97.8682V97.8618ZM85.3276 89.9432C85.2892 90.216 85.2577 90.4906 85.2262 90.765C85.1525 91.4077 85.0789 92.0496 84.9171 92.6662C84.0447 96.07 81.5561 98.0673 77.8937 98.215C76.675 98.2664 75.4178 98.1187 74.2312 97.8361C71.9414 97.2838 70.4341 95.7681 69.658 93.5525C68.9717 91.5808 68.8883 89.545 69.3694 87.522C70.1776 84.1311 72.8137 81.9925 76.3928 81.8191C77.4254 81.7677 78.4902 81.8191 79.4972 82.0246C82.7812 82.7053 84.885 85.1779 85.1672 88.5496C85.1963 88.8994 85.2144 89.2456 85.2326 89.5937C85.2385 89.7057 85.2443 89.8178 85.2506 89.9303C85.2762 89.9303 85.3019 89.9368 85.3211 89.9432H85.3276ZM79.9725 89.3643L79.9725 89.3638L79.9725 89.3637C79.9156 88.9053 79.8629 88.4809 79.7537 88.0743C79.433 86.8734 78.5864 86.2632 77.2972 86.199C76.0592 86.1348 75.0843 86.7128 74.661 87.8367C74.1414 89.2239 74.1286 90.6368 74.6482 92.024C75.0587 93.1286 76.0079 93.7194 77.1945 93.7002C78.3619 93.6809 79.2663 93.1029 79.6447 91.9983C79.8004 91.544 79.879 91.0649 79.9531 90.6126L79.9532 90.6124L79.9532 90.6121C79.986 90.4124 80.0179 90.2179 80.0552 90.0331H80.0616C80.0268 89.8016 79.9992 89.5792 79.9725 89.3643ZM110.047 93.4561C109.137 93.0707 108.399 92.4863 108.001 91.4395C108.113 91.4349 108.215 91.4296 108.31 91.4245L108.311 91.4245C108.484 91.4154 108.635 91.4074 108.784 91.4074H115.769C117.231 91.4074 117.962 90.6646 117.962 89.1789C117.962 85.3833 114.896 82.0823 111.118 81.8126C107.597 81.5686 104.608 83.3411 103.357 86.4173C101.959 89.8468 102.851 93.8607 105.481 96.0763C108.611 98.7159 113.293 98.5746 116.577 97.2131C116.712 97.1617 116.885 96.9819 116.885 96.8599C116.9 95.8245 116.899 94.789 116.898 93.7177C116.898 93.4468 116.898 93.1735 116.898 92.8973C116.432 93.0147 115.98 93.1307 115.535 93.2449L115.532 93.2458C114.98 93.3876 114.439 93.5265 113.896 93.6616C112.594 93.9891 111.298 93.9891 110.047 93.4561ZM113.094 88.1642H108.065C108.277 86.6871 109.258 85.8329 110.58 85.8779C111.901 85.9228 112.991 86.899 113.094 88.1642ZM107.071 123.93H111.561H111.574C111.574 123.491 111.575 123.061 111.575 122.638C111.577 121.811 111.578 121.01 111.574 120.211C111.567 119.162 111.564 118.112 111.561 117.063V117.062C111.555 114.38 111.548 111.699 111.465 109.017C111.382 106.301 109.861 104.4 107.289 103.552C105.339 102.91 103.345 102.878 101.356 103.327C97.7068 104.156 95.8595 106.757 94.8782 110.122C94.1507 112.609 93.457 115.105 92.7632 117.602L92.763 117.603C92.4535 118.716 92.144 119.83 91.8315 120.943C91.677 121.499 91.5267 122.058 91.371 122.636C91.2552 123.066 91.1363 123.508 91.0105 123.968C91.3767 123.968 91.7368 123.97 92.0922 123.971H92.0931H92.094H92.0949C93.1452 123.976 94.1546 123.981 95.1604 123.942C95.3464 123.936 95.6158 123.583 95.6927 123.345C96.0648 122.163 96.4175 120.975 96.6998 119.768C96.8344 119.196 97.0589 119.004 97.6555 119.01C99.8954 119.035 102.135 119.033 104.375 119.031L104.381 119.031C105.019 119.03 105.657 119.029 106.295 119.029C106.465 119.029 106.636 119.046 106.83 119.065L106.83 119.065L106.832 119.065L106.932 119.075C106.977 119.079 107.023 119.083 107.071 119.087V123.93ZM107.02 114.273V114.275V114.276C107.017 114.88 107.014 115.49 107.014 116.107H107.007H97.7068C97.9116 115.4 98.1049 114.697 98.2968 113.998C98.6937 112.554 99.0848 111.131 99.5604 109.737C100.542 106.859 104.063 106.795 105.75 107.675C106.597 108.118 106.969 108.947 106.994 109.852C107.035 111.315 107.028 112.778 107.02 114.273ZM73.6008 103.558L73.6027 103.552V103.558L73.6008 103.558ZM73.3145 103.539C73.403 103.545 73.4977 103.552 73.6008 103.558C73.3352 104.428 73.0771 105.287 72.8216 106.137C72.2571 108.014 71.7053 109.85 71.1141 111.67C70.9674 112.12 70.8225 112.571 70.6776 113.023L70.6775 113.023C69.979 115.198 69.2793 117.377 68.3817 119.473C67.3554 121.868 65.5531 123.628 62.8784 124.187C60.7041 124.643 58.581 124.553 56.7787 123.063C55.297 121.836 54.8994 120.076 54.8609 118.259C54.8282 116.69 54.8305 115.12 54.8328 113.55V113.549V113.549V113.549C54.8345 112.348 54.8363 111.148 54.8224 109.949C54.8224 109.702 54.7264 109.455 54.6304 109.209C54.5838 109.089 54.5373 108.97 54.5017 108.85C54.415 108.947 54.3163 109.039 54.218 109.13L54.2178 109.131C54.0031 109.33 53.7899 109.529 53.7063 109.775C53.3291 110.881 52.9748 111.994 52.6207 113.107L52.6207 113.107L52.6206 113.107L52.6206 113.107C52.1378 114.623 51.6552 116.139 51.1151 117.636C50.1914 120.179 48.8253 122.433 46.2789 123.698C43.6491 125.009 40.038 124.488 38.2741 122.523C37.1068 121.226 36.6322 119.614 36.5488 117.931C36.448 115.848 36.4343 113.76 36.4206 111.675L36.4206 111.674C36.4169 111.105 36.4132 110.536 36.4077 109.968C36.3884 108.048 36.3884 106.121 36.4269 104.201C36.4269 103.969 36.7284 103.546 36.9015 103.546C39.4927 103.512 42.079 103.513 44.7548 103.513L45.9133 103.513V104.554C45.9133 105.472 45.9125 106.391 45.9117 107.309V107.309V107.31V107.31V107.31C45.9093 110.067 45.9069 112.826 45.9261 115.581C45.9261 115.789 46.0387 116 46.1508 116.21L46.1508 116.21C46.2014 116.304 46.2518 116.399 46.2917 116.493C46.3752 116.417 46.4729 116.346 46.5708 116.275C46.7815 116.122 46.9934 115.969 47.0678 115.767C47.5356 114.452 47.9769 113.126 48.4183 111.799C48.6971 110.961 48.9759 110.122 49.2614 109.287C49.9285 107.341 50.8649 105.588 52.9495 104.824C54.1361 104.393 55.3676 104.297 56.6055 104.625C58.2539 105.055 59.216 106.416 59.2545 108.504C59.2746 109.727 59.2737 110.951 59.2728 112.176C59.272 113.299 59.2712 114.421 59.2866 115.542C59.2866 115.754 59.3769 115.966 59.4672 116.178C59.5109 116.281 59.5546 116.384 59.588 116.486C59.6751 116.405 59.7782 116.329 59.8816 116.252L59.8817 116.252C60.1055 116.085 60.3304 115.918 60.3962 115.703C61.5571 111.933 62.686 108.157 63.7828 104.368C63.9688 103.725 64.2254 103.475 64.9373 103.488C66.8183 103.521 68.7027 103.516 70.588 103.511H70.5884H70.5888H70.5891C71.275 103.509 71.961 103.507 72.647 103.507C72.852 103.507 73.0569 103.521 73.3145 103.539ZM78.9905 123.923H74.5135C74.5084 123.829 74.5013 123.742 74.4946 123.659L74.4946 123.659C74.4844 123.534 74.475 123.419 74.475 123.307C74.475 122.239 74.4742 121.171 74.4734 120.104V120.102C74.471 116.9 74.4686 113.697 74.4878 110.494C74.4878 109.711 74.5648 108.908 74.7508 108.15C75.4243 105.459 77.4126 103.732 80.3759 103.603C83.0048 103.491 85.6431 103.504 88.2798 103.518L88.283 103.518H88.2835H88.284C89.4029 103.524 90.5215 103.53 91.639 103.526C91.686 103.526 91.733 103.545 91.8019 103.573C91.8458 103.591 91.8987 103.613 91.9661 103.635C91.9661 103.9 91.9675 104.166 91.9689 104.433V104.433V104.434C91.9736 105.305 91.9782 106.185 91.934 107.065C91.9276 107.219 91.4594 107.457 91.2028 107.463C89.3381 107.488 87.4733 107.486 85.6055 107.483H85.6048H85.604H85.6033C85.0691 107.483 84.5346 107.482 83.9999 107.482H81.7101C79.85 107.482 79.0739 108.189 78.9648 110.038C78.9303 110.605 78.9394 111.177 78.949 111.783V111.783L78.949 111.784C78.9537 112.077 78.9584 112.378 78.9584 112.691H90.7603V115.568H78.9905V123.923ZM56.9005 134.603H61.3775L61.3839 134.61C61.3711 130.474 59.2224 127.115 55.2457 126.479C53.5524 126.21 51.7949 126.19 50.0824 126.319C46.7278 126.569 44.2648 128.624 43.4887 131.906C42.6677 135.38 42.6549 138.919 43.5272 142.394C44.1943 145.065 45.9517 146.908 48.6648 147.493C50.3004 147.846 52.0386 147.936 53.7191 147.865C58.5489 147.653 61.3262 144.359 61.3775 138.842H56.8812C56.8043 139.324 56.7273 139.773 56.6504 140.223L56.6503 140.223C56.3104 142.143 55.329 143.286 53.6421 143.607C53.02 143.723 52.3722 143.71 51.7372 143.691C49.6141 143.633 48.094 142.432 47.8631 140.332C47.6514 138.418 47.5809 136.453 47.7284 134.533C47.9336 131.848 49.1972 130.583 51.7436 130.397C54.2836 130.211 56.2591 130.988 56.7209 133.903C56.7451 134.045 56.7845 134.184 56.8264 134.331L56.8265 134.331C56.8512 134.418 56.8767 134.508 56.9005 134.603ZM81.9859 126.627H77.4319V126.633V127.635C77.4319 128.935 77.4333 130.236 77.4347 131.536L77.4348 131.546C77.4376 134.154 77.4405 136.761 77.4319 139.369C77.4191 141.854 76.5468 143.138 74.5456 143.594C74.0907 143.7 73.6093 143.698 73.1351 143.697L72.9934 143.697C70.1969 143.691 68.8371 142.336 68.8371 139.542V127.635V126.653H64.1548C64.1548 126.902 64.1541 127.143 64.1534 127.379V127.379V127.38V127.38V127.38C64.1519 127.836 64.1506 128.272 64.1548 128.708C64.1682 129.966 64.1736 131.224 64.179 132.483L64.179 132.485L64.179 132.485C64.1918 135.454 64.2045 138.423 64.3216 141.385C64.4435 144.449 66.5216 146.748 69.4657 147.525C71.717 148.122 73.9811 148.141 76.2453 147.666C77.9258 147.313 79.401 146.568 80.4786 145.161C81.5369 143.781 81.9923 142.169 82.0115 140.467C82.0461 137.058 82.0427 133.649 82.0392 130.241C82.0382 129.218 82.0372 128.195 82.0372 127.173C82.0372 127.067 82.0242 126.96 82.0098 126.843L82.0098 126.842L82.0098 126.842C82.0016 126.775 81.9929 126.704 81.9859 126.627ZM89.6826 147.499H85.1351C85.1302 147.411 85.1248 147.325 85.1196 147.24C85.1044 146.995 85.0902 146.765 85.0902 146.536C85.0902 145.1 85.0887 143.664 85.0873 142.227V142.226V142.226C85.0845 139.351 85.0816 136.475 85.0902 133.602C85.103 129.286 87.4377 126.775 91.7736 126.64C94.4483 126.556 97.1486 126.582 99.8104 126.852C102.158 127.089 104.037 128.329 104.711 130.763C105.429 133.351 105.224 135.843 103.197 137.847C101.786 139.24 99.913 139.632 98.0145 139.696C96.2945 139.755 94.5712 139.744 92.8493 139.732H92.8489H92.8484H92.8469H92.8462H92.8456H92.8449C92.1411 139.727 91.4375 139.722 90.7345 139.722H89.6826V147.499ZM89.6249 136.736C90.4751 136.736 91.3132 136.742 92.1428 136.748H92.1436H92.1443H92.1451C94.0248 136.761 95.8608 136.774 97.6938 136.716C99.5859 136.659 100.458 135.547 100.426 133.557C100.394 131.778 99.3807 130.718 97.5527 130.673C95.6798 130.628 93.8005 130.641 91.9211 130.667C90.741 130.686 89.9841 131.257 89.8366 132.446C89.719 133.387 89.6931 134.344 89.6665 135.325L89.6665 135.325L89.6664 135.326L89.6664 135.326C89.6539 135.79 89.6411 136.259 89.6185 136.736H89.6249Z" fill="black"/>
</g>
<defs>
<clipPath id="clip0_100_285">
<rect width="148" height="148" fill="white"/>
</clipPath>
</defs>
</svg>
