<svg width="148" height="148" viewBox="0 0 148 148" fill="none" xmlns="http://www.w3.org/2000/svg">
<path fill-rule="evenodd" clip-rule="evenodd" d="M113.522 84.6137L113.934 82.8666H117.273V96.0203C117.273 98.5896 116.554 100.388 114.859 101.724C113.574 102.701 111.827 103.42 109.72 103.42C106.843 103.42 104.787 102.443 103.143 100.85L105.25 97.9216C106.277 98.8977 107.665 99.7711 109.463 99.7711C112.289 99.7711 113.522 98.384 113.522 96.3289V95.3528C112.392 96.5345 111.056 96.9967 109.566 96.9967C105.661 96.9967 102.578 93.811 102.578 89.7516C102.578 85.7439 105.764 82.6612 109.669 82.6612C111.262 82.6612 112.7 83.432 113.522 84.6137ZM110.132 86.1037C108.127 86.1037 106.534 87.6449 106.534 89.7516C106.534 91.7558 108.127 93.3482 110.132 93.3482C112.135 93.3482 113.728 91.7558 113.728 89.7516C113.728 87.6449 112.135 86.1037 110.132 86.1037ZM88.3966 63.2385C86.8039 63.2385 85.4677 64.1634 85.1597 65.6537H91.5305C91.2225 64.2149 89.9381 63.2385 88.3966 63.2385ZM88.6019 74.3885C84.3375 74.3885 81.2027 71.4597 81.2027 67.1949C81.2027 63.3412 84.0289 59.8984 88.4995 59.8984C91.8391 59.8984 95.2819 62.4163 95.2819 67.092C95.2819 67.4515 95.2819 67.9142 95.1792 68.4279H85.1077C85.4677 69.9694 86.8554 70.9975 88.5505 70.9975C90.0922 70.9975 91.2737 70.4321 92.2506 69.4043L94.5626 71.768C93.0726 73.4636 90.9145 74.3885 88.6019 74.3885ZM131.301 63.2385C129.708 63.2385 128.373 64.1634 128.064 65.6537H134.435C134.127 64.2149 132.842 63.2385 131.301 63.2385ZM131.506 74.3885C127.242 74.3885 124.107 71.4597 124.107 67.1949C124.107 63.3412 126.933 59.8984 131.404 59.8984C134.743 59.8984 138.186 62.4163 138.186 67.092C138.186 67.4515 138.186 67.9142 138.083 68.4279H128.012C128.373 69.9694 129.76 70.9975 131.455 70.9975C132.996 70.9975 134.178 70.4321 135.155 69.4043L137.467 71.768C135.977 73.4636 133.818 74.3885 131.506 74.3885ZM141.115 85.8466C139.522 85.8466 138.186 86.7715 137.878 88.2618H144.249C143.941 86.8227 142.656 85.8466 141.115 85.8466ZM141.32 96.9967C137.055 96.9967 133.921 94.0678 133.921 89.8031C133.921 85.9498 136.747 82.5071 141.218 82.5071C144.558 82.5071 148 85.0244 148 89.7007C148 90.0602 148 90.5229 147.897 91.0365H137.826C138.186 92.5775 139.573 93.6056 141.269 93.6056C142.811 93.6056 143.992 93.0402 144.968 92.0126L147.28 94.3761C145.791 96.072 143.633 96.9967 141.32 96.9967ZM78.12 85.8466C76.527 85.8466 75.1914 86.7715 74.8831 88.2618H81.2542C80.9459 86.8227 79.6618 85.8466 78.12 85.8466ZM78.3256 96.9967C74.0611 96.9967 70.9269 94.0678 70.9269 89.8031C70.9269 85.9498 73.7523 82.5071 78.2226 82.5071C81.5622 82.5071 85.005 85.0244 85.005 89.7007C85.005 90.0602 85.005 90.5229 84.9029 91.0365H74.8319C75.1914 92.5775 76.5787 93.6056 78.2741 93.6056C79.8156 93.6056 80.9973 93.0402 81.974 92.0126L84.286 94.3761C82.7957 96.072 80.6378 96.9967 78.3256 96.9967ZM57.2075 96.6372V76.2384H61.2666V92.7834H70.1047V96.6372H57.2075ZM72.6735 74.0285V60.2584H75.9621L76.3731 62.2624C76.9892 60.9774 78.2226 60.1043 79.8671 60.1043C80.2266 60.1043 80.5867 60.1552 80.9459 60.2584V63.9066C80.4834 63.8039 80.073 63.7522 79.6097 63.7522C77.7605 63.7522 76.4761 64.883 76.4761 67.092V74.0285H72.6735ZM139.676 74.0285V60.2584H142.965L143.375 62.2624C143.992 60.9774 145.225 60.1043 146.87 60.1043C147.23 60.1043 147.588 60.1552 147.949 60.2584V63.9066C147.486 63.8039 147.075 63.7522 146.612 63.7522C144.763 63.7522 143.479 64.883 143.479 67.092V74.0285H139.676ZM113.111 65.9105C113.111 64.4202 112.289 63.4953 111.004 63.4953C109.515 63.4953 108.744 64.4202 108.744 65.9617V74.0285H104.942V65.9105C104.942 64.4202 104.119 63.4953 102.835 63.4953C101.345 63.4953 100.574 64.4202 100.574 65.9617V74.0285H96.7719V60.2584H100.112L100.523 62.0568C100.523 62.0568 101.345 59.8984 103.914 59.8984C105.507 59.8984 106.843 60.5665 107.768 61.9535L107.87 62.1083L107.973 61.9535C109.309 60.0531 110.954 59.8984 111.981 59.8984C114.91 59.8984 116.914 62.1083 116.914 65.2425V74.0285H113.111V65.9105ZM120.767 58.4086C119.432 58.4086 118.404 57.3805 118.404 56.0961C118.404 54.7605 119.432 53.7329 120.767 53.7329C122.103 53.7329 123.131 54.7605 123.131 56.0961C123.131 57.3805 122.103 58.4086 120.767 58.4086ZM118.814 74.029H122.617V60.2584H118.814V74.029ZM93.8945 86.1037C91.8391 86.1037 90.2981 87.6449 90.2981 89.7516C90.2981 91.7558 91.8391 93.3482 93.8945 93.3482C95.8982 93.3482 97.44 91.7558 97.44 89.7516C97.44 87.6449 95.8982 86.1037 93.8945 86.1037ZM93.1235 96.9967C89.4754 96.9967 86.2899 93.6565 86.2899 89.7516C86.2899 85.8978 89.4754 82.6612 93.1235 82.6612C95.1792 82.6612 96.5663 83.3805 97.3885 84.6649L97.7995 82.8666H101.139V96.6372H97.7995L97.3885 94.89C96.5663 96.1229 95.0248 96.9967 93.1235 96.9967ZM125.854 96.9967C122.823 96.9967 119.123 95.3528 119.123 90.2143V82.8666H122.925V89.9575C122.925 92.3212 124.005 93.3482 125.854 93.3482C127.55 93.3482 128.783 92.1668 128.783 89.9575V82.8666H132.585V90.2143C132.585 95.3528 128.835 96.9967 125.854 96.9967ZM61.2666 63.29H63.6301C65.6858 63.29 67.1758 62.1595 67.1758 60.1043C67.1758 58.0489 65.6858 56.9698 63.6301 56.9698H61.2666V63.29ZM57.2075 74.0285V53.116H63.8354C68.1522 53.116 71.3891 55.6854 71.3891 60.1043C71.3891 64.5744 68.2031 67.1949 63.8354 67.1949H61.2666V74.0285H57.2075ZM42.8953 71.1195C41.5664 72.2386 40.4387 72.8594 40.4387 72.8594L40.4501 76.4006C41.403 77.4604 42.3422 78.3405 43.0438 79.9408C44.375 77.5463 44.1229 74.0173 42.8953 71.1195ZM41.8129 82.7099C41.8129 82.7099 41.5421 81.2518 40.3861 79.8885L37.7518 79.9536C37.7518 79.9536 34.1963 83.009 32.0281 83.0795C32.0281 83.0795 33.223 85.303 33.8233 86.4629C35.0191 86.2039 37.1173 85.2597 37.963 84.278C37.963 84.278 38.5217 86.0805 38.4148 88.2073C39.6016 87.5146 41.2402 85.6525 41.8129 82.7099ZM38.4148 76.3142L38.4104 72.7894C38.4104 72.7894 36.8367 72.2822 35.1528 70.9777C31.7752 71.4888 27.6831 74.8877 27.6831 74.8877C27.6831 74.8877 29.0673 77.5105 30.5769 80.3386C33.2369 80.7048 37.1514 77.3529 38.4148 76.3142ZM47.4224 91.0102L45.2498 88.6026C44.6282 95.108 41.4453 100.629 35.5942 104.479L34.7035 100.97C29.7376 104.56 21.2143 106.885 13.8937 102.747C14.8013 98.1082 15.6078 93.4106 13.8766 87.7817C9.82396 94.0588 6.23317 96.5177 6.23317 96.5177C3.49679 91.9212 3.7427 82.6917 4.55877 79.9757L0 81.3883C0 78.289 2.2342 71.7084 5.46521 68.0158L2.61636 67.5612L2.6158 67.562C4.54982 63.6056 7.43364 60.1983 10.9702 57.6368L10.9735 57.6348C9.91292 59.3134 9.89753 63.4464 13.0085 65.0215C11.6875 62.7067 11.5288 59.8475 12.905 58.3639C14.2876 56.8738 16.606 57.3847 18.0865 58.5446C17.6465 57.2535 16.3545 55.6283 14.4197 55.5175L14.418 55.5181C18.0731 53.6378 22.2187 52.5764 26.6118 52.5764C27.4324 52.5764 28.244 52.6136 29.0458 52.686L29.0466 52.6866C30.3232 53.2 32.1982 54.9983 33.0724 56.1174C33.0724 56.1174 33.1337 54.7974 32.4002 53.2061C37.1553 54.361 39.4198 56.2956 40.371 57.2328C40.5654 59.2843 41.1809 60.5183 41.9947 62.4731C40.4546 60.7466 36.5843 57.9644 34.7384 57.2974C34.7384 57.2974 34.586 59.0781 33.9515 59.9356C30.2737 57.2798 28.4661 56.6145 28.4661 56.6145C24.426 57.1905 21.8301 58.7497 20.4201 59.9736L21.6488 61.02C19.214 61.7697 17.6333 63.8627 17.6333 63.8627C17.6493 63.8988 19.8077 64.2071 19.8077 64.2071C19.8077 64.2071 19.5869 66.742 22.7611 68.3314C25.4771 69.6913 29.3879 68.004 33.0682 69.4806C30.6469 66.6869 28.9784 65.4375 28.9784 65.4375C28.9784 65.4375 28.0149 65.2372 27.3375 65.2419C26.4926 65.2475 25.2345 65.4154 23.8497 64.8765C23.1906 64.62 22.4212 64.1637 21.8172 63.7852C21.8172 63.7852 23.5154 62.0406 25.9966 61.6545C25.9966 61.6545 28.2347 62.2839 30.0085 63.5972C31.1877 62.449 32.4184 62.4843 32.4184 62.4843C32.4184 62.4843 31.2005 63.6246 31.5681 65.0019C33.3424 66.5823 35.263 68.8433 35.263 68.8433C37.2205 67.7693 41.476 68.0158 42.3503 69.0299C41.243 67.5961 39.6458 66.3954 38.4104 65.3698C38.2601 64.832 36.9119 62.9534 36.6851 62.7819C36.6851 62.7819 37.9672 63.1781 39.1098 64.204C39.4405 63.7362 40.054 63.2581 40.8933 63.0483C41.7558 63.7712 41.9074 64.8802 41.8839 65.0665C41.4939 65.5281 41.1146 65.7195 41.1146 65.7195L43.1862 67.9635L43.3935 66.3548C48.1686 73.1733 50.7743 81.0738 47.4224 91.0102ZM9.66449 47.791C12.4216 49.0536 14.1914 50.6505 14.5137 50.8919C14.3662 50.1785 13.8243 46.7514 13.5113 44.6204C15.1182 45.7372 18.8483 48.3251 20.074 49.1666C20.5737 47.6256 22.3062 42.5921 22.3062 42.5921C22.3062 42.5921 25.4346 47.6606 25.9695 48.4848C26.6236 47.8005 30.3654 43.639 31.3323 42.5848C31.496 44.9796 31.7175 48.4068 31.7699 48.9207C31.9621 48.6655 33.3933 46.6579 35.7948 44.8065C34.7536 46.8557 34.2584 49.6858 34.0354 51.9601C31.6739 51.2998 29.1843 50.9456 26.6118 50.9456C21.6779 50.9456 17.0481 52.2457 13.0441 54.5205C12.3158 52.3274 11.1772 49.5955 9.66449 47.791Z" fill="#3E1151"/>
</svg>
