<svg width="148" height="148" viewBox="0 0 148 148" fill="none" xmlns="http://www.w3.org/2000/svg">
<g filter="url(#filter0_d_739_208)">
<path d="M31.1683 87.398C29.7845 88.52 28.1371 89.114 26.5557 88.982C24.7106 88.784 23.5245 87.992 21.8112 85.814L12.8495 74.726L8.82992 78.026L18.6483 90.104C20.691 92.612 23.0632 93.998 25.7649 94.196C28.862 94.46 31.5637 93.536 34.3313 91.358C37.0329 89.18 38.4826 86.672 38.878 83.57C39.1416 80.864 38.3508 78.29 36.3081 75.782L26.4898 63.638L22.5361 66.872L31.4978 77.96C33.2769 80.138 33.7382 81.392 33.6064 83.306C33.4746 84.758 32.5521 86.276 31.1683 87.398ZM124.278 99.08L131.724 73.142C131.988 72.218 132.119 71.294 130.867 70.37L129.879 69.578C128.693 68.654 127.77 68.984 126.98 69.512L104.443 84.164L109.188 86.87L125.464 76.31L122.894 85.22L120.785 83.57L116.502 86.408L121.51 90.236L120.061 95.252L124.278 99.08ZM74 45.026C101.874 45.026 127.111 56.51 145.101 75.056L148 72.218C129.22 52.946 102.994 41 74 41C45.0062 41 18.7801 52.946 0 72.218L2.83348 75.056C20.8887 56.51 46.1264 45.026 74 45.026ZM74 87.53C91.0668 87.53 106.42 95.054 116.898 107L119.929 104.36C108.727 91.622 92.3188 83.504 74.0659 83.504C55.813 83.504 39.4052 91.556 28.203 104.36L31.2342 107C41.5797 95.054 56.9332 87.53 74 87.53ZM95.8771 58.952L105.102 61.394L106.289 56.708L96.8655 54.266C92.4506 53.144 88.3651 54.2 86.9154 59.612L82.6981 75.716C82.4345 76.904 83.0276 77.762 84.0819 78.092L87.179 78.884L89.9466 68.456L101.412 71.492L102.598 66.872L91.1327 63.836L91.7916 61.394C92.3847 58.82 93.5049 58.358 95.8771 58.952ZM64.3134 51.428L48.4328 54.662C47.3126 54.86 46.7195 55.784 46.9172 56.972L50.2778 73.274C51.398 78.818 55.4176 80.138 59.8985 79.214L69.585 77.234L68.5966 72.482L59.2395 74.396C56.8014 74.924 55.7471 74.396 55.154 71.69L54.6928 69.314L66.3562 66.938L65.3678 62.252L53.7044 64.628L52.5841 58.82L65.3019 56.18L64.3134 51.428Z" fill="white"/>
</g>
<defs>
<filter id="filter0_d_739_208" x="0" y="0" width="148" height="148" filterUnits="userSpaceOnUse" color-interpolation-filters="sRGB">
<feFlood flood-opacity="0" result="BackgroundImageFix"/>
<feColorMatrix in="SourceAlpha" type="matrix" values="0 0 0 0 0 0 0 0 0 0 0 0 0 0 0 0 0 0 127 0" result="hardAlpha"/>
<feOffset/>
<feComposite in2="hardAlpha" operator="out"/>
<feColorMatrix type="matrix" values="0 0 0 0 0 0 0 0 0 0 0 0 0 0 0 0 0 0 1 0"/>
<feBlend mode="normal" in2="BackgroundImageFix" result="effect1_dropShadow_739_208"/>
<feBlend mode="normal" in="SourceGraphic" in2="effect1_dropShadow_739_208" result="shape"/>
</filter>
</defs>
</svg>
