<svg width="148" height="148" viewBox="0 0 148 148" fill="none" xmlns="http://www.w3.org/2000/svg">
<path fill-rule="evenodd" clip-rule="evenodd" d="M57.1287 17.4901C62.9956 14.1569 69.7803 12.2515 77.0102 12.2515C80.78 12.2515 84.4282 12.7707 87.8888 13.7382C88.2154 10.4058 88.9409 6.25836 90.467 3.25556C86.9479 5.96866 84.8503 8.91045 84.5689 9.2844C84.4921 8.5311 84.1676 3.50915 83.9277 0C82.5107 1.54477 77.0272 7.64292 76.0689 8.64565C75.2849 7.43789 70.7012 0.010791 70.7012 0.010791C70.7012 0.010791 68.162 7.38684 67.4299 9.64465C65.634 8.41157 60.1676 4.61937 57.8131 2.98288C58.2717 6.10562 59.0661 11.1276 59.2819 12.1731C58.8096 11.8194 56.2164 9.47905 52.176 7.62923C54.3923 10.2734 56.0612 14.2765 57.1287 17.4901Z" fill="#3E1151"/>
<path fill-rule="evenodd" clip-rule="evenodd" d="M101.09 54.7405C100.061 52.3955 98.6848 51.106 97.2886 49.5529L97.272 44.3633C97.272 44.3633 98.9243 43.4539 100.872 41.8141C102.671 46.0604 103.04 51.2313 101.09 54.7405ZM94.3062 66.8542C94.4626 63.7377 93.6442 61.096 93.6442 61.096C92.4049 62.5349 89.3303 63.9182 87.578 64.298C86.6981 62.5984 84.9475 59.3399 84.9475 59.3399C88.1246 59.2366 93.3345 54.7596 93.3345 54.7596L97.1948 54.6637C98.8886 56.6617 99.2854 58.7983 99.2854 58.7983C98.4466 63.1101 96.0452 65.839 94.3062 66.8542ZM82.8208 55.3236C80.6087 51.179 78.58 47.3358 78.58 47.3358C78.58 47.3358 84.5764 42.3549 89.5262 41.6062C91.9936 43.5179 94.2995 44.2608 94.2995 44.2608L94.3062 49.4263C92.4547 50.9483 86.7184 55.8603 82.8208 55.3236ZM101.602 34.8319L101.298 37.1894L98.2627 33.901C98.2627 33.901 98.8184 33.6205 99.39 32.9444C99.424 32.6708 99.2019 31.046 97.9382 29.9868C96.708 30.2943 95.8094 30.9945 95.3247 31.6802C93.6504 30.1769 91.7715 29.5962 91.7715 29.5962C92.104 29.8478 94.0795 32.6007 94.2995 33.3884C96.1103 34.8917 98.4503 36.6511 100.073 38.752C98.7923 37.2661 92.5559 36.9046 89.6876 38.4789C89.6876 38.4789 86.8732 35.1652 84.2734 32.8493C83.7343 30.831 85.519 29.16 85.519 29.16C85.519 29.16 83.716 29.1086 81.9878 30.7907C79.3885 28.8666 76.1088 27.9444 76.1088 27.9444C72.4731 28.5097 69.9845 31.0663 69.9845 31.0663C70.8698 31.6212 71.997 32.2898 72.9628 32.6655C74.9924 33.4553 76.8356 33.2096 78.074 33.2013C79.066 33.1942 80.4783 33.4876 80.4783 33.4876C80.4783 33.4876 82.9233 35.3188 86.4715 39.4123C81.0785 37.2487 75.3476 39.7211 71.3678 37.7281C66.7161 35.3993 67.0398 31.6847 67.0398 31.6847C67.0398 31.6847 63.8768 31.2327 63.8536 31.18C63.8536 31.18 66.1699 28.1129 69.7376 27.0147L67.9371 25.4811C70.0032 23.6874 73.8074 21.403 79.7275 20.5588C79.7275 20.5588 82.3763 21.5337 87.7656 25.4255C88.6953 24.1688 88.919 21.5595 88.919 21.5595C91.6238 22.5369 97.2953 26.6138 99.5522 29.1434C98.3594 26.2793 97.458 24.4709 97.1728 21.4648C95.7787 20.0915 92.4605 17.2563 85.4924 15.5638C86.5674 17.8959 86.4777 19.8304 86.4777 19.8304C85.1965 18.1906 82.4489 15.5551 80.5784 14.8031L80.5767 14.8018C79.4021 14.6956 78.2127 14.6416 77.0103 14.6416C70.5726 14.6416 64.4981 16.1967 59.1421 18.9518L59.1441 18.9509C61.9797 19.1132 63.8727 21.4951 64.5176 23.3869C62.3482 21.6873 58.9503 20.9386 56.9245 23.1221C54.9083 25.296 55.1403 29.4863 57.0764 32.8779C52.5177 30.5699 52.5401 24.5137 54.0944 22.0538L54.0894 22.0567C48.9072 25.8103 44.6813 30.8032 41.847 36.6008L41.8483 36.6L46.0227 37.2661C41.288 42.677 38.0142 52.32 38.0142 56.8617L44.6942 54.792C43.4985 58.7717 43.1382 72.2962 47.1483 79.0322C47.1483 79.0322 52.4097 75.4289 58.3485 66.2304C60.8856 74.4789 59.7032 81.3627 58.3738 88.1602C69.1009 94.2243 81.5906 90.8172 88.8675 85.5562L90.1732 90.6985C98.7471 85.0569 103.411 76.9662 104.322 67.4332L107.506 70.9618C112.418 56.4011 108.599 44.8236 101.602 34.8319Z" fill="#3E1151"/>
<path fill-rule="evenodd" clip-rule="evenodd" d="M33.9417 109.216H36.2257C38.2125 109.216 39.6527 108.124 39.6527 106.137C39.6527 104.15 38.2125 103.108 36.2257 103.108H33.9417V109.216ZM30.0188 119.594V99.3838H36.4245C40.596 99.3838 43.725 101.867 43.725 106.137C43.725 110.457 40.6454 112.99 36.4245 112.99H33.9417V119.594H30.0188Z" fill="#3E1151"/>
<path fill-rule="evenodd" clip-rule="evenodd" d="M96.3639 141.793C93.4338 141.793 89.8586 140.203 89.8586 135.238V128.136H93.533V134.989C93.533 137.273 94.5764 138.266 96.3639 138.266C98.0025 138.266 99.1945 137.124 99.1945 134.989V128.136H102.869V135.238C102.869 140.203 99.2439 141.793 96.3639 141.793Z" fill="#3E1151"/>
<path fill-rule="evenodd" clip-rule="evenodd" d="M65.4755 131.264C63.4891 131.264 61.9995 132.754 61.9995 134.791C61.9995 136.727 63.4891 138.267 65.4755 138.267C67.412 138.267 68.9024 136.727 68.9024 134.791C68.9024 132.754 67.412 131.264 65.4755 131.264ZM64.7305 141.793C61.2051 141.793 58.126 138.565 58.126 134.791C58.126 131.066 61.2051 127.938 64.7305 127.938C66.7173 127.938 68.0574 128.633 68.8526 129.874L69.2498 128.136H72.4776V141.445H69.2498L68.8526 139.757C68.0574 140.949 66.5687 141.793 64.7305 141.793Z" fill="#3E1151"/>
<path fill-rule="evenodd" clip-rule="evenodd" d="M91.4473 104.498C90.1565 104.498 89.1633 103.505 89.1633 102.264C89.1633 100.972 90.1565 99.9792 91.4473 99.9792C92.7385 99.9792 93.7317 100.972 93.7317 102.264C93.7317 103.505 92.7385 104.498 91.4473 104.498ZM89.5601 119.595H93.2349V106.286H89.5601V119.595Z" fill="#3E1151"/>
<path fill-rule="evenodd" clip-rule="evenodd" d="M84.0484 111.748C84.0484 110.308 83.2536 109.414 82.0118 109.414C80.5716 109.414 79.827 110.308 79.827 111.798V119.594H76.1523V111.748C76.1523 110.308 75.3579 109.414 74.1161 109.414C72.6759 109.414 71.9313 110.308 71.9313 111.798V119.594H68.2566V106.286H71.4843L71.8815 108.024C71.8815 108.024 72.6759 105.938 75.1595 105.938C76.6985 105.938 77.9896 106.584 78.8836 107.925L78.9828 108.073L79.082 107.925C80.3732 106.087 81.9628 105.938 82.956 105.938C85.7861 105.938 87.7231 108.073 87.7231 111.103V119.594H84.0484V111.748Z" fill="#3E1151"/>
<path fill-rule="evenodd" clip-rule="evenodd" d="M109.722 119.594V106.286H112.9L113.297 108.223C113.894 106.981 115.086 106.137 116.674 106.137C117.022 106.137 117.37 106.186 117.717 106.286V109.812C117.27 109.712 116.873 109.663 116.426 109.663C114.638 109.663 113.397 110.755 113.397 112.891V119.594H109.722Z" fill="#3E1151"/>
<path fill-rule="evenodd" clip-rule="evenodd" d="M44.9664 119.594V106.286H48.1448L48.5416 108.223C49.1371 106.981 50.3295 106.137 51.9183 106.137C52.2661 106.137 52.6135 106.186 52.9613 106.286V109.812C52.5143 109.712 52.1171 109.663 51.6701 109.663C49.8826 109.663 48.6412 110.755 48.6412 112.891V119.594H44.9664Z" fill="#3E1151"/>
<path fill-rule="evenodd" clip-rule="evenodd" d="M50.2304 131.016C48.691 131.016 47.3998 131.91 47.1014 133.351H53.2597C52.9613 131.959 51.7199 131.016 50.2304 131.016ZM50.4288 141.793C46.307 141.793 43.2781 138.962 43.2781 134.84C43.2781 131.115 46.009 127.788 50.3296 127.788C53.5573 127.788 56.8847 130.222 56.8847 134.741C56.8847 135.088 56.8847 135.535 56.7855 136.032H47.0516C47.3998 137.521 48.7408 138.515 50.3794 138.515C51.8689 138.515 53.0111 137.968 53.9545 136.975L56.1895 139.26C54.7493 140.899 52.6633 141.793 50.4288 141.793Z" fill="#3E1151"/>
<path fill-rule="evenodd" clip-rule="evenodd" d="M111.113 131.016C109.573 131.016 108.282 131.91 107.984 133.351H114.142C113.844 131.959 112.603 131.016 111.113 131.016ZM111.311 141.793C107.19 141.793 104.16 138.962 104.16 134.84C104.16 131.115 106.891 127.788 111.212 127.788C114.44 127.788 117.767 130.222 117.767 134.741C117.767 135.088 117.767 135.535 117.668 136.032H107.934C108.282 137.521 109.623 138.515 111.262 138.515C112.752 138.515 113.894 137.968 114.837 136.975L117.071 139.26C115.632 140.899 113.546 141.793 111.311 141.793Z" fill="#3E1151"/>
<path fill-rule="evenodd" clip-rule="evenodd" d="M101.628 109.166C100.088 109.166 98.7969 110.06 98.4993 111.501H104.657C104.359 110.11 103.118 109.166 101.628 109.166ZM101.827 119.943C97.7045 119.943 94.6755 117.112 94.6755 112.989C94.6755 109.266 97.4069 105.938 101.727 105.938C104.956 105.938 108.282 108.372 108.282 112.891C108.282 113.238 108.282 113.685 108.183 114.181H98.4495C98.7969 115.672 100.138 116.665 101.777 116.665C103.267 116.665 104.409 116.118 105.352 115.125L107.587 117.41C106.147 119.048 104.061 119.943 101.827 119.943Z" fill="#3E1151"/>
<path fill-rule="evenodd" clip-rule="evenodd" d="M60.1618 109.166C58.6224 109.166 57.3316 110.06 57.0336 111.501H63.1915C62.8935 110.11 61.6513 109.166 60.1618 109.166ZM60.3606 119.943C56.2384 119.943 53.2095 117.112 53.2095 112.989C53.2095 109.266 55.9413 105.938 60.261 105.938C63.4891 105.938 66.8161 108.372 66.8161 112.891C66.8161 113.238 66.8161 113.685 66.7173 114.181H56.9834C57.3316 115.672 58.6722 116.665 60.3108 116.665C61.8003 116.665 62.9429 116.118 63.8867 115.125L66.1209 117.41C64.6811 119.048 62.5956 119.943 60.3606 119.943Z" fill="#3E1151"/>
<path fill-rule="evenodd" clip-rule="evenodd" d="M84.4456 129.825L84.8428 128.136H88.0701V140.849C88.0701 143.332 87.3749 145.07 85.7363 146.361C84.495 147.305 82.8062 148 80.7704 148C77.9897 148 76.0037 147.056 74.4145 145.517L76.4503 142.686C77.4435 143.63 78.784 144.474 80.5222 144.474C83.2536 144.474 84.4456 143.133 84.4456 141.147V140.204C83.3532 141.346 82.0616 141.793 80.6218 141.793C76.8475 141.793 73.8679 138.714 73.8679 134.791C73.8679 130.917 76.9471 127.938 80.7214 127.938C82.2608 127.938 83.6508 128.682 84.4456 129.825ZM81.1684 131.264C79.231 131.264 77.6917 132.754 77.6917 134.791C77.6917 136.727 79.231 138.267 81.1684 138.267C83.1046 138.267 84.644 136.727 84.644 134.791C84.644 132.754 83.1046 131.264 81.1684 131.264Z" fill="#3E1151"/>
<path fill-rule="evenodd" clip-rule="evenodd" d="M30.0188 141.445L30.0375 121.749H33.9608L33.9417 137.72H42.4836V141.445H30.0188Z" fill="#3E1151"/>
</svg>
