<svg width="148" height="148" viewBox="0 0 148 148" fill="none" xmlns="http://www.w3.org/2000/svg">
<g filter="url(#filter0_d_135_100)">
<path d="M39.1448 12.1392C45.5753 15.0854 49.7026 18.8059 50.4506 19.3703C50.1094 17.7036 48.843 9.71793 48.1147 4.74414C51.8614 7.34915 60.5623 13.3859 63.4166 15.3479C64.5846 11.7521 68.6267 0.0196852 68.6267 0.0196852C68.6267 0.0196852 75.9233 11.8374 77.17 13.76C78.6924 12.1655 87.4195 2.46065 89.6767 0C90.0573 5.58404 90.5757 13.5762 90.6938 14.777C91.14 14.1799 94.4799 9.5014 100.077 5.18377C97.6492 9.96072 96.4944 16.5618 95.976 21.8637C90.4707 20.3217 84.6635 19.4949 78.6661 19.4949C67.1634 19.4949 56.3628 22.5264 47.0254 27.8283C45.3259 22.7167 42.6684 16.3453 39.1448 12.1392ZM106.186 78.6555L106.173 70.4337C106.173 70.4337 102.505 69.2526 98.5744 66.2079C90.7003 67.4022 81.153 75.3222 81.153 75.3222C81.153 75.3222 84.3814 81.4377 87.8985 88.0323C94.0993 88.8853 103.227 81.0703 106.173 78.649L106.186 78.6555ZM114.113 93.5638C114.113 93.5638 113.483 90.1648 110.786 86.9824L104.644 87.1333C104.644 87.1333 96.3566 94.2594 91.2975 94.4234C91.2975 94.4234 94.0862 99.6072 95.4838 102.311C98.2726 101.707 103.168 99.5022 105.136 97.2187C105.136 97.2187 106.442 101.425 106.193 106.379C108.962 104.765 112.781 100.421 114.119 93.5573L114.113 93.5638ZM116.632 66.5426C113.535 69.1542 110.904 70.5977 110.904 70.5977L110.93 78.859C113.155 81.3327 115.34 83.38 116.98 87.1136C120.084 81.5296 119.493 73.3012 116.632 66.5426ZM117.315 59.1803L117.8 55.427C117.964 53.3601 117.433 49.9348 114.539 46.3784C110.95 42.3495 101.921 35.8665 97.6164 34.3113C97.6164 34.3113 97.2621 38.4649 95.7791 40.4662C87.2029 34.272 82.9903 32.7234 82.9903 32.7234C73.5676 34.0685 67.5177 37.7037 64.2303 40.5581L67.0978 42.9991C61.4219 44.7445 57.7342 49.6264 57.7342 49.6264C57.7735 49.7117 62.8064 50.427 62.8064 50.427C62.8064 50.427 62.2946 56.3391 69.6962 60.0465C76.0283 63.2158 85.1491 59.2853 93.7319 62.7236C88.0822 56.2078 84.1977 53.2944 84.1977 53.2944C84.1977 53.2944 81.9535 52.8285 80.3722 52.8351C78.4036 52.8482 75.4705 53.2419 72.2422 51.9821C70.7067 51.385 68.9088 50.322 67.5046 49.4361C67.5046 49.4361 71.4679 45.3679 77.2488 44.4689C77.2488 44.4689 82.4654 45.9387 86.6058 48.9965C89.3552 46.3193 92.2227 46.4046 92.2227 46.4046C92.2227 46.4046 89.3814 49.0621 90.241 52.2774C94.3749 55.9651 98.8566 61.2341 98.8566 61.2341C103.424 58.7276 113.345 59.305 115.386 61.6672C112.8 58.3207 109.08 55.5254 106.199 53.1304C105.851 51.8771 102.708 47.4939 102.177 47.0936C102.177 47.0936 105.169 48.0188 107.833 50.4073C108.607 49.318 110.038 48.2025 111.993 47.7104C114.008 49.3968 114.355 51.9821 114.303 52.4152C113.391 53.4913 112.512 53.9375 112.512 53.9375L117.341 59.1672L117.827 55.4139M122.131 62.2446C129.5 75.8603 131.291 92.1727 126.173 108.426C125.865 108.078 121.967 103.721 120.353 101.937C119.329 117.829 114.651 130.172 101.002 140.598C101.002 140.598 99.703 135.605 98.9419 132.481C76.4351 148.978 57.0846 141.432 51.6449 138.722C55.8575 119.404 52.5963 108.315 49.7748 99.8565C43.7839 109.699 37.6487 117.344 31.5266 122.508C27.3402 112.731 27.0187 94.5612 30.4045 83.8262C29.2825 84.128 22.6682 86.2147 19.0002 87.3302C20.4766 77.4744 26.9859 64.2788 33.8626 57.7039C32.6618 57.4939 29.1381 56.9953 26.3428 56.5294C28.062 53.032 33.0489 46.5358 40.6933 40.44C40.4702 44.7379 42.0647 49.8626 46.9204 52.3233C43.843 46.923 43.4689 40.2563 46.6776 36.7982C49.8994 33.3205 55.3063 34.5147 58.7578 37.2182C58.1213 35.3415 56.7302 33.1696 54.6764 31.7391C64.204 27.3034 75.7658 24.7378 88.8762 26.7588C90.8972 28.5239 93.056 31.0042 94.2502 32.5397C94.3027 31.4373 94.1452 29.3244 93.7975 27.7168C99.1584 28.9898 104.756 31.037 110.556 34.0357C100.228 23.7338 79.296 20.6367 61.8287 25.6367C57.7342 26.8113 53.8496 28.3598 50.1947 30.1906C46.343 30.2365 43.8626 32.5922 42.4453 34.6788C31.2707 42.0935 23.0751 51.8509 19.1249 60.0268C20.0042 60.2171 22.6486 60.5452 25.0961 60.9651C20.1223 68.0846 13.5934 81.569 14.0199 93.6754C15.155 93.3342 21.2575 91.4641 24.2496 90.4929C22.6486 101.175 23.1144 119.122 30.0436 129.384C38.7707 123.203 43.8298 116.707 48.0359 110.847C49.1186 116.123 50.175 125.5 46.4545 141.038C49.4729 143.367 71.3498 154.857 96.0941 139.844L98.161 148L100.838 146.261C115.897 136.478 121.678 123.262 123.699 112.501C124.395 113.269 127.131 116.267 128.115 117.265C131.895 106.956 139.447 82.1661 122.131 62.2381V62.2446Z" fill="white"/>
</g>
<defs>
<filter id="filter0_d_135_100" x="0" y="0" width="148" height="148" filterUnits="userSpaceOnUse" color-interpolation-filters="sRGB">
<feFlood flood-opacity="0" result="BackgroundImageFix"/>
<feColorMatrix in="SourceAlpha" type="matrix" values="0 0 0 0 0 0 0 0 0 0 0 0 0 0 0 0 0 0 127 0" result="hardAlpha"/>
<feOffset/>
<feComposite in2="hardAlpha" operator="out"/>
<feColorMatrix type="matrix" values="0 0 0 0 0 0 0 0 0 0 0 0 0 0 0 0 0 0 1 0"/>
<feBlend mode="normal" in2="BackgroundImageFix" result="effect1_dropShadow_135_100"/>
<feBlend mode="normal" in="SourceGraphic" in2="effect1_dropShadow_135_100" result="shape"/>
</filter>
</defs>
</svg>
