<svg width="52" height="52" viewBox="0 0 52 52" fill="none" xmlns="http://www.w3.org/2000/svg">
<path d="M26 49.6557C16.8697 49.6557 9.43799 42.1157 9.43799 32.851V2.34433H42.5577V32.8467C42.562 42.1157 35.1303 49.6557 26 49.6557Z" fill="white"/>
<path d="M10.3784 3.28467V32.8467C10.3784 41.5957 17.3854 48.7153 26.0001 48.7153C34.6148 48.7153 41.6218 41.5957 41.6218 32.8467V3.28467H10.3784Z" fill="#00945E"/>
<path d="M25.051 22.048C25.35 22.126 25.5884 22.3123 25.7444 22.5897C25.792 22.672 25.8224 22.7543 25.8484 22.828C26.117 22.737 26.4074 22.698 26.5937 22.685C26.5937 22.6763 26.5937 22.6633 26.5937 22.6547C26.5894 22.425 26.624 22.334 26.6457 22.282V22.2777C26.689 22.191 26.7844 22.1087 26.9577 22.0133C26.9967 21.9917 27.0314 21.9743 27.066 21.957C27.0747 21.7273 27.092 21.177 27.105 20.9344C27.118 20.618 27.17 19.877 27.1744 19.8337C27.1787 19.773 27.2134 19.6863 27.2957 19.6257L27.3044 19.6213C27.43 19.539 27.534 19.461 27.573 19.4263C27.586 19.3657 27.599 19.2183 27.6034 19.0753L27.6077 18.915L27.7637 18.9063C27.7724 18.9063 27.8287 18.8977 27.859 18.863C27.8677 18.8067 27.859 18.6593 27.8417 18.5293L27.8244 18.408L27.937 18.3517C27.989 18.3257 28.132 18.2303 28.1884 18.1177C28.249 17.9963 28.288 17.7623 28.2967 17.563C28.2317 17.6323 28.158 17.667 28.0887 17.667C28.0367 17.667 27.8634 17.6453 27.8504 17.368C27.8287 16.9607 28.1624 16.7137 28.1754 16.705L28.2924 16.6227L28.3964 16.718C28.418 16.7397 28.4527 16.7613 28.4917 16.783C28.5004 16.7483 28.5134 16.7137 28.522 16.679C28.5654 16.5403 28.6217 16.3627 28.6477 16.0723V16.068C28.6867 15.7257 28.6 15.6477 28.5697 15.6217C28.5654 15.6173 28.5654 15.6173 28.561 15.613C28.535 15.6043 28.4787 15.587 28.418 15.587C28.3747 15.587 28.3314 15.5957 28.301 15.6087C28.2274 15.6693 28.158 15.6997 28.0887 15.6997C28.0064 15.6997 27.9327 15.6563 27.8894 15.5827C27.82 15.47 27.8417 15.3053 27.8937 15.2057C27.9457 15.106 28.067 15.054 28.314 15.0193C28.353 15.015 28.392 15.0063 28.4267 15.0063C28.4224 14.9803 28.4137 14.963 28.4137 14.963L28.2707 14.6597L28.6 14.7117C28.6044 14.7117 28.8904 14.755 29.2544 14.755C29.614 14.755 29.9174 14.7117 30.1557 14.6293C30.979 14.339 32.071 14.3087 32.383 14.3087H32.3874H32.3917C32.591 14.313 32.7904 14.3173 32.981 14.3173C35.2257 14.3173 36.4694 13.8667 36.998 13.6717C37.0197 13.663 37.0414 13.6543 37.0587 13.65H37.063C37.6264 13.455 38.2374 13.0997 38.7487 12.6793C39.299 12.2243 39.689 11.7217 39.8494 11.2623L39.8537 11.258L39.858 11.2537C40.1527 10.569 40.222 9.49435 39.4594 8.72302C39.039 8.29835 38.5017 8.08168 37.8647 8.08168C37.6437 8.08168 37.4357 8.10768 37.258 8.14235C37.7824 8.32002 38.1854 8.54102 38.48 8.80535C38.8137 9.10868 38.948 9.41635 39.039 9.70235L39.0434 9.71535V9.72835C39.104 10.088 39.0737 10.4303 38.9437 10.7423C38.7877 11.1237 38.493 11.4703 38.0597 11.7693C37.0284 12.5623 35.347 12.7833 34.671 12.844C34.411 12.87 34.0904 12.8873 33.7264 12.8873C32.8814 12.8873 31.902 12.8093 31.5164 12.7357C31.1264 12.662 30.173 12.5797 29.6617 12.5363C29.5534 12.5277 29.458 12.519 29.393 12.5103C29.2804 12.5017 29.1764 12.493 29.081 12.493C28.8644 12.493 28.7344 12.5407 28.6087 12.662L28.6 12.6663C28.4397 12.805 28.314 12.87 28.2014 12.87C28.132 12.87 28.0714 12.844 28.028 12.7963L28.0237 12.792C28.0194 12.7877 27.6684 12.3717 27.1527 12.3717C27.1267 12.3717 27.1007 12.3717 27.0747 12.376C26.65 12.4107 26.533 12.5147 26.4334 12.61C26.3857 12.6533 26.3337 12.701 26.2644 12.7357C26.208 12.766 26.1517 12.7963 26.0867 12.7963C26.0044 12.7963 25.9437 12.753 25.9004 12.7227C25.8787 12.7097 25.4844 12.4497 25.0684 12.3847C25.025 12.3803 24.9774 12.3803 24.9297 12.3803C24.323 12.3803 23.764 12.701 23.7597 12.7053L23.556 12.8267L23.504 12.6143C23.4607 12.5797 23.2874 12.519 23.0274 12.519C22.9754 12.519 22.919 12.5233 22.8714 12.5277C22.7587 12.5407 22.5637 12.5537 22.3297 12.5753C21.7924 12.6187 21.0557 12.675 20.7307 12.7443C20.358 12.8223 19.1057 12.9393 18.07 12.9393C17.7884 12.9393 17.5414 12.9307 17.342 12.9133C17.017 12.8917 16.3714 12.8267 15.6607 12.6403C14.9457 12.454 14.365 12.1983 13.936 11.8777C13.4984 11.5873 13.195 11.245 13.0347 10.8637C12.9047 10.5517 12.8657 10.2137 12.9177 9.84968V9.83668L12.922 9.82368C13.0087 9.53768 13.1387 9.22568 13.468 8.91802C13.7584 8.64502 14.157 8.41968 14.677 8.23335C14.5124 8.20302 14.3217 8.18135 14.118 8.18135C13.4594 8.18135 12.9134 8.40668 12.4887 8.85302C11.7347 9.64602 11.8257 10.7163 12.1334 11.3923L12.1377 11.3967L12.142 11.401C12.3067 11.856 12.714 12.35 13.2947 12.8007C13.8234 13.2123 14.456 13.5547 15.028 13.741H15.0324C15.0627 13.7497 15.0974 13.7627 15.1364 13.7757C15.6997 13.9707 16.8654 14.378 18.9887 14.378C19.279 14.378 19.5867 14.3693 19.89 14.352H19.8987C19.9334 14.352 19.9767 14.352 20.02 14.352C20.1154 14.352 20.2324 14.3477 20.3667 14.3477C21.1944 14.3477 21.8097 14.417 22.2474 14.5643C22.8367 14.755 23.504 14.768 23.634 14.768C23.647 14.768 23.6557 14.768 23.6557 14.768H23.7467L23.7987 14.8373C23.829 14.8807 23.8334 14.9153 23.842 14.9933C23.8507 15.08 23.8637 15.2273 23.881 15.431C23.9027 15.6953 23.7814 15.925 23.543 16.068C23.491 16.0983 23.4434 16.1243 23.3957 16.1417C23.4087 16.1893 23.426 16.2413 23.4347 16.2933C23.4694 16.4363 23.4954 16.5793 23.517 16.692C23.5257 16.744 23.5387 16.8047 23.5474 16.8437C23.608 16.9 23.647 16.9693 23.6817 17.0257C23.6947 17.0473 23.7077 17.0733 23.7164 17.0863C23.7424 17.1167 23.803 17.1643 23.8334 17.186L24.115 17.3853L23.8204 17.4893C23.8247 17.8057 23.8594 18.161 23.9764 18.3213C23.985 18.3257 24.0024 18.33 24.011 18.3343C24.128 18.3777 24.3447 18.4557 24.4357 18.7113L24.4444 18.7373V18.7633C24.4574 19.0233 24.479 19.3137 24.4964 19.4653C24.6784 19.5433 24.7954 19.6993 24.8257 19.7427C24.9297 19.8727 24.96 20.02 24.9817 20.1413V20.15C24.9817 20.1673 24.986 20.2107 24.9904 20.2627C24.999 20.3493 25.0077 20.462 25.012 20.5053V20.5097C25.0207 20.6007 25.012 20.722 25.0077 20.878C24.999 21.047 24.9904 21.2377 24.9947 21.424C24.9947 21.671 25.0294 21.9137 25.051 22.048ZM25.571 23.3437L25.545 23.0923C25.5407 23.062 25.4627 22.464 24.869 22.373L24.7477 22.3557L24.7217 22.2343C24.7174 22.217 24.6437 21.8443 24.6307 21.4283C24.6264 21.2247 24.635 21.021 24.6437 20.8563C24.6524 20.7177 24.6567 20.6007 24.6524 20.5313C24.648 20.4837 24.6394 20.3753 24.6307 20.2887C24.6264 20.241 24.622 20.202 24.622 20.1803C24.6047 20.072 24.5787 20.0027 24.5397 19.9507L24.531 19.942L24.5267 19.9333C24.5007 19.89 24.4054 19.7817 24.2927 19.76L24.1627 19.7383L24.1497 19.6083C24.1497 19.591 24.1064 19.1837 24.0847 18.798C24.05 18.7243 23.9807 18.694 23.881 18.6593C23.816 18.6377 23.751 18.6117 23.7077 18.5553L23.7034 18.551C23.634 18.4687 23.4564 18.2477 23.4564 17.355V17.3333C23.4477 17.3247 23.439 17.316 23.4304 17.303C23.4044 17.2727 23.3827 17.2337 23.361 17.199C23.3437 17.1687 23.3047 17.1037 23.2874 17.0907L23.2484 17.0647L23.2267 17.0213C23.2007 16.9737 23.192 16.9087 23.1617 16.7527C23.14 16.64 23.114 16.5057 23.0837 16.3713V16.367C23.0577 16.2413 22.997 16.0897 22.997 16.0897L22.9147 15.8817L23.1314 15.847C23.14 15.847 23.2527 15.8253 23.361 15.756C23.5214 15.6563 23.53 15.535 23.5257 15.4527C23.5127 15.2923 23.504 15.184 23.4954 15.1103C23.2267 15.1017 22.6547 15.0627 22.1304 14.8937C21.7274 14.7593 21.1467 14.6943 20.358 14.6943C20.228 14.6943 20.111 14.6943 20.02 14.6987C19.9767 14.6987 19.9377 14.6987 19.8987 14.6987C19.5867 14.716 19.279 14.7247 18.98 14.7247C18.0397 14.7247 17.1687 14.6467 16.3887 14.4863C15.7387 14.3563 15.2837 14.196 15.0107 14.105C14.976 14.092 14.9414 14.079 14.911 14.0703C14.3 13.871 13.6327 13.507 13.0737 13.0737C12.6317 12.727 12.051 12.181 11.8084 11.5223C11.609 11.076 11.518 10.569 11.5614 10.0923C11.6134 9.52468 11.843 9.00902 12.233 8.60168C12.5017 8.32002 12.818 8.11202 13.1734 7.98202C13.4637 7.87802 13.78 7.82168 14.118 7.82168C14.8114 7.82168 15.3444 8.04702 15.366 8.05568L15.8384 8.25502L15.3444 8.38502C13.6024 8.84868 13.377 9.52902 13.2644 9.90602C13.169 10.5733 13.4507 11.1193 14.131 11.5743L14.1397 11.5787C14.963 12.1897 16.3454 12.4757 17.368 12.545H17.3724C17.563 12.5623 17.797 12.571 18.0744 12.571C19.0537 12.571 20.2974 12.4583 20.6614 12.3803C21.008 12.311 21.7577 12.2503 22.3037 12.207C22.529 12.1897 22.7284 12.1723 22.8324 12.1637C22.8974 12.155 22.9624 12.155 23.0274 12.155C23.1227 12.155 23.5084 12.1637 23.7164 12.324C23.9417 12.2157 24.414 12.0207 24.9297 12.0207C24.9904 12.0207 25.051 12.025 25.1074 12.0293H25.116C25.6014 12.103 26.039 12.3847 26.091 12.4193L26.0954 12.415L26.104 12.4107C26.13 12.3977 26.1604 12.3717 26.195 12.337C26.325 12.22 26.5027 12.0553 27.0487 12.012C27.0834 12.0077 27.118 12.0077 27.1527 12.0077C27.6987 12.0077 28.0887 12.337 28.236 12.4887C28.262 12.4713 28.3054 12.4453 28.366 12.3933C28.6087 12.155 28.8774 12.1247 29.081 12.1247C29.1937 12.1247 29.302 12.1333 29.4234 12.1463C29.4884 12.1507 29.5794 12.1593 29.6877 12.168C30.2034 12.2157 31.1697 12.298 31.577 12.376C31.8977 12.4367 32.8207 12.519 33.722 12.519C34.0774 12.519 34.385 12.506 34.632 12.48H34.6364C35.282 12.4237 36.8854 12.2157 37.843 11.4747L37.8517 11.4703C38.5277 11.0067 38.8007 10.452 38.6924 9.78902C38.571 9.41635 38.3327 8.74035 36.582 8.30702L36.0837 8.18568L36.5517 7.97768C36.5734 7.96468 37.1324 7.72202 37.8517 7.72202C38.181 7.72202 38.4887 7.77402 38.7747 7.87802C39.1214 8.00368 39.429 8.20302 39.6977 8.47168C39.9057 8.67968 40.0704 8.91802 40.1874 9.18235C40.2957 9.42068 40.365 9.68068 40.3954 9.94935C40.4474 10.426 40.365 10.933 40.1744 11.3837C39.9447 12.0467 39.39 12.6013 38.9654 12.9523C38.428 13.3987 37.7737 13.7713 37.1757 13.9837C37.1584 13.9923 37.1367 13.9967 37.115 14.0053C36.8377 14.105 36.374 14.274 35.698 14.417C34.8834 14.586 33.969 14.6727 32.9767 14.6727C32.7817 14.6727 32.578 14.6683 32.3787 14.664C32.1577 14.664 31.057 14.69 30.264 14.9673C29.991 15.0627 29.6487 15.1103 29.25 15.1103C29.068 15.1103 28.9034 15.1017 28.7777 15.0887C28.7777 15.132 28.769 15.1753 28.756 15.223L28.73 15.3097C28.7647 15.327 28.782 15.3443 28.7994 15.3617C28.9077 15.457 29.0507 15.639 28.9944 16.1113C28.964 16.4363 28.899 16.64 28.8557 16.7873C28.821 16.9 28.7994 16.9693 28.8037 17.043L28.8254 17.3333L28.6087 17.2423C28.6304 17.2943 28.6477 17.355 28.6477 17.433C28.652 17.6453 28.6174 18.0483 28.5004 18.2823C28.4267 18.4297 28.2967 18.538 28.2057 18.603C28.21 18.6333 28.21 18.668 28.2144 18.7027C28.2274 18.8977 28.2057 19.006 28.145 19.0753C28.0844 19.149 28.0107 19.1967 27.9457 19.2227C27.9457 19.2487 27.9414 19.279 27.9414 19.305C27.924 19.526 27.898 19.5953 27.8547 19.643C27.8114 19.695 27.6987 19.7817 27.521 19.8987C27.508 20.0633 27.4647 20.6787 27.456 20.9473C27.443 21.2593 27.4127 22.0697 27.4127 22.0783L27.4084 22.1867L27.3087 22.23C27.157 22.295 26.9967 22.3947 26.9577 22.438C26.9404 22.49 26.936 22.6763 26.9534 22.8323L26.9707 23.023L26.78 23.0273C26.7757 23.0273 26.182 23.0403 25.8007 23.2267L25.571 23.3437Z" fill="#F0E523"/>
<path d="M28.1233 15.3443C28.1147 15.3617 28.1103 15.392 28.1103 15.4137C28.1147 15.4093 28.119 15.4093 28.1233 15.405L28.1537 15.379L28.1883 15.3617C28.2533 15.3313 28.3313 15.3183 28.4137 15.3183C28.4223 15.3183 28.431 15.3183 28.444 15.3183L28.457 15.2707H28.4527C28.418 15.275 28.379 15.2793 28.3487 15.2837C28.1927 15.314 28.1407 15.3357 28.1233 15.3443ZM28.2187 17.0387C28.1623 17.1123 28.106 17.2207 28.1147 17.355V17.3593L28.2837 17.186L28.2187 17.0387ZM25.298 21.8443C25.5883 21.9613 25.8223 22.1737 25.9827 22.4597C25.9913 22.4727 26 22.4857 26.0043 22.503C26.117 22.477 26.2253 22.4553 26.325 22.4423C26.338 22.3297 26.3597 22.243 26.3987 22.165L26.403 22.1563C26.4723 22.022 26.5893 21.9137 26.7973 21.7923C26.806 21.541 26.8233 21.125 26.8277 20.9213C26.8407 20.6093 26.8927 19.8943 26.897 19.812C26.9057 19.656 26.9967 19.5043 27.131 19.4047L27.1483 19.3917C27.2133 19.3483 27.2697 19.3093 27.313 19.2747C27.3173 19.2183 27.326 19.1447 27.326 19.0623L27.3433 18.6507L27.5773 18.6377C27.573 18.6117 27.573 18.59 27.5687 18.564L27.5253 18.252L27.8027 18.1047C27.846 18.0787 27.924 18.018 27.9413 17.9877C27.95 17.9703 27.9587 17.9487 27.9673 17.9183C27.768 17.8707 27.5903 17.6973 27.573 17.3767C27.5427 16.8307 27.963 16.5143 28.015 16.4797L28.3097 16.2673L28.34 16.2977C28.353 16.224 28.366 16.1417 28.3747 16.0463V16.0377C28.3833 15.9683 28.3833 15.9207 28.3833 15.886C28.288 15.9467 28.1883 15.9727 28.0843 15.9727C27.9067 15.9727 27.742 15.8817 27.651 15.7257C27.5253 15.5177 27.56 15.2447 27.6467 15.08L27.651 15.0757C27.7333 14.924 27.8763 14.846 28.0367 14.7983L27.8027 14.3087L28.639 14.4387C28.6433 14.4387 28.912 14.482 29.25 14.482C29.5793 14.482 29.8523 14.4473 30.0603 14.3737C30.9227 14.0703 32.0537 14.04 32.3787 14.0357H32.3873H32.396C32.591 14.04 32.786 14.0443 32.9767 14.0443C35.1737 14.0443 36.3827 13.6023 36.8983 13.416C36.92 13.4073 36.9373 13.403 36.959 13.3943H36.9633C37.4963 13.208 38.077 12.8743 38.5623 12.4713C39.0737 12.0467 39.4377 11.5873 39.5807 11.1757L39.585 11.1583L39.5937 11.1453C39.8537 10.5387 39.9187 9.58967 39.2513 8.90934C39.0173 8.67534 38.7443 8.51067 38.4323 8.42401C38.5103 8.48034 38.584 8.54101 38.649 8.60167C39.0303 8.94834 39.1863 9.30801 39.286 9.61567L39.2947 9.64601L39.299 9.67634C39.3683 10.088 39.3293 10.478 39.1863 10.8377C39.013 11.271 38.6837 11.6523 38.2113 11.9817C37.7347 12.3457 37.089 12.636 36.2917 12.8397C35.659 13 35.0697 13.0737 34.6883 13.1083C34.4197 13.1387 34.0903 13.1517 33.7177 13.1517C32.8597 13.1517 31.8543 13.0693 31.4557 12.9957C31.0787 12.9263 30.1383 12.844 29.6313 12.7963C29.523 12.7877 29.4277 12.779 29.3627 12.7747C29.2587 12.766 29.159 12.7573 29.0767 12.7573C28.9163 12.7573 28.86 12.7877 28.795 12.8527L28.7777 12.87C28.6433 12.987 28.4397 13.143 28.2013 13.143C28.054 13.143 27.9153 13.0823 27.8243 12.9783L27.8157 12.9697C27.807 12.961 27.5297 12.6447 27.1527 12.6447C27.1353 12.6447 27.1137 12.6447 27.0963 12.649C26.767 12.675 26.6977 12.74 26.6153 12.8093C26.559 12.8613 26.494 12.922 26.3943 12.974C26.338 13.0087 26.2297 13.0693 26.0823 13.0693C25.9177 13.0693 25.8007 12.9913 25.7443 12.9523C25.714 12.9307 25.376 12.7183 25.0337 12.662C24.999 12.6577 24.9643 12.6577 24.9253 12.6577C24.401 12.6577 23.8983 12.9437 23.8897 12.948L23.374 13.2513L23.2657 12.8223C23.2093 12.8093 23.127 12.7963 23.0187 12.7963C22.9753 12.7963 22.932 12.8007 22.8887 12.805C22.776 12.818 22.5723 12.8353 22.3427 12.8527C21.814 12.896 21.086 12.9523 20.7783 13.0173C20.3927 13.0997 19.1143 13.221 18.0613 13.221C17.771 13.221 17.5197 13.2123 17.3117 13.195C16.978 13.1733 16.315 13.1083 15.5827 12.9133C14.8373 12.7183 14.2263 12.4497 13.7713 12.1117C13.2947 11.791 12.9567 11.4097 12.7747 10.9807C12.623 10.6253 12.5797 10.2353 12.6403 9.82367L12.6447 9.78901L12.6533 9.75867C12.7487 9.45101 12.896 9.08701 13.273 8.73601C13.3423 8.67101 13.4117 8.61034 13.4897 8.55401C13.1777 8.64501 12.909 8.81401 12.6793 9.05234C12.0207 9.74567 12.103 10.6903 12.376 11.2927L12.3847 11.31L12.389 11.3273C12.5363 11.7347 12.9133 12.1853 13.4507 12.6057C13.9533 12.9957 14.5557 13.325 15.1017 13.5027H15.106C15.1363 13.5113 15.171 13.5243 15.21 13.5373C15.756 13.728 16.8957 14.1223 18.9757 14.1223C19.2617 14.1223 19.5607 14.1137 19.864 14.1007H19.8813C19.916 14.1007 19.9593 14.1007 20.0027 14.1007C20.098 14.1007 20.2193 14.0963 20.3493 14.0963C21.2073 14.0963 21.8487 14.17 22.3167 14.326C22.867 14.5037 23.4953 14.5167 23.6167 14.5167H23.634L23.8593 14.5123L23.998 14.69C24.076 14.7897 24.089 14.885 24.0977 14.9803C24.1063 15.0713 24.1237 15.223 24.1367 15.431C24.167 15.7863 24.0067 16.1027 23.6947 16.3063C23.725 16.4363 23.7467 16.562 23.7683 16.666C23.7727 16.6877 23.777 16.718 23.7813 16.7397C23.8333 16.8003 23.868 16.8653 23.8983 16.913C23.9027 16.9173 23.907 16.9303 23.9113 16.939C23.9287 16.952 23.9547 16.9737 23.972 16.9867L24.7 17.4633L24.0977 17.6713C24.1107 17.9053 24.141 18.031 24.167 18.096C24.323 18.1567 24.5787 18.2867 24.6913 18.6117L24.713 18.6723L24.7173 18.7373C24.726 18.928 24.7433 19.1317 24.7563 19.2833C24.9037 19.383 25.0033 19.5043 25.0467 19.5693C25.1853 19.747 25.2287 19.9507 25.2503 20.085L25.2547 20.111C25.2547 20.1283 25.259 20.1717 25.2633 20.228C25.272 20.3103 25.2807 20.423 25.285 20.4663V20.475C25.2937 20.579 25.285 20.7133 25.2807 20.878C25.272 21.0427 25.2633 21.2247 25.2677 21.4067C25.2633 21.5713 25.2807 21.723 25.298 21.8443ZM25.337 23.7597L25.2763 23.1227C25.2763 23.1097 25.259 22.997 25.194 22.8843C25.1117 22.7457 24.9947 22.6633 24.83 22.6417L24.5223 22.594L24.4617 22.2907C24.4573 22.2733 24.3793 21.8747 24.3663 21.4413C24.362 21.229 24.3707 21.0167 24.3793 20.8477C24.3837 20.7307 24.3923 20.6093 24.388 20.5573C24.3837 20.5097 24.375 20.4013 24.3663 20.3147V20.306C24.362 20.267 24.3577 20.2367 24.3577 20.215C24.3447 20.15 24.336 20.1283 24.3317 20.124L24.3143 20.1023L24.3013 20.085C24.2883 20.0677 24.258 20.0417 24.245 20.033L23.92 19.9767L23.8853 19.643C23.881 19.604 23.8463 19.2747 23.8247 18.9323C23.816 18.928 23.8073 18.9237 23.7943 18.9193C23.712 18.889 23.595 18.8457 23.504 18.733C23.4607 18.681 23.374 18.5727 23.3047 18.3473C23.2353 18.122 23.2007 17.8143 23.1963 17.4417C23.1747 17.407 23.153 17.3767 23.1357 17.3463C23.127 17.329 23.1183 17.316 23.114 17.3073L23.049 17.264L22.9927 17.1513C22.9493 17.069 22.9363 16.9823 22.9017 16.809C22.88 16.7007 22.8583 16.5707 22.828 16.445L22.8237 16.432C22.8063 16.3453 22.763 16.2327 22.75 16.198L22.542 15.678L23.088 15.5957C23.1097 15.5913 23.1703 15.574 23.218 15.5437C23.2483 15.5263 23.2527 15.5133 23.2527 15.5133C23.2527 15.5133 23.2527 15.509 23.2527 15.4917C23.2483 15.457 23.2483 15.4223 23.244 15.3877C22.9233 15.366 22.4727 15.3097 22.0437 15.171H22.0393C21.6667 15.0453 21.112 14.9847 20.3537 14.9847C20.228 14.9847 20.111 14.9847 20.0157 14.989C19.9723 14.989 19.9333 14.989 19.8987 14.989C19.5823 15.0063 19.2747 15.015 18.9713 15.015C18.0137 15.015 17.1253 14.9327 16.3237 14.7723C15.652 14.638 15.1883 14.4777 14.911 14.378H14.9067C14.872 14.365 14.8417 14.3563 14.8157 14.3477C14.1787 14.1397 13.4767 13.7627 12.896 13.3077C12.428 12.9437 11.8127 12.3587 11.5483 11.648C11.3317 11.1627 11.2363 10.6123 11.284 10.0923C11.3403 9.46401 11.596 8.89201 12.025 8.43701C12.324 8.12501 12.675 7.89101 13.0693 7.74801C13.39 7.63101 13.7367 7.57467 14.105 7.57467C14.8373 7.57467 15.4007 7.80434 15.4613 7.83034L16.9607 8.40234L15.4007 8.67534C13.819 9.09567 13.6153 9.66767 13.5157 9.99267C13.442 10.5473 13.6847 10.985 14.2697 11.375L14.287 11.388C15.0627 11.96 16.3887 12.2373 17.3723 12.3023H17.381C17.563 12.3197 17.7927 12.3283 18.057 12.3283C19.0017 12.3283 20.2453 12.2157 20.592 12.1463C20.956 12.0727 21.7143 12.012 22.269 11.9687C22.4943 11.9513 22.6893 11.934 22.789 11.9253C22.8627 11.9167 22.9407 11.9123 23.0143 11.9123C23.153 11.9123 23.465 11.9253 23.7207 12.0467C23.998 11.9253 24.44 11.778 24.9167 11.778C24.986 11.778 25.051 11.7823 25.1203 11.7867L25.1463 11.791C25.519 11.8473 25.8613 12.0077 26.0607 12.1203C26.1257 12.064 26.2167 11.9947 26.3423 11.934C26.5243 11.8473 26.7453 11.7953 27.0183 11.7737C27.0617 11.7693 27.105 11.7693 27.144 11.7693C27.6293 11.7693 28.0063 11.986 28.236 12.168C28.535 11.9167 28.8513 11.8863 29.0723 11.8863C29.1937 11.8863 29.3107 11.8993 29.4363 11.908H29.4407C29.5057 11.9123 29.601 11.921 29.705 11.9297C30.2293 11.9773 31.2 12.0597 31.6203 12.1377C31.9323 12.1983 32.8337 12.2763 33.7133 12.2763C34.06 12.2763 34.3547 12.2633 34.593 12.2373H34.6017C35.2213 12.1853 36.764 11.986 37.6653 11.2883L37.6827 11.2753C38.2633 10.8723 38.4973 10.4303 38.4107 9.88001C38.3067 9.55934 38.0857 8.98734 36.4997 8.59734L35.2387 8.28534L36.426 7.75234C36.491 7.72201 37.076 7.47067 37.8343 7.47067C38.194 7.47067 38.532 7.52701 38.8483 7.63967C39.234 7.77834 39.5763 7.99934 39.871 8.29834C40.1007 8.52801 40.2827 8.79667 40.4127 9.08701C40.534 9.35134 40.612 9.64167 40.6423 9.94067C40.6987 10.4563 40.612 11.011 40.404 11.5007C40.1483 12.22 39.5633 12.8093 39.117 13.1777C38.5537 13.6413 37.8733 14.0357 37.245 14.2523C37.2277 14.2567 37.2103 14.2653 37.193 14.274H37.1887C36.907 14.378 36.4303 14.5513 35.7327 14.6943C34.9007 14.8677 33.969 14.9543 32.9593 14.9543C32.7643 14.9543 32.5607 14.95 32.357 14.9457C32.136 14.9457 31.083 14.9717 30.3377 15.2317C30.0343 15.3357 29.6617 15.392 29.2327 15.392C29.2023 15.392 29.172 15.392 29.1373 15.392C29.2457 15.587 29.2803 15.8383 29.2413 16.1503C29.2067 16.5013 29.1373 16.731 29.0897 16.8783C29.068 16.9477 29.0463 17.0127 29.0507 17.0343L29.1027 17.7667L28.8903 17.6757C28.873 17.9053 28.8297 18.2 28.7213 18.4123V18.4167C28.652 18.5467 28.5567 18.655 28.4657 18.7373C28.4743 18.9237 28.4613 19.1143 28.3357 19.2617C28.2923 19.3137 28.2447 19.3613 28.1883 19.4003C28.1667 19.5953 28.1363 19.7253 28.041 19.8337C28.0063 19.877 27.937 19.942 27.7637 20.0633C27.7463 20.3147 27.716 20.7567 27.7073 20.9733C27.6987 21.2507 27.6727 21.9007 27.6683 22.0957L27.6597 22.3817L27.404 22.4943C27.326 22.529 27.2523 22.568 27.2003 22.6027C27.2003 22.659 27.2003 22.7413 27.209 22.8237L27.2567 23.3047L26.7713 23.3133C26.6197 23.3177 26.1733 23.3567 25.9047 23.4867L25.337 23.7597Z" fill="#F0E523"/>
<path d="M17.9182 16.107C17.9096 11.648 21.5192 8.02101 25.9782 8.01234C30.4372 8.00368 34.0599 11.6133 34.0686 16.0767C34.0772 20.54 30.4676 24.1583 26.0086 24.167C21.5496 24.1757 17.9269 20.5703 17.9182 16.107Z" fill="#E2251E"/>
<path d="M25.9914 8.35035H25.9741C23.9071 8.35468 21.9614 9.16501 20.5054 10.6297C19.0451 12.0943 18.2434 14.04 18.2477 16.1113C18.2607 20.3667 21.7317 23.8333 25.9914 23.8333H26.0087C30.2771 23.8247 33.7437 20.345 33.7351 16.0767C33.7264 11.817 30.2554 8.35035 25.9914 8.35035ZM25.9914 24.5007C21.3634 24.5007 17.5934 20.735 17.5847 16.107C17.5804 13.8623 18.4514 11.7477 20.0374 10.153C21.6234 8.56268 23.7337 7.68301 25.9784 7.67868H25.9957C30.6237 7.67868 34.3981 11.4443 34.4067 16.0723C34.4154 20.709 30.6497 24.492 26.0131 24.5007H25.9914Z" fill="#F0E523"/>
<path d="M17.9182 16.107C17.9096 11.648 21.5192 8.02101 25.9782 8.01234C30.4372 8.00368 34.0599 11.6133 34.0686 16.0767C34.0772 20.54 30.4676 24.1583 26.0086 24.167C21.5496 24.1757 17.9269 20.5703 17.9182 16.107Z" fill="#E2251E"/>
<path d="M31.6767 10.7943L37.0111 10.348L31.3994 10.439L31.6767 10.7943Z" fill="black" stroke="black" stroke-width="0.5225" stroke-miterlimit="10"/>
<path d="M25.4887 8.67534C29.8134 8.67534 33.3191 12.181 33.3191 16.5057C33.3191 18.317 32.7037 19.981 31.6724 21.307C32.9681 19.9203 33.7654 18.0613 33.7654 16.0117C33.7654 11.7303 30.2944 8.25934 26.0131 8.25934C24.1367 8.25934 22.4207 8.92667 21.0774 10.0317C22.3384 9.178 23.8551 8.67534 25.4887 8.67534Z" fill="white"/>
<path d="M31.5379 10.4174L35.0739 6.17502L31.3169 10.179L31.5379 10.4174Z" fill="black" stroke="black" stroke-width="0.5225" stroke-miterlimit="10"/>
<path d="M31.0008 9.932C30.6021 9.568 26.8364 6.55634 26.8364 6.55634C26.8364 6.55634 30.5068 9.815 30.8578 10.1833L31.0008 9.932Z" fill="black" stroke="black" stroke-width="0.5225" stroke-miterlimit="10"/>
<path d="M31.0093 4.22501L31.0613 10.0187L31.5336 10.1963L31.0093 4.22501Z" fill="black" stroke="black" stroke-width="0.5225" stroke-miterlimit="10"/>
<path d="M31.0223 4.89667L30.953 9.98833L27.0486 6.734L30.5196 10.3003L25.2026 10.4607L30.5196 10.712L27.9413 13.6717L30.8056 10.9373L31.0916 16.315L31.2216 10.9677L33.9256 13.4203L31.538 10.6817L36.8203 10.348L31.5076 10.3003L34.489 6.79467L31.33 10.0273L31.0223 4.89667Z" fill="white"/>
<path d="M23.1486 15.0063C23.1486 15.0063 23.1573 15.015 23.1963 15.5047C23.2353 15.99 22.6589 16.0853 22.6589 16.0853C22.6589 16.0853 22.7239 16.25 22.7543 16.393C22.8236 16.666 22.8539 16.952 22.8843 17.0083C22.9666 17.0603 23.0186 17.199 23.0706 17.2597C23.1183 17.3203 23.2266 17.394 23.2266 17.394L23.1399 17.4243C23.1399 18.2693 23.3003 18.4513 23.3523 18.512C23.3999 18.5727 23.6773 18.5727 23.7683 18.8283C23.7856 19.2183 23.8333 19.656 23.8333 19.656C24.0456 19.695 24.1843 19.9073 24.1843 19.9073C24.2536 19.994 24.2883 20.1023 24.3056 20.2237C24.3099 20.267 24.3316 20.5097 24.3359 20.579C24.3533 20.748 24.3099 21.1207 24.3186 21.489C24.3273 21.892 24.4053 22.2647 24.4053 22.2647C25.1463 22.3817 25.2243 23.1357 25.2243 23.1357C25.6489 22.932 26.2816 22.919 26.2816 22.919C26.2816 22.919 26.2469 22.5507 26.3076 22.4293C26.3683 22.3037 26.7409 22.139 26.7409 22.139C26.7409 22.139 26.7713 21.3243 26.7843 21.008C26.7973 20.6917 26.8536 19.9117 26.8536 19.9117C26.8536 19.9117 26.8536 19.8683 26.9013 19.8337C27.0096 19.76 27.1916 19.6343 27.2219 19.591C27.2696 19.5433 27.2826 19.149 27.2826 19.149C27.2826 19.149 27.4299 19.136 27.5123 19.0233C27.5729 18.9583 27.5166 18.5683 27.5166 18.5683C27.5166 18.5683 27.7506 18.447 27.8459 18.2563C27.9413 18.0657 27.9803 17.7103 27.9716 17.4937C27.9673 17.277 27.8416 17.29 27.7853 17.3073C27.7679 17.4027 27.5383 17.7363 27.5209 17.42C27.5036 17.1037 27.7723 16.913 27.7723 16.913C27.8849 17.0127 28.1276 17.121 28.1276 17.121C28.1146 16.887 28.2706 16.7223 28.3226 16.159C28.3789 15.6607 28.1926 15.574 28.1709 15.5437C28.1493 15.5133 27.8893 15.431 27.7029 15.535C27.5079 15.7127 27.4949 15.4613 27.5469 15.366C27.5989 15.2663 28.0929 15.2403 28.0929 15.2403C28.1363 15.093 28.0756 14.9587 28.0756 14.9587C28.0756 14.9587 29.0333 15.106 29.7179 14.872C30.4546 14.6163 31.4556 14.5643 31.8889 14.56" fill="black"/>
<path d="M23.1486 15.0063C23.1486 15.0063 23.1573 15.015 23.1963 15.5047C23.2353 15.99 22.6589 16.0853 22.6589 16.0853C22.6589 16.0853 22.7239 16.25 22.7543 16.393C22.8236 16.666 22.8539 16.952 22.8843 17.0083C22.9666 17.0603 23.0186 17.199 23.0706 17.2597C23.1183 17.3203 23.2266 17.394 23.2266 17.394L23.1399 17.4243C23.1399 18.2693 23.3003 18.4513 23.3523 18.512C23.3999 18.5727 23.6773 18.5727 23.7683 18.8283C23.7856 19.2183 23.8333 19.656 23.8333 19.656C24.0456 19.695 24.1843 19.9073 24.1843 19.9073C24.2536 19.994 24.2883 20.1023 24.3056 20.2237C24.3099 20.267 24.3316 20.5097 24.3359 20.579C24.3533 20.748 24.3099 21.1207 24.3186 21.489C24.3273 21.892 24.4053 22.2647 24.4053 22.2647C25.1463 22.3817 25.2243 23.1357 25.2243 23.1357C25.6489 22.932 26.2816 22.919 26.2816 22.919C26.2816 22.919 26.2469 22.5507 26.3076 22.4293C26.3683 22.3037 26.7409 22.139 26.7409 22.139C26.7409 22.139 26.7713 21.3243 26.7843 21.008C26.7973 20.6917 26.8536 19.9117 26.8536 19.9117C26.8536 19.9117 26.8536 19.8683 26.9013 19.8337C27.0096 19.76 27.1916 19.6343 27.2219 19.591C27.2696 19.5433 27.2826 19.149 27.2826 19.149C27.2826 19.149 27.4299 19.136 27.5123 19.0233C27.5729 18.9583 27.5166 18.5683 27.5166 18.5683C27.5166 18.5683 27.7506 18.447 27.8459 18.2563C27.9413 18.0657 27.9803 17.7103 27.9716 17.4937C27.9673 17.277 27.8416 17.29 27.7853 17.3073C27.7679 17.4027 27.5383 17.7363 27.5209 17.42C27.5036 17.1037 27.7723 16.913 27.7723 16.913C27.8849 17.0127 28.1276 17.121 28.1276 17.121C28.1146 16.887 28.2706 16.7223 28.3226 16.159C28.3789 15.6607 28.1926 15.574 28.1709 15.5437C28.1493 15.5133 27.8893 15.431 27.7029 15.535C27.5079 15.7127 27.4949 15.4613 27.5469 15.366C27.5989 15.2663 28.0929 15.2403 28.0929 15.2403C28.1363 15.093 28.0756 14.9587 28.0756 14.9587C28.0756 14.9587 29.0333 15.106 29.7179 14.872C30.4546 14.6163 31.4556 14.5643 31.8889 14.56" stroke="black" stroke-width="0.5225" stroke-miterlimit="10"/>
<path d="M26.0824 12.4367C26.0824 12.4367 26.455 12.0077 27.0834 12.0163C27.8027 12.0293 28.2274 12.4973 28.2274 12.4973C28.2274 12.4973 28.6217 12.1637 28.7907 12.168C28.9597 12.1767 28.9207 12.09 30.1644 12.22C30.745 12.285 31.4254 12.3413 32.032 12.454C32.1404 12.4757 33.982 12.5667 34.2984 12.5103C34.5237 12.4713 35.724 12.3413 36.0014 12.2763C37.7347 11.843 38.3197 11.0587 38.3197 11.0587C38.3197 11.0587 38.8917 10.582 38.6664 9.71101C38.363 8.56268 36.1097 8.19001 36.1097 8.19001C36.1097 8.19001 38.7314 6.69501 40.1137 9.06534C40.2307 9.26468 40.287 9.49868 40.3564 9.77601C40.443 10.14 40.404 10.7293 40.2004 11.336C39.7757 12.6273 38.4194 13.338 38.025 13.5633C36.4694 14.4473 34.3287 14.5817 34.203 14.6033C33.943 14.6553 32.1187 14.638 32.0104 14.6423C31.5597 14.664 31.1134 14.729 30.7537 14.807C30.3854 14.8893 30.1124 14.989 29.9477 15.028C29.5447 15.119 28.912 15.08 28.7604 15.0627C28.7604 15.08 28.7517 15.1623 28.704 15.2967C29.094 15.5263 28.964 16.1503 28.964 16.1503C28.964 16.1503 28.9164 16.5837 28.795 16.887C28.7517 16.9953 28.7994 17.2943 28.7994 17.2943C28.7994 17.2943 28.5654 17.186 28.574 17.199C28.6824 17.3897 28.574 17.9573 28.5654 17.979C28.5394 18.1177 28.483 18.382 28.1797 18.5727C28.1754 18.5727 28.2144 18.863 28.1667 18.9713C28.1234 19.1057 27.9414 19.1923 27.924 19.1923C27.9154 19.4653 27.859 19.5693 27.8504 19.591C27.82 19.656 27.4994 19.8727 27.4994 19.8727C27.4994 19.8727 27.3867 22.1303 27.3867 22.1607C27.378 22.1693 26.9837 22.3297 26.9317 22.4293C26.897 22.633 26.9707 22.9927 26.949 22.9927C26.442 22.9797 25.9177 23.0967 25.5667 23.3003C25.5537 22.3167 24.7824 22.3383 24.7434 22.321C24.6307 21.9137 24.648 21.2637 24.6307 21.2247C24.6134 21.1857 24.752 20.1327 24.492 19.8553C24.466 19.825 24.3447 19.7037 24.167 19.708C24.1194 19.578 24.0977 18.915 24.076 18.746C24.024 18.642 23.6947 18.5987 23.6774 18.4817C23.5994 18.4253 23.4607 18.148 23.4564 17.3073C23.387 17.2293 23.3264 17.1037 23.2917 17.069C23.2744 17.0473 23.2527 17.043 23.244 17.0343C23.166 16.952 23.0967 16.2457 22.9104 15.873C22.8974 15.847 22.9234 15.8643 22.971 15.86C23.582 15.7733 23.5084 15.444 23.5084 15.444L23.4867 15.08C23.4824 15.0757 22.8194 15.0193 22.724 15.0107C22.5117 14.989 22.0697 14.8373 21.7014 14.755C21.138 14.6293 20.02 14.664 20.02 14.664C20.02 14.664 18.863 14.7247 18.2434 14.6813C17.2164 14.638 16.4797 14.469 16.2804 14.4387C15.483 14.326 14.3347 13.7973 14.2437 13.7713C13.819 13.6283 12.8224 12.8657 12.636 12.6923C11.9947 12.0943 11.778 11.4357 11.778 11.4357C11.778 11.4357 11.4704 10.751 11.5657 9.97101C11.7997 8.45868 13.026 8.02968 13.169 7.97334C14.4994 7.50101 15.7387 8.22468 15.782 8.23334C15.743 8.29401 13.4767 8.61901 13.247 9.95368C13.234 10.062 13.0564 10.8247 14.0704 11.5353C14.2264 11.6437 15.2577 12.3717 17.264 12.5363C17.6064 12.6057 19.9334 12.5363 20.3494 12.415C20.4837 12.376 22.984 12.129 23.218 12.1507C23.413 12.1637 23.6687 12.2633 23.7077 12.3283C24.2927 12.0337 24.622 12.0163 24.8214 12.012C25.558 12.0207 26.0824 12.4367 26.0824 12.4367Z" fill="white"/>
<path d="M39.5719 8.59735C38.3586 7.36668 36.6253 8.14235 36.6253 8.14235C38.4019 8.58002 38.7096 9.27768 38.8656 9.75435C38.9609 10.322 38.8396 11.011 37.9556 11.6263C37.0456 12.3284 35.5506 12.5883 34.6536 12.6663C33.6656 12.7703 32.0276 12.6533 31.5466 12.558C31.0656 12.467 29.7699 12.363 29.4103 12.3327C29.0463 12.3024 28.7516 12.2764 28.4873 12.5363C28.2316 12.7617 28.1666 12.6837 28.1666 12.6837C28.1666 12.6837 27.7333 12.1464 27.0659 12.2027C26.3986 12.2547 26.3683 12.493 26.1863 12.584C26.0953 12.636 26.0823 12.636 26.0043 12.5797C25.9263 12.5277 25.5233 12.2764 25.0943 12.2113C24.3706 12.1463 23.6729 12.5537 23.6729 12.5537C23.6339 12.3977 23.2136 12.3067 22.8539 12.3457C22.4943 12.3847 21.1813 12.4627 20.7003 12.5624C20.2193 12.662 18.3473 12.818 17.3593 12.727C16.4579 12.6664 14.9629 12.4107 14.0399 11.726C13.1429 11.128 13.0086 10.439 13.0953 9.87135C13.2426 9.39035 13.5329 8.69268 15.3053 8.22035C15.3053 8.22035 13.5589 7.47502 12.3673 8.72302C11.5786 9.55068 11.6263 10.6774 11.9816 11.4574C12.3673 12.5147 13.8233 13.5243 14.9759 13.9013C15.5306 14.092 17.0083 14.6727 19.9029 14.521C20.3363 14.5167 21.4543 14.4777 22.1953 14.7247C22.8799 14.95 23.6599 14.937 23.6599 14.937C23.6599 14.937 23.6686 14.95 23.7076 15.4397C23.7466 15.925 23.1703 16.0204 23.1703 16.0204C23.1703 16.0204 23.2353 16.185 23.2656 16.328C23.3349 16.601 23.3696 16.887 23.3956 16.9433C23.4779 16.9953 23.5299 17.134 23.5819 17.1947C23.6339 17.2553 23.7379 17.329 23.7379 17.329L23.6513 17.3594C23.6513 18.2044 23.8116 18.3864 23.8636 18.447C23.9113 18.5077 24.1886 18.512 24.2796 18.7634C24.2969 19.1533 24.3446 19.591 24.3446 19.591C24.5569 19.63 24.6956 19.8424 24.6956 19.8424C24.7693 19.929 24.7996 20.0417 24.8169 20.163C24.8213 20.2063 24.8429 20.449 24.8473 20.5183C24.8603 20.683 24.8213 21.06 24.8299 21.424C24.8429 21.827 24.9166 22.1997 24.9166 22.1997C25.6576 22.3167 25.7399 23.075 25.7399 23.075C26.1646 22.867 26.7929 22.8583 26.7929 22.8583C26.7929 22.8583 26.7583 22.49 26.8189 22.3687C26.8796 22.2474 27.2523 22.0784 27.2523 22.0784C27.2523 22.0784 27.2826 21.2637 27.2913 20.9473C27.3043 20.631 27.3606 19.851 27.3606 19.851C27.3606 19.851 27.3649 19.8077 27.4126 19.773C27.5209 19.7037 27.7029 19.5737 27.7333 19.5304C27.7766 19.4827 27.7939 19.0884 27.7939 19.0884C27.7939 19.0884 27.9369 19.0754 28.0236 18.9627C28.0886 18.8977 28.0323 18.5077 28.0323 18.5077C28.0323 18.5077 28.2619 18.3863 28.3616 18.2C28.4569 18.0093 28.4959 17.6497 28.4916 17.4374C28.4873 17.2207 28.3616 17.2337 28.3053 17.251C28.2879 17.3464 28.0583 17.68 28.0409 17.3637C28.0236 17.0474 28.2966 16.8524 28.2966 16.8524C28.4093 16.9564 28.6476 17.0604 28.6476 17.0604C28.6303 16.8264 28.7906 16.6617 28.8426 16.0984C28.8989 15.6044 28.7126 15.5134 28.6909 15.4873C28.6649 15.457 28.4093 15.3747 28.2229 15.4744C28.0279 15.652 28.0149 15.4007 28.0669 15.301C28.1189 15.2057 28.6129 15.1754 28.6129 15.1754C28.6563 15.028 28.5956 14.8937 28.5956 14.8937C28.5956 14.8937 29.5533 15.0454 30.2336 14.807C30.9703 14.547 31.9713 14.4994 32.4046 14.495C35.1563 14.586 36.5689 14.0314 37.1366 13.8277C38.2806 13.429 39.6629 12.3934 40.0313 11.3317C40.3476 10.5387 40.3779 9.41202 39.5719 8.59735Z" fill="black" stroke="black" stroke-width="0.5225" stroke-miterlimit="10"/>
<path d="M30.6843 13.9663C30.589 13.858 30.355 13.6673 30.2033 13.6543L30.264 13.0997C30.264 13.0997 29.9303 12.909 29.38 12.766C28.8903 12.623 28.8903 12.6663 28.7906 12.714C28.509 12.9133 28.262 12.9783 28.262 12.9783C28.262 12.9783 27.833 12.4713 27.2436 12.428C26.9316 12.4063 26.6543 12.493 26.4983 12.6057C26.312 12.74 26.221 12.8223 26.221 12.8223C26.221 12.8223 26.1473 12.9133 25.922 12.818C25.688 12.7227 25.4193 12.324 24.6046 12.441C23.9373 12.636 23.6513 12.8223 23.6513 12.8223C23.6513 12.8223 23.5906 12.5493 23.1833 12.5493C22.776 12.5493 22.3166 12.5667 22.2213 12.5883C22.126 12.61 21.9613 12.701 21.9223 12.7097C21.879 12.714 22.048 13.065 21.8963 13.2773C21.814 13.403 21.8616 13.481 21.7056 13.4767C21.7056 13.4767 21.3546 13.4723 21.3286 13.7367C21.3243 14.0183 21.7706 14.17 21.9743 13.611C21.9743 13.611 22.1823 14.144 22.4163 14.209C22.7066 14.261 22.984 13.8277 23.0533 13.793C23.0533 13.793 22.7456 14.3433 22.906 14.5513C23.0966 14.6597 23.3393 14.6813 23.3783 14.6337C23.4173 14.586 23.5473 14.352 23.5126 14.0963C23.5126 14.0963 23.686 14.235 23.7813 14.1093C23.8766 13.9837 23.9026 13.4507 23.9026 13.4507C23.9026 13.4507 24.0196 13.429 24.0196 13.6933C24.0196 13.9533 24.0283 14.1527 24.0283 14.1527C24.0283 14.1527 23.8723 14.131 23.8506 14.235C23.8333 14.339 23.8636 14.3997 23.8636 14.3997L24.0153 14.3867C24.0153 14.3867 24.063 14.482 23.868 14.5947C23.868 14.5947 24.0716 15.1363 23.9243 15.535C23.777 15.9857 23.4736 16.0507 23.4736 16.0507C23.4736 16.0507 23.5733 16.5447 23.5733 16.653C23.5733 16.7657 23.7466 16.9087 23.79 17.0083C23.8506 17.108 23.907 17.199 23.907 17.199C23.907 17.199 23.712 16.822 23.686 16.51C23.6556 16.2023 23.9373 16.094 24.31 15.99C24.31 15.99 24.4876 15.9813 24.5786 16.0247C24.6696 16.0637 24.7996 16.1113 24.7996 16.1113C24.7996 16.1113 24.9513 16.2413 24.9556 16.289C24.9643 16.3367 25.012 16.692 25.0076 16.7917C24.9946 16.887 24.8776 16.9347 24.8776 16.9347C24.8776 16.9347 24.947 17.6367 24.9426 17.7407C24.9383 17.8447 24.9296 17.8707 24.9296 17.8707C24.9296 17.8707 24.869 17.8577 24.83 17.823C24.7953 17.7883 24.7866 17.8187 24.7866 17.8187C24.7866 17.8187 24.7476 18.057 24.5483 18.174C24.5483 18.174 24.492 18.07 24.4443 18.0353C24.3966 18.0007 24.3143 17.9313 24.0976 17.5413C24.0976 17.5413 24.0196 17.4157 23.8983 17.4373C23.8983 17.4373 23.8983 17.8793 24.0066 18.1177C24.128 18.304 24.2103 18.2173 24.2883 18.382C24.3446 18.5033 24.4313 18.5813 24.4703 18.7807C24.5396 19.0407 24.6046 19.4133 24.6046 19.4133C24.6046 19.4133 24.921 19.6517 24.999 19.8077C25.0466 19.9073 25.077 20.059 25.077 20.2713C25.077 20.2757 25.051 21.6363 25.0813 21.8183C25.0986 21.9137 25.1333 21.9657 25.1333 21.9657C25.1333 21.9657 25.5623 21.9873 25.8656 22.7457L26.4766 22.62C26.4766 22.62 26.4723 22.555 26.494 22.4553C26.533 22.2863 26.663 22.113 26.7063 22.074C26.7626 22.022 26.975 21.9613 26.975 21.9613C26.975 21.9613 27.0183 21.9657 27.0226 21.892C27.0226 21.892 27.066 20.3753 27.0616 20.3103L27.0963 19.7687C27.0963 19.7687 27.274 19.6647 27.4386 19.448C27.5426 19.3657 27.547 19.0103 27.547 19.0103L27.755 19.0363C27.755 19.0363 27.859 19.0493 27.7593 18.4037C27.7593 18.4037 27.8893 18.3603 28.1233 18.031L28.158 17.654L27.5946 18.1697C27.5946 18.1697 27.3303 17.875 27.326 17.8403C27.3173 17.8057 27.2653 17.6887 27.2956 16.9953L27.209 16.8827L27.2003 16.8263L27.274 16.7093C27.274 16.7093 27.3823 16.2023 27.4516 16.12C27.521 16.0377 27.768 15.9813 28.0886 16.081C28.4353 16.211 28.5046 16.679 28.5046 16.679C28.5046 16.679 28.5913 16.6183 28.5913 16.198C28.6043 16.0377 28.5783 15.8253 28.5783 15.8253C28.5783 15.8253 28.5696 15.6693 28.3573 15.678C28.2403 15.704 28.1883 15.8123 28.015 15.7343C27.8633 15.7127 27.8416 15.7473 27.768 15.496C27.742 15.2273 28.0496 15.0973 28.2533 15.041L28.275 14.8677C28.275 14.8677 28.0106 14.586 27.989 14.4257L28.106 14.417C28.106 14.417 27.8416 13.8407 28.1276 13.52C28.1276 13.52 28.054 14.261 28.4526 14.209L28.5653 14.5297C28.5653 14.5297 28.8296 14.6943 28.8426 14.729C28.8426 14.729 28.99 14.7507 29.2543 14.7073C29.315 14.6077 29.2066 14.5817 29.094 14.521C28.9293 14.4343 28.8816 14.261 29.0116 14.1093C29.0116 14.1093 29.172 14.3433 29.4666 14.4647C29.926 14.456 29.8913 14.326 29.8913 14.326L29.939 14.1613C29.939 14.1613 29.913 13.9837 29.9953 13.884L30.2726 14.3217C30.2726 14.3217 30.368 14.261 30.4156 14.2523C30.4633 14.2437 30.745 14.196 30.745 14.196C30.745 14.196 30.7796 14.0747 30.6843 13.9663Z" fill="white"/>
<path d="M25.9609 13.572C25.9609 13.572 25.9609 13.052 25.9696 13.0174C25.9783 12.9784 26.0129 12.935 26.0649 12.9394C26.1126 12.9437 26.1559 13.039 26.1559 13.039C26.1559 13.039 26.1126 13.325 26.0996 13.364C26.0909 13.3944 26.0606 13.481 25.9609 13.572Z" fill="black" stroke="black" stroke-width="0.5225" stroke-miterlimit="10"/>
<path d="M25.9871 16.627C25.9871 16.627 25.9091 17.55 25.8961 17.602C25.8831 17.654 26.0261 17.628 26.0261 17.628C26.0261 17.628 26.1908 17.3377 26.2168 17.2987C26.2428 17.2553 26.2428 17.2293 26.2038 17.1383C26.1604 17.0517 25.9871 16.627 25.9871 16.627Z" fill="black" stroke="black" stroke-width="0.5225" stroke-miterlimit="10"/>
<path d="M26.0607 17.823L26.182 17.8273C26.182 17.8273 26.117 18.4253 26.117 18.603C26.117 18.7807 26.104 19.0277 26.104 19.0277H26.0087C26.0087 19.0277 25.896 18.603 25.896 18.577C25.896 18.5467 26.052 18.1827 26.052 18.1827L26.0607 17.823Z" fill="black" stroke="black" stroke-width="0.5225" stroke-miterlimit="10"/>
<path d="M25.9177 19.4567C25.9177 19.4567 26.0261 19.422 26.0564 19.4307C26.0824 19.4393 26.0954 19.4567 26.0954 19.4567L26.0997 20.0763C26.0997 20.0763 26.1214 20.215 26.1474 20.2453C26.1778 20.28 26.2991 20.3277 26.3251 20.4013C26.3554 20.475 26.4031 20.7567 26.3424 20.9777C26.2601 21.32 26.1301 21.385 26.1474 21.528C26.1604 21.6753 26.2427 21.9267 26.2471 22.0177C26.2471 22.0177 26.1994 22.0783 26.0694 22.0437C26.0304 21.996 25.9394 22.0047 25.9394 22.0047C25.9394 22.0047 26.0001 21.619 25.9654 21.4197C25.9437 21.255 25.7574 21.346 25.7574 21.346L25.7531 20.436C25.7531 20.436 25.7184 20.358 25.8267 20.306C25.9351 20.2497 25.9697 20.2453 25.9697 20.2453L25.9177 19.4567Z" fill="black" stroke="black" stroke-width="0.5225" stroke-miterlimit="10"/>
<path d="M26.4593 14.2393C26.4593 14.2393 26.6067 14.105 26.611 14.0833C26.6153 14.0617 26.5373 13.936 26.416 13.884C26.2903 13.8277 26.221 13.8753 26.221 13.8753C26.221 13.8753 26.0347 14.2047 25.9393 14.2437C25.7443 14.1787 25.623 14.0227 25.506 13.897C25.389 13.7757 25.025 13.39 25.025 13.39L24.9773 13.364C24.9773 13.364 24.9817 13.546 24.9947 13.7713C25.0033 13.8883 25.0207 14.027 25.0293 14.144C25.0423 14.352 25.0467 14.5167 25.0553 14.5253C25.0727 14.5513 25.3023 14.7853 25.3023 14.7853C25.3023 14.7853 25.3283 14.8157 25.3023 14.8287C25.2807 14.8417 25.116 15.028 24.9947 15.041C24.8603 15.0713 24.739 15.028 24.7217 15.015L24.7303 15.0973C24.7303 15.0973 24.843 15.4527 24.882 15.5047C24.9253 15.5567 24.9383 15.5133 24.9773 15.5567C25.051 15.5957 25.0467 15.769 25.0467 15.769L25.6317 15.7343L25.8093 15.2923C25.8093 15.2923 25.9957 15.2707 26.026 15.262C26.0563 15.2533 26.247 15.2403 26.2817 15.2447C26.3163 15.249 26.3683 15.3573 26.4073 15.379C26.4247 15.392 26.481 15.3617 26.5243 15.327C26.5677 15.2967 26.8753 15.1623 26.9533 15.1493C26.9967 15.132 27.3607 14.5643 27.521 14.4387C27.521 14.4387 27.287 14.4777 27.131 14.5167C26.975 14.5557 26.65 14.5513 26.6197 14.547C26.5417 14.5383 26.429 14.5167 26.429 14.5167C26.429 14.5167 26.429 14.3867 26.4593 14.2393Z" fill="#E2251E"/>
<path d="M24.4055 17.459C24.4055 17.459 24.5788 17.4244 24.5268 17.2164C24.4358 17.0257 24.2668 17.082 24.2235 17.225C24.1845 17.368 24.2755 17.4937 24.4055 17.459Z" fill="white"/>
<path d="M27.6337 17.0647C27.6337 17.0647 27.469 17.0993 27.573 17.3463C27.6987 17.4373 27.82 17.3117 27.8027 17.2423C27.794 17.173 27.7854 17.0863 27.6337 17.0647Z" fill="white"/>
<path d="M16.302 12.74C16.302 12.74 17.6843 13.2557 21.1467 12.7444C21.1467 12.7444 21.255 13.8234 20.1327 13.9534C19.1793 14.0704 18.1133 13.715 17.8793 13.6284C17.342 13.442 16.419 13.0087 16.302 12.74Z" fill="white"/>
<path d="M34.0644 13.5763C33.8261 13.6587 32.7514 13.9923 31.8024 13.858C30.6844 13.7063 30.8144 12.6317 30.8144 12.6317C34.2638 13.2124 35.6591 12.727 35.6591 12.727C35.5378 12.987 34.6061 13.403 34.0644 13.5763Z" fill="white"/>
<path d="M39.9058 25.0987V20.891L29.3671 23.0447V21.7273L27.8894 22.0307V23.3523L16.8654 25.6273V24.3057L12.1074 25.2937V30.8317L22.3774 28.7213V25.9653L23.8638 25.6577V28.4093L39.9058 25.0987ZM37.3404 22.893L38.4151 22.6677L38.4194 23.9243L37.3318 24.1497L37.3404 22.893ZM29.3801 24.518L30.3724 24.3143V25.5883L29.3714 25.792L29.3801 24.518ZM16.8654 28.353L13.6414 29.016L13.6328 26.5113L16.8654 25.8353V28.353Z" fill="black"/>
<path d="M39.9058 25.0987V20.891L29.3671 23.0447V21.7273L27.8894 22.0307V23.3523L16.8654 25.6273V24.3057L12.1074 25.2937V30.8317L22.3774 28.7213V25.9653L23.8638 25.6577V28.4093L39.9058 25.0987ZM37.3404 22.893L38.4151 22.6677L38.4194 23.9243L37.3318 24.1497L37.3404 22.893ZM29.3801 24.518L30.3724 24.3143V25.5883L29.3714 25.792L29.3801 24.518ZM16.8654 28.353L13.6414 29.016L13.6328 26.5113L16.8654 25.8353V28.353Z" stroke="black" stroke-width="0.5073" stroke-miterlimit="10"/>
<path d="M24.05 24.3577V25.3933C24.05 25.3933 26.273 24.9383 26.5374 24.882C26.5374 24.9947 26.5374 25.077 26.5374 25.194C26.273 25.2503 24.0544 25.7053 24.0544 25.7053V28.145L27.6684 27.3953V23.6167L24.05 24.3577ZM26.6197 26.2123C26.6197 26.338 26.6197 26.4507 26.6197 26.5763C26.39 26.624 25.3284 26.8407 25.103 26.8883C25.103 26.7627 25.103 26.65 25.103 26.5243C25.3284 26.481 26.39 26.26 26.6197 26.2123Z" fill="white"/>
<path d="M32.0234 22.7197V23.7553C32.0234 23.7553 34.2464 23.3003 34.5108 23.244C34.5108 23.361 34.5108 23.439 34.5108 23.556C34.2464 23.608 32.0234 24.063 32.0234 24.063V26.494L35.6418 25.7487V21.9787L32.0234 22.7197ZM34.5888 24.57C34.5888 24.6957 34.5888 24.8083 34.5888 24.934C34.3591 24.9817 33.2974 25.1983 33.0721 25.246C33.0721 25.1203 33.0721 25.0077 33.0721 24.882C33.3018 24.8387 34.3591 24.6177 34.5888 24.57Z" fill="white"/>
<path d="M12.2937 30.5977L16.64 29.6877V28.6043C16.64 28.6043 13.6544 29.2283 13.3814 29.2847C13.3814 29.0247 13.3857 26.5893 13.3857 26.3293C13.6587 26.273 16.6184 25.6577 16.6184 25.6577V24.57L12.2937 25.4627V30.5977Z" fill="white"/>
<path d="M17.0561 25.805V26.845C17.0561 26.845 19.2748 26.3857 19.5391 26.3293C19.5391 26.4463 19.5391 26.5287 19.5391 26.6413C19.2748 26.6977 17.0561 27.157 17.0561 27.157L17.0518 29.601L20.6701 28.847V25.0553L17.0561 25.805ZM19.6214 27.664C19.6214 27.7897 19.6214 27.9023 19.6214 28.028C19.3918 28.0757 18.3301 28.2967 18.1004 28.3443C18.1004 28.2187 18.1004 28.106 18.1004 27.9803C18.3301 27.9283 19.3918 27.7117 19.6214 27.664Z" fill="white"/>
<path d="M21.0774 24.9687V28.7603L22.1261 28.5437C22.1261 28.5437 22.1304 26.0563 22.1304 25.792C22.3731 25.74 23.6427 25.48 23.6427 25.48V24.44L21.0774 24.9687Z" fill="white"/>
<path d="M28.0845 22.2127V27.3087L31.6161 26.5807V22.802C31.6161 22.802 29.3888 23.2613 29.1245 23.3133C29.1245 23.0793 29.1245 21.996 29.1245 21.996L28.0845 22.2127ZM30.5675 24.05C30.5675 24.284 30.5675 25.5277 30.5675 25.7617C30.3421 25.8093 29.3541 26.013 29.1288 26.0563C29.1288 25.8223 29.1288 24.5787 29.1288 24.3447C29.3541 24.3013 30.3421 24.0977 30.5675 24.05Z" fill="white"/>
<path d="M36.0447 21.9007V25.6707L39.6587 24.9297V21.164L36.0447 21.9007ZM38.61 22.4077C38.61 22.6417 38.61 23.8767 38.61 24.1107C38.3803 24.1583 37.323 24.375 37.0933 24.4227C37.0933 24.1887 37.0933 22.9537 37.0933 22.7197C37.323 22.672 38.3803 22.4553 38.61 22.4077Z" fill="white"/>
<path d="M29.1373 44.3343C28.86 44.3343 28.6303 44.109 28.6303 43.8273V41.0583H30.615V41.8167H29.445V42.3063H30.5067V43.0733H29.445V44.3387H29.1373V44.3343ZM26.104 43.8317C26.104 44.109 26.3293 44.3387 26.611 44.3387H28.0757V43.5847H26.9187V43.0733H27.9803V42.3107H26.9187V41.821H28.08V41.0627H26.104V43.8317ZM32.9507 44.3343V43.5803H31.9367V41.0627H31.122V43.8317C31.122 44.109 31.3473 44.3387 31.629 44.3387H32.9507V44.3343Z" fill="white"/>
<path d="M22.3946 43.7493C22.3946 44.0007 22.191 44.2043 21.9396 44.2043C21.6883 44.2043 21.4846 44.0007 21.4846 43.7493C21.4846 43.498 21.6883 43.2943 21.9396 43.2943C22.191 43.2943 22.3946 43.498 22.3946 43.7493ZM22.9276 43.3073C22.7023 43.3073 22.5203 43.4893 22.5203 43.7147C22.5203 43.94 22.7023 44.122 22.9276 44.122C23.153 44.122 23.335 43.94 23.335 43.7147C23.335 43.4893 23.153 43.3073 22.9276 43.3073ZM22.893 44.2303C22.672 44.2303 22.4943 44.408 22.4943 44.629C22.4943 44.85 22.672 45.0277 22.893 45.0277C23.114 45.0277 23.2916 44.85 23.2916 44.629C23.2916 44.408 23.114 44.2303 22.893 44.2303ZM23.751 43.2207C23.5646 43.2207 23.413 43.3723 23.413 43.5587C23.413 43.745 23.5646 43.8967 23.751 43.8967C23.9373 43.8967 24.089 43.745 24.089 43.5587C24.089 43.3723 23.9373 43.2207 23.751 43.2207ZM24.349 42.9217C24.1973 42.9217 24.0716 43.0473 24.0716 43.199C24.0716 43.3507 24.1973 43.4763 24.349 43.4763C24.5007 43.4763 24.6263 43.3507 24.6263 43.199C24.6306 43.0473 24.505 42.9217 24.349 42.9217ZM24.7476 42.5533C24.6263 42.5533 24.5266 42.653 24.5266 42.7743C24.5266 42.8957 24.6263 42.9953 24.7476 42.9953C24.869 42.9953 24.9686 42.8957 24.9686 42.7743C24.9686 42.6487 24.869 42.5533 24.7476 42.5533ZM24.7476 43.368C24.6306 43.368 24.5353 43.4633 24.5353 43.5803C24.5353 43.6973 24.6306 43.7927 24.7476 43.7927C24.8646 43.7927 24.96 43.6973 24.96 43.5803C24.96 43.4633 24.8646 43.368 24.7476 43.368ZM24.8343 44.031C24.7216 44.031 24.6263 44.122 24.6263 44.239C24.6263 44.3517 24.7216 44.447 24.8343 44.447C24.947 44.447 25.0423 44.356 25.0423 44.239C25.0423 44.122 24.947 44.031 24.8343 44.031ZM25.0813 43.68C24.9903 43.68 24.9166 43.7537 24.9166 43.8447C24.9166 43.9357 24.9903 44.0093 25.0813 44.0093C25.1723 44.0093 25.246 43.9357 25.246 43.8447C25.246 43.7537 25.1723 43.68 25.0813 43.68ZM25.22 43.316C25.1376 43.316 25.0726 43.381 25.0726 43.4633C25.0726 43.5457 25.1376 43.6107 25.22 43.6107C25.3023 43.6107 25.3673 43.5457 25.3673 43.4633C25.3673 43.381 25.3023 43.316 25.22 43.316ZM25.025 42.9737C24.9383 42.9737 24.8646 43.043 24.8646 43.134C24.8646 43.2207 24.934 43.2943 25.025 43.2943C25.1116 43.2943 25.1853 43.2207 25.1853 43.134C25.181 43.0473 25.1116 42.9737 25.025 42.9737ZM25.2546 42.5273C25.1723 42.5273 25.1073 42.5923 25.1073 42.6747C25.1073 42.757 25.1723 42.822 25.2546 42.822C25.337 42.822 25.402 42.757 25.402 42.6747C25.402 42.5923 25.337 42.5273 25.2546 42.5273ZM25.3457 42.8957C25.285 42.8957 25.2373 42.9433 25.2373 43.004C25.2373 43.0647 25.285 43.1123 25.3457 43.1123C25.4063 43.1123 25.454 43.0647 25.454 43.004C25.454 42.9433 25.4063 42.8957 25.3457 42.8957ZM25.337 42.2153C25.2807 42.2153 25.2373 42.2587 25.2373 42.315C25.2373 42.3713 25.2807 42.4147 25.337 42.4147C25.3933 42.4147 25.4366 42.3713 25.4366 42.315C25.4366 42.2587 25.3933 42.2153 25.337 42.2153ZM25.0076 42.172C24.9123 42.172 24.83 42.25 24.83 42.3497C24.83 42.4493 24.908 42.5273 25.0076 42.5273C25.103 42.5273 25.1853 42.4493 25.1853 42.3497C25.1853 42.25 25.1073 42.172 25.0076 42.172ZM25.2113 41.8297C25.1376 41.8297 25.0726 41.8903 25.0726 41.9683C25.0726 42.042 25.1333 42.107 25.2113 42.107C25.285 42.107 25.35 42.0463 25.35 41.9683C25.35 41.8903 25.2893 41.8297 25.2113 41.8297ZM25.181 41.5263C25.129 41.5263 25.09 41.5653 25.09 41.6173C25.09 41.6693 25.129 41.7083 25.181 41.7083C25.233 41.7083 25.272 41.6693 25.272 41.6173C25.272 41.5697 25.2286 41.5263 25.181 41.5263ZM23.7033 44.018C23.5213 44.018 23.3696 44.1653 23.3696 44.3517C23.3696 44.5337 23.517 44.6853 23.7033 44.6853C23.8853 44.6853 24.037 44.538 24.037 44.3517C24.0326 44.1653 23.8853 44.018 23.7033 44.018ZM21.9526 44.3387C21.723 44.3387 21.5323 44.525 21.5323 44.759C21.5323 44.9887 21.7186 45.1793 21.9526 45.1793C22.1823 45.1793 22.373 44.993 22.373 44.759C22.3686 44.525 22.1823 44.3387 21.9526 44.3387ZM22.4076 45.1837C22.2083 45.1837 22.0436 45.344 22.0436 45.5477C22.0436 45.747 22.204 45.9117 22.4076 45.9117C22.607 45.9117 22.7716 45.747 22.7716 45.5477C22.7716 45.344 22.607 45.1837 22.4076 45.1837ZM23.2136 45.0753C23.0273 45.0753 22.8757 45.227 22.8757 45.4133C22.8757 45.5997 23.0273 45.7513 23.2136 45.7513C23.4 45.7513 23.5516 45.5997 23.5516 45.4133C23.5516 45.2227 23.4 45.0753 23.2136 45.0753ZM23.9113 44.7633C23.738 44.7633 23.5993 44.902 23.5993 45.0797C23.5993 45.253 23.738 45.3917 23.9113 45.3917C24.0846 45.3917 24.2276 45.253 24.2276 45.0797C24.2233 44.9063 24.0846 44.7633 23.9113 44.7633ZM24.453 44.3993C24.31 44.3993 24.1887 44.5163 24.1887 44.6637C24.1887 44.8067 24.3056 44.928 24.453 44.928C24.596 44.928 24.7173 44.811 24.7173 44.6637C24.7173 44.5163 24.6003 44.3993 24.453 44.3993ZM24.3186 43.7017C24.167 43.7017 24.0457 43.823 24.0457 43.9747C24.0457 44.1263 24.167 44.2477 24.3186 44.2477C24.4703 44.2477 24.5916 44.1263 24.5916 43.9747C24.596 43.8273 24.4703 43.7017 24.3186 43.7017ZM23.3176 41.9943C23.0663 41.9943 22.8626 42.198 22.8626 42.4493C22.8626 42.7007 23.0663 42.9043 23.3176 42.9043C23.569 42.9043 23.7726 42.7007 23.7726 42.4493C23.7726 42.198 23.569 41.9943 23.3176 41.9943ZM22.7933 41.2057C22.568 41.2057 22.386 41.3877 22.386 41.613C22.386 41.8383 22.568 42.0203 22.7933 42.0203C23.0186 42.0203 23.2007 41.8383 23.2007 41.613C23.2007 41.3877 23.0186 41.2057 22.7933 41.2057ZM23.5993 40.7897C23.3783 40.7897 23.2007 40.9673 23.2007 41.1883C23.2007 41.4093 23.3783 41.587 23.5993 41.587C23.8203 41.587 23.998 41.4093 23.998 41.1883C23.998 40.9673 23.8203 40.7897 23.5993 40.7897ZM22.243 40.638C22.0566 40.638 21.905 40.7897 21.905 40.976C21.905 41.1623 22.0566 41.314 22.243 41.314C22.4293 41.314 22.581 41.1623 22.581 40.976C22.581 40.7897 22.4293 40.638 22.243 40.638ZM21.6363 40.3607C21.4803 40.3607 21.359 40.4863 21.359 40.638C21.359 40.7897 21.4846 40.9153 21.6363 40.9153C21.788 40.9153 21.9137 40.7897 21.9137 40.638C21.9137 40.482 21.788 40.3607 21.6363 40.3607ZM21.0687 40.287C20.9473 40.287 20.8476 40.3867 20.8476 40.508C20.8476 40.6293 20.9473 40.729 21.0687 40.729C21.19 40.729 21.2896 40.6293 21.2896 40.508C21.2853 40.3867 21.19 40.287 21.0687 40.287ZM21.7663 39.8927C21.6493 39.8927 21.554 39.988 21.554 40.105C21.554 40.222 21.6493 40.3173 21.7663 40.3173C21.8833 40.3173 21.9787 40.222 21.9787 40.105C21.9743 39.988 21.879 39.8927 21.7663 39.8927ZM22.295 39.4897C22.1823 39.4897 22.087 39.5807 22.087 39.6977C22.087 39.8103 22.178 39.9057 22.295 39.9057C22.4076 39.9057 22.503 39.8147 22.503 39.6977C22.4986 39.5807 22.4076 39.4897 22.295 39.4897ZM21.827 39.52C21.736 39.52 21.6623 39.5937 21.6623 39.6847C21.6623 39.7757 21.736 39.8493 21.827 39.8493C21.918 39.8493 21.9916 39.7757 21.9916 39.6847C21.9916 39.5937 21.918 39.52 21.827 39.52ZM21.4283 39.6067C21.346 39.6067 21.281 39.6717 21.281 39.754C21.281 39.8363 21.346 39.9013 21.4283 39.9013C21.5106 39.9013 21.5756 39.8363 21.5756 39.754C21.5756 39.6717 21.5106 39.6067 21.4283 39.6067ZM21.242 39.9273C21.1553 39.9273 21.0816 39.9967 21.0816 40.0877C21.0816 40.1743 21.151 40.248 21.242 40.248C21.3286 40.248 21.4023 40.1743 21.4023 40.0877C21.4023 40.001 21.3286 39.9273 21.242 39.9273ZM20.7263 39.9707C20.644 39.9707 20.579 40.0357 20.579 40.118C20.579 40.2003 20.644 40.2653 20.7263 40.2653C20.8086 40.2653 20.8736 40.2003 20.8736 40.118C20.8736 40.0357 20.8086 39.9707 20.7263 39.9707ZM20.969 39.767C20.9083 39.767 20.8606 39.8147 20.8606 39.8753C20.8606 39.936 20.9083 39.9837 20.969 39.9837C21.0296 39.9837 21.0773 39.936 21.0773 39.8753C21.0816 39.819 21.0296 39.767 20.969 39.767ZM20.3753 40.1267C20.319 40.1267 20.2756 40.17 20.2756 40.2263C20.2756 40.2827 20.319 40.326 20.3753 40.326C20.4317 40.326 20.475 40.2827 20.475 40.2263C20.475 40.17 20.4317 40.1267 20.3753 40.1267ZM20.566 40.3173C20.4706 40.3173 20.3883 40.3953 20.3883 40.495C20.3883 40.5947 20.4663 40.6727 20.566 40.6727C20.6613 40.6727 20.7436 40.5947 20.7436 40.495C20.7436 40.3953 20.6656 40.3173 20.566 40.3173ZM20.137 40.3737C20.0633 40.3737 19.9983 40.4343 19.9983 40.5123C19.9983 40.586 20.059 40.651 20.137 40.651C20.2106 40.651 20.2756 40.5903 20.2756 40.5123C20.2713 40.4343 20.2106 40.3737 20.137 40.3737ZM19.851 40.6163C19.799 40.6163 19.76 40.6553 19.76 40.7073C19.76 40.7593 19.799 40.7983 19.851 40.7983C19.903 40.7983 19.942 40.7593 19.942 40.7073C19.942 40.6597 19.903 40.6163 19.851 40.6163ZM22.9536 40.2913C22.7717 40.2913 22.62 40.4387 22.62 40.625C22.62 40.807 22.7673 40.9587 22.9536 40.9587C23.1357 40.9587 23.2873 40.8113 23.2873 40.625C23.2873 40.443 23.14 40.2913 22.9536 40.2913ZM24.1843 41.5177C23.9546 41.5177 23.764 41.704 23.764 41.938C23.764 42.1677 23.9503 42.3583 24.1843 42.3583C24.414 42.3583 24.6046 42.172 24.6046 41.938C24.6003 41.704 24.414 41.5177 24.1843 41.5177ZM24.6393 40.7853C24.44 40.7853 24.2753 40.9457 24.2753 41.1493C24.2753 41.3487 24.4356 41.5133 24.6393 41.5133C24.8386 41.5133 25.0033 41.353 25.0033 41.1493C24.999 40.9457 24.8386 40.7853 24.6393 40.7853ZM24.1193 40.1787C23.933 40.1787 23.7813 40.3303 23.7813 40.5167C23.7813 40.703 23.933 40.8547 24.1193 40.8547C24.3056 40.8547 24.4573 40.703 24.4573 40.5167C24.4573 40.3303 24.3056 40.1787 24.1193 40.1787ZM23.4823 39.767C23.309 39.767 23.166 39.9057 23.166 40.079C23.166 40.2523 23.309 40.3953 23.4823 40.3953C23.6557 40.3953 23.7986 40.2567 23.7943 40.079C23.7986 39.9057 23.6557 39.767 23.4823 39.767ZM22.8496 39.5547C22.7066 39.5547 22.5853 39.6717 22.5853 39.819C22.5853 39.962 22.7023 40.0833 22.8496 40.0833C22.9926 40.0833 23.114 39.9663 23.114 39.819C23.114 39.6717 22.997 39.5547 22.8496 39.5547ZM22.3253 40.001C22.1737 40.001 22.0523 40.1223 22.0523 40.274C22.0523 40.4257 22.1737 40.547 22.3253 40.547C22.477 40.547 22.5983 40.4257 22.5983 40.274C22.5983 40.1223 22.477 40.001 22.3253 40.001ZM21.5063 41.4527C21.255 41.4527 21.0513 41.6563 21.0513 41.9077C21.0513 42.159 21.255 42.3627 21.5063 42.3627C21.7576 42.3627 21.9613 42.159 21.9613 41.9077C21.9613 41.6563 21.7576 41.4527 21.5063 41.4527ZM21.0383 42.3757C20.813 42.3757 20.631 42.5577 20.631 42.783C20.631 43.0083 20.813 43.1903 21.0383 43.1903C21.2636 43.1903 21.4456 43.0083 21.4456 42.783C21.4456 42.5577 21.2636 42.3757 21.0383 42.3757ZM20.267 41.8947C20.046 41.8947 19.8683 42.0723 19.8683 42.2933C19.8683 42.5143 20.046 42.692 20.267 42.692C20.488 42.692 20.6656 42.5143 20.6656 42.2933C20.6656 42.0723 20.488 41.8947 20.267 41.8947ZM20.761 43.238C20.5746 43.238 20.423 43.3897 20.423 43.576C20.423 43.7623 20.5746 43.914 20.761 43.914C20.9473 43.914 21.099 43.7623 21.099 43.576C21.099 43.3853 20.9473 43.238 20.761 43.238ZM20.774 43.992C20.6223 43.992 20.4966 44.1177 20.4966 44.2693C20.4966 44.421 20.6223 44.5467 20.774 44.5467C20.9256 44.5467 21.0513 44.421 21.0513 44.2693C21.0513 44.1177 20.93 43.992 20.774 43.992ZM20.9473 44.6073C20.826 44.6073 20.7263 44.707 20.7263 44.8283C20.7263 44.9497 20.826 45.0493 20.9473 45.0493C21.0686 45.0493 21.1683 44.9497 21.1683 44.8283C21.1683 44.707 21.0686 44.6073 20.9473 44.6073ZM20.2453 44.2173C20.1283 44.2173 20.033 44.3127 20.033 44.4297C20.033 44.5467 20.1283 44.642 20.2453 44.642C20.3623 44.642 20.4576 44.5467 20.4576 44.4297C20.4576 44.3083 20.3623 44.2173 20.2453 44.2173ZM19.6343 43.9617C19.5216 43.9617 19.4263 44.0527 19.4263 44.1697C19.4263 44.2823 19.5173 44.3777 19.6343 44.3777C19.747 44.3777 19.8423 44.2867 19.8423 44.1697C19.838 44.057 19.747 43.9617 19.6343 43.9617ZM19.851 44.4167C19.76 44.4167 19.6863 44.4903 19.6863 44.5813C19.6863 44.6723 19.76 44.746 19.851 44.746C19.942 44.746 20.0156 44.6723 20.0156 44.5813C20.0156 44.4903 19.942 44.4167 19.851 44.4167ZM20.111 44.7417C20.0286 44.7417 19.9636 44.8067 19.9636 44.889C19.9636 44.9713 20.0286 45.0363 20.111 45.0363C20.1933 45.0363 20.2583 44.9713 20.2583 44.889C20.2626 44.811 20.1933 44.7417 20.111 44.7417ZM20.4966 44.7243C20.41 44.7243 20.3363 44.798 20.3363 44.8847C20.3363 44.9713 20.41 45.045 20.4966 45.045C20.5833 45.045 20.657 44.9713 20.657 44.8847C20.657 44.798 20.5833 44.7243 20.4966 44.7243ZM20.7783 45.1707C20.696 45.1707 20.631 45.2357 20.631 45.318C20.631 45.4003 20.696 45.4653 20.7783 45.4653C20.8606 45.4653 20.9256 45.4003 20.9256 45.318C20.9256 45.2357 20.8563 45.1707 20.7783 45.1707ZM20.449 45.1143C20.3883 45.1143 20.3406 45.162 20.3406 45.2227C20.3406 45.2833 20.3883 45.331 20.449 45.331C20.5096 45.331 20.5573 45.2833 20.5573 45.2227C20.5573 45.162 20.5096 45.1143 20.449 45.1143ZM21.047 45.4653C20.9906 45.4653 20.9473 45.5087 20.9473 45.565C20.9473 45.6213 20.9906 45.6647 21.047 45.6647C21.1033 45.6647 21.1466 45.6213 21.1466 45.565C21.1466 45.513 21.1033 45.4653 21.047 45.4653ZM21.1856 45.0883C21.0903 45.0883 21.008 45.1663 21.008 45.266C21.008 45.3657 21.086 45.4437 21.1856 45.4437C21.281 45.4437 21.3633 45.3657 21.3633 45.266C21.3633 45.1663 21.281 45.0883 21.1856 45.0883ZM21.411 45.4957C21.3373 45.4957 21.2723 45.5563 21.2723 45.6343C21.2723 45.708 21.333 45.773 21.411 45.773C21.4846 45.773 21.5496 45.7123 21.5496 45.6343C21.5496 45.5563 21.489 45.4957 21.411 45.4957ZM21.7273 45.6863C21.6753 45.6863 21.6363 45.7253 21.6363 45.7773C21.6363 45.8293 21.6753 45.8683 21.7273 45.8683C21.7793 45.8683 21.8183 45.8293 21.8183 45.7773C21.8183 45.7297 21.7793 45.6863 21.7273 45.6863ZM20.1023 42.8003C19.9203 42.8003 19.7686 42.9477 19.7686 43.134C19.7686 43.316 19.916 43.4677 20.1023 43.4677C20.2843 43.4677 20.436 43.3203 20.436 43.134C20.436 42.952 20.2843 42.8003 20.1023 42.8003ZM20.6266 40.9977C20.397 40.9977 20.2063 41.184 20.2063 41.418C20.2063 41.6477 20.3926 41.8383 20.6266 41.8383C20.8563 41.8383 21.047 41.652 21.047 41.418C21.0426 41.184 20.8563 40.9977 20.6266 40.9977ZM19.7166 41.054C19.5173 41.054 19.3526 41.2143 19.3526 41.418C19.3526 41.6173 19.513 41.782 19.7166 41.782C19.916 41.782 20.0806 41.6217 20.0806 41.418C20.0763 41.2143 19.916 41.054 19.7166 41.054ZM19.4263 41.8427C19.24 41.8427 19.0883 41.9943 19.0883 42.1807C19.0883 42.367 19.24 42.5187 19.4263 42.5187C19.6126 42.5187 19.7643 42.367 19.7643 42.1807C19.7643 41.9943 19.6126 41.8427 19.4263 41.8427ZM19.3656 42.6357C19.1923 42.6357 19.0493 42.7743 19.0493 42.9477C19.0493 43.121 19.188 43.2597 19.3656 43.2597C19.539 43.2597 19.682 43.121 19.682 42.9477C19.682 42.7743 19.539 42.6357 19.3656 42.6357ZM19.4566 43.368C19.3136 43.368 19.1923 43.485 19.1923 43.6323C19.1923 43.7753 19.3093 43.8967 19.4566 43.8967C19.604 43.8967 19.721 43.7797 19.721 43.6323C19.7166 43.485 19.5996 43.368 19.4566 43.368ZM20.1153 43.5803C19.9636 43.5803 19.8423 43.7017 19.8423 43.8533C19.8423 44.005 19.9636 44.1263 20.1153 44.1263C20.267 44.1263 20.3883 44.005 20.3883 43.8533C20.3926 43.7017 20.267 43.5803 20.1153 43.5803Z" fill="white"/>
<path d="M13.6976 39.104C13.7236 39.221 13.8363 39.299 13.9533 39.273L39.4289 34.0903C39.5459 34.0643 39.6239 33.9517 39.5979 33.8347C39.5763 33.7177 39.4593 33.6397 39.3423 33.6657L13.8709 38.8483C13.7496 38.8743 13.6759 38.987 13.6976 39.104Z" fill="white"/>
<path d="M32.3614 32.9983V28.7906L26.9534 29.8826V32.6386L25.8701 32.864V30.0993L24.4184 30.3896V29.0636L19.6257 30.056V35.594L28.4007 33.8043V35.113L29.8827 34.8096V33.501L32.3614 32.9983ZM24.3751 33.1586L21.1511 33.826V31.3213L24.3751 30.6453V33.1586ZM29.8741 30.7796L30.8794 30.576V31.85L29.8784 32.0536V30.7796H29.8741Z" fill="black" stroke="black" stroke-width="0.5073" stroke-miterlimit="10"/>
<path d="M19.8076 35.3643L24.1582 34.4543V33.371C24.1582 33.371 21.1682 33.995 20.8952 34.0513C20.8952 33.7957 20.8952 31.356 20.8952 31.1003C21.1682 31.044 24.1279 30.4287 24.1279 30.4287V29.341L19.8032 30.2337V35.3643H19.8076Z" fill="white"/>
<path d="M32.1185 29.029L28.5825 29.757L28.5869 33.488V34.853L29.6312 34.6363C29.6312 34.4327 29.6312 33.5313 29.6312 33.319L32.1185 32.8077V29.029ZM31.0699 31.9887C30.8445 32.0363 29.8565 32.24 29.6312 32.2833C29.6312 32.0493 29.6312 30.8057 29.6312 30.5717C29.8565 30.524 30.8402 30.3203 31.0699 30.277C31.0699 30.511 31.0699 31.7547 31.0699 31.9887Z" fill="white"/>
<path d="M25.6186 33.1327L25.6229 30.3983L24.5786 30.6107L24.5742 34.3807L28.1882 33.6397L28.1926 29.874L27.1396 30.0863V32.8207L25.6186 33.1327Z" fill="white"/>
<path d="M40.0357 20.1457C40.0444 20.1457 40.0487 20.15 40.0487 20.1587L40.04 20.2323C40.04 20.241 40.0357 20.2453 40.027 20.2453H39.936V20.6527C39.936 20.6613 39.9317 20.6657 39.923 20.6657H39.8364C39.8277 20.6657 39.8234 20.6613 39.8234 20.6527V20.2453H39.7064C39.6977 20.2453 39.6934 20.241 39.6934 20.2323V20.1587C39.6934 20.15 39.6977 20.1457 39.7064 20.1457H40.0357ZM40.4517 20.1543C40.456 20.1457 40.4604 20.1457 40.469 20.1457H40.5514C40.56 20.1457 40.56 20.15 40.5644 20.1587C40.5774 20.3277 40.586 20.5053 40.586 20.6483C40.586 20.657 40.5817 20.6613 40.573 20.6613H40.495C40.4864 20.6613 40.482 20.657 40.482 20.6483C40.482 20.5183 40.482 20.4057 40.4777 20.3103H40.4734L40.3694 20.5183C40.365 20.527 40.3607 20.5313 40.3477 20.5313H40.3347C40.326 20.5313 40.3174 20.527 40.313 20.5183L40.2004 20.3103H40.196C40.1917 20.41 40.1917 20.514 40.1917 20.6483C40.1917 20.657 40.1874 20.6613 40.1787 20.6613H40.1007C40.092 20.6613 40.0877 20.657 40.0877 20.6483C40.0877 20.501 40.0964 20.3277 40.105 20.1587C40.105 20.15 40.1094 20.1457 40.118 20.1457H40.2004C40.209 20.1457 40.2134 20.1457 40.2177 20.1543L40.339 20.4013H40.3434L40.4517 20.1543Z" fill="black"/>
</svg>
