<svg width="52" height="52" viewBox="0 0 52 52" fill="none" xmlns="http://www.w3.org/2000/svg">
<path d="M49.543 20.254C49.387 19.9723 49.049 19.76 48.6937 19.76C48.3687 19.76 48.087 19.8943 48.087 20.2323C48.087 20.5227 48.4467 20.7133 48.815 20.9473C49.218 21.203 49.634 21.5063 49.634 22.0567C49.634 22.763 48.9494 23.2007 48.1564 23.2007C47.8314 23.2007 47.4934 23.1313 47.1034 22.9883L47.1727 22.048C47.3504 22.4163 47.7014 22.7197 48.2127 22.7197C48.6027 22.7197 48.8974 22.529 48.8974 22.191C48.8974 21.9093 48.6634 21.7317 48.3687 21.5627C47.7534 21.1943 47.372 20.891 47.372 20.3623C47.372 19.5563 48.0437 19.2877 48.737 19.2877C49.14 19.2877 49.387 19.3657 49.6427 19.3657L49.543 20.254ZM46.15 21.0947C46.059 21.242 45.9464 21.4413 45.8814 21.5887C45.825 21.8703 45.7904 22.2387 45.7904 22.6417C45.7904 22.8107 45.825 23.0447 45.903 23.1227H44.8847C45.0624 22.9537 45.1404 21.9007 45.1317 21.5757C44.9974 21.1033 44.8067 20.644 44.525 20.098C44.3474 19.7513 44.135 19.4263 44.0094 19.357C44.2347 19.3353 44.525 19.3223 44.6724 19.3223C44.928 19.3223 44.9974 19.357 45.1447 19.6907C45.3917 20.241 45.5694 20.6527 45.6734 20.956C45.929 20.553 46.111 20.2713 46.345 19.89C46.4014 19.799 46.4577 19.6777 46.4577 19.565C46.4577 19.474 46.4447 19.3743 46.4014 19.3397H47.411C47.216 19.4003 46.3407 20.7783 46.15 21.0947ZM42.6227 20.241L42.016 21.554H42.991L42.6227 20.241ZM43.81 23.1443C43.485 23.1443 43.4634 23.1313 43.2034 22.2473L43.1124 21.9223C42.9564 22.0003 42.6747 22.035 42.237 22.035H41.7907L41.7127 22.204C41.6 22.451 41.457 22.7413 41.457 22.9537C41.457 22.997 41.457 23.0533 41.4787 23.1227H38.8354C38.9827 22.9537 39.039 22.4077 39.104 21.4067L39.117 21.1727C39.1517 20.6007 39.1864 20.163 39.1864 19.8597C39.1864 19.604 39.1517 19.4437 39.0867 19.3787H40.105C39.9577 19.4913 39.9014 20.0937 39.8364 21.0947L39.8147 21.3287C39.793 21.697 39.7454 22.0783 39.7454 22.451C39.7454 22.62 39.8147 22.6633 39.9924 22.6633C40.6077 22.6633 40.7637 22.6503 41.0454 22.4597C41.223 22.1347 41.4137 21.7317 41.6174 21.3157L41.873 20.7567C42.12 20.228 42.367 19.6907 42.367 19.591C42.367 19.513 42.3454 19.4437 42.3237 19.3787H43.1427C43.1427 19.3787 43.4677 20.6093 43.5457 20.8693L43.7017 21.463C43.9834 22.4597 44.148 22.9537 44.3864 23.1313C44.1784 23.1443 43.9097 23.1443 43.81 23.1443ZM37.1974 23.1877C36.2354 23.1877 35.672 22.3903 35.672 21.4977C35.672 20.254 36.3437 19.292 37.6307 19.292C38.0337 19.292 38.2244 19.37 38.5494 19.37L38.4497 20.332C38.272 19.994 37.9687 19.773 37.5657 19.773C36.7684 19.773 36.4434 20.6353 36.4434 21.385C36.4434 22.191 36.8897 22.6417 37.4964 22.6417C37.8214 22.6417 38.1117 22.5507 38.584 22.217C38.3977 22.8193 37.9384 23.1877 37.1974 23.1877ZM33.8477 19.8163C33.7567 19.8163 33.644 19.8163 33.5574 19.8293C33.5227 19.9853 33.501 20.267 33.4664 20.7133L33.4447 20.969C33.488 20.982 33.5574 20.982 33.6137 20.982C34.086 20.982 34.398 20.7003 34.398 20.2757C34.4067 19.9853 34.2074 19.8163 33.8477 19.8163ZM35.204 23.2787C34.9224 23.2787 34.8574 23.2353 34.7664 23.1097L33.7134 21.6537C33.6354 21.541 33.566 21.45 33.4317 21.45H33.41L33.3884 21.7317C33.3667 22.113 33.3537 22.425 33.3537 22.6503C33.3537 22.906 33.3884 23.0533 33.4534 23.1227H32.435C32.5824 22.9883 32.6387 22.5507 32.7167 21.4067L32.7297 21.1727C32.7644 20.6137 32.799 20.163 32.799 19.8597C32.799 19.591 32.7644 19.422 32.6864 19.3657C33.267 19.3657 34.0644 19.3657 34.0644 19.3657C34.5107 19.3657 35.139 19.4437 35.139 20.1847C35.139 20.7913 34.736 21.1163 34.2334 21.2723C34.2767 21.3157 34.3677 21.4283 34.424 21.4977L35.1867 22.5073C35.659 23.1357 35.7024 23.1703 35.8714 23.2483C35.6764 23.2657 35.3947 23.2787 35.204 23.2787ZM30.4764 20.241L29.8697 21.554H30.8577L30.4764 20.241ZM31.6637 23.1443C31.3387 23.1443 31.317 23.1313 31.057 22.2473L30.966 21.9223C30.81 22.0003 30.5284 22.035 30.0907 22.035H29.6444L29.5664 22.204C29.4884 22.3817 29.2977 22.7413 29.3107 22.9537C29.3107 22.997 29.3107 23.0533 29.3324 23.1227H28.4354C28.691 22.867 29.016 22.2733 29.4667 21.2983L29.7224 20.7393C29.9564 20.2367 30.2164 19.6647 30.2164 19.5737C30.2164 19.4957 30.1947 19.4263 30.173 19.3613H30.992C30.992 19.3613 31.2044 20.1803 31.395 20.852L31.551 21.4457C31.8327 22.4423 31.9974 22.9363 32.2357 23.114C32.0234 23.1443 31.7634 23.1443 31.6637 23.1443ZM27.0357 19.8033C26.9577 19.8033 26.8667 19.8033 26.78 19.8163C26.7454 20.072 26.7107 20.332 26.702 20.6137C26.702 20.6137 26.689 20.8477 26.689 20.839H26.7887C27.261 20.839 27.6944 20.67 27.6944 20.2323C27.6857 19.9853 27.4864 19.8033 27.0357 19.8033ZM26.9144 21.294H26.6587L26.624 21.853C26.6024 22.1 26.5894 22.2993 26.5894 22.5463C26.5894 22.581 26.702 22.659 26.949 22.659C27.4777 22.659 27.8244 22.4033 27.8244 21.9657C27.8114 21.4717 27.417 21.294 26.9144 21.294ZM26.9794 23.1097H25.6664C25.8354 22.9623 25.8787 22.3947 25.948 21.3937L25.961 21.1597C25.9957 20.5877 26.0304 20.15 26.0304 19.8467C26.0304 19.591 25.9957 19.409 25.9177 19.3527H27.3867C27.7334 19.3527 28.4397 19.3743 28.4397 20.1023C28.4397 20.5833 27.9934 20.8867 27.5774 20.9993C28.158 21.0557 28.5957 21.3373 28.5957 21.9397C28.5827 22.594 27.976 23.1097 26.9794 23.1097ZM21.6797 18.6073C21.5324 18.6073 21.5107 18.629 21.4674 18.6853C21.4457 18.6853 21.4327 18.6853 21.411 18.6853C21.2984 18.6853 21.164 18.6983 21.0427 18.785C20.93 18.863 20.8737 18.9973 20.93 19.0883C20.93 19.0883 20.9734 19.032 21.1077 19.032C21.1294 19.032 21.151 19.032 21.177 19.032C21.3677 19.0537 21.502 19.1533 21.4804 19.4133C21.4674 19.669 21.3677 19.9637 20.9777 19.9637C20.9777 19.9637 20.9214 19.9637 20.878 19.9637C20.7004 19.942 20.631 19.8293 20.631 19.8293C20.631 19.8293 20.787 19.786 20.787 19.5823C20.787 19.448 20.6657 19.3137 20.4967 19.2703C20.4404 19.2573 20.3754 19.2487 20.319 19.2487C20.1154 19.2487 19.8814 19.3397 19.7384 19.539C19.3917 19.9983 19.357 20.683 19.448 21.3113C19.539 21.9397 19.929 22.5203 19.942 22.542C19.955 22.555 19.955 22.5637 19.9637 22.5637C19.9637 22.5637 19.9767 22.5637 19.9767 22.5507C20.1457 22.3817 20.3147 22.1607 20.3797 22.0003C20.4577 22.0567 20.4144 22.191 20.3797 22.3253C20.345 22.4597 20.2454 22.6503 20.2107 22.7067C20.176 22.763 20.1327 22.828 20.189 22.8627C20.202 22.8627 20.202 22.8757 20.2107 22.8757C20.2887 22.8757 20.4664 22.7413 20.67 22.4727C20.8954 22.1693 21.008 21.9007 21.008 21.9007C21.021 21.9007 21.0514 21.9353 21.0514 22.0133C21.0514 22.0913 20.9734 22.3817 20.8174 22.6503C20.6614 22.919 20.514 23.088 20.4794 23.1227C20.4577 23.1443 20.4794 23.1573 20.4924 23.166C20.5054 23.179 20.7827 23.4347 21.1857 23.66C21.6667 23.9157 21.879 23.9633 21.879 23.9633C21.879 23.9633 22.0914 23.92 22.5637 23.66C22.9667 23.4347 23.2484 23.179 23.257 23.166C23.27 23.153 23.2787 23.1443 23.27 23.1227C23.2484 23.088 23.101 22.919 22.945 22.6503C22.789 22.3817 22.711 22.0913 22.711 22.0133C22.711 21.9353 22.7327 21.9137 22.7457 21.9007C22.7457 21.9007 22.8584 22.1693 23.0924 22.4727C23.296 22.7413 23.4737 22.8757 23.5517 22.8757C23.5647 22.8757 23.5734 22.8757 23.5734 22.8627C23.6297 22.828 23.5864 22.763 23.5517 22.7067C23.517 22.6503 23.4304 22.4597 23.3827 22.3253C23.3394 22.191 23.3047 22.0567 23.3827 22.0003C23.452 22.1563 23.6167 22.3817 23.7857 22.5507L23.7987 22.5637C23.8117 22.5637 23.8117 22.5507 23.8204 22.5507C23.8334 22.529 24.2364 21.957 24.3144 21.32C24.4054 20.6917 24.3707 20.02 24.024 19.5477C23.868 19.344 23.6427 19.2573 23.4304 19.2573C23.361 19.2573 23.309 19.2703 23.2527 19.279C23.075 19.3353 22.9624 19.4567 22.9624 19.591C22.9624 19.7947 23.1184 19.838 23.1184 19.838C23.1184 19.838 23.062 19.9507 22.8714 19.9723C22.8367 19.9723 22.802 19.9853 22.7717 19.9853C22.6244 19.9853 22.503 19.942 22.3904 19.7817C22.2777 19.6257 22.2907 19.3223 22.2777 19.2097C22.2777 19.11 22.256 18.863 22.1434 18.772C22.0307 18.6723 21.8964 18.6377 21.7274 18.6377C21.7014 18.6073 21.6927 18.6073 21.6797 18.6073ZM19.396 24.6783H20.4837L21.1337 27.378H21.1467L22.1347 24.6783H22.9624L23.959 27.378H23.972L24.622 24.6783H25.7097L24.6697 28.834H23.5604L22.5637 26.1777H22.5507L21.5367 28.834H20.4404L19.396 24.6783ZM25.6924 26.7627C25.6924 25.4757 26.611 24.5787 27.898 24.5787C29.185 24.5787 30.1037 25.4843 30.1037 26.7627C30.1037 28.0497 29.185 28.9467 27.898 28.9467C26.611 28.9467 25.6924 28.0497 25.6924 26.7627ZM29.0637 26.7627C29.0637 26 28.6044 25.4973 27.911 25.4973C27.2177 25.4973 26.7584 25.9913 26.7584 26.7627C26.7584 27.5253 27.2177 28.028 27.911 28.028C28.6044 28.015 29.0637 27.5123 29.0637 26.7627ZM30.5327 24.6783H31.6854L33.1067 27.4127H33.1197L34.541 24.6783H35.6937V28.834H34.6537V26.3467H34.6407L33.306 28.834H32.9247L31.5944 26.3467H31.5814V28.834H30.5414V24.6783H30.5327ZM36.27 24.6783H39.4637V25.597H37.323V26.3033H39.26V27.1527H37.323V27.9153H39.4724V28.834H36.27V24.6783ZM39.9664 24.6783H41.0627L42.887 27.3217H42.9V24.6783H43.953V28.834H42.8567L41.0324 26.1907H41.0194V28.834H39.9664V24.6783ZM44.46 26.1473C44.7417 26.078 44.8197 25.9697 44.8197 25.701H44.4297V24.6913H45.526V25.5537C45.526 26.2037 45.1664 26.6067 44.46 26.663V26.1473ZM45.6907 27.4473L46.6874 27.2697C46.8217 27.8503 47.1597 28.0973 47.7967 28.0973C48.2907 28.0973 48.581 27.95 48.581 27.6943C48.581 27.4603 48.3774 27.326 47.359 27.1007C46.319 26.8667 45.825 26.494 45.825 25.844C45.825 25.103 46.5097 24.5873 47.5627 24.5873C48.5507 24.5873 49.309 25.0813 49.4997 25.8527L48.503 26.078C48.3557 25.662 48.0437 25.4497 47.5627 25.4497C47.1467 25.4497 46.878 25.6057 46.878 25.831C46.878 26.0217 47.0687 26.1127 48.0307 26.3337C49.0837 26.5807 49.634 26.962 49.634 27.677C49.634 28.4613 48.919 28.964 47.7967 28.964C46.6094 28.9467 45.8467 28.3963 45.6907 27.4473ZM19.396 31.668L20.046 31.5553C20.137 31.9367 20.3494 32.0927 20.774 32.0927C21.099 32.0927 21.2897 31.993 21.2897 31.824C21.2897 31.668 21.1554 31.577 20.4924 31.434C19.8077 31.278 19.4957 31.044 19.4957 30.615C19.4957 30.134 19.942 29.7873 20.6267 29.7873C21.2767 29.7873 21.7707 30.1123 21.892 30.615L21.242 30.7623C21.151 30.4937 20.9387 30.3463 20.6267 30.3463C20.358 30.3463 20.1804 30.446 20.1804 30.602C20.1804 30.7233 20.3017 30.7927 20.93 30.927C21.6234 31.083 21.97 31.343 21.97 31.8023C21.97 32.318 21.4977 32.643 20.7697 32.643C19.9897 32.656 19.4957 32.2963 19.396 31.668ZM22.2517 31.5337V29.8653H22.945V31.4903C22.945 31.8803 23.1357 32.0623 23.517 32.0623C23.8984 32.0623 24.089 31.8847 24.089 31.4903V29.8653H24.7824V31.5337C24.7824 32.2487 24.31 32.656 23.517 32.656C22.724 32.656 22.2517 32.253 22.2517 31.5337ZM25.155 29.8653H26.611C27.2047 29.8653 27.6294 30.212 27.6294 30.8057C27.6294 31.3993 27.2047 31.7373 26.611 31.7373H25.8484V32.5867H25.155V29.8653ZM26.5417 31.1437C26.754 31.1437 26.9317 31.031 26.9317 30.797C26.9317 30.55 26.7627 30.459 26.5504 30.459H25.8354V31.1437H26.5417ZM27.898 29.8653H29.991V30.472H28.5914V30.9313H29.8567V31.4903H28.5914V31.9843H29.991V32.591H27.898V29.8653ZM32.8164 32.578H32.0537L31.4817 31.681H31.0354V32.578H30.342V29.8567H31.798C32.4047 29.8567 32.8077 30.1947 32.8077 30.7623C32.8077 31.2 32.5607 31.5033 32.1794 31.6117L32.8164 32.578ZM31.7417 31.0873C31.9757 31.0873 32.123 30.9747 32.123 30.7623C32.123 30.55 31.9887 30.4503 31.7417 30.4503H31.0354V31.0873H31.7417ZM34.0037 29.8653H34.697V31.9843H36.075V32.591H34.0037V29.8653ZM36.3914 29.8653H38.4844V30.472H37.0717V30.9313H38.337V31.4903H37.0717V31.9843H38.4714V32.591H36.3784V29.8697H36.3914V29.8653ZM40.872 32.175H39.572L39.403 32.578H38.688L39.897 29.8567H40.534L41.743 32.578H41.028L40.872 32.175ZM40.625 31.59L40.222 30.602H40.2134L39.8104 31.59H40.625ZM41.6347 31.2217C41.6347 30.381 42.2414 29.7873 43.082 29.7873C43.745 29.7873 44.2347 30.1557 44.369 30.693L43.732 30.8707C43.641 30.5803 43.42 30.3897 43.095 30.3897C42.6357 30.3897 42.3324 30.7147 42.3324 31.2173C42.3324 31.7113 42.6357 32.045 43.095 32.045C43.485 32.045 43.7104 31.876 43.732 31.6073H43.1167V31.1133H44.4037V31.473C44.4037 32.201 43.901 32.6473 43.0907 32.6473C42.2284 32.656 41.6347 32.0623 41.6347 31.2217ZM44.681 31.5337V29.8653H45.3744V31.4903C45.3744 31.8803 45.565 32.0623 45.9464 32.0623C46.3277 32.0623 46.5184 31.8847 46.5184 31.4903V29.8653H47.2117V31.5337C47.2117 32.2487 46.7394 32.656 45.9464 32.656C45.1534 32.656 44.681 32.253 44.681 31.5337ZM47.5497 29.8653H49.6427V30.472H48.243V30.9313H49.5084V31.4903H48.243V31.9843H49.6427V32.591H47.5497V29.8653ZM6.99403 23.6253L9.97536 22.191L14.3304 24.31L14.1397 23.0793C14.105 22.8887 13.9924 22.7327 13.8147 22.6417L11.427 21.4977L9.95803 20.7913L6.16203 22.6157C5.95836 22.7153 5.81536 22.906 5.78069 23.1313L5.51203 24.947L10.062 27.8027L11.2927 26.9967L6.87703 24.375L6.99403 23.6253ZM14.781 27.3347L14.5557 25.857L10.0534 23.4997L8.71003 24.1497L13.3467 26.6803L13.39 27.1267L9.97103 29.367L5.32136 26.273L5.16536 27.326C5.13069 27.5513 5.23469 27.7637 5.41236 27.885L9.97103 30.953L14.5297 27.885C14.7117 27.7723 14.8114 27.547 14.781 27.3347ZM4.33769 24.219L3.17203 23.478L3.53169 21.0687L9.96236 17.9877L16.406 21.0687L17.056 25.415L15.6867 24.7997L15.262 21.9223L9.96236 19.3917L4.68436 21.9223L4.33769 24.219ZM17.5674 28.9033L9.96236 34.0123L2.35303 28.9033L2.94669 24.934L4.11236 25.6837L3.72236 28.2923L9.95369 32.4827L16.1807 28.2967L15.8774 26.234L17.2554 26.897L17.5674 28.9033Z" fill="black"/>
</svg>
