<svg width="52" height="52" viewBox="0 0 52 52" fill="none" xmlns="http://www.w3.org/2000/svg">
<path d="M4.72331 35.152C3.58798 35.152 2.66064 34.2246 2.66064 33.0893V18.9063C2.66064 17.771 3.58798 16.8436 4.72331 16.8436H47.2766C48.412 16.8436 49.3393 17.771 49.3393 18.9063V33.0893C49.3393 34.2246 48.412 35.152 47.2766 35.152H4.72331Z" fill="#1E0F35"/>
<path d="M47.2768 17.16C48.2431 17.16 49.0274 17.9443 49.0274 18.9107V33.0937C49.0274 34.06 48.2431 34.8443 47.2768 34.8443H4.72342C3.75709 34.8443 2.97276 34.06 2.97276 33.0937V18.9063C2.97276 17.94 3.75709 17.1557 4.72342 17.1557L47.2768 17.16ZM47.2768 16.5447H4.72342C3.41909 16.5447 2.35742 17.602 2.35742 18.9107V33.0937C2.35742 34.398 3.41476 35.4597 4.72342 35.4597H47.2768C48.5811 35.4597 49.6428 34.4023 49.6428 33.0937V18.9063C49.6384 17.602 48.5811 16.5447 47.2768 16.5447Z" fill="#00AEEF"/>
<path d="M2.66504 18.9063C2.66504 17.771 3.59237 16.8436 4.72771 16.8436H47.2767H4.72337C3.59237 16.8566 2.66504 17.7753 2.66504 18.9063Z" fill="#00AEEF"/>
<path d="M45.7731 21.1857C45.6387 20.9474 45.357 20.7697 45.0537 20.7697C44.7807 20.7697 44.5424 20.8824 44.5424 21.1684C44.5424 21.4154 44.8457 21.5757 45.1577 21.775C45.5 21.9917 45.8467 22.2474 45.8467 22.7024C45.8467 23.296 45.2704 23.6557 44.5987 23.6557C44.3257 23.6557 44.0397 23.5994 43.7104 23.478L43.7667 22.685C43.9184 22.997 44.213 23.2527 44.6464 23.2527C44.9757 23.2527 45.2227 23.0924 45.2227 22.8194C45.2227 22.581 45.0234 22.4337 44.7764 22.2907C44.2564 21.9787 43.9357 21.7317 43.9357 21.281C43.9357 20.6094 44.5034 20.384 45.0884 20.384C45.4307 20.384 45.6387 20.449 45.8554 20.449L45.7731 21.1857ZM42.9044 21.8964C42.8307 22.0177 42.7354 22.191 42.679 22.3124C42.6314 22.5507 42.6054 22.8627 42.6054 23.2007C42.6054 23.3437 42.6357 23.543 42.7007 23.5994H41.8384C41.99 23.4564 42.055 22.5767 42.0464 22.295C41.9337 21.8964 41.7734 21.5194 41.535 21.0557C41.3834 20.761 41.2057 20.488 41.1017 20.4404C41.2924 20.423 41.535 20.41 41.6607 20.41C41.8774 20.41 41.9337 20.4404 42.0594 20.722C42.2674 21.1857 42.419 21.5367 42.5057 21.7924C42.7224 21.45 42.874 21.216 43.0734 20.904C43.121 20.8304 43.1687 20.7264 43.1687 20.631C43.1687 20.5574 43.16 20.4794 43.121 20.4404H43.9704C43.8057 20.4794 43.069 21.632 42.9044 21.8964ZM39.9274 21.177L39.416 22.2734H40.2394L39.9274 21.177ZM40.9284 23.6254C40.6554 23.6254 40.6337 23.6167 40.417 22.867L40.3434 22.594C40.209 22.6504 39.975 22.6894 39.6067 22.6894H39.2297L39.1647 22.8324C39.0694 23.0404 38.948 23.2874 38.948 23.4564C38.948 23.4954 38.948 23.543 38.9654 23.5994H36.7337C36.855 23.4564 36.9027 22.9927 36.959 22.152L36.9677 21.9527C36.998 21.4717 37.024 21.1034 37.024 20.8477C37.024 20.631 36.9937 20.4967 36.9374 20.4404H37.7997C37.6784 20.5357 37.6307 21.047 37.5744 21.879L37.557 22.0784C37.5397 22.3904 37.5007 22.711 37.5007 23.023C37.5007 23.166 37.557 23.2007 37.7087 23.2007C38.2287 23.2007 38.363 23.192 38.597 23.0317C38.7487 22.7587 38.909 22.4164 39.078 22.0654L39.2947 21.593C39.5027 21.1467 39.7107 20.7047 39.7107 20.6094C39.7107 20.5444 39.6934 20.488 39.6717 20.4317H40.3607C40.3607 20.4317 40.6337 21.463 40.703 21.6884L40.8374 22.191C41.0757 23.0317 41.2144 23.439 41.4137 23.5994C41.2404 23.6167 41.015 23.6254 40.9284 23.6254ZM35.3514 23.6644C34.5367 23.6644 34.0644 22.9927 34.0644 22.2387C34.0644 21.19 34.632 20.3754 35.7197 20.3754C36.062 20.3754 36.2224 20.4404 36.4954 20.4404L36.4087 21.242C36.257 20.9604 36.0014 20.7697 35.6634 20.7697C34.9917 20.7697 34.7187 21.4977 34.7187 22.1217C34.7187 22.802 35.0957 23.1704 35.607 23.1704C35.88 23.1704 36.127 23.0967 36.5257 22.8107C36.361 23.3437 35.9754 23.6644 35.3514 23.6644ZM32.526 20.826C32.4524 20.826 32.357 20.826 32.279 20.8347C32.2487 20.969 32.2314 21.203 32.2054 21.58L32.188 21.7967C32.227 21.8054 32.2834 21.8054 32.331 21.8054C32.7297 21.8054 32.994 21.567 32.994 21.2117C32.9984 20.969 32.825 20.826 32.526 20.826ZM33.67 23.738C33.4317 23.738 33.3754 23.699 33.3017 23.595L32.4134 22.3644C32.3484 22.269 32.292 22.1954 32.175 22.1954H32.1534L32.136 22.4337C32.1187 22.7544 32.1057 23.0187 32.1057 23.2094C32.1057 23.426 32.136 23.5517 32.1924 23.608H31.33C31.4514 23.4954 31.499 23.127 31.5684 22.1607L31.577 21.9614C31.6074 21.489 31.6334 21.1207 31.6334 20.865C31.6334 20.6397 31.603 20.4967 31.538 20.449C32.0277 20.449 32.6994 20.449 32.6994 20.449C33.0764 20.449 33.605 20.514 33.605 21.1294C33.605 21.6407 33.2627 21.9137 32.838 22.048C32.877 22.087 32.9507 22.1824 32.9984 22.2387L33.6397 23.088C34.0384 23.6167 34.073 23.6384 34.216 23.712C34.0644 23.7294 33.8304 23.738 33.67 23.738ZM29.679 21.177L29.1677 22.2734H29.9997L29.679 21.177ZM30.6714 23.6254C30.3984 23.6254 30.3767 23.6167 30.16 22.867L30.0864 22.594C29.952 22.6504 29.718 22.6894 29.3497 22.6894H28.9727L28.9077 22.8324C28.8427 22.984 28.6824 23.2874 28.691 23.4564C28.691 23.4954 28.691 23.543 28.7084 23.5994H27.95C28.1667 23.3827 28.4397 22.88 28.821 22.0697L29.0377 21.5974C29.237 21.1727 29.4537 20.6917 29.4537 20.6137C29.4537 20.5487 29.4364 20.4924 29.4147 20.436H30.1037C30.1037 20.436 30.2814 21.1164 30.446 21.6927L30.5804 22.1954C30.8187 23.036 30.9574 23.4434 31.1567 23.6037C30.9834 23.6167 30.7667 23.6254 30.6714 23.6254ZM26.7757 20.8174C26.7107 20.8174 26.6327 20.8174 26.559 20.826C26.5287 21.0427 26.5027 21.2594 26.494 21.4977C26.494 21.4977 26.4854 21.697 26.4854 21.6884H26.572C26.9707 21.6884 27.339 21.5454 27.339 21.177C27.3217 20.969 27.1527 20.8174 26.7757 20.8174ZM26.6717 22.074H26.455L26.4247 22.5377C26.4074 22.7457 26.3944 22.9147 26.3944 23.114C26.3944 23.1444 26.4897 23.2094 26.6977 23.2094C27.144 23.2094 27.4344 22.9927 27.4344 22.6244C27.4257 22.217 27.0964 22.074 26.6717 22.074ZM26.728 23.5994H25.623C25.766 23.478 25.8007 22.9927 25.8614 22.152L25.87 21.9527C25.9004 21.4717 25.9264 21.1034 25.9264 20.8477C25.9264 20.631 25.896 20.4794 25.831 20.4317H27.0704C27.365 20.4317 27.9587 20.449 27.9587 21.0644C27.9587 21.4717 27.5817 21.7274 27.2307 21.8227C27.7204 21.8704 28.093 22.1044 28.093 22.6157C28.08 23.1617 27.5687 23.5994 26.728 23.5994Z" fill="#00AEEF"/>
<path d="M22.256 19.8077C22.1346 19.8077 22.113 19.8251 22.0783 19.8727C22.061 19.8727 22.048 19.8727 22.0306 19.8727C21.9353 19.8727 21.8226 19.8814 21.7186 19.9464C21.6233 20.0114 21.5756 20.1241 21.6233 20.2021C21.6233 20.2021 21.6623 20.1544 21.775 20.1544C21.7923 20.1544 21.814 20.1544 21.8313 20.1544C21.9916 20.1717 22.1043 20.2584 22.087 20.4751C22.0783 20.6917 21.9916 20.9387 21.6623 20.9387C21.6623 20.9387 21.6146 20.9387 21.5756 20.9387C21.424 20.9214 21.3676 20.8261 21.3676 20.8261C21.3676 20.8261 21.502 20.7871 21.502 20.6181C21.502 20.5054 21.398 20.3927 21.255 20.3537C21.2073 20.3451 21.151 20.3364 21.1033 20.3364C20.9343 20.3364 20.735 20.4101 20.6136 20.5834C20.319 20.9691 20.293 21.5367 20.3666 22.0697C20.4403 22.5984 20.774 23.0924 20.7826 23.1011C20.7913 23.1097 20.7913 23.1184 20.8 23.1184C20.8 23.1184 20.8086 23.1184 20.8086 23.1097C20.9516 22.9667 21.0903 22.7804 21.151 22.6461C21.216 22.6937 21.1813 22.8064 21.151 22.9191C21.1206 23.0317 21.0383 23.1921 21.008 23.2397C20.9776 23.2874 20.943 23.3437 20.9906 23.3741C20.9993 23.3741 20.9993 23.3827 21.008 23.3827C21.073 23.3827 21.2246 23.2701 21.3936 23.0404C21.5843 22.7847 21.6753 22.5594 21.6753 22.5594C21.684 22.5594 21.7143 22.5897 21.7143 22.6547C21.7143 22.7197 21.6493 22.9667 21.515 23.1921C21.3806 23.4174 21.2593 23.5604 21.2333 23.5907C21.216 23.6081 21.2333 23.6211 21.242 23.6297C21.2506 23.6384 21.489 23.8551 21.827 24.0371C22.2343 24.2537 22.412 24.2927 22.412 24.2927C22.412 24.2927 22.5896 24.2537 22.9883 24.0371C23.3306 23.8464 23.5646 23.6297 23.5733 23.6211C23.582 23.6124 23.5906 23.6037 23.582 23.5821C23.5646 23.5517 23.439 23.4131 23.309 23.1834C23.1746 22.9581 23.1096 22.7111 23.1096 22.6461C23.1096 22.5811 23.127 22.5594 23.14 22.5507C23.14 22.5507 23.2353 22.7761 23.4346 23.0317C23.6036 23.2571 23.7553 23.3741 23.8203 23.3741C23.829 23.3741 23.8376 23.3741 23.8376 23.3654C23.8853 23.3351 23.8463 23.2787 23.8203 23.2311C23.79 23.1834 23.7163 23.0231 23.6773 22.9104C23.6383 22.7977 23.6123 22.6851 23.6773 22.6374C23.7336 22.7717 23.8766 22.9581 24.0196 23.1011L24.0283 23.1097C24.037 23.1097 24.037 23.1011 24.0456 23.1011C24.0543 23.0837 24.3966 22.5984 24.4616 22.0697C24.5353 21.5411 24.5093 20.9734 24.2146 20.5834C24.0803 20.4144 23.894 20.3364 23.712 20.3364C23.6556 20.3364 23.608 20.3451 23.5603 20.3537C23.4086 20.4014 23.3133 20.5054 23.3133 20.6181C23.3133 20.7871 23.4476 20.8261 23.4476 20.8261C23.4476 20.8261 23.4 20.9214 23.2396 20.9387C23.2093 20.9387 23.1833 20.9474 23.153 20.9474C23.0316 20.9474 22.9276 20.9084 22.8323 20.7784C22.737 20.6441 22.7456 20.3927 22.737 20.2974C22.737 20.2107 22.7196 20.0027 22.6243 19.9291C22.529 19.8424 22.4163 19.8164 22.2733 19.8164C22.2733 19.8077 22.2646 19.8077 22.256 19.8077Z" fill="#00AEEF"/>
<path d="M20.3276 24.921H21.2463L21.7966 27.1917H21.8053L22.6373 24.921H23.335L24.1756 27.1917H24.1843L24.7346 24.921H25.6533L24.7736 28.418H23.8333L22.9926 26.1864H22.984L22.1346 28.418H21.2073L20.3276 24.921Z" fill="white"/>
<path d="M25.6404 26.6631C25.6404 25.5754 26.416 24.8214 27.5037 24.8214C28.5914 24.8214 29.367 25.5797 29.367 26.6631C29.367 27.7464 28.5914 28.5047 27.5037 28.5047C26.416 28.5047 25.6404 27.7507 25.6404 26.6631ZM28.4874 26.6631C28.4874 26.0217 28.1017 25.6057 27.5124 25.6057C26.9274 25.6057 26.5374 26.0217 26.5374 26.6631C26.5374 27.3044 26.923 27.7204 27.5124 27.7204C28.0974 27.7291 28.4874 27.3044 28.4874 26.6631Z" fill="white"/>
<path d="M29.7266 24.921H30.7016L31.9019 27.2177H31.9106L33.1109 24.921H34.0859V28.418H33.2062V26.3207H33.1976L32.0709 28.418H31.7502L30.6236 26.3207H30.6149V28.418H29.7352V24.921H29.7266Z" fill="white"/>
<path d="M34.5669 24.921H37.2622V25.6967H35.4552V26.2904H37.0932V27.001H35.4596V27.6467H37.2752V28.4224H34.5712V24.921H34.5669Z" fill="white"/>
<path d="M37.687 24.921H38.6143L40.157 27.144H40.1657V24.921H41.054V28.418H40.1267L38.584 26.195H38.5753V28.418H37.687V24.921Z" fill="white"/>
<path d="M41.4786 26.1431C41.717 26.0867 41.782 25.9914 41.782 25.7661H41.4526V24.9167H42.38V25.6447C42.38 26.1951 42.0766 26.5244 41.483 26.5721V26.1431H41.4786Z" fill="white"/>
<path d="M42.5186 27.2395L43.3592 27.0878C43.4719 27.5775 43.7579 27.7768 44.2952 27.7768C44.7112 27.7768 44.9582 27.6555 44.9582 27.4345C44.9582 27.2351 44.7892 27.1225 43.9269 26.9318C43.0472 26.7325 42.6312 26.4205 42.6312 25.8831C42.6312 25.2678 43.2076 24.8258 44.0959 24.8258C44.9279 24.8258 45.5692 25.2418 45.7296 25.8831L44.8889 26.0738C44.7676 25.7228 44.5032 25.5451 44.0959 25.5451C43.7449 25.5451 43.5196 25.6795 43.5196 25.8658C43.5196 26.0261 43.6799 26.1041 44.4946 26.2905C45.3829 26.4985 45.8466 26.8191 45.8466 27.4171C45.8466 28.0801 45.2399 28.5048 44.2952 28.5048C43.2942 28.5048 42.6529 28.0498 42.5186 27.2395Z" fill="white"/>
<path d="M20.3276 30.7927L20.878 30.6974C20.9516 31.0181 21.1336 31.1524 21.4933 31.1524C21.7663 31.1524 21.9266 31.0657 21.9266 30.9357C21.9266 30.8014 21.814 30.7277 21.255 30.6064C20.6786 30.4721 20.4143 30.2771 20.4143 29.9174C20.4143 29.5101 20.7913 29.2284 21.3676 29.2284C21.918 29.2284 22.334 29.5014 22.438 29.9261L21.8876 30.0474C21.814 29.8221 21.632 29.6964 21.3676 29.6964C21.1423 29.6964 20.9906 29.7831 20.9906 29.9044C20.9906 30.0084 21.0946 30.0647 21.6233 30.1774C22.2083 30.3117 22.503 30.5284 22.503 30.9141C22.503 31.3474 22.1043 31.6247 21.4933 31.6247C20.826 31.6247 20.41 31.3214 20.3276 30.7927Z" fill="white"/>
<path d="M22.7371 30.6801V29.2804H23.3221V30.6411C23.3221 30.9704 23.4824 31.1134 23.8031 31.1134C24.1237 31.1134 24.2841 30.9617 24.2841 30.6411V29.2804H24.8734V30.6887C24.8734 31.2954 24.4747 31.6334 23.8031 31.6334C23.1271 31.6247 22.7371 31.2867 22.7371 30.6801Z" fill="white"/>
<path d="M25.1853 29.2804H26.416C26.9186 29.2804 27.2783 29.5621 27.2783 30.0647C27.2783 30.5674 26.9186 30.8491 26.416 30.8491H25.7746V31.5684H25.1896V29.2804H25.1853ZM26.3596 30.3507C26.5373 30.3507 26.689 30.2554 26.689 30.0561C26.689 29.8481 26.546 29.7744 26.3683 29.7744H25.7616V30.3507H26.3596Z" fill="white"/>
<path d="M27.5037 29.2804H29.2717V29.7917H28.0887V30.1774H29.159V30.6411H28.0887V31.0571H29.2717V31.5684H27.5037V29.2804Z" fill="white"/>
<path d="M31.6549 31.5597H31.0136L30.5326 30.8014H30.1556V31.5597H29.5706V29.2804H30.8012C31.3126 29.2804 31.6506 29.5621 31.6506 30.0474C31.6506 30.4157 31.4426 30.6714 31.1219 30.7667L31.6549 31.5597ZM30.7449 30.3117C30.9442 30.3117 31.0656 30.2164 31.0656 30.0387C31.0656 29.8611 30.9529 29.7744 30.7449 29.7744H30.1382V30.3117H30.7449Z" fill="white"/>
<path d="M32.6561 29.2804H33.2411V31.0571H34.3937V31.5684H32.6431V29.2804H32.6561Z" fill="white"/>
<path d="M34.671 29.2804H36.439V29.7917H35.2474V30.1774H36.3177V30.6411H35.2474V31.0571H36.4304V31.5684H34.6624V29.2804H34.671Z" fill="white"/>
<path d="M38.4539 31.2305H37.3576L37.2146 31.5728H36.6079L37.6306 29.2848H38.1679L39.1906 31.5728H38.5839L38.4539 31.2305ZM38.2459 30.7278L37.9036 29.8958H37.8949L37.5526 30.7278H38.2459Z" fill="white"/>
<path d="M39.0867 30.4158C39.0867 29.7051 39.598 29.2068 40.3043 29.2068C40.8633 29.2068 41.2793 29.5188 41.392 29.9738L40.8547 30.1255C40.781 29.8785 40.5903 29.7181 40.3173 29.7181C39.9317 29.7181 39.676 29.9911 39.676 30.4158C39.676 30.8318 39.9317 31.1135 40.3173 31.1135C40.6467 31.1135 40.8373 30.9705 40.8547 30.7451H40.3347V30.3291H41.4223V30.6325C41.4223 31.2478 40.9977 31.6248 40.3173 31.6248C39.598 31.6248 39.0867 31.1265 39.0867 30.4158Z" fill="white"/>
<path d="M41.6692 30.6801V29.2804H42.2542V30.6411C42.2542 30.9704 42.4145 31.1134 42.7352 31.1134C43.0559 31.1134 43.2162 30.9617 43.2162 30.6411V29.2804H43.8012V30.6887C43.8012 31.2954 43.4025 31.6334 42.7309 31.6334C42.0635 31.6247 41.6692 31.2867 41.6692 30.6801Z" fill="white"/>
<path d="M44.0874 29.2804H45.8554V29.7917H44.6724V30.1774H45.7427V30.6411H44.6724V31.0571H45.8554V31.5684H44.0874V29.2804Z" fill="white"/>
<path d="M18.616 25.7184L17.9747 21.7014L12.3674 19.0624L6.76003 21.697L6.4307 23.7944L7.7177 24.609L8.01236 22.6157L12.3717 20.5357L16.731 22.6244L17.0907 25.025L18.616 25.7184ZM12.3674 22.88L16.094 24.687L15.925 23.5344C15.8947 23.3567 15.782 23.205 15.6217 23.127L12.3674 21.567L9.1607 23.0967C8.97003 23.192 8.84003 23.3697 8.80103 23.5777L8.5627 25.1377L12.428 27.5774L13.5807 26.819L9.8367 24.596L9.92336 24.0284L12.3674 22.88ZM5.67236 28.5524L12.376 33.241L19.0797 28.5524L18.8067 26.8147L17.264 26.078L17.5284 27.885L12.3674 31.3344L7.2237 27.885L7.54436 25.6924L6.51303 25.0294L6.25736 24.869L5.67236 28.5524ZM8.28103 27.0877C8.2507 27.2957 8.33736 27.5037 8.51936 27.6164L12.3674 30.2077L16.2154 27.6164C16.3844 27.5037 16.4797 27.2957 16.4537 27.0877L16.263 25.8224L12.4324 23.829L11.167 24.4357L15.119 26.6024L15.1494 26.9057L12.3674 28.7387L8.42403 26.1214L8.28103 27.0877Z" fill="url(#paint0_linear_714_645)"/>
<path d="M8.40231 27.105L8.51498 26.3293L12.3543 28.8817L15.2836 26.962L15.236 26.5157L11.44 24.44L12.4236 23.9677L16.1416 25.9047L16.3193 27.105C16.3496 27.2653 16.2716 27.4257 16.1416 27.5123L12.3586 30.0473L8.57565 27.5123C8.44998 27.4257 8.38498 27.2653 8.40231 27.105ZM15.938 24.4703L15.795 23.5517C15.7776 23.4173 15.691 23.296 15.5566 23.2397L12.3586 21.71L9.20831 23.2137C9.05665 23.2873 8.94398 23.4303 8.92665 23.5993L8.70998 25.0727L12.4453 27.417L13.364 26.8233L9.72398 24.6697L9.82798 23.9503L12.3803 22.7327L15.938 24.4703ZM7.89098 22.529L12.363 20.3927L14.9543 21.632L16.8436 22.5377L17.2033 24.9383L18.2823 25.4193L17.8663 22.6503L17.7536 21.866L12.363 19.2833L6.98098 21.8573L6.82931 22.867L6.68631 23.8117L7.60498 24.3967L7.89098 22.529ZM12.3673 32.6863L18.7286 28.4137L18.4903 26.8147L17.4026 26.2947L17.6496 27.9413L12.363 31.486L7.07631 27.9413L7.39698 25.7573L6.47831 25.1637L5.99731 28.418L12.3673 32.6863Z" fill="url(#paint1_linear_714_645)"/>
<defs>
<linearGradient id="paint0_linear_714_645" x1="8.39254" y1="32.9646" x2="15.6181" y2="20.4495" gradientUnits="userSpaceOnUse">
<stop offset="0.08" stop-color="#1E0F35"/>
<stop offset="0.2191" stop-color="#163B68"/>
<stop offset="0.3695" stop-color="#0E6498"/>
<stop offset="0.5126" stop-color="#0884BE"/>
<stop offset="0.6444" stop-color="#049BD9"/>
<stop offset="0.761" stop-color="#01A9E9"/>
<stop offset="0.85" stop-color="#00AEEF"/>
</linearGradient>
<linearGradient id="paint1_linear_714_645" x1="7.78114" y1="33.9264" x2="15.4358" y2="20.6682" gradientUnits="userSpaceOnUse">
<stop offset="8.07343e-08" stop-color="#870064"/>
<stop offset="0.2457" stop-color="#B61B56"/>
<stop offset="0.489" stop-color="#DE314B"/>
<stop offset="0.6818" stop-color="#F63F44"/>
<stop offset="0.8" stop-color="#FF4441"/>
</linearGradient>
</defs>
</svg>
