<svg width="148" height="148" viewBox="0 0 148 148" fill="none" xmlns="http://www.w3.org/2000/svg">
<g clip-path="url(#clip0_332_72)">
<path d="M31.5391 141.66H21.4238V107.681H15V147.452H29.9442L31.5391 141.66ZM34.1362 107.681V147.452H40.6062V107.681H34.1362ZM56.3235 125.196L54.7285 130.44H60.8332C60.7882 137.829 60.3779 140.018 59.6936 141.067C59.1019 141.934 58.1899 142.298 56.8689 142.298H55.2739C53.9066 142.298 52.9959 141.934 52.4042 141.067C51.6749 139.927 51.3108 137.418 51.3108 128.434V126.701C51.3108 117.716 51.6749 115.163 52.4042 114.068C52.9959 113.202 53.9078 112.837 55.2739 112.837H56.8689C58.9193 112.837 59.9676 114.023 59.9676 118.037C59.9676 119.086 59.9676 120.043 59.9225 120.956L66.0736 117.534C66.1186 116.804 66.1186 116.303 66.1186 115.665C66.1186 110.785 62.9749 107.135 57.0515 107.135H55.0475C52.1777 107.135 49.3981 108.321 47.6667 110.419C45.6164 112.927 44.8871 117.032 44.8871 125.059V130.076C44.8871 138.148 45.6164 142.208 47.6667 144.717C49.3981 146.814 52.1777 148 55.0475 148H57.0515C59.9213 148 62.701 146.814 64.4323 144.717C66.3913 142.3 66.893 138.148 66.893 130.076V125.196H56.3222H56.3235ZM85.7101 141.34V140.793C84.6168 141.615 82.9768 142.116 81.1541 142.116H80.6074C78.3294 142.116 77.3724 141.112 77.3724 138.877V107.681H70.9486V139.426C70.9486 145.583 74.001 148 78.193 148H78.7397C80.0607 148 81.2004 147.772 82.4751 147.453L85.7101 141.342V141.34ZM85.7101 107.681V147.452H92.1339V107.681H85.7101ZM103.388 141.797V129.437H109.858L111.498 123.782H103.388V113.383H113.639L111.999 107.681H96.9639V147.452H112.546L114.141 141.796H103.389L103.388 141.797ZM121.111 110.875L119.972 115.391H125.576V147.453H132V107.044L121.111 110.875ZM83.9788 20.2507L94.6396 17.5145L78.3294 76.988H90.8129L112.136 0L62.2006 13.546L57.7358 26.0888H69.764L48.9878 98.9718H89.9009L93.181 87.159H65.024L83.9775 20.2507H83.9788Z" fill="#085EFF"/>
</g>
<defs>
<clipPath id="clip0_332_72">
<rect width="117" height="148" fill="white" transform="translate(15)"/>
</clipPath>
</defs>
</svg>
