<svg width="52" height="52" viewBox="0 0 52 52" fill="none" xmlns="http://www.w3.org/2000/svg">
<path d="M21.5582 29.4058V30.7058H23.4432V32.0232H21.5582V34.4932H20.1152V28.0885H24.5569V29.4058H21.5582Z" fill="black"/>
<path d="M28.0451 33.1109H25.7138L25.1288 34.4932H23.5818L26.3075 28.0929H27.4601L30.1858 34.4932H28.6388L28.0451 33.1109ZM26.1905 31.7936H27.5815L26.8881 30.0949L26.1905 31.7936Z" fill="black"/>
<path d="M31.8369 31.2909C31.8369 29.3539 33.2279 27.9369 35.1302 27.9369C36.3089 27.9369 37.0499 28.4222 37.6089 29.0332L36.6036 29.9736C36.2829 29.5879 35.8062 29.2889 35.1302 29.2889C34.1509 29.2889 33.3579 30.0862 33.3579 31.2909C33.3579 32.4609 34.1162 33.2929 35.1302 33.2929C35.6979 33.2929 36.1832 33.0936 36.6036 32.5996L37.6089 33.5399C36.9589 34.2419 36.2006 34.6449 35.1302 34.6449C33.2626 34.6449 31.8369 33.2712 31.8369 31.2909Z" fill="black"/>
<path d="M38.2632 32.0492V28.0885H39.7062V31.8108C39.7062 32.9548 40.2002 33.3102 40.9585 33.3102C41.7255 33.3102 42.2108 32.9548 42.2108 31.8108V28.0885H43.6539V32.0492C43.6539 33.7695 42.5662 34.6275 40.9585 34.6275C39.3595 34.6275 38.2632 33.7652 38.2632 32.0492Z" fill="black"/>
<path d="M49.6382 30.2162C49.6382 29.5272 49.4172 28.9986 48.9752 28.6432C48.5246 28.2749 47.8486 28.0929 46.9602 28.0929H44.5942V34.4932H46.0372V32.3439H46.9602C48.7109 32.3396 49.6382 31.6029 49.6382 30.2162ZM46.0372 31.0222V29.4059H46.9429C47.7316 29.4059 48.1172 29.6659 48.1172 30.2162C48.1172 30.7579 47.7229 31.0266 46.9429 31.0266H46.0372V31.0222Z" fill="black"/>
<path d="M20.1109 22.2429C20.1412 21.3719 19.6299 20.9429 19.6299 20.9429H22.4812C23.9632 20.9429 24.0802 21.9482 24.0802 21.9482C23.4649 21.5452 22.8712 21.5582 22.1042 21.5582C22.0479 21.5582 21.2289 21.5539 21.2289 21.5539C21.3589 21.7055 21.3589 22.2429 21.3589 22.2429V22.4812V22.8582H21.9699C22.9319 22.8582 23.2569 23.6295 23.2569 23.6295C22.8105 23.3739 22.3469 23.4302 21.9742 23.4302C21.6535 23.4302 21.3589 23.4389 21.3589 23.4389V25.3585C21.3935 25.6532 21.3632 26.0042 21.7792 26.0042C21.9265 26.0042 22.9796 26.0042 23.1139 26.0042C23.9632 26.0042 24.1712 25.5795 24.1712 25.5795L24.1625 25.9175C24.1625 26.1689 23.9372 26.6239 23.2915 26.6239H21.8875H21.4412H20.4532C20.4532 26.6239 20.1109 26.6109 20.1109 25.7269V22.2429Z" fill="black"/>
<path d="M30.6756 25.7139V23.2699C30.6756 22.3252 29.8956 22.0696 29.3236 22.0696C28.5609 22.0696 28.3356 22.7109 28.2359 22.9232C28.0669 22.3296 27.4689 22.0609 26.9793 22.0609C26.0606 22.0609 25.8266 22.9406 25.8266 22.9406C25.8266 22.9406 25.8049 22.0912 25.0596 22.0912H24.3359C24.3359 22.0912 24.7519 22.2646 24.7519 22.9969V25.7052C24.7519 26.6066 25.1116 26.6152 25.1116 26.6152H26.3119C26.2816 26.6066 25.8526 26.2816 25.8526 25.6966V23.2916C25.8656 23.1832 26.0476 22.8236 26.5676 22.8236C26.8536 22.8236 27.1699 23.1226 27.1656 23.4692V25.7009C27.1656 26.6109 27.5253 26.6109 27.5253 26.6109H28.7299C28.7299 26.6109 28.2706 26.2902 28.2706 25.6922L28.2663 23.2916C28.3096 23.1572 28.4699 22.8366 28.9249 22.8366C29.2803 22.8366 29.5793 23.1356 29.5706 23.4822C29.5706 23.4822 29.5663 25.5189 29.5706 25.7096C29.5749 26.6239 29.9303 26.6152 29.9303 26.6152C30.5586 26.6152 31.1349 26.6152 31.1349 26.6152C31.1349 26.6152 30.6756 26.3076 30.6756 25.7139Z" fill="black"/>
<path d="M32.7728 25.7096C32.7728 26.312 33.2321 26.624 33.2321 26.624C33.2321 26.624 32.6601 26.6196 32.0318 26.6196C32.0318 26.6196 31.6721 26.624 31.6721 25.7183V25.714V22.997C31.6721 22.282 31.2561 22.1 31.2561 22.1H31.9711C32.2268 22.1 32.7641 22.1 32.7641 23.114L32.7598 25.7096H32.7728Z" fill="black"/>
<path d="M36.4605 22.438C36.4605 22.438 36.3435 22.113 35.8452 22.113C35.0912 22.113 34.9048 23.0013 34.9048 23.0013C34.8442 22.2993 34.6535 22.0913 34.1335 22.0913H33.4055C33.4055 22.0913 33.8302 22.2646 33.8302 22.9926V25.7096C33.8302 26.6153 34.1898 26.6196 34.1898 26.6196H35.3815C35.3512 26.611 34.9222 26.286 34.9222 25.701V23.4823C34.9569 23.2786 35.0565 23.127 35.2169 23.023C35.6112 22.7716 36.1528 22.8323 36.4648 23.205L36.4605 22.438Z" fill="black"/>
<path d="M42.029 22.6026C42.4406 22.6026 42.7396 22.7803 42.7396 22.7803L42.744 22.0956H41.7386V21.0599C41.7386 21.0599 41.4786 21.5236 40.937 21.9613C40.5946 22.2386 39.8796 22.5853 39.8796 22.5853L40.6423 22.5983V25.7443C40.6423 26.6153 41.0106 26.6153 41.0106 26.6153C41.665 26.6153 42.198 26.6196 42.198 26.6196C42.198 26.6196 41.7386 26.3076 41.7386 25.7356V22.5983C42.0506 22.6026 41.834 22.6026 42.029 22.6026Z" fill="black"/>
<path d="M45.6731 23.9719C44.9971 24.6696 44.4684 24.5569 44.0568 25.0769C44.0568 25.0769 44.1218 25.7702 44.6461 26.0172C44.8324 26.1039 45.5691 26.3379 46.0544 25.5016V26.2989C46.0544 26.2989 45.7424 26.6282 44.7631 26.6282C43.5931 26.6282 42.7871 25.7052 42.7871 24.4529C42.7871 23.2222 43.4458 22.0739 44.6808 22.0739C45.8984 22.0652 46.5571 23.0446 45.6731 23.9719ZM44.9321 23.6816C45.1314 23.3132 45.2874 22.3859 44.6071 22.4336C43.8271 22.4942 43.9788 24.5829 43.9788 24.5829C44.2388 24.2969 44.6288 24.2406 44.9321 23.6816Z" fill="black"/>
<path d="M32.2138 21.7273C32.5215 21.7273 32.7728 21.4889 32.7728 21.1856C32.7728 20.8823 32.5215 20.6353 32.2138 20.6353C31.9018 20.6353 31.6592 20.8823 31.6592 21.1856C31.6635 21.4889 31.9018 21.7273 32.2138 21.7273Z" fill="black"/>
<path d="M48.308 25.3933C48.321 25.714 48.035 26.1343 47.424 26.1343C46.826 26.1343 46.566 25.493 46.566 25.493L46.5616 26.3033C46.5616 26.3033 47.0036 26.624 47.697 26.624C48.5203 26.624 49.335 26.0043 49.309 25.142C49.3003 24.8343 49.192 24.5743 49.0316 24.349C48.7543 23.985 48.2473 23.712 47.8486 23.4823C47.307 23.1703 47.3806 22.4943 48.1736 22.5593C48.7716 22.607 49.023 23.1833 49.023 23.1833V22.4293C49.023 22.4293 48.5636 22.0653 47.8703 22.0653C47.151 22.0653 46.5096 22.542 46.527 23.1443C46.54 23.6816 46.761 24.0326 47.203 24.349C47.3763 24.479 47.5843 24.6046 47.8226 24.739C48.1736 24.9296 48.2993 25.168 48.308 25.3933Z" fill="black"/>
<path d="M37.8646 26.1083C37.4876 26.1083 37.2319 25.9046 37.2319 25.4756C37.2319 24.453 38.1592 24.245 38.4062 23.9416V25.844C38.3932 25.857 38.2329 26.1083 37.8646 26.1083ZM38.5102 23.0923C38.5102 23.5343 38.1332 23.7336 37.8862 23.842C37.1756 24.154 36.2612 24.5006 36.2612 25.5363C36.2612 26.234 36.7596 26.6283 37.4702 26.6283C38.0076 26.6283 38.2849 26.3466 38.4192 26.0866C38.5016 26.598 38.7529 26.6196 38.7529 26.6196C39.3812 26.6196 39.9489 26.624 39.9489 26.624C39.9489 26.624 39.4809 26.3076 39.4809 25.714V23.1746C39.4809 22.5636 38.8092 22.0913 38.0899 22.0913C37.4009 22.0913 36.9676 22.425 36.9676 22.425V23.2136C36.9676 23.2136 37.2102 22.5896 37.8342 22.5896C38.3586 22.5853 38.5102 22.8366 38.5102 23.0923Z" fill="black"/>
<path d="M13.5114 21.307C13.0651 22.1173 12.6881 23.9547 12.8701 25.2677C13.5721 25.0683 14.1744 24.3793 14.3867 23.634C14.6381 22.776 14.3607 21.762 13.5114 21.307ZM13.1517 24.5397C13.2557 23.569 13.5721 22.9493 13.8797 22.5507C14.1527 23.3827 13.6241 24.2147 13.1517 24.5397Z" fill="black"/>
<path d="M6.64294 31.2563C6.62561 31.291 6.61694 31.3256 6.61694 31.3646L6.58228 31.6896C7.44894 31.4123 8.40661 31.2693 9.39461 31.2693C10.3869 31.2693 11.3359 31.408 12.2026 31.6896L12.1809 31.369C12.1809 31.33 12.1723 31.2953 12.1549 31.2607C12.0466 31.057 11.5613 30.4113 9.39894 30.381C7.23661 30.407 6.75128 31.057 6.64294 31.2563Z" fill="black"/>
<path d="M11.0154 18.7286C11.0111 18.3516 10.4174 18.0353 9.69378 17.979L9.68078 17.6626C9.95811 17.5803 10.1531 17.3766 10.1531 17.1426C10.1531 17.017 10.0968 16.9 10.0058 16.809C9.83244 16.627 9.72844 16.4363 9.81944 16.1546C9.82378 16.1373 9.82811 16.12 9.82811 16.1026C9.82811 16.016 9.76311 15.9423 9.66344 15.8903C9.62011 15.8036 9.52478 15.7473 9.41211 15.7473C9.29944 15.7473 9.19978 15.808 9.16078 15.8903C9.06111 15.938 8.99611 16.016 8.99611 16.1026C8.99611 16.12 9.00044 16.1373 9.00478 16.1546C9.09578 16.4406 8.99178 16.627 8.81844 16.809C8.72744 16.9043 8.67111 17.017 8.67111 17.1426C8.67111 17.381 8.86611 17.5803 9.13911 17.6626L9.12611 17.979C8.39811 18.0396 7.80878 18.3516 7.80444 18.7286C8.20311 18.5943 8.83144 18.5076 9.41211 18.5076C9.96678 18.5076 10.6168 18.5943 11.0154 18.7286Z" fill="black"/>
<path d="M6.66907 28.5697C6.87273 28.9597 7.1674 29.3367 7.60073 29.653C7.70907 29.5967 7.86073 29.5404 8.0124 29.4927C7.61373 28.7647 7.47507 27.8894 7.4664 27.0834C7.46207 26.767 7.08073 26.7757 6.85974 26.832C6.5954 26.897 6.3224 27.04 6.3484 27.586C6.3614 27.8027 6.52173 28.288 6.66907 28.5697Z" fill="black"/>
<path d="M9.2126 26.7626C9.1996 26.4636 8.89193 26.3423 8.51926 26.3987C8.0556 26.468 7.86493 26.6586 7.84326 27.0833C7.8476 27.9976 8.06426 28.834 8.39793 29.4016C8.64926 29.354 8.92226 29.3236 9.2126 29.315C9.2126 29.315 9.21693 26.8276 9.2126 26.7626Z" fill="black"/>
<path d="M7.13264 30.0776C7.15864 30.0083 7.20198 29.9433 7.26698 29.8826C6.62998 29.3756 6.17064 28.6476 6.00164 27.8156C5.98864 27.7333 5.93231 27.5816 5.78498 27.638C5.51631 27.742 5.35598 28.0583 5.35598 28.3876C5.35164 29.081 6.06664 29.705 7.13264 30.0776Z" fill="black"/>
<path d="M12.1377 28.5697C12.285 28.288 12.4454 27.8027 12.454 27.586C12.48 27.0444 12.2114 26.897 11.9427 26.832C11.7217 26.7757 11.3404 26.767 11.336 27.0834C11.3274 27.8894 11.1887 28.7647 10.79 29.4927C10.946 29.5404 11.0934 29.5967 11.2017 29.653C11.6394 29.3367 11.9297 28.9597 12.1377 28.5697Z" fill="black"/>
<path d="M10.2829 26.3987C9.91457 26.3423 9.60691 26.4636 9.58957 26.7626C9.58524 26.8276 9.58957 29.315 9.58957 29.315C9.87991 29.3236 10.1529 29.354 10.4042 29.4016C10.7379 28.834 10.9546 27.9976 10.9589 27.0833C10.9372 26.6543 10.7509 26.468 10.2829 26.3987Z" fill="black"/>
<path d="M13.0216 27.638C12.8742 27.5816 12.8179 27.7333 12.8049 27.8156C12.6359 28.6476 12.1766 29.3756 11.5396 29.8826C11.6002 29.9433 11.6479 30.0126 11.6739 30.0776C12.7399 29.705 13.4549 29.081 13.4549 28.392C13.4506 28.0583 13.2902 27.742 13.0216 27.638Z" fill="black"/>
<path d="M9.39039 25.7963C11.2667 25.7963 12.4627 26.39 12.9827 26.767C11.9557 25.1723 12.5841 21.7533 13.4117 20.6873C13.0737 19.773 11.4011 19.0147 9.43372 19.0017C8.36772 18.993 7.28872 19.253 6.51739 19.6517C6.58239 19.812 6.71239 20.176 6.83806 20.5703C7.60939 20.2627 8.56272 20.0893 9.42506 20.0893C10.3827 20.0893 11.8907 20.3667 12.5321 21.086C12.1811 22.0913 11.8127 23.2613 11.9904 25.285C11.6437 23.66 11.6567 22.6503 11.9254 21.2637C11.3014 20.8347 10.2441 20.631 9.42506 20.631C8.60606 20.631 7.67006 20.8087 6.98972 21.0947C7.40572 22.4943 7.47939 25.181 6.40039 26.4117C7.18472 26.0607 8.35039 25.7963 9.39039 25.7963Z" fill="black"/>
<path d="M6.02775 32.526C6.02341 32.76 5.99308 33.9256 5.59008 34.463C5.58575 34.4673 5.59008 34.476 5.59875 34.4716C6.29641 34.0123 8.11208 33.8303 9.39475 33.8303C11.0024 33.8303 12.5884 34.0643 13.2081 34.4803C13.2124 34.4846 13.2211 34.476 13.2167 34.4716C12.8007 33.8996 12.7704 32.7556 12.7704 32.526C12.7704 32.5 12.7574 32.4783 12.7357 32.4653C12.1681 32.1446 10.9937 31.8066 9.39475 31.8066C7.77841 31.8066 6.63441 32.1446 6.06675 32.4653C6.04075 32.4783 6.02775 32.5 6.02775 32.526Z" fill="black"/>
<path d="M13.7757 35.594C13.7453 35.438 13.6543 35.2993 13.52 35.2127C12.9437 34.8357 11.765 34.4023 9.399 34.3677C7.02433 34.4023 5.85 34.8357 5.27367 35.217C5.13933 35.3037 5.05267 35.4423 5.02233 35.5983C4.97467 35.841 4.90533 36.1963 4.89233 36.257C4.89233 36.2613 4.89667 36.2613 4.89667 36.2613C5.24333 35.9883 6.29633 35.4727 9.399 35.4293C12.4843 35.4727 13.546 35.984 13.897 36.257C13.9013 36.2613 13.9057 36.257 13.9013 36.2527L13.7757 35.594Z" fill="black"/>
<path d="M5.7503 24.674C5.7503 24.674 5.7633 24.388 5.7373 24.063C4.54563 23.829 3.97796 22.1996 4.3203 20.995C4.23796 20.8173 4.0733 20.4663 3.9953 20.293C3.4493 21.1076 3.43196 22.7803 4.36363 23.894C4.44163 23.9806 4.92696 24.5656 5.7503 24.674Z" fill="black"/>
<mask id="mask0_515_1088" style="mask-type:luminance" maskUnits="userSpaceOnUse" x="4" y="19" width="10" height="18">
<path d="M6.64306 31.2563C6.62573 31.2909 6.61706 31.3256 6.61706 31.3646L6.58239 31.6896C7.18039 31.4989 7.8174 31.3733 8.48473 31.3126C8.50206 31.0266 8.50639 30.7319 8.48906 30.4373C7.09373 30.6019 6.73406 31.0873 6.64306 31.2563ZM9.3904 25.7963C11.2667 25.7963 12.4627 26.3899 12.9827 26.7669C11.9557 25.1723 12.5841 21.7533 13.4117 20.6873C13.1214 19.9073 11.8604 19.2399 10.2744 19.0536C9.7804 19.2096 9.27773 19.5173 8.98739 20.1023C9.13473 20.0936 9.27773 20.0893 9.42073 20.0893C10.3784 20.0893 11.8864 20.3666 12.5277 21.0859C12.1767 22.0913 11.8084 23.2613 11.9861 25.2849C11.6394 23.6599 11.6524 22.6503 11.9211 21.2636C11.2971 20.8346 10.2397 20.6309 9.42073 20.6309C9.21706 20.6309 9.00906 20.6439 8.79673 20.6613C8.5584 21.6319 8.86173 22.8929 9.31673 25.8006C9.34706 25.7963 9.36873 25.7963 9.3904 25.7963ZM8.45873 33.8606C8.78373 33.8389 9.10006 33.8303 9.3904 33.8303C10.9981 33.8303 12.5841 34.0643 13.2037 34.4803C13.2081 34.4846 13.2167 34.4759 13.2124 34.4716C12.7964 33.8996 12.7661 32.7556 12.7661 32.5259C12.7661 32.4999 12.7531 32.4783 12.7314 32.4653C12.1637 32.1446 10.9894 31.8066 9.3904 31.8066C9.28206 31.8066 9.17373 31.8066 9.06973 31.8109C8.91806 32.5216 8.7144 33.2106 8.45873 33.8606ZM10.2831 26.3986C9.91473 26.3423 9.60706 26.4636 9.58973 26.7626C9.5854 26.8276 9.58973 29.3149 9.58973 29.3149C9.88006 29.3236 10.1531 29.3539 10.4044 29.4016C10.7381 28.8339 10.9547 27.9976 10.9591 27.0833C10.9374 26.6543 10.7511 26.4679 10.2831 26.3986ZM9.32106 30.3766C9.28206 30.6756 9.2344 30.9746 9.18239 31.2693C9.25606 31.2693 9.3254 31.2649 9.39906 31.2649C10.3914 31.2649 11.3404 31.4036 12.2071 31.6853L12.1854 31.3646C12.1854 31.3256 12.1767 31.2909 12.1594 31.2563C12.0511 31.0526 11.5657 30.4069 9.4034 30.3766C9.37306 30.3766 9.34706 30.3766 9.32106 30.3766ZM12.1377 28.5696C12.2851 28.2879 12.4454 27.8026 12.4541 27.5859C12.4801 27.0443 12.2114 26.8969 11.9427 26.8319C11.7217 26.7756 11.3404 26.7669 11.3361 27.0833C11.3274 27.8893 11.1887 28.7646 10.7901 29.4926C10.9461 29.5403 11.0934 29.5966 11.2017 29.6529C11.6394 29.3366 11.9297 28.9596 12.1377 28.5696ZM13.0217 27.6379C12.8744 27.5816 12.8181 27.7333 12.8051 27.8156C12.6361 28.6476 12.1767 29.3756 11.5397 29.8826C11.6004 29.9433 11.6481 30.0126 11.6741 30.0776C12.7401 29.7049 13.4551 29.0809 13.4551 28.3919C13.4507 28.0583 13.2904 27.7419 13.0217 27.6379ZM5.27806 35.2169C5.14373 35.3036 5.05706 35.4423 5.02673 35.5983C4.97906 35.8409 4.90973 36.1963 4.89673 36.2569C4.89673 36.2613 4.90106 36.2613 4.90106 36.2613C5.14806 36.0663 5.76773 35.7413 7.24539 35.5593C7.4014 35.2516 7.57473 34.8876 7.7394 34.4716C6.4394 34.6319 5.6984 34.9396 5.27806 35.2169ZM7.13273 30.0776C7.15873 30.0083 7.20206 29.9433 7.26706 29.8826C6.63006 29.3756 6.17073 28.6476 6.00173 27.8156C5.98873 27.7333 5.9324 27.5816 5.78506 27.6379C5.5164 27.7419 5.35606 28.0583 5.35606 28.3876C5.35173 29.0809 6.06673 29.7049 7.13273 30.0776ZM13.7757 35.5939C13.7454 35.4379 13.6544 35.2993 13.5201 35.2126C12.9437 34.8356 11.7651 34.4023 9.39906 34.3676C8.97006 34.3719 8.57573 34.3936 8.2204 34.4239C8.04706 34.8053 7.8564 35.1736 7.64406 35.5159C8.13806 35.4683 8.71873 35.4379 9.39473 35.4293C12.4801 35.4726 13.5417 35.9839 13.8927 36.2569C13.8971 36.2613 13.9014 36.2569 13.8971 36.2526L13.7757 35.5939ZM6.02773 32.5259C6.0234 32.7599 5.99306 33.9256 5.59006 34.4629C5.58573 34.4673 5.59006 34.4759 5.59873 34.4716C6.05806 34.1683 6.9984 33.9863 7.95173 33.8996C8.16406 33.2799 8.34173 32.5866 8.43273 31.8499C7.31906 31.9496 6.51306 32.2139 6.06239 32.4653C6.04073 32.4783 6.02773 32.4999 6.02773 32.5259ZM6.66906 28.5696C6.87273 28.9596 7.16739 29.3366 7.60073 29.6529C7.70906 29.5966 7.86073 29.5403 8.01239 29.4926C7.61373 28.7646 7.47506 27.8893 7.4664 27.0833C7.46206 26.7669 7.08073 26.7756 6.85973 26.8319C6.5954 26.8969 6.3224 27.0399 6.3484 27.5859C6.3614 27.8026 6.52173 28.2879 6.66906 28.5696ZM7.23673 24.0283C7.15006 24.9513 6.89873 25.8353 6.4004 26.4073C6.78606 26.2339 7.26706 26.0866 7.7784 25.9783C7.77406 25.3283 7.62673 24.6349 7.23673 24.0283Z" fill="white"/>
</mask>
<g mask="url(#mask0_515_1088)">
<path d="M22.061 15.0756H-0.654297V36.4952H22.061V15.0756Z" fill="black"/>
</g>
<path d="M4.02564 29.0506C4.02564 29.0463 4.02131 29.0419 4.01698 29.0463C3.50998 29.9259 3.62698 31.4253 4.23798 32.6819C4.46764 32.3829 4.67564 32.1143 4.67564 32.1143C4.67564 32.1143 5.28664 32.0796 5.43831 32.0753C4.32031 31.0959 3.90864 29.7266 4.02564 29.0506ZM3.89998 28.1536C3.90431 28.1449 3.89564 28.1363 3.88698 28.1449C1.23931 30.7493 2.71264 34.0729 3.31931 35.2733L3.87398 34.5409C3.87398 34.5409 4.28131 34.5193 4.81864 34.5106C3.63131 33.3103 2.29231 30.3116 3.89998 28.1536ZM4.27264 19.9983C4.42864 20.2843 4.89231 21.3936 5.06564 21.7879C5.45998 22.6893 5.67231 23.3739 5.73731 24.0629C5.76331 24.3879 5.75031 24.6739 5.75031 24.6739C5.62464 26.2643 5.01798 26.9966 4.48064 27.5989C4.47631 27.6033 4.48498 27.6119 4.48931 27.6076C5.73298 26.6153 6.23131 26.1039 6.54331 24.8993C7.08931 22.7889 6.36131 20.7306 6.03631 19.9029C5.28664 19.4869 4.59764 19.7469 4.27264 19.9983ZM4.64531 26.6933C4.91398 26.1733 5.16531 25.4713 5.22598 24.5309C4.71898 24.3143 4.41998 23.9589 4.36364 23.8896C4.53698 24.4053 4.79698 25.8353 4.63664 26.6889C4.63664 26.6976 4.64098 26.6976 4.64531 26.6933ZM15.2143 29.9086C15.21 29.8999 15.197 29.8999 15.197 29.9129C15.444 31.8109 14.4343 33.1759 13.962 33.6829C13.9706 33.6786 14.7203 33.7263 14.7203 33.7263C14.7203 33.7263 14.9716 34.1509 15.1146 34.3719C15.6476 33.1629 15.9986 32.1273 15.2143 29.9086ZM13.1516 24.5396C13.2556 23.5689 13.572 22.9493 13.8796 22.5506C14.0963 22.2733 14.2956 22.1476 14.2956 22.1476C14.1396 21.8009 13.8796 21.5019 13.5156 21.3026C13.0693 22.1129 12.6923 23.9503 12.8743 25.2633C12.9696 25.2373 13.065 25.1983 13.1603 25.1549C13.156 25.1593 13.1213 24.8473 13.1516 24.5396ZM13.6196 27.3909C13.6153 27.3866 13.6066 27.3909 13.611 27.3996C14.5513 29.1199 13.936 30.7796 12.9826 31.7156C13.1343 31.7156 13.7843 31.7286 13.7843 31.7286C13.7843 31.7286 13.9533 31.9756 14.2176 32.3396C15.236 30.0733 14.495 28.5349 13.6196 27.3909Z" fill="black"/>
</svg>
