<svg width="148" height="148" viewBox="0 0 148 148" fill="none" xmlns="http://www.w3.org/2000/svg">
<g clip-path="url(#clip0_510_1173)">
<path d="M77.9866 102.318V100.702H72.5637V108.2H74.4959V105.828L74.2812 105.207H77.0404V103.679H74.4959V102.318H77.9866Z" fill="#AE9770"/>
<path d="M80.3482 107.834C79.7121 107.523 79.2191 107.078 78.8693 106.505C78.5194 105.924 78.3445 105.247 78.3445 104.467C78.3445 103.687 78.5194 103.01 78.8613 102.429C79.2112 101.848 79.7042 101.402 80.3403 101.092C80.9764 100.781 81.7159 100.622 82.5587 100.622C83.1153 100.622 83.6083 100.678 84.0456 100.781C84.483 100.885 84.8805 101.052 85.2542 101.275V103.05C84.9282 102.803 84.5625 102.628 84.149 102.517C83.7355 102.405 83.2664 102.35 82.7337 102.35C81.9703 102.35 81.3899 102.541 80.9764 102.915C80.5629 103.289 80.3562 103.814 80.3562 104.483C80.3562 105.151 80.5629 105.677 80.9843 106.051C81.3978 106.433 81.9862 106.616 82.7416 106.616C83.2743 106.616 83.7514 106.552 84.1729 106.433C84.5943 106.314 84.9839 106.123 85.3497 105.86V107.619C84.6499 108.073 83.7196 108.304 82.5746 108.304C81.7318 108.304 80.9923 108.152 80.3562 107.842" fill="#AE9770"/>
<path d="M66.815 105.199L67.7851 102.676L68.7472 105.199H66.823H66.815ZM71.9119 108.2L68.7631 100.702H66.1471L66.4095 101.625L63.6504 108.208H65.7019L66.0756 107.285L65.8609 106.672H69.2402L69.8684 108.208H71.9119V108.2Z" fill="#AE9770"/>
<path d="M49.9818 120.944H47.1113V116.733H43.8036V120.944H40.9331V110.62H43.8036V114.449H47.1113V110.62H49.9818V120.944Z" fill="#AE9770"/>
<path d="M32.7591 120.45C31.8765 120.021 31.1927 119.408 30.7156 118.612C30.2385 117.808 30 116.868 30 115.794C30 114.719 30.2385 113.78 30.7156 112.976C31.1927 112.172 31.8765 111.559 32.7591 111.129C33.6417 110.699 34.6595 110.477 35.8284 110.477C36.5917 110.477 37.2755 110.548 37.8798 110.692C38.4841 110.835 39.0407 111.066 39.5496 111.376V113.82C39.1044 113.478 38.5955 113.231 38.0309 113.08C37.4664 112.928 36.8143 112.849 36.0828 112.849C35.0332 112.849 34.2222 113.111 33.6497 113.629C33.0772 114.146 32.7909 114.871 32.7909 115.794C32.7909 116.717 33.0772 117.442 33.6576 117.967C34.2301 118.492 35.0412 118.755 36.0828 118.755C36.8143 118.755 37.4743 118.675 38.0548 118.508C38.6352 118.341 39.1759 118.078 39.6769 117.72V120.156C38.7068 120.785 37.4266 121.103 35.8363 121.103C34.6754 121.103 33.6497 120.888 32.7671 120.466" fill="#AE9770"/>
<path d="M55.1345 116.821L56.4703 113.35L57.7902 116.821H55.1345ZM62.1476 120.944L57.8141 110.628H54.2201L54.5779 111.893L50.7771 120.944H53.5998L54.1167 119.678L53.8225 118.835H58.4661L59.3328 120.952H62.1396L62.1476 120.944Z" fill="#AE9770"/>
<path d="M79.8473 115.213C79.561 115.412 79.1476 115.515 78.6228 115.515H77.12V112.825H78.6228C79.1635 112.825 79.569 112.92 79.8552 113.111C80.1415 113.302 80.2767 113.653 80.2767 114.17C80.2767 114.687 80.1335 115.014 79.8473 115.213ZM82.7337 116.136C83.0835 115.603 83.2425 114.942 83.2425 114.17C83.2425 113.024 82.8927 112.148 82.2089 111.535C81.5171 110.922 80.5629 110.62 79.3384 110.62H74.655V120.944H77.3744V118.572L77.0802 117.72H79.41C80.0063 117.72 80.7458 117.617 81.3104 117.346C82.0419 117.004 82.5349 116.447 82.7416 116.136" fill="#AE9770"/>
<path d="M87.4171 110.628H83.9741L84.324 111.893L84.3319 119.678L83.9821 120.944H87.4091L87.0593 119.678L87.0672 111.893L87.4171 110.628Z" fill="#AE9770"/>
<path d="M88.1406 115.73C88.1406 112.841 90.6453 110.493 93.81 110.493C96.9746 110.493 99.4873 112.841 99.4873 115.73C99.4873 118.62 96.9985 120.968 93.81 120.968C90.6215 120.968 88.1406 118.636 88.1406 115.73ZM96.8315 115.73C96.8315 114.162 95.5275 112.881 93.81 112.881C92.0925 112.881 90.8202 114.162 90.8202 115.73C90.8202 117.298 92.0686 118.564 93.81 118.564C95.5513 118.564 96.8315 117.282 96.8315 115.73Z" fill="#AE9770"/>
<path d="M62.1476 110.628H64.7L67.7295 114.488L70.8464 110.628H73.2875V120.952H70.6715V114.409L67.7056 118.07L64.7716 114.425V120.96H62.1396V110.636L62.1476 110.628Z" fill="#AE9770"/>
<path d="M109.697 120.872L109.689 110.628H106.961V116.725L103.002 110.628H100.306L100.314 120.872H103.041L103.033 114.759L107.017 120.872H109.697Z" fill="#AE9770"/>
<path d="M111.367 118.763L110.373 120.872H114.881C116.265 120.872 117.298 120.61 117.998 120.1C118.738 119.551 119.151 118.62 118.96 117.72C118.523 115.611 115.947 115.229 114.237 114.218C113.951 114.051 113.808 113.828 113.808 113.557C113.808 113.286 113.927 113.072 114.205 112.928C114.484 112.785 114.889 112.705 115.358 112.705H117.823L118.587 110.62H114.865C114.094 110.62 113.418 110.707 112.822 110.946C112.233 111.193 111.772 111.535 111.438 111.973C111.104 112.419 110.945 112.92 110.945 113.485C110.945 114.17 111.16 114.751 111.597 115.221C112.058 115.722 112.766 116.017 113.378 116.287C114.182 116.638 115.12 116.916 115.835 117.426C116.002 117.545 116.153 117.736 116.153 117.935C116.153 118.166 116.09 118.325 115.939 118.445C115.438 118.827 114.762 118.755 114.158 118.755H111.367V118.763Z" fill="#AE9770"/>
<path d="M49.3378 132.112V123.921H46.5627V134.46H46.6741H49.3378H54.1961V132.112H49.3378Z" fill="#AE9770"/>
<path d="M55.1343 134.46H62.7438V132.207H57.8457V130.233H61.4238V128.14H57.8457V126.158H62.7438V123.921H55.1343V134.46Z" fill="#AE9770"/>
<path d="M67.1808 130.249L68.5405 126.707L69.8843 130.249H67.1808ZM74.3371 134.46L69.9161 123.929H66.2425L66.6083 125.226L62.728 134.468H65.6064L66.1312 133.171L65.8291 132.303H70.5761L71.4666 134.46H74.3291H74.3371Z" fill="#AE9770"/>
<path d="M88.9359 134.619C90.2479 134.619 91.7427 134.245 92.5538 133.401C93.3648 132.566 93.7624 131.435 93.7624 130.026V123.921H91.0668V130.058C91.0668 130.759 90.876 131.292 90.5023 131.65C90.1286 132.008 89.6038 132.191 88.9359 132.191C88.268 132.191 87.7432 132.008 87.3694 131.65C86.9957 131.292 86.8049 130.759 86.8049 130.058V123.921H84.1094V130.026C84.1094 131.427 84.5069 132.558 85.318 133.401C86.137 134.245 87.6239 134.619 88.9359 134.619Z" fill="#AE9770"/>
<path d="M94.8276 134.46H102.429V132.215H97.5391V130.233H101.109V128.14H97.5391V126.158H102.429V123.929H94.8276V134.46Z" fill="#AE9770"/>
<path d="M83.4017 129.477H80.722V131.658L81.3422 132.024C81.3422 132.024 81.0958 132.12 80.6982 132.184C80.3881 132.223 80.0541 132.239 79.7043 132.239C78.6547 132.239 77.8357 131.977 77.2552 131.443C76.6748 130.91 76.3806 130.178 76.3806 129.238C76.3806 128.299 76.6668 127.567 77.2473 127.041C77.8198 126.516 78.6388 126.245 79.7043 126.245C80.4437 126.245 81.1037 126.325 81.6762 126.484C82.2487 126.643 82.7576 126.89 83.2108 127.24V124.749C82.694 124.43 82.1294 124.2 81.5251 124.056C80.9208 123.905 80.2291 123.833 79.4578 123.833C78.281 123.833 77.2473 124.056 76.3567 124.494C75.4662 124.932 74.7744 125.561 74.2973 126.373C73.8123 127.185 73.5737 128.14 73.5737 129.238C73.5737 130.337 73.8202 131.292 74.3053 132.104C74.7903 132.916 75.4741 133.545 76.3726 133.975C77.2632 134.412 78.2969 134.627 79.4737 134.627C81.0799 134.627 82.4316 134.293 83.4096 133.648V133.624V129.477H83.4017Z" fill="#AE9770"/>
<path d="M75.331 137.485H71.8005L72.1663 138.774V146.703L71.8085 148H75.323L74.9652 146.703L74.9731 138.774L75.331 137.485Z" fill="#AE9770"/>
<path d="M66.2583 145.66V137.525H63.5071V148H63.6104H66.2583H71.0927V145.66H66.2583Z" fill="#AE9770"/>
<path d="M54.9834 148H62.5452V145.763H57.6789V143.797H61.2332V141.712H57.6789V139.746H62.5452V137.517H54.9834V148Z" fill="#AE9770"/>
<path d="M85.4611 137.485H76.1182V139.921H79.3703V148H82.2646V139.921H85.4611V137.485Z" fill="#AE9770"/>
<path d="M86.4231 148H94.0167V145.755H89.1266V143.781H92.6968V141.688H89.1266V139.714H94.0167V137.485H86.4231V148Z" fill="#AE9770"/>
<path d="M97.2529 139.22H96.9507V137.485H97.2211L97.7856 138.257L98.3184 137.525H98.6205V139.228H98.2866V138.058L97.8174 138.695H97.7538L97.2529 138.058V139.228V139.22ZM96.1158 137.819V139.22H95.7819V137.819H95.3127V137.485H96.6168V137.819H96.1158Z" fill="#AE9770"/>
<path d="M85.2384 66.8639C85.4213 60.0183 83.2426 53.4752 81.2229 45.6346C78.8216 36.3134 76.3567 28.8549 75.156 26.1565C74.7982 25.456 74.5676 25.0739 74.504 25.0739C74.4404 25.0739 74.2018 25.4481 73.852 26.1565C72.6593 28.8549 70.1864 36.3055 67.7851 45.6346C65.7654 53.4752 63.5867 60.0262 63.7696 66.8639C63.9366 67.7713 64.1751 68.7902 64.5011 69.8091C65.6223 73.3035 67.0138 75.8984 68.9142 76.6944C70.2102 77.2357 73.8997 77.5302 74.5119 77.5302C75.1242 77.5302 78.8136 77.2357 80.1018 76.6944C82.0022 75.8984 83.4016 73.3035 84.5148 69.8091C84.8408 68.7902 85.0793 67.7713 85.2463 66.8639H85.2384ZM75.1321 77.4586C75.1162 77.4586 75.0924 77.4586 75.0765 77.4586C74.8857 77.4745 74.6948 77.4745 74.504 77.4745C74.3132 77.4745 74.1223 77.4745 73.9315 77.4586C73.9156 77.4586 73.8917 77.4586 73.8758 77.4586C68.7869 77.1482 65.7416 73.0726 65.7416 67.1982C65.7416 61.3237 67.1808 58.673 68.8028 53.6901C71.236 46.2236 74.2495 40.6755 74.496 40.6755C74.7425 40.6755 77.7561 46.2236 80.1892 53.6901C81.8113 58.6651 83.2505 62.8202 83.2505 67.1982C83.2505 71.5762 80.2131 77.1561 75.1242 77.4586H75.1321ZM66.0994 68.1932C66.0994 63.9187 67.8169 59.5645 69.3515 54.693C71.6971 47.2664 74.1223 41.4635 74.496 41.4635C74.8698 41.4635 77.2949 47.2664 79.6406 54.693C81.1752 59.5645 82.8927 63.9187 82.8927 68.1932C82.8927 72.9294 79.7917 77.4825 74.496 77.4825C69.1925 77.4825 66.0994 72.9294 66.0994 68.1932ZM70.5919 69.5623C70.5919 62.454 74.2813 57.3358 74.496 57.3358C74.7107 57.3358 78.4002 62.462 78.4002 69.5623C78.4002 72.9612 77.4699 77.4825 74.496 77.4825C71.5222 77.4825 70.5919 72.9612 70.5919 69.5623ZM74.496 8.39777C74.8061 8.39777 81.1116 18.9766 84.157 34.1006C86.113 43.8277 85.7155 42.1163 85.6837 60.074C85.3497 54.2314 83.5368 48.6116 81.708 41.8934C78.6626 30.7176 74.8061 22.4233 74.496 22.4233C74.1859 22.4233 70.3295 30.7176 67.2841 41.8934C65.4553 48.6116 63.6424 54.2314 63.3084 60.074C63.2766 42.1163 62.879 43.8277 64.8351 34.1006C67.8805 18.9766 74.1859 8.39777 74.496 8.39777Z" fill="url(#paint0_linear_510_1173)"/>
<path d="M91.0429 29.6111C91.8142 27.3823 92.6809 25.1774 93.6271 23.076C97.1416 15.307 101.706 13.524 103.876 12.9429C103.837 12.322 103.797 11.7012 103.749 11.0962C103.638 10.539 103.256 9.99772 102.628 9.48828C100.911 10.0614 96.5611 12.1469 93.9372 18.9925C92.7842 22.0014 92.649 24.3735 91.0349 29.6111H91.0429Z" fill="url(#paint1_linear_510_1173)"/>
<path d="M89.2061 35.5414C89.7388 33.6071 90.3511 31.6171 91.0269 29.651V29.635C92.649 24.3894 92.7921 22.0094 93.9451 19.0005C96.5611 12.1549 100.911 10.0694 102.636 9.49629C101.547 8.60477 99.7258 7.78489 97.3085 7.08441C96.5054 7.57793 93.2772 9.83857 91.4722 15.3389C89.1424 22.4472 90.9156 28.0192 89.2061 35.5493V35.5414Z" fill="url(#paint2_linear_510_1173)"/>
<path d="M87.5602 42.554C87.9816 40.381 88.5303 38.0089 89.1982 35.5572C90.9077 28.0112 89.1425 22.4471 91.4643 15.3309C93.2613 9.83055 96.4896 7.56992 97.3007 7.0764C94.9311 6.38388 91.9971 5.81076 88.6336 5.38092C88.411 5.7232 87.2978 7.4744 86.8366 9.80667C85.8268 14.9807 86.932 19.2552 87.9737 26.8251C88.4507 30.3116 88.2679 35.9871 87.5602 42.5461V42.554Z" fill="url(#paint3_linear_510_1173)"/>
<path d="M57.9571 29.6111C57.1858 27.3823 56.3191 25.1774 55.3729 23.076C51.8584 15.307 47.2943 13.524 45.1235 12.9429C45.1633 12.322 45.203 11.7012 45.2508 11.0962C45.3621 10.539 45.7437 9.99772 46.3719 9.48828C48.0894 10.0614 52.4388 12.1469 55.0628 18.9925C56.2157 22.0014 56.3509 24.3735 57.965 29.6111H57.9571Z" fill="url(#paint4_linear_510_1173)"/>
<path d="M59.7939 35.5414C59.2612 33.6071 58.6489 31.6171 57.9731 29.651V29.635C56.351 24.3894 56.2078 22.0094 55.0549 19.0005C52.4389 12.1549 48.0895 10.0694 46.364 9.49629C47.4534 8.60477 49.2742 7.78489 51.6914 7.08441C52.4945 7.57793 55.7228 9.83857 57.5278 15.3389C59.8575 22.4472 58.0844 28.0192 59.7939 35.5493V35.5414Z" fill="url(#paint5_linear_510_1173)"/>
<path d="M61.4399 42.554C61.0185 40.381 60.4699 38.0089 59.8019 35.5572C58.0924 28.0112 59.8576 22.4471 57.5358 15.3309C55.7388 9.83055 52.5105 7.56992 51.6995 7.0764C54.069 6.38388 57.003 5.81076 60.3665 5.38092C60.5891 5.7232 61.7023 7.4744 62.1635 9.80667C63.1733 14.9807 62.0681 19.2552 61.0265 26.8251C60.5494 30.3116 60.7323 35.9871 61.4399 42.5461V42.554Z" fill="url(#paint6_linear_510_1173)"/>
<path d="M87.9737 26.8331C88.1566 28.1465 88.2361 29.7704 88.2361 31.633C88.2361 34.7215 87.9976 38.4706 87.5523 42.57C87.1627 44.5998 86.8844 46.4625 86.7413 48.0385C86.5345 50.2594 86.3278 52.9658 86.1529 55.505C85.9779 58.0442 85.8269 60.4163 85.7314 61.9924C85.7314 61.3476 85.7155 60.7188 85.6758 60.082C85.7076 42.1243 86.1052 43.8357 84.1491 34.1086C81.1037 18.9846 74.7983 8.40577 74.4882 8.40577C74.1781 8.40577 67.8726 18.9846 64.8272 34.1086C63.4755 40.8507 63.2449 42.0924 63.2449 48.1977C63.2449 54.303 63.2846 54.5578 63.3006 60.074C63.2608 60.7108 63.2449 61.3476 63.2449 61.9924C63.0541 58.8562 62.6565 52.4882 62.2351 48.0385C62.084 46.4625 61.8136 44.6078 61.424 42.57C60.7084 36.003 60.5335 30.3196 61.0106 26.8331C62.0442 19.2632 63.1574 14.9887 62.1476 9.81469C61.6944 7.48241 60.5812 5.73121 60.3506 5.38893C64.5012 4.86358 69.3039 4.5611 74.4882 4.5611C79.6725 4.5611 84.4751 4.86358 88.6258 5.38893C88.4031 5.73121 87.2899 7.48241 86.8287 9.81469C85.8189 14.9887 86.9242 19.2632 87.9658 26.8331H87.9737Z" fill="url(#paint7_linear_510_1173)"/>
<path opacity="0.6" d="M87.5603 42.562C87.1706 44.5918 86.8923 46.4545 86.7492 48.0305C86.5425 50.2514 86.3357 52.9578 86.1608 55.497C85.9859 58.0362 85.8348 60.4083 85.7394 61.9844C85.7235 62.1277 85.7076 62.263 85.6917 62.3904C85.6917 62.5495 85.6917 62.6928 85.6917 62.8361C85.6519 63.5047 85.6281 63.8868 85.6281 63.8868C85.6281 63.8868 85.4531 66.8798 84.5069 69.8091C83.3858 73.3035 81.9943 75.8984 80.0939 76.6944C78.7978 77.2357 75.1084 77.5302 74.5041 77.5302C73.8998 77.5302 70.2024 77.2357 68.9063 76.6944C67.0059 75.8984 65.6144 73.3035 64.4932 69.8091C63.555 66.8718 63.3721 63.8868 63.3721 63.8868C63.3721 63.8868 63.3721 63.7913 63.3562 63.6082C63.3482 63.4251 63.3323 63.1625 63.3085 62.8361C63.3085 62.669 63.3085 62.4938 63.3085 62.3187C63.2926 62.2152 63.2767 62.1038 63.2608 61.9844C63.0699 58.8482 62.6724 52.4802 62.251 48.0305C62.0999 46.4545 61.8295 44.5998 61.4399 42.562C61.4399 42.562 61.4399 42.5541 61.4399 42.5461C61.0185 40.373 60.4698 38.001 59.8019 35.5493C59.8019 35.5413 59.8019 35.5334 59.8019 35.5254C59.2692 33.5911 58.6569 31.6091 57.9811 29.643V29.6271C57.9731 29.6271 57.9731 29.6111 57.9651 29.6032C57.1939 27.3744 56.3272 25.1695 55.3809 23.076C51.8664 15.307 47.3023 13.524 45.1316 12.9429C45.1713 12.322 45.2111 11.7012 45.2588 11.0962C45.3701 10.539 45.7518 9.99773 46.38 9.48829C47.4693 8.59677 49.2902 7.77689 51.7074 7.07642C54.0769 6.3839 57.011 5.81078 60.3744 5.38094C64.5251 4.85558 69.3277 4.5531 74.512 4.5531C79.6963 4.5531 84.499 4.85558 88.6496 5.38094C92.013 5.81078 94.9471 6.3839 97.3166 7.07642C99.7338 7.77689 101.555 8.59677 102.644 9.48829C103.272 10.0057 103.654 10.539 103.765 11.0962C103.805 11.7012 103.845 12.3141 103.892 12.9429C101.73 13.532 97.1576 15.315 93.6431 23.076C92.6969 25.1695 91.8302 27.3744 91.0589 29.6032C91.0589 29.6032 91.0589 29.6191 91.0589 29.6271V29.643C90.375 31.6091 89.7628 33.5911 89.23 35.5254V35.5413C88.5542 37.993 88.0055 40.373 87.5921 42.5461L87.5603 42.562Z" fill="url(#paint8_radial_510_1173)"/>
<path opacity="0.2" d="M70.5918 69.5623C70.5918 62.454 74.2812 57.3358 74.4959 57.3358C74.7106 57.3358 78.4001 62.462 78.4001 69.5623C78.4001 72.9612 77.4698 77.4825 74.4959 77.4825C71.5221 77.4825 70.5918 72.9612 70.5918 69.5623Z" fill="url(#paint9_radial_510_1173)"/>
<path d="M70.5918 69.5623C70.5918 62.454 74.2812 57.3358 74.4959 57.3358C74.7106 57.3358 78.4001 62.462 78.4001 69.5623C78.4001 72.9612 77.4698 77.4825 74.4959 77.4825C71.5221 77.4825 70.5918 72.9612 70.5918 69.5623Z" fill="url(#paint10_linear_510_1173)"/>
<path opacity="0.2" d="M79.6487 54.6931C77.303 47.2664 74.8778 41.4636 74.5041 41.4636C74.1304 41.4636 71.6973 47.2664 69.3595 54.6931C67.8249 59.5646 66.1074 63.9187 66.1074 68.1932C66.1074 72.4677 69.2085 77.4825 74.5041 77.4825C79.7997 77.4825 82.9008 72.9294 82.9008 68.1932C82.9008 63.457 81.1833 59.5646 79.6487 54.6931ZM79.0682 73.5821C78.3367 75.6676 76.977 77.4745 74.5041 77.4745C72.0312 77.4745 70.6874 75.6995 69.9559 73.6378C69.0733 72.2926 68.7075 70.0877 68.7552 67.5803C68.8586 61.8411 74.2497 57.0651 74.4961 56.898C74.512 56.9059 74.5439 56.9378 74.5916 56.9776C75.3867 57.6542 80.1337 62.1914 80.2291 67.5723C80.2689 70.0399 79.919 72.2289 79.0602 73.5741L79.0682 73.5821Z" fill="url(#paint11_radial_510_1173)"/>
<path d="M74.4961 3.31135C93.3648 3.31135 108.759 6.79783 108.759 11.1042L108.894 7.82466C108.894 3.50239 93.4443 0 74.4961 0C55.5559 0 40.0984 3.50239 40.0984 7.82466L40.2336 11.1042C40.2336 6.79783 55.6275 3.31135 74.4961 3.31135Z" fill="url(#paint12_linear_510_1173)"/>
<path opacity="0.6" d="M74.4961 3.31135C93.3648 3.31135 108.759 6.79783 108.759 11.1042L108.894 7.82466C108.894 3.50239 93.4443 0 74.4961 0C55.5559 0 40.0984 3.50239 40.0984 7.82466L40.2336 11.1042C40.2336 6.79783 55.6275 3.31135 74.4961 3.31135Z" fill="url(#paint13_linear_510_1173)"/>
<path d="M74.496 4.56106C90.6373 4.56106 103.026 7.45849 103.749 11.1042H108.759C108.759 6.79781 93.3646 3.31134 74.496 3.31134C55.6273 3.31134 40.2334 6.79781 40.2334 11.1042H45.2428C45.9584 7.46645 58.3546 4.56106 74.496 4.56106Z" fill="url(#paint14_linear_510_1173)"/>
<path d="M64.9065 71.019C64.1909 70.2548 61.5987 67.4609 57.6151 62.7804C53.2259 57.6223 48.2802 49.3201 44.6464 39.9751C41.6169 32.1743 39.7244 21.6114 40.2413 11.1042H45.2507C44.7338 18.9129 43.9307 28.3376 47.0238 38.6457C50.1169 48.946 60.8036 60.0661 63.3162 62.5814C63.3162 62.669 63.3162 62.7486 63.3162 62.8361C63.356 63.5048 63.3799 63.8868 63.3799 63.8868C63.3799 63.8868 63.5548 66.8798 64.501 69.8091C64.6362 70.223 64.7714 70.629 64.9145 71.019H64.9065Z" fill="url(#paint15_radial_510_1173)"/>
<path d="M84.0934 71.019C84.809 70.2548 87.4012 67.4609 91.3848 62.7804C95.774 57.6223 100.72 49.3201 104.354 39.9751C107.383 32.1743 109.275 21.6114 108.759 11.1042H103.749C104.266 18.9129 105.069 28.3376 101.976 38.6457C98.883 48.946 88.1963 60.0661 85.6837 62.5814C85.6837 62.669 85.6837 62.7486 85.6837 62.8361C85.6439 63.5048 85.6201 63.8868 85.6201 63.8868C85.6201 63.8868 85.4451 66.8798 84.4989 69.8091C84.3637 70.223 84.2286 70.629 84.0854 71.019H84.0934Z" fill="url(#paint16_radial_510_1173)"/>
<path d="M64.9065 71.019C64.1909 70.2548 61.5987 67.4609 57.6151 62.7804C53.2259 57.6223 48.2802 49.3201 44.6464 39.9751C41.6169 32.1743 39.7244 21.6114 40.2413 11.1042H45.2507C44.7338 18.9129 43.9307 28.3376 47.0238 38.6457C50.1169 48.946 60.8036 60.0661 63.3162 62.5814C63.3162 62.669 63.3162 62.7486 63.3162 62.8361C63.356 63.5048 63.3799 63.8868 63.3799 63.8868C63.3799 63.8868 63.5548 66.8798 64.501 69.8091C64.6362 70.223 64.7714 70.629 64.9145 71.019H64.9065Z" fill="url(#paint17_linear_510_1173)"/>
<path d="M74.4959 94.4372H93.3248V93.5298C93.3248 93.5298 93.3089 93.3626 93.1181 93.3626C92.9193 93.3626 92.6489 93.3626 92.6489 93.3626L88.4427 84.9808C88.4427 84.9808 88.1723 84.3917 87.8383 84.3917C87.5123 84.3917 74.4959 84.3917 74.4959 84.3917H61.1535C60.8274 84.3917 60.5492 84.9808 60.5492 84.9808L56.3429 93.3626H55.8737C55.6749 93.3626 55.667 93.5298 55.667 93.5298V94.4372H74.5039H74.4959Z" fill="url(#paint18_linear_510_1173)"/>
<path d="M74.504 84.3917H61.1615C60.8355 84.3917 60.5572 84.9808 60.5572 84.9808L56.3509 93.3626H55.8818C55.683 93.3626 55.675 93.5298 55.675 93.5298V94.4372H74.5119V84.3917H74.504Z" fill="url(#paint19_linear_510_1173)"/>
<path d="M74.5039 84.3917C74.5039 84.3917 87.5203 84.3917 87.8464 84.3917C88.1724 84.3917 88.4507 84.9808 88.4507 84.9808L92.6569 93.3626C92.6569 93.3626 92.9273 93.3626 93.1261 93.3626C93.3249 93.3626 93.3328 93.5298 93.3328 93.5298V94.4372H74.5039V84.3917Z" fill="url(#paint20_linear_510_1173)"/>
<path d="M83.2584 81.4704H65.7415L68.437 76.4556C68.5881 76.5511 68.7471 76.6307 68.9061 76.6944C70.2022 77.2357 73.8916 77.5302 74.5039 77.5302C75.1162 77.5302 78.8056 77.2357 80.0937 76.6944C80.2528 76.6307 80.4118 76.5511 80.5629 76.4556L83.2584 81.4704Z" fill="url(#paint21_linear_510_1173)"/>
<path d="M74.4961 8.3978C74.8062 8.3978 81.1117 18.9766 84.157 34.1006C85.1669 39.1313 85.5485 41.1054 85.6758 44.3212C85.9859 41.8695 85.6996 36.5921 84.984 33.2091C81.6762 17.5995 74.8301 6.6864 74.4961 6.6864C74.1621 6.6864 67.308 17.5995 64.0082 33.2091C63.2926 36.5921 63.0063 41.8695 63.3164 44.3212C63.4437 41.1054 63.8253 39.1313 64.8351 34.1006C67.8805 18.9766 74.186 8.3978 74.4961 8.3978Z" fill="url(#paint22_linear_510_1173)"/>
<path d="M74.4959 22.4153C74.806 22.4153 78.6625 30.7097 81.7078 41.8855C83.7355 49.3281 85.7392 55.4254 85.7392 61.9765C85.7233 62.2949 85.6995 62.5814 85.6915 62.8282C85.6915 56.5955 83.64 50.6813 81.6124 43.5969C78.567 32.9623 74.806 25.066 74.5039 25.066C74.1938 25.066 70.4328 32.9623 67.3953 43.5969C65.3677 50.6813 63.3163 56.5955 63.3163 62.8282C63.3004 62.5814 63.2845 62.2949 63.2686 61.9765C63.2686 55.4254 65.2723 49.3281 67.2999 41.8855C70.3453 30.7097 74.2017 22.4153 74.5118 22.4153H74.4959Z" fill="url(#paint23_linear_510_1173)"/>
<path d="M47.016 38.6457C47.7316 41.0417 48.8607 43.4774 50.2045 45.8416C48.654 43.5809 47.2387 40.8507 46.2527 37.5473C43.3266 27.7804 43.748 18.7776 44.2569 11.1042H45.2508C44.734 18.9129 43.9309 28.3376 47.024 38.6457H47.016Z" fill="url(#paint24_linear_510_1173)"/>
<path d="M64.9067 71.019C64.1911 70.2548 61.5989 67.4609 57.6153 62.7804C53.2261 57.6223 48.2804 49.3201 44.6466 39.9751C42.3645 34.1006 40.7265 26.666 40.2812 18.8652C40.9492 26.2441 42.611 33.2091 44.8294 38.8049C48.6859 48.5241 53.902 57.1447 58.5218 62.4859C60.9549 65.2958 62.8871 67.4529 64.2309 68.9255C64.3104 69.22 64.3978 69.5146 64.4933 69.8091C64.6284 70.223 64.7636 70.629 64.9067 71.019Z" fill="url(#paint25_linear_510_1173)"/>
<path d="M84.0933 71.019C84.8089 70.2548 87.401 67.4609 91.3847 62.7804C95.7739 57.6223 100.72 49.3201 104.353 39.9751C106.635 34.1006 108.273 26.666 108.719 18.8652C108.051 26.2441 106.389 33.2091 104.171 38.8049C100.314 48.5241 95.098 57.1447 90.4782 62.4859C88.0451 65.2958 86.1129 67.4529 84.7691 68.9255C84.6896 69.22 84.6022 69.5146 84.5067 69.8091C84.3716 70.223 84.2364 70.629 84.0933 71.019Z" fill="url(#paint26_linear_510_1173)"/>
<path d="M57.9571 29.6112C57.1858 27.3824 56.3191 25.1775 55.3729 23.076C51.8584 15.3071 47.2943 13.524 45.1235 12.943C45.1394 12.6882 45.1553 12.4256 45.1712 12.1708C47.501 12.9111 52.2957 14.9728 55.5796 22.9407C56.343 24.7874 57.0347 26.7137 57.6708 28.6639C57.6708 28.6639 57.6708 28.6798 57.6708 28.6878C57.7583 28.9823 57.8537 29.2928 57.9491 29.6112H57.9571Z" fill="url(#paint27_linear_510_1173)"/>
<path d="M59.7939 35.5413C59.2612 33.607 58.6489 31.6171 57.9731 29.6509V29.635C56.351 24.3894 56.2078 22.0093 55.0549 19.0005C52.4389 12.1549 48.0895 10.0694 46.364 9.49625C46.5548 9.33705 46.7695 9.18581 47.0081 9.02661C49.2981 9.98977 53.1863 12.2982 55.4525 18.2284C56.6531 21.3805 56.8042 23.872 58.4978 29.3644V29.3803C58.7125 29.9932 58.9193 30.6061 59.1181 31.2191C59.2453 32.6041 59.4441 34.0369 59.786 35.5493L59.7939 35.5413Z" fill="url(#paint28_linear_510_1173)"/>
<path d="M61.4319 42.5541C61.0104 40.381 60.4618 38.0089 59.7939 35.5572C58.0843 28.0112 59.8495 22.4471 57.5277 15.3309C55.7307 9.83057 52.5024 7.56993 51.6914 7.07641C52.3355 6.88537 53.0193 6.71025 53.7429 6.54309C55.0867 7.91221 56.7564 10.1649 57.8855 13.6275C60.3584 21.1815 58.9272 27.4699 60.2948 35.1115C60.5493 36.0269 60.7799 36.9264 60.9945 37.8179C61.1059 39.3303 61.249 40.9143 61.4239 42.5541H61.4319Z" fill="url(#paint29_linear_510_1173)"/>
<path d="M61.7817 26.65C61.2569 30.1285 61.3603 35.8119 61.9884 42.3869C62.3542 44.4247 62.6007 46.2873 62.7279 47.8634C63.0857 52.313 63.1096 58.8322 63.2527 61.9764C63.0619 58.8402 62.6643 52.4722 62.2429 48.0226C62.0918 46.4465 61.8215 44.5918 61.4318 42.5541C60.7162 35.9871 60.5413 30.3036 61.0184 26.8172C62.052 19.2472 63.1652 14.9727 62.1554 9.79872C61.7022 7.46644 60.589 5.71524 60.3584 5.37297C60.7162 5.32521 61.074 5.28541 61.4398 5.24561C61.726 5.69932 62.7359 7.40276 63.1414 9.63952C64.0876 14.8215 62.9188 19.088 61.7817 26.642V26.65Z" fill="url(#paint30_linear_510_1173)"/>
<path d="M91.043 29.6112C91.8143 27.3824 92.681 25.1775 93.6272 23.076C97.1417 15.3071 101.706 13.524 103.877 12.943C103.861 12.6882 103.845 12.4256 103.829 12.1708C101.499 12.9111 96.7044 14.9728 93.4204 22.9407C92.6571 24.7874 91.9653 26.7137 91.3292 28.6639C91.3292 28.6639 91.3292 28.6798 91.3292 28.6878C91.2418 28.9823 91.1463 29.2928 91.0509 29.6112H91.043Z" fill="url(#paint31_linear_510_1173)"/>
<path d="M89.2061 35.5413C89.7388 33.607 90.3511 31.6171 91.0269 29.6509V29.635C92.649 24.3894 92.7921 22.0093 93.9451 19.0005C96.5611 12.1549 100.911 10.0694 102.636 9.49625C102.445 9.33705 102.23 9.18581 101.992 9.02661C99.7019 9.98977 95.8137 12.2982 93.5475 18.2284C92.3469 21.3805 92.1958 23.872 90.5021 29.3644V29.3803C90.2874 29.9932 90.0807 30.6061 89.8819 31.2191C89.7547 32.6041 89.5559 34.0369 89.214 35.5493L89.2061 35.5413Z" fill="url(#paint32_linear_510_1173)"/>
<path d="M87.5601 42.5541C87.9815 40.381 88.5301 38.0089 89.198 35.5572C90.9076 28.0112 89.1424 22.4471 91.4642 15.3309C93.2612 9.83057 96.4895 7.56993 97.3005 7.07641C96.6565 6.88537 95.9726 6.71025 95.2491 6.54309C93.9053 7.91221 92.2355 10.1649 91.1064 13.6275C88.6335 21.1815 90.0647 27.4699 88.6971 35.1115C88.4427 36.0269 88.2121 36.9264 87.9974 37.8179C87.8861 39.3303 87.7429 40.9143 87.568 42.5541H87.5601Z" fill="url(#paint33_linear_510_1173)"/>
<path d="M87.2102 26.65C87.735 30.1285 87.6317 35.8119 87.0035 42.3869C86.6377 44.4247 86.3912 46.2873 86.264 47.8634C85.9062 52.313 85.8823 58.8322 85.7392 61.9764C85.9301 58.8402 86.3276 52.4722 86.749 48.0226C86.9001 46.4465 87.1705 44.5918 87.5601 42.5541C88.2757 35.9871 88.4506 30.3036 87.9736 26.8172C86.9399 19.2472 85.8267 14.9727 86.8365 9.79872C87.2897 7.46644 88.4029 5.71524 88.6335 5.37297C88.2757 5.32521 87.9179 5.28541 87.5521 5.24561C87.2659 5.69932 86.2561 7.40276 85.8505 9.63952C84.9043 14.8215 86.0732 19.088 87.2102 26.642V26.65Z" fill="url(#paint34_linear_510_1173)"/>
<path d="M71.4505 13.922C69.7092 18.0293 67.0693 25.4799 65.0338 35.613C64.008 40.6994 63.4673 43.9311 63.2686 46.7649C63.3083 41.8456 63.6025 40.2775 64.8429 34.1006C66.5604 25.5675 69.3196 18.4751 71.4505 13.922Z" fill="url(#paint35_linear_510_1173)"/>
<path d="M67.777 45.6266C65.7574 53.4672 63.5787 60.0183 63.7616 66.8559C63.4435 65.1525 63.372 63.8789 63.372 63.8789C63.372 63.8789 63.3481 63.4888 63.3083 62.8281C63.3083 56.5955 65.3598 50.6892 67.3874 43.5968C69.7649 35.2866 72.5797 28.648 73.844 26.1406C72.6512 28.831 70.1784 36.2895 67.777 45.6266Z" fill="url(#paint36_linear_510_1173)"/>
<path d="M77.5493 13.922C79.2907 18.0293 81.9305 25.4799 83.9661 35.613C84.9918 40.6994 85.5325 43.9311 85.7313 46.7649C85.6916 41.8456 85.3973 40.2775 84.1569 34.1006C82.4394 25.5675 79.6803 18.4751 77.5493 13.922Z" fill="url(#paint37_linear_510_1173)"/>
<path d="M81.2229 45.6266C83.2426 53.4672 85.4213 60.0183 85.2384 66.8559C85.5564 65.1525 85.628 63.8789 85.628 63.8789C85.628 63.8789 85.6519 63.4888 85.6916 62.8281C85.6916 56.5955 83.6401 50.6892 81.6125 43.5968C79.2351 35.2866 76.4203 28.648 75.156 26.1406C76.3487 28.831 78.8216 36.2895 81.2229 45.6266Z" fill="url(#paint38_linear_510_1173)"/>
<path d="M74.4961 77.5223C75.1004 77.5223 78.7978 77.2278 80.0939 76.6865C80.2529 76.6228 80.4119 76.5432 80.563 76.4477L83.2585 81.4625H74.4961V77.5223Z" fill="url(#paint39_linear_510_1173)"/>
<path d="M84.0934 71.019C84.809 70.2548 87.4012 67.4609 91.3848 62.7804C95.774 57.6223 100.72 49.3201 104.354 39.9751C107.383 32.1743 109.275 21.6114 108.759 11.1042H103.749C104.266 18.9129 105.069 28.3376 101.976 38.6457C98.883 48.946 88.1963 60.0661 85.6837 62.5814C85.6837 62.669 85.6837 62.7486 85.6837 62.8361C85.6439 63.5048 85.6201 63.8868 85.6201 63.8868C85.6201 63.8868 85.4451 66.8798 84.4989 69.8091C84.3637 70.223 84.2286 70.629 84.0854 71.019H84.0934Z" fill="url(#paint40_linear_510_1173)"/>
<path d="M101.976 38.6457C101.26 41.0417 100.131 43.4774 98.7876 45.8416C100.338 43.5809 101.753 40.8507 102.739 37.5473C105.666 27.7804 105.244 18.7776 104.735 11.1042H103.741C104.258 18.9129 105.061 28.3376 101.968 38.6457H101.976Z" fill="url(#paint41_linear_510_1173)"/>
<path opacity="0.4" d="M56.3509 93.3627H55.8818C55.683 93.3627 55.675 93.5298 55.675 93.5298V94.4373H93.3408V93.5298C93.3408 93.5298 93.3249 93.3627 93.1341 93.3627C92.9353 93.3627 92.665 93.3627 92.665 93.3627H56.3668H56.3509Z" fill="url(#paint42_linear_510_1173)"/>
<path opacity="0.8" d="M74.4961 77.5223C73.8918 77.5223 70.1944 77.2278 68.8983 76.6865C68.7393 76.6228 68.5802 76.5432 68.4292 76.4477L65.7336 81.4625H74.4961V77.5223Z" fill="url(#paint43_linear_510_1173)"/>
<path d="M75.0686 77.4586C80.0223 77.1402 82.8928 72.7463 82.8928 68.1852C82.8928 63.6241 81.1753 59.5566 79.6406 54.6851C77.295 47.2584 74.8698 41.4556 74.4961 41.4556C74.1224 41.4556 71.6892 47.2584 69.3515 54.6851C67.8169 59.5566 66.0994 63.9107 66.0994 68.1852C66.0994 72.4597 68.9778 77.1402 73.9236 77.4586C68.8029 77.18 65.7336 73.0965 65.7336 67.1902C65.7336 61.2839 67.1728 58.6651 68.7949 53.6821C71.2281 46.2157 74.2416 40.6675 74.4881 40.6675C74.7346 40.6675 77.7482 46.2157 80.1813 53.6821C81.8034 58.6571 83.2426 62.8122 83.2426 67.1902C83.2426 71.5682 80.1813 77.18 75.0527 77.4586H75.0686Z" fill="url(#paint44_linear_510_1173)"/>
<path d="M73.9951 42.2277C73.0807 44.0346 71.1963 48.8584 69.3515 54.6931C67.8169 59.5646 66.0994 63.9187 66.0994 68.1932C66.0994 72.4677 68.9778 77.1482 73.9236 77.4666C68.8029 77.188 65.7336 73.1045 65.7336 67.1982C65.7336 61.2919 67.1728 58.6731 68.7949 53.6901C70.1467 49.5429 73.9872 42.2277 73.9872 42.2277H73.9951Z" fill="url(#paint45_linear_510_1173)"/>
<path d="M75.0049 42.2277C75.9193 44.0346 77.8038 48.8584 79.6485 54.6931C81.1831 59.5646 82.9006 63.9187 82.9006 68.1932C82.9006 72.7543 80.0222 77.1482 75.0764 77.4666C80.1971 77.188 83.2664 73.1045 83.2664 67.1982C83.2664 62.8202 81.8272 58.6731 80.2051 53.6901C78.8534 49.5429 75.0128 42.2277 75.0128 42.2277H75.0049Z" fill="url(#paint46_linear_510_1173)"/>
<path d="M79.8393 68.6628C79.8393 71.3692 79.0441 77.4825 74.4959 77.4825C77.4697 77.4825 78.4001 72.9612 78.4001 69.5623C78.4001 62.4541 74.7106 57.3278 74.4959 57.3278C74.2812 57.3278 70.5918 62.4541 70.5918 69.5623C70.5918 76.6706 71.5301 77.4825 74.4959 77.4825C69.9477 77.4825 69.1526 71.3692 69.1526 68.6628C69.1526 62.4939 74.4244 56.9059 74.4959 56.9059C74.5675 56.9059 79.8393 62.5018 79.8393 68.6628Z" fill="url(#paint47_linear_510_1173)"/>
<path d="M69.1528 68.6628C69.1528 69.9126 69.3198 71.8787 69.9479 73.6458C69.0653 72.3006 68.6996 70.0956 68.7473 67.5882C68.8506 61.8491 74.2417 57.0731 74.4882 56.9059C74.2496 57.089 69.1528 62.5973 69.1528 68.6628Z" fill="url(#paint48_linear_510_1173)"/>
<path d="M79.8234 68.6628C79.8234 69.9126 79.6564 71.8787 79.0283 73.6458C79.9109 72.3006 80.2767 70.0956 80.2289 67.5882C80.1256 61.8491 74.7345 57.0731 74.488 56.9059C74.7266 57.089 79.8234 62.5973 79.8234 68.6628Z" fill="url(#paint49_linear_510_1173)"/>
<path d="M74.496 8.39777C74.8061 8.39777 81.1116 18.9766 84.157 34.1006C86.113 43.8277 85.7155 42.1163 85.6837 60.074C85.3497 54.2314 83.5368 48.6116 81.708 41.8934C78.6626 30.7176 74.8061 22.4233 74.496 22.4233C74.1859 22.4233 70.3295 30.7176 67.2841 41.8934C65.4553 48.6116 63.6424 54.2314 63.3084 60.074C63.2766 42.1163 62.879 43.8277 64.8351 34.1006C67.8805 18.9766 74.1859 8.39777 74.496 8.39777Z" fill="url(#paint50_linear_510_1173)"/>
</g>
<defs>
<linearGradient id="paint0_linear_510_1173" x1="74.496" y1="-8.81968" x2="74.496" y2="98.9028" gradientUnits="userSpaceOnUse">
<stop offset="0.3" stop-color="#7869A9"/>
<stop offset="0.4" stop-color="#897CBA"/>
<stop offset="0.5" stop-color="#9B92C6"/>
<stop offset="0.6" stop-color="#8376B4"/>
<stop offset="0.7" stop-color="#5E4C8F"/>
<stop offset="0.9" stop-color="#150335"/>
</linearGradient>
<linearGradient id="paint1_linear_510_1173" x1="105.117" y1="4.95905" x2="90.6378" y2="29.9239" gradientUnits="userSpaceOnUse">
<stop stop-color="#CFD2D2"/>
<stop offset="0.3" stop-color="#897CBA"/>
<stop offset="1" stop-color="#150335"/>
</linearGradient>
<linearGradient id="paint2_linear_510_1173" x1="101.149" y1="0.278624" x2="87.0797" y2="41.8444" gradientUnits="userSpaceOnUse">
<stop stop-color="#CFD2D2"/>
<stop offset="0.3" stop-color="#5E4C8F"/>
<stop offset="0.4" stop-color="#5E4C8F"/>
<stop offset="0.6" stop-color="#6E5D9F"/>
<stop offset="0.7" stop-color="#5E4C8F"/>
<stop offset="1" stop-color="#150335"/>
</linearGradient>
<linearGradient id="paint3_linear_510_1173" x1="93.2693" y1="-3.18402" x2="87.9703" y2="46.3577" gradientUnits="userSpaceOnUse">
<stop stop-color="#CFD2D2"/>
<stop offset="0.3" stop-color="#5E4C8F"/>
<stop offset="0.4" stop-color="#5E4C8F"/>
<stop offset="0.6" stop-color="#6E5D9F"/>
<stop offset="0.7" stop-color="#5E4C8F"/>
<stop offset="1" stop-color="#150335"/>
</linearGradient>
<linearGradient id="paint4_linear_510_1173" x1="43.8752" y1="4.95905" x2="58.3621" y2="29.9239" gradientUnits="userSpaceOnUse">
<stop stop-color="#CFD2D2"/>
<stop offset="0.3" stop-color="#897CBA"/>
<stop offset="1" stop-color="#150335"/>
</linearGradient>
<linearGradient id="paint5_linear_510_1173" x1="47.843" y1="0.278624" x2="61.9203" y2="41.8444" gradientUnits="userSpaceOnUse">
<stop stop-color="#CFD2D2"/>
<stop offset="0.3" stop-color="#5E4C8F"/>
<stop offset="0.4" stop-color="#5E4C8F"/>
<stop offset="0.6" stop-color="#6E5D9F"/>
<stop offset="0.7" stop-color="#5E4C8F"/>
<stop offset="1" stop-color="#150335"/>
</linearGradient>
<linearGradient id="paint6_linear_510_1173" x1="55.7229" y1="-3.18402" x2="61.0298" y2="46.3577" gradientUnits="userSpaceOnUse">
<stop stop-color="#CFD2D2"/>
<stop offset="0.3" stop-color="#5E4C8F"/>
<stop offset="0.4" stop-color="#5E4C8F"/>
<stop offset="0.6" stop-color="#6E5D9F"/>
<stop offset="0.7" stop-color="#5E4C8F"/>
<stop offset="1" stop-color="#150335"/>
</linearGradient>
<linearGradient id="paint7_linear_510_1173" x1="74.4961" y1="-7.3152" x2="74.4961" y2="68.9574" gradientUnits="userSpaceOnUse">
<stop stop-color="#CFD2D2"/>
<stop offset="0.2" stop-color="#5E4C8F"/>
<stop offset="0.3" stop-color="#5E4C8F"/>
<stop offset="0.4" stop-color="#897CB9"/>
<stop offset="0.5" stop-color="#9A8CC2"/>
<stop offset="0.6" stop-color="#897CB9"/>
<stop offset="0.8" stop-color="#100133"/>
</linearGradient>
<radialGradient id="paint8_radial_510_1173" cx="0" cy="0" r="1" gradientUnits="userSpaceOnUse" gradientTransform="translate(74.0206 55.2988) rotate(90) scale(84.3058 121.644)">
<stop offset="0.5" stop-color="#C1AB83" stop-opacity="0.2"/>
<stop offset="0.6" stop-color="#FDEDC0"/>
<stop offset="0.8" stop-color="#FDEDC0"/>
<stop offset="0.9" stop-color="#DCC99F" stop-opacity="0.6"/>
<stop offset="1" stop-color="#AE9770" stop-opacity="0"/>
</radialGradient>
<radialGradient id="paint9_radial_510_1173" cx="0" cy="0" r="1" gradientUnits="userSpaceOnUse" gradientTransform="translate(74.6868 59.8909) scale(28.4103 28.441)">
<stop offset="0.3" stop-color="white" stop-opacity="0"/>
<stop offset="0.4" stop-color="white" stop-opacity="0.2"/>
<stop offset="0.5" stop-color="white" stop-opacity="0.6"/>
<stop offset="0.6" stop-color="white" stop-opacity="0"/>
</radialGradient>
<linearGradient id="paint10_linear_510_1173" x1="74.4959" y1="58.6492" x2="74.4959" y2="107.563" gradientUnits="userSpaceOnUse">
<stop stop-color="#A99ACA" stop-opacity="0.5"/>
<stop offset="0.3" stop-color="#5E4C8F" stop-opacity="0"/>
</linearGradient>
<radialGradient id="paint11_radial_510_1173" cx="0" cy="0" r="1" gradientUnits="userSpaceOnUse" gradientTransform="translate(74.687 52.8145) scale(37.3557 37.396)">
<stop offset="0.4" stop-color="white" stop-opacity="0.2"/>
<stop offset="0.5" stop-color="#FEF7E4" stop-opacity="0.6"/>
<stop offset="0.6" stop-color="#FDEDC0" stop-opacity="0"/>
</radialGradient>
<linearGradient id="paint12_linear_510_1173" x1="40.0984" y1="5.54811" x2="108.894" y2="5.54811" gradientUnits="userSpaceOnUse">
<stop stop-color="#9687B8"/>
<stop offset="0.1" stop-color="#615084"/>
<stop offset="0.2" stop-color="#301E55"/>
<stop offset="0.3" stop-color="#5F4F8A"/>
<stop offset="0.4" stop-color="#8C81BC"/>
<stop offset="0.5" stop-color="#A5AAD2"/>
<stop offset="0.6" stop-color="#897CB9"/>
<stop offset="0.7" stop-color="#594A83"/>
<stop offset="0.8" stop-color="#39285E"/>
<stop offset="0.9" stop-color="#A99ACA"/>
</linearGradient>
<linearGradient id="paint13_linear_510_1173" x1="40.0984" y1="5.54811" x2="108.894" y2="5.54811" gradientUnits="userSpaceOnUse">
<stop offset="0.2" stop-color="#AE9770" stop-opacity="0"/>
<stop offset="0.4" stop-color="#D5BA82"/>
<stop offset="0.6" stop-color="#D5B981"/>
<stop offset="0.8" stop-color="#AE9770" stop-opacity="0"/>
</linearGradient>
<linearGradient id="paint14_linear_510_1173" x1="40.2413" y1="7.20377" x2="108.759" y2="7.20377" gradientUnits="userSpaceOnUse">
<stop stop-color="#34215B"/>
<stop offset="0.2" stop-color="#5E4C8F"/>
<stop offset="0.5" stop-color="#7769AE"/>
<stop offset="0.8" stop-color="#5E4C8F"/>
<stop offset="1" stop-color="#34215B"/>
</linearGradient>
<radialGradient id="paint15_radial_510_1173" cx="0" cy="0" r="1" gradientTransform="matrix(31.7971 124.88 138.606 -35.3683 36.1779 -13.3646)" gradientUnits="userSpaceOnUse">
<stop offset="0.1" stop-color="#CFD2D2"/>
<stop offset="0.2" stop-color="#C0C0CC"/>
<stop offset="0.3" stop-color="#897CB9"/>
<stop offset="0.4" stop-color="#71639E"/>
<stop offset="0.5" stop-color="#504078"/>
<stop offset="0.6" stop-color="#36255B"/>
<stop offset="0.7" stop-color="#231245"/>
<stop offset="0.8" stop-color="#180639"/>
<stop offset="0.9" stop-color="#150335"/>
</radialGradient>
<radialGradient id="paint16_radial_510_1173" cx="0" cy="0" r="1" gradientTransform="matrix(-31.7971 124.88 -138.606 -35.3683 115.154 -23.3879)" gradientUnits="userSpaceOnUse">
<stop offset="0.1" stop-color="#CFD2D2"/>
<stop offset="0.2" stop-color="#C0C0CC"/>
<stop offset="0.3" stop-color="#897CB9"/>
<stop offset="0.4" stop-color="#71639E"/>
<stop offset="0.5" stop-color="#504078"/>
<stop offset="0.6" stop-color="#36255B"/>
<stop offset="0.7" stop-color="#231245"/>
<stop offset="0.8" stop-color="#180639"/>
<stop offset="0.9" stop-color="#150335"/>
</radialGradient>
<linearGradient id="paint17_linear_510_1173" x1="56.4303" y1="34.4269" x2="64.084" y2="21.3002" gradientUnits="userSpaceOnUse">
<stop offset="0.6" stop-color="#CFD2D2" stop-opacity="0"/>
<stop offset="0.7" stop-color="#6D5D97" stop-opacity="0.9"/>
<stop offset="0.8" stop-color="#5E4C8F"/>
</linearGradient>
<linearGradient id="paint18_linear_510_1173" x1="55.6749" y1="89.1598" x2="93.2692" y2="89.7475" gradientUnits="userSpaceOnUse">
<stop offset="0.1" stop-color="#100133"/>
<stop offset="0.4" stop-color="#6C5D90"/>
<stop offset="0.5" stop-color="#A091C5"/>
<stop offset="0.7" stop-color="#433467"/>
<stop offset="0.8" stop-color="#100133"/>
</linearGradient>
<linearGradient id="paint19_linear_510_1173" x1="54.8163" y1="84.3042" x2="73.0248" y2="93.347" gradientUnits="userSpaceOnUse">
<stop offset="0.1" stop-color="#FDEDC0"/>
<stop offset="0.3" stop-color="#D5B981"/>
<stop offset="0.6" stop-color="#FDEDC0" stop-opacity="0"/>
</linearGradient>
<linearGradient id="paint20_linear_510_1173" x1="94.1836" y1="84.3042" x2="75.9671" y2="93.347" gradientUnits="userSpaceOnUse">
<stop offset="0.1" stop-color="#FDEDC0"/>
<stop offset="0.3" stop-color="#D5B981"/>
<stop offset="0.6" stop-color="#FDEDC0" stop-opacity="0"/>
</linearGradient>
<linearGradient id="paint21_linear_510_1173" x1="65.7415" y1="78.963" x2="83.2584" y2="78.963" gradientUnits="userSpaceOnUse">
<stop offset="0.1" stop-color="#5E4C8F"/>
<stop offset="0.2" stop-color="#645395"/>
<stop offset="0.3" stop-color="#7869A9"/>
<stop offset="0.4" stop-color="#8477B4"/>
<stop offset="0.5" stop-color="#8376B3"/>
<stop offset="0.8" stop-color="#5E4C8F"/>
</linearGradient>
<linearGradient id="paint22_linear_510_1173" x1="74.4961" y1="-16.8513" x2="74.4961" y2="66.0997" gradientUnits="userSpaceOnUse">
<stop offset="0.2" stop-color="#5E4C8F"/>
<stop offset="1" stop-color="#261749"/>
</linearGradient>
<linearGradient id="paint23_linear_510_1173" x1="74.4959" y1="18.2284" x2="74.4959" y2="72.9612" gradientUnits="userSpaceOnUse">
<stop offset="0.4" stop-color="#4C3679"/>
<stop offset="1" stop-color="#150335"/>
</linearGradient>
<linearGradient id="paint24_linear_510_1173" x1="47.0478" y1="4.82376" x2="47.0478" y2="49.527" gradientUnits="userSpaceOnUse">
<stop offset="0.3" stop-color="#D5B981"/>
<stop offset="0.6" stop-color="#FDEDC0"/>
<stop offset="0.8" stop-color="#D5B981"/>
<stop offset="0.9" stop-color="#AE9770"/>
</linearGradient>
<linearGradient id="paint25_linear_510_1173" x1="40.2733" y1="44.9421" x2="64.9067" y2="44.9421" gradientUnits="userSpaceOnUse">
<stop stop-color="#FDEDC0"/>
<stop offset="0.1" stop-color="#E6E0C8"/>
<stop offset="0.2" stop-color="#D5D5CF"/>
<stop offset="0.3" stop-color="#CFD2D2"/>
<stop offset="0.4" stop-color="#D5B981"/>
<stop offset="0.5" stop-color="#BFA677"/>
<stop offset="0.7" stop-color="#AE9770"/>
<stop offset="1" stop-color="#FDEDC0"/>
</linearGradient>
<linearGradient id="paint26_linear_510_1173" x1="108.719" y1="44.9421" x2="84.0933" y2="44.9421" gradientUnits="userSpaceOnUse">
<stop stop-color="#FDEDC0"/>
<stop offset="0.1" stop-color="#E6E0C8"/>
<stop offset="0.2" stop-color="#D5D5CF"/>
<stop offset="0.3" stop-color="#CFD2D2"/>
<stop offset="0.4" stop-color="#D5B981"/>
<stop offset="0.5" stop-color="#BFA677"/>
<stop offset="0.7" stop-color="#AE9770"/>
<stop offset="1" stop-color="#FDEDC0"/>
</linearGradient>
<linearGradient id="paint27_linear_510_1173" x1="51.5403" y1="5.59589" x2="51.5403" y2="42.9362" gradientUnits="userSpaceOnUse">
<stop stop-color="#DFC690"/>
<stop offset="0.1" stop-color="#ECD7A5"/>
<stop offset="0.2" stop-color="#F5E3B4"/>
<stop offset="0.3" stop-color="#FBEABD"/>
<stop offset="0.4" stop-color="#FDEDC0"/>
<stop offset="0.5" stop-color="#E6D6BE"/>
<stop offset="0.6" stop-color="#A093BB"/>
<stop offset="0.7" stop-color="#897CBA"/>
</linearGradient>
<linearGradient id="paint28_linear_510_1173" x1="53.075" y1="3.28746" x2="53.075" y2="51.0872" gradientUnits="userSpaceOnUse">
<stop stop-color="#B59F98"/>
<stop offset="0.1" stop-color="#DBC18B"/>
<stop offset="0.2" stop-color="#FDEDC0"/>
<stop offset="0.5" stop-color="#897CBA"/>
<stop offset="0.6" stop-color="#56467F"/>
<stop offset="0.7" stop-color="#2B1A4F"/>
<stop offset="0.8" stop-color="#1E0D40"/>
<stop offset="0.9" stop-color="#170537"/>
<stop offset="1" stop-color="#150335"/>
</linearGradient>
<linearGradient id="paint29_linear_510_1173" x1="56.5656" y1="1.24174" x2="56.5656" y2="74.004" gradientUnits="userSpaceOnUse">
<stop stop-color="#B59F98"/>
<stop offset="0.1" stop-color="#DBC18B"/>
<stop offset="0.2" stop-color="#FDEDC0"/>
<stop offset="0.5" stop-color="#897CBA"/>
<stop offset="0.6" stop-color="#56467F"/>
<stop offset="0.7" stop-color="#2B1A4F"/>
<stop offset="0.8" stop-color="#1E0D40"/>
<stop offset="0.9" stop-color="#170537"/>
<stop offset="1" stop-color="#150335"/>
</linearGradient>
<linearGradient id="paint30_linear_510_1173" x1="61.9248" y1="1.36909" x2="61.9248" y2="98.1307" gradientUnits="userSpaceOnUse">
<stop stop-color="#B59F98"/>
<stop offset="0.1" stop-color="#DBC18B"/>
<stop offset="0.2" stop-color="#FDEDC0"/>
<stop offset="0.4" stop-color="#897CBA"/>
<stop offset="0.5" stop-color="#3E2E64"/>
<stop offset="0.6" stop-color="#170537"/>
<stop offset="0.7" stop-color="#150335"/>
</linearGradient>
<linearGradient id="paint31_linear_510_1173" x1="97.4518" y1="5.59589" x2="97.4518" y2="42.9362" gradientUnits="userSpaceOnUse">
<stop stop-color="#DFC690"/>
<stop offset="0.1" stop-color="#ECD7A5"/>
<stop offset="0.2" stop-color="#F5E3B4"/>
<stop offset="0.3" stop-color="#FBEABD"/>
<stop offset="0.4" stop-color="#FDEDC0"/>
<stop offset="0.5" stop-color="#E6D6BE"/>
<stop offset="0.6" stop-color="#A093BB"/>
<stop offset="0.7" stop-color="#897CBA"/>
</linearGradient>
<linearGradient id="paint32_linear_510_1173" x1="95.917" y1="3.28746" x2="95.917" y2="51.0872" gradientUnits="userSpaceOnUse">
<stop stop-color="#B59F98"/>
<stop offset="0.1" stop-color="#DBC18B"/>
<stop offset="0.2" stop-color="#FDEDC0"/>
<stop offset="0.5" stop-color="#897CBA"/>
<stop offset="0.6" stop-color="#56467F"/>
<stop offset="0.7" stop-color="#2B1A4F"/>
<stop offset="0.8" stop-color="#1E0D40"/>
<stop offset="0.9" stop-color="#170537"/>
<stop offset="1" stop-color="#150335"/>
</linearGradient>
<linearGradient id="paint33_linear_510_1173" x1="92.4343" y1="1.24174" x2="92.4343" y2="74.004" gradientUnits="userSpaceOnUse">
<stop stop-color="#B59F98"/>
<stop offset="0.1" stop-color="#DBC18B"/>
<stop offset="0.2" stop-color="#FDEDC0"/>
<stop offset="0.5" stop-color="#897CBA"/>
<stop offset="0.6" stop-color="#56467F"/>
<stop offset="0.7" stop-color="#2B1A4F"/>
<stop offset="0.8" stop-color="#1E0D40"/>
<stop offset="0.9" stop-color="#170537"/>
<stop offset="1" stop-color="#150335"/>
</linearGradient>
<linearGradient id="paint34_linear_510_1173" x1="87.0671" y1="1.36909" x2="87.0671" y2="98.1307" gradientUnits="userSpaceOnUse">
<stop stop-color="#B59F98"/>
<stop offset="0.1" stop-color="#DBC18B"/>
<stop offset="0.2" stop-color="#FDEDC0"/>
<stop offset="0.4" stop-color="#897CBA"/>
<stop offset="0.5" stop-color="#3E2E64"/>
<stop offset="0.6" stop-color="#170537"/>
<stop offset="0.7" stop-color="#150335"/>
</linearGradient>
<linearGradient id="paint35_linear_510_1173" x1="67.3556" y1="26.2202" x2="67.3556" y2="59.9148" gradientUnits="userSpaceOnUse">
<stop offset="0.1" stop-color="#FDEDC0"/>
<stop offset="0.2" stop-color="#ECDBAF"/>
<stop offset="0.4" stop-color="#BFAA81"/>
<stop offset="0.6" stop-color="#8D787C"/>
<stop offset="0.7" stop-color="#69568A"/>
<stop offset="0.8" stop-color="#604E8D"/>
<stop offset="0.9" stop-color="#5E4C8F"/>
</linearGradient>
<linearGradient id="paint36_linear_510_1173" x1="68.5801" y1="32.3653" x2="68.5801" y2="80.6267" gradientUnits="userSpaceOnUse">
<stop offset="0.1" stop-color="#FDEDC0"/>
<stop offset="0.2" stop-color="#ECDBAF"/>
<stop offset="0.5" stop-color="#BFAA81"/>
<stop offset="0.6" stop-color="#AE9770"/>
<stop offset="0.7" stop-color="#7E695D"/>
<stop offset="0.9" stop-color="#150335"/>
</linearGradient>
<linearGradient id="paint37_linear_510_1173" x1="81.6363" y1="26.2202" x2="81.6363" y2="59.9148" gradientUnits="userSpaceOnUse">
<stop offset="0.1" stop-color="#FDEDC0"/>
<stop offset="0.2" stop-color="#ECDBAF"/>
<stop offset="0.4" stop-color="#BFAA81"/>
<stop offset="0.6" stop-color="#8D787C"/>
<stop offset="0.7" stop-color="#69568A"/>
<stop offset="0.8" stop-color="#604E8D"/>
<stop offset="0.9" stop-color="#5E4C8F"/>
</linearGradient>
<linearGradient id="paint38_linear_510_1173" x1="80.4198" y1="32.3653" x2="80.4198" y2="80.6267" gradientUnits="userSpaceOnUse">
<stop offset="0.1" stop-color="#FDEDC0"/>
<stop offset="0.2" stop-color="#ECDBAF"/>
<stop offset="0.5" stop-color="#BFAA81"/>
<stop offset="0.6" stop-color="#AE9770"/>
<stop offset="0.7" stop-color="#7E695D"/>
<stop offset="0.9" stop-color="#150335"/>
</linearGradient>
<linearGradient id="paint39_linear_510_1173" x1="85.7553" y1="78.963" x2="70.5363" y2="78.963" gradientUnits="userSpaceOnUse">
<stop stop-color="#897CB9"/>
<stop offset="0.7" stop-color="#3A295F"/>
<stop offset="1" stop-color="#150335"/>
</linearGradient>
<linearGradient id="paint40_linear_510_1173" x1="92.5616" y1="34.4269" x2="84.908" y2="21.3002" gradientUnits="userSpaceOnUse">
<stop offset="0.6" stop-color="#CFD2D2" stop-opacity="0"/>
<stop offset="0.7" stop-color="#6D5D97" stop-opacity="0.9"/>
<stop offset="0.8" stop-color="#5E4C8F"/>
</linearGradient>
<linearGradient id="paint41_linear_510_1173" x1="101.944" y1="4.82376" x2="101.944" y2="49.527" gradientUnits="userSpaceOnUse">
<stop offset="0.5" stop-color="#D5B981"/>
<stop offset="0.6" stop-color="#FDEDC0"/>
<stop offset="0.8" stop-color="#D5B981"/>
<stop offset="0.9" stop-color="#AE9770"/>
</linearGradient>
<linearGradient id="paint42_linear_510_1173" x1="93.3249" y1="93.896" x2="55.6671" y2="93.896" gradientUnits="userSpaceOnUse">
<stop stop-color="#251448"/>
<stop offset="0.1" stop-color="#493970"/>
<stop offset="0.2" stop-color="#655690"/>
<stop offset="0.3" stop-color="#786BA6"/>
<stop offset="0.4" stop-color="#8477B4"/>
<stop offset="0.5" stop-color="#897CB9"/>
<stop offset="0.6" stop-color="#8679B6"/>
<stop offset="0.7" stop-color="#7F72AE"/>
<stop offset="0.8" stop-color="#7365A0"/>
<stop offset="0.9" stop-color="#4A3A71"/>
<stop offset="1" stop-color="#150335"/>
</linearGradient>
<linearGradient id="paint43_linear_510_1173" x1="66.5208" y1="77.2994" x2="81.7964" y2="86.59" gradientUnits="userSpaceOnUse">
<stop stop-color="#E1CA93"/>
<stop offset="0.4" stop-color="#9688B3"/>
<stop offset="0.5" stop-color="#897CBA"/>
<stop offset="0.7" stop-color="#3A295F"/>
<stop offset="0.9" stop-color="#150335"/>
</linearGradient>
<linearGradient id="paint44_linear_510_1173" x1="74.4961" y1="41.2725" x2="74.4961" y2="77.8407" gradientUnits="userSpaceOnUse">
<stop offset="0.4" stop-color="#4C3679"/>
<stop offset="1" stop-color="#150335"/>
</linearGradient>
<linearGradient id="paint45_linear_510_1173" x1="69.8604" y1="42.8008" x2="69.8604" y2="77.8248" gradientUnits="userSpaceOnUse">
<stop offset="0.1" stop-color="#FDEDC0"/>
<stop offset="0.4" stop-color="#E1C894"/>
<stop offset="0.6" stop-color="#A89086"/>
<stop offset="0.7" stop-color="#78648B"/>
<stop offset="0.8" stop-color="#69568D"/>
<stop offset="0.9" stop-color="#604E8E"/>
<stop offset="1" stop-color="#5E4C8F"/>
</linearGradient>
<linearGradient id="paint46_linear_510_1173" x1="79.1317" y1="42.8008" x2="79.1317" y2="77.8248" gradientUnits="userSpaceOnUse">
<stop offset="0.1" stop-color="#FDEDC0"/>
<stop offset="0.4" stop-color="#E1C894"/>
<stop offset="0.6" stop-color="#A89086"/>
<stop offset="0.7" stop-color="#78648B"/>
<stop offset="0.8" stop-color="#69568D"/>
<stop offset="0.9" stop-color="#604E8E"/>
<stop offset="1" stop-color="#5E4C8F"/>
</linearGradient>
<linearGradient id="paint47_linear_510_1173" x1="74.4959" y1="57.4711" x2="74.4959" y2="80.4595" gradientUnits="userSpaceOnUse">
<stop stop-color="#301E55"/>
<stop offset="0.2" stop-color="#3C2A64"/>
<stop offset="0.6" stop-color="#5E4C8F"/>
<stop offset="0.7" stop-color="#513F7F"/>
<stop offset="0.8" stop-color="#301E55"/>
<stop offset="1" stop-color="#150335"/>
</linearGradient>
<linearGradient id="paint48_linear_510_1173" x1="71.6177" y1="52.0902" x2="71.6177" y2="74.004" gradientUnits="userSpaceOnUse">
<stop offset="0.1" stop-color="#FDEDC0"/>
<stop offset="0.4" stop-color="#E1C894"/>
<stop offset="0.6" stop-color="#A89086"/>
<stop offset="0.7" stop-color="#78648B"/>
<stop offset="0.8" stop-color="#69568D"/>
<stop offset="0.9" stop-color="#604E8E"/>
<stop offset="1" stop-color="#5E4C8F"/>
</linearGradient>
<linearGradient id="paint49_linear_510_1173" x1="77.3664" y1="52.0902" x2="77.3664" y2="74.004" gradientUnits="userSpaceOnUse">
<stop offset="0.1" stop-color="#FDEDC0"/>
<stop offset="0.4" stop-color="#E1C894"/>
<stop offset="0.6" stop-color="#A89086"/>
<stop offset="0.7" stop-color="#78648B"/>
<stop offset="0.8" stop-color="#69568D"/>
<stop offset="0.9" stop-color="#604E8E"/>
<stop offset="1" stop-color="#5E4C8F"/>
</linearGradient>
<linearGradient id="paint50_linear_510_1173" x1="74.496" y1="-8.54108" x2="74.496" y2="71.9821" gradientUnits="userSpaceOnUse">
<stop offset="0.5" stop-color="#9B92C6" stop-opacity="0"/>
<stop offset="0.6" stop-color="#7F74A8" stop-opacity="0.2"/>
<stop offset="0.8" stop-color="#150335"/>
</linearGradient>
<clipPath id="clip0_510_1173">
<rect width="89" height="148" fill="white" transform="translate(30)"/>
</clipPath>
</defs>
</svg>
