<svg width="52" height="52" viewBox="0 0 52 52" fill="none" xmlns="http://www.w3.org/2000/svg">
<path d="M49.5386 20.2539C49.3826 19.9723 49.0446 19.7599 48.6892 19.7599C48.3642 19.7599 48.0826 19.8943 48.0826 20.2323C48.0826 20.5226 48.4422 20.7133 48.8106 20.9473C49.2136 21.2029 49.6296 21.5063 49.6296 22.0566C49.6296 22.7629 48.9449 23.2006 48.1519 23.2006C47.8269 23.2006 47.4932 23.1313 47.0989 22.9883L47.1682 22.0479C47.3459 22.4163 47.6926 22.7196 48.2082 22.7196C48.5982 22.7196 48.8929 22.5289 48.8929 22.1953C48.8929 21.9136 48.6589 21.7359 48.3686 21.5669C47.7532 21.1986 47.3719 20.8953 47.3719 20.3666C47.3719 19.5606 48.0436 19.2919 48.7369 19.2919C49.1399 19.2919 49.3869 19.3699 49.6426 19.3699L49.5386 20.2539ZM46.1456 21.0946C46.0546 21.2419 45.9419 21.4413 45.8769 21.5886C45.8206 21.8703 45.7859 22.2386 45.7859 22.6416C45.7859 22.8106 45.8206 23.0446 45.8986 23.1226H44.8802C45.0579 22.9536 45.1359 21.9006 45.1272 21.5756C44.9929 21.1033 44.8022 20.6439 44.5206 20.0979C44.3429 19.7513 44.1306 19.4263 44.0049 19.3569C44.2302 19.3353 44.5206 19.3223 44.6636 19.3223C44.9192 19.3223 44.9886 19.3569 45.1359 19.6906C45.3829 20.2409 45.5606 20.6526 45.6602 20.9559C45.9159 20.5529 46.0979 20.2713 46.3319 19.8899C46.3882 19.7989 46.4446 19.6776 46.4446 19.5649C46.4446 19.4739 46.4316 19.3743 46.3882 19.3396H47.3979C47.2072 19.4046 46.3362 20.7826 46.1456 21.0946ZM42.6139 20.2409L42.0072 21.5496H42.9866L42.6139 20.2409ZM43.8012 23.1443C43.4762 23.1443 43.4546 23.1313 43.1946 22.2473L43.1036 21.9223C42.9476 22.0003 42.6659 22.0349 42.2282 22.0349H41.7819L41.7039 22.2039C41.5912 22.4509 41.4482 22.7413 41.4482 22.9536C41.4482 22.9969 41.4482 23.0533 41.4699 23.1226H38.8266C38.9739 22.9536 39.0302 22.4076 39.0952 21.4109L39.1082 21.1769C39.1429 20.6049 39.1776 20.1673 39.1776 19.8683C39.1776 19.6126 39.1429 19.4523 39.0779 19.3873H40.0962C39.9489 19.4999 39.8926 20.1023 39.8276 21.0989L39.8059 21.3329C39.7842 21.7013 39.7366 22.0826 39.7366 22.4509C39.7366 22.6199 39.8059 22.6633 39.9836 22.6633C40.5989 22.6633 40.7549 22.6503 41.0366 22.4596C41.2142 22.1346 41.4049 21.7316 41.6086 21.3156L41.8642 20.7566C42.1112 20.2323 42.3582 19.6906 42.3582 19.5909C42.3582 19.5129 42.3366 19.4436 42.3149 19.3786H43.1339C43.1339 19.3786 43.4589 20.6093 43.5369 20.8693L43.6929 21.4629C43.9746 22.4596 44.1392 22.9536 44.3776 23.1313C44.1739 23.1443 43.9052 23.1443 43.8012 23.1443ZM37.1929 23.1876C36.2309 23.1876 35.6676 22.3903 35.6676 21.4976C35.6676 20.2539 36.3392 19.2919 37.6262 19.2919C38.0292 19.2919 38.2199 19.3699 38.5449 19.3699L38.4452 20.3319C38.2676 19.9939 37.9642 19.7729 37.5612 19.7729C36.7639 19.7729 36.4432 20.6353 36.4432 21.3849C36.4432 22.1909 36.8896 22.6373 37.4962 22.6373C37.8212 22.6373 38.1116 22.5463 38.5839 22.2126C38.3932 22.8193 37.9339 23.1876 37.1929 23.1876ZM33.8476 19.8163C33.7566 19.8163 33.6439 19.8163 33.5572 19.8293C33.5226 19.9853 33.5009 20.2669 33.4662 20.7133L33.4446 20.9689C33.4879 20.9819 33.5572 20.9819 33.6136 20.9819C34.0859 20.9819 34.3979 20.7003 34.3979 20.2756C34.4066 19.9853 34.2029 19.8163 33.8476 19.8163ZM35.1996 23.2786C34.9179 23.2786 34.8529 23.2353 34.7619 23.1096L33.7132 21.6536C33.6352 21.5409 33.5659 21.4499 33.4316 21.4499H33.4099L33.3882 21.7316C33.3666 22.1129 33.3536 22.4249 33.3536 22.6503C33.3536 22.9059 33.3882 23.0533 33.4532 23.1226H32.4349C32.5822 22.9883 32.6386 22.5506 32.7166 21.4109L32.7296 21.1769C32.7642 20.6179 32.7989 20.1673 32.7989 19.8683C32.7989 19.5996 32.7642 19.4306 32.6862 19.3743C33.2669 19.3743 34.0642 19.3743 34.0642 19.3743C34.5106 19.3743 35.1389 19.4523 35.1389 20.1933C35.1389 20.7999 34.7359 21.1249 34.2332 21.2809C34.2766 21.3243 34.3676 21.4369 34.4239 21.5063L35.1866 22.5159C35.6589 23.1443 35.7022 23.1746 35.8712 23.2569C35.6719 23.2656 35.3902 23.2786 35.1996 23.2786ZM30.4762 20.2409L29.8696 21.5496H30.8532L30.4762 20.2409ZM31.6636 23.1443C31.3386 23.1443 31.3169 23.1313 31.0569 22.2473L30.9659 21.9223C30.8099 22.0003 30.5282 22.0349 30.0906 22.0349H29.6442L29.5662 22.2039C29.4882 22.3816 29.2976 22.7413 29.3106 22.9536C29.3106 22.9969 29.3106 23.0533 29.3322 23.1226H28.4352C28.6909 22.8669 29.0159 22.2733 29.4666 21.2983L29.7222 20.7393C29.9562 20.2366 30.2162 19.6646 30.2162 19.5736C30.2162 19.4956 30.1946 19.4263 30.1729 19.3613H30.9919C30.9919 19.3613 31.2042 20.1803 31.3949 20.8519L31.5509 21.4456C31.8326 22.4423 31.9972 22.9363 32.2356 23.1139C32.0189 23.1443 31.7632 23.1443 31.6636 23.1443ZM27.0356 19.8076C26.9576 19.8076 26.8666 19.8076 26.7799 19.8206C26.7452 20.0763 26.7106 20.3363 26.7019 20.6179C26.7019 20.6179 26.6889 20.8519 26.6889 20.8433H26.7886C27.2609 20.8433 27.6942 20.6743 27.6942 20.2366C27.6856 19.9853 27.4819 19.8076 27.0356 19.8076ZM26.9142 21.2939H26.6586L26.6239 21.8529C26.6022 22.0999 26.5892 22.2993 26.5892 22.5463C26.5892 22.5809 26.7019 22.6589 26.9489 22.6589C27.4732 22.6589 27.8242 22.4033 27.8242 21.9656C27.8069 21.4759 27.4169 21.2939 26.9142 21.2939ZM26.9792 23.1096H25.6706C25.8396 22.9623 25.8829 22.3946 25.9522 21.3979L25.9652 21.1639C25.9999 20.5919 26.0346 20.1543 26.0346 19.8553C26.0346 19.5996 25.9999 19.4176 25.9219 19.3613H27.3909C27.7376 19.3613 28.4439 19.3829 28.4439 20.1109C28.4439 20.5919 27.9976 20.8953 27.5816 21.0079C28.1622 21.0643 28.5999 21.3459 28.5999 21.9483C28.5826 22.5939 27.9759 23.1096 26.9792 23.1096ZM21.6839 18.6073C21.5366 18.6073 21.5149 18.6289 21.4716 18.6853C21.4499 18.6853 21.4369 18.6853 21.4152 18.6853C21.3026 18.6853 21.1682 18.6983 21.0469 18.7849C20.9342 18.8629 20.8779 18.9973 20.9342 19.0883C20.9342 19.0883 20.9776 19.0319 21.1119 19.0319C21.1336 19.0319 21.1552 19.0319 21.1812 19.0319C21.3719 19.0536 21.5062 19.1533 21.4846 19.4133C21.4716 19.6689 21.3719 19.9636 20.9819 19.9636C20.9819 19.9636 20.9256 19.9636 20.8822 19.9636C20.7046 19.9419 20.6352 19.8293 20.6352 19.8293C20.6352 19.8293 20.7912 19.7859 20.7912 19.5823C20.7912 19.4479 20.6699 19.3136 20.5009 19.2703C20.4446 19.2573 20.3796 19.2486 20.3232 19.2486C20.1196 19.2486 19.8856 19.3396 19.7426 19.5389C19.3959 19.9983 19.3612 20.6829 19.4522 21.3069C19.5432 21.9353 19.9332 22.5159 19.9462 22.5376C19.9592 22.5506 19.9592 22.5593 19.9679 22.5593C19.9679 22.5593 19.9809 22.5593 19.9809 22.5463C20.1499 22.3773 20.3189 22.1563 20.3839 21.9959C20.4619 22.0523 20.4186 22.1866 20.3839 22.3209C20.3492 22.4553 20.2496 22.6459 20.2149 22.7023C20.1802 22.7586 20.1369 22.8236 20.1932 22.8583C20.2062 22.8583 20.2062 22.8713 20.2149 22.8713C20.2929 22.8713 20.4706 22.7369 20.6742 22.4683C20.8996 22.1649 21.0122 21.8963 21.0122 21.8963C21.0252 21.8963 21.0556 21.9309 21.0556 22.0089C21.0556 22.0869 20.9776 22.3773 20.8216 22.6459C20.6656 22.9146 20.5182 23.0836 20.4836 23.1183C20.4619 23.1399 20.4836 23.1529 20.4966 23.1616C20.5096 23.1703 20.7869 23.4303 21.1899 23.6556C21.6709 23.9113 21.8832 23.9589 21.8832 23.9589C21.8832 23.9589 22.0956 23.9156 22.5679 23.6556C22.9709 23.4303 23.2526 23.1746 23.2612 23.1616C23.2742 23.1486 23.2829 23.1399 23.2742 23.1183C23.2526 23.0836 23.1052 22.9146 22.9492 22.6459C22.7932 22.3773 22.7152 22.0869 22.7152 22.0089C22.7152 21.9309 22.7369 21.9093 22.7499 21.8963C22.7499 21.8963 22.8626 22.1649 23.0966 22.4683C23.3002 22.7369 23.4779 22.8713 23.5559 22.8713C23.5689 22.8713 23.5776 22.8713 23.5776 22.8583C23.6339 22.8236 23.5906 22.7586 23.5559 22.7023C23.5212 22.6459 23.4346 22.4553 23.3869 22.3209C23.3436 22.1866 23.3089 22.0523 23.3869 21.9959C23.4562 22.1519 23.6209 22.3773 23.7899 22.5463L23.8029 22.5593C23.8159 22.5593 23.8159 22.5463 23.8246 22.5463C23.8376 22.5246 24.2406 21.9526 24.3186 21.3156C24.4096 20.6873 24.3749 20.0156 24.0282 19.5476C23.8722 19.3439 23.6469 19.2573 23.4346 19.2573C23.3652 19.2573 23.3132 19.2703 23.2569 19.2789C23.0792 19.3353 22.9666 19.4566 22.9666 19.5909C22.9666 19.7946 23.1226 19.8379 23.1226 19.8379C23.1226 19.8379 23.0662 19.9506 22.8756 19.9723C22.8409 19.9723 22.8062 19.9853 22.7759 19.9853C22.6286 19.9853 22.5072 19.9419 22.3946 19.7816C22.2819 19.6256 22.2949 19.3223 22.2819 19.2096C22.2819 19.1099 22.2602 18.8629 22.1476 18.7719C22.0349 18.6723 21.9006 18.6376 21.7316 18.6376C21.7056 18.6073 21.6926 18.6073 21.6839 18.6073ZM19.3959 24.6783H20.4836L21.1336 27.3779H21.1466L22.1302 24.6783H22.9579L23.9546 27.3779H23.9676L24.6176 24.6783H25.7052L24.6652 28.8339H23.5559L22.5592 26.1776H22.5462L21.5366 28.8339H20.4402L19.3959 24.6783ZM25.6922 26.7626C25.6922 25.4756 26.6109 24.5786 27.8979 24.5786C29.1849 24.5786 30.1036 25.4843 30.1036 26.7626C30.1036 28.0496 29.1849 28.9466 27.8979 28.9466C26.6109 28.9466 25.6922 28.0496 25.6922 26.7626ZM29.0636 26.7626C29.0636 25.9999 28.6042 25.4973 27.9109 25.4973C27.2176 25.4973 26.7582 25.9913 26.7582 26.7626C26.7582 27.5253 27.2176 28.0279 27.9109 28.0279C28.6042 28.0149 29.0636 27.5123 29.0636 26.7626ZM30.5326 24.6783H31.6852L33.1066 27.4126H33.1196L34.5409 24.6783H35.6936V28.8339H34.6536V26.3466H34.6406L33.3059 28.8339H32.9246L31.5942 26.3466H31.5812V28.8339H30.5412V24.6783H30.5326ZM36.2656 24.6783H39.4592V25.5969H37.3186V26.3033H39.2556V27.1526H37.3186V27.9153H39.4679V28.8339H36.2656V24.6783ZM39.9619 24.6783H41.0582L42.8826 27.3216H42.8956V24.6783H43.9486V28.8339H42.8522L41.0279 26.1906H41.0149V28.8339H39.9619V24.6783ZM44.4512 26.1473C44.7329 26.0779 44.8109 25.9696 44.8109 25.7009H44.4209V24.6913H45.5172V25.5536C45.5172 26.2036 45.1576 26.6066 44.4512 26.6629V26.1473ZM45.6862 27.4429L46.6829 27.2653C46.8172 27.8459 47.1552 28.0929 47.7922 28.0929C48.2862 28.0929 48.5766 27.9456 48.5766 27.6899C48.5766 27.4559 48.3729 27.3216 47.3546 27.0963C46.3146 26.8623 45.8206 26.4896 45.8206 25.8439C45.8206 25.1029 46.5052 24.5916 47.5582 24.5916C48.5419 24.5916 49.3046 25.0856 49.4952 25.8569L48.4986 26.0823C48.3512 25.6663 48.0392 25.4539 47.5582 25.4539C47.1422 25.4539 46.8736 25.6099 46.8736 25.8353C46.8736 26.0259 47.0642 26.1169 48.0262 26.3379C49.0792 26.5849 49.6296 26.9663 49.6296 27.6813C49.6296 28.4656 48.9146 28.9683 47.7922 28.9683C46.6049 28.9466 45.8422 28.3963 45.6862 27.4429ZM19.3959 31.6679L20.0459 31.5553C20.1369 31.9366 20.3492 32.0926 20.7739 32.0926C21.0989 32.0926 21.2896 31.9929 21.2896 31.8239C21.2896 31.6679 21.1552 31.5769 20.4922 31.4339C19.8076 31.2779 19.4956 31.0439 19.4956 30.6149C19.4956 30.1339 19.9419 29.7873 20.6266 29.7873C21.2766 29.7873 21.7706 30.1123 21.8919 30.6149L21.2419 30.7623C21.1509 30.4936 20.9386 30.3463 20.6266 30.3463C20.3579 30.3463 20.1802 30.4459 20.1802 30.6019C20.1802 30.7233 20.3016 30.7926 20.9299 30.9269C21.6232 31.0829 21.9699 31.3429 21.9699 31.8023C21.9699 32.3179 21.4976 32.6429 20.7696 32.6429C19.9896 32.6516 19.4999 32.2963 19.3959 31.6679ZM22.2516 31.5336V29.8653H22.9449V31.4903C22.9449 31.8803 23.1356 32.0623 23.5169 32.0623C23.8982 32.0623 24.0889 31.8846 24.0889 31.4903V29.8653H24.7822V31.5336C24.7822 32.2486 24.3099 32.6516 23.5169 32.6516C22.7239 32.6516 22.2516 32.2486 22.2516 31.5336ZM25.1549 29.8653H26.6109C27.2046 29.8653 27.6292 30.2119 27.6292 30.8056C27.6292 31.3993 27.2046 31.7373 26.6109 31.7373H25.8482V32.5866H25.1549V29.8653ZM26.5416 31.1393C26.7539 31.1393 26.9316 31.0266 26.9316 30.7926C26.9316 30.5456 26.7626 30.4546 26.5502 30.4546H25.8352V31.1393H26.5416ZM27.8979 29.8653H29.9909V30.4719H28.5912V30.9313H29.8566V31.4903H28.5912V31.9799H29.9909V32.5866H27.8979V29.8653ZM32.8162 32.5736H32.0536L31.4816 31.6766H31.0352V32.5736H30.3419V29.8523H31.7979C32.4046 29.8523 32.8076 30.1903 32.8076 30.7579C32.8076 31.1956 32.5606 31.4989 32.1792 31.6073L32.8162 32.5736ZM31.7416 31.0829C31.9756 31.0829 32.1229 30.9703 32.1229 30.7579C32.1229 30.5456 31.9886 30.4459 31.7416 30.4459H31.0352V31.0829H31.7416ZM34.0036 29.8653H34.6969V31.9799H36.0749V32.5866H34.0036V29.8653ZM36.3869 29.8653H38.4799V30.4719H37.0672V30.9313H38.3326V31.4903H37.0672V31.9799H38.4669V32.5866H36.3739V29.8653H36.3869ZM40.8676 32.1706H39.5676L39.3986 32.5736H38.6836L39.8926 29.8523H40.5296L41.7386 32.5736H41.0236L40.8676 32.1706ZM40.6206 31.5899L40.2176 30.6063H40.2046L39.8016 31.5899H40.6206ZM41.6302 31.2173C41.6302 30.3766 42.2369 29.7829 43.0732 29.7829C43.7319 29.7829 44.2259 30.1513 44.3602 30.6886L43.7232 30.8663C43.6322 30.5759 43.4112 30.3853 43.0862 30.3853C42.6269 30.3853 42.3236 30.7103 42.3236 31.2129C42.3236 31.7069 42.6269 32.0406 43.0862 32.0406C43.4762 32.0406 43.7016 31.8716 43.7232 31.6029H43.1079V31.1089H44.3949V31.4686C44.3949 32.1966 43.8922 32.6429 43.0862 32.6429C42.2239 32.6516 41.6302 32.0579 41.6302 31.2173ZM44.6766 31.5336V29.8653H45.3699V31.4903C45.3699 31.8803 45.5606 32.0623 45.9419 32.0623C46.3232 32.0623 46.5139 31.8846 46.5139 31.4903V29.8653H47.2072V31.5336C47.2072 32.2486 46.7349 32.6516 45.9419 32.6516C45.1489 32.6516 44.6766 32.2486 44.6766 31.5336ZM47.5452 29.8653H49.6382V30.4719H48.2386V30.9313H49.5039V31.4903H48.2386V31.9799H49.6382V32.5866H47.5452V29.8653ZM6.99824 23.6253L9.97957 22.1909L14.3346 24.3099L14.1439 23.0793C14.1092 22.8886 13.9966 22.7326 13.8189 22.6416L11.4312 21.4976L9.96657 20.7913L6.17057 22.6156C5.96691 22.7153 5.82391 22.9059 5.78924 23.1313L5.52057 24.9469L10.0662 27.8026L11.2969 26.9966L6.88557 24.3749L6.99824 23.6253ZM14.7809 27.3346L14.5556 25.8569L10.0532 23.5039L8.70991 24.1539L13.3466 26.6846L13.3899 27.1309L9.97524 29.3713L5.32991 26.2816L5.17391 27.3346C5.13924 27.5599 5.24324 27.7723 5.42091 27.8936L9.97957 30.9616L14.5382 27.8936C14.7159 27.7679 14.8156 27.5469 14.7809 27.3346ZM4.34191 24.2189L3.17624 23.4779L3.53591 21.0686L9.96657 17.9919L16.4059 21.0729L17.0559 25.4193L15.6909 24.8039L15.2662 21.9266L9.96657 19.3916L4.69291 21.9223L4.34191 24.2189ZM17.5716 28.8989L9.96657 34.0079L2.36157 28.8989L2.95524 24.9339L4.12091 25.6836L3.72657 28.2966L9.95357 32.4869L16.1806 28.2966L15.8772 26.2339L17.2552 26.8926L17.5716 28.8989Z" fill="white"/>
</svg>
