<svg width="52" height="52" viewBox="0 0 52 52" fill="none" xmlns="http://www.w3.org/2000/svg">
<path d="M20.501 16.2587H21.3113L21.7966 18.2607H21.8053L22.542 16.2587H23.1573L23.8983 18.2607H23.907L24.3923 16.2587H25.2026L24.4226 19.3397H23.5993L22.854 17.3723H22.8453L22.0956 19.3397H21.281L20.501 16.2587ZM26.351 16.926C25.5623 16.926 24.9946 17.4547 24.9946 18.1783C24.9946 18.902 25.5623 19.4307 26.351 19.4307C27.1396 19.4307 27.7073 18.902 27.7073 18.1783C27.7073 17.4547 27.1396 16.926 26.351 16.926ZM26.351 18.759C25.987 18.759 25.7573 18.5077 25.7573 18.174C25.7573 17.836 25.987 17.589 26.351 17.589C26.7106 17.589 26.9446 17.836 26.9446 18.174C26.9446 18.512 26.7106 18.759 26.351 18.759ZM27.924 17.0083H28.626V17.225H28.6346C28.795 17.043 29.0506 16.9433 29.3453 16.9433C29.64 16.9433 29.9216 17.0603 30.0863 17.2597H30.095C30.2943 17.056 30.576 16.9433 30.8836 16.9433C31.5076 16.9433 31.9756 17.355 31.9756 17.94V19.344H31.2346V18.0527C31.2346 17.7667 31.0483 17.589 30.771 17.589C30.4893 17.589 30.2986 17.771 30.2986 18.0527V19.344H29.5966V18.0527C29.5966 17.7667 29.4103 17.589 29.133 17.589C28.8513 17.589 28.6606 17.771 28.6606 18.0527V19.344H27.9196V17.0083H27.924ZM34.7836 18.1783C34.7836 17.4633 34.2463 16.9217 33.4706 16.9217C32.7123 16.9217 32.149 17.459 32.149 18.1783C32.149 18.9323 32.669 19.4263 33.4923 19.4263C33.9776 19.4263 34.3286 19.279 34.645 18.9843L34.2203 18.499C33.9863 18.72 33.7566 18.824 33.514 18.824C33.1413 18.824 32.9203 18.6637 32.8986 18.3993H34.7793V18.1783H34.7836ZM32.9073 17.901C32.9376 17.6627 33.1673 17.5023 33.4793 17.5023C33.8 17.5023 34.0123 17.654 34.0426 17.901H32.9073ZM35.0913 17.0083H35.828V17.225H35.8366C36.0403 17.0387 36.3176 16.9433 36.621 16.9433C37.3013 16.9433 37.7563 17.3897 37.7563 18.0527V19.344H36.9936V18.1393C36.9936 17.8013 36.7943 17.6107 36.439 17.6107C36.088 17.6107 35.854 17.823 35.854 18.1393V19.344H35.0913V17.0083ZM37.9513 17.342C38.1636 17.2943 38.22 17.212 38.22 17.0083H37.9253V16.2587H38.74V16.9C38.74 17.3853 38.4756 17.68 37.9513 17.719V17.342ZM38.7486 18.6377L39.4636 18.434C39.5416 18.6983 39.7843 18.837 40.1526 18.837C40.4603 18.837 40.6336 18.7807 40.6336 18.6767C40.6336 18.564 40.4993 18.5033 40.0356 18.434C39.2166 18.3127 38.883 18.096 38.883 17.6713C38.883 17.2207 39.338 16.9173 40.027 16.9173C40.6466 16.9173 41.171 17.2077 41.3096 17.6237L40.6206 17.8273C40.5426 17.628 40.2956 17.498 39.9966 17.498C39.7496 17.498 39.611 17.5587 39.611 17.6627C39.611 17.7623 39.7236 17.81 40.2306 17.888C41.0323 18.018 41.3746 18.226 41.3746 18.6637C41.3746 19.1317 40.898 19.4263 40.1223 19.4263C39.4246 19.4263 38.8786 19.11 38.7486 18.6377ZM14.6076 17.9097C14.6206 17.758 14.729 17.6497 14.8893 17.6497C15.054 17.6497 15.1493 17.7623 15.171 17.9097H14.6076ZM18.8413 16.2587H10.6296V19.3397H19.6213L18.8413 16.2587ZM12.545 17.29H12.1333V18.655H11.7303V17.29H11.2753V16.9433H12.6793L12.545 17.29ZM14.066 18.655H13.6933V17.992C13.6933 17.914 13.6846 17.8663 13.6673 17.8187C13.6413 17.758 13.5893 17.7103 13.4896 17.7103C13.3683 17.7103 13.247 17.797 13.182 17.8533V18.655H12.8093V16.9433H13.182V17.5327C13.2946 17.446 13.4203 17.381 13.598 17.381C13.8146 17.381 13.9663 17.4807 14.027 17.654C14.0486 17.719 14.0616 17.7927 14.0616 17.9183V18.655H14.066ZM15.5046 18.1523H14.6033C14.625 18.317 14.742 18.421 14.9716 18.421C15.158 18.421 15.3226 18.3777 15.418 18.343L15.3183 18.629C15.2316 18.6637 15.1103 18.694 14.9283 18.694C14.5123 18.694 14.2696 18.4427 14.2696 18.0397C14.2696 17.6453 14.5123 17.3853 14.898 17.3853C15.3096 17.381 15.548 17.7147 15.5046 18.1523ZM16.315 18.031V18.6593H15.9163V16.9433H17.2466L17.1166 17.29H16.315V17.6713H16.9693L16.8306 18.031H16.315ZM18.278 18.655L18.1653 18.317H17.459L17.3376 18.655H16.9346L17.589 16.9433H18.057L18.6983 18.655H18.278ZM17.576 17.979L17.8056 17.3333H17.8186L18.044 17.979H17.576Z" fill="white"/>
<path d="M9.29932 30.5326H10.283V33.5357H12.2546V34.398H9.30365V30.5326H9.29932ZM12.4756 32.9376C12.4756 32.0363 13.182 31.3647 14.131 31.3647C15.1016 31.3647 15.7733 32.045 15.7733 32.9376V33.2193H13.416C13.442 33.5486 13.7193 33.748 14.1873 33.748C14.4906 33.748 14.7766 33.6137 15.0713 33.3407L15.6 33.9473C15.2013 34.3157 14.7593 34.4976 14.1526 34.4976C13.13 34.4976 12.4756 33.8823 12.4756 32.9376ZM14.8503 32.591C14.8113 32.2746 14.547 32.0883 14.144 32.0883C13.754 32.0883 13.4636 32.292 13.4246 32.591H14.8503ZM15.9683 33.5703C15.9683 33.033 16.354 32.7557 17.2856 32.6257C17.8316 32.5477 17.992 32.4697 17.992 32.3267C17.992 32.1663 17.8056 32.0623 17.524 32.0623C17.16 32.0623 16.9 32.2487 16.835 32.5607L15.964 32.4047C16.068 31.7937 16.705 31.3603 17.498 31.3603C18.4036 31.3603 18.967 31.824 18.967 32.5693V34.3893H18.1003V34.1033H18.0873C17.8663 34.346 17.5196 34.4803 17.0906 34.4803C16.406 34.476 15.9683 34.125 15.9683 33.5703ZM18.044 33.2843V32.994H18.031C17.9703 33.0807 17.8316 33.137 17.4806 33.2107C17.0386 33.2973 16.8913 33.3753 16.8913 33.527C16.8913 33.6787 17.0257 33.748 17.2986 33.748C17.706 33.7437 18.044 33.5313 18.044 33.2843ZM19.435 35.0437L20.0806 34.476C20.3796 34.814 20.6396 34.9397 21.0426 34.9397C21.4846 34.9397 21.7966 34.6753 21.7966 34.2897V34.0817H21.7836C21.606 34.2983 21.2766 34.424 20.8606 34.424C19.9376 34.424 19.3006 33.8043 19.3006 32.929C19.3006 32.058 19.9636 31.4167 20.8563 31.4167C21.2246 31.4167 21.5757 31.5337 21.7836 31.7417H21.7966V31.473H22.7023V34.294C22.7023 35.1433 22.0176 35.7457 21.0426 35.7457C20.3666 35.7413 19.799 35.49 19.435 35.0437ZM21.7446 33.0676V32.7817C21.7446 32.4913 21.4197 32.24 21.0253 32.24C20.5573 32.24 20.254 32.5087 20.254 32.9247C20.254 33.345 20.5443 33.6093 21.021 33.6093C21.4283 33.6093 21.7446 33.3666 21.7446 33.0676ZM23.0057 33.163V31.4687H23.959V32.9593C23.959 33.4056 24.1583 33.6223 24.6003 33.6223C25.012 33.6223 25.2893 33.358 25.2893 32.9593V31.4687H26.2426V34.3937H25.3153V34.112H25.3067C25.0683 34.359 24.7563 34.476 24.3446 34.476C23.517 34.476 23.0057 33.969 23.0057 33.163ZM26.6066 32.9376C26.6066 32.0363 27.313 31.3647 28.262 31.3647C29.2327 31.3647 29.9043 32.045 29.9043 32.9376V33.2193H27.547C27.573 33.5486 27.8503 33.748 28.3183 33.748C28.6216 33.748 28.9076 33.6137 29.2023 33.3407L29.731 33.9473C29.3323 34.3157 28.8903 34.4976 28.2836 34.4976C27.2566 34.4976 26.6066 33.8823 26.6066 32.9376ZM28.9813 32.591C28.9423 32.2746 28.678 32.0883 28.275 32.0883C27.885 32.0883 27.5947 32.292 27.5557 32.591H28.9813ZM31.4557 32.461C31.4557 31.265 32.318 30.4243 33.5183 30.4243C34.4543 30.4243 35.1866 30.9487 35.3686 31.7633L34.4586 32.0103C34.333 31.551 34.008 31.2823 33.5226 31.2823C32.8727 31.2823 32.4393 31.7503 32.4393 32.4567C32.4393 33.163 32.8683 33.631 33.5226 33.631C34.0123 33.631 34.3633 33.3493 34.4846 32.825L35.4076 33.0503C35.2386 33.9603 34.4846 34.489 33.527 34.489C32.318 34.4977 31.4557 33.6613 31.4557 32.461ZM35.6763 33.163V31.4687H36.6296V32.9593C36.6296 33.4056 36.829 33.6223 37.271 33.6223C37.6826 33.6223 37.96 33.358 37.96 32.9593V31.4687H38.9133V34.3937H37.986V34.112H37.973C37.7346 34.359 37.4226 34.476 37.011 34.476C36.192 34.476 35.6763 33.969 35.6763 33.163ZM39.3553 31.4687H40.261V31.733H40.274C40.5167 31.5033 40.8243 31.4037 41.1753 31.4037C42.0463 31.4037 42.705 32.084 42.705 32.9376C42.705 33.813 42.0723 34.476 41.1926 34.476C40.8633 34.476 40.534 34.3677 40.326 34.19H40.313V35.6373H39.3596V31.4687H39.3553ZM41.7473 32.9247C41.7473 32.5217 41.4483 32.2357 41.015 32.2357C40.625 32.2357 40.313 32.4827 40.313 32.7817V33.098C40.313 33.4013 40.5816 33.6483 41.0193 33.6483C41.444 33.6483 41.7473 33.358 41.7473 32.9247Z" fill="white"/>
<path d="M49.6382 27.5903H43.2422V27.3823H49.6382V27.5903ZM46.4359 26.3727L47.0382 25.7963L47.2852 26.0433L46.6352 26.5937C46.5832 26.6587 46.5442 26.7627 46.5096 26.8277H46.0329C46.0632 26.6543 46.3146 26.4333 46.4359 26.3727ZM44.4252 22.6937C44.4036 22.698 43.9269 22.8323 43.9269 22.8323C43.9269 22.8323 43.7059 22.919 43.6062 22.984C43.5066 23.049 43.3982 23.1617 43.3896 23.218L43.8142 23.3177C43.8792 23.244 43.9529 23.166 44.0179 23.114L44.1176 23.0663L44.4729 22.7067C44.4729 22.7067 44.4599 22.6893 44.4252 22.6937ZM47.3199 23.868C47.0469 23.5647 46.8172 23.2873 46.5919 22.9537C46.7349 22.6763 46.8389 21.9527 46.7739 21.671C46.7479 21.5843 46.5139 21.2723 46.4706 21.2247C46.4099 21.164 46.2236 20.9517 46.1282 20.9517C46.1066 20.9517 46.0892 20.9603 46.0806 20.9647L46.1066 21.2073C45.8509 21.372 45.5172 21.593 45.2182 21.814C45.2182 21.9007 45.2269 22.0307 45.2312 22.074C45.2789 22.113 45.3309 22.1477 45.3872 22.165C45.5042 22.1433 45.8726 22.0523 45.9679 22.0653L45.6082 22.607L45.1966 22.9017L44.6809 22.737C44.6462 22.7283 44.6159 22.737 44.5942 22.763L44.2129 23.1747C44.1912 23.192 44.1782 23.2137 44.1782 23.2613L44.1652 23.725C44.1652 23.725 44.1566 23.7987 44.1566 23.8767C44.1566 24.2103 44.3082 24.3663 44.3082 24.3663L44.5552 24.0067C44.5206 23.9547 44.4642 23.8117 44.4512 23.7467C44.4512 23.7337 44.4599 23.348 44.4599 23.348L44.7026 23.1703L45.3439 23.621C45.3439 23.621 45.5216 23.9503 45.6906 24.1453C45.8032 24.284 46.3579 24.6567 46.6266 24.8127C46.6526 24.9557 46.7132 25.194 46.7566 25.3153L47.5409 26.1213L47.0772 26.702C46.9126 26.806 46.7566 26.9967 46.7696 27.1743H47.3069L47.3676 26.8667L48.0089 26.1517C48.0436 26.1127 48.0436 26.091 48.0219 26.0347L47.8399 25.4193C47.9309 25.3153 48.1259 25.051 48.1259 24.739C48.1389 24.1757 47.5149 24.0327 47.3199 23.868ZM48.3296 24.817C48.2906 24.6653 48.2299 24.4963 48.1866 24.4097C48.1866 24.4097 48.2126 24.3837 48.2646 24.4183C48.3166 24.453 48.6502 24.6783 48.6502 24.6783C48.8192 24.9253 48.9232 25.948 48.9319 26.3163C48.7759 26.2427 48.5506 26.1213 48.4076 25.9827L48.3296 24.817ZM31.7112 24.596C31.7112 24.2017 31.5856 23.894 31.2476 23.894C30.9052 23.894 30.7709 24.2017 30.7709 24.596V27.183H31.1696V27.5947H28.9812V27.183H29.3886V23.6167H28.9812V23.218H30.7016V23.8853H30.7232C30.8879 23.517 31.2649 23.1313 31.8759 23.1313C32.5172 23.1313 32.9116 23.5257 33.0329 24.0413C33.0806 24.245 33.0936 24.5787 33.0936 24.7477V27.1787H33.6179V27.5903H31.7112V24.596ZM22.8799 24.596C22.8799 24.2017 22.7542 23.894 22.4162 23.894C22.0739 23.894 21.9396 24.2017 21.9396 24.596V27.183H22.3382V27.5947H20.1499V27.183H20.5572V23.6167H20.1499V23.218H21.8702V23.8853H21.8919C22.0566 23.517 22.4336 23.1313 23.0446 23.1313C23.6859 23.1313 24.0802 23.5257 24.2016 24.0413C24.2492 24.245 24.2622 24.5787 24.2622 24.7477V27.1787H24.7866V27.5903H22.8799V24.596ZM35.4682 23.6167V26.8493C35.4682 27.0703 35.6112 27.1223 35.7499 27.1223C35.8799 27.1223 36.0056 27.0747 36.0056 27.0747V27.4733C36.0056 27.4733 35.7456 27.638 35.1606 27.638C34.4802 27.638 34.0816 27.3043 34.0816 26.598V23.6167H33.6179V23.322C34.1336 22.9103 34.7359 22.438 35.2169 22.0393H35.4726V23.218H36.1399V23.6167H35.4682ZM8.18124 20.9473C8.18124 20.9473 9.23424 22.0003 9.71957 22.5463V22.958C9.26891 22.4813 8.33291 22.0827 7.46191 22.0827C5.49024 22.0827 4.25524 23.569 4.25524 25.4063C4.25524 27.2393 5.42524 28.7257 7.46191 28.7257C8.47591 28.7257 9.28624 28.249 9.74124 27.755V28.1493C9.12591 28.9943 7.99924 29.5447 6.59957 29.5447C4.09057 29.5447 2.36157 27.7247 2.36157 25.4063C2.36157 23.088 4.28124 21.2767 6.59957 21.2767C7.18891 21.2767 7.71757 21.3763 8.18557 21.541V20.9473H8.18124ZM28.3486 26.429C28.1536 26.6587 27.8459 26.8363 27.3866 26.8363C26.9879 26.8363 26.3726 26.6153 26.3466 25.6013H28.6822C28.6866 25.5233 28.6952 25.3673 28.6952 25.285C28.6952 24.0543 28.1926 23.1357 26.8752 23.1357C25.5536 23.1357 24.8776 24.1497 24.8776 25.415C24.8776 26.6803 25.5536 27.6727 26.8752 27.6727C27.7246 27.6727 28.2619 27.274 28.5782 26.6457L28.3486 26.429ZM26.3422 25.168C26.3422 24.0153 26.4332 23.582 26.8276 23.582C27.2262 23.582 27.3042 24.0023 27.3172 25.168H26.3422ZM7.04157 25.3933C7.04157 24.0587 7.16724 23.4693 7.61791 23.4693C8.06857 23.4693 8.19424 24.0587 8.19424 25.3933C8.19424 26.728 8.06857 27.3173 7.61791 27.3173C7.16724 27.3173 7.04157 26.728 7.04157 25.3933ZM5.42091 25.4063C5.42091 26.728 6.23124 27.8027 7.62224 27.8027C9.00891 27.8027 9.82357 26.728 9.82357 25.4063C9.82357 24.0847 9.01324 23.01 7.62224 23.01C6.23124 23.01 5.42091 24.0847 5.42091 25.4063ZM12.9176 24.596C12.9176 24.2017 12.7919 23.894 12.4539 23.894C12.1116 23.894 11.9772 24.2017 11.9772 24.596V27.183H12.3759V27.5947H10.1832V27.183H10.5906V23.6167H10.1832V23.218H11.9036V23.8853H11.9252C12.0899 23.517 12.4669 23.1313 13.0779 23.1313C13.7192 23.1313 14.1136 23.5257 14.2349 24.0413C14.2826 24.245 14.2956 24.5787 14.2956 24.7477V27.1787H14.8199V27.5903H12.9132V24.596H12.9176ZM17.8662 22.061C17.8662 22.4467 18.2129 22.7023 18.7112 22.7023C19.2096 22.7023 19.5562 22.4467 19.5562 22.061C19.5562 21.6753 19.2096 21.4197 18.7112 21.4197C18.2172 21.4197 17.8662 21.6753 17.8662 22.061ZM16.6746 23.6167V26.8493C16.6746 27.0703 16.8176 27.1223 16.9562 27.1223C17.0862 27.1223 17.2119 27.0747 17.2119 27.0747V27.4733C17.2119 27.4733 16.9519 27.638 16.3669 27.638C15.6866 27.638 15.2879 27.3043 15.2879 26.598V23.6167H14.8199V23.322C15.3356 22.9103 15.9379 22.438 16.4189 22.0393H16.6746V23.218H17.2119V23.6167H16.6746ZM42.2152 27.1787H42.7526V27.5903H40.8329V22.0003H40.3562V21.6017H42.2152V27.1787ZM38.5189 25.4237C38.4799 25.3847 38.3932 25.3327 38.2199 25.3327C37.8082 25.3327 37.7172 25.74 37.7172 26.156C37.7172 26.5677 37.8429 26.9013 38.1939 26.9013C38.3629 26.9013 38.4669 26.8277 38.5232 26.7713V25.4237H38.5189ZM38.5796 27.0703H38.5579C38.3022 27.43 37.9642 27.6727 37.4399 27.6727C36.7249 27.6727 36.2829 27.0617 36.2829 26.338C36.2829 25.4627 36.9069 24.9037 37.8992 24.9037C38.3066 24.9037 38.5232 24.9947 38.5232 24.9947V24.7173C38.5232 24.1887 38.1939 23.907 37.7172 23.907C37.0542 23.907 36.7162 24.4183 36.7162 24.4183L36.4736 24.1237C36.9112 23.4433 37.5872 23.1357 38.2156 23.1357C39.2772 23.1357 39.9056 23.764 39.9056 24.7217V27.183H40.3519V27.5947H38.5839V27.0703H38.5796ZM17.6149 27.5947V27.183H18.0136V23.6167H17.6149V23.218H19.3959V27.1787H19.8032V27.5903H17.6149V27.5947Z" fill="white"/>
</svg>
