<svg width="52" height="52" viewBox="0 0 52 52" fill="none" xmlns="http://www.w3.org/2000/svg">
<path d="M40.9282 3.96936C40.7722 3.69203 40.4386 3.47969 40.0832 3.47969C39.7626 3.47969 39.4809 3.61403 39.4809 3.94769C39.4809 4.23803 39.8362 4.42436 40.2046 4.65836C40.6032 4.91403 41.0192 5.21303 41.0192 5.75036C41.0192 6.45236 40.3389 6.87269 39.5502 6.87269C39.2296 6.87269 38.8916 6.80769 38.5059 6.66036L38.5709 5.72436C38.7486 6.09269 39.0952 6.39169 39.6066 6.39169C39.9966 6.39169 40.2869 6.20103 40.2869 5.88036C40.2869 5.60303 40.0529 5.42536 39.7626 5.25636C39.1516 4.88803 38.7702 4.59769 38.7702 4.06469C38.7702 3.27603 39.4376 3.00736 40.1266 3.00736C40.5252 3.00736 40.7722 3.08536 41.0279 3.08536L40.9282 3.96936ZM37.5525 4.80569C37.4615 4.94869 37.3532 5.15236 37.2839 5.29536C37.2276 5.57269 37.1929 5.94103 37.1929 6.33969C37.1929 6.50869 37.2276 6.73836 37.3056 6.80769H36.2916C36.4692 6.63869 36.5472 5.60736 36.5386 5.27369C36.4042 4.80569 36.2179 4.35936 35.9362 3.81336C35.7586 3.46669 35.5462 3.14603 35.4249 3.08969C35.6459 3.06803 35.9362 3.05503 36.0836 3.05503C36.3392 3.05503 36.4042 3.08969 36.5516 3.42336C36.7986 3.96936 36.9762 4.38103 37.0759 4.68003C37.3316 4.28136 37.5092 3.99969 37.7432 3.63569C37.7996 3.54469 37.8559 3.42336 37.8559 3.31503C37.8559 3.22403 37.8429 3.13736 37.7996 3.09403H38.8006C38.6099 3.13736 37.7432 4.50669 37.5525 4.80569ZM34.0469 3.96069L33.4446 5.25203H34.4109L34.0469 3.96069ZM35.2256 6.84236C34.9049 6.84236 34.8789 6.82936 34.6232 5.94969L34.5322 5.62903C34.3762 5.69403 34.0989 5.74169 33.6656 5.74169H33.2192L33.1412 5.91069C33.0286 6.15769 32.8856 6.44369 32.8856 6.64736C32.8856 6.69069 32.8856 6.74703 32.9072 6.81636H30.2812C30.4242 6.64736 30.4806 6.10569 30.5499 5.11336L30.5629 4.87936C30.5976 4.31169 30.6279 3.87836 30.6279 3.57503C30.6279 3.31936 30.5932 3.16336 30.5282 3.09836H31.5422C31.3992 3.21103 31.3429 3.80903 31.2736 4.78836L31.2519 5.02236C31.2302 5.39069 31.1869 5.76769 31.1869 6.13603C31.1869 6.30503 31.2519 6.34836 31.4339 6.34836C32.0449 6.34836 32.2009 6.33536 32.4782 6.14903C32.6559 5.82836 32.8466 5.42536 33.0459 5.01369L33.3016 4.45903C33.5486 3.93469 33.7912 3.41469 33.7912 3.30203C33.7912 3.22403 33.7696 3.15903 33.7479 3.08969H34.5625C34.5625 3.08969 34.8832 4.30303 34.9612 4.57169L35.1172 5.16103C35.3946 6.15336 35.5636 6.63003 35.7976 6.82069C35.5939 6.84236 35.3296 6.84236 35.2256 6.84236ZM28.6606 6.88569C27.7029 6.88569 27.1482 6.09703 27.1482 5.20436C27.1482 3.96936 27.8156 3.01169 29.0982 3.01169C29.4969 3.01169 29.6876 3.08969 30.0126 3.08969L29.9129 4.03436C29.7352 3.70069 29.4362 3.47969 29.0332 3.47969C28.2446 3.47969 27.9196 4.33769 27.9196 5.07003C27.9196 5.87169 28.3659 6.30503 28.9639 6.30503C29.2846 6.30503 29.5749 6.21403 30.0429 5.88036C29.8522 6.52169 29.3929 6.88569 28.6606 6.88569ZM25.3326 3.54903C25.2416 3.54903 25.1332 3.54903 25.0422 3.56203C25.0076 3.71803 24.9859 3.99536 24.9512 4.44169L24.9296 4.69736C24.9729 4.71036 25.0422 4.71036 25.0986 4.71036C25.5666 4.71036 25.8786 4.43303 25.8786 4.00836C25.8872 3.71369 25.6879 3.54903 25.3326 3.54903ZM26.6802 6.97669C26.4029 6.97669 26.3336 6.93336 26.2469 6.80769L25.2026 5.36036C25.1246 5.24769 25.0596 5.16103 24.9252 5.16103H24.9036L24.8819 5.43836C24.8602 5.81536 24.8472 6.12736 24.8472 6.35269C24.8472 6.60836 24.8819 6.75136 24.9469 6.82069H23.9329C24.0759 6.68636 24.1322 6.25303 24.2102 5.11769L24.2232 4.88369C24.2579 4.32903 24.2882 3.89136 24.2882 3.59236C24.2882 3.32369 24.2536 3.15903 24.1756 3.10269C24.7562 3.10269 25.5449 3.10269 25.5449 3.10269C25.9912 3.10269 26.6152 3.18069 26.6152 3.90436C26.6152 4.50669 26.2166 4.82736 25.7139 4.98336C25.7572 5.02669 25.8482 5.13936 25.9046 5.20436L26.6629 6.20536C27.1309 6.82936 27.1742 6.85103 27.3432 6.94203C27.1482 6.96369 26.8666 6.97669 26.6802 6.97669ZM21.9829 3.96069L21.3806 5.25203H22.3599L21.9829 3.96069ZM23.1616 6.84236C22.8409 6.84236 22.8149 6.82936 22.5592 5.94969L22.4682 5.62903C22.3122 5.69403 22.0349 5.74169 21.6016 5.74169H21.1552L21.0772 5.91069C20.9992 6.08836 20.8086 6.44369 20.8216 6.64736C20.8216 6.69069 20.8216 6.74703 20.8432 6.81636H19.9506C20.2062 6.56069 20.5312 5.97136 20.9732 5.01369L21.2289 4.45903C21.4629 3.95636 21.7186 3.38869 21.7186 3.30203C21.7186 3.22403 21.6969 3.15903 21.6752 3.08969H22.4899C22.4899 3.08969 22.7022 3.89136 22.8886 4.57169L23.0446 5.16103C23.3219 6.15336 23.4909 6.63003 23.7249 6.82069C23.5169 6.84236 23.2612 6.84236 23.1616 6.84236ZM18.5639 3.53603C18.4859 3.53603 18.3949 3.53603 18.3082 3.54903C18.2736 3.80469 18.2432 4.06036 18.2302 4.33769C18.2302 4.33769 18.2172 4.57169 18.2172 4.55869H18.3169C18.7849 4.55869 19.2182 4.38969 19.2182 3.95636C19.2096 3.71369 19.0102 3.53603 18.5639 3.53603ZM18.4426 5.01803H18.1869L18.1522 5.56403C18.1306 5.81103 18.1176 6.01036 18.1176 6.24436C18.1176 6.27903 18.2302 6.35703 18.4729 6.35703C18.9972 6.35703 19.3396 6.10136 19.3396 5.66803C19.3309 5.18269 18.9409 5.01803 18.4426 5.01803ZM18.5076 6.80769H17.2032C17.3722 6.66469 17.4156 6.09703 17.4806 5.10469L17.4936 4.87069C17.5282 4.30303 17.5586 3.86969 17.5586 3.56636C17.5586 3.31069 17.5239 3.13303 17.4459 3.07669H18.9062C19.2529 3.07669 19.9506 3.09836 19.9506 3.82203C19.9506 4.29869 19.5042 4.60203 19.0926 4.71036C19.6732 4.76669 20.1066 5.04403 20.1066 5.64636C20.1022 6.29636 19.4999 6.80769 18.5076 6.80769ZM13.2426 2.34436C13.0996 2.34436 13.0736 2.36603 13.0302 2.42236C13.0086 2.42236 12.9956 2.42236 12.9739 2.42236C12.8612 2.42236 12.7269 2.43536 12.6056 2.51336C12.4929 2.59136 12.4366 2.72569 12.4929 2.81236C12.4929 2.81236 12.5362 2.75603 12.6706 2.75603C12.6922 2.75603 12.7139 2.75603 12.7356 2.75603C12.9262 2.77769 13.0562 2.87736 13.0346 3.13303C13.0216 3.38869 12.9219 3.67903 12.5319 3.67903C12.5319 3.67903 12.4756 3.67903 12.4322 3.67903C12.2546 3.65736 12.1852 3.54469 12.1852 3.54469C12.1852 3.54469 12.3412 3.50136 12.3412 3.29769C12.3412 3.16336 12.2199 3.02903 12.0509 2.98569C11.9946 2.97269 11.9296 2.96403 11.8732 2.96403C11.6739 2.96403 11.4399 3.05503 11.2926 3.25436C10.9459 3.70936 10.9156 4.37669 11.0022 5.00069C11.0932 5.62469 11.4789 6.20103 11.4919 6.21403C11.5049 6.22703 11.5049 6.23569 11.5136 6.23569C11.5136 6.23569 11.5266 6.23569 11.5266 6.22269C11.6956 6.05369 11.8602 5.83269 11.9252 5.67669C12.0032 5.73303 11.9599 5.86736 11.9252 5.99736C11.8906 6.13169 11.7909 6.31803 11.7562 6.37436C11.7216 6.43069 11.6782 6.49569 11.7346 6.53036C11.7476 6.53036 11.7476 6.54336 11.7562 6.54336C11.8342 6.54336 12.0119 6.40903 12.2112 6.14469C12.4322 5.84569 12.5449 5.57703 12.5449 5.57703C12.5579 5.57703 12.5882 5.61169 12.5882 5.68969C12.5882 5.76769 12.5102 6.05803 12.3542 6.32236C12.1982 6.58669 12.0552 6.75569 12.0206 6.79036C11.9989 6.81203 12.0206 6.82503 12.0336 6.83369C12.0466 6.84236 12.3239 7.10236 12.7226 7.31036C13.1992 7.56603 13.4116 7.60936 13.4116 7.60936C13.4116 7.60936 13.6239 7.56603 14.0919 7.31036C14.4906 7.08936 14.7722 6.83369 14.7809 6.82069C14.7939 6.80769 14.8026 6.79903 14.7939 6.77736C14.7722 6.74269 14.6249 6.57803 14.4732 6.30936C14.3216 6.04069 14.2566 5.76336 14.2566 5.68536C14.2566 5.60736 14.2782 5.58569 14.2912 5.57269C14.2912 5.57269 14.4039 5.84136 14.6379 6.14036C14.8372 6.40903 15.0149 6.53903 15.0929 6.53903C15.1059 6.53903 15.1146 6.53903 15.1146 6.52603C15.1709 6.49136 15.1276 6.42636 15.0929 6.37003C15.0582 6.31369 14.9716 6.12303 14.9239 5.99303C14.8806 5.85869 14.8459 5.72436 14.9239 5.67236C14.9889 5.82836 15.1579 6.04936 15.3226 6.21836L15.3356 6.23136C15.3486 6.23136 15.3486 6.21836 15.3572 6.21836C15.3702 6.19669 15.7689 5.62903 15.8469 5.00503C15.9379 4.38103 15.9032 3.71369 15.5566 3.25869C15.4006 3.05936 15.1796 2.96836 14.9672 2.96836C14.9022 2.96836 14.8459 2.98136 14.7896 2.99003C14.6119 3.04636 14.4992 3.16769 14.4992 3.30203C14.4992 3.50136 14.6552 3.54903 14.6552 3.54903C14.6552 3.54903 14.5989 3.66169 14.4082 3.68336C14.3736 3.68336 14.3432 3.69636 14.3086 3.69636C14.1656 3.69636 14.0399 3.65303 13.9316 3.49703C13.8189 3.34103 13.8319 3.04203 13.8189 2.92936C13.8189 2.82969 13.7972 2.58269 13.6846 2.49603C13.5719 2.39636 13.4376 2.36169 13.2729 2.36169C13.2642 2.34436 13.2556 2.34436 13.2426 2.34436ZM10.9719 8.36769H12.0509L12.6966 11.0414H12.7096L13.6889 8.36769H14.5122L15.5046 11.0414H15.5176L16.1632 8.36769H17.2422L16.2066 12.4844H15.1059L14.1136 9.85836H14.1006L13.0996 12.4844H12.0076L10.9719 8.36769ZM17.2292 10.426C17.2292 9.14769 18.1436 8.25503 19.4219 8.25503C20.7002 8.25503 21.6146 9.14769 21.6146 10.426C21.6146 11.7044 20.7002 12.597 19.4219 12.597C18.1392 12.5884 17.2292 11.6957 17.2292 10.426ZM20.5789 10.426C20.5789 9.66769 20.1239 9.17803 19.4306 9.17803C18.7416 9.17803 18.2822 9.66769 18.2822 10.426C18.2822 11.1844 18.7372 11.674 19.4306 11.674C20.1239 11.674 20.5789 11.1714 20.5789 10.426ZM22.0392 8.36769H23.1832L24.5959 11.0717H24.6089L26.0216 8.36769H27.1699V12.4844H26.1342V10.0144H26.1212L24.7952 12.4844H24.4182L23.0922 10.0144H23.0792V12.4844H22.0436V8.36769H22.0392ZM27.7376 8.36769H30.9096V9.28203H28.7819V9.98403H30.7059V10.8204H28.7819V11.5787H30.9182V12.493H27.7332L27.7376 8.36769ZM31.4079 8.36769H32.4999L34.3156 10.985H34.3286V8.36769H35.3729V12.4844H34.2809L32.4652 9.86703H32.4566V12.4844H31.4122V8.36769H31.4079ZM35.8712 9.81503C36.1486 9.75003 36.2266 9.63736 36.2266 9.36869H35.8366V8.36769H36.9286V9.22569C36.9286 9.87136 36.5732 10.2614 35.8712 10.3177V9.81503ZM37.0975 11.0934L38.0899 10.9157C38.2242 11.4964 38.5579 11.7304 39.1906 11.7304C39.6802 11.7304 39.9706 11.5874 39.9706 11.3317C39.9706 11.0977 39.7712 10.9634 38.7572 10.7424C37.7216 10.5084 37.2319 10.14 37.2319 9.50736C37.2319 8.78369 37.9122 8.25936 38.9566 8.25936C39.9359 8.25936 40.6942 8.74903 40.8806 9.50736L39.8882 9.72836C39.7452 9.31669 39.4332 9.10436 38.9522 9.10436C38.5406 9.10436 38.2719 9.26036 38.2719 9.48136C38.2719 9.67203 38.4626 9.75869 39.4202 9.98403C40.4646 10.231 41.0106 10.608 41.0106 11.31C41.0106 12.09 40.2999 12.5884 39.1862 12.5884C38.0119 12.5884 37.2535 12.051 37.0975 11.0934ZM10.9719 15.2794L11.6176 15.1667C11.7086 15.5437 11.9166 15.6997 12.3412 15.6997C12.6619 15.6997 12.8526 15.6 12.8526 15.444C12.8526 15.288 12.7182 15.197 12.0639 15.054C11.3836 14.898 11.0716 14.664 11.0716 14.2394C11.0716 13.7627 11.5179 13.4247 12.1939 13.4247C12.8396 13.4247 13.3292 13.7454 13.4506 14.248L12.8049 14.391C12.7139 14.1224 12.5059 13.9794 12.1939 13.9794C11.9252 13.9794 11.7476 14.079 11.7476 14.2264C11.7476 14.3477 11.8689 14.417 12.4929 14.547C13.1819 14.703 13.5286 14.9587 13.5286 15.4137C13.5286 15.925 13.0606 16.25 12.3369 16.25C11.5612 16.2587 11.0716 15.9034 10.9719 15.2794ZM13.8102 15.145V13.4854H14.4992V15.0887C14.4992 15.4787 14.6899 15.6434 15.0669 15.6434C15.4439 15.6434 15.6346 15.4657 15.6346 15.0887V13.4854H16.3236V15.145C16.3236 15.8557 15.8556 16.2587 15.0669 16.2587C14.2782 16.2587 13.8102 15.8687 13.8102 15.145ZM16.6962 13.4984H18.1436C18.7329 13.4984 19.1576 13.832 19.1576 14.4214C19.1576 15.0107 18.7329 15.3444 18.1436 15.3444H17.3852V16.1894H16.6962V13.4984ZM18.0742 14.7594C18.2866 14.7594 18.4642 14.6467 18.4642 14.4127C18.4642 14.1657 18.2952 14.079 18.0872 14.079H17.3766V14.7594H18.0742ZM19.4219 13.4984H21.5019V14.1007H20.1109V14.5557H21.3676V15.1017H20.1109V15.5914H21.5019V16.1937H19.4219V13.4984ZM24.3099 16.1937H23.5516L22.9839 15.301H22.5376V16.1937H21.8486V13.4984H23.2959C23.8982 13.4984 24.2969 13.832 24.2969 14.3997C24.2969 14.833 24.0499 15.1364 23.6729 15.2447L24.3099 16.1937ZM23.2396 14.7117C23.4736 14.7117 23.6166 14.599 23.6166 14.391C23.6166 14.183 23.4822 14.079 23.2396 14.079H22.5376V14.7117H23.2396ZM25.4886 13.4984H26.1776V15.5914H27.5469V16.1937H25.4886V13.4984ZM27.8589 13.4984H29.9389V14.1007H28.5349V14.5557H29.7916V15.1017H28.5349V15.5914H29.9259V16.1937H27.8459V13.4984H27.8589ZM32.3092 15.7907H31.0179L30.8489 16.1894H30.1382L31.3386 13.494H31.9712L33.1716 16.1894H32.4609L32.3092 15.7907ZM32.0666 15.2014L31.6679 14.222H31.6549L31.2562 15.2014H32.0666ZM33.0676 14.846C33.0676 14.0097 33.6699 13.4204 34.5019 13.4204C35.1606 13.4204 35.6502 13.7887 35.7802 14.3217L35.1476 14.4994C35.0566 14.209 34.8356 14.0227 34.5149 14.0227C34.0599 14.0227 33.7566 14.3434 33.7566 14.846C33.7566 15.3357 34.0556 15.6694 34.5149 15.6694C34.9049 15.6694 35.1259 15.5004 35.1476 15.236H34.5366V14.7464H35.8149V15.1017C35.8149 15.8254 35.3122 16.2717 34.5106 16.2717C33.6569 16.2587 33.0676 15.6694 33.0676 14.846ZM36.0966 15.145V13.4854H36.7856V15.0887C36.7856 15.4787 36.9762 15.6434 37.3532 15.6434C37.7302 15.6434 37.9209 15.4657 37.9209 15.0887V13.4854H38.6099V15.145C38.6099 15.8557 38.1419 16.2587 37.3532 16.2587C36.5646 16.2587 36.0966 15.8687 36.0966 15.145ZM38.9436 13.4984H41.0236V14.1007H39.6325V14.5557H40.8892V15.1017H39.6325V15.5914H41.0236V16.1937H38.9436V13.4984ZM20.4099 30.173L25.9999 27.4994L34.1812 31.46L33.8259 29.133C33.7696 28.7777 33.5486 28.4744 33.2236 28.3184L28.7386 26.169L25.9912 24.856L18.8672 28.275C18.4772 28.4657 18.2086 28.8297 18.1436 29.2544L17.6322 32.6604L26.1602 38.025L28.4742 36.5127L20.1889 31.6117L20.4099 30.173ZM35.0175 37.1324L34.6059 34.359L26.1559 29.952L23.6296 31.1654L32.3222 35.919L32.4132 36.764L25.9999 40.9717L17.2726 35.1737L16.9822 37.1454C16.9172 37.557 17.1036 37.9687 17.4502 38.2027L26.0086 43.9444L34.5669 38.2027C34.8919 37.9557 35.0826 37.544 35.0175 37.1324ZM15.4352 31.2997L13.2426 29.9087L13.9229 25.3804L25.9999 19.5997L38.0769 25.376L39.2902 33.5357L36.7206 32.3787L35.9189 26.9794L26.0129 22.2387L16.1026 26.9794L15.4352 31.2997ZM40.2609 40.0704L25.9999 49.6557L11.7302 40.0704L12.8439 32.6257L15.0366 34.0384L14.2999 38.935L25.9999 46.7957L37.6869 38.935L37.1062 35.074L39.6889 36.309L40.2609 40.0704Z" fill="black"/>
</svg>
