<svg width="52" height="52" viewBox="0 0 52 52" fill="none" xmlns="http://www.w3.org/2000/svg">
<path d="M10.5168 38.4713V4.59764C10.5168 3.51431 11.4008 2.63464 12.4798 2.63464H39.5112C40.5945 2.63464 41.4742 3.51864 41.4742 4.59764V38.4713L25.9912 49.3046L10.5168 38.4713Z" fill="#1E0F35"/>
<path d="M39.5156 2.93369C40.4343 2.93369 41.184 3.68336 41.184 4.60203V38.3197L26 48.9407L10.816 38.324V4.59769C10.816 3.67903 11.5656 2.92936 12.4843 2.92936L39.5156 2.93369ZM39.5156 2.34436H12.4843C11.2406 2.34436 10.231 3.35403 10.231 4.59769V38.623L26 49.6557L41.769 38.6274V4.59769C41.769 3.35403 40.7593 2.34436 39.5156 2.34436Z" fill="#00AEEF"/>
<path d="M38.0855 6.81638C37.9599 6.59104 37.6912 6.42204 37.4009 6.42204C37.1409 6.42204 36.9155 6.53038 36.9155 6.79904C36.9155 7.03304 37.2059 7.18471 37.5005 7.37538C37.8255 7.58338 38.1592 7.82604 38.1592 8.25938C38.1592 8.82704 37.6089 9.16938 36.9719 9.16938C36.7119 9.16938 36.4389 9.11738 36.1269 8.99604L36.1789 8.23771C36.3219 8.53671 36.6035 8.77938 37.0152 8.77938C37.3315 8.77938 37.5655 8.62771 37.5655 8.36338C37.5655 8.13804 37.3749 7.99504 37.1409 7.86071C36.6469 7.56171 36.3392 7.32771 36.3392 6.89438C36.3392 6.25304 36.8809 6.03638 37.4399 6.03638C37.7649 6.03638 37.9642 6.10138 38.1679 6.10138L38.0855 6.81638ZM35.3512 7.49238C35.2775 7.60938 35.1909 7.76971 35.1345 7.88671C35.0912 8.11204 35.0609 8.41104 35.0609 8.73171C35.0609 8.86604 35.0869 9.05671 35.1519 9.10871H34.3329C34.4759 8.97438 34.5409 8.13371 34.5322 7.86504C34.4239 7.48804 34.2722 7.12404 34.0469 6.68638C33.9039 6.40904 33.7305 6.14471 33.6309 6.10138C33.8129 6.08404 34.0469 6.07538 34.1639 6.07538C34.3719 6.07538 34.4239 6.10138 34.5409 6.37438C34.7402 6.81638 34.8832 7.15004 34.9655 7.39271C35.1735 7.06771 35.3165 6.84238 35.5072 6.54771C35.5505 6.47404 35.5982 6.37438 35.5982 6.28771C35.5982 6.21404 35.5895 6.14471 35.5549 6.10571H36.3652C36.2092 6.14038 35.5072 7.24971 35.3512 7.49238ZM32.5129 6.80771L32.0275 7.85204H32.8119L32.5129 6.80771ZM33.4705 9.13904C33.2105 9.13904 33.1932 9.13038 32.9852 8.41971L32.9115 8.15971C32.7859 8.21171 32.5605 8.25071 32.2095 8.25071H31.8499L31.7849 8.38504C31.6939 8.58438 31.5769 8.81838 31.5769 8.97871C31.5769 9.01338 31.5769 9.06104 31.5942 9.11304H29.4665C29.5835 8.97871 29.6269 8.53671 29.6832 7.73504L29.6919 7.54438C29.7179 7.08504 29.7439 6.73404 29.7439 6.49138C29.7439 6.28338 29.7179 6.15771 29.6615 6.10571H30.4805C30.3635 6.19671 30.3202 6.68204 30.2639 7.47504L30.2465 7.66571C30.2292 7.96471 30.1945 8.26804 30.1945 8.56704C30.1945 8.70138 30.2465 8.74038 30.3939 8.74038C30.8879 8.74038 31.0135 8.73171 31.2389 8.58004C31.3819 8.32004 31.5379 7.99504 31.6982 7.66138L31.9062 7.21071C32.1055 6.78604 32.3005 6.36571 32.3005 6.27471C32.3005 6.20971 32.2832 6.15771 32.2659 6.10138H32.9245C32.9245 6.10138 33.1845 7.08504 33.2495 7.30171L33.3752 7.77838C33.6005 8.58004 33.7349 8.96571 33.9255 9.12171C33.7652 9.13904 33.5529 9.13904 33.4705 9.13904ZM28.1535 9.17804C27.3779 9.17804 26.9272 8.53671 26.9272 7.81738C26.9272 6.81638 27.4689 6.04071 28.5045 6.04071C28.8295 6.04071 28.9812 6.10571 29.2455 6.10571L29.1632 6.87271C29.0202 6.60404 28.7775 6.42204 28.4525 6.42204C27.8112 6.42204 27.5512 7.11538 27.5512 7.70904C27.5512 8.35904 27.9109 8.71004 28.3962 8.71004C28.6562 8.71004 28.8902 8.63638 29.2715 8.36771C29.1155 8.87904 28.7472 9.17804 28.1535 9.17804ZM25.4582 6.47404C25.3845 6.47404 25.2979 6.47404 25.2242 6.48271C25.1982 6.60838 25.1809 6.83371 25.1505 7.19338L25.1332 7.40138C25.1679 7.41004 25.2242 7.41004 25.2675 7.41004C25.6445 7.41004 25.9002 7.18471 25.9002 6.84238C25.9089 6.60838 25.7485 6.47404 25.4582 6.47404ZM26.5502 9.24738C26.3249 9.24738 26.2729 9.21271 26.1992 9.11304L25.3542 7.94304C25.2892 7.85204 25.2372 7.78271 25.1289 7.78271H25.1115L25.0942 8.00804C25.0769 8.31571 25.0682 8.56704 25.0682 8.74904C25.0682 8.95704 25.0942 9.07404 25.1505 9.12604H24.3315C24.4485 9.01771 24.4919 8.66671 24.5569 7.74804L24.5655 7.55738C24.5915 7.10671 24.6175 6.75571 24.6175 6.51304C24.6175 6.29638 24.5915 6.16204 24.5265 6.11871C24.9945 6.11871 25.6359 6.11871 25.6359 6.11871C25.9955 6.11871 26.5025 6.18371 26.5025 6.76871C26.5025 7.25404 26.1775 7.51838 25.7745 7.64404C25.8092 7.67871 25.8829 7.76971 25.9262 7.82604L26.5372 8.63638C26.9142 9.13904 26.9532 9.16071 27.0875 9.23004C26.9272 9.23871 26.7019 9.24738 26.5502 9.24738ZM22.7455 6.80771L22.2602 7.85204H23.0532L22.7455 6.80771ZM23.7032 9.13904C23.4432 9.13904 23.4259 9.13038 23.2179 8.41971L23.1442 8.15971C23.0185 8.21171 22.7932 8.25071 22.4422 8.25071H22.0825L22.0175 8.38504C21.9525 8.52804 21.8009 8.81838 21.8095 8.97871C21.8095 9.01338 21.8095 9.06104 21.8269 9.11304H21.1075C21.3155 8.90504 21.5755 8.42838 21.9352 7.65271L22.1432 7.20204C22.3339 6.79471 22.5375 6.33538 22.5375 6.26604C22.5375 6.20104 22.5202 6.14904 22.5029 6.09271H23.1615C23.1615 6.09271 23.3349 6.74271 23.4865 7.29304L23.6122 7.76971C23.8375 8.57138 23.9719 8.95704 24.1625 9.11304C23.9892 9.13904 23.7812 9.13904 23.7032 9.13904ZM19.9809 6.46538C19.9159 6.46538 19.8465 6.46538 19.7729 6.47404C19.7469 6.68204 19.7209 6.89004 19.7079 7.11538C19.7079 7.11538 19.6992 7.30604 19.6992 7.29738H19.7815C20.1585 7.29738 20.5095 7.16304 20.5095 6.81204C20.5052 6.60838 20.3405 6.46538 19.9809 6.46538ZM19.8812 7.66138H19.6732L19.6472 8.10338C19.6299 8.30271 19.6212 8.46304 19.6212 8.65371C19.6212 8.67971 19.7122 8.74471 19.9115 8.74471C20.3362 8.74471 20.6135 8.53671 20.6135 8.18571C20.6005 7.79571 20.2885 7.66138 19.8812 7.66138ZM19.9375 9.11304H18.8845C19.0189 8.99604 19.0579 8.53671 19.1099 7.73504L19.1185 7.54438C19.1445 7.08504 19.1705 6.73404 19.1705 6.49138C19.1705 6.28338 19.1445 6.14038 19.0795 6.09704H20.2582C20.5355 6.09704 21.1032 6.11438 21.1032 6.69938C21.1032 7.08504 20.7435 7.33204 20.4099 7.41871C20.8779 7.46204 21.2289 7.68738 21.2289 8.17704C21.2245 8.69704 20.7392 9.11304 19.9375 9.11304Z" fill="#00AEEF"/>
<path d="M15.6736 5.49902C15.5566 5.49902 15.5393 5.51636 15.5003 5.56402C15.4829 5.56402 15.4743 5.56402 15.4569 5.56402C15.3659 5.56402 15.2576 5.57269 15.1579 5.63769C15.0669 5.70269 15.0236 5.81102 15.0669 5.88036C15.0669 5.88036 15.1016 5.83702 15.2099 5.83702C15.2273 5.83702 15.2446 5.83702 15.2619 5.83702C15.4136 5.85436 15.5219 5.93669 15.5046 6.14469C15.4959 6.35269 15.4136 6.58669 15.0973 6.58669C15.0973 6.58669 15.0539 6.58669 15.0149 6.58669C14.8719 6.56936 14.8156 6.47836 14.8156 6.47836C14.8156 6.47836 14.9413 6.44369 14.9413 6.27902C14.9413 6.17069 14.8416 6.06236 14.7073 6.02769C14.6639 6.01902 14.6076 6.01036 14.5643 6.01036C14.4039 6.01036 14.2133 6.08402 14.0963 6.24436C13.8189 6.61269 13.7886 7.15436 13.8623 7.65702C13.9359 8.15969 14.2479 8.63202 14.2566 8.64069C14.2653 8.64936 14.2653 8.65802 14.2739 8.65802C14.2739 8.65802 14.2826 8.65802 14.2826 8.64936C14.4169 8.51502 14.5513 8.33302 14.6076 8.20736C14.6726 8.25069 14.6336 8.35902 14.6076 8.46736C14.5816 8.57569 14.4993 8.72736 14.4733 8.77502C14.4473 8.81836 14.4083 8.87469 14.4559 8.90069C14.4646 8.90069 14.4646 8.90936 14.4733 8.90936C14.5383 8.90936 14.6813 8.80102 14.8416 8.58436C15.0236 8.34169 15.1103 8.12502 15.1103 8.12502C15.1189 8.12502 15.1449 8.15102 15.1449 8.21602C15.1449 8.28102 15.0799 8.51502 14.9543 8.73169C14.8286 8.94836 14.7116 9.08269 14.6856 9.10869C14.6683 9.12602 14.6856 9.13469 14.6943 9.14336C14.7029 9.15202 14.9283 9.36002 15.2533 9.52902C15.6389 9.73702 15.8123 9.77169 15.8123 9.77169C15.8123 9.77169 15.9856 9.73702 16.3626 9.52902C16.6876 9.34702 16.9129 9.14336 16.9216 9.13469C16.9303 9.12602 16.9389 9.11736 16.9303 9.10002C16.9129 9.07402 16.7959 8.93969 16.6703 8.72302C16.5446 8.50636 16.4796 8.27236 16.4796 8.20736C16.4796 8.14236 16.4969 8.12502 16.5056 8.11636C16.5056 8.11636 16.5966 8.33302 16.7829 8.57569C16.9433 8.79236 17.0906 8.90069 17.1513 8.90069C17.1599 8.90069 17.1686 8.90069 17.1686 8.89202C17.2119 8.86602 17.1773 8.80969 17.1513 8.76636C17.1253 8.72302 17.0516 8.56702 17.0169 8.45869C16.9823 8.35036 16.9519 8.24202 17.0169 8.19869C17.0689 8.32436 17.2076 8.50636 17.3419 8.64069L17.3506 8.64936C17.3593 8.64936 17.3593 8.64069 17.3679 8.64069C17.3766 8.62336 17.7016 8.16402 17.7623 7.65702C17.8359 7.15436 17.8056 6.61269 17.5283 6.24436C17.4026 6.08402 17.2206 6.01036 17.0516 6.01036C16.9996 6.01036 16.9519 6.01902 16.9086 6.02769C16.7656 6.07102 16.6746 6.17069 16.6746 6.27902C16.6746 6.43936 16.8003 6.47836 16.8003 6.47836C16.8003 6.47836 16.7569 6.56936 16.6009 6.58669C16.5749 6.58669 16.5489 6.59536 16.5186 6.59536C16.4016 6.59536 16.3019 6.56069 16.2109 6.43502C16.1199 6.30936 16.1286 6.06669 16.1199 5.97569C16.1199 5.89336 16.1026 5.69836 16.0116 5.62469C15.9206 5.54236 15.8123 5.51636 15.6779 5.51636C15.6909 5.49902 15.6823 5.49902 15.6736 5.49902Z" fill="#00AEEF"/>
<path d="M13.8362 10.374H14.7115L15.2358 12.5364H15.2445L16.0375 10.374H16.7048L17.5065 12.5364H17.5152L18.0395 10.374H18.9148L18.0698 13.7107H17.1772L16.3755 11.583H16.3668L15.5565 13.7107H14.6725L13.8362 10.374Z" fill="white"/>
<path d="M18.8975 12.0424C18.8975 11.0067 19.6385 10.2874 20.6741 10.2874C21.7098 10.2874 22.4508 11.0067 22.4508 12.0424C22.4508 13.078 21.7098 13.7974 20.6741 13.7974C19.6385 13.7887 18.8975 13.0694 18.8975 12.0424ZM21.6101 12.0424C21.6101 11.4314 21.2418 11.0327 20.6828 11.0327C20.1238 11.0327 19.7555 11.427 19.7555 12.0424C19.7555 12.6534 20.1238 13.052 20.6828 13.052C21.2418 13.052 21.6101 12.6447 21.6101 12.0424Z" fill="white"/>
<path d="M22.7932 10.374H23.7205L24.8645 12.5624H24.8732L26.0172 10.374H26.9445V13.7064H26.1082V11.7044H26.0995L25.0292 13.7064H24.7215L23.6512 11.7044H23.6425V13.7064H22.8062V10.374H22.7932Z" fill="white"/>
<path d="M27.4038 10.374H29.9735V11.115H28.2531V11.6827H29.8131V12.3587H28.2531V12.9697H29.9821V13.7107H27.4038V10.374Z" fill="white"/>
<path d="M30.3809 10.374H31.2649L32.7339 12.493H32.7425V10.374H33.5875V13.7064H32.7035L31.2345 11.5874H31.2259V13.7064H30.3809V10.374Z" fill="white"/>
<path d="M33.9906 11.5483C34.2159 11.4963 34.2809 11.4053 34.2809 11.1886H33.9646V10.3783H34.8486V11.0716C34.8486 11.596 34.5583 11.908 33.9906 11.9556V11.5483Z" fill="white"/>
<path d="M34.9829 12.584L35.7846 12.441C35.8929 12.909 36.1616 13.0997 36.6772 13.0997C37.0716 13.0997 37.3099 12.9827 37.3099 12.7747C37.3099 12.584 37.1496 12.4757 36.3262 12.298C35.4899 12.1074 35.0912 11.8127 35.0912 11.297C35.0912 10.712 35.6416 10.2874 36.4866 10.2874C37.2796 10.2874 37.8906 10.6817 38.0466 11.297L37.2449 11.479C37.1279 11.1454 36.8766 10.9764 36.4866 10.9764C36.1529 10.9764 35.9362 11.102 35.9362 11.284C35.9362 11.4357 36.0879 11.5094 36.8636 11.6914C37.7086 11.8907 38.1506 12.194 38.1506 12.7617C38.1506 13.3944 37.5742 13.7974 36.6729 13.7974C35.7239 13.7887 35.1086 13.3597 34.9829 12.584Z" fill="white"/>
<path d="M13.8362 15.9727L14.3605 15.8817C14.4342 16.1894 14.6032 16.3151 14.9455 16.3151C15.2055 16.3151 15.3615 16.2327 15.3615 16.1071C15.3615 15.9814 15.2532 15.9077 14.7202 15.7907C14.1698 15.6651 13.9185 15.4744 13.9185 15.1321C13.9185 14.7464 14.2782 14.4734 14.8285 14.4734C15.3528 14.4734 15.7472 14.7334 15.8468 15.1407L15.3225 15.2577C15.2488 15.0411 15.0798 14.9241 14.8285 14.9241C14.6118 14.9241 14.4688 15.0064 14.4688 15.1234C14.4688 15.2231 14.5685 15.2751 15.0712 15.3834C15.6302 15.5091 15.9075 15.7171 15.9075 16.0854C15.9075 16.5014 15.5305 16.7614 14.9412 16.7614C14.3128 16.7657 13.9142 16.4754 13.8362 15.9727Z" fill="white"/>
<path d="M16.1328 15.8643V14.521H16.6918V15.8167C16.6918 16.133 16.8435 16.2673 17.1511 16.2673C17.4588 16.2673 17.6105 16.1243 17.6105 15.8167V14.521H18.1695V15.8643C18.1695 16.4407 17.7925 16.7657 17.1511 16.7657C16.5098 16.7657 16.1328 16.4493 16.1328 15.8643Z" fill="white"/>
<path d="M18.4684 14.5297H19.6384C20.1151 14.5297 20.4574 14.7983 20.4574 15.2793C20.4574 15.756 20.1151 16.029 19.6384 16.029H19.0231V16.7137H18.4641V14.5297H18.4684ZM19.5821 15.548C19.7554 15.548 19.8984 15.457 19.8984 15.2707C19.8984 15.0713 19.7641 15.002 19.5908 15.002H19.0144V15.5523H19.5821V15.548Z" fill="white"/>
<path d="M20.6741 14.5297H22.3597V15.015H21.2331V15.3833H22.2514V15.8253H21.2331V16.2197H22.3597V16.705H20.6741V14.5297Z" fill="white"/>
<path d="M24.6305 16.7093H24.0195L23.5559 15.99H23.1962V16.7093H22.6372V14.5297H23.8072C24.2925 14.5297 24.6175 14.7983 24.6175 15.2577C24.6175 15.6087 24.4182 15.8513 24.1149 15.9423L24.6305 16.7093ZM23.7639 15.5133C23.9545 15.5133 24.0715 15.4223 24.0715 15.2533C24.0715 15.0843 23.9632 15.002 23.7639 15.002H23.1962V15.5133H23.7639Z" fill="white"/>
<path d="M25.5837 14.5297H26.1427V16.224H27.2521V16.7093H25.5837V14.5297Z" fill="white"/>
<path d="M27.5035 14.5297H29.1892V15.0151H28.0539V15.3834H29.0722V15.8254H28.0539V16.2197H29.1805V16.7051H27.4949V14.5254H27.5035V14.5297Z" fill="white"/>
<path d="M31.1088 16.3843H30.0644L29.9301 16.7093H29.3538L30.3288 14.5297H30.8444L31.8194 16.7093H31.2431L31.1088 16.3843ZM30.9094 15.9077L30.5844 15.1147H30.5758L30.2508 15.9077H30.9094Z" fill="white"/>
<path d="M31.7197 15.6174C31.7197 14.9414 32.2051 14.4647 32.8811 14.4647C33.4141 14.4647 33.8084 14.7637 33.9167 15.1927L33.4011 15.3357C33.3274 15.1017 33.1497 14.9501 32.8854 14.9501C32.5171 14.9501 32.2744 15.2101 32.2744 15.6174C32.2744 16.0117 32.5171 16.2847 32.8854 16.2847C33.2017 16.2847 33.3794 16.1504 33.4011 15.9337H32.9071V15.5394H33.9427V15.8297C33.9427 16.4147 33.5354 16.7744 32.8897 16.7744C32.2007 16.7657 31.7197 16.2847 31.7197 15.6174Z" fill="white"/>
<path d="M34.1726 15.8643V14.521H34.7316V15.8167C34.7316 16.133 34.8833 16.2673 35.1909 16.2673C35.4986 16.2673 35.6503 16.1243 35.6503 15.8167V14.521H36.2093V15.8643C36.2093 16.4407 35.8323 16.7657 35.1909 16.7657C34.5496 16.7657 34.1726 16.4493 34.1726 15.8643Z" fill="white"/>
<path d="M36.4778 14.5297H38.1635V15.015H37.0368V15.3833H38.0551V15.8253H37.0368V16.2197H38.1635V16.705H36.4778V14.5297Z" fill="white"/>
<path d="M37.3358 31.0266L36.1745 23.738L25.9912 18.954L15.8078 23.738L15.2055 27.5513L17.5325 29.029L18.0742 25.415L25.9955 21.6233L33.9168 25.415L34.5668 29.7873L37.3358 31.0266ZM25.9998 25.883L32.7685 29.1633L32.4522 27.0616C32.4088 26.7366 32.2008 26.4593 31.9018 26.312L25.9998 23.4953L20.1802 26.2816C19.8292 26.455 19.5865 26.7756 19.5302 27.157L19.1055 29.9866L26.1342 34.4066L28.2228 33.0373L21.4282 29.0073L21.5798 27.9803L25.9998 25.883ZM13.8362 36.192L25.9998 44.6983L38.1635 36.192L37.6608 33.0286L34.8572 31.6853L35.3425 34.957L25.9998 41.2273L16.6572 34.957L17.2508 30.992L15.3658 29.7743L14.8978 29.4753L13.8362 36.192ZM18.5768 33.5313C18.5248 33.9083 18.6852 34.2896 19.0015 34.4976L25.9955 39.1906L32.9895 34.4976C33.3058 34.281 33.4748 33.904 33.4142 33.5313L33.0718 31.2346L26.1255 27.612L23.8288 28.7213L31.0092 32.6516L31.0742 33.202L25.9998 36.5256L18.8368 31.7676L18.5768 33.5313Z" fill="url(#paint0_linear_714_683)"/>
<path d="M18.8109 33.5616L19.0189 32.1489L25.9956 36.7899L31.3126 33.3016L31.2216 32.4913L24.3359 28.7256L26.1213 27.8676L32.8596 31.3819L33.1846 33.5703C33.2279 33.8606 33.1023 34.1466 32.8596 34.3113L25.9913 38.9219L19.1316 34.3069C18.8889 34.1466 18.7633 33.8476 18.8109 33.5616ZM32.4783 28.7646L32.2269 27.1049C32.1923 26.8536 32.0276 26.6456 31.8023 26.5373L25.9999 23.7639L20.2799 26.5026C20.0026 26.6369 19.8033 26.8969 19.7556 27.2046L19.3613 29.8826L26.1343 34.1466L27.7939 33.0633L21.1813 29.1416L21.3806 27.8459L26.0129 25.6273L32.4783 28.7646ZM17.8706 25.2503L25.9999 21.3589L30.6929 23.6123L34.1249 25.2503L34.7749 29.6096L36.7293 30.4936L35.9796 25.4583L35.7629 24.0239L25.9913 19.3483L16.2239 24.0369L15.9553 25.8656L15.7039 27.5773L17.3723 28.6389L17.8706 25.2503ZM25.9999 43.6886L37.5439 35.9319L37.1106 33.0199L35.1476 32.0839L35.5896 35.0739L25.9999 41.5176L16.4103 35.0739L17.0039 31.1089L15.3399 30.0386L14.4473 35.9319L25.9999 43.6886Z" fill="url(#paint1_linear_714_683)"/>
<defs>
<linearGradient id="paint0_linear_714_683" x1="18.773" y1="44.1912" x2="31.8924" y2="21.4677" gradientUnits="userSpaceOnUse">
<stop offset="0.08" stop-color="#1E0F35"/>
<stop offset="0.2191" stop-color="#163B68"/>
<stop offset="0.3695" stop-color="#0E6498"/>
<stop offset="0.5126" stop-color="#0884BE"/>
<stop offset="0.6444" stop-color="#049BD9"/>
<stop offset="0.761" stop-color="#01A9E9"/>
<stop offset="0.85" stop-color="#00AEEF"/>
</linearGradient>
<linearGradient id="paint1_linear_714_683" x1="17.6694" y1="45.9413" x2="31.5677" y2="21.8686" gradientUnits="userSpaceOnUse">
<stop offset="8.07343e-08" stop-color="#870064"/>
<stop offset="0.2457" stop-color="#B61B56"/>
<stop offset="0.489" stop-color="#DE314B"/>
<stop offset="0.6818" stop-color="#F63F44"/>
<stop offset="0.8" stop-color="#FF4441"/>
</linearGradient>
</defs>
</svg>
