<svg width="52" height="52" viewBox="0 0 52 52" fill="none" xmlns="http://www.w3.org/2000/svg">
<path d="M24.0718 30.0256L24.6958 27.9586L25.3155 30.0256H25.8702L26.9708 26.936H26.2342L25.5885 28.795L25.0338 26.936H24.3535L23.7988 28.795L23.1532 26.936H22.4165L23.5172 30.0256H24.0718Z" fill="black"/>
<path d="M28.5395 30.1036C29.4408 30.1036 30.1862 29.445 30.1862 28.483C30.1862 27.521 29.4408 26.8623 28.5395 26.8623C27.6338 26.8623 26.8928 27.521 26.8928 28.483C26.8928 29.445 27.6338 30.1036 28.5395 30.1036ZM28.5395 27.5166C29.0465 27.5166 29.4538 27.937 29.4538 28.483C29.4538 29.029 29.0465 29.4493 28.5395 29.4493C28.0282 29.4493 27.6252 29.029 27.6252 28.483C27.6252 27.937 28.0282 27.5166 28.5395 27.5166Z" fill="black"/>
<path d="M34.073 30.0256V26.936H33.1717L32.3224 28.5523L31.4687 26.936H30.5674V30.0256H31.2304V27.9413L32.3224 30.004L33.41 27.9413V30.0256H34.073Z" fill="black"/>
<path d="M36.7556 27.573V26.936H34.5413V30.0256H36.8639V29.393H35.2389V28.7906H36.3526V28.158H35.2389V27.573H36.7556Z" fill="black"/>
<path d="M40.0055 26.936H39.3252V28.9813L38.0902 26.936H37.1628V30.0256H37.8432V27.8373L39.1648 30.0256H40.0055V26.936Z" fill="black"/>
<path d="M40.2915 27.9716L40.4952 28.2446C40.8028 28.132 40.9762 27.8243 40.9762 27.4733V26.9403H40.3045V27.56H40.5688V27.6033C40.5688 27.755 40.4518 27.8763 40.2915 27.9716Z" fill="black"/>
<path d="M42.2589 27.4733C42.5232 27.4733 42.6922 27.6466 42.8222 27.8156L43.2512 27.3953C43.0475 27.0573 42.6922 26.871 42.2415 26.871C41.6045 26.871 41.2362 27.2566 41.2362 27.7506C41.2362 28.314 41.6869 28.548 42.1549 28.7473C42.5579 28.9206 42.6619 29.0333 42.6619 29.1806C42.6619 29.341 42.5232 29.458 42.2545 29.458C41.9425 29.458 41.7172 29.2413 41.5265 29.0246L41.0889 29.4666C41.3532 29.8653 41.7649 30.095 42.2892 30.095C42.9435 30.095 43.3292 29.666 43.3292 29.1416C43.3292 28.7213 43.1472 28.4266 42.5059 28.171C42.0465 27.9846 41.9165 27.9066 41.9165 27.7246C41.9122 27.5816 42.0292 27.4733 42.2589 27.4733Z" fill="black"/>
<path d="M23.7468 33.046H26.5115V31.8326H22.4165V37.7346H23.7468V35.4596H25.4845V34.2463H23.7468V33.046Z" fill="black"/>
<path d="M28.1278 31.8326L25.6145 37.7346H27.0402L27.5818 36.4606H29.7312L30.2772 37.7346H31.7028L29.1895 31.8326H28.1278ZM28.0195 35.2473L28.6608 33.6786L29.3022 35.2473H28.0195Z" fill="black"/>
<path d="M36.2616 32.9376C36.8856 32.9376 37.3233 33.215 37.6179 33.5703L38.5453 32.7036C38.0296 32.1403 37.3493 31.694 36.2616 31.694C34.5066 31.694 33.2283 33.0026 33.2283 34.788C33.2283 36.6166 34.5456 37.882 36.2616 37.882C37.2496 37.882 37.9473 37.5093 38.5453 36.8636L37.6179 35.997C37.2323 36.452 36.7816 36.6383 36.2616 36.6383C35.3256 36.6383 34.6279 35.8713 34.6279 34.7923C34.6236 33.67 35.3603 32.9376 36.2616 32.9376Z" fill="black"/>
<path d="M42.7918 35.2646C42.7918 36.3176 42.3455 36.647 41.6348 36.647C40.9371 36.647 40.4778 36.3176 40.4778 35.2646V31.8326H39.1475V35.4813C39.1475 37.0673 40.1571 37.8603 41.6348 37.8603C43.1168 37.8603 44.1221 37.0673 44.1221 35.4813V31.8326H42.7918V35.2646Z" fill="black"/>
<path d="M49.0276 32.3396C48.6116 32.0016 47.9876 31.8326 47.1686 31.8326H44.9846V37.7346H46.315V35.7543H47.1643C48.7806 35.7543 49.6343 35.0783 49.6343 33.7956C49.6386 33.1586 49.435 32.669 49.0276 32.3396ZM47.1513 34.5366H46.3193V33.046H47.1513C47.8793 33.046 48.2346 33.2843 48.2346 33.7913C48.2346 34.294 47.8706 34.5366 47.1513 34.5366Z" fill="black"/>
<path d="M29.2675 19.3006C29.2675 19.1749 28.7605 17.9616 28.1192 17.9616C27.9329 17.9616 27.6729 18.1913 27.6729 18.3819C27.6729 18.6983 27.7422 19.7079 28.7129 19.7079C28.9079 19.7123 29.2675 19.5779 29.2675 19.3006Z" fill="black"/>
<path d="M26.3727 24.388C26.3337 25.207 27.1527 25.2286 27.1527 25.2286C28.0974 24.9946 27.9717 24.271 27.9717 24.271C27.9717 24.271 27.8807 24.2103 27.8807 24.0196C27.8807 23.829 28.457 21.5193 28.457 21.3286C28.457 20.7913 28.0107 20.423 27.677 20.371C26.5547 21.632 26.4464 23.6946 26.3727 24.388Z" fill="black"/>
<path d="M25.0555 24.9643C25.0555 24.9643 26.7455 15.99 30.6975 14.131C30.4331 13.832 27.0531 13.4506 24.1368 22.6416C24.1151 22.7066 24.0241 22.698 24.0111 22.633C23.5518 20.1933 23.7555 17.4286 23.6948 16.9866C23.5518 15.8816 22.6115 16.2326 22.6115 16.2326C22.1868 17.1123 22.4598 24.2103 23.1661 25.1333C23.5951 25.311 24.7998 25.2503 25.0555 24.9643Z" fill="black"/>
<path d="M49.1012 24.5353C49.2096 24.1669 49.3136 23.7856 49.3959 23.3956C49.5389 22.6979 49.6256 21.9743 49.6386 21.2506C49.6386 21.1293 48.9712 20.6916 48.8326 20.6916C48.7459 20.6916 48.6939 20.7999 48.6939 20.7999C47.6712 22.6459 46.7439 24.1149 45.9596 24.1756C45.7906 24.1843 45.6996 24.0933 45.6649 23.9156C45.5696 23.2049 46.2326 21.4543 46.1892 20.9559C46.1719 20.7696 46.0766 20.7913 45.9596 20.7176C45.9206 20.7479 45.8816 20.7913 45.8339 20.8476C45.8166 20.8693 45.7862 20.8779 45.7559 20.8693C45.2836 20.6959 44.6942 20.5746 44.3389 20.5269C44.7029 19.5086 45.4569 17.3723 45.4569 17.1816C45.4569 16.7049 45.1059 16.5403 44.5122 16.3799C43.5546 18.0656 42.9479 20.3536 42.9089 20.5269C42.6012 20.8043 42.1332 20.5486 42.0422 21.0946C42.2762 21.3416 42.7096 21.5409 42.7096 21.7316C42.7096 21.9223 42.3846 22.6936 42.5102 25.2286C42.6792 25.2936 43.3639 24.5569 43.3856 24.3403C43.5762 22.3686 44.0746 21.6623 44.0746 21.6623C44.0746 21.6623 44.8546 21.6883 45.3226 21.5929C45.3356 21.5886 45.3486 21.6059 45.3399 21.6189C45.2272 21.8443 44.5599 23.2266 44.5556 23.8636C44.5512 24.6913 44.8199 25.1593 45.5089 25.2243C45.6476 25.2416 45.7949 25.2416 45.9509 25.2286C46.6009 25.1419 47.3679 24.8083 48.0049 24.0586C48.0439 24.0109 48.1219 24.0543 48.1046 24.1149C47.0906 27.7246 45.1406 28.6259 44.3172 28.8253C44.3476 29.0766 45.7646 29.0029 46.7612 28.1666C47.9139 27.1873 48.7632 25.7009 49.1012 24.5353Z" fill="black"/>
<path d="M29.0725 20.436C29.0725 20.67 29.4495 20.9256 29.4495 21.1336C29.4495 21.3416 29.0942 22.4596 29.2285 25.2373C29.7442 25.2676 30.3032 24.453 30.3378 24.2146C30.6672 22.0783 30.9878 21.0816 30.9878 21.0816C31.7982 21.0773 32.4872 21.0253 33.0548 20.9473C33.0765 20.943 33.0852 20.969 33.0722 20.982C32.0712 21.827 31.1178 22.6503 31.1438 24.232C31.1525 24.8733 31.8328 25.2373 32.2228 25.2373C32.8945 25.2373 33.5835 24.6393 33.9128 24.2666C33.9735 24.1973 34.0905 24.2276 34.1035 24.3186C34.2032 24.9253 34.7058 25.2373 35.1955 25.2373C35.6462 25.2373 36.3092 24.8126 36.5648 24.674C36.5865 24.661 36.6125 24.6653 36.6298 24.687C36.7988 24.8776 37.1412 25.2373 37.4618 25.2373C38.4325 25.2373 39.4205 23.8246 39.9665 22.9493C40.0142 22.8713 40.1312 22.893 40.1485 22.9796C40.3608 23.9156 40.3522 25.2373 41.2925 25.2373C41.5482 25.2373 41.8688 25.1723 42.1505 25.0726C42.3455 25.0033 42.2805 24.7216 42.0725 24.739C42.0595 24.739 42.0465 24.739 42.0378 24.739C40.9805 24.739 42.2242 21.0036 40.7335 21.2073C40.4822 21.242 40.0965 21.4413 39.9665 21.5063C39.9405 21.5193 39.9145 21.541 39.9015 21.5713C39.7758 21.7836 39.1345 22.828 38.0512 23.985C37.9645 24.0803 37.8042 24.0456 37.7652 23.92C37.2148 22.1693 39.6068 17.0126 39.6415 16.9C39.8235 16.3193 39.0305 16.042 38.6318 15.9986C37.7652 17.225 36.3135 21.112 36.4565 24.2103C36.4565 24.2493 36.4348 24.2883 36.4002 24.3013C36.1575 24.401 35.2735 24.726 35.3775 24.0023C35.4035 23.8116 35.8238 22.7023 35.8238 22.5116C35.8238 22.386 35.2952 21.671 34.8965 21.671C34.7318 21.671 33.2282 23.569 32.7255 24.011C32.6388 24.0846 32.5045 24.0543 32.4568 23.9503C32.1838 23.3523 32.8425 21.7013 34.7275 21.0773C34.7448 21.073 35.1392 20.7003 35.2085 20.6006C35.2388 20.5573 35.2432 20.5053 35.2302 20.4533C35.2085 20.3666 35.0915 20.306 35.0872 20.306C34.0428 19.8206 31.7115 19.89 31.3128 19.8336C31.6075 18.499 32.5218 16.3583 32.5478 16.1503C32.5868 15.8296 32.2705 15.5176 31.6248 15.3443C30.5805 17.186 29.7138 19.63 29.6662 19.8163C29.4928 19.994 29.2328 19.9203 29.0725 20.436Z" fill="black"/>
<path d="M40.9674 20.4403C41.1624 20.4403 41.6001 20.1066 41.6001 19.8293C41.6001 19.7036 41.1278 18.681 40.4864 18.681C40.3001 18.681 40.0401 18.9106 40.0401 19.1013C40.0358 19.4176 40.3088 20.4403 40.9674 20.4403Z" fill="black"/>
<path d="M11.4184 32.903C11.4228 32.903 11.4228 32.903 11.4184 32.903C12.6794 32.903 13.9058 33.1846 14.9978 33.6266C14.6901 32.903 13.9491 32.474 13.2211 32.2226C12.6318 32.019 12.0251 31.915 11.4184 31.915C10.8118 31.915 10.2051 32.0146 9.61578 32.2226C8.88778 32.474 8.14678 32.903 7.83911 33.6266C8.93544 33.189 10.1618 32.903 11.4184 32.903Z" fill="black"/>
<path d="M16.9477 38.025C16.848 37.1843 15.8643 36.8506 14.3217 36.5473C13.364 36.3566 12.389 36.2613 11.4183 36.2613C11.4183 36.2613 11.4183 36.2613 11.414 36.2613C11.414 36.2613 11.414 36.2613 11.4097 36.2613C10.439 36.2613 9.46833 36.3566 8.50633 36.5473C6.96366 36.855 5.98 37.1843 5.88033 38.025C5.88033 38.025 4.98333 38.7356 5.38633 39.3856C5.39066 39.3856 5.39066 39.3856 5.39066 39.3856C5.85 38.935 7.26267 38.077 11.4053 38.0076C15.548 38.0813 16.9607 38.935 17.42 39.3856C17.4243 39.3856 17.4243 39.3856 17.4243 39.3856C17.849 38.7356 16.9477 38.025 16.9477 38.025Z" fill="black"/>
<path d="M7.17604 35.4986C6.97671 35.802 6.69071 36.166 6.88571 36.491C7.71771 35.8106 9.88004 35.5463 11.414 35.5463C11.4184 35.5463 11.4184 35.5463 11.4227 35.5463C11.427 35.5463 11.427 35.5463 11.4314 35.5463C12.9654 35.5463 15.1277 35.8106 15.9597 36.491C16.1547 36.1616 15.8687 35.802 15.6694 35.4986C15.5697 35.347 15.4267 35.0133 15.405 34.58C14.729 34.112 13.351 33.6136 11.4357 33.6093C11.4314 33.6093 11.4314 33.6093 11.427 33.6093C11.4227 33.6093 11.4227 33.6093 11.4184 33.6093C9.49871 33.6136 8.12071 34.1076 7.44904 34.58C7.41871 35.0133 7.27571 35.3513 7.17604 35.4986Z" fill="black"/>
<path d="M15.7995 19.76C15.8471 19.6126 15.8991 19.4696 15.9598 19.3266C15.9598 19.3266 13.1345 16.666 8.35913 18.4296C8.92246 20.254 9.09146 21.9656 8.8618 23.5516C9.61146 23.3003 10.4651 23.153 11.3838 23.1443H11.4791H11.5745C12.5278 23.153 13.4161 23.3133 14.1918 23.5863C14.1918 23.5863 14.3478 22.035 14.9761 20.8563C14.9761 20.8563 14.4908 23.075 14.8678 24.6566C14.0098 24.1713 12.8528 23.868 11.5701 23.855C11.5398 23.855 11.5095 23.855 11.4835 23.855C11.4531 23.855 11.4228 23.855 11.3968 23.855C10.4001 23.8636 9.47713 24.05 8.71446 24.362C8.70146 24.414 8.6928 24.466 8.67546 24.518C8.5758 24.9036 8.4588 25.246 8.32446 25.558C9.18246 25.194 10.2095 24.9816 11.3318 24.9686H11.4271H11.5225C13.2428 24.986 14.7508 25.4843 15.7475 26.26C15.6521 25.7963 15.5611 25.2763 15.4875 24.7173C15.2925 23.1703 15.2708 21.3546 15.7995 19.7773V19.76Z" fill="black"/>
<path d="M9.53787 31.1263C9.5162 31.0657 9.5032 31.0007 9.5032 30.9357C9.5032 30.342 10.3612 29.861 11.4185 29.861C12.4759 29.861 13.3339 30.342 13.3339 30.9357C13.3339 31.0007 13.3209 31.07 13.3035 31.1307C13.7369 31.0267 14.4735 30.7927 15.1365 30.342C16.3759 29.4927 16.2892 28.509 16.2892 28.509C16.2892 27.963 16.0249 27.456 15.5742 27.027C15.4875 28.5523 14.5775 29.3107 13.7412 29.8177C14.8722 28.899 15.0715 27.3867 14.6469 26.3813C13.8105 25.948 12.7142 25.6793 11.5139 25.6663C11.4835 25.6663 11.4532 25.6663 11.4272 25.6663C11.3969 25.6663 11.3665 25.6663 11.3405 25.6663C8.69287 25.6923 6.56087 26.9533 6.56087 28.509C6.5522 28.5133 6.42654 30.3507 9.53787 31.1263Z" fill="black"/>
<path d="M10.9115 14.9196C10.8942 14.7983 10.8855 14.703 10.8855 14.6206C10.8422 13.9533 11.1065 13.338 11.1065 13.338C11.0242 13.3206 10.9982 13.2557 10.9852 13.2037C10.9809 13.1777 10.9809 13.156 10.9852 13.1343C10.9982 13.0737 11.0459 13.026 11.1065 13.0043L11.2365 12.9566L11.6829 12.6273L11.9559 12.6837L12.1075 12.6273C12.2375 12.5796 12.3675 12.675 12.3719 12.8093L12.3805 13.091C12.0772 13.2513 12.0859 13.611 12.1119 13.7453C12.5279 13.39 13.1735 12.9437 13.4162 12.792V12.7963C13.4162 12.792 13.4249 13.2037 13.4249 13.2037C13.4249 13.2037 12.2765 14.2176 11.8822 15.379C12.4499 15.4743 12.9482 15.7473 13.3209 16.1287C13.3209 16.133 13.3209 16.1286 13.3209 16.133C12.7575 15.912 12.1119 15.7863 11.4229 15.7863C10.7339 15.7863 10.0882 15.912 9.52485 16.133C9.89752 15.7473 10.4045 15.4743 10.9722 15.379L10.9115 14.9196ZM8.15552 17.8187C8.61918 16.8307 10.0275 16.2803 11.4185 16.2803C12.8095 16.2803 14.2179 16.8263 14.6815 17.8187C11.2842 16.328 8.15552 17.8187 8.15552 17.8187Z" fill="black"/>
<path d="M4.63673 29.8393C3.92606 31.0353 4.08206 33.0936 4.91406 34.827C4.91839 34.827 4.91839 34.827 4.92273 34.827C5.23473 34.4196 5.51206 34.06 5.51639 34.06C5.51639 34.06 6.32239 34.0166 6.54773 34.008C6.54773 34.0036 6.54773 34.0036 6.54773 33.9993C5.01373 32.643 4.46339 30.745 4.63673 29.8393Z" fill="black"/>
<path d="M4.55444 28.5306C0.793103 32.1056 2.8341 36.7206 3.67044 38.376L4.42877 37.375C4.42877 37.375 4.98777 37.3446 5.71577 37.3316C4.07344 35.6676 2.21444 31.486 4.55444 28.5306Z" fill="black"/>
<path d="M18.7374 30.9357C19.1317 33.5833 17.7234 35.4943 17.0647 36.192C17.0734 36.1877 18.1004 36.2527 18.1004 36.2527C18.1004 36.2527 18.4427 36.829 18.6377 37.1323C19.3787 35.4683 19.8597 34.0427 18.7374 30.9357Z" fill="black"/>
<path d="M16.5317 27.5167C17.901 29.9 17.056 32.2183 15.7344 33.514C15.9424 33.514 16.8264 33.5313 16.8264 33.5313C16.8264 33.5313 17.056 33.8693 17.4157 34.3633C18.837 31.213 17.758 29.0897 16.5317 27.5167Z" fill="black"/>
<path d="M5.44714 26.7756C5.77647 26.1343 6.08847 25.285 6.21414 24.1756C5.85447 24.0543 5.53814 23.868 5.2478 23.6253C5.4428 24.5353 5.60314 25.8786 5.43847 26.7713C5.43414 26.78 5.4428 26.78 5.44714 26.7756Z" fill="black"/>
<path d="M18.2434 20.982L18.1524 20.9126L17.8794 20.5573L17.6411 20.54L17.5284 20.4576C17.4331 20.3883 17.2988 20.436 17.2641 20.5443L17.2034 20.735C17.3898 20.917 17.3291 21.2073 17.2858 21.3113C17.0128 20.683 16.2284 20.3666 16.2284 20.3666C15.8558 21.3156 15.6738 23.322 16.0854 24.804C16.1894 24.7606 16.2761 24.713 16.3281 24.687C17.9878 23.7553 18.1871 21.2766 18.1871 21.2766H18.1914C18.3258 21.2376 18.3561 21.06 18.2434 20.982ZM16.3021 24.141C16.2848 22.919 16.5794 22.191 16.8481 21.775C17.2598 22.6763 16.7831 23.6946 16.3021 24.141Z" fill="black"/>
<path d="M7.37099 17.4156C7.37099 17.4156 6.01033 16.939 4.92266 18.3603C4.79266 18.5293 4.67133 18.7286 4.55433 18.954C4.46766 18.7936 4.33766 18.421 4.60199 18.1003L4.45899 17.7233C4.38533 17.5543 4.15999 17.498 4.02133 17.6323L3.85233 17.7883L3.46666 17.862L3.07666 18.5033L2.92066 18.6463C2.81666 18.7416 2.79933 18.9106 2.89466 19.0146C2.98999 19.1186 3.10266 19.084 3.10266 19.084C3.10266 19.084 3.53166 22.542 6.94199 23.8073C6.90299 24.2406 6.83799 24.7086 6.73399 25.207C6.51299 26.2773 5.94966 27.222 5.22166 28.041C6.68633 27.2176 7.64399 26.0043 8.07733 24.336C8.83133 21.411 7.82166 18.564 7.37099 17.4156ZM5.57699 18.915C5.57699 18.915 7.01566 20.059 6.98099 23.049C5.81099 22.3513 4.65833 20.4966 5.57699 18.915Z" fill="black"/>
</svg>
