<svg width="52" height="52" viewBox="0 0 52 52" fill="none" xmlns="http://www.w3.org/2000/svg">
<path d="M13.5602 4.24465C15.9229 5.30582 17.3404 6.60279 17.4585 6.95651C17.3404 6.36698 16.986 3.53721 16.6316 1.76861C17.9311 2.71186 21.0025 4.83419 22.1838 5.54163C22.6563 4.24465 24.0739 0 24.0739 0C24.0739 0 26.7909 4.24465 27.1452 4.83419C27.6178 4.36256 30.8073 0.943258 31.5161 0C31.6342 2.00442 31.8705 4.83419 31.9886 5.30582C32.1067 4.95209 33.288 3.3014 35.2962 2.00442C34.3512 3.77303 33.9968 5.89535 33.8787 8.01768C31.8705 7.54605 29.9804 7.07442 27.6178 7.07442C23.4832 7.07442 19.5849 8.13558 16.2772 10.14C15.6866 8.01768 14.7415 5.77744 13.5602 4.24465ZM45.0976 40.5454L43.2071 38.4156C42.7344 43.9766 40.1349 48.4727 35.0541 51.7855L34.227 48.7093C30.0914 51.7856 22.8838 53.5603 16.8577 50.1291C17.6848 46.2246 18.2756 42.2018 16.8577 37.4691C13.5492 42.7934 10.3589 44.9231 10.3589 44.9231C8.1139 41.0186 8.23206 33.328 9.05917 31.08L5.39624 32.4998C5.39624 29.7785 7.28678 24.3358 10.0044 21.2596L7.64126 20.7863C9.17733 17.5917 11.5405 14.6338 14.7308 12.3858C13.7855 13.8056 13.7855 17.2368 16.5032 18.5383C15.4397 16.5269 15.2034 14.2788 16.385 12.859C17.6848 11.5575 19.4571 12.0308 20.6387 12.9773C20.1661 11.9125 19.2208 10.4927 17.5666 10.4927C20.6387 8.95454 24.0653 8.008 27.6101 8.008C28.2009 8.008 28.9099 8.008 29.737 8.12632C30.8004 8.59959 32.4546 10.1377 33.0454 11.0843C33.0454 11.0843 33.0454 10.0194 32.5728 8.59959C36.472 9.54613 38.3626 11.3209 39.1897 11.9125C39.3078 13.6872 39.7805 14.7521 40.4894 16.2902C39.1897 14.8704 35.8812 12.5041 34.3452 12.0308C34.3452 12.0308 34.227 13.4506 33.7544 14.2788C30.6822 12.0308 29.1462 11.4392 29.1462 11.4392C25.8377 11.9125 23.4745 13.3323 22.4111 14.3972L23.4745 15.3437C21.3477 15.9353 20.1661 17.71 20.1661 17.71L22.0566 18.065C22.0566 18.065 21.9385 20.1947 24.538 21.3779C26.783 22.6794 30.2096 21.0229 33.1636 22.3244C31.0367 19.9581 29.8551 19.0115 29.8551 19.0115C29.8551 19.0115 29.028 18.8932 28.4372 18.8932C27.8464 18.8932 26.6648 19.0115 25.4832 18.5383C25.0106 18.1833 24.1835 17.9467 23.7109 17.5917C23.7109 17.5917 25.1288 16.1719 27.1375 15.6986C27.1375 15.6986 29.028 16.1719 30.4459 17.2368C31.5093 16.2902 32.4546 16.2902 32.4546 16.2902C32.4546 16.2902 31.3912 17.2368 31.8638 18.42C33.2817 19.7215 34.936 21.6145 34.936 21.6145C36.7083 20.668 40.1349 21.0229 40.7257 21.7329C39.7805 20.4314 38.4807 19.4848 37.5355 18.6566C37.4173 18.1833 36.2357 16.6452 36.1175 16.4086C36.1175 16.4086 37.181 16.8818 38.2444 17.71C38.5989 17.2368 39.0715 16.8818 39.6623 16.7635C40.4894 17.3551 40.6076 18.3016 40.4894 18.5383C40.0168 19.0115 39.8986 19.0115 39.8986 19.0115L41.671 20.9046L41.7892 19.6031C45.6884 25.519 47.9334 32.1448 45.0976 40.5454ZM37.5322 28.1457V25.0859C37.5322 25.0859 36.2322 24.6152 34.6959 23.556C31.7413 24.0267 28.4322 26.7335 28.4322 26.7335C28.4322 26.7335 29.7322 28.9695 30.9141 31.3232C33.2777 31.6762 36.4686 29.0872 37.5322 28.1457ZM40.3922 33.458C40.3922 33.458 40.0363 32.1589 39.0871 31.096H36.8328C36.8328 31.096 33.748 33.8123 31.9682 33.8123C31.9682 33.8123 33.0361 35.702 33.5107 36.7649C34.5785 36.4106 36.3582 35.702 36.9515 34.8753C36.9515 34.8753 37.426 36.4106 37.426 38.064C38.6125 37.4735 39.9176 36.0563 40.3922 33.458ZM41.3476 23.764C40.0329 24.7065 39.1962 25.1778 39.1962 25.1778V28.2409C40.0329 29.1834 40.75 29.7724 41.4671 31.304C42.6624 29.1834 42.4233 26.3559 41.3476 23.764Z" fill="black"/>
</svg>
