<svg width="52" height="52" viewBox="0 0 52 52" fill="none" xmlns="http://www.w3.org/2000/svg">
<path d="M48.0521 29.6476H3.94731C1.90446 29.6476 0.247314 27.9904 0.247314 25.9476C0.247314 23.9047 1.90446 22.2476 3.94731 22.2476H48.0521C50.0949 22.2476 51.7521 23.9047 51.7521 25.9476C51.7521 27.9904 50.0949 29.6476 48.0521 29.6476Z" fill="#00945E"/>
<path d="M48.0524 22H3.94762C1.77143 22 0 23.7714 0 25.9476C0 28.1238 1.77143 29.8952 3.94762 29.8952H48.0524C50.2286 29.8952 52 28.1238 52 25.9476C52 23.7714 50.2286 22 48.0524 22ZM48.0524 29.6476H3.94762C1.90476 29.6476 0.247619 27.9905 0.247619 25.9476C0.247619 23.9048 1.90476 22.2476 3.94762 22.2476H48.0524C50.0952 22.2476 51.7524 23.9048 51.7524 25.9476C51.7524 27.9905 50.0952 29.6476 48.0524 29.6476Z" fill="white"/>
<path d="M41.1426 24.8811H37.6473L37.1616 26.6668H36.4521C36.5759 26.2144 36.9378 24.8811 36.9378 24.8811H35.995L36.2283 24.0049H33.1616L32.1711 27.5906H37.8569L37.6235 28.4573H38.5711L38.8092 27.5906H40.3283H40.4045L41.1426 24.8811ZM35.514 26.6335H33.4188L33.8711 24.9811H35.9711L35.514 26.6335ZM39.9426 25.843C39.9235 25.9144 39.8997 25.9954 39.8807 26.0811C39.8188 26.3001 39.7426 26.5906 39.7188 26.6763H39.0569C39.1188 26.443 39.2235 26.0573 39.2807 25.8477C39.2807 25.843 39.2854 25.8335 39.2854 25.8287H39.9473C39.9473 25.8287 39.9426 25.8382 39.9426 25.843Z" fill="black"/>
<path d="M25.3139 24.8857L25.5473 24.0286H24.6187L24.3854 24.8762H17.233L17.4663 24.0095H14.3997L13.4092 27.5952H20.0377L20.5282 25.8095H21.5092L21.0187 27.5952H31.4187L32.152 24.8857H25.3139ZM16.752 26.6333H14.6568L15.1092 24.981H17.2092L16.752 26.6333ZM25.7378 25.8143L25.5044 26.6619H24.8425C24.8425 26.6619 25.0282 25.981 25.0758 25.8143H25.7378ZM30.9568 25.819L30.7282 26.6667H30.0139L30.2425 25.819H30.9568Z" fill="black"/>
<path d="M36.7612 25.0239C36.7612 25.0239 36.3231 26.643 36.2802 26.7954H37.2612C37.304 26.643 37.7421 25.0239 37.7421 25.0239H38.4183L37.7612 27.4668H35.4231L36.085 25.0287H36.7612V25.0239Z" fill="white"/>
<path d="M27.0373 25.0192L26.8563 25.6858C26.8563 25.6858 28.2992 25.6858 28.4706 25.6858C28.4516 25.762 28.4373 25.8144 28.4135 25.8858C28.242 25.8858 26.7992 25.8858 26.7992 25.8858L26.3706 27.462H28.7182L29.3849 25.0144H27.0373V25.0192ZM28.2182 26.7954C28.0706 26.7954 27.3801 26.7954 27.2325 26.7954C27.2563 26.7144 27.2754 26.643 27.2944 26.562C27.4325 26.562 28.042 26.562 28.242 26.562H28.2801C28.2611 26.643 28.242 26.7144 28.2182 26.7954Z" fill="white"/>
<path d="M17.3329 25.0192L17.152 25.6858C17.152 25.6858 18.5948 25.6858 18.7663 25.6858C18.7472 25.762 18.7329 25.8144 18.7091 25.8858C18.5377 25.8858 17.0948 25.8858 17.0948 25.8858L16.6663 27.462H19.0139L19.6805 25.0144H17.3329V25.0192ZM18.5139 26.7954C18.3663 26.7954 17.6758 26.7954 17.5282 26.7954C17.552 26.7144 17.571 26.643 17.5901 26.562C17.7282 26.562 18.3377 26.562 18.5377 26.562H18.5758C18.552 26.643 18.5329 26.7144 18.5139 26.7954Z" fill="white"/>
<path d="M21.8659 25.0192L21.6849 25.6858C21.6849 25.6858 23.1278 25.6858 23.2992 25.6858C23.2802 25.762 23.2659 25.8144 23.2421 25.8858C23.0706 25.8858 21.6278 25.8858 21.6278 25.8858L21.1992 27.462H23.5468L24.2135 25.0144H21.8659V25.0192ZM23.0468 26.7954C22.8992 26.7954 22.2087 26.7954 22.0611 26.7954C22.0849 26.7144 22.104 26.643 22.123 26.562C22.2611 26.562 22.8706 26.562 23.0706 26.562H23.1087C23.0897 26.643 23.0706 26.7144 23.0468 26.7954Z" fill="white"/>
<path d="M14.4803 26.762C14.5279 26.5953 14.9613 25.0144 15.0089 24.8477C15.1851 24.8477 17.1089 24.8477 17.1089 24.8477L17.3041 24.1382H14.4994L13.5803 27.4668H16.4041L16.5994 26.7668C16.5994 26.762 14.6565 26.762 14.4803 26.762Z" fill="white"/>
<path d="M33.2374 26.762C33.285 26.5953 33.7184 25.0144 33.766 24.8477C33.9422 24.8477 35.866 24.8477 35.866 24.8477L36.0612 24.1382H33.2565L32.3374 27.4668H35.1612L35.3565 26.7668C35.3565 26.762 33.4136 26.762 33.2374 26.762Z" fill="white"/>
<path d="M19.9419 25.019L19.261 27.4667H19.9419C19.9419 27.4667 20.3848 25.8524 20.4324 25.6809H21.4134L21.5991 25.019H19.9419Z" fill="white"/>
<path d="M25.3853 24.1572H24.7043L23.8091 27.4668H26.0996L26.7662 25.0144C26.7662 25.0144 25.3234 25.0144 25.1472 25.0144C25.1948 24.862 25.3853 24.1572 25.3853 24.1572ZM25.6043 26.7953H24.671L24.9757 25.6858H25.9091L25.6043 26.7953Z" fill="white"/>
<path d="M31.3282 27.4667L31.9949 25.019H29.652L28.9854 27.4667H31.3282ZM31.1282 25.6905C31.0854 25.8429 30.8663 26.6476 30.8282 26.7952C30.6806 26.7952 29.9949 26.7952 29.8425 26.7952L30.1425 25.6905H31.1282Z" fill="white"/>
<path d="M38.6854 25.0239L37.7949 28.3287H38.4711L38.7092 27.462H40.3092L40.9711 25.0239H38.6854ZM39.814 26.8049H38.8806C38.9235 26.6525 39.1378 25.8477 39.1806 25.6954H40.114C40.0759 25.8477 39.8568 26.6525 39.814 26.8049Z" fill="white"/>
<path d="M48.3046 26.7333C48.1712 26.7333 48.0617 26.6238 48.0617 26.4904V25.1619H49.0141V25.5238H48.4522V25.7571H48.9617V26.1238H48.4522V26.7285H48.3046V26.7333ZM46.8474 26.4904C46.8474 26.6238 46.9569 26.7333 47.0903 26.7333H47.795V26.3714H47.2379V26.1285H47.7474V25.7619H47.2379V25.5285H47.795V25.1666H46.8474V26.4904ZM50.1331 26.7333V26.3714H49.6474V25.1619H49.2569V26.4904C49.2569 26.6238 49.3665 26.7333 49.4998 26.7333H50.1331Z" fill="white"/>
<path d="M45.0755 26.4524C45.0755 26.5715 44.9755 26.6715 44.8565 26.6715C44.7375 26.6715 44.6375 26.5715 44.6375 26.4524C44.6375 26.3334 44.7375 26.2334 44.8565 26.2334C44.9803 26.2334 45.0755 26.3286 45.0755 26.4524Z" fill="white"/>
<path d="M45.3329 26.238C45.2234 26.238 45.1377 26.3238 45.1377 26.4333C45.1377 26.5428 45.2234 26.6285 45.3329 26.6285C45.4425 26.6285 45.5282 26.5428 45.5282 26.4333C45.5282 26.3285 45.4377 26.238 45.3329 26.238Z" fill="white"/>
<path d="M45.3135 26.6812C45.2088 26.6812 45.123 26.7669 45.123 26.8716C45.123 26.9764 45.2088 27.0621 45.3135 27.0621C45.4183 27.0621 45.504 26.9764 45.504 26.8716C45.504 26.7669 45.4183 26.6812 45.3135 26.6812Z" fill="white"/>
<path d="M45.7283 26.2C45.6378 26.2 45.5664 26.2714 45.5664 26.3619C45.5664 26.4523 45.6378 26.5238 45.7283 26.5238C45.8188 26.5238 45.8902 26.4523 45.8902 26.3619C45.8902 26.2714 45.814 26.2 45.7283 26.2Z" fill="white"/>
<path d="M46.0135 26.0525C45.942 26.0525 45.8801 26.1144 45.8801 26.1858C45.8801 26.2573 45.942 26.3192 46.0135 26.3192C46.0849 26.3192 46.1468 26.2573 46.1468 26.1858C46.1468 26.1144 46.0897 26.0525 46.0135 26.0525Z" fill="white"/>
<path d="M46.2044 25.8762C46.1472 25.8762 46.0996 25.9238 46.0996 25.981C46.0996 26.0381 46.1472 26.0857 46.2044 26.0857C46.2615 26.0857 46.3091 26.0381 46.3091 25.981C46.3091 25.9238 46.2615 25.8762 46.2044 25.8762Z" fill="white"/>
<path d="M46.204 26.2666C46.1469 26.2666 46.104 26.3142 46.104 26.3666C46.104 26.4237 46.1516 26.4666 46.204 26.4666C46.2611 26.4666 46.304 26.419 46.304 26.3666C46.304 26.3142 46.2611 26.2666 46.204 26.2666Z" fill="white"/>
<path d="M46.247 26.5857C46.1898 26.5857 46.147 26.6285 46.147 26.6857C46.147 26.7428 46.1898 26.7857 46.247 26.7857C46.3041 26.7857 46.347 26.7428 46.347 26.6857C46.347 26.6333 46.2994 26.5857 46.247 26.5857Z" fill="white"/>
<path d="M46.3616 26.4189C46.3187 26.4189 46.2854 26.4523 46.2854 26.4999C46.2854 26.5428 46.3187 26.5761 46.3616 26.5761C46.4044 26.5761 46.4378 26.5428 46.4378 26.4999C46.4425 26.4523 46.4092 26.4189 46.3616 26.4189Z" fill="white"/>
<path d="M46.4281 26.2429C46.39 26.2429 46.3567 26.2763 46.3567 26.3143C46.3567 26.3524 46.39 26.3858 46.4281 26.3858C46.4662 26.3858 46.4995 26.3524 46.4995 26.3143C46.4995 26.2763 46.471 26.2429 46.4281 26.2429Z" fill="white"/>
<path d="M46.3374 26.0811C46.2946 26.0811 46.2612 26.1144 46.2612 26.1572C46.2612 26.2001 46.2946 26.2334 46.3374 26.2334C46.3803 26.2334 46.4136 26.2001 46.4136 26.1572C46.4136 26.1144 46.3803 26.0811 46.3374 26.0811Z" fill="white"/>
<path d="M46.4469 25.8667C46.4088 25.8667 46.3755 25.9 46.3755 25.9381C46.3755 25.9762 46.4088 26.0096 46.4469 26.0096C46.485 26.0096 46.5183 25.9762 46.5183 25.9381C46.5183 25.8953 46.485 25.8667 46.4469 25.8667Z" fill="white"/>
<path d="M46.4901 26.043C46.4616 26.043 46.4377 26.0668 46.4377 26.0953C46.4377 26.1239 46.4616 26.1477 46.4901 26.1477C46.5187 26.1477 46.5425 26.1239 46.5425 26.0953C46.5425 26.0668 46.5187 26.043 46.4901 26.043Z" fill="white"/>
<path d="M46.4854 25.7144C46.4568 25.7144 46.4377 25.7382 46.4377 25.762C46.4377 25.7905 46.4616 25.8096 46.4854 25.8096C46.5139 25.8096 46.533 25.7858 46.533 25.762C46.5377 25.7382 46.5139 25.7144 46.4854 25.7144Z" fill="white"/>
<path d="M46.3281 25.6953C46.2805 25.6953 46.2424 25.7334 46.2424 25.781C46.2424 25.8286 46.2805 25.8667 46.3281 25.8667C46.3758 25.8667 46.4139 25.8286 46.4139 25.781C46.4139 25.7334 46.3758 25.6953 46.3281 25.6953Z" fill="white"/>
<path d="M46.4282 25.5286C46.3901 25.5286 46.3616 25.5571 46.3616 25.5952C46.3616 25.6333 46.3901 25.6619 46.4282 25.6619C46.4663 25.6619 46.4949 25.6333 46.4949 25.5952C46.4901 25.5571 46.4616 25.5286 46.4282 25.5286Z" fill="white"/>
<path d="M46.4086 25.3857C46.3848 25.3857 46.3657 25.4048 46.3657 25.4286C46.3657 25.4524 46.3848 25.4715 46.4086 25.4715C46.4324 25.4715 46.4514 25.4524 46.4514 25.4286C46.4562 25.4048 46.4372 25.3857 46.4086 25.3857Z" fill="white"/>
<path d="M45.7043 26.5811C45.6185 26.5811 45.5471 26.6525 45.5471 26.7382C45.5471 26.8239 45.6185 26.8953 45.7043 26.8953C45.79 26.8953 45.8614 26.8239 45.8614 26.7382C45.8614 26.6525 45.79 26.5811 45.7043 26.5811Z" fill="white"/>
<path d="M44.8611 26.7334C44.7516 26.7334 44.6611 26.8239 44.6611 26.9334C44.6611 27.0429 44.7516 27.1334 44.8611 27.1334C44.9707 27.1334 45.0611 27.0429 45.0611 26.9334C45.0659 26.8239 44.9754 26.7334 44.8611 26.7334Z" fill="white"/>
<path d="M45.0805 27.1382C44.9852 27.1382 44.9043 27.2144 44.9043 27.3144C44.9043 27.4096 44.9805 27.4906 45.0805 27.4906C45.1757 27.4906 45.2567 27.4144 45.2567 27.3144C45.2567 27.2144 45.1757 27.1382 45.0805 27.1382Z" fill="white"/>
<path d="M45.4707 27.0857C45.3803 27.0857 45.3088 27.1571 45.3088 27.2476C45.3088 27.3381 45.3803 27.4095 45.4707 27.4095C45.5612 27.4095 45.6326 27.3381 45.6326 27.2476C45.6326 27.1571 45.5565 27.0857 45.4707 27.0857Z" fill="white"/>
<path d="M45.804 26.9382C45.723 26.9382 45.6516 27.0049 45.6516 27.0906C45.6516 27.1716 45.7183 27.243 45.804 27.243C45.8849 27.243 45.9564 27.1763 45.9564 27.0906C45.9516 27.0049 45.8849 26.9382 45.804 26.9382Z" fill="white"/>
<path d="M46.0616 26.762C45.9901 26.762 45.9377 26.8191 45.9377 26.8858C45.9377 26.9572 45.9949 27.0096 46.0616 27.0096C46.133 27.0096 46.1854 26.9524 46.1854 26.8858C46.1901 26.8191 46.133 26.762 46.0616 26.762Z" fill="white"/>
<path d="M45.9995 26.4287C45.9281 26.4287 45.8662 26.4859 45.8662 26.562C45.8662 26.6335 45.9234 26.6954 45.9995 26.6954C46.071 26.6954 46.1329 26.6382 46.1329 26.562C46.1329 26.4859 46.071 26.4287 45.9995 26.4287Z" fill="white"/>
<path d="M45.5093 25.6096C45.3903 25.6096 45.2903 25.7096 45.2903 25.8287C45.2903 25.9477 45.3903 26.0477 45.5093 26.0477C45.6284 26.0477 45.7284 25.9477 45.7284 25.8287C45.7284 25.7096 45.6331 25.6096 45.5093 25.6096Z" fill="white"/>
<path d="M45.2616 25.2332C45.1521 25.2332 45.0664 25.3189 45.0664 25.4284C45.0664 25.5379 45.1521 25.6236 45.2616 25.6236C45.3712 25.6236 45.4569 25.5379 45.4569 25.4284C45.4569 25.3189 45.3664 25.2332 45.2616 25.2332Z" fill="white"/>
<path d="M45.6475 25.0332C45.5427 25.0332 45.457 25.1189 45.457 25.2237C45.457 25.3284 45.5427 25.4142 45.6475 25.4142C45.7523 25.4142 45.838 25.3284 45.838 25.2237C45.838 25.1189 45.7523 25.0332 45.6475 25.0332Z" fill="white"/>
<path d="M44.9998 24.9619C44.9093 24.9619 44.8379 25.0333 44.8379 25.1238C44.8379 25.2143 44.9093 25.2857 44.9998 25.2857C45.0903 25.2857 45.1617 25.2143 45.1617 25.1238C45.1617 25.0333 45.0855 24.9619 44.9998 24.9619Z" fill="white"/>
<path d="M44.7046 24.8237C44.6284 24.8237 44.5713 24.8856 44.5713 24.9571C44.5713 25.0285 44.6332 25.0904 44.7046 25.0904C44.7761 25.0904 44.838 25.0285 44.838 24.9571C44.838 24.8856 44.7808 24.8237 44.7046 24.8237Z" fill="white"/>
<path d="M44.4329 24.7905C44.3757 24.7905 44.3281 24.8381 44.3281 24.8953C44.3281 24.9524 44.3757 25 44.4329 25C44.49 25 44.5376 24.9524 44.5376 24.8953C44.5376 24.8381 44.49 24.7905 44.4329 24.7905Z" fill="white"/>
<path d="M44.7663 24.5999C44.7091 24.5999 44.6663 24.6475 44.6663 24.6999C44.6663 24.7522 44.7139 24.7999 44.7663 24.7999C44.8234 24.7999 44.8663 24.7522 44.8663 24.6999C44.8663 24.6475 44.8234 24.5999 44.7663 24.5999Z" fill="white"/>
<path d="M45.0189 24.4094C44.9618 24.4094 44.9189 24.4523 44.9189 24.5094C44.9189 24.5666 44.9618 24.6094 45.0189 24.6094C45.0761 24.6094 45.1189 24.5666 45.1189 24.5094C45.1189 24.4523 45.0761 24.4094 45.0189 24.4094Z" fill="white"/>
<path d="M44.7998 24.4238C44.757 24.4238 44.7236 24.4572 44.7236 24.5048C44.7236 24.5476 44.757 24.581 44.7998 24.581C44.8427 24.581 44.876 24.5476 44.876 24.5048C44.876 24.4572 44.8427 24.4238 44.7998 24.4238Z" fill="white"/>
<path d="M44.6046 24.4619C44.5665 24.4619 44.5332 24.4952 44.5332 24.5333C44.5332 24.5714 44.5665 24.6048 44.6046 24.6048C44.6427 24.6048 44.6761 24.5714 44.6761 24.5333C44.6761 24.4952 44.6475 24.4619 44.6046 24.4619Z" fill="white"/>
<path d="M44.5186 24.6191C44.4757 24.6191 44.4424 24.6525 44.4424 24.6953C44.4424 24.7382 44.4757 24.7715 44.5186 24.7715C44.5614 24.7715 44.5948 24.7382 44.5948 24.6953C44.5948 24.6525 44.5614 24.6191 44.5186 24.6191Z" fill="white"/>
<path d="M44.2714 24.6379C44.2333 24.6379 44.2 24.6713 44.2 24.7094C44.2 24.7475 44.2333 24.7808 44.2714 24.7808C44.3095 24.7808 44.3428 24.7475 44.3428 24.7094C44.3428 24.6713 44.3095 24.6379 44.2714 24.6379Z" fill="white"/>
<path d="M44.3854 24.5427C44.3568 24.5427 44.333 24.5665 44.333 24.5951C44.333 24.6237 44.3568 24.6475 44.3854 24.6475C44.414 24.6475 44.4378 24.6237 44.4378 24.5951C44.4378 24.5665 44.414 24.5427 44.3854 24.5427Z" fill="white"/>
<path d="M44.1001 24.7144C44.0715 24.7144 44.0525 24.7382 44.0525 24.762C44.0525 24.7905 44.0763 24.8096 44.1001 24.8096C44.1287 24.8096 44.1477 24.7858 44.1477 24.762C44.1477 24.7334 44.1287 24.7144 44.1001 24.7144Z" fill="white"/>
<path d="M44.1951 24.8047C44.1475 24.8047 44.1094 24.8428 44.1094 24.8904C44.1094 24.938 44.1475 24.9761 44.1951 24.9761C44.2427 24.9761 44.2808 24.938 44.2808 24.8904C44.2808 24.8428 44.2379 24.8047 44.1951 24.8047Z" fill="white"/>
<path d="M43.9854 24.8333C43.9473 24.8333 43.9187 24.8618 43.9187 24.8999C43.9187 24.938 43.9473 24.9666 43.9854 24.9666C44.0235 24.9666 44.052 24.938 44.052 24.8999C44.052 24.8618 44.0235 24.8333 43.9854 24.8333Z" fill="white"/>
<path d="M43.8522 24.9475C43.8284 24.9475 43.8093 24.9666 43.8093 24.9904C43.8093 25.0142 43.8284 25.0332 43.8522 25.0332C43.876 25.0332 43.895 25.0142 43.895 24.9904C43.895 24.9666 43.876 24.9475 43.8522 24.9475Z" fill="white"/>
<path d="M45.3378 24.7952C45.2521 24.7952 45.1807 24.8666 45.1807 24.9523C45.1807 25.038 45.2521 25.1095 45.3378 25.1095C45.4235 25.1095 45.495 25.038 45.495 24.9523C45.4997 24.8666 45.4283 24.7952 45.3378 24.7952Z" fill="white"/>
<path d="M45.928 25.3809C45.8185 25.3809 45.728 25.4713 45.728 25.5809C45.728 25.6904 45.8185 25.7809 45.928 25.7809C46.0376 25.7809 46.128 25.6904 46.128 25.5809C46.128 25.4713 46.0376 25.3809 45.928 25.3809Z" fill="white"/>
<path d="M46.1474 25.0286C46.0521 25.0286 45.9712 25.1048 45.9712 25.2048C45.9712 25.3 46.0474 25.3809 46.1474 25.3809C46.2426 25.3809 46.3236 25.3048 46.3236 25.2048C46.3188 25.1095 46.2426 25.0286 46.1474 25.0286Z" fill="white"/>
<path d="M45.8948 24.738C45.8043 24.738 45.7329 24.8095 45.7329 24.8999C45.7329 24.9904 45.8043 25.0618 45.8948 25.0618C45.9853 25.0618 46.0567 24.9904 46.0567 24.8999C46.0567 24.8095 45.9853 24.738 45.8948 24.738Z" fill="white"/>
<path d="M45.5901 24.5427C45.5092 24.5427 45.4377 24.6094 45.4377 24.6951C45.4377 24.7761 45.5044 24.8475 45.5901 24.8475C45.6711 24.8475 45.7425 24.7808 45.7425 24.6951C45.7425 24.6094 45.6758 24.5427 45.5901 24.5427Z" fill="white"/>
<path d="M45.2901 24.438C45.2186 24.438 45.1663 24.4951 45.1663 24.5618C45.1663 24.6332 45.2234 24.6856 45.2901 24.6856C45.3615 24.6856 45.4139 24.6285 45.4139 24.5618C45.4139 24.4951 45.3567 24.438 45.2901 24.438Z" fill="white"/>
<path d="M45.0379 24.6523C44.9664 24.6523 44.9045 24.7095 44.9045 24.7857C44.9045 24.8571 44.9617 24.919 45.0379 24.919C45.1093 24.919 45.1712 24.8619 45.1712 24.7857C45.1664 24.7142 45.1093 24.6523 45.0379 24.6523Z" fill="white"/>
<path d="M44.6473 25.3477C44.5282 25.3477 44.4282 25.4477 44.4282 25.5667C44.4282 25.6858 44.5282 25.7857 44.6473 25.7857C44.7663 25.7857 44.8663 25.6858 44.8663 25.5667C44.8663 25.4477 44.7711 25.3477 44.6473 25.3477Z" fill="white"/>
<path d="M44.4281 25.7905C44.3186 25.7905 44.2329 25.8762 44.2329 25.9858C44.2329 26.0953 44.3186 26.181 44.4281 26.181C44.5377 26.181 44.6234 26.0953 44.6234 25.9858C44.6186 25.881 44.5329 25.7905 44.4281 25.7905Z" fill="white"/>
<path d="M44.0569 25.562C43.9522 25.562 43.8665 25.6477 43.8665 25.7525C43.8665 25.8572 43.9522 25.943 44.0569 25.943C44.1617 25.943 44.2474 25.8572 44.2474 25.7525C44.2474 25.6477 44.1617 25.562 44.0569 25.562Z" fill="white"/>
<path d="M44.2952 26.2048C44.2047 26.2048 44.1333 26.2763 44.1333 26.3667C44.1333 26.4572 44.2047 26.5286 44.2952 26.5286C44.3857 26.5286 44.4571 26.4572 44.4571 26.3667C44.4571 26.2763 44.3809 26.2048 44.2952 26.2048Z" fill="white"/>
<path d="M44.2998 26.5667C44.2284 26.5667 44.1665 26.6286 44.1665 26.7C44.1665 26.7714 44.2284 26.8333 44.2998 26.8333C44.3713 26.8333 44.4332 26.7714 44.4332 26.7C44.4332 26.6286 44.3713 26.5667 44.2998 26.5667Z" fill="white"/>
<path d="M44.3806 26.8618C44.3235 26.8618 44.2759 26.9094 44.2759 26.9666C44.2759 27.0237 44.3235 27.0713 44.3806 27.0713C44.4378 27.0713 44.4854 27.0237 44.4854 26.9666C44.4854 26.9094 44.4378 26.8618 44.3806 26.8618Z" fill="white"/>
<path d="M44.047 26.6763C43.9899 26.6763 43.947 26.7239 43.947 26.7763C43.947 26.8334 43.9946 26.8763 44.047 26.8763C44.1042 26.8763 44.147 26.8287 44.147 26.7763C44.147 26.7191 44.0994 26.6763 44.047 26.6763Z" fill="white"/>
<path d="M43.7519 26.5525C43.6947 26.5525 43.6519 26.5953 43.6519 26.6525C43.6519 26.7096 43.6947 26.7525 43.7519 26.7525C43.809 26.7525 43.8519 26.7096 43.8519 26.6525C43.8519 26.6001 43.8042 26.5525 43.7519 26.5525Z" fill="white"/>
<path d="M43.8568 26.7715C43.814 26.7715 43.7759 26.8048 43.7759 26.8524C43.7759 26.8953 43.8092 26.9286 43.8568 26.9286C43.8997 26.9286 43.933 26.8953 43.933 26.8524C43.933 26.8048 43.8997 26.7715 43.8568 26.7715Z" fill="white"/>
<path d="M43.9804 26.9285C43.9423 26.9285 43.9089 26.9618 43.9089 26.9999C43.9089 27.038 43.9423 27.0713 43.9804 27.0713C44.0185 27.0713 44.0518 27.038 44.0518 26.9999C44.0518 26.9618 44.0185 26.9285 43.9804 26.9285Z" fill="white"/>
<path d="M44.1665 26.9189C44.1237 26.9189 44.0903 26.9523 44.0903 26.9951C44.0903 27.038 44.1237 27.0713 44.1665 27.0713C44.2094 27.0713 44.2427 27.038 44.2427 26.9951C44.2427 26.9523 44.2094 26.9189 44.1665 26.9189Z" fill="white"/>
<path d="M44.2997 27.1333C44.2616 27.1333 44.2283 27.1666 44.2283 27.2047C44.2283 27.2428 44.2616 27.2762 44.2997 27.2762C44.3378 27.2762 44.3711 27.2428 44.3711 27.2047C44.3711 27.1619 44.3378 27.1333 44.2997 27.1333Z" fill="white"/>
<path d="M44.1427 27.1047C44.1141 27.1047 44.0903 27.1285 44.0903 27.1571C44.0903 27.1857 44.1141 27.2095 44.1427 27.2095C44.1713 27.2095 44.1951 27.1857 44.1951 27.1571C44.1951 27.1285 44.1713 27.1047 44.1427 27.1047Z" fill="white"/>
<path d="M44.4282 27.2761C44.3997 27.2761 44.3806 27.2999 44.3806 27.3237C44.3806 27.3523 44.4044 27.3714 44.4282 27.3714C44.4568 27.3714 44.4759 27.3476 44.4759 27.3237C44.4759 27.2952 44.4568 27.2761 44.4282 27.2761Z" fill="white"/>
<path d="M44.4947 27.0952C44.447 27.0952 44.4089 27.1333 44.4089 27.1809C44.4089 27.2286 44.447 27.2666 44.4947 27.2666C44.5423 27.2666 44.5804 27.2286 44.5804 27.1809C44.5804 27.1333 44.5423 27.0952 44.4947 27.0952Z" fill="white"/>
<path d="M44.6045 27.2905C44.5664 27.2905 44.5378 27.3191 44.5378 27.3572C44.5378 27.3953 44.5664 27.4239 44.6045 27.4239C44.6426 27.4239 44.6712 27.3953 44.6712 27.3572C44.6712 27.3191 44.6426 27.2905 44.6045 27.2905Z" fill="white"/>
<path d="M44.7567 27.3809C44.7329 27.3809 44.7139 27.3999 44.7139 27.4237C44.7139 27.4475 44.7329 27.4666 44.7567 27.4666C44.7805 27.4666 44.7996 27.4475 44.7996 27.4237C44.7996 27.3999 44.7805 27.3809 44.7567 27.3809Z" fill="white"/>
<path d="M43.9757 25.9951C43.89 25.9951 43.8186 26.0665 43.8186 26.1523C43.8186 26.238 43.89 26.3094 43.9757 26.3094C44.0615 26.3094 44.1329 26.238 44.1329 26.1523C44.1376 26.0665 44.0662 25.9951 43.9757 25.9951Z" fill="white"/>
<path d="M44.2281 25.1333C44.1186 25.1333 44.0281 25.2238 44.0281 25.3333C44.0281 25.4428 44.1186 25.5333 44.2281 25.5333C44.3376 25.5333 44.4281 25.4428 44.4281 25.3333C44.4281 25.219 44.3376 25.1333 44.2281 25.1333Z" fill="white"/>
<path d="M43.79 25.157C43.6947 25.157 43.6138 25.2332 43.6138 25.3332C43.6138 25.4284 43.69 25.5094 43.79 25.5094C43.8852 25.5094 43.9661 25.4332 43.9661 25.3332C43.9661 25.2379 43.8852 25.157 43.79 25.157Z" fill="white"/>
<path d="M43.6517 25.5381C43.5612 25.5381 43.4897 25.6095 43.4897 25.7C43.4897 25.7905 43.5612 25.8619 43.6517 25.8619C43.7421 25.8619 43.8136 25.7905 43.8136 25.7C43.8136 25.6095 43.7421 25.5381 43.6517 25.5381Z" fill="white"/>
<path d="M43.6233 25.9189C43.5424 25.9189 43.4709 25.9856 43.4709 26.0713C43.4709 26.1523 43.5376 26.2237 43.6233 26.2237C43.7043 26.2237 43.7757 26.157 43.7757 26.0713C43.7757 25.9856 43.7043 25.9189 43.6233 25.9189Z" fill="white"/>
<path d="M43.6663 26.2666C43.5949 26.2666 43.5425 26.3237 43.5425 26.3904C43.5425 26.4618 43.5996 26.5142 43.6663 26.5142C43.7377 26.5142 43.7901 26.4571 43.7901 26.3904C43.7901 26.3237 43.733 26.2666 43.6663 26.2666Z" fill="white"/>
<path d="M43.9854 26.3713C43.914 26.3713 43.8521 26.4285 43.8521 26.5047C43.8521 26.5761 43.9092 26.638 43.9854 26.638C44.0568 26.638 44.1187 26.5809 44.1187 26.5047C44.114 26.4285 44.0568 26.3713 43.9854 26.3713Z" fill="white"/>
<path d="M43.0145 22.8999C42.9621 22.8856 42.9097 22.9142 42.8954 22.9666L41.324 28.757C41.3097 28.8094 41.3383 28.8618 41.3906 28.8761C41.443 28.8904 41.4954 28.8618 41.5097 28.8094L43.0811 23.019C43.1002 22.9713 43.0668 22.9142 43.0145 22.8999Z" fill="white"/>
<path d="M7.3714 28.2615C7.4714 28.2901 7.55235 28.352 7.60473 28.4425C7.61902 28.4711 7.63331 28.4996 7.63807 28.5234C7.72854 28.4949 7.82855 28.4806 7.88569 28.4758C7.88569 28.4711 7.88569 28.4711 7.88569 28.4663C7.88569 28.3901 7.89521 28.3568 7.90474 28.3425C7.91902 28.3139 7.95235 28.2854 8.0095 28.252C8.02378 28.2425 8.03331 28.2377 8.04759 28.233C8.05235 28.1568 8.05712 27.9711 8.06188 27.8901C8.06664 27.7854 8.08569 27.533 8.08569 27.5187C8.08569 27.4996 8.09997 27.4711 8.12854 27.4473C8.1714 27.4187 8.20474 27.3949 8.21902 27.3806C8.22378 27.3615 8.22854 27.3092 8.22854 27.2615V27.2092L8.28093 27.2044C8.28569 27.2044 8.29997 27.1996 8.31426 27.1901C8.31902 27.1711 8.31426 27.1234 8.3095 27.0806L8.30473 27.0377L8.34283 27.0187C8.36188 27.0092 8.4095 26.9758 8.42854 26.9425C8.44759 26.9044 8.46188 26.8235 8.46664 26.7568C8.44283 26.7806 8.41902 26.7901 8.39521 26.7901C8.37616 26.7901 8.31902 26.7806 8.31426 26.6901C8.30474 26.552 8.41902 26.4711 8.42378 26.4663L8.46188 26.4377L8.49521 26.4711C8.50473 26.4758 8.51426 26.4854 8.52854 26.4949C8.53331 26.4854 8.53331 26.4711 8.53807 26.4615C8.55235 26.4139 8.5714 26.3568 8.58093 26.2568C8.59521 26.1425 8.56664 26.1139 8.55712 26.1092C8.55712 26.1092 8.55712 26.1092 8.55235 26.1044C8.54283 26.0996 8.52378 26.0949 8.50474 26.0949C8.49045 26.0949 8.47616 26.0949 8.46664 26.1044C8.44283 26.1234 8.41902 26.133 8.39521 26.133C8.36664 26.133 8.34283 26.1187 8.32854 26.0949C8.30473 26.0568 8.31426 25.9996 8.32854 25.9663C8.34759 25.933 8.38569 25.9139 8.4714 25.9044C8.48569 25.9044 8.49997 25.8996 8.5095 25.8996C8.5095 25.8901 8.50474 25.8854 8.50474 25.8854L8.45712 25.7854L8.56664 25.8044C8.56664 25.8044 8.66664 25.8187 8.78569 25.8187C8.90474 25.8187 9.0095 25.8044 9.08569 25.7758C9.36188 25.6806 9.72854 25.6711 9.83331 25.6663C9.89997 25.6663 9.96664 25.6711 10.0333 25.6711C10.7857 25.6711 11.2047 25.5187 11.3809 25.4568C11.3904 25.452 11.3952 25.452 11.4 25.4473C11.5904 25.3806 11.7952 25.2615 11.9666 25.1235C12.1524 24.9711 12.2809 24.7996 12.3381 24.6473C12.4381 24.4187 12.4619 24.0568 12.2047 23.7996C12.0619 23.6568 11.8857 23.5854 11.6714 23.5854C11.5952 23.5854 11.5285 23.5949 11.4666 23.6044C11.6428 23.6663 11.7762 23.7377 11.8762 23.8282C11.9904 23.9282 12.0333 24.033 12.0619 24.1282V24.133V24.1377C12.0809 24.2568 12.0714 24.3711 12.0285 24.4806C11.9762 24.6092 11.8762 24.7235 11.7333 24.8235C11.3857 25.0901 10.8238 25.1663 10.5952 25.1854C10.5095 25.1949 10.4 25.1996 10.2762 25.1996C9.99045 25.1996 9.66188 25.1711 9.53331 25.1473C9.40473 25.1235 9.08093 25.0949 8.9095 25.0806C8.8714 25.0758 8.84283 25.0758 8.81902 25.0711C8.78093 25.0663 8.74759 25.0663 8.71426 25.0663C8.64283 25.0663 8.59997 25.0806 8.55712 25.1235C8.50473 25.1711 8.46188 25.1901 8.42378 25.1901C8.39997 25.1901 8.38093 25.1806 8.36664 25.1663C8.36664 25.1663 8.24759 25.0234 8.07616 25.0234C8.06664 25.0234 8.05712 25.0234 8.04759 25.0234C7.90474 25.033 7.86664 25.0711 7.83331 25.0996C7.81902 25.1139 7.79997 25.1282 7.77616 25.1425C7.75712 25.152 7.73807 25.1615 7.71426 25.1615C7.68569 25.1615 7.66664 25.1473 7.65235 25.1377C7.64283 25.133 7.51426 25.0473 7.3714 25.0234C7.35712 25.0234 7.33807 25.0234 7.32378 25.0234C7.11902 25.0234 6.93331 25.133 6.93331 25.133L6.86664 25.1711L6.84759 25.0996C6.83331 25.0854 6.77616 25.0663 6.68569 25.0663C6.66664 25.0663 6.64759 25.0663 6.63331 25.0711C6.59521 25.0758 6.52854 25.0806 6.45235 25.0854C6.2714 25.0996 6.02378 25.1187 5.91426 25.1425C5.79045 25.1711 5.36664 25.2092 5.01902 25.2092C4.92378 25.2092 4.84283 25.2044 4.77616 25.1996C4.66664 25.1901 4.45235 25.1711 4.2095 25.1092C3.9714 25.0473 3.77616 24.9615 3.62854 24.852C3.48093 24.752 3.38093 24.6377 3.32378 24.5139C3.28093 24.4092 3.26664 24.2949 3.28569 24.1758V24.1711V24.1663C3.31426 24.0711 3.35712 23.9663 3.46664 23.8615C3.56188 23.7711 3.69521 23.6949 3.8714 23.633C3.81902 23.6235 3.75235 23.6139 3.68569 23.6139C3.46664 23.6139 3.28093 23.6901 3.13807 23.8377C2.88569 24.1044 2.91426 24.4615 3.01902 24.6901C3.07616 24.8425 3.2095 25.0092 3.40474 25.1615C3.58093 25.2996 3.79521 25.4139 3.98569 25.4758C3.99521 25.4806 4.0095 25.4854 4.01902 25.4854C4.2095 25.552 4.59997 25.6854 5.31426 25.6854C5.41426 25.6854 5.51426 25.6806 5.61902 25.6758H5.62378C5.63807 25.6758 5.64759 25.6758 5.66664 25.6758C5.69997 25.6758 5.73807 25.6758 5.78093 25.6758C6.05712 25.6758 6.26664 25.6996 6.41426 25.7473C6.61426 25.8139 6.83807 25.8139 6.88093 25.8139C6.88569 25.8139 6.88569 25.8139 6.89045 25.8139H6.91902L6.93807 25.8377C6.94759 25.852 6.95235 25.8663 6.95235 25.8901C6.95712 25.9187 6.96188 25.9711 6.96664 26.0377C6.97616 26.1282 6.93331 26.2044 6.85235 26.252C6.83331 26.2615 6.81902 26.2711 6.80473 26.2758C6.8095 26.2901 6.81426 26.3092 6.81902 26.3282C6.82854 26.3758 6.83807 26.4234 6.84759 26.4615C6.85235 26.4806 6.85235 26.4996 6.85712 26.5139C6.87616 26.533 6.89045 26.5568 6.89997 26.5758C6.90473 26.5806 6.9095 26.5901 6.91426 26.5949C6.92378 26.6044 6.94283 26.6187 6.95235 26.6282L7.04759 26.6949L6.94759 26.7282C6.94759 26.833 6.96188 26.952 6.99997 27.0092C7.00473 27.0092 7.0095 27.0139 7.01426 27.0139C7.05235 27.0282 7.12854 27.0568 7.15712 27.1377L7.16188 27.1473V27.1568C7.16664 27.2425 7.17616 27.3425 7.18093 27.3949C7.24283 27.4235 7.28093 27.4758 7.29045 27.4901C7.32378 27.533 7.33807 27.5854 7.34283 27.6235V27.6282C7.34283 27.633 7.34283 27.6473 7.34759 27.6663C7.35235 27.6949 7.35235 27.733 7.35712 27.7473C7.35712 27.7758 7.35712 27.8187 7.35712 27.8711C7.35235 27.9282 7.35235 27.9901 7.35235 28.0568C7.35235 28.133 7.36188 28.2139 7.3714 28.2615ZM7.54283 28.6949L7.53331 28.6092C7.53331 28.5996 7.50473 28.3996 7.30473 28.3663L7.26188 28.3615L7.25235 28.3235C7.25235 28.3187 7.22378 28.1901 7.22378 28.052C7.22378 27.9854 7.22378 27.9139 7.22854 27.8615C7.22854 27.8139 7.23331 27.7758 7.23331 27.752C7.23331 27.7377 7.22854 27.6996 7.22378 27.6711C7.22378 27.6568 7.21902 27.6425 7.21902 27.633C7.21426 27.5949 7.20474 27.5711 7.19045 27.5568L7.18569 27.552V27.5473C7.17616 27.533 7.14283 27.4949 7.1095 27.4901L7.06664 27.4806L7.06188 27.4377C7.06188 27.433 7.04759 27.2949 7.04283 27.1663C7.03331 27.1425 7.0095 27.133 6.97616 27.1187C6.95235 27.1092 6.93331 27.1044 6.91902 27.0854C6.89521 27.0568 6.83331 26.9854 6.83331 26.6854V26.6758C6.82854 26.6711 6.82854 26.6711 6.82378 26.6663C6.81426 26.6568 6.8095 26.6425 6.79997 26.633C6.79521 26.6235 6.78093 26.5996 6.77616 26.5949L6.76188 26.5854L6.75235 26.5711C6.74283 26.5568 6.73807 26.533 6.72854 26.4806C6.72378 26.4425 6.71426 26.3949 6.69997 26.352C6.69045 26.3092 6.6714 26.2568 6.6714 26.2568L6.64283 26.1854L6.71426 26.1758C6.71902 26.1758 6.75712 26.1663 6.79045 26.1473C6.84283 26.1139 6.84759 26.0711 6.84283 26.0473C6.83807 25.9949 6.83331 25.9568 6.83331 25.933C6.74283 25.9282 6.55235 25.9187 6.37616 25.8615C6.24283 25.8187 6.04759 25.7949 5.78093 25.7949C5.73807 25.7949 5.69997 25.7949 5.66664 25.7949C5.65235 25.7949 5.63807 25.7949 5.62854 25.7949C5.52378 25.7996 5.41902 25.8044 5.31902 25.8044C5.00474 25.8044 4.7095 25.7758 4.44759 25.7234C4.22854 25.6806 4.07616 25.6282 3.98569 25.5949C3.9714 25.5901 3.96188 25.5854 3.95235 25.5854C3.74759 25.5187 3.52378 25.3949 3.33331 25.252C3.18569 25.1377 2.99045 24.952 2.9095 24.733C2.84283 24.5854 2.81426 24.4139 2.82854 24.252C2.84759 24.0615 2.92378 23.8901 3.05235 23.752C3.14283 23.6568 3.24759 23.5854 3.36664 23.5425C3.46188 23.5092 3.5714 23.4901 3.68569 23.4901C3.91902 23.4901 4.09997 23.5663 4.10474 23.5711L4.26188 23.6377L4.09521 23.6806C3.5095 23.8377 3.43331 24.0663 3.39521 24.1901C3.36188 24.4139 3.45712 24.5996 3.68569 24.752H3.69045C3.96664 24.9568 4.42854 25.052 4.7714 25.0758C4.83331 25.0806 4.91426 25.0854 5.00474 25.0854C5.33331 25.0854 5.75235 25.0473 5.8714 25.0234C5.99045 24.9996 6.23807 24.9806 6.42378 24.9663C6.49997 24.9615 6.56664 24.9568 6.59997 24.952C6.61902 24.952 6.64283 24.9473 6.66664 24.9473C6.69997 24.9473 6.82854 24.952 6.89997 25.0044C6.97616 24.9663 7.13331 24.9044 7.30473 24.9044C7.32378 24.9044 7.34283 24.9044 7.36664 24.9092H7.3714C7.53331 24.933 7.68093 25.0282 7.69997 25.0425C7.7095 25.0377 7.71902 25.0282 7.72854 25.0187C7.7714 24.9806 7.83331 24.9235 8.01426 24.9092C8.02378 24.9092 8.03807 24.9092 8.04759 24.9092C8.22854 24.9092 8.36188 25.0187 8.4095 25.0711C8.41902 25.0663 8.43331 25.0568 8.45235 25.0377C8.53331 24.9568 8.62378 24.9473 8.69045 24.9473C8.72854 24.9473 8.76664 24.952 8.80473 24.952C8.82378 24.952 8.85712 24.9568 8.89521 24.9615C9.0714 24.9758 9.39045 25.0044 9.52854 25.033C9.63807 25.052 9.94759 25.0806 10.2476 25.0806C10.3666 25.0806 10.4714 25.0758 10.5524 25.0663C10.7666 25.0473 11.3095 24.9758 11.6285 24.7282H11.6333C11.8619 24.5711 11.9524 24.3854 11.9143 24.1615C11.8714 24.0377 11.7952 23.8092 11.2047 23.6663L11.0381 23.6235L11.1952 23.552C11.2047 23.5473 11.3904 23.4663 11.6333 23.4663C11.7428 23.4663 11.8476 23.4854 11.9428 23.5187C12.0571 23.5615 12.1619 23.6282 12.2524 23.7187C12.3238 23.7901 12.3762 23.8711 12.419 23.9568C12.4571 24.0377 12.4809 24.1234 12.4904 24.2139C12.5095 24.3711 12.4809 24.5425 12.4143 24.6949C12.3381 24.9187 12.1524 25.1044 12.0095 25.2187C11.8285 25.3663 11.6095 25.4949 11.4095 25.5663C11.4047 25.5663 11.3952 25.5711 11.3904 25.5711C11.2952 25.6044 11.1428 25.6615 10.9143 25.7092C10.6428 25.7663 10.3333 25.7949 9.99997 25.7949C9.93331 25.7949 9.86664 25.7949 9.79997 25.7901C9.72378 25.7901 9.35712 25.7996 9.09045 25.8901C8.99997 25.9234 8.88569 25.9377 8.74759 25.9377C8.68569 25.9377 8.63331 25.933 8.59045 25.9282C8.59045 25.9425 8.58569 25.9568 8.58093 25.9711L8.5714 25.9996C8.58093 26.0044 8.59045 26.0139 8.59521 26.0187C8.63331 26.052 8.68093 26.1139 8.66188 26.2711C8.65235 26.3806 8.62854 26.4473 8.61426 26.4996C8.60473 26.5377 8.59521 26.5615 8.59521 26.5854L8.59997 26.6806L8.52854 26.6473C8.53807 26.6663 8.54283 26.6854 8.54283 26.7139C8.54283 26.7854 8.53331 26.9187 8.49521 26.9996C8.4714 27.0473 8.42854 27.0854 8.39521 27.1092C8.39521 27.1187 8.39521 27.133 8.39997 27.1425C8.40473 27.2092 8.39521 27.2425 8.37616 27.2663C8.35712 27.2901 8.33331 27.3044 8.3095 27.3139C8.3095 27.3235 8.3095 27.333 8.3095 27.3425C8.30474 27.4187 8.29521 27.4377 8.28093 27.4568C8.26664 27.4758 8.22854 27.5044 8.1714 27.5425C8.16664 27.5996 8.15235 27.8044 8.14759 27.8949C8.14283 27.9996 8.13331 28.2711 8.13331 28.2758V28.3139L8.09997 28.3282C8.04759 28.352 7.99521 28.3854 7.98093 28.3996C7.97616 28.4187 7.97616 28.4806 7.98093 28.533L7.98569 28.5949H7.92378C7.92378 28.5949 7.72378 28.5996 7.59521 28.6615L7.54283 28.6949Z" fill="#F0E523"/>
<path d="M8.40026 26.0093C8.39549 26.0141 8.3955 26.0236 8.3955 26.0331C8.3955 26.0331 8.40026 26.0331 8.40026 26.0284L8.40978 26.0188L8.41931 26.0141C8.44311 26.0045 8.46692 25.9998 8.4955 25.9998C8.50026 25.9998 8.50026 25.9998 8.50502 25.9998L8.50978 25.9855C8.4955 25.9855 8.48597 25.9903 8.47645 25.9903C8.42407 25.9998 8.40502 26.0093 8.40026 26.0093ZM8.43359 26.5807C8.41454 26.6045 8.39549 26.6426 8.40026 26.6855L8.4574 26.6284L8.43359 26.5807ZM7.45264 28.1903C7.55264 28.2284 7.62883 28.2998 7.68121 28.395C7.68597 28.3998 7.68597 28.4045 7.69073 28.4093C7.72883 28.3998 7.76692 28.395 7.80026 28.3903C7.80502 28.3522 7.80978 28.3236 7.82407 28.295C7.84788 28.2522 7.88597 28.2141 7.9574 28.1712C7.96216 28.0855 7.96692 27.9474 7.96692 27.8807C7.97169 27.776 7.98597 27.5379 7.99073 27.5093C7.9955 27.4569 8.02407 27.4045 8.06692 27.3712L8.07169 27.3665C8.0955 27.3522 8.11454 27.3379 8.12883 27.3284C8.12883 27.3093 8.13359 27.2855 8.13359 27.2569L8.13835 27.1188L8.21931 27.1141C8.21931 27.1045 8.21931 27.095 8.21454 27.0903L8.20026 26.9855L8.2955 26.9379C8.30978 26.9284 8.33835 26.9093 8.34311 26.8998C8.34788 26.895 8.34788 26.8855 8.35264 26.876C8.28597 26.8617 8.22407 26.7998 8.21931 26.695C8.20978 26.5141 8.35264 26.4045 8.36692 26.395L8.46692 26.3236L8.47645 26.3331C8.48121 26.3093 8.48597 26.2807 8.48597 26.2474V26.2426C8.49073 26.2188 8.49073 26.2045 8.49073 26.1903C8.4574 26.2093 8.42407 26.2188 8.39073 26.2188C8.32883 26.2188 8.27645 26.1903 8.24311 26.1379C8.20026 26.0665 8.21454 25.976 8.24311 25.9236C8.27169 25.8712 8.3193 25.8474 8.37169 25.8331L8.2955 25.6712L8.57645 25.7141C8.57645 25.7141 8.66692 25.7284 8.78121 25.7284C8.89073 25.7284 8.98121 25.7141 9.05264 25.6903C9.34311 25.5903 9.7193 25.576 9.82883 25.576H9.83359H9.83835C9.90502 25.576 9.97169 25.5807 10.0336 25.5807C10.7717 25.5807 11.1764 25.4331 11.3526 25.3712C11.3574 25.3665 11.3669 25.3665 11.3717 25.3617C11.5526 25.2998 11.7479 25.1855 11.9098 25.0522C12.0812 24.9093 12.205 24.7569 12.2526 24.6188V24.6141V24.6093C12.3384 24.4045 12.3622 24.0855 12.1384 23.8617C12.0622 23.7807 11.9669 23.7284 11.8622 23.6998C11.886 23.7188 11.9145 23.7379 11.9336 23.7569C12.0622 23.8712 12.1145 23.995 12.1479 24.095L12.1526 24.1045V24.1141C12.1764 24.2522 12.1622 24.3855 12.1145 24.5045C12.0574 24.6474 11.9479 24.7807 11.786 24.8903C11.6241 25.0141 11.4098 25.1093 11.1431 25.176C10.9288 25.2284 10.7336 25.2569 10.605 25.2665C10.5145 25.276 10.405 25.2807 10.2764 25.2807C9.98597 25.2807 9.65264 25.2522 9.5193 25.2284C9.39549 25.2045 9.07645 25.176 8.90502 25.1617C8.86692 25.1569 8.83835 25.1569 8.81454 25.1522C8.78121 25.1474 8.74788 25.1474 8.71931 25.1474C8.66692 25.1474 8.64788 25.1569 8.62407 25.1807L8.61931 25.1855C8.57645 25.2236 8.50502 25.276 8.42407 25.276C8.37645 25.276 8.32883 25.2569 8.2955 25.2188L8.29073 25.2141C8.28597 25.2093 8.1955 25.1045 8.06692 25.1045C8.06216 25.1045 8.05264 25.1045 8.04788 25.1045C7.93835 25.1141 7.91454 25.1331 7.88597 25.1569C7.86692 25.176 7.84311 25.195 7.80978 25.2141C7.79073 25.2236 7.75264 25.2474 7.70502 25.2474C7.64788 25.2474 7.60978 25.2188 7.59073 25.2093C7.58121 25.2045 7.46692 25.1284 7.35264 25.1093C7.34311 25.1093 7.32883 25.1093 7.31454 25.1093C7.13835 25.1093 6.97169 25.2045 6.96692 25.2045L6.7955 25.3045L6.7574 25.1617C6.73835 25.1569 6.70978 25.1522 6.67645 25.1522C6.66216 25.1522 6.64788 25.1522 6.63359 25.1522C6.5955 25.1569 6.52883 25.1617 6.44788 25.1665C6.27169 25.1807 6.02407 25.1998 5.92407 25.2188C5.7955 25.2474 5.36692 25.2855 5.01454 25.2855C4.91931 25.2855 4.83359 25.2807 4.76216 25.276C4.65264 25.2665 4.42883 25.2474 4.18121 25.1807C3.92883 25.1141 3.72407 25.0236 3.57169 24.9093C3.40978 24.7998 3.30026 24.676 3.23835 24.5284C3.18597 24.4093 3.17169 24.276 3.1955 24.1379V24.1284L3.20026 24.1188C3.23359 24.0141 3.28121 23.895 3.40978 23.776C3.43359 23.7569 3.4574 23.7331 3.48121 23.7141C3.37645 23.7474 3.28597 23.7998 3.20978 23.8807C2.98597 24.1141 3.01454 24.4331 3.10978 24.6331L3.11454 24.6379V24.6426C3.16216 24.7807 3.29073 24.9331 3.47169 25.0712C3.64311 25.2045 3.84311 25.3141 4.02407 25.3712C4.03359 25.376 4.04788 25.3807 4.0574 25.3855C4.24311 25.4474 4.62407 25.5807 5.3193 25.5807C5.41454 25.5807 5.51454 25.576 5.6193 25.5712H5.62407C5.63835 25.5712 5.64788 25.5712 5.66216 25.5712C5.6955 25.5712 5.73359 25.5712 5.78121 25.5712C6.06692 25.5712 6.28597 25.595 6.44311 25.6474C6.62883 25.7093 6.83835 25.7093 6.88121 25.7093H6.88597H6.96216L7.00978 25.7712C7.03359 25.8045 7.03835 25.8379 7.04311 25.8665C7.04788 25.895 7.05264 25.9474 7.0574 26.0188C7.06692 26.1379 7.01454 26.2426 6.90978 26.3141C6.91931 26.3569 6.92883 26.3998 6.93359 26.4331C6.93359 26.4426 6.93835 26.4522 6.93835 26.4569C6.9574 26.476 6.96692 26.4998 6.97645 26.5141C6.97645 26.5141 6.98121 26.5188 6.98121 26.5236C6.98597 26.5284 6.9955 26.5331 7.00026 26.5379L7.23835 26.7045L7.03835 26.776C7.04311 26.8522 7.05264 26.895 7.06216 26.9188C7.11454 26.9379 7.20026 26.9855 7.23835 27.0903L7.24788 27.1093V27.1331C7.25264 27.195 7.2574 27.2665 7.26216 27.3188C7.31454 27.3522 7.34311 27.395 7.3574 27.4141C7.40502 27.476 7.4193 27.5426 7.42407 27.5855V27.595C7.42407 27.5998 7.42407 27.6141 7.42883 27.6331C7.43359 27.6617 7.43359 27.6998 7.43835 27.7141V27.7188C7.44311 27.7522 7.43835 27.7998 7.43835 27.8522C7.43359 27.9045 7.43359 27.9712 7.43359 28.0284C7.44311 28.0998 7.44788 28.1522 7.45264 28.1903ZM7.46692 28.8331L7.44788 28.6188C7.44788 28.6141 7.44311 28.576 7.4193 28.5379C7.39073 28.4903 7.35264 28.4665 7.2955 28.4569L7.19073 28.4426L7.17169 28.3426C7.17169 28.3379 7.14311 28.2045 7.13835 28.0569C7.13835 27.9855 7.13835 27.9141 7.14311 27.8569C7.14311 27.8188 7.14788 27.776 7.14788 27.7617C7.14788 27.7474 7.14311 27.7093 7.13835 27.6807V27.676C7.13835 27.6617 7.13835 27.6522 7.13359 27.6474C7.12883 27.6236 7.12407 27.6188 7.12407 27.6188L7.11931 27.6093L7.11454 27.6045C7.10978 27.5998 7.10026 27.5903 7.0955 27.5855L6.98597 27.5665L6.97169 27.4522C6.97169 27.4379 6.9574 27.3284 6.95264 27.2141C6.94788 27.2141 6.94788 27.2141 6.94311 27.2093C6.91454 27.1998 6.87645 27.1855 6.84311 27.1474C6.82883 27.1284 6.80026 27.095 6.77645 27.0188C6.75264 26.9426 6.74311 26.8379 6.73835 26.7141C6.72883 26.7045 6.72407 26.6903 6.71931 26.6807C6.71454 26.676 6.71454 26.6712 6.70978 26.6665L6.68597 26.6522L6.66692 26.6141C6.65264 26.5855 6.64788 26.5569 6.63835 26.4998C6.63359 26.4617 6.62407 26.4188 6.61454 26.376V26.3712C6.60978 26.3426 6.59549 26.3045 6.59073 26.2903L6.5193 26.1141L6.70502 26.0855C6.71454 26.0855 6.73359 26.076 6.74788 26.0665C6.7574 26.0617 6.76216 26.0569 6.76216 26.0569C6.76216 26.0569 6.76216 26.0569 6.76216 26.0522C6.76216 26.0379 6.76216 26.0284 6.7574 26.0188C6.64788 26.0093 6.4955 25.9903 6.3574 25.9474C6.23359 25.9045 6.04788 25.8855 5.79073 25.8855C5.74788 25.8855 5.70978 25.8855 5.67645 25.8855C5.66216 25.8855 5.64788 25.8855 5.63835 25.8855C5.53359 25.8903 5.42883 25.895 5.32883 25.895C5.00978 25.895 4.70978 25.8665 4.43835 25.8141C4.21454 25.7712 4.0574 25.7141 3.96216 25.6807C3.95264 25.676 3.94311 25.6712 3.93359 25.6712C3.71931 25.5998 3.48597 25.476 3.29073 25.3236C3.13359 25.1998 2.92883 25.0045 2.83835 24.7665C2.76692 24.6045 2.73359 24.4188 2.74788 24.2426C2.76692 24.0331 2.85264 23.8379 2.9955 23.6855C3.0955 23.5807 3.21454 23.5045 3.34788 23.4522C3.4574 23.4141 3.57169 23.395 3.6955 23.395C3.94311 23.395 4.12883 23.4712 4.15264 23.4807L4.6574 23.6712L4.13359 23.7617C3.60502 23.9045 3.53359 24.095 3.50026 24.2045C3.47645 24.3903 3.5574 24.5379 3.75264 24.6712L3.7574 24.676C4.0193 24.8665 4.46216 24.9617 4.79073 24.9855H4.7955C4.8574 24.9903 4.93359 24.995 5.02407 24.995C5.34311 24.995 5.7574 24.9569 5.87645 24.9331C6.00026 24.9093 6.25264 24.8855 6.43835 24.8712C6.51454 24.8665 6.58121 24.8617 6.61454 24.8569C6.63835 24.8522 6.66692 24.8522 6.69073 24.8522C6.73835 24.8522 6.84311 24.8569 6.92883 24.8998C7.02407 24.8617 7.17169 24.8093 7.32883 24.8093C7.35264 24.8093 7.37645 24.8093 7.3955 24.8141H7.40502C7.52883 24.8331 7.64311 24.8855 7.70978 24.9236C7.73359 24.9045 7.76216 24.8807 7.80502 24.8617C7.86692 24.8331 7.93835 24.8141 8.03359 24.8093C8.04788 24.8093 8.06216 24.8093 8.07645 24.8093C8.23835 24.8093 8.36692 24.8807 8.44311 24.9426C8.54311 24.8569 8.64788 24.8474 8.72407 24.8474C8.76692 24.8474 8.80502 24.8522 8.84788 24.8569C8.86692 24.8569 8.90026 24.8617 8.93835 24.8665C9.11454 24.8807 9.43835 24.9093 9.58121 24.9379C9.68597 24.9569 9.98597 24.9855 10.286 24.9855C10.4003 24.9855 10.5003 24.9807 10.5812 24.9712H10.586C10.7955 24.9522 11.3098 24.8855 11.6145 24.6522L11.6193 24.6474C11.8145 24.5141 11.8907 24.3617 11.8622 24.1807C11.8288 24.0712 11.7526 23.8807 11.2193 23.7522L10.7955 23.6474L11.1955 23.4712C11.2193 23.4617 11.4145 23.376 11.6669 23.376C11.786 23.376 11.9003 23.395 12.005 23.4331C12.1336 23.4807 12.2479 23.5522 12.3479 23.6522C12.4241 23.7284 12.486 23.8188 12.5288 23.9188C12.5717 24.0093 12.5955 24.1045 12.605 24.2045C12.6241 24.376 12.5955 24.5617 12.5241 24.7284C12.4384 24.9712 12.2431 25.1665 12.0907 25.2903C11.9003 25.4474 11.6717 25.576 11.4622 25.6522C11.4574 25.6522 11.4526 25.6569 11.4431 25.6569C11.3479 25.6903 11.1907 25.7474 10.9526 25.7998C10.6717 25.8569 10.3622 25.8855 10.0193 25.8855C9.95264 25.8855 9.88597 25.8855 9.81931 25.8807C9.74788 25.8807 9.39073 25.8903 9.14311 25.976C9.04311 26.0093 8.91454 26.0284 8.77169 26.0284C8.76216 26.0284 8.75264 26.0284 8.73835 26.0284C8.77169 26.095 8.78597 26.176 8.77169 26.2807C8.76216 26.3998 8.73835 26.476 8.71931 26.5236C8.70978 26.5474 8.70502 26.5712 8.70502 26.576L8.72407 26.8236L8.65264 26.795C8.64788 26.8712 8.63359 26.9712 8.5955 27.0426C8.57169 27.0855 8.53835 27.1236 8.50978 27.1474C8.51454 27.2093 8.50978 27.2712 8.46692 27.3236C8.45264 27.3426 8.43359 27.3569 8.41931 27.3712C8.41454 27.4379 8.40026 27.4807 8.37169 27.5188C8.3574 27.5331 8.33835 27.5569 8.27645 27.595C8.27169 27.6807 8.26216 27.8284 8.2574 27.8998C8.25264 27.9903 8.24788 28.2093 8.24311 28.276L8.23835 28.3712L8.15264 28.4093C8.12407 28.4188 8.10026 28.4331 8.08597 28.4474C8.08597 28.4665 8.08597 28.495 8.09073 28.5236L8.10502 28.6855L7.94311 28.6903C7.89073 28.6903 7.74311 28.7045 7.65264 28.7474L7.46692 28.8331Z" fill="#F0E523"/>
<path d="M4.97609 26.2663C4.97133 24.7711 6.18561 23.552 7.68085 23.552C9.17609 23.5473 10.3951 24.7615 10.3999 26.2568C10.4047 27.752 9.19037 28.9711 7.69514 28.9711C6.19514 28.9758 4.97609 27.7615 4.97609 26.2663Z" fill="#E2251E"/>
<path d="M7.68563 23.6617H7.68086C6.98563 23.6617 6.33324 23.9331 5.84277 24.4283C5.35229 24.9188 5.08563 25.5712 5.08563 26.2664C5.09039 27.695 6.25229 28.8617 7.68563 28.8617H7.69039C9.12372 28.8569 10.2856 27.6902 10.2856 26.2569C10.2809 24.8236 9.1142 23.6617 7.68563 23.6617ZM7.68563 29.0855C6.13324 29.0855 4.86658 27.8236 4.86182 26.2664C4.86182 25.5141 5.15229 24.8045 5.68563 24.2664C6.21896 23.7331 6.92848 23.4379 7.68086 23.4331H7.68563C9.23801 23.4331 10.5047 24.695 10.5094 26.2522C10.5142 27.8093 9.24753 29.076 7.69039 29.0807H7.68563V29.0855Z" fill="#F0E523"/>
<path d="M4.97609 26.2663C4.97133 24.7711 6.18561 23.552 7.68085 23.552C9.17609 23.5473 10.3951 24.7615 10.3999 26.2568C10.4047 27.752 9.19037 28.9711 7.69514 28.9711C6.19514 28.9758 4.97609 27.7615 4.97609 26.2663Z" fill="#E2251E"/>
<path d="M9.59524 24.4856L11.381 24.3333L9.5 24.3666L9.59524 24.4856Z" fill="black"/>
<path d="M7.51464 23.7714C8.96702 23.7714 10.1432 24.9476 10.1432 26.4C10.1432 27.0095 9.93845 27.5666 9.59083 28.0095C10.0242 27.5428 10.2908 26.919 10.2908 26.2333C10.2908 24.7952 9.12417 23.6333 7.69083 23.6333C7.06226 23.6333 6.48607 23.8571 6.03369 24.2285C6.4575 23.9428 6.96702 23.7714 7.51464 23.7714Z" fill="white"/>
<path d="M9.54787 24.3572L10.7336 22.9333L9.47168 24.2762L9.54787 24.3572Z" fill="black"/>
<path d="M9.36716 24.1951C9.23383 24.0713 7.97192 23.0618 7.97192 23.0618C7.97192 23.0618 9.20526 24.157 9.31954 24.2808L9.36716 24.1951Z" fill="black"/>
<path d="M9.37183 22.2761L9.38611 24.2237L9.54325 24.2809L9.37183 22.2761Z" fill="black"/>
<path d="M9.37633 22.5046L9.34776 24.2142L8.03824 23.1189L9.2049 24.3189L7.41919 24.3713L9.2049 24.457L8.33824 25.4475L9.30014 24.5284L9.39538 26.338L9.43824 24.5427L10.3478 25.3618L9.54776 24.4475L11.3192 24.3332L9.53824 24.3189L10.5382 23.138L9.47633 24.2237L9.37633 22.5046Z" fill="white"/>
<path d="M6.73307 25.8953C6.73307 25.8953 6.73783 25.9001 6.74736 26.062C6.76164 26.2239 6.56641 26.2572 6.56641 26.2572C6.56641 26.2572 6.59022 26.3143 6.59974 26.362C6.62355 26.4524 6.63307 26.5477 6.6426 26.5667C6.67117 26.5858 6.69022 26.6286 6.7045 26.6524C6.71879 26.6715 6.75688 26.6953 6.75688 26.6953L6.72831 26.7048C6.72831 26.9905 6.78069 27.0477 6.79974 27.0715C6.81403 27.0905 6.90926 27.0905 6.93783 27.1763C6.9426 27.3048 6.95688 27.4524 6.95688 27.4524C7.02831 27.4667 7.07593 27.5382 7.07593 27.5382C7.09974 27.5667 7.10926 27.6048 7.11879 27.6429C7.11879 27.6572 7.12831 27.7382 7.12831 27.762C7.13307 27.8191 7.11879 27.9429 7.12355 28.0667C7.12831 28.2001 7.15212 28.3286 7.15212 28.3286C7.39974 28.3667 7.42831 28.6191 7.42831 28.6191C7.57117 28.5524 7.78069 28.5477 7.78069 28.5477C7.78069 28.5477 7.76641 28.4239 7.79022 28.381C7.80926 28.3382 7.93783 28.2858 7.93783 28.2858C7.93783 28.2858 7.94736 28.0143 7.95212 27.9048C7.95688 27.8001 7.97593 27.5382 7.97593 27.5382C7.97593 27.5382 7.97593 27.5239 7.99022 27.5143C8.02831 27.4905 8.08545 27.4477 8.09974 27.4334C8.11403 27.4191 8.11879 27.2858 8.11879 27.2858C8.11879 27.2858 8.16641 27.281 8.19498 27.2429C8.21403 27.2191 8.19498 27.0905 8.19498 27.0905C8.19498 27.0905 8.27117 27.0524 8.3045 26.9858C8.33783 26.9239 8.35212 26.8001 8.34736 26.7286C8.34736 26.6572 8.3045 26.662 8.28545 26.6667C8.28069 26.7001 8.2045 26.8096 8.19498 26.7048C8.19022 26.6001 8.28069 26.5334 8.28069 26.5334C8.31879 26.5667 8.39974 26.6048 8.39974 26.6048C8.39498 26.5286 8.44736 26.4715 8.46641 26.281C8.48545 26.1143 8.42355 26.0858 8.41403 26.0763C8.4045 26.0667 8.31879 26.0382 8.25688 26.0715C8.19022 26.1286 8.18545 26.0477 8.2045 26.0143C8.22355 25.981 8.39022 25.9715 8.39022 25.9715C8.4045 25.9239 8.38545 25.8763 8.38545 25.8763C8.38545 25.8763 8.70926 25.9286 8.93783 25.8477C9.18545 25.762 9.52355 25.7429 9.66641 25.7429" fill="black"/>
<path d="M7.71428 25.0333C7.71428 25.0333 7.83809 24.8904 8.04761 24.8904C8.29047 24.8952 8.43333 25.0523 8.43333 25.0523C8.43333 25.0523 8.56666 24.9428 8.6238 24.9428C8.68095 24.9428 8.66666 24.9142 9.08571 24.9619C9.28095 24.9809 9.50952 25.0047 9.71428 25.0428C9.75238 25.0476 10.3667 25.0809 10.4762 25.0619C10.5524 25.0476 10.9571 25.0047 11.0476 24.9809C11.6286 24.8381 11.8238 24.5714 11.8238 24.5714C11.8238 24.5714 12.0143 24.4142 11.9381 24.119C11.8381 23.7333 11.0809 23.6095 11.0809 23.6095C11.0809 23.6095 11.9619 23.1095 12.4238 23.9047C12.4619 23.9714 12.4809 24.0476 12.5048 24.1428C12.5333 24.2666 12.519 24.4619 12.4524 24.6666C12.3095 25.1 11.8524 25.3381 11.7238 25.4142C11.2 25.7095 10.4809 25.7571 10.4429 25.7619C10.3571 25.7809 9.74285 25.7714 9.70952 25.7762C9.55714 25.7857 9.40952 25.8047 9.29047 25.8333C9.16666 25.8619 9.07618 25.8952 9.01904 25.9095C8.88571 25.9381 8.67142 25.9285 8.61904 25.919C8.61904 25.9238 8.61428 25.9523 8.59999 25.9952C8.72857 26.0714 8.68571 26.2809 8.68571 26.2809C8.68571 26.2809 8.67142 26.4285 8.62857 26.5285C8.61428 26.5666 8.62857 26.6666 8.62857 26.6666C8.62857 26.6666 8.55238 26.6285 8.55238 26.6333C8.59047 26.6952 8.55238 26.8904 8.54761 26.8952C8.53809 26.9428 8.51904 27.0285 8.41904 27.0952C8.41904 27.0952 8.42857 27.1952 8.41428 27.2285C8.39999 27.2714 8.33809 27.3047 8.33333 27.3047C8.32857 27.3952 8.31428 27.4333 8.30952 27.4381C8.29999 27.4619 8.19047 27.5333 8.19047 27.5333C8.19047 27.5333 8.15238 28.2904 8.15238 28.3C8.14761 28.3047 8.01904 28.3571 7.99999 28.3904C7.99047 28.4571 8.01428 28.5809 8.00476 28.5809C7.83333 28.5762 7.65714 28.6142 7.54285 28.6857C7.53809 28.3571 7.28095 28.3619 7.26666 28.3571C7.22857 28.219 7.23333 28 7.22857 27.9904C7.2238 27.9762 7.27142 27.6238 7.18095 27.5333C7.17142 27.5238 7.13333 27.4809 7.07142 27.4857C7.05714 27.4428 7.04761 27.219 7.04285 27.1619C7.0238 27.1285 6.91428 27.1142 6.90952 27.0714C6.88095 27.0523 6.83809 26.9571 6.83809 26.6762C6.81428 26.6476 6.79523 26.6095 6.78095 26.5952C6.77618 26.5904 6.76666 26.5857 6.76666 26.5809C6.73809 26.5523 6.71904 26.3142 6.65237 26.1904C6.64761 26.1809 6.65714 26.1857 6.67142 26.1857C6.87618 26.1571 6.85238 26.0476 6.85238 26.0476C6.85238 26.0476 6.84761 25.9238 6.84285 25.9238C6.84285 25.9238 6.61904 25.9047 6.58571 25.9C6.51428 25.8904 6.36666 25.8428 6.24285 25.8142C6.05238 25.7714 5.68095 25.7809 5.68095 25.7809C5.68095 25.7809 5.29047 25.8 5.08571 25.7857C4.74285 25.7714 4.49523 25.7142 4.42857 25.7047C4.1619 25.6666 3.77618 25.4904 3.74761 25.4809C3.60476 25.4333 3.27142 25.1762 3.20952 25.119C2.99523 24.919 2.91904 24.6952 2.91904 24.6952C2.91904 24.6952 2.81428 24.4666 2.84761 24.2047C2.92857 23.6952 3.33809 23.5523 3.38571 23.5333C3.83333 23.3762 4.24761 23.619 4.2619 23.619C4.24761 23.6381 3.48571 23.7476 3.40952 24.1952C3.40476 24.2333 3.34761 24.4857 3.68571 24.7285C3.73809 24.7666 4.08571 25.0095 4.75714 25.0666C4.87142 25.0904 5.65238 25.0666 5.79047 25.0238C5.83333 25.0095 6.67618 24.9285 6.75238 24.9333C6.81904 24.9381 6.90476 24.9714 6.91428 24.9904C7.10952 24.8904 7.21904 24.8857 7.29047 24.8857C7.53809 24.8952 7.71428 25.0333 7.71428 25.0333Z" fill="white"/>
<path d="M12.2425 23.7475C11.8377 23.3332 11.252 23.5951 11.252 23.5951C11.8472 23.7427 11.952 23.976 12.0044 24.1379C12.0377 24.3284 11.9948 24.5618 11.6996 24.7665C11.3948 25.0046 10.8948 25.0903 10.5901 25.1141C10.2568 25.1475 9.70913 25.1094 9.54723 25.076C9.38532 25.0475 8.95199 25.0094 8.82818 24.9998C8.70437 24.9903 8.60913 24.9808 8.51866 25.0665C8.43294 25.1427 8.40913 25.1189 8.40913 25.1189C8.40913 25.1189 8.26151 24.9379 8.0377 24.957C7.81389 24.976 7.80437 25.0522 7.74247 25.0856C7.71389 25.1046 7.70913 25.1046 7.68056 25.0856C7.65675 25.0665 7.51865 24.9856 7.3758 24.9618C7.13294 24.9379 6.89961 25.076 6.89961 25.076C6.88532 25.0237 6.74723 24.9951 6.62342 25.0046C6.50437 25.0189 6.06151 25.0427 5.89961 25.076C5.7377 25.1094 5.10913 25.1618 4.78056 25.1332C4.48056 25.1141 3.9758 25.0284 3.66627 24.7951C3.36627 24.5951 3.31865 24.3618 3.35199 24.1713C3.39961 24.0094 3.49961 23.776 4.09485 23.6189C4.09485 23.6189 3.50913 23.3665 3.10913 23.7903C2.84246 24.0665 2.86151 24.4475 2.98056 24.7094C3.10913 25.0618 3.59961 25.4046 3.98532 25.5284C4.17104 25.5903 4.66627 25.7856 5.6377 25.7379C5.78532 25.7379 6.15675 25.7237 6.40437 25.8046C6.63294 25.8808 6.89485 25.876 6.89485 25.876C6.89485 25.876 6.89961 25.8808 6.90913 26.0427C6.92342 26.2046 6.72818 26.2379 6.72818 26.2379C6.72818 26.2379 6.75199 26.2951 6.76151 26.3427C6.78532 26.4332 6.79485 26.5332 6.80437 26.5475C6.83294 26.5665 6.85199 26.6094 6.86627 26.6332C6.88532 26.6522 6.91866 26.676 6.91866 26.676L6.89008 26.6856C6.89008 26.9713 6.94246 27.0284 6.96151 27.0522C6.9758 27.0713 7.07104 27.0713 7.09961 27.157C7.10437 27.2903 7.11866 27.4332 7.11866 27.4332C7.19008 27.4475 7.2377 27.5189 7.2377 27.5189C7.26151 27.5475 7.27104 27.5856 7.28056 27.6284C7.28056 27.6427 7.29008 27.7237 7.29008 27.7475C7.29485 27.8046 7.28056 27.9284 7.28532 28.0522C7.29008 28.1856 7.31389 28.3141 7.31389 28.3141C7.56151 28.3522 7.59008 28.6094 7.59008 28.6094C7.73294 28.5379 7.94246 28.5379 7.94246 28.5379C7.94246 28.5379 7.92818 28.4141 7.95199 28.3713C7.97104 28.3284 8.09961 28.276 8.09961 28.276C8.09961 28.276 8.10913 28.0046 8.11389 27.8951C8.11866 27.7903 8.1377 27.5284 8.1377 27.5284C8.1377 27.5284 8.1377 27.5141 8.15675 27.5046C8.19485 27.4808 8.25199 27.4379 8.26627 27.4237C8.28056 27.4094 8.28532 27.276 8.28532 27.276C8.28532 27.276 8.33294 27.2713 8.36151 27.2332C8.38056 27.2094 8.36627 27.0808 8.36627 27.0808C8.36627 27.0808 8.44246 27.0379 8.4758 26.976C8.50913 26.9141 8.51866 26.7903 8.51866 26.7189C8.51866 26.6475 8.4758 26.6522 8.45675 26.657C8.45199 26.6903 8.3758 26.7998 8.36627 26.6951C8.36151 26.5903 8.45199 26.5237 8.45199 26.5237C8.49008 26.557 8.57104 26.5951 8.57104 26.5951C8.56627 26.5141 8.61866 26.4618 8.6377 26.2713C8.65675 26.1046 8.59485 26.076 8.58532 26.0665C8.5758 26.057 8.49008 26.0284 8.42818 26.0618C8.36151 26.1189 8.35675 26.0379 8.3758 26.0046C8.39485 25.9713 8.56151 25.9618 8.56151 25.9618C8.5758 25.9141 8.55675 25.8665 8.55675 25.8665C8.55675 25.8665 8.88056 25.9189 9.10913 25.8379C9.35675 25.7522 9.69485 25.7332 9.8377 25.7332C10.7615 25.7618 11.2377 25.576 11.4282 25.5094C11.8139 25.376 12.2758 25.0284 12.3996 24.6713C12.5044 24.3951 12.5139 24.0189 12.2425 23.7475Z" fill="black"/>
<path d="M9.25675 25.5476C9.22342 25.5095 9.14723 25.4476 9.09485 25.4428L9.11389 25.2571C9.11389 25.2571 9.00437 25.1952 8.81865 25.1476C8.65675 25.0999 8.65675 25.1142 8.61865 25.1285C8.52342 25.1952 8.44246 25.219 8.44246 25.219C8.44246 25.219 8.29961 25.0476 8.09961 25.0333C7.99485 25.0237 7.89961 25.0571 7.85199 25.0952C7.79008 25.138 7.75675 25.1666 7.75675 25.1666C7.75675 25.1666 7.73294 25.1952 7.65675 25.1666C7.5758 25.1333 7.48532 24.9999 7.21389 25.038C6.99008 25.1047 6.89485 25.1666 6.89485 25.1666C6.89485 25.1666 6.8758 25.0761 6.7377 25.0761C6.59961 25.0761 6.44723 25.0809 6.41389 25.0904C6.38056 25.0999 6.32818 25.1285 6.31389 25.1285C6.29961 25.1285 6.35675 25.2476 6.30437 25.319C6.2758 25.3618 6.29484 25.3857 6.2377 25.3857C6.2377 25.3857 6.11865 25.3856 6.10913 25.4714C6.10913 25.5666 6.25675 25.6142 6.32818 25.4285C6.32818 25.4285 6.39961 25.6095 6.4758 25.6285C6.57104 25.6476 6.66627 25.4999 6.69008 25.4904C6.69008 25.4904 6.58532 25.6761 6.64246 25.7428C6.70913 25.7809 6.79008 25.7856 6.79961 25.7714C6.81389 25.7571 6.85675 25.6761 6.84723 25.5904C6.84723 25.5904 6.90437 25.638 6.9377 25.5952C6.97104 25.5523 6.9758 25.3714 6.9758 25.3714C6.9758 25.3714 7.01389 25.3666 7.01389 25.4523C7.01389 25.538 7.01865 25.6047 7.01865 25.6047C7.01865 25.6047 6.96627 25.5999 6.95675 25.6333C6.95199 25.6666 6.96151 25.6904 6.96151 25.6904L7.01389 25.6856C7.01389 25.6856 7.02818 25.719 6.96151 25.7571C6.96151 25.7571 7.02818 25.938 6.98056 26.0714C6.93294 26.2237 6.82818 26.2428 6.82818 26.2428C6.82818 26.2428 6.86151 26.4095 6.86151 26.4476C6.86151 26.4856 6.91865 26.5333 6.93294 26.5666C6.95199 26.5999 6.97104 26.6333 6.97104 26.6333C6.97104 26.6333 6.90437 26.5047 6.89485 26.4047C6.88532 26.2999 6.98056 26.2666 7.10437 26.2285C7.10437 26.2285 7.16627 26.2285 7.19485 26.238C7.22342 26.2523 7.27104 26.2666 7.27104 26.2666C7.27104 26.2666 7.32342 26.3095 7.32342 26.3285C7.32818 26.3428 7.34246 26.4618 7.34246 26.4952C7.3377 26.5285 7.29961 26.5428 7.29961 26.5428C7.29961 26.5428 7.32342 26.7761 7.32342 26.8142C7.32342 26.8476 7.31865 26.8571 7.31865 26.8571C7.31865 26.8571 7.29961 26.8523 7.28532 26.8428C7.2758 26.8333 7.27104 26.8428 7.27104 26.8428C7.27104 26.8428 7.25675 26.9237 7.19008 26.9618C7.19008 26.9618 7.17104 26.9285 7.15675 26.9142C7.14246 26.9047 7.11389 26.8809 7.04246 26.7476C7.04246 26.7476 7.01865 26.7047 6.9758 26.7142C6.9758 26.7142 6.9758 26.8618 7.01389 26.9428C7.05675 27.0047 7.08056 26.9761 7.10913 27.0333C7.12818 27.0761 7.15675 27.0999 7.17104 27.1666C7.19485 27.2523 7.21389 27.3761 7.21389 27.3761C7.21389 27.3761 7.31865 27.4571 7.34723 27.5095C7.36151 27.5428 7.37104 27.5952 7.37104 27.6666C7.37104 27.6666 7.36151 28.1237 7.37104 28.1856C7.3758 28.219 7.39008 28.238 7.39008 28.238C7.39008 28.238 7.53294 28.2476 7.6377 28.4999L7.84246 28.4571C7.84246 28.4571 7.84246 28.4333 7.84723 28.3999C7.86151 28.3428 7.90437 28.2856 7.91865 28.2714C7.9377 28.2523 8.00913 28.2333 8.00913 28.2333C8.00913 28.2333 8.02342 28.2333 8.02342 28.2095C8.02342 28.2095 8.0377 27.6999 8.0377 27.6809L8.05199 27.4999C8.05199 27.4999 8.11389 27.4666 8.16627 27.3904C8.19961 27.3618 8.20437 27.2428 8.20437 27.2428L8.2758 27.2523C8.2758 27.2523 8.30913 27.2571 8.2758 27.038C8.2758 27.038 8.31865 27.0237 8.39961 26.9142L8.40913 26.7856L8.21865 26.9571C8.21865 26.9571 8.12818 26.8571 8.12818 26.8476C8.12818 26.838 8.10913 26.7952 8.11865 26.5618L8.09008 26.5237L8.08532 26.5047L8.10913 26.4666C8.10913 26.4666 8.14723 26.2952 8.16627 26.2666C8.19008 26.238 8.27104 26.219 8.38056 26.2523C8.49485 26.2952 8.51865 26.4523 8.51865 26.4523C8.51865 26.4523 8.54723 26.4333 8.54723 26.2904C8.55199 26.238 8.54246 26.1666 8.54246 26.1666C8.54246 26.1666 8.5377 26.1142 8.47104 26.119C8.43294 26.1285 8.41389 26.1666 8.35675 26.138C8.30437 26.1333 8.29961 26.1428 8.27104 26.0571C8.26151 25.9666 8.36627 25.9237 8.43294 25.9047L8.44246 25.8476C8.44246 25.8476 8.35199 25.7523 8.34723 25.6999L8.38532 25.6952C8.38532 25.6952 8.29485 25.4999 8.39485 25.3952C8.39485 25.3952 8.37104 25.6428 8.50437 25.6285L8.54246 25.738C8.54246 25.738 8.62818 25.7952 8.63294 25.8047C8.63294 25.8047 8.68056 25.8142 8.77104 25.7999C8.79008 25.7666 8.75675 25.7571 8.71865 25.738C8.66151 25.7095 8.64723 25.6523 8.69008 25.5999C8.69008 25.5999 8.74246 25.6761 8.84246 25.719C8.99484 25.7142 8.98532 25.6714 8.98532 25.6714L8.99961 25.6142C8.99961 25.6142 8.99008 25.5523 9.01865 25.5237L9.11389 25.6714C9.11389 25.6714 9.14723 25.6523 9.16151 25.6476C9.1758 25.6428 9.27104 25.6285 9.27104 25.6285C9.27104 25.6285 9.29008 25.5856 9.25675 25.5476Z" fill="white"/>
<path d="M7.67603 25.4142C7.67603 25.4142 7.67603 25.238 7.68079 25.2285C7.68555 25.2142 7.69507 25.2 7.71412 25.2C7.73317 25.2 7.74269 25.2333 7.74269 25.2333C7.74269 25.2333 7.72841 25.3285 7.72364 25.3428C7.71888 25.3571 7.70936 25.3857 7.67603 25.4142Z" fill="black"/>
<path d="M7.68076 26.4429C7.68076 26.4429 7.65695 26.7524 7.65219 26.7714C7.64743 26.7905 7.69505 26.781 7.69505 26.781C7.69505 26.781 7.75219 26.6857 7.76171 26.6714C7.77124 26.6572 7.77124 26.6476 7.75695 26.6191C7.74267 26.5857 7.68076 26.4429 7.68076 26.4429Z" fill="black"/>
<path d="M7.70961 26.8428H7.75246C7.75246 26.8428 7.72865 27.0428 7.73342 27.1047C7.73342 27.1666 7.72866 27.2475 7.72866 27.2475H7.69532C7.69532 27.2475 7.65723 27.1047 7.65723 27.0952C7.65723 27.0856 7.70961 26.9618 7.70961 26.9618V26.8428Z" fill="black"/>
<path d="M7.66192 27.3904C7.66192 27.3904 7.70001 27.3809 7.70954 27.3809C7.71906 27.3856 7.72382 27.3904 7.72382 27.3904V27.5999C7.72382 27.5999 7.73335 27.6475 7.73811 27.6571C7.74763 27.6666 7.79049 27.6856 7.80001 27.7094C7.80954 27.7332 7.82382 27.8285 7.80477 27.9047C7.7762 28.019 7.73335 28.0428 7.73811 28.0904C7.74287 28.138 7.77144 28.2237 7.77144 28.2523C7.77144 28.2523 7.75716 28.2713 7.70954 28.2618C7.69525 28.2475 7.66668 28.2475 7.66668 28.2475C7.66668 28.2475 7.68573 28.119 7.6762 28.0523C7.66668 27.9951 7.60477 28.0285 7.60477 28.0285V27.7237C7.60477 27.7237 7.59525 27.6999 7.62858 27.6809C7.66668 27.6618 7.6762 27.6618 7.6762 27.6618L7.66192 27.3904Z" fill="black"/>
<path d="M7.84267 25.638C7.84267 25.638 7.89029 25.5952 7.89505 25.5856C7.89505 25.5761 7.87124 25.538 7.82839 25.519C7.78553 25.4999 7.76172 25.5142 7.76172 25.5142C7.76172 25.5142 7.69982 25.6237 7.66648 25.638C7.59982 25.6142 7.56172 25.5618 7.51886 25.5237C7.48077 25.4809 7.35696 25.3523 7.35696 25.3523L7.34267 25.3428C7.34267 25.3428 7.34267 25.4047 7.34744 25.4809C7.34744 25.519 7.35696 25.5666 7.35696 25.6047C7.36172 25.6761 7.36172 25.7285 7.36648 25.7333C7.37124 25.7428 7.44743 25.819 7.44743 25.819C7.44743 25.819 7.45696 25.8285 7.44743 25.8332C7.43791 25.838 7.38553 25.8999 7.34267 25.9047C7.29505 25.9142 7.25696 25.8999 7.2522 25.8952L7.25696 25.9237C7.25696 25.9237 7.29505 26.0428 7.30934 26.0618C7.32363 26.0809 7.32839 26.0666 7.34267 26.0809C7.36648 26.0952 7.36648 26.1523 7.36648 26.1523L7.56172 26.1428L7.61886 25.9952C7.61886 25.9952 7.68077 25.9904 7.69029 25.9856C7.69982 25.9809 7.76648 25.9761 7.77601 25.9809C7.79029 25.9809 7.80458 26.019 7.81886 26.0237C7.82363 26.0285 7.84267 26.019 7.85696 26.0047C7.87124 25.9952 7.97601 25.9475 7.99982 25.9475C8.0141 25.9428 8.13791 25.7523 8.19029 25.7094C8.19029 25.7094 8.1141 25.7237 8.06172 25.738C8.00934 25.7523 7.89982 25.7523 7.89029 25.7475C7.86172 25.7428 7.82839 25.738 7.82839 25.738C7.82839 25.738 7.83315 25.6904 7.84267 25.638Z" fill="#E2251E"/>
<path d="M7.15223 26.7191C7.15223 26.7191 7.20937 26.7048 7.19509 26.6382C7.16651 26.5715 7.10937 26.5905 7.09509 26.6429C7.07604 26.6905 7.10937 26.7334 7.15223 26.7191Z" fill="white"/>
<path d="M8.23771 26.5857C8.23771 26.5857 8.18057 26.5952 8.21866 26.6809C8.26152 26.7095 8.29961 26.6714 8.29485 26.6476C8.29009 26.6238 8.28533 26.5952 8.23771 26.5857Z" fill="white"/>
<path d="M4.43286 25.1382C4.43286 25.1382 4.89953 25.3096 6.06143 25.1382C6.06143 25.1382 6.09953 25.5001 5.72334 25.5429C5.40429 25.581 5.04715 25.462 4.96619 25.4334C4.78048 25.3715 4.47096 25.2239 4.43286 25.1382Z" fill="white"/>
<path d="M10.3953 25.419C10.3143 25.4476 9.9572 25.5571 9.63339 25.5143C9.2572 25.4619 9.30006 25.1047 9.30006 25.1047C10.4572 25.3 10.9286 25.1381 10.9286 25.1381C10.8905 25.219 10.5762 25.3571 10.3953 25.419Z" fill="white"/>
<path d="M31.3285 27.4715L31.9951 25.0239H29.6523L28.9856 27.4715H31.3285ZM31.1285 25.6906C31.0856 25.843 30.8665 26.6477 30.8285 26.7954C30.6808 26.7954 29.9951 26.7954 29.8427 26.7954L30.1427 25.6906H31.1285Z" fill="white"/>
<path d="M32.2284 24.4189C32.2332 24.4189 32.238 24.4189 32.238 24.4285L32.2332 24.4713C32.2332 24.4761 32.2284 24.4808 32.2237 24.4808H32.1665V24.7332C32.1665 24.738 32.1618 24.7428 32.157 24.7428H32.1046C32.0999 24.7428 32.0951 24.738 32.0951 24.7332V24.4808H32.0237C32.0189 24.4808 32.0142 24.4761 32.0142 24.4713V24.4285C32.0142 24.4237 32.0189 24.4189 32.0237 24.4189H32.2284ZM32.4856 24.4237C32.4904 24.4189 32.4904 24.4189 32.4951 24.4189H32.5475C32.5523 24.4189 32.5523 24.4237 32.5523 24.4285C32.5618 24.5332 32.5665 24.6428 32.5665 24.7332C32.5665 24.738 32.5665 24.7428 32.557 24.7428H32.5094C32.5046 24.7428 32.4999 24.7428 32.4999 24.7332C32.4999 24.6523 32.4999 24.5856 32.4951 24.5237H32.4904L32.4237 24.6523C32.4189 24.657 32.4189 24.6618 32.4094 24.6618H32.3999C32.3951 24.6618 32.3904 24.657 32.3856 24.6523L32.3142 24.5237H32.3094C32.3094 24.5856 32.3094 24.6475 32.3094 24.7332C32.3094 24.738 32.3046 24.7428 32.2999 24.7428H32.2523C32.2475 24.7428 32.2427 24.738 32.2427 24.7332C32.2427 24.6428 32.2475 24.5332 32.2523 24.4285C32.2523 24.4237 32.257 24.4189 32.2618 24.4189H32.3142C32.3189 24.4189 32.3237 24.4189 32.3237 24.4237L32.3999 24.5761L32.4856 24.4237Z" fill="black"/>
</svg>
