<svg width="52" height="52" viewBox="0 0 52 52" fill="none" xmlns="http://www.w3.org/2000/svg">
<path d="M32.0061 10.3307C31.3648 11.492 30.8275 14.1267 31.0875 16.0117C32.0971 15.7257 32.9551 14.7377 33.2628 13.6717C33.6181 12.4367 33.2195 10.9807 32.0061 10.3307ZM31.4905 14.9674C31.6378 13.5764 32.0885 12.6837 32.5305 12.116C32.9205 13.3034 32.1621 14.4994 31.4905 14.9674Z" fill="#AD1F28"/>
<path d="M22.1608 24.596C22.1348 24.6437 22.1218 24.6957 22.1218 24.7477L22.0698 25.2114C23.3092 24.8127 24.6828 24.6134 26.1042 24.6134C27.5255 24.6134 28.8862 24.8127 30.1255 25.2114L30.0908 24.7477C30.0908 24.6957 30.0778 24.6394 30.0518 24.5917C29.8958 24.3014 29.1982 23.374 26.1042 23.3264C23.0102 23.3784 22.3125 24.3057 22.1608 24.596Z" fill="#AD1F28"/>
<path d="M28.4267 6.63003C28.4224 6.08836 27.5687 5.63769 26.5287 5.55536L26.5114 5.10036C26.9057 4.98336 27.1874 4.69303 27.1874 4.35503C27.1874 4.17303 27.1094 4.00836 26.975 3.87403C26.728 3.60969 26.5764 3.34103 26.7064 2.93369C26.715 2.90769 26.7194 2.88169 26.7194 2.85569C26.7194 2.73436 26.6284 2.62169 26.4854 2.55236C26.4247 2.43103 26.286 2.34436 26.1257 2.34436C25.961 2.34436 25.8224 2.43103 25.766 2.55236C25.623 2.62169 25.532 2.73003 25.532 2.85569C25.532 2.88169 25.5364 2.90769 25.545 2.93369C25.675 3.34103 25.5234 3.60969 25.2764 3.87403C25.142 4.00836 25.064 4.17303 25.064 4.35503C25.064 4.69303 25.3414 4.98336 25.7357 5.10036L25.7184 5.55536C24.674 5.64203 23.829 6.09269 23.8247 6.63003C24.3967 6.43503 25.298 6.31369 26.13 6.31369C26.9187 6.31803 27.8547 6.43936 28.4267 6.63003Z" fill="#AD1F28"/>
<path d="M22.1953 20.7437C22.49 21.3027 22.9103 21.8443 23.53 22.2993C23.686 22.2213 23.9027 22.1347 24.1237 22.0697C23.5517 21.0253 23.3523 19.773 23.3393 18.616C23.335 18.161 22.789 18.174 22.4727 18.252C22.0913 18.3473 21.7057 18.551 21.7447 19.331C21.7533 19.643 21.983 20.3407 22.1953 20.7437Z" fill="#AD1F28"/>
<path d="M25.8397 18.148C25.818 17.719 25.376 17.5457 24.8474 17.628C24.18 17.7277 23.9114 17.9964 23.8767 18.6117C23.8854 19.9247 24.193 21.1207 24.6697 21.9354C25.0294 21.866 25.4194 21.8227 25.8354 21.8097C25.8397 21.8097 25.844 18.239 25.8397 18.148Z" fill="#AD1F28"/>
<path d="M22.8626 22.9017C22.8973 22.802 22.9623 22.711 23.0533 22.62C22.139 21.8964 21.4803 20.852 21.2376 19.656C21.216 19.539 21.138 19.3224 20.9256 19.4047C20.54 19.552 20.3103 20.007 20.3103 20.4794C20.306 21.4717 21.333 22.3687 22.8626 22.9017Z" fill="#AD1F28"/>
<path d="M30.0343 20.7437C30.2467 20.3407 30.4764 19.643 30.4893 19.331C30.5283 18.551 30.1384 18.3473 29.7614 18.252C29.445 18.174 28.899 18.1567 28.8947 18.616C28.8817 19.773 28.6824 21.0253 28.1104 22.0697C28.3314 22.1347 28.5437 22.2213 28.704 22.2993C29.3194 21.84 29.7397 21.3027 30.0343 20.7437Z" fill="#AD1F28"/>
<path d="M27.378 17.628C26.8494 17.5457 26.4074 17.719 26.3857 18.148C26.3814 18.239 26.3857 21.8097 26.3857 21.8097C26.8017 21.8227 27.196 21.866 27.5514 21.9354C28.028 21.1207 28.3357 19.9247 28.3444 18.6117C28.314 17.9964 28.0454 17.7277 27.378 17.628Z" fill="#AD1F28"/>
<path d="M31.3042 19.409C31.0918 19.3267 31.0138 19.5434 30.9922 19.6604C30.7495 20.8564 30.0908 21.8964 29.1765 22.6244C29.2675 22.7154 29.3325 22.8064 29.3672 22.906C30.8968 22.373 31.9195 21.476 31.9195 20.488C31.9195 20.007 31.6855 19.5564 31.3042 19.409Z" fill="#AD1F28"/>
<path d="M26.0954 16.7657C28.782 16.7657 30.498 17.6194 31.2477 18.1567C29.7744 15.873 30.6757 10.972 31.8674 9.44238C31.382 8.13371 28.9857 7.04605 26.1647 7.02438C24.6394 7.01571 23.088 7.38405 21.983 7.95605C22.074 8.18571 22.2604 8.71005 22.438 9.27338C23.543 8.83571 24.908 8.58005 26.1474 8.58005C27.5167 8.58005 29.679 8.97871 30.602 10.0057C30.0994 11.4487 29.5664 13.1214 29.8264 16.029C29.328 13.702 29.3454 12.2547 29.7354 10.2614C28.8427 9.64605 27.3217 9.35138 26.1517 9.35138C24.9817 9.35138 23.634 9.60271 22.659 10.0144C23.2527 12.0207 23.361 15.8687 21.8184 17.6367C22.9364 17.1427 24.6047 16.7657 26.0954 16.7657Z" fill="#AD1F28"/>
<path d="M21.2767 26.4117C21.2724 26.7454 21.229 28.4224 20.6484 29.1894C20.644 29.198 20.6527 29.2067 20.6614 29.2024C21.6624 28.5437 24.2624 28.2837 26.104 28.2837C28.4094 28.2837 30.68 28.6217 31.5727 29.2154C31.5814 29.2197 31.59 29.211 31.5857 29.2024C30.9834 28.3834 30.9444 26.741 30.94 26.4117C30.94 26.377 30.9227 26.3424 30.8924 26.325C30.0777 25.8657 28.392 25.376 26.104 25.376C23.79 25.376 22.1434 25.8614 21.3287 26.3164C21.294 26.3424 21.2767 26.377 21.2767 26.4117Z" fill="#AD1F28"/>
<path d="M32.3787 30.8101C32.3354 30.5847 32.2054 30.3854 32.0147 30.2597C31.1871 29.7181 29.5014 29.0984 26.1084 29.0507C22.7067 29.0984 21.0211 29.7224 20.1934 30.2641C20.0027 30.3897 19.8727 30.5891 19.8294 30.8101C19.7601 31.1567 19.6604 31.6681 19.6431 31.7547C19.6431 31.7591 19.6474 31.7634 19.6517 31.7591C20.1457 31.3691 21.6624 30.6237 26.1041 30.5631C30.5284 30.6237 32.0494 31.3604 32.5521 31.7504C32.5564 31.7547 32.5607 31.7504 32.5607 31.7461L32.3787 30.8101Z" fill="#AD1F28"/>
<path d="M20.8781 15.1537C20.8781 15.1494 20.8954 14.742 20.8607 14.2784C19.1534 13.9404 18.3344 11.609 18.8284 9.87569C18.7114 9.62003 18.4774 9.12169 18.3647 8.87036C17.5804 10.0404 17.5544 12.4367 18.8934 14.0314C19.0017 14.1657 19.6994 15.002 20.8781 15.1537Z" fill="#AD1F28"/>
<mask id="mask0_515_1085" style="mask-type:luminance" maskUnits="userSpaceOnUse" x="19" y="7" width="14" height="25">
<path d="M31.3041 19.409C31.0918 19.3267 31.0138 19.5434 30.9921 19.6604C30.7495 20.8564 30.0908 21.8964 29.1765 22.6244C29.2675 22.7154 29.3325 22.8064 29.3671 22.906C30.8968 22.373 31.9195 21.476 31.9195 20.488C31.9195 20.007 31.6855 19.5564 31.3041 19.409ZM24.7651 28.3227C25.2331 28.2967 25.6881 28.2794 26.1041 28.2794C28.4095 28.2794 30.6801 28.6174 31.5728 29.211C31.5815 29.2154 31.5901 29.2067 31.5858 29.198C30.9835 28.3834 30.9445 26.741 30.9401 26.4117C30.9401 26.377 30.9228 26.3424 30.8925 26.325C30.0778 25.8657 28.3921 25.376 26.1041 25.376C25.9481 25.376 25.7921 25.3804 25.6448 25.3847C25.4151 26.4074 25.1248 27.3954 24.7651 28.3227ZM30.0345 20.7437C30.2468 20.3407 30.4765 19.643 30.4895 19.331C30.5285 18.551 30.1385 18.3474 29.7615 18.252C29.4451 18.174 28.8991 18.1567 28.8948 18.616C28.8818 19.773 28.6825 21.0254 28.1105 22.0697C28.3315 22.1347 28.5438 22.2214 28.7041 22.2994C29.3195 21.84 29.7398 21.3027 30.0345 20.7437ZM25.9958 23.335C25.9395 23.764 25.8745 24.193 25.7965 24.6177C25.9005 24.6177 26.0001 24.6134 26.1041 24.6134C27.5255 24.6134 28.8861 24.8127 30.1255 25.2114L30.0908 24.7477C30.0908 24.6957 30.0778 24.6394 30.0518 24.5917C29.8958 24.3014 29.1981 23.374 26.1041 23.3264C26.0695 23.3307 26.0348 23.335 25.9958 23.335ZM27.3781 17.628C26.8495 17.5457 26.4075 17.719 26.3858 18.148C26.3815 18.239 26.3858 21.8097 26.3858 21.8097C26.8018 21.8227 27.1961 21.866 27.5515 21.9354C28.0281 21.1207 28.3358 19.9247 28.3445 18.6117C28.3141 17.9964 28.0455 17.7277 27.3781 17.628ZM22.1608 24.596C22.1348 24.6437 22.1218 24.6957 22.1218 24.7477L22.0698 25.2114C22.9235 24.9384 23.8421 24.7564 24.7955 24.6697C24.8215 24.258 24.8258 23.8377 24.8041 23.413C22.8021 23.6557 22.2865 24.349 22.1608 24.596ZM26.0955 16.7657C28.7821 16.7657 30.4981 17.6194 31.2478 18.1567C29.7745 15.873 30.6758 10.972 31.8675 9.44236C31.4515 8.32436 29.6445 7.36669 27.3695 7.10236C26.6588 7.32769 25.9395 7.76536 25.5278 8.60602C25.7358 8.59302 25.9481 8.58436 26.1518 8.58436C27.5211 8.58436 29.6835 8.98302 30.6065 10.01C30.1038 11.453 29.5708 13.1257 29.8308 16.0334C29.3325 13.7064 29.3498 12.259 29.7398 10.2657C28.8471 9.65036 27.3261 9.35569 26.1561 9.35569C25.8658 9.35569 25.5625 9.37302 25.2591 9.39902C24.9168 10.79 25.3545 12.597 26.0088 16.7657C26.0305 16.7657 26.0608 16.7657 26.0955 16.7657ZM20.1978 30.2684C20.0071 30.394 19.8771 30.5934 19.8338 30.8144C19.7645 31.161 19.6648 31.6724 19.6475 31.759C19.6475 31.7634 19.6518 31.7677 19.6561 31.7634C20.0115 31.4817 20.8955 31.018 23.0188 30.758C23.2441 30.3204 23.4911 29.7917 23.7251 29.198C21.8661 29.432 20.8001 29.8697 20.1978 30.2684ZM22.8628 22.9017C22.8975 22.802 22.9625 22.711 23.0535 22.62C22.1391 21.8964 21.4805 20.852 21.2378 19.656C21.2161 19.539 21.1381 19.3224 20.9258 19.4047C20.5401 19.552 20.3105 20.007 20.3105 20.4794C20.3061 21.4717 21.3331 22.3687 22.8628 22.9017ZM32.3788 30.81C32.3355 30.5847 32.2055 30.3854 32.0148 30.2597C31.1871 29.718 29.5015 29.0984 26.1085 29.0507C25.4931 29.0594 24.9298 29.0854 24.4228 29.1287C24.1758 29.679 23.8985 30.2034 23.5995 30.6974C24.3101 30.628 25.1421 30.5847 26.1085 30.5717C30.5328 30.6324 32.0538 31.369 32.5565 31.759C32.5608 31.7634 32.5651 31.759 32.5651 31.7547L32.3788 30.81ZM23.0101 14.235C22.8888 15.5567 22.5291 16.822 21.8098 17.641C22.3645 17.394 23.0491 17.1774 23.7858 17.0257C23.7815 16.0897 23.5648 15.1017 23.0101 14.235ZM22.1955 20.7437C22.4901 21.3027 22.9105 21.8444 23.5301 22.2994C23.6861 22.2214 23.9028 22.1347 24.1238 22.0697C23.5518 21.0254 23.3525 19.773 23.3395 18.616C23.3351 18.161 22.7891 18.174 22.4728 18.252C22.0915 18.3474 21.7058 18.551 21.7448 19.331C21.7535 19.643 21.9831 20.3407 22.1955 20.7437ZM21.2768 26.4117C21.2725 26.7454 21.2291 28.4224 20.6485 29.1894C20.6441 29.198 20.6528 29.2067 20.6615 29.2024C21.3158 28.769 22.6635 28.509 24.0371 28.3834C24.3405 27.495 24.5961 26.5027 24.7305 25.4454C23.1358 25.5884 21.9745 25.9654 21.3331 26.325C21.2941 26.3424 21.2768 26.377 21.2768 26.4117Z" fill="white"/>
</mask>
<g mask="url(#mask0_515_1085)">
<path d="M44.2608 1.39539H11.6958V32.1014H44.2608V1.39539Z" fill="#AD1F28"/>
</g>
<path d="M19.2921 18.0527C19.6735 17.3074 20.0331 16.302 20.1285 14.9543C19.4005 14.6423 18.9758 14.1353 18.8935 14.0357C19.1405 14.7723 19.5131 16.8264 19.2835 18.0484C19.2835 18.0527 19.2921 18.057 19.2921 18.0527ZM18.4038 21.4327C18.4038 21.424 18.3951 21.4197 18.3908 21.4284C17.6628 22.6894 17.8361 24.8344 18.7071 26.637C19.0365 26.208 19.3355 25.8224 19.3355 25.8224C19.3355 25.8224 20.2108 25.7747 20.4318 25.7704C18.8285 24.362 18.2391 22.399 18.4038 21.4327ZM34.4415 22.659C34.4371 22.646 34.4155 22.6504 34.4155 22.6634C34.7708 25.3804 33.3235 27.339 32.6431 28.0627C32.6518 28.0583 33.7308 28.1234 33.7308 28.1234C33.7308 28.1234 34.0905 28.73 34.2985 29.0464C35.0655 27.326 35.5681 25.844 34.4415 22.659ZM18.2261 20.1457C18.2348 20.1327 18.2175 20.1197 18.2088 20.1284C14.4171 23.8637 16.5231 28.6304 17.3941 30.3507L18.1915 29.302C18.1915 29.302 18.7765 29.2717 19.5435 29.2544C17.8361 27.534 15.9208 23.2397 18.2261 20.1457ZM32.1578 19.0537C32.1491 19.045 32.1361 19.0537 32.1448 19.0623C33.4925 21.528 32.6128 23.907 31.2478 25.2504C31.4645 25.2504 32.3961 25.2677 32.3961 25.2677C32.3961 25.2677 32.6345 25.623 33.0158 26.143C34.4761 22.9017 33.4145 20.696 32.1578 19.0537ZM31.4905 14.9673C31.6378 13.5763 32.0885 12.6837 32.5305 12.116C32.8425 11.7174 33.1241 11.5397 33.1241 11.5397C32.8988 11.0413 32.5261 10.6123 32.0061 10.3307C31.3648 11.492 30.8275 14.1267 31.0875 16.0117C31.2261 15.9727 31.3605 15.9207 31.4948 15.8557C31.4948 15.8513 31.4471 15.405 31.4905 14.9673ZM18.7635 8.45002C18.9845 8.86168 19.6518 10.452 19.9031 11.0153C20.4708 12.3067 20.7698 13.2903 20.8651 14.274C20.8998 14.7377 20.8825 15.1494 20.8825 15.1494C20.7048 17.4287 19.8338 18.4774 19.0625 19.3397C19.0538 19.3484 19.0668 19.3614 19.0755 19.3527C20.8565 17.927 21.5715 17.1947 22.0178 15.4743C22.8021 12.4497 21.7535 9.49868 21.2898 8.31135C20.2151 7.71768 19.2271 8.09468 18.7635 8.45002Z" fill="#AD1F28"/>
<path d="M10.712 43.5284V45.0451H12.9176V46.5834H10.712V49.4694H9.02197V41.9901H14.2176V43.5284H10.712Z" fill="#AD1F28"/>
<path d="M18.2952 47.8574H15.5695L14.8849 49.4694H13.0779L16.2672 41.9901H17.6149L20.7999 49.4737H18.9929L18.2952 47.8574ZM16.1242 46.3191H17.7492L16.9389 44.3301L16.1242 46.3191Z" fill="#AD1F28"/>
<path d="M22.7283 45.7297C22.7283 43.4634 24.3533 41.808 26.5763 41.808C27.9543 41.808 28.8209 42.3757 29.4709 43.0907L28.2966 44.1914C27.9239 43.7407 27.3649 43.3897 26.5763 43.3897C25.4323 43.3897 24.5006 44.3214 24.5006 45.7297C24.5006 47.099 25.3889 48.0697 26.5763 48.0697C27.2393 48.0697 27.8069 47.8357 28.2966 47.2594L29.4709 48.36C28.7126 49.1834 27.8243 49.6514 26.5763 49.6514C24.3966 49.6557 22.7283 48.0524 22.7283 45.7297Z" fill="#AD1F28"/>
<path d="M30.2422 46.6181V41.9901H31.9322V46.3407C31.9322 47.6754 32.5085 48.0957 33.3969 48.0957C34.2939 48.0957 34.8615 47.6797 34.8615 46.3407V41.9901H36.5515V46.6181C36.5515 48.6287 35.2775 49.6341 33.3969 49.6341C31.5249 49.6341 30.2422 48.6287 30.2422 46.6181Z" fill="#AD1F28"/>
<path d="M43.5414 44.4731C43.5414 43.6714 43.2814 43.0517 42.7657 42.6314C42.2371 42.2024 41.4484 41.9857 40.4084 41.9857H37.6394V49.4694H39.3294V46.956H40.4084C42.4581 46.9604 43.5414 46.0981 43.5414 44.4731ZM39.3294 45.422V43.5327H40.3867C41.3097 43.5327 41.7604 43.8361 41.7604 44.4774C41.7604 45.1101 41.2967 45.422 40.3867 45.422H39.3294Z" fill="#AD1F28"/>
<path d="M9.02207 35.1564C9.06107 34.138 8.45874 33.6354 8.45874 33.6354H11.7911C13.5244 33.6354 13.6631 34.814 13.6631 34.814C12.9437 34.3417 12.2504 34.359 11.3534 34.3547C11.2884 34.3547 10.3307 34.3504 10.3307 34.3504C10.4867 34.528 10.4867 35.1564 10.4867 35.1564V35.438V35.88H11.2017C12.3284 35.88 12.7054 36.7857 12.7054 36.7857C12.1811 36.491 11.6394 36.5517 11.2061 36.5517C10.8291 36.5517 10.4867 36.5604 10.4867 36.5604V38.805C10.5257 39.1474 10.4911 39.559 10.9764 39.559C11.1454 39.559 12.3804 39.5634 12.5364 39.5634C13.5287 39.5634 13.7714 39.065 13.7714 39.065L13.7584 39.4594C13.7584 39.754 13.4984 40.2827 12.7401 40.2827H11.0977H10.5777H9.42507C9.42507 40.2827 9.02641 40.2654 9.02641 39.234L9.02207 35.1564Z" fill="#AD1F28"/>
<path d="M21.372 39.2124V36.3567C21.372 35.2517 20.462 34.957 19.7903 34.957C18.902 34.957 18.6333 35.7024 18.5206 35.9537C18.3213 35.2604 17.6236 34.9484 17.0516 34.9484C15.9813 34.9484 15.704 35.9754 15.704 35.9754C15.704 35.9754 15.678 34.983 14.8113 34.983L13.9663 34.9874C13.9663 34.9874 14.4516 35.191 14.4516 36.0447V39.2124C14.4516 40.2697 14.872 40.2784 14.872 40.2784H16.276C16.2413 40.2697 15.7386 39.8884 15.7386 39.2037V36.3957C15.756 36.27 15.9683 35.8497 16.575 35.8497C16.9086 35.8497 17.2813 36.2007 17.2726 36.6037L17.2683 39.2167C17.2683 40.2784 17.6886 40.2827 17.6886 40.2827H19.097C19.097 40.2827 18.5596 39.91 18.5596 39.208L18.5553 36.4C18.603 36.244 18.7936 35.867 19.3266 35.867C19.7426 35.867 20.0893 36.218 20.0806 36.621C20.0806 36.621 20.0763 39.0044 20.0763 39.2254C20.085 40.2914 20.4966 40.287 20.4966 40.287C21.229 40.287 21.905 40.2914 21.905 40.2914C21.905 40.2914 21.372 39.9057 21.372 39.2124Z" fill="#AD1F28"/>
<path d="M23.8246 39.208C23.8246 39.91 24.362 40.2784 24.362 40.2784C24.362 40.2784 23.6946 40.274 22.9623 40.274C22.9623 40.274 22.542 40.2784 22.542 39.221V39.2124V36.0317C22.542 35.1997 22.0566 34.983 22.0566 34.983H22.893C23.192 34.983 23.816 34.983 23.816 36.166L23.8116 39.2037L23.8246 39.208Z" fill="#AD1F28"/>
<path d="M28.1363 35.386C28.1363 35.386 27.9977 35.0047 27.417 35.0047C26.5373 35.0047 26.3207 36.0447 26.3207 36.0447C26.247 35.2257 26.026 34.9787 25.4193 34.9787H24.5657C24.5657 34.9787 25.0597 35.1824 25.0597 36.0317V39.208C25.0597 40.2654 25.48 40.274 25.48 40.274H26.871C26.8363 40.2654 26.3337 39.884 26.3337 39.1994V36.6037C26.3727 36.3654 26.4897 36.1877 26.6803 36.0664C27.1397 35.7717 27.7723 35.8454 28.1363 36.2787V35.386Z" fill="#AD1F28"/>
<path d="M34.6452 35.5767C35.1262 35.5767 35.4772 35.7847 35.4772 35.7847L35.4815 34.983H34.3072V33.7697C34.3072 33.7697 34.0038 34.3114 33.3712 34.827C32.9682 35.152 32.1318 35.5594 32.1318 35.5594L33.0245 35.5767V39.2557C33.0245 40.2784 33.4535 40.2784 33.4535 40.2784C34.2205 40.2784 34.8445 40.2827 34.8445 40.2827C34.8445 40.2827 34.3072 39.9187 34.3072 39.2514V35.581C34.6712 35.5767 34.4155 35.5767 34.6452 35.5767Z" fill="#AD1F28"/>
<path d="M38.9048 37.1757C38.1161 37.9904 37.4964 37.8604 37.0154 38.467C37.0154 38.467 37.0934 39.2817 37.7044 39.5677C37.9211 39.6674 38.7834 39.9447 39.3511 38.9654V39.897C39.3511 39.897 38.9871 40.2784 37.8431 40.2784C36.4781 40.2784 35.5334 39.1994 35.5334 37.739C35.5334 36.3004 36.3004 34.9614 37.7434 34.957C39.1648 34.9484 39.9361 36.0924 38.9048 37.1757ZM38.0424 36.8377C38.2764 36.4087 38.4584 35.321 37.6654 35.3817C36.7511 35.451 36.9288 37.8907 36.9288 37.8907C37.2278 37.557 37.6871 37.4877 38.0424 36.8377Z" fill="#AD1F28"/>
<path d="M23.1703 34.554C23.5343 34.554 23.8247 34.2724 23.8247 33.9214C23.8247 33.566 23.53 33.28 23.1703 33.28C22.8063 33.28 22.5247 33.566 22.5247 33.9214C22.5247 34.2724 22.8063 34.554 23.1703 34.554Z" fill="#AD1F28"/>
<path d="M41.9857 38.8397C42.003 39.2124 41.665 39.7064 40.95 39.7064C40.2523 39.7064 39.9447 38.9567 39.9447 38.9567L39.9403 39.9057C39.9403 39.9057 40.456 40.2784 41.2663 40.2784C42.2283 40.2784 43.1817 39.5547 43.1513 38.545C43.1383 38.1854 43.017 37.882 42.8263 37.6177C42.5013 37.1887 41.912 36.8724 41.444 36.6037C40.8113 36.2354 40.8937 35.4467 41.8253 35.5247C42.523 35.581 42.8177 36.2527 42.8177 36.2527V35.373C42.8177 35.373 42.2803 34.9484 41.47 34.9484C40.6293 34.9484 39.8797 35.5074 39.9013 36.2094C39.9187 36.8377 40.1787 37.245 40.69 37.622C40.8937 37.7737 41.1363 37.921 41.418 38.077C41.8253 38.298 41.977 38.5754 41.9857 38.8397Z" fill="#AD1F28"/>
<path d="M29.7743 39.676C29.3323 39.676 29.0333 39.4377 29.0333 38.9394C29.0333 37.7434 30.1167 37.5007 30.407 37.1497V39.377C30.394 39.377 30.2077 39.676 29.7743 39.676ZM30.5327 36.1487C30.5327 36.6644 30.0907 36.8984 29.8047 37.024C28.9727 37.388 27.9023 37.791 27.9023 39.0044C27.9023 39.819 28.4873 40.2827 29.315 40.2827C29.9433 40.2827 30.264 39.9534 30.4243 39.6457C30.5197 40.2437 30.8143 40.2697 30.8143 40.2697C31.551 40.2697 32.214 40.274 32.214 40.274C32.214 40.274 31.668 39.9014 31.668 39.208V39.2037V36.2354C31.668 35.5204 30.8793 34.97 30.043 34.97C29.237 34.97 28.73 35.36 28.73 35.36V36.2787C28.73 36.2787 29.016 35.5507 29.744 35.5507C30.3507 35.555 30.5327 35.8497 30.5327 36.1487Z" fill="#AD1F28"/>
</svg>
