<svg width="52" height="52" viewBox="0 0 52 52" fill="none" xmlns="http://www.w3.org/2000/svg">
<path d="M49.5385 20.1544C49.3825 19.877 49.0489 19.6647 48.6935 19.6647C48.3729 19.6647 48.0912 19.7991 48.0912 20.1327C48.0912 20.4231 48.4465 20.6094 48.8149 20.8434C49.2135 21.099 49.6252 21.3981 49.6252 21.9354C49.6252 22.6374 48.9449 23.0577 48.1562 23.0577C47.8355 23.0577 47.5019 22.9927 47.1119 22.8454L47.1769 21.9094C47.3545 22.2777 47.7012 22.5767 48.2125 22.5767C48.6025 22.5767 48.8929 22.3861 48.8929 22.0654C48.8929 21.7881 48.6589 21.6104 48.3685 21.4414C47.7575 21.073 47.3805 20.787 47.3805 20.2497C47.3805 19.461 48.0479 19.1924 48.7369 19.1924C49.1355 19.1924 49.3825 19.2704 49.6382 19.2704L49.5385 20.1544ZM46.1672 20.9907C46.0762 21.1337 45.9679 21.3374 45.8985 21.4804C45.8422 21.7577 45.8075 22.126 45.8075 22.5247C45.8075 22.6937 45.8422 22.9234 45.9202 22.9927H44.9062C45.0839 22.8237 45.1619 21.7924 45.1489 21.4587C45.0145 20.9907 44.8282 20.5444 44.5465 20.0027C44.3689 19.656 44.1565 19.3354 44.0352 19.279C44.2562 19.2574 44.5465 19.2444 44.6895 19.2444C44.9452 19.2444 45.0102 19.2791 45.1575 19.6127C45.4002 20.1587 45.5822 20.5704 45.6819 20.8694C45.9375 20.4707 46.1152 20.189 46.3492 19.825C46.4055 19.734 46.4619 19.6127 46.4619 19.5044C46.4619 19.4134 46.4489 19.3267 46.4055 19.2834H47.4065C47.2245 19.318 46.3579 20.6874 46.1672 20.9907ZM42.6615 20.1544L42.0592 21.4457H43.0299L42.6615 20.1544ZM43.8445 23.036C43.5239 23.036 43.4979 23.0231 43.2422 22.1477L43.1512 21.8271C42.9952 21.8921 42.7179 21.9397 42.2845 21.9397H41.8382L41.7602 22.1087C41.6475 22.3514 41.5045 22.6417 41.5045 22.841C41.5045 22.8844 41.5045 22.9407 41.5262 23.01H38.9002C39.0432 22.841 39.0995 22.2994 39.1689 21.3071L39.1819 21.073C39.2165 20.5054 39.2469 20.072 39.2469 19.773C39.2469 19.5174 39.2122 19.3614 39.1472 19.2964H40.1612C40.0182 19.409 39.9619 20.007 39.8925 20.9864L39.8709 21.2204C39.8492 21.5887 39.8059 21.9657 39.8059 22.3341C39.8059 22.5031 39.8709 22.5464 40.0485 22.5464C40.6595 22.5464 40.8155 22.5334 41.0929 22.3471C41.2705 22.0264 41.4612 21.6234 41.6605 21.2117L41.9162 20.6571C42.1589 20.1327 42.4059 19.6127 42.4059 19.5C42.4059 19.422 42.3842 19.3571 42.3625 19.2877H43.1729C43.1729 19.2877 43.4935 20.5011 43.5715 20.7654L43.7275 21.3547C44.0049 22.3427 44.1739 22.8237 44.4079 23.01C44.2085 23.023 43.9442 23.036 43.8445 23.036ZM37.2795 23.0707C36.3219 23.0707 35.7672 22.282 35.7672 21.3894C35.7672 20.1544 36.4345 19.1967 37.7129 19.1967C38.1115 19.1967 38.3022 19.2747 38.6272 19.2747L38.5275 20.2194C38.3499 19.8857 38.0509 19.6647 37.6479 19.6647C36.8592 19.6647 36.5342 20.5227 36.5342 21.255C36.5342 22.0567 36.9805 22.49 37.5785 22.49C37.8992 22.49 38.1895 22.3991 38.6575 22.0654C38.4712 22.7024 38.0119 23.0707 37.2795 23.0707ZM33.9515 19.7297C33.8605 19.7297 33.7522 19.7297 33.6612 19.7427C33.6265 19.8987 33.6049 20.176 33.5702 20.6224L33.5485 20.878C33.5919 20.891 33.6612 20.891 33.7175 20.891C34.1855 20.891 34.4975 20.6137 34.4975 20.189C34.5105 19.8987 34.3112 19.7297 33.9515 19.7297ZM35.2992 23.1574C35.0219 23.1574 34.9525 23.114 34.8659 22.9884L33.8215 21.541C33.7435 21.4284 33.6785 21.3417 33.5442 21.3417H33.5225L33.4965 21.6234C33.4749 22.0004 33.4619 22.3124 33.4619 22.5377C33.4619 22.7934 33.4965 22.9364 33.5615 23.0057H32.5475C32.6905 22.8714 32.7469 22.4381 32.8249 21.3027L32.8379 21.0687C32.8725 20.5141 32.9029 20.0807 32.9029 19.7774C32.9029 19.5087 32.8682 19.3441 32.7902 19.2877C33.3665 19.2877 34.1595 19.2877 34.1595 19.2877C34.6059 19.2877 35.2255 19.3657 35.2255 20.0894C35.2255 20.6917 34.8269 21.0124 34.3242 21.1684C34.3675 21.2117 34.4585 21.3244 34.5149 21.3894L35.2732 22.3904C35.7412 23.0144 35.7845 23.036 35.9535 23.1227C35.7672 23.1487 35.4899 23.1574 35.2992 23.1574ZM30.6062 20.1544L30.0039 21.4457H30.9832L30.6062 20.1544ZM31.7849 23.036C31.4642 23.036 31.4382 23.0231 31.1825 22.1477L31.0915 21.8271C30.9355 21.8921 30.6582 21.9397 30.2249 21.9397H29.7785L29.7005 22.1087C29.6225 22.2864 29.4319 22.6417 29.4449 22.841C29.4449 22.8844 29.4449 22.9407 29.4665 23.01H28.5782C28.8339 22.7544 29.1545 22.165 29.6009 21.2074L29.8565 20.6527C30.0905 20.15 30.3462 19.5867 30.3462 19.4957C30.3462 19.4177 30.3245 19.3527 30.3029 19.2834H31.1132C31.1132 19.2834 31.3255 20.085 31.5119 20.761L31.6679 21.3504C31.9452 22.3384 32.1142 22.8194 32.3482 23.0057C32.1402 23.0231 31.8845 23.036 31.7849 23.036ZM27.1915 19.7211C27.1135 19.7211 27.0225 19.721 26.9359 19.734C26.9012 19.9897 26.8709 20.2454 26.8579 20.5227C26.8579 20.5227 26.8449 20.7567 26.8449 20.7437H26.9445C27.4125 20.7437 27.8459 20.5747 27.8459 20.1414C27.8372 19.8987 27.6335 19.7211 27.1915 19.7211ZM27.0659 21.1987H26.8102L26.7755 21.7447C26.7539 21.9874 26.7409 22.191 26.7409 22.425C26.7409 22.4597 26.8535 22.5377 27.0962 22.5377C27.6205 22.5377 27.9629 22.2821 27.9629 21.8487C27.9585 21.3764 27.5685 21.1987 27.0659 21.1987ZM27.1352 23.0014H25.8352C26.0042 22.8584 26.0475 22.2907 26.1125 21.2984L26.1255 21.0644C26.1602 20.4967 26.1905 20.0634 26.1905 19.7644C26.1905 19.5087 26.1559 19.331 26.0779 19.2747H27.5339C27.8805 19.2747 28.5782 19.2964 28.5782 20.02C28.5782 20.4967 28.1319 20.8 27.7202 20.9084C28.2965 20.9647 28.7342 21.242 28.7342 21.8444C28.7255 22.4901 28.1232 23.0014 27.1352 23.0014Z" fill="#00AEEF"/>
<path d="M21.8745 18.5294C21.7315 18.5294 21.7055 18.5511 21.6622 18.6074C21.6405 18.6074 21.6275 18.6074 21.6058 18.6074C21.4932 18.6074 21.3632 18.6204 21.2375 18.6984C21.1248 18.7764 21.0685 18.9108 21.1248 18.9974C21.1248 18.9974 21.1682 18.9411 21.3025 18.9411C21.3242 18.9411 21.3458 18.9411 21.3675 18.9411C21.5582 18.9628 21.6882 19.0624 21.6665 19.3181C21.6535 19.5738 21.5538 19.8641 21.1638 19.8641C21.1638 19.8641 21.1075 19.8641 21.0642 19.8641C20.8865 19.8424 20.8215 19.7298 20.8215 19.7298C20.8215 19.7298 20.9775 19.6864 20.9775 19.4871C20.9775 19.3528 20.8562 19.2184 20.6872 19.1751C20.6308 19.1621 20.5658 19.1534 20.5095 19.1534C20.3102 19.1534 20.0762 19.2444 19.9332 19.4438C19.5865 19.8988 19.5562 20.5661 19.6428 21.1901C19.7338 21.8141 20.1195 22.3904 20.1325 22.4034C20.1455 22.4164 20.1455 22.4251 20.1542 22.4251C20.1542 22.4251 20.1672 22.4251 20.1672 22.4121C20.3362 22.2431 20.5008 22.0221 20.5658 21.8661C20.6438 21.9224 20.6005 22.0568 20.5658 22.1868C20.5312 22.3211 20.4315 22.5074 20.3968 22.5638C20.3622 22.6201 20.3188 22.6851 20.3752 22.7198C20.3882 22.7198 20.3882 22.7328 20.3968 22.7328C20.4748 22.7328 20.6525 22.5984 20.8518 22.3341C21.0728 22.0351 21.1855 21.7664 21.1855 21.7664C21.1985 21.7664 21.2288 21.8011 21.2288 21.8791C21.2288 21.9571 21.1508 22.2474 20.9948 22.5118C20.8388 22.7804 20.6958 22.9451 20.6612 22.9798C20.6395 23.0014 20.6612 23.0144 20.6742 23.0231C20.6872 23.0361 20.9645 23.2918 21.3632 23.4998C21.8398 23.7554 22.0522 23.7988 22.0522 23.7988C22.0522 23.7988 22.2645 23.7554 22.7325 23.4998C23.1312 23.2788 23.4128 23.0231 23.4215 23.0101C23.4345 22.9971 23.4432 22.9884 23.4345 22.9668C23.4128 22.9321 23.2655 22.7674 23.1138 22.4988C22.9578 22.2301 22.8798 21.9441 22.8798 21.8661C22.8798 21.7881 22.9015 21.7664 22.9145 21.7534C22.9145 21.7534 23.0272 22.0221 23.2612 22.3211C23.4605 22.5898 23.6382 22.7198 23.7162 22.7198C23.7292 22.7198 23.7378 22.7198 23.7378 22.7068C23.7942 22.6721 23.7508 22.6071 23.7162 22.5508C23.6815 22.4944 23.5948 22.3081 23.5472 22.1738C23.5038 22.0394 23.4692 21.9051 23.5472 21.8531C23.6122 22.0091 23.7812 22.2301 23.9458 22.3991L23.9588 22.4121C23.9718 22.4121 23.9718 22.3991 23.9805 22.3991C23.9935 22.3774 24.3922 21.8098 24.4702 21.1858C24.5612 20.5618 24.5265 19.8944 24.1798 19.4394C24.0238 19.2401 23.8028 19.1491 23.5905 19.1491C23.5255 19.1491 23.4692 19.1621 23.4128 19.1708C23.2352 19.2271 23.1225 19.3484 23.1225 19.4828C23.1225 19.6821 23.2785 19.7254 23.2785 19.7254C23.2785 19.7254 23.2222 19.8381 23.0358 19.8598C23.0012 19.8598 22.9708 19.8728 22.9362 19.8728C22.7932 19.8728 22.6675 19.8294 22.5592 19.6734C22.4508 19.5174 22.4595 19.2184 22.4465 19.1058C22.4465 19.0061 22.4248 18.7591 22.3122 18.6724C22.1995 18.5728 22.0695 18.5381 21.9005 18.5381C21.8962 18.5294 21.8832 18.5294 21.8745 18.5294Z" fill="#00AEEF"/>
<path d="M19.604 24.5483H20.683L21.3287 27.2177H21.3417L22.321 24.5483H23.1443L24.1323 27.2177H24.1453L24.791 24.5483H25.87L24.8343 28.665H23.7337L22.7457 26.039H22.7327L21.7317 28.665H20.6397L19.604 24.5483Z" fill="white"/>
<path d="M25.8569 26.6067C25.8569 25.3283 26.7713 24.4357 28.0496 24.4357C29.3279 24.4357 30.2423 25.324 30.2423 26.6067C30.2423 27.885 29.3279 28.7777 28.0496 28.7777C26.7669 28.7647 25.8569 27.8763 25.8569 26.6067ZM29.2023 26.6067C29.2023 25.8483 28.7473 25.3587 28.0583 25.3587C27.3693 25.3587 26.9143 25.8483 26.9143 26.6067C26.9143 27.365 27.3693 27.8547 28.0583 27.8547C28.7473 27.8547 29.2023 27.352 29.2023 26.6067Z" fill="white"/>
<path d="M30.6626 24.5483H31.8066L33.2193 27.2523H33.2323L34.6449 24.5483H35.7889V28.665H34.7533V26.195H34.7403L33.4186 28.665H33.0416L31.7199 26.195H31.7069V28.665H30.6713V24.5483H30.6626Z" fill="white"/>
<path d="M36.3567 24.5483H39.5287V25.4583H37.4054V26.1603H39.3294V26.9967H37.4054V27.755H39.5417V28.6693H36.3567V24.5483Z" fill="white"/>
<path d="M40.0269 24.5483H41.1189L42.9302 27.1613H42.9432V24.5483H43.9875V28.665H42.8955L41.0842 26.052H41.0712V28.665H40.0269V24.5483Z" fill="white"/>
<path d="M44.4858 25.9957C44.7632 25.9307 44.8412 25.818 44.8412 25.5493H44.4512V24.5483H45.5432V25.4063C45.5432 26.052 45.1878 26.442 44.4858 26.4983V25.9957Z" fill="white"/>
<path d="M45.7122 27.274L46.7002 27.0963C46.8345 27.6727 47.1682 27.9067 47.8008 27.9067C48.2905 27.9067 48.5808 27.7637 48.5808 27.508C48.5808 27.274 48.3815 27.1397 47.3675 26.9187C46.3318 26.6847 45.8422 26.3163 45.8422 25.6837C45.8422 24.96 46.5225 24.4357 47.5668 24.4357C48.5462 24.4357 49.3002 24.9253 49.4908 25.6837L48.5028 25.9047C48.3598 25.493 48.0478 25.2807 47.5668 25.2807C47.1552 25.2807 46.8865 25.4367 46.8865 25.6577C46.8865 25.8483 47.0772 25.935 48.0305 26.1603C49.0748 26.403 49.6208 26.7843 49.6208 27.482C49.6208 28.262 48.9102 28.7603 47.7965 28.7603C46.6222 28.7647 45.8682 28.2317 45.7122 27.274Z" fill="white"/>
<path d="M19.604 31.4687L20.2497 31.356C20.3407 31.733 20.5487 31.889 20.9733 31.889C21.294 31.889 21.4847 31.7893 21.4847 31.6333C21.4847 31.4773 21.3503 31.3907 20.696 31.2433C20.0157 31.0873 19.708 30.8533 19.708 30.433C19.708 29.9563 20.1543 29.6227 20.8303 29.6227C21.476 29.6227 21.9657 29.9433 22.087 30.446L21.4413 30.589C21.3503 30.3203 21.1423 30.1773 20.8303 30.1773C20.5617 30.1773 20.384 30.277 20.384 30.42C20.384 30.5413 20.5053 30.6107 21.1293 30.7407C21.8183 30.8967 22.165 31.1523 22.165 31.6073C22.165 32.1187 21.697 32.4437 20.9733 32.4437C20.1933 32.435 19.7037 32.0797 19.604 31.4687Z" fill="white"/>
<path d="M22.4421 31.3213V29.666H23.1311V31.2693C23.1311 31.6593 23.3218 31.824 23.6988 31.824C24.0758 31.824 24.2665 31.6463 24.2665 31.2693V29.666H24.9555V31.3213C24.9555 32.032 24.4875 32.435 23.6988 32.435C22.9101 32.435 22.4421 32.045 22.4421 31.3213Z" fill="white"/>
<path d="M25.3196 29.6747H26.7669C27.3562 29.6747 27.7809 30.0083 27.7809 30.5977C27.7809 31.187 27.3562 31.5207 26.7669 31.5207H26.0086V32.37H25.3196V29.6747ZM26.7019 30.9443C26.9142 30.9443 27.0919 30.8317 27.0919 30.5977C27.0919 30.355 26.9229 30.264 26.7149 30.264H25.9999V30.9443H26.7019Z" fill="white"/>
<path d="M28.0452 29.6747H30.1252V30.277H28.7342V30.732H29.9908V31.278H28.7342V31.7677H30.1252V32.37H28.0452V29.6747Z" fill="white"/>
<path d="M32.9289 32.3701H32.1705L31.6029 31.4817H31.1565V32.3701H30.4675V29.6791H31.9149C32.5172 29.6791 32.9159 30.0127 32.9159 30.5804C32.9159 31.0137 32.6732 31.3127 32.2919 31.4254L32.9289 32.3701ZM31.8629 30.8881C32.0969 30.8881 32.2399 30.7754 32.2399 30.5674C32.2399 30.3594 32.1055 30.2554 31.8629 30.2554H31.1609V30.8881H31.8629Z" fill="white"/>
<path d="M34.1077 29.6747H34.7967V31.7677H36.166V32.37H34.1077V29.6747Z" fill="white"/>
<path d="M36.4779 29.6747H38.5579V30.277H37.1582V30.732H38.4149V31.278H37.1582V31.7677H38.5492V32.37H36.4692V29.679H36.4779V29.6747Z" fill="white"/>
<path d="M40.9283 31.967H39.637L39.468 32.3657H38.7573L39.9577 29.6747H40.5903L41.7907 32.3657H41.08L40.9283 31.967ZM40.6857 31.3907L40.287 30.4113H40.274L39.8753 31.3907H40.6857Z" fill="white"/>
<path d="M41.6865 31.0223C41.6865 30.186 42.2889 29.5967 43.1209 29.5967C43.7752 29.5967 44.2649 29.965 44.3992 30.498L43.7665 30.6757C43.6755 30.3853 43.4545 30.199 43.1339 30.199C42.6789 30.199 42.3755 30.5197 42.3755 31.0223C42.3755 31.512 42.6745 31.8457 43.1339 31.8457C43.5239 31.8457 43.7449 31.6767 43.7665 31.4123H43.1555V30.9227H44.4339V31.278C44.4339 32.0017 43.9312 32.448 43.1339 32.448C42.2759 32.435 41.6865 31.8457 41.6865 31.0223Z" fill="white"/>
<path d="M44.7112 31.3213V29.666H45.4002V31.2693C45.4002 31.6593 45.5908 31.824 45.9678 31.824C46.3448 31.824 46.5355 31.6463 46.5355 31.2693V29.666H47.2245V31.3213C47.2245 32.032 46.7565 32.435 45.9678 32.435C45.1792 32.435 44.7112 32.045 44.7112 31.3213Z" fill="white"/>
<path d="M47.5583 29.6747H49.6383V30.277H48.2474V30.732H49.504V31.278H48.2474V31.7677H49.6383V32.37H47.5583V29.6747Z" fill="white"/>
<path d="M17.5889 25.4844L16.8349 20.7567L10.2396 17.6541L3.63991 20.7567L3.24991 23.2267L4.76224 24.1844L5.10891 21.8487L10.2352 19.3917L15.3616 21.8487L15.7862 24.6741L17.5889 25.4844ZM10.2352 22.1477L14.6162 24.2711L14.4169 22.9147C14.3822 22.7024 14.2479 22.5247 14.0616 22.4381L10.2352 20.6007L6.46524 22.4034C6.24424 22.5161 6.08824 22.7241 6.04057 22.9711L5.76324 24.8084L10.3132 27.6771L11.6696 26.7887L7.27991 24.1801L7.37957 23.5127L10.2352 22.1477ZM2.36157 28.8297L10.2482 34.3461L18.1349 28.8297L17.8142 26.7844L16.0029 25.9177L16.3149 28.0411L10.2396 32.0884L4.18591 28.0281L4.56291 25.4584L3.34957 24.6697L3.05057 24.4791L2.36157 28.8297ZM5.42957 27.1051C5.39491 27.3477 5.49457 27.5947 5.70691 27.7291L10.2352 30.7754L14.7636 27.7291C14.9629 27.5947 15.0756 27.3521 15.0409 27.1051L14.8199 25.6144L10.3132 23.2701L8.82257 23.9807L13.4722 26.5287L13.5069 26.8841L10.2352 29.0334L5.59857 25.9524L5.42957 27.1051Z" fill="url(#paint0_linear_714_725)"/>
<path d="M5.57698 27.1311L5.71131 26.2167L10.2266 29.2197L13.676 26.9621L13.6196 26.4377L9.14765 23.9894L10.3046 23.4347L14.677 25.7141L14.8893 27.1267C14.924 27.3174 14.833 27.5037 14.677 27.6034L10.2266 30.5891L5.77631 27.6077C5.63331 27.4951 5.55531 27.3087 5.57698 27.1311ZM14.443 24.0154L14.274 22.9364C14.2523 22.7804 14.1526 22.6374 13.9966 22.5681L10.2353 20.7654L6.53465 22.5334C6.35698 22.6244 6.22265 22.7891 6.20098 22.9884L5.93231 24.7347L10.3263 27.4951L11.4053 26.7931L7.12398 24.2581L7.24531 23.4131L10.2483 21.9787L14.443 24.0154ZM4.97465 21.7447L10.2353 19.2184L13.2816 20.6744L15.5046 21.7404L15.9293 24.5657L17.199 25.1334L16.7093 21.8747L16.575 20.9517L10.2353 17.9141L3.90865 20.9561L3.73098 22.1477L3.56198 23.2614L4.64098 23.9504L4.97465 21.7447ZM10.2353 33.6831L17.7233 28.6564L17.446 26.7757L16.1676 26.1647L16.458 28.1017L10.2396 32.2747L4.01698 28.0974L4.39398 25.5277L3.31498 24.8257L2.74731 28.6521L10.2353 33.6831Z" fill="url(#paint1_linear_714_725)"/>
<defs>
<linearGradient id="paint0_linear_714_725" x1="5.56463" y1="34.0134" x2="14.0653" y2="19.2897" gradientUnits="userSpaceOnUse">
<stop offset="0.08" stop-color="#1E0F35"/>
<stop offset="0.2191" stop-color="#163B68"/>
<stop offset="0.3695" stop-color="#0E6498"/>
<stop offset="0.5126" stop-color="#0884BE"/>
<stop offset="0.6444" stop-color="#049BD9"/>
<stop offset="0.761" stop-color="#01A9E9"/>
<stop offset="0.85" stop-color="#00AEEF"/>
</linearGradient>
<linearGradient id="paint1_linear_714_725" x1="4.84547" y1="35.145" x2="13.8509" y2="19.5472" gradientUnits="userSpaceOnUse">
<stop offset="8.07343e-08" stop-color="#870064"/>
<stop offset="0.2457" stop-color="#B61B56"/>
<stop offset="0.489" stop-color="#DE314B"/>
<stop offset="0.6818" stop-color="#F63F44"/>
<stop offset="0.8" stop-color="#FF4441"/>
</linearGradient>
</defs>
</svg>
