<svg width="52" height="52" viewBox="0 0 52 52" fill="none" xmlns="http://www.w3.org/2000/svg">
<path d="M14.5253 41.4137H12.922V41.3963L13.299 40.9673L14.7723 37.0673L14.4906 36.6383V36.6253H16.1156L17.5803 40.9717L17.9746 41.4007V41.418H15.925V41.4007L16.3193 40.9717L16.0983 40.222H14.404L14.1483 40.9717L14.521 41.4007V41.4137H14.5253ZM14.664 39.5027H15.8946L15.327 37.596L14.664 39.5027ZM47.8616 38.467C46.9906 38.2243 46.7263 38.1203 46.7263 37.7173C46.7263 37.258 47.3243 37.167 47.7013 37.167C48.0176 37.167 48.3123 37.206 48.5766 37.2883L49.3046 38.077H49.3176L49.257 36.725C48.802 36.5517 48.3253 36.4607 47.7836 36.4607C46.6396 36.4607 45.5433 36.855 45.5433 37.9903C45.5433 38.7227 46.0503 39.1603 47.1466 39.4637C47.9916 39.6977 48.4076 39.8493 48.4076 40.2783C48.4076 40.7767 47.7706 40.885 47.3503 40.885C46.995 40.885 46.6786 40.833 46.4056 40.7507L45.6733 39.845H45.656L45.708 41.2793C46.2063 41.5047 46.813 41.5913 47.3806 41.5913C48.607 41.5913 49.634 41.0757 49.634 40.04C49.6383 39.0563 48.9666 38.7747 47.8616 38.467ZM42.9866 36.634L43.446 37.063V39.6067L41.5046 36.621H39.7583V36.634L40.1136 37.063V40.963L39.7583 41.392V41.4093H41.353V41.392L40.885 40.963V37.7867L43.3116 41.4093H44.2173V37.0673L44.5726 36.6383V36.6253H42.9866V36.634ZM43.2986 44.2043L43.5326 44.5727H43.394L43.1773 44.213H43.03V44.5727H42.9043V43.7407H43.2206C43.4156 43.7407 43.5153 43.8143 43.5153 43.979C43.5153 44.1263 43.42 44.187 43.2986 44.2043ZM43.1816 44.1047C43.29 44.1047 43.3853 44.1003 43.3853 43.9703C43.3853 43.8663 43.29 43.849 43.2033 43.849H43.03V44.1047H43.1816ZM43.914 44.1523C43.914 44.5727 43.576 44.876 43.186 44.876C42.7916 44.876 42.4536 44.5727 42.4536 44.1523C42.4536 43.7407 42.7916 43.433 43.186 43.433C43.576 43.433 43.914 43.7407 43.914 44.1523ZM43.7666 44.1523C43.7666 43.81 43.5066 43.5543 43.1816 43.5543C42.8523 43.5543 42.5923 43.81 42.5923 44.1523C42.5923 44.499 42.8523 44.7547 43.1816 44.7547C43.5066 44.7547 43.7666 44.499 43.7666 44.1523ZM34.6363 43.563L35.0306 43.992V46.722C35.0306 47.5063 34.645 47.7057 34.0166 47.7057C33.3796 47.7057 32.994 47.5237 32.994 46.722V43.992L33.3883 43.563V43.5457H31.4166V43.563L31.772 43.992V46.722C31.772 48.0307 32.4393 48.5073 33.8606 48.5073C35.152 48.5073 35.8106 48.061 35.8106 46.761V43.992L36.1573 43.563V43.5457H34.6363V43.563ZM36.2353 41.5827C34.736 41.5827 33.7696 40.352 33.7696 38.9523C33.7696 37.5093 34.8833 36.4563 36.2743 36.4563C37.8083 36.4563 38.792 37.661 38.792 39.0347C38.7876 40.6033 37.6003 41.5827 36.2353 41.5827ZM37.505 39.364C37.505 38.532 37.193 37.2103 36.1356 37.2103C35.2906 37.2103 35.048 38.0553 35.048 38.6317C35.048 39.4723 35.3946 40.8243 36.4173 40.8243C37.1496 40.8243 37.505 40.1267 37.505 39.364ZM26.078 40.9673V37.0673L25.7226 36.6383V36.6253H27.9933C29.3713 36.6253 29.9953 37.2537 29.9953 38.207C29.9953 39.1993 29.2456 39.8103 28.2273 39.8103C27.8936 39.8103 27.5556 39.7887 27.3043 39.728V40.976L27.8026 41.405V41.4223H25.7226V41.405L26.078 40.9673ZM27.3043 39.0867C27.456 39.13 27.6293 39.156 27.8113 39.156C28.4786 39.156 28.7646 38.792 28.7646 38.2547C28.7646 37.6177 28.392 37.3187 27.7073 37.3187H27.3086V39.0867H27.3043ZM28.5566 46.098L29.0333 46.5313V47.4327C28.8816 47.606 28.6173 47.749 28.262 47.749C27.417 47.749 26.9706 46.7133 26.9706 45.8423C26.9706 44.8977 27.4473 44.1047 28.431 44.1047C28.704 44.1047 28.99 44.1263 29.224 44.2087L29.9823 45.0233H29.9953L29.952 43.706C29.5143 43.4807 28.9856 43.381 28.4483 43.381C26.8363 43.381 25.6966 44.3733 25.6966 46.0027C25.6966 47.372 26.572 48.5073 27.9413 48.5073C28.5393 48.5073 29.0853 48.373 29.588 48.0003L30.186 48.5073H30.2033V46.527L30.5803 46.0937V46.0807H28.5566V46.098ZM32.786 41.4007L32.4393 40.9717V37.0717L32.786 36.6427V36.6297H30.8576V36.6427L31.213 37.0717V40.9717L30.8576 41.4007V41.418H32.786V41.4007ZM5.25197 40.781C4.2683 40.781 3.63997 39.7843 3.63997 38.922C3.63997 37.8647 4.2163 37.1757 5.03963 37.1757C5.26063 37.1757 5.47297 37.1973 5.6593 37.2493L6.4003 38.1637H6.41763L6.36563 36.6513C6.1533 36.569 5.69397 36.4563 5.1263 36.4563C3.3713 36.4563 2.36597 37.6523 2.36597 39.026C2.36597 40.3867 3.3323 41.5827 4.9963 41.5827C5.44263 41.5827 6.1013 41.431 6.5563 41.093L6.62563 40.3H6.61263C6.2183 40.599 5.66363 40.781 5.25197 40.781ZM24.895 47.8963L25.2893 48.3253V48.3383H23.2396V48.3253L23.634 47.8963L23.413 47.1467H21.7186L21.463 47.8963L21.8356 48.3253V48.3383H20.2323V48.3253L20.6093 47.8963L22.0826 43.9963L21.801 43.5673V43.55H23.426L24.895 47.8963ZM23.2006 46.4273L22.633 44.5207L21.9656 46.4273H23.2006ZM40.5556 47.645H38.6663V46.1933H39.793L40.2523 46.5877H40.2696V45.1057H40.2523L39.793 45.5H38.6663V44.239H40.4906L41.0193 44.8067H41.0323L40.9716 43.55H37.0846V43.5673L37.44 43.9963V47.8963L37.0846 48.3253V48.3383H41.1363L41.236 46.8953H41.2186L40.5556 47.645ZM10.4346 41.4007V41.418H12.363V41.4007L12.0076 40.9717V37.0717L12.363 36.6427V36.6297H10.4346V36.6427L10.7813 37.0717V38.5233H9.0653V37.0717L9.41197 36.6427V36.6297H7.48363V36.6427L7.83897 37.0717V40.9717L7.48363 41.4007V41.418H9.41197V41.4007L9.0653 40.9717V39.286H10.7813V40.9717L10.4346 41.4007ZM14.1006 47.6407H12.4583V43.9963L12.9046 43.5673V43.55H10.8766V43.5673L11.232 43.9963V47.8963L10.8766 48.321V48.3427H14.6813L14.8633 46.839H14.846L14.1006 47.6407ZM19.7296 37.9947L21.0686 41.4137H21.8183L23.0576 37.96L23.27 40.9673L22.802 41.3963V41.4137H24.8343V41.3963L24.44 40.9673L24.154 37.0673L24.466 36.6383V36.6253H22.7716L21.6233 39.8233L20.384 36.6253H18.668V36.6383L19.0146 37.0673L18.811 40.9673L18.395 41.3963V41.4137H20.0676V41.3963L19.6516 40.9673L19.7296 37.9947ZM19.0146 47.645H17.1253V46.1933H18.252L18.7113 46.5877H18.7286V45.1057H18.7113L18.252 45.5H17.1253V44.239H18.9496L19.4783 44.8067H19.4913L19.4306 43.55H15.5436V43.5673L15.899 43.9963V47.8963L15.5436 48.3253V48.3383H19.5953L19.695 46.8953H19.6776L19.0146 47.645ZM31.0786 33.7783L31.2043 33.3537L30.6713 32.955L31.1003 32.6473L31.3473 32.8337L31.629 31.8847L29.9953 32.942L29.3236 32.565L31.889 30.9053C31.9886 30.8403 32.123 30.784 32.292 30.9183L32.4003 31.0007C32.5736 31.135 32.5476 31.2867 32.513 31.3907L31.6636 34.32L31.0786 33.7783ZM33.9863 31.4427L34.3676 30.9703C34.177 30.7797 33.982 30.5977 33.7783 30.42C31.6463 28.5783 28.886 27.5643 26.0043 27.5643C23.1226 27.5643 20.3623 28.5783 18.2303 30.42C18.0266 30.5977 17.8273 30.7797 17.641 30.9703L18.0223 31.4427C18.213 31.2477 18.4166 31.0613 18.6246 30.8793C20.6483 29.133 23.27 28.171 26.0086 28.171C28.7473 28.171 31.369 29.133 33.3926 30.8793C33.592 31.0613 33.7956 31.2477 33.9863 31.4427ZM28.3876 29.8437L29.4666 30.1253L29.6356 29.4667L28.5263 29.1807C27.9196 29.0247 27.5036 29.25 27.352 29.822L26.897 31.5727C26.8753 31.655 26.884 31.7287 26.923 31.7937C26.962 31.8587 27.0226 31.902 27.105 31.9237L27.5166 32.032L27.807 30.901L29.055 31.226L29.224 30.576L27.976 30.251L28.0236 30.0647C28.093 29.809 28.1666 29.7873 28.3876 29.8437ZM24.8863 28.8817L23.0836 29.2457C23.0013 29.263 22.9363 29.302 22.8973 29.367C22.8583 29.4277 22.8453 29.5057 22.8626 29.588L23.2223 31.356C23.2786 31.642 23.4086 31.85 23.6036 31.9713C23.7336 32.0493 23.8896 32.0927 24.0673 32.0927C24.1583 32.0927 24.258 32.084 24.3576 32.0623L25.4843 31.8327L25.35 31.1653L24.2536 31.3863C24.0283 31.434 23.9546 31.408 23.907 31.1567L23.868 30.966L25.1333 30.7103L24.999 30.0517L23.7336 30.3073L23.6383 29.835L25.0206 29.5533L24.8863 28.8817ZM21.0816 32.8727C20.943 32.9853 20.7826 33.0417 20.6396 33.0243C20.462 33.0027 20.3493 32.929 20.1716 32.708L19.1403 31.4383L18.5856 31.8933L19.708 33.2757C19.9463 33.5703 20.2193 33.7263 20.54 33.7523C20.579 33.7567 20.6136 33.7567 20.6526 33.7567C20.9646 33.761 21.2506 33.6483 21.5323 33.423C21.8443 33.1673 22.0133 32.8727 22.0566 32.5173C22.0913 32.1967 21.996 31.8977 21.7576 31.6073L20.6353 30.225L20.0763 30.68L21.1076 31.9497C21.2853 32.1707 21.3373 32.292 21.32 32.474C21.307 32.617 21.2203 32.76 21.0816 32.8727ZM26 32.578C23.8983 32.578 21.9916 33.5183 20.826 34.9093L21.1943 35.3643C22.2516 34.0513 24.05 33.1457 26 33.1457C27.95 33.1457 29.7483 34.0513 30.8056 35.3643L31.174 34.9093C30.0083 33.5183 28.1016 32.578 26 32.578ZM35.7066 16.3323C35.6763 16.3453 35.646 16.3237 35.646 16.2933C35.581 14.9933 35.4596 13.728 35.399 13.2643C35.4033 12.142 35.217 10.9763 35.0306 10.114C35.022 10.0837 35.0523 10.0533 35.0826 10.062C36.1443 10.2787 36.4823 10.6773 36.4823 10.6773C35.919 9.41632 35.113 8.46732 34.2333 7.74799C33.4836 6.17065 32.617 5.44265 32.617 5.44265C32.6863 5.79365 32.6386 6.18799 32.513 6.59532C32.5043 6.62132 32.474 6.63432 32.4523 6.62132C31.0093 5.91499 29.523 5.59432 28.9466 5.51199C28.0886 5.09165 27.1483 4.81432 26.3813 4.60632C26.3596 4.60199 26.3553 4.57599 26.3726 4.55865C27.3866 3.71365 28.3183 3.50132 28.3183 3.50132C26.6673 3.43632 25.246 3.73532 24.0586 4.19032C22.282 4.04732 21.151 4.35499 21.151 4.35499C21.151 4.35499 21.6406 4.94432 21.8313 5.26932C21.853 5.30832 21.8443 5.36032 21.8053 5.38632C20.6873 6.16199 19.8856 7.01565 19.5693 7.36665C19.2183 7.41432 18.6073 7.49665 18.0743 7.63099C18.0526 7.63532 18.0353 7.61365 18.044 7.59632C18.577 6.32665 19.1576 5.62032 19.1576 5.62032C19.1576 5.62032 15.7343 8.05999 15.0843 12.4367C15.0843 12.4367 15.366 11.661 16.3193 10.4823C16.3323 10.465 16.3583 10.4693 16.3626 10.4867C16.6313 11.0847 16.9433 11.6177 17.0993 11.8647C16.575 12.7097 16.211 13.6327 15.99 14.3867C15.9813 14.4127 15.964 14.4343 15.938 14.443C15.145 14.7463 14.9413 15.0323 14.9413 15.0323C15.0626 15.4527 15.3053 15.8643 15.613 16.2543C15.639 16.289 15.652 16.328 15.652 16.3713C15.5696 18.239 16.172 19.4697 16.172 19.4697C16.3063 18.8153 16.575 18.1827 16.9086 17.589C16.9216 17.5673 16.952 17.5587 16.9736 17.576C17.758 18.2 18.5683 18.7417 18.889 18.9367C19.0536 19.3613 19.5303 20.462 20.1673 21.593C20.1803 21.6147 20.1716 21.645 20.1456 21.658C19.383 21.9353 18.603 22.061 17.888 21.8877C17.888 21.8877 18.7503 22.9623 21.411 23.4217C22.1476 24.297 23.049 25.0207 24.0976 25.272C24.0976 25.272 23.79 24.934 23.712 23.673C23.712 23.647 23.7293 23.6253 23.7553 23.6253C24.414 23.634 25.3023 23.6513 26.1213 23.5907C26.4116 23.8203 27.04 24.3187 27.6553 24.6393C27.6856 24.6567 27.6856 24.7 27.6596 24.7173C26.5763 25.3717 25.857 25.428 25.857 25.428C30.758 25.532 33.7003 22.334 33.7003 22.334C32.8943 22.867 31.9583 23.1963 31.031 23.3913C31.0006 23.4 30.9703 23.3697 30.979 23.3393C31.1523 22.503 31.1046 21.697 31.0916 21.411C32.253 21.1207 33.2713 20.6007 34.021 20.072C34.0383 20.0633 34.0556 20.059 34.073 20.072C34.385 20.2887 34.6536 20.5357 34.9223 20.943C34.9223 20.943 35.4293 20.2237 35.607 18.5553C36.868 16.9087 37.0543 15.2273 37.0543 15.2273C36.7423 15.717 36.2656 16.0767 35.7066 16.3323ZM25.1506 5.92799C25.194 5.86299 25.2633 5.81965 25.337 5.81099C26.9186 5.60299 28.3616 5.57265 28.9163 5.58565C29.926 6.25732 30.914 7.14999 31.7026 7.99065C31.759 8.05132 31.7676 8.13799 31.7243 8.20732C31.161 9.09132 30.342 9.93632 29.9823 10.3047C28.6476 10.621 27.235 11.0803 26.0866 11.4573C25.974 11.492 25.8526 11.453 25.7876 11.3577C24.9166 10.0923 24.362 9.00465 24.1453 8.60165C24.388 7.54432 24.7173 6.60399 25.1506 5.92799ZM17.4026 13.9663C17.2726 13.1387 17.1903 12.2677 17.1816 11.869C17.16 10.946 17.3073 10.1313 17.4763 9.37732C17.5023 9.25165 17.5673 9.14332 17.6626 9.05665C18.1566 8.60599 19.045 7.80865 19.6083 7.44465C20.137 7.10232 21.6103 6.62565 22.217 6.45232C22.334 6.41765 22.4596 6.46965 22.5203 6.57799C22.594 6.70799 22.6676 6.83365 22.75 6.95932C23.2266 7.70465 23.7553 8.34599 23.9763 8.62766C23.6816 9.79765 23.556 11.1107 23.4996 12.2157C23.4953 12.3197 23.4303 12.4107 23.3306 12.4497C21.7966 13.0433 20.6353 13.5157 20.2453 13.6933C19.188 13.7367 18.1826 13.9187 17.5066 14.0357C17.459 14.0487 17.4113 14.014 17.4026 13.9663ZM21.723 20.878C21.632 20.9343 21.5193 20.93 21.4283 20.8693C20.6526 20.319 19.721 19.6127 18.9496 18.889C18.4946 18.109 18.1436 17.108 17.8966 16.2587C17.8793 16.2023 17.8923 16.146 17.927 16.0983C18.7936 15.028 19.8336 14.183 20.2713 13.8623C21.2506 14.287 22.3773 14.6597 23.3653 14.989C23.465 15.0237 23.5386 15.1147 23.5473 15.2187C23.686 16.9737 24.0066 18.395 24.0933 18.941C23.725 19.3397 22.7673 20.2323 21.723 20.878ZM32.526 19.1403C31.7806 20.3927 31.213 21.1467 31.031 21.3763C30.784 21.7273 30.1556 22.633 29.1806 23.5517C29.12 23.6123 29.0376 23.6427 28.951 23.647C27.729 23.699 26.5893 23.6123 26.1473 23.517C25.7746 23.361 24.8993 22.9667 23.868 22.399C23.777 22.3513 23.725 22.2517 23.7336 22.1477C23.7856 21.346 24.0413 20.2063 24.2666 18.9973C24.8213 18.0223 25.3976 16.9087 25.9913 15.99C26.052 15.8947 26.1733 15.847 26.2816 15.8773C28.067 16.367 29.6183 16.7353 30.2466 16.8783C31.109 17.8793 31.941 18.5813 32.5043 19.019C32.539 19.0537 32.552 19.1013 32.526 19.1403ZM33.8173 16.7527C33.7913 16.8047 33.7393 16.8437 33.6786 16.8523C32.3266 17.0083 30.888 16.822 30.3333 16.7353C29.406 15.808 28.405 14.7767 27.6683 13.8753C27.5946 13.7843 27.5903 13.65 27.6596 13.5547C28.7126 12.0813 29.679 10.9157 30.0863 10.452C31.252 10.1963 32.4133 9.97099 33.1976 9.94065C33.2583 9.93632 33.3146 9.96666 33.3493 10.0143C34.359 11.4227 35.0826 12.7747 35.3166 13.2687C34.8486 14.5167 34.294 15.782 33.8173 16.7527Z" fill="white"/>
</svg>
