<svg width="52" height="52" viewBox="0 0 52 52" fill="none" xmlns="http://www.w3.org/2000/svg">
<path d="M24.9123 25.3023L23.1529 25.6577C23.0706 25.675 23.0099 25.714 22.9709 25.7747C22.9319 25.8353 22.9189 25.909 22.9363 25.987L23.2873 27.7117C23.3436 27.9933 23.4693 28.1927 23.6599 28.314C23.7856 28.392 23.9373 28.431 24.1149 28.431C24.2059 28.431 24.2969 28.4223 24.4009 28.4007L25.4973 28.1797L25.3629 27.5297L24.2926 27.7463C24.0759 27.7897 24.0023 27.768 23.9546 27.521L23.9156 27.3347L25.1506 27.0833L25.0206 26.4377L23.7856 26.689L23.6903 26.2253L25.0423 25.9523L24.9123 25.3023ZM33.2063 27.2523C33.4099 27.43 33.6093 27.612 33.7956 27.8027L34.1683 27.3433C33.9819 27.157 33.7913 26.9793 33.5919 26.806C31.5119 25.012 28.8166 24.0197 26.0043 24.0197C23.1919 24.0197 20.4966 25.0077 18.4166 26.806C18.2173 26.9793 18.0223 27.157 17.8403 27.3433L18.2129 27.8027C18.3993 27.612 18.5986 27.43 18.8023 27.2523C20.7783 25.5493 23.3349 24.609 26.0086 24.609C28.6736 24.609 31.2303 25.5493 33.2063 27.2523ZM28.3269 26.247L29.3799 26.52L29.5446 25.8787L28.4613 25.597C27.8676 25.4453 27.4603 25.6663 27.3173 26.221L26.8753 27.9283C26.8536 28.0063 26.8623 28.08 26.9013 28.145C26.9359 28.2057 26.9966 28.249 27.0789 28.2707L27.4819 28.3747L27.7679 27.2697L28.9856 27.586L29.1503 26.949L27.9326 26.6327L27.9803 26.4507C28.0409 26.208 28.1146 26.1907 28.3269 26.247ZM31.5293 30.6063L32.3613 27.7507C32.3959 27.651 32.4176 27.5037 32.2486 27.3737L32.1403 27.2913C31.9713 27.1613 31.8413 27.2177 31.7459 27.2783L29.2456 28.899L29.8999 29.2673L31.4946 28.236L31.2216 29.1633L30.9789 28.9813L30.5629 29.2803L31.0829 29.666L30.9616 30.082L31.5293 30.6063ZM25.9999 28.912C23.9503 28.912 22.0869 29.8307 20.9516 31.187L21.3113 31.6333C22.3426 30.3507 24.0976 29.4667 25.9999 29.4667C27.9023 29.4667 29.6573 30.3507 30.6886 31.6333L31.0483 31.187C29.9129 29.8307 28.0496 28.912 25.9999 28.912ZM22.1519 28.86C22.1866 28.548 22.0913 28.2577 21.8616 27.9717L20.7653 26.624L20.2236 27.066L21.2289 28.3053C21.4023 28.522 21.4543 28.639 21.4369 28.8167C21.4239 28.9553 21.3416 29.0983 21.2029 29.2067C21.0686 29.315 20.9126 29.3713 20.7739 29.354C20.6006 29.3323 20.4923 29.263 20.3189 29.0463L19.3136 27.807L18.7633 28.2447L19.8596 29.5923C20.0936 29.8783 20.3579 30.03 20.6699 30.0603C20.7089 30.0647 20.7436 30.0647 20.7783 30.0647C21.0816 30.069 21.3633 29.9607 21.6363 29.7397C21.9439 29.4927 22.1086 29.2023 22.1519 28.86ZM20.4273 33.2887C20.7523 33.2887 20.9949 33.4187 21.1379 33.5313C21.2029 33.579 21.2723 33.605 21.3373 33.605C21.4976 33.605 21.6016 33.4663 21.6016 33.332C21.6016 33.254 21.5626 33.176 21.4976 33.1197C21.2939 32.9507 20.8909 32.7513 20.4273 32.7513C19.4783 32.7513 18.7069 33.5097 18.7069 34.437C18.7069 35.3687 19.4783 36.1227 20.4273 36.1227C21.3719 36.1227 22.1389 35.3643 22.1389 34.437C22.1389 34.177 22.0783 33.9257 21.9569 33.6873L21.9353 33.644L21.4283 33.891L21.4499 33.9387C21.5236 34.086 21.5626 34.2593 21.5626 34.4413C21.5626 35.087 21.0643 35.594 20.4229 35.594C19.7816 35.594 19.2789 35.087 19.2789 34.4413C19.2789 33.7957 19.7859 33.2887 20.4273 33.2887ZM26.8319 36.0967C26.9879 36.0967 27.1093 35.9753 27.1093 35.8237V34.0253C27.1093 33.3277 26.5416 32.76 25.8439 32.76C25.4626 32.76 25.0943 32.9463 24.8646 33.2453C24.6263 32.942 24.2623 32.76 23.8766 32.76C23.1789 32.76 22.6113 33.3277 22.6113 34.0253V36.062H23.1659V34.0253C23.1659 33.6223 23.4823 33.2973 23.8766 33.2973C24.2623 33.2973 24.5873 33.631 24.5873 34.0253L24.5829 35.3513C24.5829 35.503 24.7043 35.6243 24.8603 35.6243C25.0163 35.6243 25.1376 35.503 25.1376 35.3513V34.0253C25.1376 33.6223 25.4539 33.2973 25.8483 33.2973C26.2339 33.2973 26.5589 33.631 26.5589 34.0253V35.8237C26.5546 35.9797 26.6759 36.0967 26.8319 36.0967ZM29.3019 32.76C28.3529 32.76 27.5816 33.514 27.5816 34.4413C27.5816 35.373 28.3529 36.127 29.3019 36.127C29.8609 36.127 30.3809 35.8323 30.6973 35.3383L30.7233 35.295L30.2466 34.9917L30.2206 35.0393C30.0429 35.373 29.6833 35.5897 29.3019 35.5897C28.6693 35.5897 28.1579 35.074 28.1579 34.437C28.1579 33.8043 28.6736 33.293 29.3019 33.293C29.8046 33.293 30.2293 33.6483 30.3506 34.1683H29.2716C29.1243 34.1683 29.0116 34.281 29.0116 34.4327C29.0116 34.5757 29.1243 34.6927 29.2716 34.6927H30.9573V34.4413C30.9573 33.514 30.2119 32.76 29.3019 32.76ZM35.7413 31.5987C35.6373 31.5987 35.5463 31.6637 35.4986 31.772L34.9526 33.1197H35.5246L35.9926 31.9713C36.0056 31.9367 36.0143 31.889 36.0143 31.8543C36.0143 31.7113 35.8929 31.5987 35.7413 31.5987ZM17.1513 35.217L16.4146 33.5877C16.3669 33.4967 16.2759 33.436 16.1763 33.436C16.0723 33.436 15.9813 33.488 15.9423 33.5703L15.2099 35.217L14.2306 32.825H13.6066L14.9759 35.9883C15.0106 36.0707 15.1103 36.1313 15.2099 36.1313C15.2966 36.1313 15.4093 36.088 15.4439 35.9883L16.1719 34.307L16.9129 35.9883C16.9476 36.062 17.0516 36.127 17.1426 36.127C17.2509 36.127 17.3376 36.075 17.3766 35.984L18.7459 32.8207H18.1133L17.1513 35.217ZM37.1323 33.2757C37.5006 33.2757 37.7173 33.3927 37.8126 33.462C37.8559 33.4923 37.9123 33.514 37.9643 33.514C38.1073 33.514 38.2243 33.4013 38.2243 33.2627C38.2243 33.176 38.1853 33.098 38.1203 33.0503C37.9079 32.8987 37.6739 32.76 37.1323 32.76C36.3999 32.76 35.8669 33.1673 35.8669 33.735C35.8669 34.32 36.2916 34.7013 36.9503 34.7013H37.3229C37.5526 34.7013 37.8299 34.775 37.8299 35.1303C37.8299 35.4163 37.5483 35.6113 37.1453 35.6113C36.7726 35.6113 36.4606 35.5073 36.1963 35.2907L36.1616 35.2603L35.7933 35.6547L35.8366 35.6893C36.1876 35.9753 36.6513 36.1313 37.1496 36.1313C37.8993 36.1313 38.4019 35.7283 38.4019 35.1303C38.4019 34.5627 37.9686 34.1813 37.3273 34.1813H36.9546C36.6339 34.1813 36.4389 34.0123 36.4389 33.7307C36.4389 33.462 36.7163 33.2757 37.1323 33.2757ZM34.1423 34.385V35.3253C34.1423 35.477 34.2679 35.6027 34.4196 35.6027C34.5713 35.6027 34.6969 35.477 34.6969 35.3253V34.385C34.6969 33.4317 34.0123 32.7643 33.0373 32.7643C32.1186 32.7643 31.4296 33.4663 31.4296 34.3937V36.0663H31.9799V34.3937C31.9799 33.7393 32.4176 33.3017 33.0719 33.3017C33.6743 33.2973 34.1423 33.774 34.1423 34.385ZM15.0583 19.0537L14.2913 15.9337C14.2783 15.8773 14.3086 15.821 14.3606 15.795L15.0886 15.4873C15.5826 16.3323 16.4233 17.1903 16.9909 17.9357C17.0083 17.9573 17.0169 17.9877 17.0126 18.0137C16.9519 18.85 16.8956 19.6993 16.8783 20.5573C17.3679 20.241 17.8143 19.981 18.3299 19.6993C18.3776 19.6733 18.4383 19.682 18.4773 19.7253C19.2659 20.618 20.0849 21.4153 20.9343 22.256C20.5269 21.1727 20.1629 20.228 19.7426 19.1533C19.7209 19.097 19.7426 19.032 19.7989 19.006C20.4359 18.681 21.0383 18.3777 21.6839 18.0527C22.4466 18.642 23.7769 19.604 24.0933 19.8293C24.1366 19.8597 24.1539 19.9117 24.1366 19.9593L23.2396 22.854L25.9349 21.112C25.9739 21.086 26.0259 21.086 26.0649 21.112L28.7603 22.854L27.8633 19.968C27.8503 19.9203 27.8676 19.8683 27.9066 19.838C28.2229 19.6083 29.5533 18.6507 30.3159 18.0613C30.9616 18.3863 31.5639 18.6853 32.2009 19.0147C32.2573 19.0407 32.2789 19.1057 32.2573 19.162C31.8326 20.2323 31.4686 21.1813 31.0656 22.2647C31.9149 21.424 32.7339 20.6223 33.5226 19.734C33.5573 19.6907 33.6179 19.682 33.6699 19.708C34.1856 19.9897 34.6319 20.2497 35.1216 20.566C35.1043 19.708 35.0479 18.863 34.9873 18.0223C34.9873 17.992 34.9916 17.966 35.0089 17.9443C35.5766 17.199 36.4173 16.3453 36.9113 15.496L37.6393 15.8037C37.6913 15.8253 37.7216 15.886 37.7086 15.9423L36.9416 19.0623C36.9416 19.0623 38.2849 16.4883 38.9609 14.5297C40.1136 11.1843 39.9533 10.361 39.9533 10.3047C39.9273 10.3697 39.7149 10.9503 39.3943 11.6827C39.3899 11.297 39.3206 10.465 38.8353 9.31233C38.8309 9.30366 38.8309 9.29066 38.8353 9.282C39.0259 8.41533 39.2729 6.70366 39.2729 6.70366C39.2729 6.70366 38.5449 7.67866 38.1029 8.18566C38.0813 8.21166 38.0379 8.21166 38.0163 8.18566C37.6869 7.839 37.1713 7.44033 36.7769 7.11966C36.3479 6.773 35.7023 6.409 35.2343 6.15766C35.2169 6.149 35.2039 6.12733 35.2039 6.11C35.1649 5.32133 35.1259 4.537 35.0913 3.74833C34.7316 4.35066 34.3633 4.94433 33.9906 5.538C33.9776 5.564 33.9473 5.57266 33.9213 5.564C33.3233 5.33866 32.5563 5.08733 31.9063 4.92266C31.2476 4.758 30.4676 4.59333 29.8393 4.47633C29.8176 4.472 29.8003 4.45466 29.7916 4.433C29.6183 3.822 29.3799 2.98133 29.2023 2.353C28.9076 3.003 28.6086 3.60966 28.2923 4.24233C28.2836 4.264 28.2576 4.277 28.2359 4.277C27.5079 4.21633 26.7279 4.20766 25.9956 4.21633C25.2633 4.212 24.4876 4.22066 23.7553 4.277C23.7293 4.277 23.7076 4.264 23.6989 4.24233C23.3826 3.60966 23.0836 3.003 22.7889 2.353C22.6156 2.98133 22.3773 3.82633 22.1996 4.433C22.1953 4.45466 22.1779 4.472 22.1519 4.47633C21.5236 4.59333 20.7436 4.758 20.0849 4.92266C19.4349 5.08733 18.6679 5.343 18.0699 5.564C18.0439 5.57266 18.0136 5.564 18.0006 5.538C17.6279 4.94433 17.2596 4.35066 16.8999 3.74833C16.8609 4.537 16.8219 5.32133 16.7873 6.11C16.7873 6.13166 16.7743 6.149 16.7569 6.15766C16.2846 6.409 15.6433 6.773 15.2143 7.11966C14.8199 7.436 14.3086 7.839 13.9749 8.18566C13.9489 8.21166 13.9099 8.21166 13.8883 8.18566C13.4419 7.67866 12.7183 6.70366 12.7183 6.70366C12.7183 6.70366 12.9566 8.40666 13.1473 9.27333C13.1516 9.282 13.1516 9.295 13.1473 9.30366C12.6879 10.4 12.5969 11.2147 12.5883 11.6177C12.2763 10.907 12.0726 10.3567 12.0509 10.2917C12.0509 10.348 11.8906 11.1713 13.0433 14.5167C13.7149 16.4797 15.0583 19.0537 15.0583 19.0537ZM12.9566 11.479C13.2036 11.2537 13.4159 11.1453 13.4159 11.1453L14.2133 13.793C14.2133 13.793 14.3173 11.999 14.3866 11.1237C14.3909 11.0847 14.4256 11.0543 14.4646 11.063C14.9196 11.1323 15.8339 11.427 15.8339 11.427C15.8339 11.427 14.8156 9.50733 14.7333 9.321C14.7289 9.31233 14.7289 9.29933 14.7289 9.28633C14.8503 8.58 15.0973 7.90833 15.2576 7.20633C15.6563 7.358 16.0376 7.53566 16.4276 7.70466C16.5403 7.75666 16.6529 7.80433 16.7656 7.852C16.7873 7.86066 16.8003 7.88233 16.8003 7.90833C16.7786 8.736 16.7699 9.854 16.7656 10.6513C17.1296 9.88866 17.5023 9.126 17.8749 8.36766C17.8879 8.34166 17.9226 8.32866 17.9486 8.33733C18.5379 8.567 19.1316 8.78366 19.7296 8.99166C19.4263 8.398 19.0753 7.51833 18.7459 6.903C18.7373 6.88566 18.7373 6.85966 18.7503 6.84233C18.8543 6.682 18.9583 6.53466 19.0623 6.39166C19.4133 5.902 19.7643 5.48166 20.1456 4.99633C20.6179 5.16966 21.1293 5.421 21.5756 5.642C21.6883 5.69833 21.7923 5.75033 21.8789 5.79366C21.9049 5.80666 21.9179 5.83266 21.9093 5.85866C21.7403 6.591 21.5496 7.67433 21.3763 8.37633C22.0046 7.76966 22.6026 7.137 23.2136 6.513C23.2309 6.49566 23.2613 6.49133 23.2829 6.5C24.0066 6.877 24.7129 7.28866 25.4236 7.683C25.0683 6.94633 24.7129 6.214 24.3273 5.49466C24.3143 5.46866 24.3229 5.434 24.3446 5.41666C24.8906 5.03966 25.4409 4.67566 25.9956 4.30733C26.5503 4.67133 27.1006 5.03966 27.6466 5.41666C27.6726 5.434 27.6813 5.46866 27.6639 5.49466C27.2783 6.214 26.9273 6.95066 26.5676 7.683C27.2826 7.28433 27.9846 6.877 28.7083 6.5C28.7299 6.487 28.7603 6.49133 28.7776 6.513C29.3886 7.13266 29.9866 7.76966 30.6149 8.37633C30.4416 7.67433 30.2466 6.591 30.0819 5.85866C30.0776 5.83266 30.0906 5.80666 30.1123 5.79366C30.1989 5.75033 31.3689 5.16966 31.8413 4.99633C32.5303 5.811 33.1283 6.682 33.2323 6.84233C33.2453 6.85966 33.2453 6.88133 33.2366 6.903C32.9116 7.56166 32.5563 8.398 32.2529 8.99166C32.8509 8.78366 33.4446 8.56266 34.0339 8.33733C34.0643 8.32433 34.0946 8.33733 34.1076 8.36766C34.4803 9.126 34.8529 9.88866 35.2169 10.6513C35.2126 9.84966 35.2039 8.736 35.1823 7.90833C35.1823 7.88233 35.1953 7.86066 35.2169 7.852C35.3296 7.80433 36.3219 7.358 36.7249 7.20633C36.8853 7.904 37.1323 8.58 37.2536 9.28633C37.2536 9.29933 37.2536 9.308 37.2493 9.321C37.1669 9.50733 36.1486 11.427 36.1486 11.427C36.1486 11.427 37.0629 11.1323 37.5179 11.063C37.5569 11.0587 37.5916 11.0847 37.5959 11.1237C37.6653 11.9947 37.7693 13.793 37.7693 13.793L38.5666 11.1453C38.5666 11.1453 38.7746 11.2537 39.0259 11.479C39.1906 11.6263 39.2816 11.7433 39.3293 11.817C38.9783 12.6013 38.5059 13.533 38.0076 14.2047C37.7519 14.5513 37.4963 14.8373 37.1929 15.106C36.9589 15.314 36.6989 15.496 36.4259 15.6477C35.8843 15.951 35.2473 16.237 34.9656 16.3627C34.8963 16.393 34.8139 16.3497 34.8009 16.276L34.4196 14.079L33.1889 17.03C33.1759 17.0647 33.1456 17.0863 33.1153 17.0993C32.7946 17.1947 31.1263 17.6757 30.2813 17.8317C30.1729 17.8533 28.0323 18.1133 27.2739 18.1697C27.2219 18.174 27.1743 18.1437 27.1569 18.096C26.7669 17.1253 25.9999 15.2447 25.9999 15.2447C25.9999 15.2447 25.2329 17.1253 24.8429 18.096C24.8256 18.1437 24.7779 18.174 24.7259 18.1697C23.9676 18.1133 21.8269 17.849 21.7186 17.8317C20.8736 17.6713 19.2053 17.1903 18.8846 17.0993C18.8499 17.0907 18.8239 17.0647 18.8109 17.03L17.5889 14.079L17.2076 16.276C17.1946 16.3497 17.1123 16.393 17.0429 16.3627C16.6919 16.2067 15.6909 15.7517 15.2186 15.431C14.7723 15.1277 14.3649 14.6943 14.0009 14.2047C13.4983 13.5243 13.0216 12.584 12.6706 11.7953C12.7183 11.7217 12.8093 11.6133 12.9566 11.479ZM19.2226 42.5447C19.1056 42.4017 19.0709 42.2977 18.9886 42.133C18.9756 42.1027 18.9583 42.0723 18.9453 42.042L17.2813 38.051H16.2369L14.5556 42.0897C14.4559 42.2803 14.4256 42.3887 14.2999 42.5447C14.1699 42.705 14.0096 42.7787 14.0009 42.7787L14.0096 42.8047C14.0789 42.8047 14.1613 42.8047 14.1613 42.8047H15.0843C15.2489 42.8047 15.4093 42.7007 15.4613 42.5577L15.8036 41.6737H17.7103L18.0526 42.5577C18.1046 42.7007 18.2606 42.8047 18.4296 42.8047C18.4296 42.8047 19.4349 42.8047 19.5043 42.8047L19.5129 42.7787C19.5129 42.783 19.3483 42.705 19.2226 42.5447ZM16.1026 40.911C16.1026 40.911 16.7526 39.221 16.7569 39.2037C16.7613 39.2167 17.4113 40.911 17.4113 40.911H16.1026ZM30.4199 38.48C30.0169 38.155 29.5013 38.051 28.9293 38.051H26.8666L26.8579 38.0813C27.0833 38.2113 27.2393 38.4497 27.2436 38.7227C27.2436 38.7443 27.2479 38.766 27.2479 38.7877V42.8003H28.7126L28.7213 42.7743C28.5696 42.679 28.3356 42.471 28.3356 42.0463V41.1797H28.9293C29.6963 41.184 30.4676 40.9413 30.7796 40.2307C31.0179 39.6673 30.9269 38.8873 30.4199 38.48ZM29.7786 39.9187C29.6486 40.261 29.2933 40.3607 28.9336 40.3607H28.3356V38.8743H28.9336C29.5403 38.8743 30.0126 39.338 29.7786 39.9187ZM32.9506 42.081V38.051H31.4859L31.4773 38.0813C31.7026 38.2113 31.8673 38.4627 31.8673 38.7357C31.8673 38.7573 31.8673 42.8003 31.8673 42.8003H33.3233L33.3319 42.7743C33.1846 42.6877 32.9593 42.4883 32.9506 42.081ZM13.0736 42.055V38.0553H11.6133L11.6046 38.0857C11.8299 38.2157 11.9903 38.454 11.9946 38.727C11.9946 38.753 11.9946 40.027 11.9946 40.027H9.8756V38.0467H8.41093L8.39793 38.0813C8.62327 38.2113 8.7836 38.4583 8.78793 38.7357C8.78793 38.7617 8.78793 42.8003 8.78793 42.8003H10.2526L10.2613 42.7743C10.1096 42.679 9.8756 42.471 9.8756 42.0463V40.7897H11.9946V42.796H13.4506L13.4593 42.77C13.3033 42.6877 13.0736 42.4797 13.0736 42.055ZM3.10693 40.4387C3.10693 41.3617 3.5836 42.1417 4.47193 42.5663C4.8966 42.7657 5.35593 42.8653 5.81093 42.8653C6.4566 42.8653 7.11527 42.6573 7.60493 42.2717V41.1753L7.56593 41.1623C7.2626 41.6823 6.66027 42.0377 5.96693 42.0377C4.75793 42.0377 4.1556 41.1753 4.1556 40.417C4.1556 40.1483 4.22927 39.8753 4.3636 39.6543C4.66693 39.13 5.26927 38.7703 5.97127 38.7703C6.6776 38.7703 7.28427 39.1343 7.58327 39.6673L7.60927 39.6587V38.5753C6.77727 37.921 5.4946 37.7997 4.46327 38.2937C3.57927 38.7183 3.10693 39.5373 3.10693 40.4387ZM39.0823 40.4387C39.0823 40.092 39.0216 39.767 38.8959 39.4723C38.7746 39.1777 38.5969 38.9177 38.3759 38.701C38.1549 38.4843 37.8819 38.3153 37.5699 38.194C37.2579 38.0727 36.9069 38.012 36.5299 38.012C36.1529 38.012 35.8019 38.0727 35.4899 38.194C35.1779 38.3153 34.9049 38.4843 34.6796 38.701C34.4543 38.9177 34.2809 39.1777 34.1553 39.4723C34.0339 39.767 33.9689 40.092 33.9689 40.4387C33.9689 40.7853 34.0296 41.1103 34.1553 41.405C34.2766 41.6997 34.4543 41.9597 34.6796 42.1763C34.9049 42.393 35.1779 42.562 35.4899 42.6833C35.8019 42.8047 36.1529 42.8653 36.5299 42.8653C36.9069 42.8653 37.2579 42.8047 37.5699 42.6833C37.8819 42.562 38.1549 42.393 38.3759 42.1763C38.5969 41.9597 38.7746 41.6997 38.8959 41.405C39.0216 41.1103 39.0823 40.7853 39.0823 40.4387ZM37.8863 41.0887C37.8213 41.275 37.7216 41.4397 37.6003 41.5697C37.4746 41.6997 37.3229 41.7993 37.1453 41.8687C36.9676 41.938 36.7596 41.9727 36.5343 41.9727C36.3089 41.9727 36.1009 41.938 35.9233 41.8687C35.7456 41.7993 35.5896 41.6997 35.4683 41.5697C35.3426 41.4397 35.2473 41.2793 35.1779 41.0887C35.1086 40.898 35.0739 40.677 35.0739 40.4387C35.0739 40.196 35.1086 39.9793 35.1779 39.7887C35.2473 39.598 35.3426 39.4377 35.4683 39.3077C35.5939 39.1777 35.7456 39.078 35.9233 39.0087C36.1053 38.9393 36.3089 38.9047 36.5343 38.9047C36.7596 38.9047 36.9676 38.9393 37.1453 39.0087C37.3229 39.078 37.4746 39.1777 37.6003 39.3077C37.7259 39.4377 37.8213 39.6023 37.8863 39.7887C37.9556 39.9793 37.9859 40.2003 37.9859 40.4387C37.9859 40.6813 37.9513 40.898 37.8863 41.0887ZM25.8223 42.055V38.051H25.0553C24.8949 38.051 24.7519 38.077 24.6783 38.2287L23.2353 40.8893C23.1963 40.9587 23.1573 41.0323 23.1226 41.1103C23.1139 41.1277 23.1096 41.1407 23.1009 41.158C23.0966 41.145 23.0879 41.1277 23.0836 41.1147C23.0489 41.041 23.0143 40.9673 22.9753 40.898L21.5193 38.2287C21.4413 38.077 21.3026 38.051 21.1379 38.051H19.9896L19.9809 38.0813C20.2063 38.2113 20.3623 38.4497 20.3666 38.7227C20.3666 38.7573 20.3709 42.8003 20.3709 42.8003H21.7143L21.7229 42.7743C21.5713 42.679 21.3373 42.471 21.3373 42.0463V39.7497C21.3373 39.7453 21.3373 39.741 21.3373 39.7367L22.6719 42.25H23.5386L24.8559 39.7453V41.834V42.8003H26.1993L26.2079 42.7743C26.0519 42.6877 25.8223 42.4797 25.8223 42.055ZM42.8826 38.0857C43.1079 38.2157 43.2683 38.4583 43.2726 38.7313C43.2726 38.7573 43.2726 41.0843 43.2726 41.0843L40.8893 38.22C40.7939 38.0987 40.6899 38.0553 40.5383 38.0553H39.5849L39.5763 38.0857C39.8016 38.2157 39.9619 38.4583 39.9663 38.7313C39.9663 38.7573 39.9663 42.8047 39.9663 42.8047H41.3096L41.3183 42.7787C41.1666 42.6833 40.9326 42.4753 40.9326 42.0507C40.9326 42.0507 40.9326 39.8147 40.9283 39.767L43.3116 42.627C43.4199 42.757 43.5239 42.8003 43.6929 42.8047H44.2433V38.051H42.8956L42.8826 38.0857ZM48.1303 40.1353C47.9353 40.053 47.7186 40.001 47.5063 39.949C47.2073 39.8753 46.9256 39.806 46.7003 39.6673C46.3839 39.481 46.5139 39.0693 46.8216 38.9393C47.0383 38.8483 47.3069 38.8223 47.5886 38.8743C48.0046 38.948 48.3686 39.1733 48.5766 39.4897L48.6936 39.663L48.7283 39.6543L48.7239 38.506C48.7239 38.506 48.6459 38.441 48.6329 38.4323C47.9266 37.882 46.7653 37.856 46.0329 38.376C45.4826 38.766 45.3309 39.3727 45.6126 40.0357C45.8466 40.5123 46.3493 40.677 46.8389 40.7897C46.9386 40.8113 47.0383 40.833 47.1379 40.8503C47.3416 40.8893 47.8313 41.0193 47.8703 41.366C47.9093 41.73 47.6363 41.9077 47.4369 41.9813C46.9256 42.159 46.1933 41.9033 45.7729 41.4787C45.6126 41.314 45.5259 41.119 45.4826 41.002L45.4523 41.0107V42.3193C45.7079 42.5317 46.2539 42.8653 47.0383 42.8653C47.6146 42.8653 48.1909 42.6703 48.5333 42.2587C48.8193 41.9163 48.8973 41.6303 48.8799 41.2447C48.8713 40.7593 48.5766 40.3217 48.1303 40.1353ZM41.7213 45.3267C41.7213 45.1663 41.6259 45.097 41.4353 45.097H41.1276V45.903H41.2489V45.552H41.3919L41.6043 45.903H41.7386L41.5133 45.5477C41.6303 45.5347 41.7213 45.474 41.7213 45.3267ZM41.2533 45.4523V45.2053H41.4179C41.5046 45.2053 41.5956 45.2227 41.5956 45.3223C41.5956 45.448 41.5046 45.4523 41.4006 45.4523H41.2533ZM41.4006 44.8023C41.0193 44.8023 40.6899 45.097 40.6899 45.4957C40.6899 45.8987 41.0149 46.1977 41.4006 46.1977C41.7819 46.1977 42.1069 45.903 42.1069 45.4957C42.1069 45.1013 41.7819 44.8023 41.4006 44.8023ZM41.4006 46.085C41.0799 46.085 40.8329 45.838 40.8329 45.5C40.8329 45.1707 41.0843 44.9193 41.4006 44.9193C41.7169 44.9193 41.9683 45.1707 41.9683 45.5C41.9683 45.838 41.7169 46.085 41.4006 46.085ZM25.4323 49.3307C25.3153 49.1877 25.2806 49.088 25.1983 48.9233C25.1853 48.893 25.1679 48.8627 25.1549 48.8323L23.4953 44.85H22.4553L20.7783 48.8757C20.6786 49.0663 20.6483 49.1747 20.5226 49.3307C20.3926 49.491 20.2323 49.5647 20.2236 49.5647L20.2323 49.5907C20.3016 49.5907 20.3839 49.5907 20.3839 49.5907H21.3026C21.4673 49.5907 21.6276 49.4867 21.6796 49.3437L22.0219 48.4597H23.9243L24.2666 49.3437C24.3186 49.4867 24.4746 49.5907 24.6436 49.5907C24.6436 49.5907 25.6489 49.5907 25.7183 49.5907L25.7269 49.5647C25.7226 49.5647 25.5579 49.491 25.4323 49.3307ZM22.3253 47.7013C22.3253 47.7013 22.9753 46.0157 22.9796 46.0027C22.9839 46.0157 23.6339 47.7013 23.6339 47.7013H22.3253ZM34.0859 44.8847C34.3113 45.0147 34.4716 45.266 34.4759 45.539C34.4759 45.6387 34.4759 47.255 34.4759 47.6537C34.4759 49.1313 32.5043 49.127 32.5043 47.6797V44.8587H31.0743L31.0656 44.889C31.2909 45.019 31.4513 45.2703 31.4556 45.5433C31.4556 45.5477 31.4599 47.658 31.4599 47.658C31.4599 47.658 31.4469 48.0437 31.6073 48.4683C31.6983 48.711 31.8369 48.919 32.0103 49.0967C32.1836 49.27 32.4003 49.4087 32.6516 49.5083C32.8986 49.6037 33.1846 49.6557 33.4923 49.6557C33.7999 49.6557 34.0859 49.608 34.3329 49.5083C34.5843 49.4087 34.7966 49.2743 34.9743 49.0967C35.1519 48.9233 35.2863 48.711 35.3816 48.4683C35.4769 48.23 35.5203 47.9657 35.5203 47.684V44.8543H34.0903L34.0859 44.8847ZM28.8903 47.216C29.1156 47.346 29.2759 47.5973 29.2803 47.8703C29.2803 47.8747 29.2803 48.3253 29.2803 48.7283C29.0809 48.7977 28.8686 48.8323 28.6433 48.8323C27.4386 48.8323 26.8363 47.97 26.8363 47.216C26.8363 46.9473 26.9099 46.6787 27.0443 46.4577C27.3433 45.9333 27.9499 45.578 28.6433 45.578C29.3453 45.578 29.9519 45.942 30.2509 46.4707L30.2769 46.462V45.383C29.4493 44.733 28.1666 44.6117 27.1396 45.1013C26.2643 45.5173 25.7919 46.3103 25.7919 47.2073C25.7919 48.1303 26.2686 48.932 27.1526 49.3567C27.5729 49.556 28.0323 49.6557 28.4873 49.6557C29.1286 49.6557 29.7873 49.4607 30.2769 49.0793V47.19H28.9033L28.8903 47.216ZM14.8286 48.7413C14.8243 48.7413 14.1136 48.7413 13.5286 48.7413V44.85H12.0986L12.0899 44.8803C12.3153 45.0103 12.4756 45.2617 12.4799 45.5347C12.4799 45.539 12.4799 49.023 12.4799 49.5907H15.5133V48.36L15.4829 48.3513C15.3529 48.581 15.1016 48.7413 14.8286 48.7413ZM16.0853 44.8847C16.3106 45.0147 16.4709 45.266 16.4753 45.539C16.4753 45.5433 16.4753 49.114 16.4753 49.595H19.5953V48.36L19.5649 48.3513C19.4349 48.5767 19.1836 48.737 18.9106 48.7413C18.9063 48.7413 18.1739 48.7413 17.5239 48.7413V47.6233H19.1879V46.8043H17.5239V45.6993H19.6299V44.85H16.0983L16.0853 44.8847ZM36.3653 44.8847C36.5906 45.0147 36.7509 45.266 36.7553 45.539C36.7553 45.5433 36.7553 49.114 36.7553 49.595H39.8753V48.36L39.8449 48.3513C39.7149 48.5767 39.4636 48.737 39.1906 48.7413C39.1863 48.7413 38.4539 48.7413 37.8039 48.7413V47.6233H39.4679V46.8043H37.8039V45.6993H39.9099V44.85H36.3783L36.3653 44.8847Z" fill="black"/>
</svg>
