<svg width="148" height="148" viewBox="0 0 148 148" fill="none" xmlns="http://www.w3.org/2000/svg">
<g clip-path="url(#clip0_510_265)">
<path d="M77.9866 102.318V100.702H72.5637V108.2H74.4959V105.828L74.2812 105.207H77.0404V103.679H74.4959V102.318H77.9866Z" fill="#150335"/>
<path d="M80.3482 107.834C79.7121 107.523 79.2191 107.078 78.8693 106.505C78.5194 105.924 78.3445 105.247 78.3445 104.467C78.3445 103.687 78.5194 103.01 78.8613 102.429C79.2112 101.848 79.7042 101.402 80.3403 101.092C80.9764 100.781 81.7159 100.622 82.5587 100.622C83.1153 100.622 83.6083 100.678 84.0456 100.781C84.483 100.885 84.8805 101.052 85.2542 101.275V103.05C84.9282 102.803 84.5625 102.628 84.149 102.517C83.7355 102.405 83.2664 102.35 82.7337 102.35C81.9703 102.35 81.3899 102.541 80.9764 102.915C80.5629 103.289 80.3562 103.814 80.3562 104.483C80.3562 105.151 80.5629 105.677 80.9843 106.051C81.3978 106.433 81.9862 106.616 82.7416 106.616C83.2743 106.616 83.7514 106.552 84.1729 106.433C84.5943 106.314 84.9839 106.123 85.3497 105.86V107.619C84.6499 108.073 83.7196 108.304 82.5746 108.304C81.7318 108.304 80.9923 108.152 80.3562 107.842" fill="#150335"/>
<path d="M66.815 105.199L67.7851 102.676L68.7472 105.199H66.823H66.815ZM71.9119 108.2L68.7631 100.702H66.1471L66.4095 101.625L63.6504 108.208H65.7019L66.0756 107.285L65.8609 106.672H69.2402L69.8684 108.208H71.9119V108.2Z" fill="#150335"/>
<path d="M49.9818 120.944H47.1113V116.733H43.8036V120.944H40.9331V110.62H43.8036V114.449H47.1113V110.62H49.9818V120.944Z" fill="#150335"/>
<path d="M32.7591 120.451C31.8765 120.021 31.1927 119.408 30.7156 118.612C30.2385 117.808 30 116.869 30 115.794C30 114.719 30.2385 113.78 30.7156 112.976C31.1927 112.172 31.8765 111.559 32.7591 111.129C33.6417 110.7 34.6595 110.477 35.8284 110.477C36.5917 110.477 37.2755 110.548 37.8798 110.692C38.4841 110.835 39.0407 111.066 39.5496 111.376V113.82C39.1044 113.478 38.5955 113.231 38.0309 113.08C37.4664 112.928 36.8143 112.849 36.0828 112.849C35.0332 112.849 34.2222 113.111 33.6497 113.629C33.0772 114.146 32.7909 114.871 32.7909 115.794C32.7909 116.717 33.0772 117.442 33.6576 117.967C34.2301 118.492 35.0412 118.755 36.0828 118.755C36.8143 118.755 37.4743 118.675 38.0548 118.508C38.6352 118.341 39.1759 118.078 39.6769 117.72V120.156C38.7068 120.785 37.4266 121.103 35.8363 121.103C34.6754 121.103 33.6497 120.888 32.7671 120.466" fill="#150335"/>
<path d="M55.1345 116.821L56.4703 113.35L57.7902 116.821H55.1345ZM62.1476 120.944L57.8141 110.628H54.2201L54.5779 111.894L50.7771 120.944H53.5998L54.1167 119.678L53.8225 118.835H58.4661L59.3328 120.952H62.1396L62.1476 120.944Z" fill="#150335"/>
<path d="M79.8473 115.213C79.561 115.412 79.1476 115.515 78.6228 115.515H77.12V112.825H78.6228C79.1635 112.825 79.569 112.92 79.8552 113.111C80.1415 113.302 80.2767 113.653 80.2767 114.17C80.2767 114.687 80.1335 115.014 79.8473 115.213ZM82.7337 116.136C83.0835 115.603 83.2425 114.942 83.2425 114.17C83.2425 113.024 82.8927 112.148 82.2089 111.535C81.5171 110.922 80.5629 110.62 79.3384 110.62H74.655V120.944H77.3744V118.572L77.0802 117.72H79.41C80.0063 117.72 80.7458 117.617 81.3104 117.346C82.0419 117.004 82.5349 116.447 82.7416 116.136" fill="#150335"/>
<path d="M87.4171 110.628H83.9741L84.324 111.894L84.3319 119.678L83.9821 120.944H87.4091L87.0593 119.678L87.0672 111.894L87.4171 110.628Z" fill="#150335"/>
<path d="M88.1406 115.73C88.1406 112.841 90.6453 110.493 93.81 110.493C96.9746 110.493 99.4873 112.841 99.4873 115.73C99.4873 118.62 96.9985 120.968 93.81 120.968C90.6215 120.968 88.1406 118.636 88.1406 115.73ZM96.8315 115.73C96.8315 114.162 95.5275 112.881 93.81 112.881C92.0925 112.881 90.8202 114.162 90.8202 115.73C90.8202 117.298 92.0686 118.564 93.81 118.564C95.5513 118.564 96.8315 117.282 96.8315 115.73Z" fill="#150335"/>
<path d="M62.1476 110.628H64.7L67.7295 114.489L70.8464 110.628H73.2875V120.952H70.6715V114.409L67.7056 118.071L64.7716 114.425V120.96H62.1396V110.636L62.1476 110.628Z" fill="#150335"/>
<path d="M109.697 120.872L109.689 110.628H106.961V116.725L103.002 110.628H100.306L100.314 120.872H103.041L103.033 114.759L107.017 120.872H109.697Z" fill="#150335"/>
<path d="M111.367 118.763L110.373 120.872H114.881C116.265 120.872 117.298 120.61 117.998 120.1C118.738 119.551 119.151 118.62 118.96 117.72C118.523 115.611 115.947 115.229 114.237 114.218C113.951 114.051 113.808 113.828 113.808 113.557C113.808 113.286 113.927 113.072 114.205 112.928C114.484 112.785 114.889 112.705 115.358 112.705H117.823L118.587 110.62H114.865C114.094 110.62 113.418 110.707 112.822 110.946C112.233 111.193 111.772 111.535 111.438 111.973C111.104 112.419 110.945 112.92 110.945 113.485C110.945 114.17 111.16 114.751 111.597 115.221C112.058 115.722 112.766 116.017 113.378 116.287C114.182 116.638 115.12 116.916 115.835 117.426C116.002 117.545 116.153 117.736 116.153 117.935C116.153 118.166 116.09 118.325 115.939 118.445C115.438 118.827 114.762 118.755 114.158 118.755H111.367V118.763Z" fill="#150335"/>
<path d="M49.3378 132.112V123.921H46.5627V134.46H46.6741H49.3378H54.1961V132.112H49.3378Z" fill="#150335"/>
<path d="M55.1343 134.46H62.7438V132.207H57.8457V130.233H61.4238V128.14H57.8457V126.158H62.7438V123.921H55.1343V134.46Z" fill="#150335"/>
<path d="M67.1808 130.249L68.5405 126.707L69.8843 130.249H67.1808ZM74.3371 134.46L69.9161 123.929H66.2425L66.6083 125.226L62.728 134.468H65.6064L66.1312 133.17L65.8291 132.303H70.5761L71.4666 134.46H74.3291H74.3371Z" fill="#150335"/>
<path d="M88.9359 134.619C90.2479 134.619 91.7427 134.245 92.5538 133.401C93.3648 132.566 93.7624 131.435 93.7624 130.026V123.921H91.0668V130.058C91.0668 130.759 90.876 131.292 90.5023 131.65C90.1286 132.008 89.6038 132.191 88.9359 132.191C88.268 132.191 87.7432 132.008 87.3694 131.65C86.9957 131.292 86.8049 130.759 86.8049 130.058V123.921H84.1094V130.026C84.1094 131.427 84.5069 132.558 85.318 133.401C86.137 134.245 87.6239 134.619 88.9359 134.619Z" fill="#150335"/>
<path d="M94.8276 134.46H102.429V132.215H97.5391V130.233H101.109V128.14H97.5391V126.158H102.429V123.929H94.8276V134.46Z" fill="#150335"/>
<path d="M83.4017 129.477H80.722V131.658L81.3422 132.024C81.3422 132.024 81.0958 132.12 80.6982 132.184C80.3881 132.223 80.0541 132.239 79.7043 132.239C78.6547 132.239 77.8357 131.977 77.2552 131.443C76.6748 130.91 76.3806 130.178 76.3806 129.238C76.3806 128.299 76.6668 127.567 77.2473 127.041C77.8198 126.516 78.6388 126.245 79.7043 126.245C80.4437 126.245 81.1037 126.325 81.6762 126.484C82.2487 126.643 82.7576 126.89 83.2108 127.24V124.749C82.694 124.43 82.1294 124.2 81.5251 124.056C80.9208 123.905 80.2291 123.833 79.4578 123.833C78.281 123.833 77.2473 124.056 76.3567 124.494C75.4662 124.932 74.7744 125.561 74.2973 126.373C73.8123 127.185 73.5737 128.14 73.5737 129.238C73.5737 130.337 73.8202 131.292 74.3053 132.104C74.7903 132.916 75.4741 133.545 76.3726 133.975C77.2632 134.412 78.2969 134.627 79.4737 134.627C81.0799 134.627 82.4316 134.293 83.4096 133.648V133.624V129.477H83.4017Z" fill="#150335"/>
<path d="M75.331 137.485H71.8005L72.1663 138.774V146.703L71.8085 148H75.323L74.9652 146.703L74.9731 138.774L75.331 137.485Z" fill="#150335"/>
<path d="M66.2583 145.66V137.525H63.5071V148H63.6104H66.2583H71.0927V145.66H66.2583Z" fill="#150335"/>
<path d="M54.9834 148H62.5452V145.763H57.6789V143.797H61.2332V141.712H57.6789V139.746H62.5452V137.517H54.9834V148Z" fill="#150335"/>
<path d="M85.4611 137.485H76.1182V139.921H79.3703V148H82.2646V139.921H85.4611V137.485Z" fill="#150335"/>
<path d="M86.4231 148H94.0167V145.755H89.1266V143.781H92.6968V141.688H89.1266V139.714H94.0167V137.485H86.4231V148Z" fill="#150335"/>
<path d="M97.2529 139.22H96.9507V137.485H97.2211L97.7856 138.257L98.3184 137.525H98.6205V139.228H98.2866V138.058L97.8174 138.695H97.7538L97.2529 138.058V139.228V139.22ZM96.1158 137.819V139.22H95.7819V137.819H95.3127V137.485H96.6168V137.819H96.1158Z" fill="#150335"/>
<path d="M87.9498 84.3759H74.4961H61.0423L56.836 92.5508L55.6433 92.9567V94.4373H74.4961H93.3568V92.9567L92.1561 92.5508L87.9498 84.3759Z" fill="#150335"/>
<path d="M65.4154 81.4943H83.5844L80.4674 76.1452L77.4379 76.8934C86.5741 69.3871 78.0979 54.9636 74.4959 51.2861C70.9019 54.9636 62.4177 69.3871 71.5539 76.8934L68.5244 76.1452L65.4075 81.4943H65.4154Z" fill="#150335"/>
<path d="M68.0792 74.2905C66.632 71.7115 62.5291 61.8411 74.4959 48.0624C86.4628 61.8411 82.3599 71.7115 80.9127 74.2905C84.4988 72.1971 110.198 47.3778 108.52 10.8893C108.496 10.0614 108.44 8.42962 108.289 7.82466C107.454 4.44963 93.5077 0 74.4959 0C55.4841 0 41.5454 4.44963 40.7025 7.82466C40.5514 8.42962 40.4958 10.0535 40.4719 10.8893C38.7942 47.3778 64.4931 72.205 68.0792 74.2905ZM67.3158 28.3296C67.3158 28.3296 68.6199 17.902 74.4959 8.08734C80.372 17.894 81.6761 28.3296 81.6761 28.3296C81.6761 28.3296 78.8215 17.5438 74.4959 11.7489C70.1704 17.5438 67.3158 28.3296 67.3158 28.3296ZM44.6305 14.8135C44.1057 12.0355 41.442 10.937 40.6786 10.6743C42.7142 6.55107 57.2494 3.62975 74.488 3.62975C91.7266 3.62975 106.27 6.55107 108.297 10.6743C107.542 10.937 104.878 12.0355 104.345 14.8135C104.345 14.8135 106.508 45.2286 87.5998 61.2839C87.5998 61.2839 86.3992 65.7097 84.5783 69.4111L84.5386 69.3872C84.9997 68.2409 85.5007 66.4818 85.612 64.1256C86.1606 52.4961 78.3444 32.6598 76.1578 28.0669C76.1816 28.051 76.1737 28.0669 76.1896 28.051C77.8514 30.9086 81.2069 36.9025 84.1489 44.5043C83.8786 35.414 85.4371 21.3726 93.9133 9.81466C93.9371 9.83058 93.9292 9.82262 93.9451 9.83854C92.7683 11.9002 86.7331 23.681 87.7748 41.6068C90.351 28.2102 95.5274 15.8006 103.98 12.9191C102.421 7.80078 81.8351 6.44759 74.4641 6.44759C67.0932 6.44759 46.507 7.80078 44.9485 12.9191C53.4009 15.8085 58.5772 28.2102 61.1535 41.6068C62.1951 23.681 56.1521 11.9002 54.9832 9.83854C55.0071 9.82262 54.9991 9.83058 55.023 9.81466C63.4992 21.3726 65.0576 35.4219 64.7873 44.5043C67.7293 36.9104 71.0848 30.9166 72.7466 28.051C72.7705 28.0669 72.7625 28.051 72.7784 28.0669C70.5918 32.6519 62.7756 52.4961 63.3242 64.1256C63.4355 66.4818 63.9365 68.2409 64.3977 69.3872L64.3579 69.4111C62.537 65.7097 61.3364 61.2839 61.3364 61.2839C42.4677 45.2286 44.6305 14.8135 44.6305 14.8135Z" fill="#150335"/>
</g>
<defs>
<clipPath id="clip0_510_265">
<rect width="89" height="148" fill="white" transform="translate(30)"/>
</clipPath>
</defs>
</svg>
