<svg width="52" height="52" viewBox="0 0 52 52" fill="none" xmlns="http://www.w3.org/2000/svg">
<path d="M27.7439 7.37282L27.9226 7.37335L28.0929 7.37472L28.2557 7.37705L28.3605 7.37919L28.4626 7.38183L28.5624 7.385C28.5789 7.38557 28.5952 7.38617 28.6115 7.38679L28.7083 7.39082C28.7243 7.39154 28.7402 7.39228 28.756 7.39306L28.8505 7.39801C28.8661 7.39888 28.8817 7.39979 28.8972 7.40072L28.9899 7.40666L29.0818 7.4133L29.1732 7.42067C29.1884 7.42196 29.2036 7.42329 29.2188 7.42464L29.31 7.43316L29.4013 7.44248L29.4932 7.45264L29.5858 7.46367L29.6794 7.47559L29.7744 7.48843L29.9027 7.50667L29.9768 7.53958C30.3677 7.71331 30.8341 8.01836 31.304 8.3875L31.3846 8.45139L31.4652 8.51647L31.5457 8.58265C31.6529 8.6716 31.7596 8.76329 31.865 8.85693L31.9438 8.92751L31.983 8.96305L32.0609 9.03458L32.0901 9.06172L32.0751 9.01044C32.0538 8.93892 32.0314 8.86701 32.008 8.79478L31.9842 8.72245L31.6514 7.72393L32.6743 7.97191C34.1639 8.33303 35.4628 8.83414 36.6197 9.4526C37.2626 9.79631 37.8302 10.1581 38.3893 10.5633L38.4239 10.5884L38.5245 10.6629L38.6903 10.7874L39.3937 11.3213L39.6261 11.4873L39.6473 11.8049L39.6534 11.8887C39.6545 11.9025 39.6555 11.9163 39.6566 11.93L39.6633 12.0117L39.6704 12.092L39.6781 12.1711L39.6862 12.2491L39.6948 12.3261C39.6963 12.3389 39.6978 12.3516 39.6993 12.3642L39.7087 12.4398C39.7103 12.4523 39.712 12.4648 39.7136 12.4772L39.7239 12.5516C39.7257 12.5639 39.7275 12.5762 39.7293 12.5885L39.7405 12.6618L39.7523 12.7346C39.7544 12.7467 39.7564 12.7587 39.7585 12.7708L39.7713 12.8428C39.7757 12.8668 39.7803 12.8907 39.7849 12.9145L39.7991 12.986L39.8141 13.0572L39.8219 13.0928L39.8381 13.164C39.8408 13.1758 39.8436 13.1877 39.8464 13.1995L39.8638 13.2708L39.882 13.3421L39.901 13.4138L39.921 13.4857C39.9244 13.4978 39.9278 13.5098 39.9313 13.5219L39.9525 13.5945L39.9748 13.6677L39.9979 13.7415C40.0019 13.7538 40.0059 13.7662 40.0099 13.7786L40.0345 13.8535L40.0602 13.9293C40.0646 13.942 40.069 13.9548 40.0734 13.9675L40.1007 14.0447C40.1053 14.0577 40.11 14.0707 40.1147 14.0837L40.1435 14.1626L40.1735 14.2426L40.2046 14.3239L40.2368 14.4066C40.2423 14.4205 40.2478 14.4344 40.2534 14.4484L40.2874 14.5333L40.3226 14.6198L40.359 14.7079C40.3652 14.7227 40.3714 14.7376 40.3777 14.7526L40.416 14.8434L40.4557 14.936L40.5176 15.0788L40.5605 15.1765L40.6275 15.3272L40.6976 15.4832L40.771 15.6446L40.8811 15.8843L42.1469 19.1064L42.1775 19.1529C44.2717 22.3452 45.6467 25.3929 46.3007 28.5597L46.3205 28.6566C47.0644 32.3442 46.8084 36.1472 45.4419 40.1897L45.1207 41.1398L43.4525 39.2631L43.445 39.3135C42.6712 44.3767 40.0292 48.4333 35.4538 51.4629L35.3022 51.5624L34.6301 52L33.8217 48.9972L33.7594 49.0381C31.6787 50.3935 29.1104 51.3557 26.4674 51.7128L26.3773 51.7247C22.9884 52.1646 19.6586 51.6032 16.7496 49.9491L16.3792 49.7385L16.4676 49.3217L16.5046 49.1464L16.5407 48.9735L16.5758 48.8029L16.6269 48.551L16.6598 48.3858L16.6919 48.2226L16.723 48.0613L16.7533 47.902L16.7828 47.7446L16.8113 47.5889L16.839 47.4349L16.8525 47.3585L16.879 47.207L16.9045 47.0571C16.9087 47.0322 16.9129 47.0074 16.917 46.9826L16.9413 46.8349L16.9647 46.6885L16.9874 46.5435L17.0092 46.3998L17.0301 46.2572L17.0503 46.1158L17.0696 45.9755L17.0881 45.8361C17.0911 45.813 17.0941 45.7899 17.0971 45.7668L17.1144 45.6289L17.1309 45.4918C17.1336 45.469 17.1362 45.4463 17.1389 45.4235L17.1542 45.2876L17.1687 45.1523C17.1711 45.1298 17.1734 45.1074 17.1757 45.0849L17.189 44.9506C17.1912 44.9282 17.1933 44.9059 17.1954 44.8836L17.2076 44.75L17.219 44.6169C17.2227 44.5725 17.2263 44.5283 17.2297 44.4841L17.2396 44.3516L17.2487 44.2193C17.2516 44.1752 17.2544 44.1312 17.2571 44.0872L17.2647 43.9552C17.2659 43.9332 17.2671 43.9112 17.2683 43.8892L17.2748 43.7573L17.2806 43.6252L17.2856 43.4931C17.346 41.7897 17.2062 40.1449 16.8327 38.4855L16.8118 38.3941L16.7458 38.4919C15.5513 40.2532 14.313 41.7378 13.0814 42.963L13.0187 43.0251C12.8521 43.1897 12.6893 43.3459 12.5305 43.4938L12.4252 43.5912C12.3729 43.6393 12.321 43.6865 12.2696 43.7327L12.1675 43.8241C12.1506 43.8391 12.1337 43.854 12.1169 43.8688L12.0167 43.9565C11.9504 44.0142 11.8849 44.0702 11.8204 44.1247L11.7242 44.2052C11.6606 44.2581 11.5979 44.3094 11.5362 44.3591C11.524 44.3689 11.5119 44.3786 11.4999 44.3882L11.4293 44.4443C11.4177 44.4535 11.4062 44.4625 11.3948 44.4714L11.3279 44.5235L11.2635 44.573L11.2016 44.6197L11.1424 44.6638L11.1137 44.6849L11.0404 44.7379L10.9939 44.7707L10.9584 44.795L10.4336 45.1449L10.1231 44.6057C9.05587 42.752 8.43798 39.9911 8.26912 36.9177C8.25888 36.7314 8.25046 36.5453 8.24381 36.3601L8.23854 36.2014L8.23413 36.0432L8.23225 35.9643L8.22913 35.8069C8.22553 35.5973 8.22419 35.3893 8.22505 35.1836L8.2261 35.0297C8.22683 34.953 8.22787 34.8766 8.22921 34.8006L8.2323 34.6491L8.23619 34.4987L8.23844 34.4239L8.24352 34.2751C8.249 34.127 8.25566 33.9807 8.26348 33.8365L8.27168 33.693C8.27454 33.6454 8.27753 33.5981 8.28065 33.551L8.29037 33.4105L8.30085 33.2716C8.3099 33.1566 8.31972 33.0433 8.3303 32.9319L8.34337 32.7991C8.34785 32.7551 8.35244 32.7115 8.35716 32.6682L8.37167 32.5392C8.40885 32.2193 8.45273 31.9182 8.50288 31.6404L8.5046 31.6307L5.15088 32.929V32.0786C5.15088 31.4442 5.24651 30.682 5.42447 29.8467L5.44983 29.7297L5.47625 29.6117C5.48973 29.5525 5.5036 29.493 5.51786 29.4332L5.5469 29.3131C5.55183 29.293 5.5568 29.2729 5.56181 29.2528L5.5924 29.1315C5.61313 29.0504 5.63454 28.9688 5.65662 28.8867L5.69025 28.7633L5.72487 28.6393L5.76048 28.5146L5.79706 28.3893C5.80324 28.3684 5.80946 28.3474 5.81572 28.3265L5.85377 28.2004L5.89277 28.0738L5.93273 27.9467C5.93946 27.9255 5.94624 27.9043 5.95306 27.883L5.99443 27.7553C6.0014 27.734 6.00841 27.7127 6.01546 27.6913L6.05823 27.563C6.06543 27.5416 6.07267 27.5202 6.07995 27.4988L6.1241 27.37L6.16914 27.241C6.17673 27.2194 6.18435 27.1979 6.19201 27.1763L6.2384 27.0469C6.24621 27.0253 6.25405 27.0037 6.26193 26.9821L6.30966 26.8524C6.31769 26.8308 6.32575 26.8091 6.33385 26.7875L6.38289 26.6576L6.40773 26.5925L6.45806 26.4625C7.19117 24.583 8.13024 22.8294 9.1757 21.4402L9.21435 21.389L7.09689 20.9655L7.42276 20.2887C9.04659 16.9161 11.4929 13.9806 14.6046 11.7908L15.7491 10.9854L15.2686 10.9855L16.9287 10.1553L17.1539 9.99691L17.108 10.0657L17.4763 9.88161C20.6995 8.27 24.1256 7.39051 27.5391 7.37282H27.7439ZM27.7434 8.53819H27.6425C24.8721 8.53819 22.0823 9.14215 19.4041 10.2751L19.3994 10.2771L19.4182 10.2883C19.6461 10.4263 19.8616 10.593 20.0643 10.7858L20.0947 10.815C20.5941 11.2997 20.9904 11.9185 21.2993 12.6134L22.2709 14.7995L20.4028 13.305C19.2475 12.3808 17.9165 12.2422 17.0108 13.1187L17.0019 13.1273L16.9917 13.14C16.1145 14.2315 16.1871 16.0669 17.1433 17.9399L17.1726 17.9967L17.203 18.0546L18.0287 19.6144L16.4366 18.8529C15.0268 18.1787 14.1631 16.9417 13.8863 15.4471C13.7913 14.9342 13.7714 14.4071 13.8191 13.904L13.8229 13.8654L13.7463 13.9306C11.7372 15.6463 10.0873 17.7205 8.85699 20.0352L8.81209 20.1201L11.3861 20.6349L10.7149 21.3937C9.50359 22.763 8.38325 24.7338 7.54375 26.886C7.30952 27.4864 7.10446 28.0839 6.93242 28.6602L6.8901 28.8039C6.64033 29.6629 6.46558 30.4711 6.37885 31.1673L6.37411 31.2057L10.3389 29.6711L9.89296 30.8816C9.79093 31.1585 9.70163 31.5274 9.62773 31.9653L9.61095 32.0676L9.59473 32.1723C9.58942 32.2076 9.58419 32.2432 9.57907 32.2793L9.56397 32.3885C9.5541 32.4621 9.54461 32.5372 9.53552 32.6136L9.52217 32.7292C9.51782 32.7681 9.51357 32.8074 9.50942 32.8469L9.49728 32.9666L9.48575 33.0881L9.48022 33.1495L9.46962 33.2738L9.45966 33.3997L9.45033 33.5274C9.44883 33.5488 9.44736 33.5702 9.44591 33.5918L9.43755 33.7218L9.42985 33.8533C9.42862 33.8754 9.42742 33.8975 9.42625 33.9196L9.41955 34.0533C9.41637 34.1205 9.41344 34.1882 9.41076 34.2564L9.40576 34.3933L9.40145 34.5314L9.39785 34.6707C9.39676 34.7173 9.39579 34.7641 9.39495 34.8111L9.39276 34.9525L9.3913 35.0948C9.39111 35.1186 9.39096 35.1424 9.39084 35.1663L9.39047 35.3099L9.39085 35.4543C9.39184 35.6474 9.39483 35.8424 9.39989 36.0386L9.40408 36.1861C9.40789 36.3091 9.41253 36.4326 9.41799 36.5563L9.42496 36.7049C9.42741 36.7545 9.43 36.8041 9.43273 36.8538L9.43723 36.9336C9.4403 36.9868 9.44351 37.0399 9.44686 37.0929L9.45735 37.2515C9.46098 37.3043 9.46476 37.3569 9.46867 37.4095L9.48085 37.5667C9.48504 37.619 9.48938 37.6711 9.49386 37.7232L9.50772 37.8789C9.51248 37.9307 9.51737 37.9823 9.52241 38.0339L9.53794 38.188C9.55921 38.393 9.58271 38.5958 9.60842 38.7962L9.62812 38.946C9.63482 38.9958 9.64167 39.0454 9.64865 39.0949L9.67 39.2428C9.68451 39.3411 9.69957 39.4388 9.71518 39.5357L9.739 39.6806C9.75516 39.7769 9.77186 39.8725 9.78911 39.9673L9.81539 40.109C9.84652 40.2736 9.87932 40.436 9.91378 40.5959L9.94371 40.7324C10.1662 41.7288 10.4539 42.6266 10.8041 43.3851L10.8268 43.4339L10.8924 43.3807C10.9802 43.3089 11.0701 43.2335 11.1622 43.1547L11.2549 43.0747C11.3016 43.0341 11.3488 42.9926 11.3965 42.9502L11.4925 42.8643C11.5086 42.8498 11.5248 42.8352 11.541 42.8205L11.639 42.731C11.6719 42.7008 11.7049 42.6702 11.7382 42.6391L11.8387 42.5449C11.8892 42.4972 11.9402 42.4485 11.9917 42.399L12.0951 42.2987L12.1473 42.2477L12.1997 42.1961C13.661 40.7526 15.14 38.92 16.5429 36.6653L17.2248 35.5693L17.5957 36.8057C18.2704 39.0544 18.5313 41.2487 18.4503 43.5344C18.4404 43.8139 18.4258 44.0918 18.4066 44.3706L18.3956 44.5228C18.3765 44.7765 18.3534 45.0314 18.3262 45.2893L18.3095 45.4443L18.2917 45.6002L18.2824 45.6785L18.2632 45.8357L18.2429 45.9939C18.2395 46.0204 18.236 46.0469 18.2324 46.0735L18.2107 46.2334C18.2032 46.2869 18.1956 46.3407 18.1879 46.3946L18.1641 46.5571C18.156 46.6115 18.1477 46.6662 18.1392 46.7211L18.1134 46.8865C18.1046 46.9419 18.0956 46.9976 18.0865 47.0536L18.0585 47.2223L18.0296 47.3928L17.9995 47.5652C17.9944 47.5941 17.9893 47.6231 17.9841 47.6521L17.9525 47.8275L17.9197 48.0049L17.886 48.1845L17.8511 48.3664L17.8151 48.5507C17.803 48.6125 17.7906 48.6747 17.7781 48.7374L17.74 48.9266L17.6964 49.139L17.7304 49.157C20.2848 50.4945 23.1753 50.9477 26.1329 50.581L26.2273 50.5691C29.0354 50.2046 31.7626 49.1055 33.821 47.5764L34.5085 47.0657L35.3343 50.1331L35.3658 50.1111C39.6448 47.0837 41.9592 43.0706 42.4303 38.0176L42.4447 37.856L42.5597 36.5046L44.644 38.8494L44.6636 38.7832C45.664 35.3588 45.8146 32.1302 45.199 28.9917L45.1782 28.8871C44.5854 25.9483 43.3312 23.1002 41.4073 20.1066L41.3909 20.3042L40.7126 19.5691L40.0344 18.8339L40.2888 18.5962C40.4354 18.4593 40.5099 18.3377 40.5336 18.1869L39.9801 16.7779C39.9396 16.7291 39.8987 16.685 39.8578 16.6466C39.6008 16.4052 39.5692 16.3974 39.2407 16.4959C39.0504 16.553 38.7081 16.7473 38.4801 16.9278L38.0657 17.2561L37.4949 16.8734C37.4016 16.8108 37.3042 16.7481 37.2053 16.6865L37.1458 16.6497C36.5494 16.2835 35.9177 15.9696 35.8184 16.0027C35.7723 16.0179 36.0701 16.5408 36.4801 17.1642C36.8901 17.7877 37.2257 18.3401 37.2258 18.3919C37.2258 18.4432 37.6483 18.8428 38.1644 19.2788C38.2697 19.3678 38.3785 19.4612 38.4868 19.5554L38.5517 19.612C38.951 19.9614 39.3325 20.3122 39.4956 20.483L39.8884 20.8945L39.6266 20.8432C38.1322 20.55 36.6456 20.5904 35.4724 20.9562L34.9128 21.1307L34.644 20.849C34.5071 20.7055 33.9154 20.0927 33.288 19.4445L33.2282 19.3827L33.1382 19.2897C31.9434 18.0558 31.9026 18.0121 31.9012 17.6405L31.9012 17.6051C31.9012 17.1229 32.0669 16.7621 32.5 16.301L32.8178 15.9629L32.2877 16.0071C31.7562 16.0526 31.2119 16.2707 30.7227 16.6359L30.4609 16.8314L29.7303 16.4122C28.8218 15.891 27.6054 15.4302 27.1438 15.4326C26.4788 15.4326 24.8077 16.2886 23.8703 17.1022C23.4874 17.4346 23.5103 17.4608 24.7206 18.0762C24.7626 18.0976 24.8035 18.1183 24.8434 18.1383L24.9221 18.1777C25.9938 18.7107 26.3862 18.7839 27.973 18.8336L28.012 18.8348L28.0897 18.8375C28.8391 18.8637 29.5388 18.9173 29.6762 18.9588C29.7912 18.9942 30.4324 19.5709 31.0723 20.1812L31.1557 20.261C31.8779 20.9531 32.5691 21.6599 32.4675 21.6476C32.4201 21.636 32.126 21.5824 31.8139 21.5144C31.523 21.452 31.1519 21.4236 30.3972 21.4226L30.2903 21.4227C29.901 21.4234 29.4153 21.4308 28.797 21.4438C25.9806 21.5032 25.6077 21.4555 24.4872 20.8707C23.3208 20.2638 22.4844 19.2044 22.3374 18.1479C22.2736 17.6897 22.3061 17.7096 21.3567 17.5476C21.0065 17.4882 20.7026 17.4109 20.6813 17.3766C20.6601 17.3416 20.927 17.0443 21.2744 16.7146C21.887 16.1336 22.7552 15.6012 23.4557 15.3773C23.6357 15.3202 23.783 15.2439 23.783 15.2087C23.783 15.1738 23.567 14.9583 23.3029 14.7304C23.0388 14.5024 22.8228 14.2787 22.8228 14.2332C22.8228 14.1491 23.1302 13.9011 23.5551 13.6167L23.6099 13.5802C23.8225 13.4397 24.0613 13.2917 24.304 13.1514L24.3673 13.1149C24.5682 13.0001 24.7705 12.8914 24.9614 12.7971C26.0694 12.2502 27.1986 11.8647 28.3242 11.649L29.1143 11.4975L29.78 11.8269C30.1873 12.0284 30.8656 12.4282 31.55 12.861L31.664 12.9335C32.1772 13.2604 32.6855 13.6008 33.0772 13.8848C33.412 14.1274 33.7116 14.326 33.743 14.326C33.849 14.326 34.1547 13.5009 34.2877 12.8556C34.3603 12.5031 34.4378 12.1967 34.4596 12.1748C34.5099 12.1247 35.1862 12.4771 35.9164 12.9114L35.9791 12.9488C35.9895 12.9551 36 12.9614 36.0105 12.9677L36.0771 13.0078C36.1104 13.028 36.1438 13.0483 36.1771 13.0686L36.2437 13.1095L36.3101 13.1505C36.3432 13.1711 36.3763 13.1917 36.4092 13.2123L36.4747 13.2536C36.6598 13.3706 36.8389 13.4876 37.0021 13.5993C37.8619 14.1871 38.769 14.8886 39.4051 15.4487L39.4028 15.4436L39.3461 15.3128L39.293 15.1882L39.2554 15.0982L39.2079 14.9821L39.1741 14.8976L39.1523 14.8422L39.1206 14.7603L39.0901 14.6795L39.0703 14.626L39.0318 14.5197L38.9946 14.4134L38.9673 14.3332L38.9315 14.2252C38.7148 13.5606 38.5769 12.9017 38.5068 12.1544L38.5026 12.1085L38.1521 11.8417L37.8809 11.6368L37.7848 11.5651L37.7197 11.5173L37.6313 11.4535C37.1369 11.0993 36.6351 10.7823 36.0703 10.4803C35.2668 10.0508 34.3871 9.68151 33.41 9.38132L33.3723 9.36986L33.3754 9.38328C33.4285 9.62224 33.4714 9.85627 33.5049 10.0841L33.5147 10.1523C33.5434 10.3576 33.5627 10.5457 33.5742 10.7142L33.5759 10.7397L33.5789 10.788L33.5813 10.8328L33.5838 10.8935L33.5853 10.9462L33.5858 10.977L33.5981 13.0368L32.509 11.2943C32.4374 11.1797 32.3487 11.0561 32.2467 10.927L32.1987 10.8671L32.1489 10.8064L32.0973 10.7451C32.0886 10.7348 32.0798 10.7245 32.0709 10.7142L32.0169 10.6521L31.9613 10.5895L31.9043 10.5265C31.8658 10.4845 31.8265 10.4422 31.7862 10.3998L31.7254 10.3361L31.6633 10.2724L31.6002 10.2086C31.5896 10.198 31.579 10.1874 31.5683 10.1767L31.5038 10.1131L31.4384 10.0496L31.4054 10.018L31.3389 9.95493L31.2718 9.89222L31.204 9.82994L31.1358 9.76817L31.0671 9.70698L30.9981 9.64645L30.9636 9.61645L30.8942 9.55703L30.8248 9.49845C30.8132 9.48876 30.8016 9.47911 30.79 9.4695L30.7205 9.41232L30.651 9.35616C30.6279 9.33762 30.6048 9.31926 30.5817 9.3011L30.5126 9.24721C30.4897 9.22945 30.4667 9.2119 30.4439 9.19456L30.3755 9.14324C30.3073 9.09259 30.2398 9.04404 30.1734 8.99791L30.1074 8.95259C29.9213 8.82656 29.7448 8.72086 29.5859 8.64305L29.5738 8.63719C29.5591 8.6352 29.5445 8.63325 29.5299 8.63133L29.4428 8.62027L29.3565 8.61006L29.2709 8.60067C29.2424 8.59767 29.2139 8.59481 29.1855 8.59207L29.1001 8.58423L29.0574 8.58059L28.9714 8.57385L28.8848 8.56779L28.7971 8.56239L28.708 8.55762C28.6931 8.55688 28.678 8.55616 28.6629 8.55547L28.5714 8.55159C28.556 8.551 28.5404 8.55042 28.5248 8.54987L28.4301 8.54682L28.3329 8.54428L28.1817 8.54138C28.1645 8.54111 28.1472 8.54086 28.1297 8.54063L28.0233 8.53946L27.9131 8.53869L27.7434 8.53819ZM38.8882 30.8264L39.2623 31.378C39.468 31.6814 39.7359 32.1761 39.8576 32.4773C40.0616 32.9823 40.0705 33.0599 39.9728 33.4751C39.6795 34.722 38.9232 36.0971 38.1623 36.7671C37.5234 37.3297 37.4464 37.3525 37.4464 36.9785C37.4465 36.4206 37.163 34.825 36.9595 34.2372C36.9371 34.1728 36.8619 34.1959 36.7098 34.3241L36.6804 34.3493C36.6298 34.3935 36.5716 34.4481 36.5049 34.5135C36.2786 34.7339 35.8381 35.0528 35.5261 35.2222C35.3359 35.3253 35.0593 35.4573 34.7736 35.5855L34.7144 35.612C34.6675 35.6328 34.6204 35.6535 34.5737 35.6739L34.5177 35.6983C34.0338 35.9077 33.5902 36.078 33.5682 36.0483C33.5284 35.9948 33.2774 35.516 33.0087 34.9919L32.972 34.9202L32.9414 34.8603C32.9159 34.8103 32.8903 34.7603 32.865 34.7104L32.8346 34.6507C32.8295 34.6407 32.8245 34.6308 32.8195 34.6209L32.7894 34.5617C32.7296 34.4437 32.6716 34.3287 32.6177 34.2211L32.5651 34.1161C32.4079 33.801 32.2962 33.5701 32.2962 33.553C32.2962 33.5134 32.4819 33.4317 32.7087 33.371C33.5908 33.1351 34.9249 32.3504 36.2124 31.3101L36.8111 30.8264H38.8882ZM34.5509 23.3928L35.4414 23.9193C35.9312 24.2089 36.5435 24.5334 36.802 24.6405L37.2719 24.8354L37.2684 26.2815L37.2649 27.7275L36.5919 28.2603C34.6977 29.7599 33.1158 30.5518 31.5543 30.7826C31.3285 30.8164 31.1556 30.7942 31.0649 30.7208C30.9902 30.6614 30.6511 30.078 30.3009 29.4095L30.2658 29.3424C30.1425 29.1054 30.0021 28.8396 29.8604 28.574L29.8072 28.4744C29.5501 27.9939 29.295 27.5259 29.1347 27.2429L28.6624 26.4092L28.8862 26.2401C30.597 24.9476 32.7474 23.817 34.1001 23.4988L34.5509 23.3928ZM41.0684 23.7557C41.1496 23.7557 41.2924 24.1854 41.5614 25.2396C41.8656 26.4318 41.9667 27.7825 41.8213 28.7107C41.7997 28.8481 41.7684 29.0047 41.7316 29.1667L41.7175 29.2276C41.7008 29.2989 41.6832 29.3709 41.6649 29.4424L41.6491 29.5035C41.5162 30.0115 41.3566 30.4774 41.2969 30.4755C41.2677 30.4746 41.0982 30.2251 40.9204 29.9209C40.7426 29.6168 40.2811 29.0097 39.8947 28.572L39.1923 27.7762V24.9817L40.106 24.3686C40.6085 24.0315 41.0416 23.7557 41.0684 23.7557ZM25.5774 2.07868C26.3201 3.25652 26.9777 4.28694 27.0387 4.36851C27.1376 4.50055 27.2595 4.40231 28.1582 3.4692C28.7129 2.89304 29.645 1.88103 30.2296 1.22027C30.6286 0.769282 30.8784 0.488717 31.038 0.328013L31.0618 0.304228C31.2895 0.0795068 31.3178 0.123166 31.3511 0.260128C31.3834 0.39275 31.473 1.31187 31.5501 2.30267C31.6942 4.15187 31.8323 5.17134 31.9389 5.17134C31.9721 5.17134 32.0496 5.03242 32.111 4.86251C32.2788 4.39846 33.1794 3.32959 33.9797 2.6447C34.3704 2.31036 34.6994 2.04593 34.7106 2.05724C34.7223 2.0689 34.6193 2.41058 34.4825 2.81741C34.1618 3.77173 33.8929 5.05246 33.7572 6.27155L33.6493 7.24068L32.9946 7.08429C32.747 7.025 32.2612 6.92114 31.7555 6.81814L31.6173 6.7901C31.4327 6.75284 31.2482 6.71623 31.0741 6.68247C30.7745 6.62437 30.5377 6.58 30.3163 6.54616L30.2634 6.53824C30.2108 6.53052 30.1588 6.52339 30.1069 6.51681L30.0549 6.51041C29.5692 6.45236 29.0649 6.44077 28.0068 6.43984L27.7098 6.43982C27.6268 6.43987 27.5408 6.43995 27.4515 6.44007L27.3322 6.4401C25.9222 6.441 25.2814 6.45867 24.6765 6.53121L24.6262 6.53738C24.6094 6.53948 24.5927 6.54163 24.5759 6.54382L24.5256 6.55051C24.3579 6.57327 24.1882 6.60052 24.0008 6.63305C21.622 7.04629 19.9408 7.58819 17.893 8.60183C17.1969 8.94642 16.6014 9.24068 16.5697 9.25582C16.5382 9.27098 16.4846 9.15327 16.4508 8.99502C16.2621 8.11015 15.2611 5.75553 14.6305 4.71311C14.4634 4.43704 14.3543 4.21119 14.388 4.21119C14.4217 4.21119 14.761 4.38879 15.142 4.60601C15.9673 5.07624 17.0315 5.87615 17.3166 6.24044C17.4634 6.42806 17.5573 6.48051 17.6486 6.42597C17.758 6.36071 17.7255 6.02158 17.4176 4.01471C17.231 2.79878 17.0868 1.79211 17.0837 1.68845L17.0837 1.68284C17.0839 1.68073 17.0841 1.67966 17.0846 1.67966C17.0984 1.67966 17.6887 2.08661 18.3962 2.58411C18.6938 2.79335 19.0078 3.01109 19.3232 3.22749L19.4283 3.29956C20.8308 4.25948 22.2291 5.17134 22.3149 5.17134C22.3607 5.17134 22.7851 4.0224 23.2579 2.61801C23.7307 1.21375 24.1422 0.0360291 24.1723 0.00094931C24.2025 -0.0340075 24.8347 0.900847 25.5774 2.07868Z" fill="white"/>
</svg>
