<svg width="52" height="52" viewBox="0 0 52 52" fill="none" xmlns="http://www.w3.org/2000/svg">
<path d="M41.1276 48.1953H9.45094C8.61461 48.1953 7.92994 47.515 7.92994 46.6743V5.31263C7.92994 4.4763 8.61027 3.79163 9.45094 3.79163H41.1276C41.9639 3.79163 42.6486 4.47197 42.6486 5.31263V46.6743C42.6486 47.515 41.9639 48.1953 41.1276 48.1953ZM41.1276 48.1953H9.45094C8.61461 48.1953 7.92994 47.515 7.92994 46.6743V5.31263C7.92994 4.4763 8.61027 3.79163 9.45094 3.79163H41.1276C41.9639 3.79163 42.6486 4.47197 42.6486 5.31263V46.6743C42.6486 47.515 41.9639 48.1953 41.1276 48.1953ZM9.45094 2.33997C7.81294 2.33997 6.47827 3.67463 6.47827 5.31263V46.6743C6.47827 48.3123 7.81294 49.647 9.45094 49.647H41.1276C42.7656 49.647 44.1003 48.3123 44.1003 46.6743V5.31263C44.1003 3.6703 42.7656 2.33997 41.1276 2.33997H9.45094Z" fill="white"/>
<path d="M9.45094 2.33997C7.81294 2.33997 6.47827 3.67463 6.47827 5.31263V46.6743C6.47827 48.3123 7.81294 49.647 9.45094 49.647H41.1276C42.7656 49.647 44.1003 48.3123 44.1003 46.6743V5.31263C44.1003 3.6703 42.7656 2.33997 41.1276 2.33997H9.45094Z" fill="white"/>
<path d="M41.1276 48.1953H9.45093C8.6146 48.1953 7.92993 47.515 7.92993 46.6743V5.31263C7.92993 4.47629 8.61027 3.79163 9.45093 3.79163H41.1276C41.9639 3.79163 42.6486 4.47196 42.6486 5.31263V46.6743C42.6486 47.515 41.9639 48.1953 41.1276 48.1953ZM41.1276 48.1953H9.45093C8.6146 48.1953 7.92993 47.515 7.92993 46.6743V5.31263C7.92993 4.47629 8.61027 3.79163 9.45093 3.79163H41.1276C41.9639 3.79163 42.6486 4.47196 42.6486 5.31263V46.6743C42.6486 47.515 41.9639 48.1953 41.1276 48.1953Z" fill="#EC1C24"/>
<path d="M14.0659 33.6613V34.7099H15.4396V38.8439H16.6529V34.7099H17.8966L18.3126 33.6613H14.0659Z" fill="white"/>
<path d="M19.8336 35.4466V33.6613H18.7026V38.8439H19.8336V36.4216C20.0243 36.2483 20.397 35.9883 20.761 35.9883C21.0513 35.9883 21.216 36.1313 21.294 36.3133C21.3546 36.4563 21.372 36.6036 21.372 36.8376V38.8439H22.503V36.6253C22.503 36.2309 22.464 36.0099 22.3946 35.8193C22.204 35.2949 21.749 34.9916 21.0946 34.9916C20.5486 34.9916 20.176 35.1823 19.8336 35.4466Z" fill="white"/>
<path d="M29.3106 35.8583V34.7099H31.7286L32.1229 33.6613H28.1016V38.8439H29.3106V36.9459H30.8836L31.2996 35.8583H29.3106Z" fill="white"/>
<path d="M25.0248 34.9916C23.8548 34.9916 23.1182 35.7759 23.1182 36.9676C23.1182 38.1852 23.8548 38.9522 25.1158 38.9522C25.6575 38.9522 26.0345 38.8612 26.2945 38.7529L26.5978 37.8862C26.3162 37.9946 25.8135 38.1289 25.2458 38.1289C24.5525 38.1289 24.1972 37.8212 24.1365 37.3229H26.8578C26.9922 35.9882 26.2685 34.9916 25.0248 34.9916ZM24.1365 36.5862C24.1755 36.1226 24.5092 35.7976 24.9858 35.7976C25.4885 35.7976 25.7702 36.1399 25.8352 36.5862H24.1365Z" fill="white"/>
<path d="M34.5757 33.6613H33.163L31.187 38.8439H32.4047L32.7687 37.8169H34.9093L35.2517 38.8439H36.5127L34.5757 33.6613ZM33.124 36.7943L33.8217 34.8399H33.8607L34.5367 36.7943H33.124Z" fill="white"/>
<mask id="mask0_515_1106" style="mask-type:luminance" maskUnits="userSpaceOnUse" x="17" y="8" width="17" height="24">
<path d="M32.6385 14.0616C31.7675 14.0616 29.0419 14.222 29.0419 14.222L28.8425 13.9013L28.8555 13.3466C28.8555 13.3466 28.5435 12.298 26.4679 12.4626C26.4679 12.4626 26.6889 12.077 26.4982 11.8863L25.7615 11.4833C25.7615 11.4833 25.8395 11.2103 25.5882 11.2103L25.9392 9.20829L25.6445 9.21262L25.4062 8.75329C25.4062 8.75329 25.5015 8.69696 25.5015 8.56262H25.3325H25.1635C25.1635 8.69696 25.2632 8.75329 25.2632 8.75329L25.0249 9.21262L24.7302 9.20829L25.0812 11.2103C24.8299 11.2103 24.9079 11.4833 24.9079 11.4833L24.1712 11.8863C23.9805 12.077 24.2015 12.4626 24.2015 12.4626C22.1259 12.3023 21.8139 13.3466 21.8139 13.3466L21.8269 13.9013L21.6275 14.222C21.6275 14.222 18.9062 14.0616 18.0309 14.0616C17.1555 14.0616 18.0525 14.6553 18.1695 14.7593C18.2865 14.8633 18.1695 14.976 18.0612 15.0366C17.9529 15.0973 18.2215 15.2706 18.2432 15.405C18.2605 15.5393 18.1565 15.561 18.0005 15.6866C17.8445 15.8123 17.8662 15.9033 17.8662 15.9033C17.9312 21.112 22.4075 24.3966 23.3609 25.1333C24.3142 25.87 24.4919 26.455 24.4919 26.455C24.4919 26.455 24.2102 26.676 24.3922 26.806C24.5742 26.936 24.3532 27.1526 24.1105 27.3996C23.8679 27.6423 24.5005 28.0626 24.5005 28.0626C24.3705 28.301 24.4269 28.4483 24.4572 28.535C24.4875 28.6216 24.4962 28.6866 24.3185 28.7733C24.1409 28.86 24.0932 29.0333 24.0932 29.0333V29.5533C21.4412 31.1263 21.7879 31.6246 21.7879 31.6246H25.3412H28.8945C28.8945 31.6246 29.2369 31.1263 26.5892 29.5533V29.0203C26.5892 29.0203 26.5415 28.847 26.3595 28.7603C26.1819 28.6736 26.1905 28.6086 26.2209 28.522C26.2512 28.4353 26.3075 28.2923 26.1775 28.0496C26.1775 28.0496 26.8102 27.6336 26.5675 27.3866C26.3249 27.144 26.1039 26.9273 26.2859 26.793C26.4679 26.663 26.1862 26.442 26.1862 26.442C26.1862 26.442 26.3639 25.857 27.3172 25.1203C28.2705 24.3836 32.7469 21.1033 32.8119 15.8903C32.8119 15.8903 32.8379 15.7993 32.6775 15.6736C32.5215 15.548 32.4132 15.5263 32.4349 15.392C32.4522 15.2576 32.7209 15.0843 32.6125 15.0236C32.5042 14.963 32.3872 14.8503 32.5042 14.7463C32.6169 14.6596 33.5139 14.0616 32.6385 14.0616ZM22.6979 23.6166C20.7175 22.191 18.9712 19.0883 19.3395 16.0376C19.3742 15.7386 19.5345 15.5696 19.6819 15.5176C20.2409 15.3183 20.8952 15.4396 21.4802 15.6996C21.5365 15.7256 21.5669 15.847 21.5669 15.9206C21.6665 18.0916 21.8095 20.6136 22.8192 23.5256C22.8669 23.6513 22.8235 23.7076 22.6979 23.6166ZM27.9759 23.6166C27.8502 23.7076 27.8112 23.6513 27.8545 23.5256C28.8642 20.618 29.0115 18.096 29.1069 15.9206C29.1069 15.847 29.1415 15.7213 29.1935 15.6996C29.7742 15.4396 30.4285 15.3183 30.9919 15.5176C31.1392 15.5696 31.2995 15.7386 31.3342 16.0376C31.7069 19.0883 29.9605 22.191 27.9759 23.6166Z" fill="white"/>
</mask>
<g mask="url(#mask0_515_1106)">
<path d="M37.349 6.66028H13.2903V32.9116H37.349V6.66028Z" fill="white"/>
</g>
<path d="M16.1718 41.9726L16.7482 40.8459H17.3765L16.4665 42.5359V43.3766H15.8685V42.5359L14.9585 40.8459H15.5868L16.1632 41.9726H16.1718Z" fill="white"/>
<path d="M17.9875 42.107C17.9875 41.6303 18.1869 41.314 18.5769 41.314C18.9755 41.314 19.1705 41.6303 19.1705 42.107C19.1705 42.5837 18.9755 42.8957 18.5769 42.8957C18.1869 42.8957 17.9875 42.5837 17.9875 42.107ZM17.3982 42.107C17.3982 42.926 17.8575 43.4243 18.5769 43.4243C19.3092 43.4243 19.7599 42.9303 19.7599 42.107C19.7599 41.288 19.2962 40.7897 18.5769 40.7897C17.8575 40.7897 17.3982 41.2923 17.3982 42.107Z" fill="white"/>
<path d="M21.7142 42.3756V40.8459H22.3036V42.4059C22.3036 42.9823 21.9872 43.4199 21.2419 43.4199C20.5052 43.4199 20.1846 42.9823 20.1846 42.4059V40.8459H20.7739V42.3756C20.7739 42.6226 20.8519 42.8956 21.2419 42.8956C21.6362 42.8956 21.7142 42.6226 21.7142 42.3756Z" fill="white"/>
<path d="M22.7153 41.3529V40.8459H24.8213L24.6307 41.3529H24.0067V43.3723H23.4043V41.3529H22.7153Z" fill="white"/>
<path d="M25.7485 43.3766H25.1592V40.8459H25.7485V41.8426H26.7712V40.8459H27.3605V43.3766H26.7712V42.3626H25.7485V43.3766Z" fill="white"/>
<path d="M29.4233 42.1069C29.4233 42.6183 29.7006 42.8913 30.1816 42.8913C30.3376 42.8913 30.5066 42.8609 30.6279 42.8133V43.3506C30.5153 43.3896 30.2986 43.4243 30.1036 43.4243C29.3799 43.4243 28.8296 42.9909 28.8296 42.1243C28.8296 41.2836 29.3756 40.7853 30.0949 40.7853C30.2769 40.7853 30.4936 40.8243 30.6019 40.8589V41.3963C30.4849 41.3529 30.3159 41.3139 30.1469 41.3139C29.7006 41.3139 29.4233 41.6303 29.4233 42.1069Z" fill="white"/>
<path d="M32.6862 42.3756V40.8459H33.2755V42.4059C33.2755 42.9823 32.9592 43.4199 32.2138 43.4199C31.4772 43.4199 31.1565 42.9823 31.1565 42.4059V40.8459H31.7458V42.3756C31.7458 42.6226 31.8238 42.8956 32.2138 42.8956C32.6125 42.8956 32.6862 42.6226 32.6862 42.3756Z" fill="white"/>
<path d="M35.2169 41.7299C35.2169 41.9726 35.0393 42.1069 34.6493 42.1069H34.4499V41.3529H34.6753C35.0479 41.3529 35.2169 41.4743 35.2169 41.7299ZM35.8063 41.7299C35.8063 41.2056 35.4466 40.8459 34.5799 40.8459H33.8606V43.3723H34.4499V42.6139H34.5626C35.3859 42.6139 35.8063 42.2889 35.8063 41.7299Z" fill="white"/>
</svg>
