<svg width="52" height="52" viewBox="0 0 52 52" fill="none" xmlns="http://www.w3.org/2000/svg">
<path d="M40.586 3.93466C40.4343 3.66166 40.1093 3.45799 39.7583 3.45799C39.442 3.45799 39.169 3.58799 39.169 3.91299C39.169 4.19466 39.5156 4.38099 39.8753 4.61066C40.2653 4.86199 40.6683 5.15232 40.6683 5.67666C40.6683 6.36132 40.0053 6.77299 39.234 6.77299C38.9177 6.77299 38.5926 6.70799 38.2113 6.56499L38.2763 5.65066C38.4496 6.01032 38.7876 6.30499 39.286 6.30499C39.6673 6.30499 39.949 6.11866 39.949 5.80666C39.949 5.53366 39.7193 5.36032 39.4376 5.19566C38.8396 4.83599 38.4713 4.55432 38.4713 4.02999C38.4713 3.25866 39.1256 2.99866 39.7973 2.99866C40.1873 2.99866 40.43 3.07666 40.677 3.07666L40.586 3.93466ZM37.2883 4.74932C37.2016 4.89232 37.0933 5.08732 37.0283 5.22599C36.972 5.49899 36.9416 5.85866 36.9416 6.24866C36.9416 6.41332 36.9763 6.63866 37.05 6.70366H36.062C36.2353 6.53899 36.3133 5.52932 36.3003 5.20432C36.1703 4.74932 35.984 4.31166 35.711 3.77866C35.5376 3.44066 35.3296 3.12432 35.2126 3.07232C35.4293 3.05066 35.711 3.03766 35.854 3.03766C36.1053 3.03766 36.1703 3.07232 36.309 3.39732C36.5473 3.93032 36.7206 4.33332 36.8203 4.62799C37.0716 4.23799 37.245 3.96499 37.4746 3.60532C37.531 3.51866 37.583 3.39732 37.583 3.28899C37.583 3.20232 37.57 3.11566 37.5266 3.07232H38.506C38.3196 3.11999 37.4746 4.45466 37.2883 4.74932ZM33.865 3.92166L33.2756 5.18266H34.2203L33.865 3.92166ZM35.0176 6.73832C34.7013 6.73832 34.6796 6.72532 34.4283 5.86732L34.3416 5.55099C34.19 5.61599 33.917 5.65932 33.4923 5.65932H33.059L32.981 5.82399C32.8726 6.06232 32.7296 6.34399 32.7296 6.54332C32.7296 6.58666 32.7296 6.64299 32.7513 6.70799H30.186C30.329 6.54332 30.381 6.01032 30.446 5.04399L30.459 4.81432C30.4936 4.25966 30.524 3.83499 30.524 3.54032C30.524 3.28899 30.4893 3.13732 30.4243 3.07232H31.4166C31.2736 3.18066 31.2216 3.76999 31.1566 4.72332L31.135 4.95299C31.1133 5.31266 31.07 5.68099 31.07 6.04066C31.07 6.20532 31.135 6.24866 31.3083 6.24866C31.9063 6.24866 32.058 6.23566 32.331 6.05366C32.5043 5.73732 32.6906 5.34732 32.8856 4.94432L33.137 4.40266C33.3753 3.89132 33.6136 3.37999 33.6136 3.27166C33.6136 3.19366 33.592 3.12866 33.5703 3.06366H34.3633C34.3633 3.06366 34.6796 4.25099 34.7533 4.51099L34.905 5.08732C35.178 6.05366 35.3383 6.52166 35.568 6.70799C35.373 6.73832 35.113 6.73832 35.0176 6.73832ZM28.6 6.78166C27.664 6.78166 27.1223 6.01032 27.1223 5.13932C27.1223 3.93032 27.7766 2.99866 29.0246 2.99866C29.4146 2.99866 29.601 3.07666 29.9173 3.07666L29.8176 3.99966C29.6443 3.67466 29.3496 3.45799 28.9596 3.45799C28.1883 3.45799 27.872 4.29432 27.872 5.01366C27.872 5.79799 28.3053 6.22266 28.8946 6.22266C29.211 6.22266 29.4926 6.13599 29.9476 5.81099C29.7613 6.42632 29.315 6.78166 28.6 6.78166ZM25.3456 3.51866C25.259 3.51866 25.1506 3.51866 25.064 3.53166C25.0293 3.68332 25.0076 3.95632 24.9773 4.38966L24.9556 4.64099C24.999 4.65399 25.064 4.65399 25.1203 4.65399C25.5753 4.65399 25.883 4.38099 25.883 3.96932C25.8916 3.68332 25.6966 3.51866 25.3456 3.51866ZM26.663 6.86832C26.39 6.86832 26.325 6.82499 26.2383 6.70366L25.2156 5.29099C25.1376 5.18266 25.0726 5.09599 24.9426 5.09599H24.921L24.8993 5.36899C24.8776 5.73732 24.8646 6.04499 24.8646 6.26166C24.8646 6.51299 24.8993 6.65166 24.9643 6.71666H23.9763C24.1193 6.58666 24.1713 6.16199 24.2493 5.05266L24.2623 4.82299C24.297 4.28132 24.3273 3.85666 24.3273 3.56199C24.3273 3.30199 24.2926 3.13732 24.219 3.08532C24.7866 3.08532 25.558 3.08532 25.558 3.08532C25.9913 3.08532 26.6023 3.16332 26.6023 3.86966C26.6023 4.45899 26.2123 4.77099 25.7226 4.92266C25.766 4.96599 25.8526 5.07432 25.909 5.13932L26.65 6.11866C27.105 6.72966 27.1483 6.75132 27.313 6.83799C27.118 6.85966 26.8493 6.86832 26.663 6.86832ZM22.074 3.92166L21.4846 5.18266H22.4423L22.074 3.92166ZM23.2266 6.73832C22.9103 6.73832 22.8886 6.72532 22.6373 5.86732L22.5506 5.55099C22.399 5.61599 22.126 5.65932 21.7013 5.65932H21.268L21.19 5.82399C21.112 5.99732 20.93 6.34399 20.9386 6.54332C20.9386 6.58666 20.9386 6.64299 20.9603 6.70799H20.0893C20.3406 6.45666 20.657 5.88032 21.0903 4.94432L21.3416 4.40266C21.5713 3.91299 21.8183 3.35832 21.8183 3.27166C21.8183 3.19366 21.7966 3.12866 21.775 3.06366H22.568C22.568 3.06366 22.776 3.84799 22.958 4.51099L23.1096 5.08732C23.3826 6.05366 23.543 6.52166 23.7726 6.70799C23.5733 6.73832 23.3263 6.73832 23.2266 6.73832ZM18.7373 3.50999C18.6593 3.50999 18.5726 3.50999 18.486 3.52299C18.4513 3.77432 18.421 4.02132 18.408 4.29432C18.408 4.29432 18.395 4.52399 18.395 4.51099H18.4946C18.9496 4.51099 19.3743 4.34632 19.3743 3.92166C19.3656 3.68332 19.1706 3.50999 18.7373 3.50999ZM18.616 4.95732H18.3646L18.33 5.49032C18.3083 5.72866 18.2953 5.92366 18.2953 6.15332C18.2953 6.18799 18.4036 6.26166 18.642 6.26166C19.1533 6.26166 19.4913 6.01032 19.4913 5.58566C19.487 5.11766 19.1056 4.95732 18.616 4.95732ZM18.681 6.70799H17.407C17.5716 6.56499 17.615 6.01032 17.68 5.04399L17.693 4.81432C17.7276 4.25966 17.758 3.83499 17.758 3.54032C17.758 3.28899 17.7233 3.11566 17.6496 3.06366H19.0753C19.4133 3.06366 20.098 3.08532 20.098 3.79166C20.098 4.25966 19.6646 4.55432 19.2616 4.66266C19.8293 4.71899 20.2496 4.98766 20.2496 5.57699C20.2366 6.20532 19.6473 6.70799 18.681 6.70799Z" fill="#00AEEF"/>
<path d="M13.5373 2.34436C13.3943 2.34436 13.3727 2.36603 13.3293 2.42236C13.3077 2.42236 13.2947 2.42236 13.273 2.42236C13.1647 2.42236 13.0347 2.43536 12.9133 2.50903C12.805 2.58703 12.7487 2.71703 12.805 2.80369C12.805 2.80369 12.8483 2.74736 12.9783 2.74736C13 2.74736 13.0217 2.74736 13.0433 2.74736C13.2297 2.76903 13.3597 2.86869 13.338 3.11569C13.325 3.36703 13.2297 3.64869 12.8483 3.64869C12.8483 3.64869 12.792 3.64869 12.7487 3.64869C12.5753 3.62703 12.5103 3.51869 12.5103 3.51869C12.5103 3.51869 12.662 3.47536 12.662 3.28036C12.662 3.15036 12.5407 3.02036 12.3803 2.97703C12.324 2.96403 12.259 2.95536 12.207 2.95536C12.012 2.95536 11.7823 3.04203 11.6393 3.23703C11.3013 3.68336 11.271 4.33336 11.3577 4.94436C11.4443 5.55536 11.8257 6.11869 11.8343 6.13169C11.8473 6.14469 11.8473 6.15336 11.856 6.15336C11.856 6.15336 11.869 6.15336 11.869 6.14036C12.0337 5.97569 12.194 5.75903 12.259 5.60736C12.337 5.66369 12.2937 5.79369 12.259 5.92369C12.2243 6.05369 12.129 6.24003 12.0943 6.29203C12.0597 6.34836 12.0163 6.41336 12.0727 6.44369C12.0857 6.44369 12.0857 6.45669 12.0943 6.45669C12.1723 6.45669 12.3457 6.32669 12.5407 6.06669C12.7573 5.77203 12.8657 5.51203 12.8657 5.51203C12.8787 5.51203 12.909 5.54669 12.909 5.62036C12.909 5.69836 12.831 5.98003 12.6793 6.24003C12.5277 6.50003 12.3847 6.66469 12.3543 6.69503C12.3327 6.71669 12.3543 6.72969 12.3673 6.73836C12.3803 6.75136 12.649 6.99836 13.0433 7.20636C13.5113 7.45769 13.7193 7.50103 13.7193 7.50103C13.7193 7.50103 13.9273 7.45769 14.3823 7.20636C14.7723 6.98969 15.0453 6.73836 15.0583 6.72969C15.0713 6.71669 15.08 6.70803 15.0713 6.68636C15.0497 6.65169 14.9067 6.49136 14.755 6.23136C14.6033 5.97136 14.5253 5.68969 14.5253 5.61169C14.5253 5.53369 14.547 5.51203 14.56 5.50336C14.56 5.50336 14.6683 5.76336 14.898 6.05803C15.093 6.31803 15.2663 6.44803 15.3443 6.44803C15.3573 6.44803 15.366 6.44803 15.366 6.43503C15.4223 6.40036 15.379 6.33536 15.3443 6.28336C15.3097 6.22703 15.223 6.04503 15.1797 5.91503C15.1363 5.78503 15.1017 5.65503 15.1797 5.59869C15.2447 5.75036 15.4093 5.96703 15.5697 6.13169L15.5827 6.14469C15.5957 6.14469 15.5957 6.13169 15.6043 6.13169C15.6173 6.11003 16.0073 5.55536 16.081 4.94436C16.1677 4.33336 16.1373 3.68336 15.7993 3.23703C15.6477 3.04203 15.431 2.95536 15.223 2.95536C15.158 2.95536 15.1017 2.96836 15.0497 2.97703C14.8763 3.03336 14.768 3.15036 14.768 3.28036C14.768 3.47536 14.9197 3.51869 14.9197 3.51869C14.9197 3.51869 14.8633 3.62703 14.6813 3.64869C14.6467 3.64869 14.6163 3.66169 14.5817 3.66169C14.4387 3.66169 14.3217 3.61836 14.2133 3.46669C14.105 3.31503 14.1137 3.02036 14.105 2.91203C14.105 2.81236 14.0833 2.57403 13.975 2.48736C13.8667 2.38769 13.7367 2.35736 13.572 2.35736C13.559 2.34436 13.546 2.34436 13.5373 2.34436Z" fill="#00AEEF"/>
<path d="M11.3186 8.229H12.3716L13.0043 10.8377H13.0173L13.9749 8.229H14.7766L15.7429 10.8377H15.7559L16.3886 8.229H17.4416L16.4319 12.2547H15.3573L14.3866 9.685H14.3736L13.3943 12.2503H12.3283L11.3186 8.229Z" fill="white"/>
<path d="M17.4287 10.2397C17.4287 8.98739 18.3214 8.12073 19.5694 8.12073C20.8174 8.12073 21.71 8.99173 21.71 10.2397C21.71 11.4921 20.8174 12.3587 19.5694 12.3587C18.3214 12.3501 17.4287 11.4834 17.4287 10.2397ZM20.7047 10.2397C20.7047 9.49873 20.2584 9.02206 19.5867 9.02206C18.9107 9.02206 18.4687 9.49873 18.4687 10.2397C18.4687 10.9807 18.915 11.4574 19.5867 11.4574C20.2584 11.4617 20.7047 10.9721 20.7047 10.2397Z" fill="white"/>
<path d="M22.1304 8.229H23.2484L24.6307 10.8723H24.6437L26.026 8.229H27.144V12.2547H26.13V9.841H26.117L24.8214 12.2547H24.453L23.1574 9.841H23.1444V12.2547H22.1347V8.229H22.1304Z" fill="white"/>
<path d="M27.6985 8.229H30.7968V9.12167H28.7212V9.80634H30.6018V10.621H28.7212V11.362H30.8098V12.2547H27.6985V8.229Z" fill="white"/>
<path d="M31.2866 8.229H32.3526L34.125 10.7857H34.138V8.229H35.1606V12.2547H34.0946L32.3223 9.698H32.3093V12.2547H31.2866V8.229Z" fill="white"/>
<path d="M35.646 9.64167C35.919 9.57667 35.9927 9.46834 35.9927 9.20834H35.6113V8.229H36.6773V9.06534C36.6773 9.698 36.3307 10.075 35.646 10.1313V9.64167Z" fill="white"/>
<path d="M36.842 10.8941L37.8084 10.7207C37.9384 11.2884 38.2634 11.5137 38.883 11.5137C39.3597 11.5137 39.6457 11.3707 39.6457 11.1237C39.6457 10.8941 39.4507 10.7641 38.4584 10.5474C37.4487 10.3177 36.9677 9.95806 36.9677 9.33839C36.9677 8.63206 37.6307 8.12073 38.6534 8.12073C39.611 8.12073 40.352 8.59739 40.534 9.33839L39.5677 9.55506C39.4247 9.15206 39.1214 8.94406 38.6534 8.94406C38.2504 8.94406 37.9904 9.09573 37.9904 9.31239C37.9904 9.49873 38.1767 9.58539 39.1084 9.80206C40.131 10.0404 40.664 10.4131 40.664 11.0977C40.664 11.8604 39.9664 12.3501 38.8787 12.3501C37.7347 12.3501 36.9937 11.8301 36.842 10.8941Z" fill="white"/>
<path d="M11.3186 14.9847L11.9513 14.8764C12.0379 15.2447 12.2459 15.3964 12.6576 15.3964C12.9739 15.3964 13.1559 15.2967 13.1559 15.1451C13.1559 14.9934 13.0259 14.9067 12.3846 14.7637C11.7216 14.6121 11.4183 14.3824 11.4183 13.9707C11.4183 13.5027 11.8516 13.1777 12.5146 13.1777C13.1473 13.1777 13.6239 13.4941 13.7453 13.9837L13.1126 14.1267C13.0259 13.8667 12.8179 13.7237 12.5146 13.7237C12.2546 13.7237 12.0813 13.8234 12.0813 13.9621C12.0813 14.0834 12.2026 14.1484 12.8093 14.2784C13.4853 14.4301 13.8189 14.6814 13.8189 15.1277C13.8189 15.6261 13.3639 15.9424 12.6533 15.9424C11.8949 15.9424 11.4139 15.5914 11.3186 14.9847Z" fill="white"/>
<path d="M14.092 14.8547V13.234H14.768V14.7983C14.768 15.1797 14.9544 15.34 15.3227 15.34C15.691 15.34 15.8774 15.1667 15.8774 14.7983V13.234H16.5534V14.8547C16.5534 15.5523 16.0984 15.9423 15.3227 15.9423C14.547 15.9423 14.092 15.561 14.092 14.8547Z" fill="white"/>
<path d="M16.9086 13.2427H18.3213C18.8976 13.2427 19.3093 13.5677 19.3093 14.144C19.3093 14.7203 18.8976 15.0453 18.3213 15.0453H17.5803V15.873H16.9043V13.2427H16.9086ZM18.2563 14.4733C18.4643 14.4733 18.6376 14.365 18.6376 14.1353C18.6376 13.897 18.473 13.8103 18.2693 13.8103H17.5716V14.4733H18.2563Z" fill="white"/>
<path d="M19.5735 13.2427H21.6058V13.832H20.2452V14.2783H21.4758V14.8113H20.2452V15.288H21.6058V15.8773H19.5735C19.5735 15.873 19.5735 13.2427 19.5735 13.2427Z" fill="white"/>
<path d="M24.3488 15.8731H23.6078L23.0532 15.0064H22.6198V15.8774H21.9438V13.2471H23.3565C23.9458 13.2471 24.3358 13.5721 24.3358 14.1267C24.3358 14.5514 24.0975 14.8461 23.7248 14.9544L24.3488 15.8731ZM23.3045 14.4301C23.5342 14.4301 23.6728 14.3217 23.6728 14.1137C23.6728 13.9057 23.5428 13.8104 23.3045 13.8104H22.6198V14.4301H23.3045Z" fill="white"/>
<path d="M25.5017 13.2427H26.1734V15.288H27.5124V15.8773H25.5017V13.2427Z" fill="white"/>
<path d="M27.8156 13.2427H29.8479V13.832H28.4786V14.2783H29.7092V14.8113H28.4786V15.288H29.8392V15.8773H27.8069V13.247H27.8156V13.2427Z" fill="white"/>
<path d="M32.1663 15.483H30.9053L30.7406 15.873H30.043L31.2173 13.2427H31.837L33.0113 15.873H32.3136L32.1663 15.483ZM31.928 14.9067L31.538 13.949H31.525L31.135 14.9067H31.928Z" fill="white"/>
<path d="M32.9072 14.5601C32.9072 13.7454 33.4966 13.1691 34.3112 13.1691C34.9526 13.1691 35.4292 13.5287 35.5636 14.0487L34.9439 14.2221C34.8572 13.9404 34.6406 13.7541 34.3242 13.7541C33.8779 13.7541 33.5832 14.0704 33.5832 14.5601C33.5832 15.0367 33.8779 15.3661 34.3242 15.3661C34.7056 15.3661 34.9222 15.2014 34.9439 14.9414H34.3459V14.4647H35.5982V14.8114C35.5982 15.5177 35.1086 15.9554 34.3242 15.9554C33.4836 15.9424 32.9072 15.3661 32.9072 14.5601Z" fill="white"/>
<path d="M35.8625 14.8547V13.234H36.5386V14.7983C36.5386 15.1797 36.7249 15.34 37.0932 15.34C37.4615 15.34 37.6479 15.1667 37.6479 14.7983V13.234H38.3239V14.8547C38.3239 15.5523 37.8689 15.9423 37.0932 15.9423C36.3219 15.9423 35.8625 15.561 35.8625 14.8547Z" fill="white"/>
<path d="M38.6489 13.2427H40.6813V13.832H39.3206V14.2783H40.5513V14.8113H39.3206V15.288H40.6813V15.8773H38.6489V13.2427Z" fill="white"/>
<path d="M39.6803 33.1543L38.2763 24.3576L25.9869 18.5813L13.7019 24.3576L12.9739 28.9596L15.7819 30.745L16.4363 26.3856L25.9956 21.8053L35.5549 26.3856L36.3393 31.6593L39.6803 33.1543ZM25.9999 26.9446L34.1683 30.9053L33.7869 28.3703C33.7306 27.9803 33.4836 27.6423 33.1239 27.469L25.9999 24.063L18.9756 27.4213C18.5509 27.6293 18.2563 28.0193 18.1913 28.4743L17.6799 31.8933L26.1646 37.232L28.6866 35.581L20.4879 30.719L20.6743 29.4796L25.9999 26.9446ZM11.3186 39.3856L25.9999 49.6556L40.6813 39.39L40.0703 35.5723L36.6859 33.9516L37.2753 37.8993L25.9999 45.4653L14.7203 37.8993L15.4396 33.1153L13.1646 31.6463L12.5969 31.2866L11.3186 39.3856ZM17.0386 36.179C16.9736 36.634 17.1686 37.0933 17.5499 37.3446L25.9913 43.0126L34.4326 37.3446C34.8139 37.0846 35.0219 36.6253 34.9439 36.179L34.5323 33.4056L26.1429 29.0333L23.3696 30.3723L32.0363 35.113L32.1143 35.776L25.9913 39.7886L17.3549 34.047L17.0386 36.179Z" fill="url(#paint0_linear_714_750)"/>
<path d="M17.3202 36.2136L17.5716 34.5063L25.9912 40.1049L32.4089 35.8973L32.3006 34.9179L23.9892 30.3723L26.1429 29.3409L34.2766 33.5789L34.6666 36.2223C34.7229 36.5689 34.5669 36.9199 34.2766 37.1149L25.9869 42.6833L17.7102 37.1149C17.4199 36.9199 17.2682 36.5603 17.3202 36.2136ZM33.8172 30.4243L33.5139 28.4223C33.4706 28.1189 33.2756 27.8676 33.0026 27.7376L25.9999 24.3923L19.0926 27.6986C18.7546 27.8633 18.5162 28.1753 18.4599 28.5479L17.9832 31.7763L26.1646 36.9199L28.1666 35.6156L20.1802 30.8836L20.4186 29.3193L26.0086 26.6456L33.8172 30.4243ZM16.1892 26.1863L25.9999 21.4846L31.6679 24.2016L35.8106 26.1819L36.5949 31.4469L38.9566 32.5129L38.0509 26.4333L37.7909 24.7043L25.9869 19.0623L14.2002 24.7173L13.8752 26.9229L13.5719 28.9899L15.5826 30.2726L16.1892 26.1863ZM25.9999 48.4379L39.9316 39.0736L39.4116 35.5593L37.0412 34.4283L37.5742 38.0379L26.0042 45.8119L14.4169 38.0293L15.1362 33.2453L13.1256 31.9496L12.0596 39.0736L25.9999 48.4379Z" fill="url(#paint1_linear_714_750)"/>
<defs>
<linearGradient id="paint0_linear_714_750" x1="17.2779" y1="49.0423" x2="33.1116" y2="21.6175" gradientUnits="userSpaceOnUse">
<stop offset="0.08" stop-color="#1E0F35"/>
<stop offset="0.2191" stop-color="#163B68"/>
<stop offset="0.3695" stop-color="#0E6498"/>
<stop offset="0.5126" stop-color="#0884BE"/>
<stop offset="0.6444" stop-color="#049BD9"/>
<stop offset="0.761" stop-color="#01A9E9"/>
<stop offset="0.85" stop-color="#00AEEF"/>
</linearGradient>
<linearGradient id="paint1_linear_714_750" x1="15.9458" y1="51.1546" x2="32.7197" y2="22.1014" gradientUnits="userSpaceOnUse">
<stop offset="8.07343e-08" stop-color="#870064"/>
<stop offset="0.2457" stop-color="#B61B56"/>
<stop offset="0.489" stop-color="#DE314B"/>
<stop offset="0.6818" stop-color="#F63F44"/>
<stop offset="0.8" stop-color="#FF4441"/>
</linearGradient>
</defs>
</svg>
