<svg width="128" height="128" viewBox="0 0 128 128" fill="none" xmlns="http://www.w3.org/2000/svg">
<g clip-path="url(#clip0_27_568)">
<g clip-path="url(#clip1_27_568)">
<path d="M128 63.9999C128 99.3455 99.3462 128 64.0002 128C28.6538 128 0 99.3455 0 63.9999C0 28.6535 28.6538 0 64.0002 0C99.3462 0 128 28.6535 128 63.9999Z" fill="#D0162D"/>
<path d="M20.2295 107.77C8.53803 96.0787 2.0992 80.534 2.0992 63.9998C2.0992 47.4655 8.53803 31.9207 20.2295 20.2294C31.921 8.5379 47.4657 2.09921 64.0002 2.09921C80.5345 2.09921 96.0791 8.5379 107.77 20.2294C119.462 31.9207 125.901 47.4655 125.901 63.9998C125.901 80.5339 119.462 96.0787 107.77 107.77C96.079 119.462 80.5344 125.901 64.0002 125.901C47.4659 125.901 31.921 119.462 20.2295 107.77Z" fill="white"/>
<path d="M64 123.802C48.0264 123.801 33.009 117.581 21.714 106.286C10.4189 94.9908 4.19839 79.9735 4.19839 63.9998C4.19851 48.0263 10.4189 33.0089 21.7141 21.7137C33.009 10.4188 48.0264 4.19839 63.9998 4.19839C79.9735 4.19839 94.9909 10.4189 106.286 21.7138C117.581 33.0089 123.801 48.0263 123.802 63.9999C123.802 79.9737 117.581 94.9912 106.286 106.286C94.9913 117.581 79.9738 123.802 64 123.802Z" fill="#D0162D"/>
<path d="M104.213 63.9998C104.213 86.2086 86.2088 104.213 64.0001 104.213C41.7912 104.213 23.7871 86.2086 23.7871 63.9998C23.7871 41.7909 41.7912 23.7871 64.0001 23.7871C86.2088 23.7871 104.213 41.7909 104.213 63.9998Z" fill="white"/>
<path d="M30.0866 96.3347L33.9761 100.01L33.0109 101.032L30.2449 98.4182L29.2175 99.5057L31.655 101.809L30.6896 102.83L28.2521 100.527L26.3834 102.505L25.2595 101.443L30.0866 96.3347Z" fill="white"/>
<path d="M32.9061 104.304L35.1661 100.984L36.4442 101.854L34.2069 105.141C33.5629 106.087 33.7025 106.899 34.4827 107.43C35.2628 107.961 36.058 107.81 36.6851 106.889L38.9507 103.56L40.2289 104.431L37.9973 107.709C36.7995 109.468 35.2242 109.659 33.6637 108.597C32.1034 107.535 31.7422 106.014 32.9061 104.304Z" fill="white"/>
<path d="M42.8523 107.353L40.9161 106.445L41.5213 105.154L46.794 107.626L46.1887 108.917L44.2523 108.009L41.8741 113.082L40.4741 112.425L42.8523 107.353Z" fill="white"/>
<path d="M48.2971 108.181L51.4315 109.089C52.2031 109.312 52.7493 109.7 53.0234 110.197C53.2428 110.595 53.2882 111.016 53.1487 111.498C52.9281 112.26 52.4003 112.567 51.8399 112.698C52.5346 113.223 52.8856 113.816 52.6177 114.742C52.2603 115.976 51.0786 116.303 49.5549 115.862L46.3432 114.933L48.2971 108.181ZM49.9317 114.56C50.5876 114.75 51.0501 114.633 51.2006 114.112C51.3318 113.659 51.0752 113.281 50.3133 113.061L48.5966 112.564L48.1668 114.049L49.9317 114.56ZM50.3234 111.726C50.9791 111.916 51.4554 111.824 51.6061 111.303C51.7345 110.859 51.4598 110.508 50.8329 110.326L49.3671 109.902L48.9539 111.33L50.3234 111.726Z" fill="white"/>
<path d="M54.9756 113.64C55.1842 111.653 56.923 110.191 59.0798 110.417C61.2367 110.644 62.6154 112.414 62.4045 114.421C62.1958 116.408 60.457 117.871 58.3002 117.644C56.1433 117.418 54.7647 115.647 54.9756 113.64ZM60.797 114.252C60.9228 113.054 60.149 111.963 58.9108 111.833C57.6727 111.703 56.7111 112.591 56.5831 113.809C56.4572 115.008 57.231 116.098 58.4692 116.229C59.7074 116.359 60.6689 115.47 60.797 114.252Z" fill="white"/>
<path d="M64.5506 110.845L66.0941 110.754L66.4271 116.366L69.9249 116.159L70.0082 117.562L64.9667 117.861L64.5506 110.845Z" fill="white"/>
<path d="M75.5877 113.069C75.0077 111.157 75.9737 109.154 78.0394 108.527C79.3077 108.142 80.1643 108.407 80.9755 108.832L80.4005 110.119C79.7388 109.805 79.2124 109.661 78.4437 109.894C77.3101 110.238 76.779 111.427 77.1346 112.599C77.4845 113.752 78.5733 114.471 79.7263 114.121C80.495 113.888 80.8724 113.438 81.2551 112.797L82.5028 113.52C82.0355 114.47 81.3893 115.107 80.0921 115.5C78.113 116.101 76.1796 115.019 75.5877 113.069Z" fill="white"/>
<path d="M82.2996 107.139L83.6917 106.466L86.1383 111.529L89.2932 110.004L89.9049 111.27L85.3579 113.467L82.2996 107.139Z" fill="white"/>
<path d="M90.261 107.612L87.9836 104.304L89.2571 103.428L91.5119 106.703C92.1608 107.645 92.9682 107.809 93.7456 107.273C94.5228 106.738 94.6698 105.942 94.0378 105.025L91.7547 101.708L93.0282 100.832L95.2772 104.098C96.4842 105.851 96.0921 107.389 94.5375 108.459C92.9827 109.53 91.4339 109.316 90.261 107.612Z" fill="white"/>
<path d="M94.5371 99.5656L96.8822 97.2965C97.4594 96.738 98.0675 96.4569 98.6354 96.4662C99.0896 96.4737 99.4775 96.6435 99.8265 97.0042C100.378 97.5742 100.382 98.185 100.217 98.7361C101.018 98.3942 101.707 98.3843 102.377 99.077C103.271 100.001 102.967 101.188 101.827 102.292L99.4242 104.616L94.5371 99.5656ZM98.6199 99.5689C99.1106 99.0943 99.2671 98.6353 98.8901 98.2456C98.569 97.9137 98.1277 97.9774 97.6586 98.4313L96.5619 99.4925L97.5954 100.56L98.6199 99.5689ZM100.884 101.317C101.375 100.843 101.503 100.383 101.126 99.9937C100.798 99.6545 100.343 99.6898 99.7733 100.241L98.4889 101.484L99.5641 102.595L100.884 101.317Z" fill="white"/>
<path d="M26.0021 30.7523C23.4687 27.8819 23.5198 23.5122 26.6099 20.7848C28.3966 19.2079 29.9343 18.7365 31.7772 18.6992L31.837 21.0693C30.4517 21.0937 29.3006 21.3539 27.9974 22.5044C26.1081 24.1717 26.1335 27.0932 27.8913 29.0849C29.7524 31.1938 32.5138 31.5183 34.6081 29.6698C35.5746 28.8168 36.1818 27.7337 36.398 26.7094L34.7048 24.7908L32.0833 27.1044L30.7003 25.5375L35.0644 21.6857L38.8645 25.9914C38.6165 27.7472 37.8131 29.759 35.9973 31.3618C32.7899 34.1924 28.6647 33.7692 26.0021 30.7523Z" fill="white"/>
<path d="M36.4709 14.1706L38.5973 13.0521L44.9629 25.1528L42.8366 26.2713L36.4709 14.1706Z" fill="white"/>
<path d="M44.478 10.2693L50.3752 8.73158C53.4749 7.92322 55.7231 9.11337 56.3884 11.6649C56.9553 13.8386 55.9913 15.4828 54.2769 16.495L59.1553 20.5722L56.4147 21.2869L51.9233 17.5327L49.0503 18.2818L50.2531 22.8937L47.9282 23.4999L44.478 10.2693ZM51.9153 15.3346C53.5786 14.9007 54.4103 13.7554 54.0505 12.3755C53.6808 10.958 52.4582 10.4493 50.7382 10.8977L47.3549 11.78L48.5132 16.2216L51.9153 15.3346Z" fill="white"/>
<path d="M59.6068 13.6167C59.8147 9.77427 62.9537 6.7166 67.1471 6.9437C71.3405 7.17081 74.094 10.5084 73.8839 14.3898C73.6758 18.232 70.5369 21.2898 66.3434 21.0627C62.15 20.8356 59.3964 17.4979 59.6068 13.6167ZM71.3678 14.2536C71.5115 11.6009 69.6999 9.29238 66.9888 9.1456C64.2777 8.99877 62.2685 11.0613 62.1228 13.7529C61.9791 16.4054 63.7907 18.714 66.5017 18.8609C69.2128 19.0077 71.222 16.945 71.3678 14.2536Z" fill="white"/>
<path d="M79.5349 8.91759L81.6034 9.74226L84.9058 21.2367L88.4072 12.4552L90.6027 13.3305L85.5386 26.0311L83.6697 25.286L80.2691 13.4579L76.6662 22.4935L74.4708 21.6183L79.5349 8.91759Z" fill="white"/>
<path d="M100.86 20.5L102.53 21.9729L97.9332 36.28L96.0288 34.6004L97.1722 31.2072L92.3233 26.9306L89.085 28.4762L87.2392 26.8481L100.86 20.5ZM97.9212 29.0292L99.7665 23.3641L94.3909 25.9152L97.9212 29.0292Z" fill="white"/>
<path fill-rule="evenodd" clip-rule="evenodd" d="M102.007 64.1031L64.1028 102.008C68.7656 101.995 73.2286 101.14 77.3534 99.5918L99.5915 77.3537C101.14 73.2289 101.995 68.7658 102.007 64.1031Z" fill="#D0162D"/>
<path fill-rule="evenodd" clip-rule="evenodd" d="M97.7619 46.5446L46.5443 97.7623C49.0076 99.0385 51.6243 100.059 54.3656 100.776L100.775 54.3659C100.059 51.6246 99.0382 49.008 97.7619 46.5446Z" fill="#D0162D"/>
<path fill-rule="evenodd" clip-rule="evenodd" d="M88.019 34.5443L34.5441 88.0189C36.163 90.0019 37.9776 91.8183 39.9594 93.4387L93.4384 39.9597C91.818 37.9778 90.002 36.1633 88.019 34.5443Z" fill="#D0162D"/>
<path fill-rule="evenodd" clip-rule="evenodd" d="M73.6128 27.2183L27.2187 73.6127C27.9335 76.3552 28.9535 78.9729 30.2287 81.4375L81.4375 30.2287C78.9729 28.9535 76.3553 27.9331 73.6128 27.2183Z" fill="#D0162D"/>
<path fill-rule="evenodd" clip-rule="evenodd" d="M63.9435 25.9911C59.292 25.9979 54.8382 26.8432 50.7205 28.379L28.379 50.7204C26.8433 54.8381 25.998 59.2917 25.9911 63.9431L63.9435 25.9911Z" fill="#D0162D"/>
<path d="M64 26.0656C67.0246 29.0902 98.9096 60.9753 101.934 64C98.9096 67.0246 67.0246 98.9097 64 101.934C60.9753 98.9097 29.0903 67.0246 26.0656 64C29.0903 60.9753 60.9753 29.0902 64 26.0656Z" fill="white"/>
<path d="M64 29.1492C66.7788 31.928 96.0719 61.2212 98.8506 64C96.0719 66.7788 66.7788 96.072 64 98.8509C61.2212 96.072 31.928 66.7788 29.1492 64C31.928 61.2212 61.2212 31.928 64 29.1492Z" fill="#FFB607"/>
<path d="M44.6312 48.5181L36.8835 56.2657V71.7344C39.5369 74.3878 41.1029 75.9538 44.6312 79.4821V48.5181Z" fill="#D0162D"/>
<path d="M83.3684 48.5177V79.4824C86.8966 75.9541 88.4626 74.3882 91.116 71.7347V56.2654C88.4626 53.6119 86.8966 52.046 83.3684 48.5177Z" fill="#D0162D"/>
<path d="M60.1261 33.0231L52.3788 40.7704V87.2297C55.6172 90.4681 58.3451 93.1959 60.1275 94.9783L60.1261 33.0231Z" fill="#D0162D"/>
<path d="M67.8734 33.0224C67.8733 51.7564 67.8734 76.2509 67.8734 94.9777C69.6557 93.1954 72.383 90.4681 75.6207 87.2304C75.6219 73.1599 75.6212 54.8392 75.6207 40.7697C72.383 37.532 69.6557 34.8047 67.8734 33.0224Z" fill="#D0162D"/>
<path d="M47.5244 48.9941V74.2772C47.5389 76.2297 47.555 78.4312 49.2915 80.1252C50.5825 81.3846 51.8306 81.8247 54.0615 81.8074H60.1052C61.07 81.8074 61.5939 81.8796 62.9481 83.5052L64 84.7678L65.0514 83.5052C66.4057 81.8796 66.9295 81.8074 67.8943 81.8074H73.9489C76.1689 81.8247 77.4172 81.3846 78.7081 80.1252C80.4445 78.4312 80.4608 76.2297 80.4751 74.2873V48.9941H47.5244Z" fill="white"/>
<path d="M64 82.6287C62.5171 80.8489 61.6493 80.4382 60.1052 80.4382H54.0508C52.1036 80.4535 51.2349 80.1085 50.2476 79.1452C49.0001 77.9282 48.9089 76.3461 48.8936 74.2771V50.3632H79.1059V74.2771C79.0907 76.3461 78.9994 77.9282 77.7519 79.1452C76.7645 80.1085 75.8961 80.4535 73.9488 80.4382H67.8943C66.3501 80.4382 65.4824 80.8489 63.9995 82.6287H64Z" fill="#D0162D"/>
<path d="M77.6731 52.8632C77.4188 52.7483 77.1448 52.6925 76.8693 52.6925H76.8698C75.8204 52.6925 74.7929 53.5018 74.7929 55.3046V57.849C74.7932 58.6133 74.7621 58.8701 74.4811 59.2722C74.1839 59.6519 73.5861 59.8227 72.5794 59.8227H72.5799C71.5731 59.8227 70.9753 59.6519 70.6781 59.2722C70.3971 58.8701 70.3661 58.6133 70.3663 57.849V55.3046C70.3663 53.5018 69.3388 52.6925 68.2894 52.6925H68.2899C67.2406 52.6925 66.2131 53.5018 66.2131 55.3046V57.849C66.2133 58.6133 66.1823 58.8701 65.9012 59.2722C65.6041 59.6519 65.0062 59.8227 63.9996 59.8227H64C62.9934 59.8227 62.3955 59.6519 62.0984 59.2722C61.8172 58.8701 61.7862 58.6133 61.7864 57.849V55.3046C61.7864 53.5018 60.759 52.6925 59.7096 52.6925H59.7101C58.6608 52.6925 57.6332 53.5018 57.6332 55.3046V57.849C57.6335 58.6133 57.6024 58.8701 57.3214 59.2722C57.0243 59.6519 56.4264 59.8227 55.4197 59.8227H55.4202C54.4135 59.8227 53.8156 59.6519 53.5185 59.2722C53.2375 58.8701 53.2063 58.6133 53.2067 57.849V55.3046C53.2067 53.5018 52.1791 52.6925 51.1298 52.6925H51.1303C50.8455 52.6925 50.5623 52.7522 50.3008 52.8751L50.2628 52.8961C50.2628 52.3662 50.2628 51.967 50.2628 51.7323H77.7369C77.7369 51.967 77.7369 52.3662 77.7369 52.8961L77.6731 52.8632Z" fill="white"/>
<path d="M77.6365 65.1111C77.3926 65.007 77.1316 64.9564 76.8693 64.9564H76.8698C75.8204 64.9563 74.7929 65.7658 74.7929 67.5684V70.1129C74.7932 70.8773 74.7621 71.1339 74.4811 71.5361C74.1839 71.916 73.5861 72.0866 72.5794 72.0866H72.5799C71.5731 72.0866 70.9753 71.916 70.6781 71.5361C70.3971 71.1339 70.3661 70.8773 70.3663 70.1129V67.5684C70.3663 65.7658 69.3388 64.9563 68.2894 64.9564H68.2899C67.2406 64.9563 66.2131 65.7658 66.2131 67.5684V70.1129C66.2133 70.8773 66.1823 71.1339 65.9012 71.5361C65.6041 71.916 65.0062 72.0866 63.9996 72.0866H64C62.9934 72.0866 62.3955 71.916 62.0984 71.5361C61.8172 71.1339 61.7862 70.8773 61.7864 70.1129V67.5684C61.7864 65.7658 60.759 64.9563 59.7096 64.9564H59.7101C58.6608 64.9563 57.6332 65.7658 57.6332 67.5684V70.1129C57.6335 70.8773 57.6024 71.1339 57.3214 71.5361C57.0243 71.916 56.4264 72.0866 55.4197 72.0866H55.4202C54.4135 72.0866 53.8156 71.916 53.5185 71.5361C53.2375 71.1339 53.2063 70.8773 53.2067 70.1129V67.5684C53.2067 65.7658 52.1791 64.9563 51.1298 64.9564H51.1303C50.8504 64.9564 50.572 65.0141 50.3143 65.1328L50.2628 65.1554C50.2628 63.0179 50.2628 60.7688 50.2628 58.7264L50.3026 58.7211C50.5355 58.6923 50.8069 58.6818 51.1303 58.6818H51.1298C52.0255 58.6818 52.5218 58.7616 52.9098 59.0925C53.2051 59.342 53.3433 59.8117 53.3433 60.6786V63.1999C53.3433 65.0026 54.3708 65.812 55.4202 65.812H55.4197C56.4691 65.812 57.4966 65.0026 57.4966 63.1999V60.6786C57.4966 59.8117 57.635 59.342 57.9302 59.0925C58.3181 58.7616 58.8144 58.6818 59.7101 58.6818H59.7096C60.6054 58.6818 61.1017 58.7616 61.4897 59.0925C61.7849 59.342 61.9232 59.8117 61.9232 60.6786V63.1999C61.9232 65.0026 62.9506 65.812 64 65.812H63.9996C65.0488 65.812 66.0764 65.0026 66.0764 63.1999V60.6786C66.0764 59.8117 66.2147 59.342 66.5099 59.0925C66.898 58.7616 67.3942 58.6818 68.2899 58.6818H68.2894C69.1851 58.6818 69.6815 58.7616 70.0694 59.0925C70.3648 59.342 70.5031 59.8117 70.5031 60.6786V63.1999C70.5031 65.0026 71.5305 65.812 72.5799 65.812H72.5794C73.6287 65.812 74.6563 65.0026 74.6563 63.1999V60.6786C74.6563 59.8117 74.7945 59.342 75.0898 59.0925C75.4777 58.7616 75.9741 58.6818 76.8698 58.6818H76.8693C77.1792 58.6818 77.4414 58.6914 77.6678 58.7175L77.7368 58.7225C77.7368 60.7642 77.7368 63.0126 77.7368 65.1498L77.6365 65.1111Z" fill="white"/>
<path d="M77.7368 71.0522C77.7368 72.995 77.7368 74.2671 77.7368 74.2671C77.7212 76.3839 77.7977 77.704 77.0065 78.4759C76.3517 79.1148 75.6748 79.0826 73.9489 79.0691H67.8943C66.3129 79.0691 65.2039 79.4916 63.9998 80.6254C62.7956 79.4916 61.6867 79.0691 60.1052 79.0691H54.0508C52.3247 79.0826 51.6478 79.1148 50.993 78.4759C50.2018 77.704 50.2782 76.3839 50.2628 74.2671C50.2628 74.2671 50.2628 72.9684 50.2628 70.9912L50.3081 70.9842C50.5398 70.9559 50.8094 70.9457 51.1302 70.9457H51.1298C52.0254 70.9457 52.5217 71.0255 52.9098 71.3565C53.205 71.606 53.3433 72.0755 53.3433 72.9425V75.4637C53.3433 77.2665 54.3707 78.0759 55.4201 78.0757H55.4196C56.469 78.0759 57.4965 77.2665 57.4965 75.4637V72.9425C57.4965 72.0755 57.635 71.606 57.9301 71.3565C58.318 71.0255 58.8143 70.9457 59.71 70.9457H59.7095C60.6053 70.9457 61.1016 71.0255 61.4896 71.3565C61.7849 71.606 61.9231 72.0755 61.9231 72.9425V75.4637C61.9231 77.2665 62.9506 78.0759 64 78.0757H63.9995C65.0488 78.0759 66.0763 77.2665 66.0763 75.4637V72.9425C66.0763 72.0755 66.2146 71.606 66.5099 71.3565C66.8979 71.0255 67.3942 70.9457 68.2898 70.9457H68.2894C69.1851 70.9457 69.6814 71.0255 70.0694 71.3565C70.3647 71.606 70.503 72.0755 70.503 72.9425V75.4637C70.503 77.2665 71.5304 78.0759 72.5798 78.0757H72.5794C73.6286 78.0759 74.6562 77.2665 74.6562 75.4637V72.9425C74.6562 72.0755 74.7944 71.606 75.0897 71.3565C75.4776 71.0255 75.974 70.9457 76.8697 70.9457H76.8692C77.2147 70.9457 77.5008 70.9575 77.7441 70.9912L77.7368 71.0522Z" fill="white"/>
</g>
</g>
<defs>
<clipPath id="clip0_27_568">
<rect width="128" height="128" fill="white"/>
</clipPath>
<clipPath id="clip1_27_568">
<rect width="128" height="128" fill="white"/>
</clipPath>
</defs>
</svg>
