<svg width="128" height="128" viewBox="0 0 128 128" fill="none" xmlns="http://www.w3.org/2000/svg">
<g clip-path="url(#clip0_27_431)">
<path d="M121.946 4.17126C104.474 1.51401 84.9792 0.0302734 64.4294 0.0302734C43.8796 0.0302734 24.3911 1.51401 6.91895 4.17126V52.163C6.93119 92.7258 30.4525 115.539 63.4926 127.668L64.4314 127.97H64.4355L65.3723 127.668C98.4144 115.539 121.932 92.7279 121.944 52.163V4.17126H121.946Z" fill="#1BB1E7"/>
<path d="M117.974 8.14284C101.708 5.66927 83.5608 4.28963 64.4294 4.28963C45.298 4.28963 27.1565 5.66927 10.8905 8.14284V53.6222C10.9028 91.3849 32.7975 112.623 63.5579 123.913L64.4314 124.192H64.4335L65.307 123.913C96.0674 112.623 117.96 91.3849 117.972 53.6222V8.14284H117.974Z" fill="#8F2138"/>
<path d="M90.857 103.359C91.704 104.208 93.0612 103.31 94.453 101.918C95.8429 100.528 96.7409 99.171 95.8939 98.3219L42.8 46.5668C41.953 45.7178 40.4366 45.8586 39.4141 46.8811C38.3916 47.9036 38.2508 49.418 39.0998 50.267L90.857 103.359Z" fill="#C7A13E"/>
<path d="M44.447 45.775L48.79 40.6666C48.79 40.6666 49.2002 40.1196 48.5614 39.3441C46.8858 37.3052 43.5286 34.3316 43.5286 34.3316C43.0428 33.9684 42.7142 34.0561 42.1755 34.5725C39.5162 37.1215 32.7526 43.6585 32.3444 44.0831C31.8322 44.6096 31.5975 44.9647 31.7628 45.8688C31.9281 46.7791 32.4118 48.2934 31.575 49.7629L27.0034 56.957C26.432 57.8346 26.2646 58.6122 26.6952 59.0326C26.9259 59.2592 27.5075 59.5204 28.6872 58.702C29.2525 58.3102 35.467 54.1263 37.4487 52.4977C38.61 51.5425 39.4937 50.6752 39.4937 50.6752L43.2449 46.9954C43.2449 46.9954 44.0347 46.2199 44.4449 45.7729L44.447 45.775Z" fill="#F5D34C"/>
<path d="M28.7178 58.2428C27.4198 59.1224 27.4238 59.251 27.6055 59.2265C27.8912 59.1632 28.2484 59.0102 28.6892 58.704C29.2545 58.3122 35.4691 54.1283 37.4508 52.4997C38.2692 51.8262 38.9488 51.1976 39.2794 50.8854C38.2569 51.1017 36.9548 51.5997 36.163 52.2609C35.1017 53.1467 30.575 56.9856 28.7178 58.2448V58.2428Z" fill="#C7A13E"/>
<path d="M44.447 45.775L48.79 40.6666C48.79 40.6666 49.0431 40.3278 48.839 39.8033C48.839 39.8033 48.4818 39.3992 47.2287 40.8605C46.1756 42.0891 45.6776 42.5667 44.7919 43.6279C44.1082 44.4463 43.6 45.8117 43.3959 46.8485C43.6449 46.6015 44.147 46.1015 44.447 45.775Z" fill="#C7A13E"/>
<path d="M38.1243 103.359C37.2773 104.208 35.9201 103.31 34.5282 101.918C33.1384 100.528 32.2404 99.171 33.0873 98.3219L86.1997 46.5464C87.0466 45.6974 88.563 45.8382 89.5855 46.8607C90.608 47.8832 90.7488 49.3975 89.8998 50.2466L38.1222 103.359H38.1243Z" fill="#C7A13E"/>
<path d="M37.6079 102.849L87.163 51.9589C88.0099 51.1099 87.8691 49.5955 86.8487 48.573C86.3139 48.0383 85.6445 47.7465 85.0078 47.7097L33.0894 98.3219C32.2812 99.1322 33.0608 100.404 34.3425 101.726C35.616 102.928 36.8303 103.63 37.61 102.847L37.6079 102.849Z" fill="#F5D34C"/>
<path d="M84.5547 45.7545L80.2117 40.6462C80.2117 40.6462 79.8014 40.0992 80.4382 39.3237C82.1138 37.2848 85.4711 34.3112 85.4711 34.3112C85.9568 33.948 86.2874 34.0357 86.8242 34.5521C89.4835 37.1011 96.247 43.6381 96.6552 44.0626C97.1674 44.5892 97.4021 44.9443 97.2368 45.8484C97.0736 46.7587 96.5878 48.273 97.4246 49.7425L101.996 56.9366C102.568 57.8142 102.735 58.5918 102.304 59.0122C102.074 59.2388 101.492 59.5 100.312 58.6816C99.7471 58.2897 93.5326 54.1059 91.5509 52.4773C90.3896 51.5221 89.5059 50.6547 89.5059 50.6547L85.7547 46.975C85.7547 46.975 84.9649 46.1995 84.5547 45.7525V45.7545Z" fill="#F5D34C"/>
<path d="M100.284 58.2224C101.582 59.102 101.578 59.2306 101.396 59.2061C101.11 59.1428 100.753 58.9898 100.312 58.6836C99.7471 58.2918 93.5326 54.1079 91.5509 52.4793C90.7325 51.8058 90.0529 51.1772 89.7222 50.865C90.7447 51.0813 92.0468 51.5793 92.8387 52.2405C93.9 53.1263 98.4246 56.9652 100.284 58.2244V58.2224Z" fill="#C7A13E"/>
<path d="M84.5547 45.7545L80.2117 40.6462C80.2117 40.6462 79.9586 40.3074 80.1627 39.7829C80.1627 39.7829 80.5198 39.3788 81.7729 40.8401C82.826 42.0687 83.324 42.5463 84.2098 43.6075C84.8935 44.4259 85.4017 45.7913 85.6058 46.8281C85.3568 46.5811 84.8547 46.0811 84.5547 45.7545Z" fill="#C7A13E"/>
<path d="M92.9183 47.2362C92.5081 47.6444 91.8468 47.6444 91.4366 47.2362L89.212 45.0117C88.8018 44.6035 88.8018 43.9402 89.212 43.532C89.6222 43.1218 90.2835 43.1218 90.6937 43.532L92.9183 45.7566C93.3285 46.1648 93.3285 46.8281 92.9183 47.2383V47.2362Z" fill="#C7A13E"/>
<path d="M44.2959 48.024C43.651 48.0097 42.9551 48.2853 42.4081 48.8302C41.4591 49.7792 41.3264 51.1895 42.1142 51.9772L64.6702 75.0578L68.2295 71.3964L44.2939 48.024H44.2959Z" fill="#F5D34C"/>
<path d="M95.8919 98.3219L69.1275 72.2372C68.7071 72.425 68.3132 72.6903 67.9683 73.0352C66.5744 74.4292 66.4662 76.619 67.6418 78.1375L91.5795 102.681C92.3672 103.471 93.6285 102.634 94.9225 101.342C95.1408 101.124 95.347 100.906 95.5327 100.691C96.2225 99.7608 96.4858 98.9159 95.8919 98.3199V98.3219Z" fill="#F5D34C"/>
<path d="M90.4406 45.777C90.3957 45.8199 90.3243 45.8219 90.2794 45.777C90.2345 45.7321 90.2345 45.6607 90.2794 45.6158L91.2999 44.5953C91.3447 44.5504 91.4162 44.5504 91.4611 44.5953C91.506 44.6402 91.506 44.7116 91.4611 44.7565L90.4406 45.777Z" fill="#F5D34C"/>
<path d="M90.7774 46.1158C90.7345 46.1586 90.6631 46.1607 90.6202 46.1158C90.5774 46.0729 90.5774 46.0015 90.6202 45.9586C90.6631 45.9158 90.7345 45.9158 90.7774 45.9586C90.8203 46.0035 90.8203 46.0729 90.7774 46.1158Z" fill="#F5D34C"/>
<path d="M90.0774 45.4158C90.0345 45.4586 89.9631 45.4586 89.9202 45.4158C89.8773 45.3729 89.8773 45.3015 89.9202 45.2586C89.9631 45.2158 90.0345 45.2158 90.0774 45.2586C90.1223 45.3015 90.1202 45.3729 90.0774 45.4158Z" fill="#F5D34C"/>
<path d="M90.8998 44.0361L90.5508 43.6851C90.5059 43.6422 90.4345 43.6422 90.3896 43.6851C90.3447 43.73 90.3447 43.8014 90.3896 43.8463L90.4447 43.9035C90.4651 43.9239 90.4651 43.9565 90.4447 43.979L89.5406 44.8831C89.4957 44.928 89.4957 44.9994 89.5406 45.0423C89.5855 45.0872 89.6569 45.0872 89.7018 45.0423L90.608 44.1361C90.6304 44.1218 90.659 44.1218 90.6794 44.1402L90.7366 44.1973C90.7815 44.2422 90.8529 44.2402 90.8978 44.1973C90.9427 44.1524 90.9427 44.081 90.8978 44.0361H90.8998Z" fill="#F5D34C"/>
<path d="M92.7673 45.9178C92.7305 45.8668 92.6591 45.8566 92.6081 45.8933L92.0162 46.3219C91.9917 46.3403 91.957 46.3382 91.9346 46.3158C91.9142 46.2974 91.9121 46.2668 91.9223 46.2444L92.0427 46.0015C92.0631 45.9607 92.057 45.9137 92.0305 45.8811C92.0305 45.8811 92.0264 45.877 92.0244 45.875C92.0244 45.875 92.0244 45.8729 92.0223 45.8709C92.0223 45.8709 92.0203 45.8709 92.0182 45.8668C92.0182 45.8668 92.0142 45.8627 92.0121 45.8627C91.9795 45.8362 91.9325 45.8301 91.8917 45.8505L91.6488 45.9709C91.6264 45.9831 91.5958 45.979 91.5774 45.9586C91.555 45.9362 91.5529 45.9015 91.5713 45.877L91.9999 45.2851C92.0366 45.2341 92.0244 45.1627 91.9754 45.1259C91.9244 45.0892 91.8529 45.1015 91.8182 45.1504L90.9713 46.3199C90.9386 46.3648 90.9447 46.426 90.9815 46.4627C90.9815 46.4627 90.9856 46.4668 90.9876 46.4689C91.0203 46.4995 91.0713 46.5076 91.1141 46.4872L91.5305 46.2811C91.5529 46.2709 91.5815 46.275 91.5999 46.2933C91.6203 46.3138 91.6223 46.3423 91.6101 46.3668L91.406 46.7791C91.3835 46.8219 91.3937 46.8709 91.4244 46.9056C91.4244 46.9056 91.4284 46.9077 91.4284 46.9097C91.4672 46.9485 91.5284 46.9526 91.5733 46.9199L92.7407 46.0729C92.7918 46.0362 92.802 45.9648 92.7652 45.9137L92.7673 45.9178Z" fill="#F5D34C"/>
<path d="M39.7896 43.5483C40.1978 43.9586 40.1978 44.6198 39.7896 45.03L37.5651 47.2546C37.1569 47.6648 36.4936 47.6648 36.0854 47.2546C35.6752 46.8444 35.6752 46.1831 36.0854 45.7729L38.31 43.5483C38.7182 43.1381 39.3815 43.1381 39.7917 43.5483H39.7896Z" fill="#C7A13E"/>
<path d="M38.3304 46.026C38.3753 46.0709 38.3753 46.1423 38.3304 46.1872C38.2855 46.2321 38.2141 46.2321 38.1692 46.1872L37.1487 45.1668C37.1038 45.1219 37.1038 45.0504 37.1487 45.0055C37.1936 44.9606 37.2651 44.9606 37.31 45.0055L38.3304 46.026Z" fill="#F5D34C"/>
<path d="M38.6712 45.6892C38.7141 45.7321 38.7161 45.8035 38.6712 45.8464C38.6284 45.8892 38.5569 45.8892 38.5141 45.8464C38.4712 45.8035 38.4692 45.7321 38.5141 45.6892C38.5569 45.6464 38.6284 45.6464 38.6712 45.6892Z" fill="#F5D34C"/>
<path d="M37.9692 46.3893C38.012 46.4321 38.012 46.5036 37.9692 46.5464C37.9263 46.5893 37.8549 46.5893 37.812 46.5464C37.7692 46.5015 37.7692 46.4321 37.812 46.3893C37.8549 46.3444 37.9263 46.3464 37.9692 46.3893Z" fill="#F5D34C"/>
<path d="M36.5895 45.5688L36.2405 45.9178C36.1956 45.9627 36.1956 46.0341 36.2405 46.0791C36.2854 46.124 36.3569 46.124 36.3997 46.0791L36.4569 46.0239C36.4773 46.0035 36.5099 46.0035 36.5324 46.0239L37.4344 46.9281C37.4793 46.973 37.5508 46.973 37.5957 46.9281C37.6406 46.8832 37.6406 46.8117 37.5957 46.7668L36.6895 45.8607C36.6732 45.8403 36.6752 45.8097 36.6936 45.7892L36.7507 45.7321C36.7956 45.6872 36.7956 45.6158 36.7507 45.5709C36.7058 45.526 36.6344 45.526 36.5895 45.5709V45.5688Z" fill="#F5D34C"/>
<path d="M38.4712 43.7014C38.4202 43.7381 38.408 43.8096 38.4467 43.8606L38.8753 44.4525C38.8937 44.4769 38.8916 44.5116 38.8692 44.5341C38.8508 44.5525 38.8202 44.5565 38.7978 44.5443L38.5549 44.4239C38.5141 44.4035 38.4671 44.4096 38.4345 44.4361C38.4345 44.4361 38.4345 44.4361 38.4324 44.4361C38.4324 44.4361 38.4284 44.4382 38.4263 44.4402C38.4263 44.4402 38.4243 44.4402 38.4222 44.4422C38.4222 44.4422 38.4202 44.4443 38.4182 44.4463C38.4182 44.4463 38.4141 44.4504 38.4141 44.4525C38.3875 44.4851 38.3814 44.532 38.4018 44.5729L38.5222 44.8157C38.5345 44.8402 38.5304 44.8688 38.51 44.8872C38.4875 44.9096 38.4529 44.9117 38.4284 44.8933L37.8365 44.4627C37.7855 44.4259 37.7141 44.4382 37.6794 44.4871C37.6426 44.5382 37.6549 44.6096 37.7038 44.6443L38.8712 45.4913C38.9161 45.5239 38.9774 45.5178 39.0161 45.4811C39.0161 45.4811 39.0202 45.477 39.0202 45.4749C39.0202 45.4749 39.0202 45.4749 39.0223 45.4749C39.0529 45.4423 39.061 45.3913 39.0386 45.3484L38.8325 44.9321C38.8223 44.9096 38.8263 44.881 38.8447 44.8627C38.8651 44.8423 38.8957 44.8382 38.9182 44.8525L39.3304 45.0566C39.3733 45.079 39.4223 45.0688 39.457 45.0402C39.457 45.0402 39.4611 45.0361 39.4611 45.0341C39.4978 44.9953 39.5039 44.9341 39.4713 44.8892L38.6243 43.7218C38.5876 43.6708 38.5182 43.6606 38.4671 43.6973L38.4712 43.7014Z" fill="#F5D34C"/>
<path d="M43.5551 30.8131C41.5489 31.0029 39.6386 29.658 39.5835 27.5477C39.5223 25.6068 39.4611 23.6639 39.3998 21.723C40.3101 21.6515 40.7672 21.6168 41.6775 21.5536C41.7326 23.4945 41.7877 25.4374 41.8448 27.3783C41.8734 28.3457 42.5204 28.8151 43.4877 28.7518C43.6224 28.7437 43.6898 28.7375 43.8245 28.7294C44.7919 28.6661 45.4123 28.1151 45.3899 27.1477C45.3429 25.2047 45.296 23.2639 45.249 21.3209C46.1613 21.2658 46.6185 21.2413 47.5308 21.1944C47.5716 23.1373 47.6124 25.0782 47.6553 27.0211C47.6879 29.1396 45.9368 30.6948 43.8918 30.7907C43.7571 30.7988 43.6898 30.8029 43.5571 30.8131H43.5551Z" fill="white"/>
<path d="M49.2737 21.125C50.3329 21.074 50.8636 21.0515 51.9228 21.0107C53.1126 22.9271 54.2963 24.8476 55.4699 26.7742C55.4801 26.7742 55.4862 26.7742 55.4964 26.7742C55.478 24.8149 55.4576 22.8536 55.4392 20.8944C56.3536 20.8699 56.8107 20.8576 57.723 20.8393C57.7495 23.9129 57.774 26.9844 57.8006 30.058C56.7577 30.0805 56.2352 30.0927 55.1943 30.1233C54.0208 28.2028 52.8371 26.2885 51.6473 24.3782C51.6371 24.3782 51.6309 24.3782 51.6207 24.3782C51.6493 26.3334 51.6779 28.2885 51.7064 30.2437C50.8044 30.2805 50.3533 30.3009 49.4492 30.3437C49.39 27.2722 49.3329 24.1986 49.2737 21.127V21.125Z" fill="white"/>
<path d="M59.4006 20.8127C60.3149 20.7984 60.7721 20.7923 61.6864 20.7842C61.6966 23.8578 61.7089 26.9293 61.7191 30.0029C60.815 30.0111 60.3639 30.0172 59.4598 30.0315C59.4394 26.9579 59.421 23.8863 59.4006 20.8127Z" fill="white"/>
<path d="M66.2825 22.7108C65.107 22.7046 64.5192 22.7046 63.3436 22.7087C63.3436 21.9352 63.3436 21.5475 63.3416 20.774C66.0682 20.774 68.7949 20.7964 71.5195 20.8474C71.5134 21.6209 71.5093 22.0087 71.5032 22.7822C70.3276 22.7557 69.7398 22.7455 68.5643 22.7312C68.552 25.1598 68.5398 27.5885 68.5275 30.0151C67.6234 30.0029 67.1724 29.9988 66.2682 29.9947C66.2744 27.5661 66.2785 25.1374 66.2846 22.7108H66.2825Z" fill="white"/>
<path d="M73.1746 20.8842C75.238 20.9454 77.2993 21.0209 79.3606 21.1107C79.3463 21.8842 79.3382 22.272 79.3239 23.0455C77.7667 22.972 76.9891 22.9414 75.4319 22.8883C75.4217 23.5577 75.4176 23.8945 75.4094 24.5639C76.6768 24.6068 77.3115 24.6313 78.5789 24.6884C78.5647 25.4619 78.5585 25.8476 78.5443 26.6211C77.2789 26.566 76.6483 26.5395 75.3829 26.4966C75.3727 27.1926 75.3686 27.5416 75.3584 28.2375C76.9768 28.2926 77.7871 28.3253 79.4055 28.4028C79.3912 29.1763 79.3831 29.5621 79.3688 30.3356C77.2707 30.2437 75.1727 30.1662 73.0746 30.1009C73.1073 27.0273 73.142 23.9557 73.1746 20.8821V20.8842Z" fill="white"/>
<path d="M81.0954 21.1781C82.5567 21.2515 83.2873 21.2944 84.7465 21.3862C87.3977 21.4862 89.4814 23.6537 89.4079 26.313C89.3365 28.9233 87.1038 30.8519 84.5118 30.6029C83.0689 30.5111 82.3464 30.4703 80.9035 30.3968C80.9668 27.3252 81.0321 24.2516 81.0954 21.1801V21.1781ZM84.471 28.662C86.0343 28.76 87.014 27.9028 87.065 26.1374C87.114 24.3843 86.1405 23.4088 84.6057 23.3128C84.0955 23.2802 83.8404 23.2659 83.3301 23.2353C83.2873 25.019 83.2465 26.8007 83.2036 28.5845C83.7098 28.6151 83.9628 28.6294 84.469 28.662H84.471Z" fill="white"/>
<path d="M20.2889 10.394C21.4767 10.2429 22.0706 10.1715 23.2604 10.0327C23.7931 12.6491 24.3258 15.2676 24.8605 17.884C24.8727 17.884 24.8809 17.882 24.8931 17.88C25.5034 15.135 26.1136 12.3879 26.7238 9.6429C27.7483 9.53269 28.2606 9.47963 29.2851 9.37759C29.8811 11.9981 30.475 14.6207 31.0689 17.2412C31.0811 17.2412 31.0893 17.2412 31.1015 17.2391C31.6791 14.5084 32.2546 11.7756 32.8343 9.04492C34.0057 8.94083 34.5915 8.89185 35.765 8.79797C34.7874 12.741 33.8098 16.686 32.8343 20.6311C31.4587 20.7535 30.773 20.8168 29.3974 20.9536C28.93 18.7371 28.4627 16.5228 27.9953 14.3064C27.983 14.3064 27.9749 14.3064 27.9626 14.3104C27.4953 16.6228 27.0279 18.9351 26.5626 21.2454C25.1768 21.3944 24.4829 21.4719 23.0992 21.6352C22.1624 17.8881 21.2277 14.141 20.2909 10.394H20.2889Z" fill="white"/>
<path d="M94.9061 8.96124C96.1817 9.07145 96.8205 9.1286 98.094 9.25105C98.9369 11.7369 99.7777 14.2247 100.619 16.7126C100.631 16.7126 100.639 16.7126 100.651 16.7167C101.492 14.4023 102.333 12.0899 103.174 9.77556C104.435 9.91434 105.064 9.98781 106.323 10.1388C107.017 14.0859 107.711 18.033 108.405 21.9801C107.235 21.8332 106.651 21.7618 105.482 21.623C105.139 19.0453 104.796 16.4677 104.455 13.89C104.443 13.89 104.437 13.888 104.423 13.8859C103.594 16.333 102.766 18.778 101.939 21.225C100.915 21.1148 100.402 21.0617 99.3777 20.9617C98.5328 18.3432 97.6879 15.7248 96.8429 13.1063C96.8307 13.1063 96.8225 13.1063 96.8103 13.1043C96.5103 15.6146 96.2103 18.1269 95.9102 20.6372C94.7184 20.5311 94.1224 20.4801 92.9305 20.3862C93.5877 16.5799 94.2469 12.7716 94.9041 8.96532L94.9061 8.96124Z" fill="white"/>
<path d="M36.8957 8.73062C39.5019 8.53469 42.1101 8.36326 44.7205 8.21427C44.6633 9.18982 44.6368 9.6776 44.5796 10.6531C42.9632 10.745 41.3468 10.847 39.7325 10.9532C39.7325 11.796 39.7325 12.2165 39.7325 13.0594C41.3142 12.9492 42.1061 12.9002 43.6878 12.8083V15.239C42.104 15.3309 41.3142 15.3799 39.7325 15.4901C39.7325 16.3656 39.7325 16.8024 39.7325 17.6779C41.4224 17.5616 43.1143 17.4555 44.8082 17.3636C44.8082 18.3351 44.8082 18.8208 44.8082 19.7943C42.1693 19.9433 39.5345 20.1188 36.8977 20.3168C36.8977 16.4554 36.8977 12.594 36.8977 8.73266L36.8957 8.73062Z" fill="white"/>
<path d="M58.0577 10.1878C56.5924 10.2123 55.8597 10.2286 54.3943 10.2695C54.3943 9.29799 54.3943 8.81021 54.3943 7.83875C57.7842 7.75303 61.1721 7.71017 64.5621 7.70813C64.5621 8.6796 64.5621 9.16737 64.5621 10.1388C63.0967 10.1348 62.364 10.1388 60.8986 10.1511C60.8986 13.2022 60.8986 16.2534 60.8986 19.3045C59.7619 19.3147 59.1945 19.3208 58.0577 19.3412C58.0577 16.2901 58.0577 13.239 58.0577 10.1878Z" fill="white"/>
<path d="M69.2806 7.73262C70.4174 7.74691 70.9848 7.75507 72.1215 7.77956V12.4144C73.7624 12.4532 75.4053 12.4981 77.0462 12.5512V7.9163C78.183 7.95508 78.7504 7.97753 79.8851 8.02651V19.6106C78.7504 19.5617 78.181 19.5392 77.0462 19.5004V14.9635C75.4053 14.9105 73.7645 14.8656 72.1215 14.8268V19.3637C70.9848 19.3412 70.4174 19.331 69.2806 19.3168C69.2806 15.4554 69.2806 11.594 69.2806 7.73262Z" fill="white"/>
<path d="M88.3834 17.6473C86.8262 17.5412 86.0466 17.4922 84.4873 17.4044C84.2077 18.3616 84.069 18.8392 83.7894 19.7964C82.622 19.7331 82.0383 19.7045 80.8709 19.6494C82.0423 15.8472 83.2159 12.045 84.3894 8.24489C85.9201 8.3306 86.6854 8.37755 88.2161 8.48163C89.4835 12.4348 90.7488 16.3901 92.0121 20.3433C90.8468 20.2515 90.2631 20.2086 89.0957 20.127C88.81 19.1351 88.6671 18.6392 88.3834 17.6473ZM86.4282 11.0062C86.0037 12.3961 85.5772 13.7859 85.1527 15.1737C86.1792 15.2329 86.6936 15.2656 87.7201 15.3329C87.2997 13.89 86.8813 12.4491 86.4609 11.0062C86.4486 11.0062 86.4405 11.0062 86.4282 11.0062Z" fill="white"/>
<path d="M50.0901 7.77548C47.9757 7.85099 45.5776 9.15309 45.5613 11.5307C45.5368 15.1615 50.988 14.1859 51.3248 16.1697C51.4187 16.7187 50.8003 17.1799 50.0166 17.1779C48.5594 17.1779 47.4083 16.8922 46.2164 16.2799C46.1593 17.2799 46.1103 17.8065 46.0715 18.7147C47.3001 19.5392 48.5716 19.7168 49.9451 19.7515C51.984 19.8045 54.4372 18.3902 54.4576 16.0064C54.4882 12.4042 49.0839 13.2186 48.692 11.345C48.592 10.8654 49.1778 10.394 50.0533 10.3429C51.3901 10.2674 52.3514 10.598 53.082 10.8981C53.1412 9.74699 53.1575 9.58167 53.2228 8.45918C52.5799 8.08978 51.5656 7.71834 50.088 7.76936L50.0901 7.77548Z" fill="white"/>
<path d="M47.6614 103.483L49.041 104.085L47.094 108.541L49.3961 109.547L48.8798 110.731L45.198 109.122L47.6614 103.483Z" fill="white"/>
<path d="M54.4739 105.914C56.2658 106.406 57.2128 108.094 56.7454 109.796C56.2658 111.539 54.5821 112.539 52.7902 112.047C50.9982 111.555 50.0615 109.835 50.539 108.092C51.0064 106.392 52.682 105.424 54.4739 105.916V105.914ZM53.1534 110.718C54.0412 110.961 54.9637 110.396 55.2433 109.384C55.5107 108.412 54.9964 107.488 54.1086 107.243C53.2208 106.998 52.3065 107.533 52.0391 108.504C51.7615 109.516 52.2656 110.475 53.1534 110.72V110.718Z" fill="white"/>
<path d="M58.1863 106.93L59.7027 107.086L61.1068 110.118C61.3048 110.545 61.515 111.214 61.515 111.214H61.5313C61.5313 111.214 61.5313 110.549 61.5701 110.165L61.8619 107.306L63.36 107.459L62.7375 113.58L61.2313 113.427L59.817 110.402C59.619 109.975 59.4088 109.306 59.4088 109.306H59.3925C59.3925 109.306 59.3925 109.971 59.3537 110.355L59.0639 113.206L57.5659 113.053L58.1883 106.932L58.1863 106.93Z" fill="white"/>
<path d="M64.4192 107.473L66.6009 107.355C68.5336 107.251 69.8317 108.31 69.9357 110.243C70.0398 112.176 68.8643 113.394 66.9315 113.498L64.7498 113.616L64.4192 107.471V107.473ZM66.803 112.214C67.8418 112.159 68.4459 111.506 68.3826 110.329C68.3194 109.159 67.6254 108.594 66.6111 108.649L65.9927 108.682L66.1846 112.247L66.803 112.214Z" fill="white"/>
<path d="M73.1522 106.388C74.9686 105.988 76.5911 107.041 76.9707 108.763C77.3585 110.529 76.334 112.198 74.5196 112.598C72.7032 112.998 71.0725 111.91 70.6847 110.147C70.3051 108.424 71.3378 106.788 73.1542 106.388H73.1522ZM74.2216 111.253C75.1217 111.055 75.6727 110.122 75.4482 109.098C75.2319 108.114 74.3461 107.535 73.4481 107.733C72.5481 107.93 71.9889 108.828 72.2052 109.812C72.4297 110.837 73.3236 111.451 74.2237 111.253H74.2216Z" fill="white"/>
<path d="M76.9074 105.561L78.3197 104.992L80.975 107.018C81.3505 107.304 81.8464 107.798 81.8464 107.798L81.8627 107.792C81.8627 107.792 81.5505 107.204 81.4056 106.845L80.33 104.179L81.726 103.616L84.0281 109.32L82.624 109.888L79.9647 107.871C79.5892 107.586 79.0933 107.092 79.0933 107.092L79.0769 107.098C79.0769 107.098 79.3892 107.686 79.5341 108.045L80.6056 110.702L79.2096 111.265L76.9074 105.561Z" fill="white"/>
</g>
<defs>
<clipPath id="clip0_27_431">
<rect width="128" height="128" fill="white"/>
</clipPath>
</defs>
</svg>
