<svg width="128" height="128" viewBox="0 0 128 128" fill="none" xmlns="http://www.w3.org/2000/svg">
<path d="M19.2386 64.2399L19.2662 61.0134L19.434 55.9025L19.9676 52.3711L20.5037 49.4895L21.1025 46.398L22.1997 42.4317L24.7198 35.1615L26.5436 31.1053L28.1919 28.0587L29.3643 26.1618L30.5016 24.4498L31.6114 22.8378L33.4301 20.3661L36.9498 16.5448L38.7209 14.8678L40.1714 13.5857L41.8698 12.2237L43.6911 10.9066L45.6776 9.66445L47.6717 8.57729L49.6883 7.6001L52.4139 6.53043L54.5808 5.78816L55.9335 5.48576L56.9456 5.17835L58.2282 4.93843L59.9743 4.68601L62.8978 4.49857L66.7381 4.63852L69.7092 4.99841L72.6326 5.61072L74.9724 6.3005L77.5026 7.24021L79.6895 8.2449L82.2472 9.62696L84.339 10.9016L87.5055 13.3108L89.4469 14.9828L91.5362 17.0821L93.0818 18.6791L94.8304 20.8335L96.7994 23.3977L98.2424 25.477L99.5601 27.7288L100.71 29.7657L101.887 32.055L103.052 34.5692L104.325 37.7982L105.943 42.8791L107.028 46.9978L107.922 51.6438L108.413 55.3852L108.741 60.1812L108.796 64.2099L108.739 69.0184L108.441 72.0825L108.035 75.1765L106.081 84.1637L104.816 88.4923L103.493 91.9662L102.499 94.258L101.366 96.7173L100.241 98.7841L99.2695 100.419L98.4202 101.738L97.5184 103.265L93.8259 108.131L91.6314 110.518L89.7876 112.37L87.8687 114.014L86.1878 115.334L84.557 116.591L82.8109 117.688L81.2001 118.668L79.4866 119.535L77.8808 120.247L76.0621 121.05L73.6397 121.842L70.6887 122.547L67.9456 123.002L63.2384 123.226L59.2754 122.859L54.3954 121.829L51.7475 120.975L48.4282 119.503L46.0609 118.233L43.5007 116.579L39.6804 113.712L35.7198 109.856L33.1345 106.909L30.3664 103.148L28.2295 99.6014L26.2129 95.8975L24.2965 91.5114L23.2042 88.4174L22.1571 85.1209L20.9446 80.3149L20.1931 76.7735L19.657 73.3146L19.2637 67.3464L19.2386 64.2399Z" fill="#FEFEFE"/>
<path d="M64.511 51.4414C71.2873 51.4414 77.4274 54.1881 81.8815 58.6167L86.6437 53.6357C80.9471 48.02 73.1211 44.5486 64.511 44.5486C47.1556 44.5486 32.9967 58.6867 32.9967 76.0013C32.9967 93.3308 47.1556 107.454 64.511 107.454C81.8815 107.454 96.0504 93.3283 96.0504 76.0013C96.0504 73.537 95.7673 71.1553 95.2262 68.8535H79.7196V75.7463H89.1388C89.1388 75.8263 89.1388 75.9063 89.1388 76.0013C89.1388 89.5345 78.0737 100.561 64.5085 100.561C50.9584 100.561 39.9058 89.532 39.9058 76.0013C39.9058 62.4705 50.9584 51.4414 64.511 51.4414Z" fill="#B81B3F"/>
<path d="M88.2369 75.7438C88.2369 75.8263 88.2369 75.9063 88.2369 76.0013C88.2369 89.0347 77.5877 99.6739 64.511 99.6739C51.4594 99.6739 40.7976 89.0372 40.7976 76.0013C40.7976 73.5095 41.1884 71.1128 41.9174 68.8535H49.3125C48.2879 71.0203 47.7067 73.4446 47.7067 76.0013C47.7067 85.2384 55.2647 92.7785 64.5085 92.7785C73.7799 92.7785 81.3253 85.2384 81.3253 76.0013C81.3253 75.9063 81.3253 75.8263 81.3253 75.7438H88.2369ZM81.0297 35.4464C80.7467 26.6017 73.4443 19.4764 64.511 19.4764C55.43 19.4764 48.0048 26.8816 48.0048 35.9713C48.0048 41.6395 50.8807 46.6754 55.2797 49.6245L73.81 62.0381C76.3477 63.7201 78.4119 66.0894 79.7221 68.8635V68.851H87.1322C85.5139 63.7076 82.1671 59.3315 77.7656 56.3974L59.1526 43.9163C56.5899 42.1943 54.9164 39.2727 54.9164 35.9738C54.9164 30.6829 59.2353 26.3743 64.511 26.3743C69.639 26.3743 73.8501 30.4005 74.1181 35.4489H81.0297V35.4464Z" fill="#F3AB17"/>
<path d="M62.785 123.279C57.7272 123.084 52.6042 121.734 47.9598 119.37C44.2447 117.481 41.1083 115.241 37.7539 112.09C36.8421 111.233 36.7293 111.118 35.7398 110.066C28.3021 102.146 22.7984 90.8591 20.4461 78.7004C19.394 73.2571 18.9831 68.6011 19.0533 62.8454C19.0883 59.9263 19.166 58.4392 19.4165 55.9525C20.5989 44.1612 24.4618 33.0921 30.5142 24.1549C31.1254 23.2527 31.2256 23.1103 32.0423 22.0181C36.1006 16.5748 41.0707 12.1012 46.3865 9.11214C51.2114 6.40048 56.2442 4.84597 61.4974 4.4411C62.5846 4.35862 65.4404 4.35862 66.5276 4.4411C71.9462 4.85597 76.969 6.44547 82.0418 9.34706C84.3114 10.6467 86.9568 12.5661 89.0762 14.453C89.9154 15.2002 92.5683 17.8694 93.2622 18.6667C98.3902 24.5448 102.298 31.4452 105.051 39.4727C107.136 45.5508 108.401 52.0987 108.874 59.244C108.982 60.856 108.982 66.7616 108.877 68.3611C108.308 76.896 106.652 84.4561 103.791 91.5814C99.6928 101.776 93.4751 110.178 85.8746 115.781C81.16 119.255 76.2024 121.497 70.7362 122.627C68.4516 123.094 65.1198 123.369 62.785 123.279ZM65.488 123.004C69.2131 122.822 72.6526 122.124 76.0095 120.872C80.5964 119.163 84.6396 116.724 88.6678 113.232C89.6448 112.387 92.0397 109.993 93.0392 108.863C96.6817 104.757 100.151 99.324 102.436 94.1431C102.514 93.9706 102.664 93.6332 102.772 93.3908C105.409 87.4927 107.404 79.9725 108.228 72.8047C108.606 69.5233 108.704 67.6563 108.704 63.7801C108.704 60.3236 108.674 59.5914 108.416 56.6973C107.198 43.0165 102.288 30.1781 94.635 20.6635C92.4781 17.9844 90.1007 15.5676 87.4729 13.3908C82.8334 9.5445 77.1769 6.71039 71.6581 5.46078C69.1756 4.90095 67.2842 4.67852 64.6112 4.63604C62.5019 4.60105 61.4323 4.65353 59.6762 4.87346C46.5819 6.52295 34.7753 15.825 27.3377 29.8831C25.8246 32.7473 24.4919 35.8088 23.3646 39.0403C22.5078 41.5045 21.5509 44.876 21.0749 47.1053C20.0603 51.8788 19.5668 55.6626 19.3414 60.4211C19.2487 62.388 19.3013 67.099 19.4365 69.0384C20.2607 80.7922 23.5575 91.6738 29.0411 100.749C30.7571 103.585 32.5884 106.109 34.7278 108.584C35.6647 109.668 38.3577 112.37 39.4148 113.29C46.2738 119.248 54.2075 122.607 62.3341 122.994C63.8347 123.072 64.1102 123.072 65.488 123.004Z" fill="#171715"/>
<path d="M55.7883 75.8088H54.448V70.378C53.9545 70.8704 53.3758 71.2352 52.7145 71.4702V70.1581C53.719 69.7757 54.3804 69.1409 54.6985 68.2562H55.7883V75.8088Z" fill="#171715"/>
<path d="M57.8299 74.0719L59.1251 73.9144C59.1877 74.4742 59.4482 74.7566 59.9092 74.7566C60.5379 74.7566 60.8987 74.0519 60.9864 72.6423C60.6507 73.0622 60.2273 73.2721 59.7188 73.2721C59.1 73.2721 58.6065 73.0247 58.2383 72.5248C57.8725 72.0225 57.6896 71.4477 57.6896 70.8029C57.6896 70.1481 57.875 69.5608 58.2458 69.0409C58.6165 68.5186 59.1802 68.2562 59.9367 68.2562C61.5625 68.2562 62.3742 69.5208 62.3742 72.0525C62.3742 74.6467 61.5174 75.9438 59.804 75.9438C58.6817 75.9413 58.0203 75.3165 57.8299 74.0719ZM60.8686 70.9178C60.8686 70.5455 60.786 70.2081 60.6181 69.9032C60.4528 69.6008 60.2073 69.4483 59.8791 69.4483C59.3029 69.4483 59.0148 69.8982 59.0148 70.8004C59.0148 71.7376 59.328 72.2074 59.9518 72.2074C60.563 72.2074 60.8686 71.7776 60.8686 70.9178Z" fill="#171715"/>
<path d="M65.5181 68.2537C67.0362 68.2537 67.7953 69.5333 67.7953 72.0975C67.7953 74.6542 67.0362 75.9338 65.5181 75.9338C64 75.9338 63.241 74.6492 63.241 72.0825C63.241 69.5308 64 68.2537 65.5181 68.2537ZM65.5181 69.4508C65.225 69.4508 65.0071 69.6232 64.8593 69.9681C64.7165 70.308 64.6463 71.0178 64.6463 72.0975C64.6463 73.1821 64.7215 73.8944 64.8743 74.2343C65.0246 74.5692 65.24 74.7391 65.5181 74.7391C65.8363 74.7391 66.0617 74.5467 66.192 74.1643C66.3223 73.7819 66.3899 73.0922 66.3899 72.0975C66.3899 71.0953 66.3197 70.4055 66.177 70.0231C66.0392 69.6407 65.8212 69.4508 65.5181 69.4508Z" fill="#171715"/>
<path d="M68.7096 73.8744L70.0498 73.7244C70.1525 74.4267 70.4807 74.7766 71.0368 74.7766C71.7057 74.7766 72.0414 74.2868 72.0414 73.3071C72.0414 72.3849 71.6957 71.925 71.0018 71.925C70.616 71.925 70.2703 72.1074 69.9622 72.4748L68.8774 72.2999L69.5663 68.3861H73.1186V69.7382H70.5859L70.373 71.0103C70.6711 70.8528 70.9767 70.7754 71.2899 70.7754C71.9186 70.7754 72.4322 71.0128 72.8255 71.4901C73.2263 71.965 73.4267 72.5648 73.4267 73.2821C73.4267 73.8994 73.2313 74.4992 72.8405 75.074C72.4497 75.6438 71.846 75.9313 71.0243 75.9313C69.6766 75.9338 68.905 75.2465 68.7096 73.8744Z" fill="#171715"/>
</svg>
