<svg width="128" height="128" viewBox="0 0 128 128" fill="none" xmlns="http://www.w3.org/2000/svg">
<g clip-path="url(#clip0_692_229)">
<g clip-path="url(#clip1_692_229)">
<path d="M0 63.9968C0 28.6537 28.6537 0 63.9968 0C99.3398 0 127.994 28.6537 127.994 63.9968C127.994 99.3398 99.3398 128 63.9968 128C28.6537 128 0 99.3463 0 63.9968Z" fill="#FFD900"/>
<path d="M3.0771 63.9968C3.0771 30.3503 30.3504 3.07697 63.9969 3.07697C97.6435 3.07697 124.917 30.3503 124.917 63.9968C124.917 97.6433 97.6435 124.923 63.9969 124.923C30.3504 124.923 3.0771 97.6433 3.0771 63.9968Z" fill="black"/>
<path d="M6.45709 63.9968C6.45709 32.2209 32.2209 6.45709 63.9968 6.45709C95.7726 6.45709 121.536 32.2209 121.536 63.9968C121.536 95.7791 95.7726 121.543 63.9968 121.543C32.2209 121.543 6.45709 95.7791 6.45709 63.9968Z" fill="#FFD900"/>
<path fill-rule="evenodd" clip-rule="evenodd" d="M73.4086 113.028C69.1574 113.028 66.0674 109.809 66.0674 106.139C66.0674 105.603 66.0287 105.365 66.0545 104.978H70.0606C71.2218 104.978 71.0347 106.552 71.0347 106.552C71.0347 107.764 72.3442 108.313 73.3312 108.338C74.5311 108.371 75.5116 107.268 75.5116 106.055L75.4923 103.707C74.7246 104.126 73.2022 104.113 73.2022 104.113C69.5703 104.017 66.0223 100.882 66.0223 97.0047V95.2759C66.0223 91.3991 69.3252 88.3544 73.2022 88.3544H73.3635C77.2405 88.3544 80.2467 91.4894 80.2467 95.3662V105.952C80.2531 109.945 77.4276 112.989 73.4086 113.028Z" fill="black"/>
<path fill-rule="evenodd" clip-rule="evenodd" d="M73.2536 93.3665H73.3245C74.5373 93.3665 75.5179 94.347 75.5179 95.5597V96.9466C75.5179 98.1593 74.5373 99.1398 73.3245 99.1398H73.2536C72.0408 99.1398 71.0602 98.1593 71.0602 96.9466V95.5597C71.0602 94.347 72.0408 93.3665 73.2536 93.3665Z" fill="#FFD900"/>
<path fill-rule="evenodd" clip-rule="evenodd" d="M29.5117 78.9687V67.7446H36.0526C41.4647 67.7446 43.3999 77.5754 36.3622 78.9687H29.5117ZM29.5117 59.1975V48.483H36.9041C41.6969 48.483 42.6839 57.7203 37.1944 59.1975H29.5117ZM20.6936 39.594V87.3675L35.743 87.3804C47.8831 87.3804 54.0499 72.6471 45.606 63.5646C45.606 63.5646 45.5802 63.5388 45.5802 63.4936C45.5802 63.4485 45.6382 63.4033 45.6382 63.4033C52.6565 55.4755 49.7151 41.555 36.6654 39.5876H20.6936V39.594Z" fill="black"/>
<path fill-rule="evenodd" clip-rule="evenodd" d="M91.6829 78.9687V67.7446H98.1787C103.591 67.7446 105.526 77.5754 98.4883 78.9687H91.6829ZM91.6829 59.1975V48.483H99.0302C103.823 48.483 104.81 57.7203 99.3205 59.1975H91.6829ZM82.8197 39.594V87.3675L97.8691 87.3804C110.009 87.3804 116.176 72.6471 107.732 63.5646C107.732 63.5646 107.706 63.5388 107.706 63.4936C107.706 63.4485 107.764 63.4033 107.764 63.4033C114.783 55.4755 111.841 41.555 98.7915 39.5876H82.8197V39.594Z" fill="black"/>
<path fill-rule="evenodd" clip-rule="evenodd" d="M54.5663 88.3931H54.7276C58.6046 88.3931 61.7398 91.5345 61.7398 95.4114V106.003C61.7398 109.88 58.5981 113.022 54.7276 113.022H54.5663C50.6893 113.022 47.5476 109.88 47.5476 106.003V95.4114C47.5541 91.5345 50.6957 88.3931 54.5663 88.3931Z" fill="black"/>
<path fill-rule="evenodd" clip-rule="evenodd" d="M54.6112 93.4246H54.6822C55.8949 93.4246 56.8755 94.4051 56.8755 95.6178V106.132C56.8755 107.345 55.8949 108.326 54.6822 108.326H54.6112C53.3984 108.326 52.4179 107.345 52.4179 106.132V95.6178C52.4179 94.4051 53.4049 93.4246 54.6112 93.4246Z" fill="#FFD900"/>
<path fill-rule="evenodd" clip-rule="evenodd" d="M44.9222 15.7331L60.5779 64.1645H67.3511L82.8197 15.7331H73.3438L63.9516 48.0572L54.6175 15.7331H44.9222Z" fill="black"/>
</g>
</g>
<defs>
<clipPath id="clip0_692_229">
<rect width="128" height="128" fill="white"/>
</clipPath>
<clipPath id="clip1_692_229">
<rect width="127.994" height="128" fill="white"/>
</clipPath>
</defs>
</svg>
