<svg width="128" height="128" viewBox="0 0 128 128" fill="none" xmlns="http://www.w3.org/2000/svg">
<path d="M113.595 10.496C113.509 9.81333 112.909 9.216 112.224 9.04533L110.768 8.78933L98.2615 6.4L65.0254 0H63.6548L30.3331 6.4L17.8268 8.78933L16.3706 9.04533C15.6853 9.216 15.1713 9.728 15 10.496V10.752V70.3147C15 84.48 21.0819 97.9627 31.7037 107.264L32.4746 107.947L63.0552 128H65.5394L96.12 108.032L96.8909 107.349C107.513 98.048 113.595 84.5653 113.595 70.4V10.752V10.496ZM31.9607 10.8373L64.1688 4.69333H64.5114L96.7196 10.8373L103.572 12.1173L64.3401 92.16L25.1079 12.2027L31.9607 10.8373ZM108.712 70.144V71.168C108.455 83.5413 103.058 95.232 93.8072 103.339L93.2932 103.851L64.7684 122.539H64.0831L35.5584 103.851L35.0444 103.339C25.7932 95.232 20.3966 83.5413 20.1396 71.168V70.144V13.1413H20.3109L64.3401 103.339L108.541 13.1413H108.712V70.144Z" fill="black" fill-opacity="0.2"/>
</svg>
