<svg width="128" height="128" viewBox="0 0 128 128" fill="none" xmlns="http://www.w3.org/2000/svg">
<g clip-path="url(#clip0_27_349)">
<path d="M84.8597 105.668C85.3854 105.779 85.7661 105.862 86.2012 105.982C86.2846 106.11 86.6508 110.192 86.6508 110.395C86.5409 110.483 86.4187 110.554 86.2882 110.607C86.058 110.426 85.8966 110.185 85.6265 109.937C84.2179 108.642 83.1755 107.997 81.2992 107.624C79.3051 107.226 77.9164 107.297 76.109 108.238C75.4036 108.584 74.7681 109.057 74.2345 109.633C73.9876 109.884 73.7609 110.154 73.5565 110.44C73.278 110.812 73.0352 111.208 72.8313 111.625C71.9721 113.324 71.8343 114.503 71.8597 116.408C71.8577 116.797 71.8819 117.186 71.9322 117.572C71.9976 118.142 72.1191 118.705 72.2947 119.251C72.4449 119.793 72.6477 120.319 72.9002 120.821C73.1045 121.255 73.3472 121.669 73.6254 122.06C73.9669 122.594 74.3846 123.076 74.8654 123.491C75.6975 124.215 76.2975 124.497 77.3454 124.822C77.9258 125.007 78.5279 125.115 79.1365 125.144C79.7484 125.199 80.3646 125.183 80.9729 125.097C82.4033 124.916 83.2517 124.704 84.4826 123.96C85.0625 123.615 85.5941 123.196 86.0634 122.712C86.1738 122.577 86.295 122.451 86.426 122.335C86.5448 122.393 86.6508 122.475 86.7378 122.574C86.6653 122.667 86.3245 126.482 86.3063 126.549C85.69 126.769 85.0663 127.009 84.2578 127.254C83.8662 127.373 83.6451 127.444 83.2462 127.54C82.742 127.664 82.2304 127.756 81.7144 127.815C79.0168 128.156 77.3001 128.091 74.7874 127.062C73.7818 126.686 72.8425 126.153 72.0047 125.483C70.9623 124.673 70.4094 124.123 69.6806 123.023C69.313 122.479 69.0049 121.898 68.7615 121.288C68.3028 120.202 68.0672 119.552 67.962 118.38C67.9475 118.208 67.9439 118.11 67.9366 117.938C67.8641 116.594 67.7735 115.814 68.0091 114.497C68.0916 114.017 68.2079 113.544 68.3572 113.081C68.8068 111.632 69.1567 110.79 70.0667 109.568C70.3763 109.151 70.7169 108.758 71.0856 108.392C71.2397 108.233 71.3267 108.142 71.4898 107.988C71.8002 107.689 72.1349 107.416 72.4905 107.172C72.7171 107.014 72.8531 106.927 73.087 106.788C73.3208 106.648 73.4205 106.607 73.6308 106.483C75.7283 105.397 77.1514 105.141 79.5099 105.026C81.5965 104.922 82.784 105.248 84.8289 105.676L84.8597 105.668ZM36.3765 105.303C36.4731 105.436 36.5592 105.576 36.634 105.723C36.634 105.743 36.5977 105.77 36.5796 105.788C36.5312 105.806 36.4873 105.835 36.4509 105.871C35.7194 106.396 35.2039 107.168 35.0006 108.045C34.8614 108.444 34.7778 108.861 34.7522 109.283V124.959C36.2134 124.959 37.6745 124.896 38.9707 124.382C40.2222 123.972 41.3761 123.31 42.3608 122.437C42.4061 122.437 42.397 122.38 42.4424 122.371L42.4786 122.335L42.6998 122.516C42.6998 122.589 42.7832 122.58 42.8104 122.643C42.8376 122.706 42.7741 122.755 42.7651 122.824C42.5983 123.239 42.4424 123.652 42.3137 124.074C41.9003 125.211 41.5251 126.359 41.1099 127.506C41.0483 127.65 41.0483 127.652 40.9177 127.652H29.1196C29.1015 127.515 29.029 127.413 29 127.268C29.093 127.15 29.1968 127.04 29.31 126.941C29.3281 126.941 29.3589 126.863 29.3861 126.845C30.1113 126.028 30.4521 125.064 30.7005 124.028C30.821 123.412 30.8703 122.784 30.8473 122.156V109.551C30.8654 108.155 30.4521 106.761 29.4695 105.697C29.4514 105.551 29.5892 105.431 29.6508 105.303H36.3765ZM62.3385 105.321C62.3748 105.641 62.3385 105.953 62.402 106.275C62.5125 107.221 62.6141 108.258 62.7337 109.193C62.6866 109.285 62.8062 109.386 62.6975 109.45C62.5803 109.502 62.469 109.566 62.3657 109.642C62.3204 109.607 62.2189 109.678 62.2461 109.569C61.8835 109.166 61.4593 108.941 60.8792 108.678C60.6397 108.575 60.3938 108.486 60.1431 108.414C59.8062 108.304 59.463 108.216 59.1152 108.148C58.5029 108.023 57.8826 107.94 57.2589 107.9C56.6135 107.84 55.9083 107.854 55.5965 107.807C55.5421 107.807 55.504 107.871 55.4496 107.862C55.4224 108.735 55.4406 114.743 55.4406 114.743C55.7343 114.725 55.9953 114.754 56.347 114.743C56.9519 114.754 57.5561 114.699 58.149 114.579C58.6957 114.485 59.2232 114.301 59.7099 114.035C60.2537 113.735 60.6834 113.467 60.9789 113.045C61.1149 113.116 61.2338 113.216 61.3269 113.338C61.3179 114.137 61.3269 117.226 61.3269 118.614C61.3269 118.672 60.8592 118.844 60.8592 118.844C60.8483 118.78 60.7704 118.737 60.7124 118.662C60.3498 118.264 60.0507 118.119 59.563 117.9C59.4406 117.84 59.3146 117.787 59.1859 117.742C59.0561 117.7 58.9242 117.664 58.7907 117.634C57.7247 117.334 56.618 117.203 55.5113 117.246V124.691C55.5113 125.012 55.7524 125.626 56.0715 126.14C56.322 126.537 56.6355 126.89 56.9996 127.187C56.9362 127.334 56.8999 127.507 56.8183 127.665H50.1398C50.0564 127.536 50.0382 127.37 49.9748 127.252C50.0382 127.113 50.2213 127.04 50.2866 126.903C50.4425 126.747 50.5622 126.562 50.709 126.397C51.3798 125.35 51.6553 124.132 51.6916 122.819C51.6735 122.753 51.6916 110.448 51.6916 109.493C51.6657 108.523 51.4176 107.571 50.9664 106.712C50.7267 106.305 50.3967 105.96 50.002 105.701C50.0674 105.562 50.147 105.431 50.2395 105.308L62.3385 105.321ZM60.0561 126.12C60.0558 125.802 60.1498 125.492 60.3262 125.227C60.5027 124.963 60.7537 124.757 61.0475 124.635C61.3413 124.513 61.6647 124.481 61.9767 124.543C62.2888 124.604 62.5755 124.757 62.8005 124.982C63.0256 125.206 63.1789 125.493 63.2411 125.804C63.3033 126.116 63.2716 126.439 63.1499 126.733C63.0283 127.026 62.8222 127.277 62.5577 127.454C62.2932 127.63 61.9822 127.725 61.6641 127.725C61.453 127.725 61.244 127.684 61.0489 127.603C60.8538 127.523 60.6765 127.404 60.5272 127.255C60.3779 127.106 60.2594 126.929 60.1786 126.735C60.0977 126.54 60.0561 126.331 60.0561 126.12ZM43.8655 126.12C43.8651 125.802 43.9591 125.492 44.1356 125.227C44.312 124.963 44.5631 124.757 44.8569 124.635C45.1506 124.513 45.474 124.481 45.7861 124.543C46.0981 124.604 46.3848 124.757 46.6099 124.982C46.8349 125.206 46.9882 125.493 47.0504 125.804C47.1126 126.116 47.0809 126.439 46.9592 126.733C46.8376 127.026 46.6315 127.277 46.367 127.454C46.1025 127.63 45.7916 127.725 45.4735 127.725C45.2624 127.725 45.0533 127.684 44.8582 127.603C44.6632 127.523 44.4859 127.404 44.3365 127.255C44.1872 127.106 44.0687 126.929 43.9879 126.735C43.9071 126.54 43.8655 126.331 43.8655 126.12ZM89.0655 126.12C89.0652 125.802 89.1592 125.492 89.3356 125.227C89.5121 124.963 89.7631 124.757 90.0569 124.635C90.3507 124.513 90.6741 124.481 90.9861 124.543C91.2982 124.604 91.5849 124.757 91.8099 124.982C92.035 125.206 92.1883 125.493 92.2505 125.804C92.3127 126.116 92.281 126.439 92.1593 126.733C92.0376 127.026 91.8315 127.277 91.5671 127.454C91.3026 127.63 90.9916 127.725 90.6735 127.725C90.2474 127.725 89.8386 127.556 89.5371 127.255C89.2356 126.954 89.066 126.546 89.0655 126.12Z" fill="#E31B23"/>
<path fill-rule="evenodd" clip-rule="evenodd" d="M77.9618 79.9651C77.7226 79.9614 77.4852 80.006 77.2637 80.0963C77.0422 80.1865 76.8412 80.3205 76.6728 80.4902C76.3172 80.8426 76.1152 81.321 76.1108 81.8213C76.1183 82.3092 76.3158 82.775 76.6614 83.1199C77.0069 83.4647 77.4734 83.6616 77.9618 83.6686C78.4571 83.6639 78.9308 83.4656 79.2815 83.1162C79.4561 82.9475 79.5943 82.745 79.6878 82.5211C79.7813 82.2973 79.8281 82.0567 79.8254 81.8141C79.8239 81.3242 79.6284 80.8547 79.2815 80.5084C79.1085 80.3335 78.902 80.1952 78.6743 80.1019C78.4466 80.0085 78.2024 79.962 77.9563 79.9651H77.9618ZM79.5752 81.8358C79.5769 82.044 79.5364 82.2503 79.456 82.4424C79.3756 82.6345 79.257 82.8082 79.1075 82.9532C78.9554 83.1044 78.775 83.2241 78.5765 83.3055C78.378 83.3869 78.1654 83.4285 77.9509 83.4277C77.7411 83.4259 77.5337 83.3826 77.3408 83.3002C77.1478 83.2179 76.9732 83.0981 76.8269 82.9478C76.526 82.6496 76.3553 82.2447 76.352 81.8213C76.3579 81.3868 76.5343 80.9719 76.8432 80.6659C76.9901 80.518 77.1654 80.4012 77.3585 80.3225C77.5516 80.2437 77.7587 80.2047 77.9672 80.2077C78.1814 80.2052 78.3939 80.2464 78.5916 80.3289C78.7892 80.4115 78.9679 80.5335 79.1166 80.6876C79.2659 80.8387 79.3834 81.0182 79.4622 81.2154C79.5409 81.4126 79.5794 81.6235 79.5752 81.8358ZM78.0143 80.7329H77.2221V82.8337H77.6173V81.9391H78.0107L78.4386 82.8337H78.8809L78.4132 81.8775C78.549 81.8607 78.6735 81.7935 78.7619 81.6891C78.8503 81.5847 78.896 81.4508 78.89 81.3143C78.89 80.9321 78.6017 80.7365 78.0143 80.7365V80.7329ZM77.9418 80.9901C78.3044 80.9901 78.4857 81.0933 78.4857 81.3523C78.4857 81.6113 78.3153 81.6873 77.9527 81.6873H77.6173V80.9919L77.9418 80.9901Z" fill="#E31B23"/>
<path d="M59.7461 82.3808C58.9281 81.123 58.327 79.7371 57.9677 78.2807H57.9804C57.6719 76.9632 57.4832 75.6207 57.4166 74.2693C56.8981 74.1154 56.3198 74.0882 55.7995 73.9614C53.8181 73.4996 51.911 72.71 50.1235 71.8462C50.0032 74.0121 49.629 76.1565 49.0086 78.2354C48.7211 79.16 48.3797 80.0671 47.9861 80.9519C49.6902 80.9519 51.0843 79.8001 52.2772 78.8167C51.8185 80.7237 51.1586 82.2033 50.283 84.2986C48.9234 87.5114 47.5111 89.9399 46.0409 92.3612C45.5514 93.1599 45.0511 93.964 44.5417 94.8115C44.1972 95.4055 43.7694 96.1173 43.0588 96.4414C41.0773 96.9847 39.6723 95.382 37.7489 95.5558C36.8425 95.7116 36.5361 95.8836 36.2279 96.2078C36.1506 96.3414 36.1067 96.4916 36.0997 96.6457C36.0928 96.7999 36.1231 96.9534 36.188 97.0934C35.1094 96.9974 33.9346 96.9974 33.0916 97.6367C32.9037 97.8078 32.7679 98.0284 32.6999 98.2732C32.6319 98.5179 32.6345 98.7769 32.7073 99.0203C32.7596 99.1915 32.851 99.3482 32.9743 99.478C33.0977 99.6078 33.2495 99.7072 33.418 99.7682C33.8784 98.8863 34.8211 98.4806 35.7638 98.2488C36.1663 98.1927 36.5941 98.1148 36.9802 98.2687C37.0745 98.3285 36.9984 98.4498 36.9186 98.5005C36.503 98.6852 36.1256 98.9456 35.8055 99.2684C35.4955 99.6705 35.2272 100.174 35.3813 100.692C35.6605 101.358 36.3421 101.614 36.9984 101.539C37.0546 101.462 36.9802 101.384 36.9802 101.306C36.9023 100.581 37.631 100.19 38.1894 99.886C40.0367 99.243 42.136 99.243 44.1555 99.1851C45.8306 99.0873 47.5256 99.205 49.1989 99.3227C50.1797 99.4368 51.1641 99.6089 51.9182 100.228C52.0039 100.32 52.0594 100.435 52.0772 100.559C52.0951 100.683 52.0744 100.81 52.0179 100.922C52.2663 101 52.4965 100.846 52.7068 100.728C52.7485 100.692 52.7703 100.681 52.8627 100.596C53.4428 100.136 53.6332 99.5093 53.6332 98.8265C53.6332 98.1438 52.9969 97.7291 52.4748 97.5371C52.3868 97.497 52.2966 97.4619 52.2046 97.432C50.9356 97.0463 49.5307 97.202 48.1656 97.2183C47.7794 97.1622 47.2791 97.2401 47.1087 96.8163C47.06 96.5567 47.1146 96.2883 47.261 96.0684C48.1166 94.8296 49.0068 93.6072 49.8987 92.3884H49.9168C51.4215 90.3365 52.9987 88.1778 54.4018 86.0879C55.4895 84.458 56.2147 82.4369 56.2673 80.5154C57.0369 81.2907 57.9524 81.9062 58.9612 82.3265C59.2041 82.3808 59.5141 82.4605 59.7461 82.3808ZM85.7208 77.9148C85.8386 74.1715 84.6766 70.2652 82.1042 67.5034C80.5977 65.734 78.7902 64.5116 76.8469 63.5518H76.8106C74.0406 62.2134 70.8735 61.2934 68.0599 60.1416C67.5016 59.9461 67.0193 59.5621 66.4428 59.4661C66.4068 59.495 66.3815 59.5352 66.371 59.5802C66.3604 59.6252 66.3653 59.6724 66.3848 59.7142C67.9258 61.1178 69.7531 62.4634 71.343 63.6803C73.7179 65.5113 76.0565 67.4835 78.0633 70.5187C79.4066 72.547 80.2006 73.7242 81.0074 76.0169C81.2322 76.6526 81.4588 77.3987 81.6274 78.009C82.5556 81.4644 82.5338 84.5051 81.5857 87.7251C81.5857 88.0166 81.3355 88.2086 81.4896 88.4965C81.8939 88.5925 82.048 88.1108 82.2601 87.8808C83.3188 86.1314 84.3376 84.3041 84.934 82.3265C85.4043 80.9002 85.6728 79.4153 85.7317 77.9148H85.7208ZM82.2564 51.8328C82.3308 52.2185 81.9501 52.4865 81.834 52.8125C81.2246 53.6966 80.5482 54.5327 79.8109 55.3135C78.2337 55.5815 76.6184 55.5218 74.9814 55.4276C74.347 55.3711 73.7166 55.275 73.0942 55.1396C73.0398 55.0817 73.0779 55.0056 73.0942 54.9495C76.3683 54.5438 79.2906 53.3105 82.0842 51.735C82.1404 51.7567 82.2383 51.7567 82.2564 51.8328ZM86.7614 44.701C86.7016 44.6231 86.6236 44.4909 86.5094 44.5072C85.9329 44.7572 85.4688 45.257 84.9503 45.5938C82.5284 47.1552 79.9062 48.3821 77.155 49.2412C76.0304 49.5832 74.8854 49.8547 73.7269 50.0543L73.7106 50.2644C73.8919 52.0356 72.3038 53.3794 70.9007 54.111V54.2251L71.1508 54.2649C72.3038 54.1653 73.4187 53.8792 74.4974 53.6293C77.398 52.6658 80.2333 51.418 82.6752 49.4006L82.8293 49.2829L82.8619 49.2575C82.8891 49.2376 82.9181 49.2159 82.9435 49.1941C84.2297 48.1806 85.3769 47.0024 86.3553 45.6898C86.4496 45.353 86.8176 45.065 86.7614 44.701Z" fill="#E31B23"/>
<path d="M89.5877 36.74C88.6812 37.3358 88.1265 38.1073 87.2037 38.6832C86.0832 39.5421 84.9196 40.3436 83.7176 41.0846C81.0998 42.5859 78.4096 43.9116 75.5597 44.8515C75.6558 46.2768 75.1555 47.664 74.0188 48.6039C74.0387 48.7216 73.8484 48.68 73.8484 48.785C73.8427 48.8321 73.8557 48.8796 73.8847 48.9172C76.2921 48.4771 78.5437 47.4956 80.7572 46.3582C83.7412 44.5744 86.6653 42.4773 88.7048 39.5561C89.2487 38.7665 89.7236 37.9878 89.8977 37.0207C89.9036 36.9798 89.8994 36.9381 89.8855 36.8993C89.8715 36.8604 89.8482 36.8256 89.8176 36.7978C89.7869 36.7701 89.7499 36.7503 89.7098 36.7402C89.6697 36.7301 89.6278 36.7301 89.5877 36.74ZM36.13 56.4292L36.1246 56.3767L36.13 56.4292ZM92.6677 28.0707C90.3382 30.5695 87.7651 32.8299 84.9866 34.8185C82.2133 36.8062 79.2713 38.5477 76.1942 40.0234C76.3491 40.5459 76.3913 41.0953 76.3182 41.6353C76.2451 42.1753 76.0583 42.6937 75.77 43.1564C75.6341 43.3882 75.3839 43.5621 75.3259 43.8102C75.3839 43.9261 75.5072 43.8301 75.596 43.8301C80.5197 41.6877 85.4126 38.877 89.2632 34.8149C89.8396 34.21 90.3926 33.5744 90.9147 32.9115C91.9353 31.4627 92.994 29.9904 93.13 28.2174C93.0901 27.9947 92.8127 27.9947 92.6677 28.0707ZM97.131 17.1685C91.6108 24.4288 84.1219 30.2892 76.5169 34.8185L76.1942 35.0105C76.2501 35.2311 76.3329 35.444 76.4408 35.6444C76.6083 36.1451 76.6539 36.6785 76.5738 37.2004C76.4938 37.7223 76.2903 38.2176 75.9803 38.6452C75.9634 38.6748 75.9579 38.7096 75.965 38.743C75.972 38.7763 75.991 38.806 76.0184 38.8263C78.2337 37.5894 80.42 36.2583 82.5338 34.8149C86.4514 32.1419 90.1315 29.0758 93.2805 25.4683C94.9573 23.411 96.3406 21.303 97.3231 18.9306C97.4954 18.3873 97.7274 17.8548 97.7056 17.2608C97.6897 17.2015 97.6569 17.1481 97.6112 17.1069C97.5655 17.0658 97.5089 17.0387 97.4482 17.0289C97.3875 17.0192 97.3253 17.0272 97.269 17.0519C97.2127 17.0767 97.1648 17.1172 97.131 17.1685Z" fill="#E31B23"/>
<path d="M98.942 9.34473C98.8259 8.78875 98.8441 8.17119 98.5576 7.68947C98.5397 7.66337 98.516 7.6417 98.4884 7.62611C98.4609 7.61053 98.4301 7.60143 98.3984 7.5995C98.3668 7.59758 98.3351 7.60289 98.3059 7.61503C98.2766 7.62717 98.2505 7.64581 98.2295 7.66955C97.8833 8.51891 97.595 9.38276 97.2451 10.205C95.6299 13.53 93.8605 16.8568 91.4748 19.7797C89.7435 22.2029 87.4865 24.2203 85.5631 26.4316C85.5467 26.5058 85.5069 26.6416 85.5631 26.7213C85.6609 26.8372 85.8332 26.7974 85.9256 26.7974L86.8665 26.0458C90.9291 22.5868 94.8141 18.9539 97.8343 14.4735C98.806 13.0156 99.1577 11.1684 98.942 9.34473ZM87.3233 9.56929C88.7482 11.8964 87.8998 15.0023 86.5891 17.1447C83.7448 22.3731 79.354 26.4877 74.6587 29.9866C73.3117 30.9084 71.9847 31.832 70.6577 32.7936C68.9842 33.9384 67.3722 35.1704 65.8282 36.4844C65.6932 36.5338 65.5476 36.547 65.4058 36.5225C65.3326 36.4727 65.2677 36.4116 65.2137 36.3414C65.2518 35.7981 65.7575 35.5137 66.0603 35.1099C71.3683 29.8236 77.9672 25.8738 82.3561 19.6512C84.3938 16.8839 86.0326 13.731 86.4767 10.2665C86.4767 9.82826 86.4169 9.40268 86.4169 8.96442C86.449 8.90026 86.5043 8.8506 86.5715 8.82541C86.6387 8.80022 86.713 8.80136 86.7795 8.82859C86.9923 9.05078 87.1751 9.29979 87.3233 9.56929Z" fill="#E31B23"/>
<path d="M95.4196 0.362201C95.2383 0.210077 95.0951 0.0217321 94.8413 0C94.7144 0.0398421 94.6908 0.193778 94.651 0.307871C94.7271 1.39447 94.457 2.28911 94.3609 3.20548C94.1796 4.45145 93.7264 5.64671 93.4182 6.85646C91.829 12.0619 89.2764 16.9234 85.893 21.1888C81.6963 26.8282 75.9785 30.874 70.2227 34.8202C69.3344 35.4287 68.4406 36.0299 67.5578 36.6457C65.9788 37.8735 64.3236 39.0833 63.3428 40.8744C62.6884 42.0823 62.1717 43.4659 61.6877 44.7554C61.2182 46.2911 60.5148 47.8993 59.4706 49.1851C58.6004 50.3025 57.4065 51.1246 56.0515 51.5394C55.7597 51.5195 55.3173 51.7458 55.1288 51.4253C55.1059 51.3388 55.1111 51.2473 55.1437 51.1639C55.1763 51.0806 55.2345 51.0098 55.3101 50.9617C56.2002 50.5747 56.9725 49.96 57.5489 49.1796C58.0536 48.5008 58.4476 47.7466 58.7164 46.9449C59.6609 44.136 60.3154 41.1931 61.7765 38.5998C62.4954 37.2513 63.3704 35.9918 64.3834 34.8474C66.7293 32.149 69.6842 29.9142 72.3908 27.5472C73.1033 27.0419 73.7741 26.3537 74.472 25.8141C77.7442 22.8929 80.837 19.5679 83.0523 15.8155C83.8916 14.2852 84.6258 12.677 84.8361 10.9022C85.1987 8.84132 84.8796 6.4834 83.1429 5.36601C82.541 4.98207 81.9501 4.38263 81.1995 4.47861C81.1635 4.48355 81.129 4.49684 81.099 4.51741C81.069 4.53797 81.0442 4.56526 81.0266 4.59709C81.009 4.62893 80.9991 4.66442 80.9976 4.70076C80.9962 4.7371 81.0032 4.77328 81.0182 4.80641C81.9591 6.15017 82.2093 8.13684 81.7307 9.71061C80.614 13.7057 78.2681 17.2281 75.5307 20.4535C71.992 24.8579 67.3221 28.1448 63.1815 32.0113C62.6376 32.5872 61.9687 33.0979 61.5499 33.7626C61.2336 34.0997 60.9347 34.4527 60.6544 34.8202C59.5213 36.3106 58.7273 38.0076 58.091 39.7008C57.3223 42.0262 56.822 44.4493 56.1929 46.8145C56.095 47.3886 55.7651 47.8522 55.5729 48.3719C55.3681 48.6708 55.1179 49.0402 54.7789 49.1851C54.6373 49.253 54.4764 49.2696 54.3239 49.2322C54.286 49.2205 54.2495 49.2047 54.2151 49.1851C53.7039 48.9243 53.412 48.352 53.3087 47.8341C52.2681 43.1979 54.478 39.0634 57.3242 35.6804C57.5671 35.3925 57.81 35.1027 58.0602 34.8202C58.9104 33.8477 59.806 32.8752 60.6616 31.8773C61.5123 30.9055 62.2874 29.8702 62.9803 28.7805C63.9647 27.1506 64.3091 24.7963 63.216 23.1664C62.8878 22.413 62.179 21.8751 61.4847 21.551C61.4531 21.5174 61.4355 21.473 61.4355 21.4269C61.4355 21.3808 61.4531 21.3364 61.4847 21.3028C62.0992 21.1489 62.6576 21.4369 63.2359 21.4568C64.638 21.6177 66.0582 21.4311 67.371 20.9135C68.1777 20.5114 69.0824 19.9102 69.3162 18.9884C69.3724 18.6642 69.5483 18.1807 69.1821 17.9308C68.892 17.8149 68.9663 18.2006 68.8322 18.3165C68.1977 18.9884 67.2151 19.2582 66.2779 19.2582C63.9864 19.0264 61.9089 18.3165 59.8132 17.6283C58.2904 17.1611 56.8274 16.6431 55.2684 16.3606C53.6132 16.1922 51.3598 15.7865 50.2667 17.344C50.0328 17.7279 50.1307 18.1517 50.3211 18.5356C49.3983 18.6298 48.4393 18.59 47.4749 18.6914C47.2669 18.012 47.0156 17.3466 46.7225 16.6993C46.1787 16.8134 45.6638 17.0035 45.0674 16.9293C45.544 17.4992 45.8688 18.18 46.0119 18.9087C44.6831 19.3144 43.202 19.7707 42.4134 20.9823C42.2575 21.3862 41.913 21.7719 42.0073 22.2174C43.298 21.656 44.6432 21.2177 46.1461 21.1308L46.2222 21.1888C46.1976 21.9368 46.0551 22.6764 45.7998 23.3801C45.1852 23.5612 44.5707 23.4561 43.9742 23.5123C44.0105 23.6064 43.8782 23.7079 43.918 23.8201C44.0105 24.5138 44.8625 24.4558 45.2233 24.7637C44.8628 25.528 44.3891 26.2337 43.8183 26.8572C43.2618 26.3411 42.5095 25.8974 41.7408 25.9354C40.2561 25.7996 39.1448 26.9351 37.8178 27.3045C37.506 27.4168 37.1597 27.2031 36.8914 27.147C36.7772 27.5092 37.0255 27.8967 37.3319 28.1249C37.5839 28.2191 37.796 28.4762 38.0661 28.4147C38.4287 28.6103 38.949 28.5867 39.4131 28.5686C40.4319 28.4762 41.1824 27.741 42.1324 27.4168C42.5385 27.357 42.9609 27.089 43.3669 27.3389C43.2908 27.607 42.9609 27.7609 42.7542 27.9692C41.4616 28.9127 39.8536 29.3564 39.0179 30.8378C38.7918 31.4346 38.7982 32.0945 39.036 32.6868C39.2308 33.0144 39.5171 33.2781 39.8597 33.4454C40.2024 33.6126 40.5865 33.6763 40.9649 33.6285C40.9529 33.5375 40.9207 33.4502 40.8706 33.3732C40.5425 32.3138 41.681 31.6256 42.3354 31.0098C42.7941 30.4901 43.1222 29.7222 42.7741 29.0268C43.2201 28.6646 43.6425 28.3205 44.1229 27.9692C44.3779 28.6932 44.7981 29.3479 45.3502 29.8816C46.0463 30.4774 47.1032 30.7309 47.968 30.3271C49.0031 29.8617 50.0437 28.7859 49.9712 27.5707C49.4655 28.1032 48.8032 28.4609 48.0804 28.5921C47.7921 28.2651 47.4774 27.9623 47.1395 27.6866C46.8132 27.4514 46.4413 27.287 46.0475 27.204C45.6538 27.1211 45.2471 27.1214 44.8535 27.2049C45.5108 26.4031 46.0905 25.5408 46.5848 24.6297C47.811 24.495 49.0266 24.2772 50.2232 23.9777C51.7424 23.668 53.5752 23.7423 54.5541 25.0516C54.7607 25.3084 54.9286 25.5939 55.0526 25.8992C55.7053 27.7627 54.5541 29.4741 53.3069 30.7998C51.8765 32.2486 50.2069 33.6068 48.6079 34.8854L48.6949 34.8256C45.3031 37.5258 41.8061 40.1138 39.3496 43.801C38.7041 44.6499 38.1738 45.5804 37.7724 46.5682C37.3343 47.406 36.975 48.2827 36.6992 49.1869C36.2171 50.7864 35.9728 52.4479 35.9741 54.1183C35.9727 54.8712 36.023 55.6233 36.1246 56.3693V56.3784C36.3384 58.0506 36.8563 59.6696 37.6528 61.1558C38.1108 62.0821 38.6572 62.9621 39.2844 63.7836L39.1412 63.5518C41.5577 66.6794 45.3049 68.9486 48.7783 70.3304C52.7253 71.9605 56.8763 73.0456 61.1167 73.5558L61.1892 73.6373C61.7244 75.0072 62.0543 76.4486 62.1681 77.9149C62.2653 79.3013 62.0968 80.6935 61.6714 82.0168C61.617 82.1707 61.4901 82.3464 61.5354 82.5347C62.2104 82.2773 62.8219 81.8777 63.3283 81.363C63.6909 81.1131 63.8722 80.731 64.1731 80.4213C64.2041 80.414 64.2367 80.4177 64.2652 80.432C64.2937 80.4462 64.3163 80.47 64.329 80.4992C64.8496 84.4725 65.8272 88.3726 67.2423 92.1222C67.2623 92.1693 67.2786 92.2164 67.3021 92.2616V92.2816C67.6303 93.1164 68.0273 94.0636 68.4044 94.8604C68.6183 95.5341 69.2727 96.0557 69.0987 96.7837C68.9627 96.9539 68.7524 97.1839 68.5059 97.1676C68.2127 97.162 67.9213 97.1219 67.6375 97.0481C66.8489 96.8417 66.0785 96.4759 65.308 96.2603C64.155 96.0792 62.4981 95.42 61.5336 96.4758C61.4624 96.6258 61.4243 96.7892 61.4218 96.9551C61.4193 97.121 61.4525 97.2855 61.5191 97.4375C61.1729 97.5136 60.794 97.4194 60.4042 97.452C60.0063 97.4535 59.6168 97.566 59.2795 97.7769C58.9422 97.9878 58.6706 98.2886 58.4953 98.6454C58.381 98.995 58.3811 99.5129 58.5932 99.8171C58.6603 99.9286 58.7534 100.022 58.8645 100.09C58.9756 100.158 59.1014 100.198 59.2313 100.207C59.3012 100.134 59.3413 100.039 59.3437 99.9385C59.8422 98.975 60.9753 98.8211 61.9977 98.8012C62.0738 98.8211 62.179 98.9008 62.1355 98.9949C61.8472 99.2431 61.481 99.3789 61.249 99.6904C60.9626 100.087 60.8067 100.572 61.0586 101.067C61.1593 101.279 61.3171 101.459 61.5143 101.587C61.7114 101.715 61.9403 101.786 62.1754 101.791C62.3567 101.791 62.3458 101.865 62.4237 101.791C62.3657 101.429 62.5941 101.038 62.8842 100.753C64.1151 99.7864 65.6706 99.5872 67.2514 99.4242C70.1737 99.1742 73.5511 99.1163 76.39 99.7157C76.7239 99.7594 77.0454 99.871 77.3345 100.044C77.5594 100.135 77.7637 100.27 77.9353 100.441C78.1068 100.613 78.2422 100.817 78.3334 101.041C78.5587 101.052 78.7797 100.977 78.9516 100.831C79.5897 100.335 80.1807 99.656 80.0103 98.8392C79.9375 98.5999 79.7971 98.3868 79.606 98.2253C78.6198 97.4502 77.2203 97.4737 76.0256 97.5697H75.8534C74.8745 97.6077 73.8701 97.586 73.0815 97.0463C72.041 96.2458 71.8887 94.8966 71.3484 93.8209C71.198 93.3084 71.0131 92.6094 70.8807 92.0968L70.9152 92.2779C69.9308 88.6431 69.2911 84.9238 69.0044 81.1692C69.0044 81.0895 69.0044 80.9755 69.0987 81.0135C70.0012 81.6948 71.0612 82.1376 72.1805 82.3011C72.7425 82.3808 73.4187 82.3989 73.7777 81.9552C73.261 81.4717 72.5903 81.0497 72.0899 80.5517C71.3726 79.7898 70.7627 78.9338 70.277 78.0072H70.2897C68.9665 75.3859 68.5453 72.4019 69.0914 69.5172C67.8986 68.5538 66.8616 67.632 65.7666 66.6359C64.7587 65.6489 63.7109 64.575 62.7791 63.4993H62.7645C60.9245 61.3931 59.3999 59.075 58.8379 56.3766C58.7926 56.1375 58.7382 55.8333 58.7074 55.6196C58.7255 55.2139 58.5261 54.6779 58.8615 54.3301C58.9158 54.312 59.0301 54.2921 59.0718 54.3519C59.2911 54.9803 59.8603 56.3675 59.8603 56.3675C60.2037 57.1569 60.5886 57.9277 61.0133 58.6766C61.976 60.464 63.4281 62.0975 64.8983 63.5518H64.8947C67.3003 65.9061 70.0214 68.0413 71.9648 70.6745C72.6882 71.6722 73.2815 72.7579 73.7305 73.9053C74.1546 75.2347 74.4032 76.6136 74.4702 78.0072V78.4437C74.4748 78.9251 74.4446 79.4063 74.3795 79.8834C74.4629 79.9794 74.5373 80.0754 74.6714 80.0374C74.9977 79.8255 75.034 79.4633 75.17 79.1319C75.2751 78.757 75.3512 78.3821 75.4238 78.0054H75.4419C76.0981 74.1733 74.9977 70.2471 72.786 67.1557C71.7268 65.8493 70.5502 64.6423 69.2709 63.55H69.2564C66.6604 61.2844 63.7943 59.1746 61.8237 56.3874C61.5517 55.9926 61.2309 55.4946 61.0043 55.0998C60.8919 54.8119 60.5982 54.4279 60.9281 54.1382C60.972 54.1228 61.0186 54.1165 61.065 54.1196C61.1115 54.1227 61.1568 54.1352 61.1982 54.1563L62.1953 55.2338C62.6105 55.6304 63.6293 56.5015 63.6293 56.5015C66.4392 58.8106 69.7187 60.3861 73.571 60.2702C75.857 59.9642 77.9219 58.7906 79.577 57.1553L79.6296 56.9271C79.6145 56.8837 79.5891 56.8446 79.5557 56.8131C79.5222 56.7816 79.4817 56.7586 79.4374 56.746C77.6779 56.8137 75.9161 56.6996 74.1801 56.4056H74.2363C72.7769 56.1456 71.3358 55.7924 69.9217 55.3479C68.7488 54.8879 67.5759 54.4823 66.519 53.7724C66.4927 53.6679 66.5043 53.5576 66.5516 53.4609C68.7905 53.3866 71.2306 52.6187 72.4833 50.5633C72.4634 50.4274 72.5812 50.2174 72.3854 50.1576C70.6179 50.2952 68.6908 50.3133 66.9794 49.9493C66.8453 49.9493 66.8109 49.8352 66.8109 49.7211C66.8254 49.6396 66.9214 49.6052 66.9794 49.54C67.8343 49.4929 68.6835 49.3717 69.5175 49.1778C70.9046 48.8622 72.202 48.2361 73.3118 47.3469C73.6598 47.0771 73.7541 46.6533 74.0804 46.4034C74.2617 46.0557 74.5445 45.7098 74.3542 45.2878C72.389 45.6156 70.4674 46.1154 68.5222 46.206C68.002 46.2464 67.4791 46.2342 66.9613 46.1698C66.8671 46.0557 66.9613 45.9198 67.0429 45.8438C68.156 45.5359 69.2945 45.3457 70.3514 44.922C71.8488 44.3624 73.3517 43.7919 74.4484 42.4789C74.7004 41.9356 75.2189 41.4267 74.9923 40.7874C74.9521 40.7354 74.8984 40.6952 74.8371 40.6713C74.7758 40.6474 74.7091 40.6406 74.6442 40.6516C72.4657 41.5753 70.1884 42.2467 67.8569 42.6528C67.5432 42.6311 67.2151 42.8683 66.9867 42.5985C66.8326 42.4445 67.1209 42.4789 67.0792 42.3431C69.5664 41.501 72.0446 40.6933 74.0677 38.8678C74.7766 38.0999 75.3966 37.0767 75.199 36.0209C75.1762 35.9372 75.1263 35.8634 75.0571 35.811C74.9879 35.7585 74.9033 35.7305 74.8164 35.7311C73.0852 36.5569 71.3521 37.361 69.5084 37.946C69.2763 37.946 69.0642 38.1941 68.8322 38.0003C68.8047 37.9593 68.7917 37.9103 68.7953 37.8611C68.7989 37.8118 68.8189 37.7652 68.8521 37.7287C70.3024 36.7272 71.7654 35.7746 73.2374 34.8129C74.6315 33.9074 76.0202 33.0019 77.3798 32.024C78.3225 31.3105 79.2978 30.5227 80.2623 29.8109C84.6331 26.37 88.5579 22.0635 91.7522 17.3893C92.1764 16.7735 92.5426 16.1216 92.9868 15.5276C94.6582 12.4488 96.4819 9.35384 97.1382 5.85679C97.2487 4.87195 97.1529 3.87493 96.8571 2.92903C96.5612 1.98313 96.0717 1.10902 95.4196 0.362201ZM47.3788 23.2497C47.5152 22.8559 47.623 22.4528 47.7015 22.0436C47.7812 21.726 47.8232 21.4002 47.8266 21.0729C49.7609 21.0729 50.7108 21.1453 50.7108 21.7538C50.7018 22.5832 48.9306 23.0269 47.3697 23.2479L47.3788 23.2497ZM53.4664 20.4879C53.1869 20.5069 52.909 20.4331 52.676 20.2778C52.3714 19.9881 52.3515 19.5081 52.4657 19.1405C52.5835 18.9304 52.8917 19.0826 53.0984 19.0826C54.1765 19.2459 55.2442 19.4715 56.2963 19.7581C56.3525 19.7961 56.3126 19.8703 56.2963 19.9392C55.3028 20.0442 54.4363 20.4082 53.4573 20.4861L53.4664 20.4879ZM55.6418 65.2922C54.3654 64.8851 53.1379 64.3385 51.9816 63.6623C50.1362 62.5521 48.2798 60.9838 46.9963 59.218C46.3501 58.3374 45.8138 57.3814 45.3992 56.3711C44.6989 54.6449 44.3358 52.8007 44.3296 50.9381C44.3288 50.3659 44.3657 49.7942 44.4401 49.2267C44.5847 48.1352 44.8755 47.068 45.3049 46.0539C45.9028 44.6771 46.6584 43.3741 47.5565 42.1711C48.3849 41.2275 49.188 40.2278 50.2921 39.4944C50.3863 39.4944 50.4733 39.4944 50.5205 39.5904V39.7841C49.8975 40.7097 49.3564 41.6877 48.9034 42.7071C47.997 44.7391 47.3661 46.9684 47.2845 49.1923C47.2645 49.6578 47.2718 50.124 47.3063 50.5886C47.4422 52.6369 47.9272 54.647 48.7403 56.5323C49.1672 57.5498 49.6892 58.5248 50.2993 59.4444C50.5332 59.7143 50.6855 60.0602 50.9556 60.272C51.8755 61.4718 52.946 62.5485 54.1408 63.4757C54.8043 64.0045 55.5911 64.5623 56.2854 65.0241C56.4431 65.1581 56.7495 65.2704 56.7096 65.4823C56.3597 65.7141 55.9718 65.3628 55.6291 65.2903L55.6418 65.2922Z" fill="#E31B23"/>
</g>
<defs>
<clipPath id="clip0_27_349">
<rect width="70" height="128" fill="white" transform="translate(29)"/>
</clipPath>
</defs>
</svg>
