<svg width="128" height="128" viewBox="0 0 128 128" fill="none" xmlns="http://www.w3.org/2000/svg">
<path d="M63.8416 128C46.5586 123.342 32.2608 115.601 23.135 105.212C14.4223 95.3327 9.98269 82.9926 10.0001 69.0627V0H117.673V69.0627C117.694 82.9926 113.257 95.3327 104.541 105.212C95.4155 115.601 81.1351 123.342 63.8416 128Z" fill="white"/>
<path d="M112.976 69.0644C112.976 95.5878 95.8356 114.332 63.7306 123.225C31.6117 114.332 14.5959 95.5878 14.5959 69.0644V5.27442H112.976V69.0644Z" fill="white"/>
<path d="M112.081 69.0561C112.081 95.0414 95.2975 113.401 63.8416 122.113C32.3753 113.401 15.7102 95.0414 15.7102 69.0561V6.56087H112.081V69.0561ZM13.0374 3.95747V69.063C13.0374 82.3646 17.2097 93.8681 25.4191 103.209C34.0242 113.012 46.9439 120.284 63.8312 124.835C80.729 120.284 93.6557 113.012 102.264 103.209C110.474 93.8681 114.636 82.3646 114.636 69.063V3.95747H13.0374Z" fill="#2B57AC"/>
<path d="M62.3455 85.4321L62.3178 84.9635H62.0331C61.8248 85.078 61.5819 85.3904 61.4118 85.8417L61.3319 86.0569C61.1341 86.6713 61.141 87.1399 61.141 87.1399C61.141 87.1399 61.6027 86.6713 61.8804 86.2964L61.9984 86.1194L62.3455 85.4321Z" fill="#1C5329"/>
<path d="M59.7943 82.4253C59.4575 82.6614 58.614 83.4216 59.1139 84.6053C59.6971 85.9903 60.9988 86.0632 61.332 86.0527L61.4084 85.841C61.5819 85.3897 61.8249 85.0808 62.0332 84.9628C61.9672 84.5532 61.8735 84.029 61.7485 83.6923C61.5819 83.2758 61.207 82.7343 60.9883 82.4462C60.7835 82.5607 60.4087 82.6024 59.7943 82.4253Z" fill="#EA1F29"/>
<path d="M63.7514 80.5399C63.6125 80.3455 63.5153 79.9081 63.4668 79.2625V79.134C63.1057 78.8425 61.8422 77.9747 60.6377 78.9605C59.3916 79.9671 59.8498 81.2619 60.0615 81.7097L61.082 82.0359C61.3632 81.8138 61.8353 81.4528 62.2796 81.1751C62.7378 80.887 63.3487 80.6579 63.7514 80.5399Z" fill="#EA1F29"/>
<path d="M59.9529 81.6933C59.1511 81.5718 58.6061 81.7731 58.6061 81.7731C58.6061 81.7731 58.7901 82.1446 59.7689 82.4223L59.7932 82.4257C60.4111 82.6028 60.786 82.5576 60.9908 82.4466L61.1817 82.1793L61.0845 82.037L60.0605 81.7072L59.9529 81.6933Z" fill="#1C5329"/>
<path d="M65.8694 84.6522C65.4077 84.6418 64.7065 84.6522 64.1546 84.7667C63.5159 84.9125 62.7245 85.2527 62.3461 85.4332L61.999 86.117L61.881 86.2975C62.0893 86.5544 62.9605 87.5055 64.4219 87.3111C66.095 87.1028 66.5115 85.9504 66.5844 85.6692L66.4734 85.5373L65.8694 84.6522Z" fill="#EA1F29"/>
<path d="M67.8308 81.5118L67.3969 81.727C66.9596 81.8901 66.5812 82.0394 66.3382 82.0533C66.2515 82.3171 66.1508 82.6781 66.123 83.0946C66.0953 83.5042 66.1647 83.9624 66.2202 84.2679C66.425 84.4206 66.6715 84.6775 66.9492 85.035L67.0255 85.1391L67.1887 85.4064C67.6851 85.4273 68.782 85.2884 69.0145 83.7264C69.2853 81.9804 68.0738 81.5742 67.8308 81.5118Z" fill="#EA1F29"/>
<path d="M67.6389 81.0941C67.684 80.8893 68.0068 79.1919 66.4934 78.4109C65.4277 77.8659 64.5356 78.4352 64.0983 78.8239L64.1434 79.112C64.2093 79.6466 64.192 80.1395 64.1052 80.4207C64.2232 80.5144 64.6884 80.8615 65.1986 81.1045C65.6499 81.3128 66.2122 81.4794 66.3615 81.5141L67.1772 81.2121L67.6389 81.0941Z" fill="#EA1F29"/>
<path d="M64.145 79.1121L64.0964 78.824C63.9749 78.2513 63.7042 78.1714 63.7042 78.1714C63.7042 78.1714 63.4369 78.3311 63.4681 79.1364V79.2649C63.5132 79.907 63.6104 80.3444 63.7493 80.5423L63.9367 80.636L64.0964 80.4277L64.1033 80.4173C64.1901 80.1361 64.2075 79.6467 64.145 79.1121Z" fill="#1C5329"/>
<path d="M67.8307 81.5118C68.2125 81.307 68.636 81.0501 68.6152 81.0119C68.5978 80.9842 68.1327 81.0015 67.6398 81.0918L67.1746 81.2133L66.3624 81.5152L66.0638 81.911L66.3381 82.0533C66.581 82.0394 66.9594 81.8901 67.3968 81.727L67.8307 81.5118Z" fill="#1C5329"/>
<path d="M66.9492 85.0367C66.6715 84.6757 66.425 84.4223 66.2202 84.2661L66.0085 84.1342L65.7968 84.155L65.7725 84.4223L65.8697 84.6514L66.4702 85.5366L66.5812 85.6685L66.6715 85.7518C67.0637 86.1162 67.4178 86.1301 67.4178 86.1301C67.4178 86.1301 67.4247 85.8385 67.1887 85.4046L67.0221 85.1408L66.9492 85.0367Z" fill="#1C5329"/>
<path d="M64.9031 82.4327C65.042 82.9603 64.6081 83.5261 63.9416 83.6962C63.2751 83.8628 62.6191 83.5817 62.4872 83.0575C62.3483 82.5369 62.7857 81.9745 63.4487 81.8044C64.1152 81.6274 64.7643 81.9086 64.9031 82.4327Z" fill="#F2BB0E"/>
<path d="M98.0812 85.4321L98.0534 84.9635H97.7653C97.564 85.078 97.3141 85.3904 97.1475 85.8417L97.078 86.0569C96.8767 86.6713 96.8767 87.1399 96.8767 87.1399C96.8767 87.1399 97.3453 86.6713 97.6265 86.2964L97.7376 86.1194L98.0812 85.4321Z" fill="#1C5329"/>
<path d="M95.5236 82.4253C95.1973 82.6614 94.3538 83.4216 94.8536 84.6053C95.4299 85.9903 96.7385 86.0632 97.0787 86.0527L97.1481 85.841C97.3112 85.3897 97.5646 85.0808 97.766 84.9628C97.7069 84.5532 97.6132 84.029 97.4883 83.6923C97.3147 83.2758 96.9398 82.7343 96.7281 82.4462C96.5267 82.5607 96.1484 82.6024 95.5236 82.4253Z" fill="#EA1F29"/>
<path d="M99.4902 80.5399C99.3548 80.3455 99.2576 79.9081 99.2055 79.2625L99.1951 79.134C98.8515 78.8425 97.581 77.9747 96.3765 78.9605C95.1338 79.9671 95.5885 81.2619 95.7899 81.7097L96.8173 82.0359C97.0985 81.8138 97.5741 81.4528 98.0149 81.1751C98.48 80.887 99.0944 80.6579 99.4902 80.5399Z" fill="#EA1F29"/>
<path d="M95.6822 81.6933C94.8804 81.5718 94.3528 81.7731 94.3528 81.7731C94.3528 81.7731 94.5263 82.1446 95.5052 82.4223L95.5226 82.4257C96.1474 82.6028 96.5257 82.5576 96.7305 82.4466L96.9215 82.1793L96.8173 82.037L95.7899 81.7072L95.6822 81.6933Z" fill="#1C5329"/>
<path d="M101.603 84.6522C101.145 84.6418 100.451 84.6522 99.8986 84.7667C99.253 84.9125 98.4685 85.2527 98.0797 85.4332L97.7395 86.117L97.625 86.2975C97.8263 86.5544 98.6941 87.5055 100.155 87.3111C101.829 87.1028 102.245 85.9504 102.322 85.6692L102.21 85.5373L101.603 84.6522Z" fill="#EA1F29"/>
<path d="M103.576 81.5118L103.135 81.727C102.69 81.8901 102.323 82.0394 102.083 82.0533C101.982 82.3171 101.882 82.6781 101.857 83.0946C101.83 83.5042 101.903 83.9624 101.962 84.2679C102.163 84.4206 102.406 84.6775 102.684 85.035L102.756 85.1391L102.927 85.4064C103.43 85.4273 104.52 85.2884 104.756 83.7264C105.027 81.9804 103.815 81.5742 103.576 81.5118Z" fill="#EA1F29"/>
<path d="M103.38 81.0941C103.432 80.8893 103.748 79.1919 102.238 78.4109C101.162 77.8659 100.28 78.4352 99.8392 78.8239L99.8844 79.112C99.9503 79.6466 99.933 80.1395 99.8392 80.4207C99.9711 80.5144 100.429 80.8615 100.933 81.1045C101.384 81.3128 101.95 81.4794 102.099 81.5141L102.915 81.2121L103.38 81.0941Z" fill="#EA1F29"/>
<path d="M99.8861 79.1121L99.841 78.824C99.7125 78.2513 99.4453 78.1714 99.4453 78.1714C99.4453 78.1714 99.1745 78.3311 99.1988 79.1364L99.2092 79.2649C99.2613 79.907 99.355 80.3444 99.4904 80.5423L99.6813 80.636L99.8375 80.4277L99.841 80.4173C99.9347 80.1361 99.9521 79.6467 99.8861 79.1121Z" fill="#1C5329"/>
<path d="M103.576 81.5118C103.954 81.307 104.377 81.0501 104.353 81.0119C104.339 80.9842 103.871 81.0015 103.381 81.0918L102.913 81.2133L102.097 81.5152L101.795 81.911L102.083 82.0533C102.323 82.0394 102.69 81.8901 103.135 81.727L103.576 81.5118Z" fill="#1C5329"/>
<path d="M102.685 85.0367C102.404 84.6757 102.164 84.4223 101.963 84.2661L101.744 84.1342L101.533 84.155L101.512 84.4223L101.602 84.6514L102.209 85.5366L102.321 85.6685L102.404 85.7518C102.803 86.1162 103.161 86.1301 103.161 86.1301C103.161 86.1301 103.161 85.8385 102.924 85.4046L102.758 85.1408L102.685 85.0367Z" fill="#1C5329"/>
<path d="M100.642 82.4327C100.781 82.9603 100.347 83.5261 99.6802 83.6962C99.0102 83.8628 98.3576 83.5817 98.2223 83.0575C98.0869 82.5369 98.5173 81.9745 99.1873 81.8044C99.8572 81.6274 100.506 81.9086 100.642 82.4327Z" fill="#F2BB0E"/>
<path d="M26.332 85.4321L26.3077 84.9635H26.0265C25.8182 85.078 25.5752 85.3904 25.4052 85.8417L25.3357 86.0569C25.1309 86.6713 25.1344 87.1399 25.1344 87.1399C25.1344 87.1399 25.5995 86.6713 25.8807 86.2964L25.9953 86.1194L26.332 85.4321Z" fill="#1C5329"/>
<path d="M23.7785 82.4253C23.4557 82.6614 22.6157 83.4216 23.1051 84.6053C23.6848 85.9903 24.99 86.0632 25.3371 86.0527L25.4065 85.841C25.5766 85.3897 25.8196 85.0808 26.0244 84.9628C25.9654 84.5532 25.8717 84.029 25.7467 83.6923C25.5766 83.2758 25.1983 82.7343 24.99 82.4462C24.7817 82.5607 24.4068 82.6024 23.7785 82.4253Z" fill="#EA1F29"/>
<path d="M27.7369 80.5399C27.6084 80.3455 27.5043 79.9081 27.4626 79.2625L27.4557 79.134C27.1016 78.8425 25.8416 77.9747 24.6301 78.9605C23.3875 79.9671 23.8387 81.2619 24.0609 81.7097L25.0779 82.0359C25.3591 81.8138 25.8312 81.4528 26.2755 81.1751C26.7372 80.887 27.3481 80.6579 27.7369 80.5399Z" fill="#EA1F29"/>
<path d="M23.9393 81.6933C23.1409 81.5718 22.6029 81.7731 22.6029 81.7731C22.6029 81.7731 22.7799 82.1446 23.7623 82.4223L23.7796 82.4257C24.4079 82.6028 24.7828 82.5576 24.9876 82.4466L25.1751 82.1793L25.0744 82.037L24.0573 81.7072L23.9393 81.6933Z" fill="#1C5329"/>
<path d="M29.8597 84.6522C29.4015 84.6418 28.7038 84.6522 28.1484 84.7667C27.5062 84.9125 26.7252 85.2527 26.333 85.4332L25.9963 86.117L25.8817 86.2975C26.083 86.5544 26.9543 87.5055 28.4192 87.3111C30.0888 87.1028 30.4984 85.9504 30.5782 85.6692L30.4637 85.5373L29.8597 84.6522Z" fill="#EA1F29"/>
<path d="M31.8286 81.5118L31.3947 81.727C30.9504 81.8901 30.5755 82.0394 30.336 82.0533C30.2388 82.3171 30.1416 82.6781 30.1069 83.0946C30.0896 83.5042 30.1555 83.9624 30.225 84.2679C30.4193 84.4206 30.6623 84.6775 30.9435 85.035L31.0129 85.1391L31.1795 85.4064C31.6794 85.4273 32.7797 85.2884 33.0123 83.7264C33.2796 81.9804 32.0716 81.5742 31.8286 81.5118Z" fill="#EA1F29"/>
<path d="M31.6359 81.0941C31.6811 80.8893 32.0004 79.1919 30.487 78.4109C29.4178 77.8659 28.5327 78.4352 28.0884 78.8239L28.1404 79.112C28.2064 79.6466 28.1821 80.1395 28.0884 80.4207C28.2238 80.5144 28.682 80.8615 29.1853 81.1045C29.6435 81.3128 30.2058 81.4794 30.3551 81.5141L31.1743 81.2121L31.6359 81.0941Z" fill="#EA1F29"/>
<path d="M28.1402 79.1121L28.0881 78.824C27.9666 78.2513 27.6993 78.1714 27.6993 78.1714C27.6993 78.1714 27.4251 78.3311 27.4563 79.1364L27.4598 79.2649C27.5084 79.907 27.6056 80.3444 27.7375 80.5423L27.9284 80.636L28.0881 80.4277V80.4173C28.1853 80.1361 28.2061 79.6467 28.1402 79.1121Z" fill="#1C5329"/>
<path d="M31.8286 81.5118C32.2069 81.307 32.6339 81.0501 32.6061 81.0119C32.5957 80.9842 32.1202 81.0015 31.6342 81.0918L31.1725 81.2133L30.3568 81.5152L30.0548 81.911L30.336 82.0533C30.5755 82.0394 30.9504 81.8901 31.3947 81.727L31.8286 81.5118Z" fill="#1C5329"/>
<path d="M30.9431 85.0367C30.6619 84.6757 30.4189 84.4223 30.2245 84.2661L30.0024 84.1342L29.7871 84.155L29.7767 84.4223L29.86 84.6514L30.464 85.5366L30.5786 85.6685L30.6619 85.7518C31.0611 86.1162 31.4186 86.1301 31.4186 86.1301C31.4186 86.1301 31.4186 85.8385 31.1826 85.4046L31.0125 85.1408L30.9431 85.0367Z" fill="#1C5329"/>
<path d="M28.8937 82.4327C29.029 82.9603 28.6021 83.5261 27.9321 83.6962C27.2657 83.8628 26.6131 83.5817 26.4812 83.0575C26.3458 82.5369 26.7762 81.9745 27.4427 81.8044C28.1057 81.6274 28.7652 81.9086 28.8937 82.4327Z" fill="#F2BB0E"/>
<path d="M62.3455 52.124L62.3178 51.6554L62.0331 51.6484C61.8248 51.7768 61.5819 52.0893 61.4118 52.537L61.3319 52.7418C61.1341 53.3562 61.141 53.8318 61.141 53.8318C61.141 53.8318 61.6027 53.3632 61.8804 52.9918L61.9984 52.8217L62.3455 52.124Z" fill="#1C5329"/>
<path d="M59.7943 49.1176C59.4575 49.3537 58.614 50.1069 59.1139 51.3045C59.6971 52.6791 60.9988 52.752 61.332 52.745L61.4084 52.5333C61.5819 52.089 61.8249 51.7766 62.0332 51.6516C61.9672 51.2455 61.8735 50.7109 61.7485 50.3881C61.5819 49.9681 61.207 49.4266 60.9883 49.1385C60.7835 49.2461 60.4087 49.2947 59.7943 49.1176Z" fill="#EA1F29"/>
<path d="M63.7514 47.2237C63.6125 47.0398 63.5153 46.5989 63.4668 45.9498V45.8248C63.1057 45.5367 61.8422 44.6655 60.6377 45.6548C59.3916 46.6614 59.8498 47.9596 60.0615 48.4074L61.082 48.7302C61.3632 48.5011 61.8353 48.1401 62.2796 47.8624C62.7378 47.5778 63.3487 47.3522 63.7514 47.2237Z" fill="#EA1F29"/>
<path d="M59.9529 48.3848C59.1511 48.2668 58.6061 48.4681 58.6061 48.4681C58.6061 48.4681 58.7901 48.8361 59.7689 49.1138L59.7932 49.1173C60.4111 49.2978 60.786 49.2457 60.9908 49.1381L61.1817 48.8708L61.0845 48.732L60.0605 48.4057L59.9529 48.3848Z" fill="#1C5329"/>
<path d="M65.8694 51.3474C65.4077 51.3335 64.7065 51.3474 64.1546 51.462C63.5159 51.6043 62.7245 51.941 62.3461 52.125L61.999 52.8192L61.881 52.9893C62.0893 53.2427 62.9605 54.1869 64.4219 54.0029C66.095 53.7877 66.5115 52.6422 66.5844 52.361L66.4734 52.2256L65.8694 51.3474Z" fill="#EA1F29"/>
<path d="M67.8308 48.2035L67.3969 48.4152C66.9596 48.5818 66.5812 48.7311 66.3382 48.745C66.2515 48.9984 66.1508 49.3732 66.123 49.7933C66.0953 50.1959 66.1647 50.6576 66.2202 50.963C66.425 51.1088 66.6715 51.3726 66.9492 51.7336L67.0255 51.8378L67.1887 52.0981C67.6851 52.1224 68.782 51.9836 69.0145 50.425C69.2853 48.6755 68.0738 48.2694 67.8308 48.2035Z" fill="#EA1F29"/>
<path d="M67.6389 47.7867C67.684 47.5784 68.0068 45.8845 66.4934 45.107C65.4277 44.5585 64.5356 45.1243 64.0983 45.5166L64.1434 45.8081C64.2093 46.3392 64.192 46.8321 64.1052 47.1098C64.2232 47.2036 64.6884 47.5542 65.1986 47.7937C65.6499 48.0054 66.2122 48.1686 66.3615 48.2102L67.1772 47.9013L67.6389 47.7867Z" fill="#EA1F29"/>
<path d="M64.145 45.8044L64.0964 45.5128C63.9749 44.947 63.7042 44.8637 63.7042 44.8637C63.7042 44.8637 63.4369 45.0303 63.4681 45.8252V45.9502C63.5132 46.5993 63.6104 47.0367 63.7493 47.2241L63.9367 47.3317L64.0964 47.1235L64.1033 47.1096C64.1901 46.8319 64.2075 46.3355 64.145 45.8044Z" fill="#1C5329"/>
<path d="M67.8307 48.2034C68.2125 48.002 68.636 47.7417 68.6152 47.707C68.5978 47.6827 68.1327 47.6931 67.6398 47.7868L67.1746 47.9014L66.3624 48.2103L66.0638 48.6095L66.3381 48.7449C66.581 48.731 66.9594 48.5817 67.3968 48.4151L67.8307 48.2034Z" fill="#1C5329"/>
<path d="M66.9492 51.7321C66.6715 51.3711 66.425 51.1073 66.2202 50.9615L66.0085 50.8227L65.7968 50.847L65.7725 51.1073L65.8697 51.3468L66.4702 52.225L66.5812 52.3569L66.6715 52.4437C67.0637 52.8082 67.4178 52.8186 67.4178 52.8186C67.4178 52.8186 67.4247 52.5305 67.1887 52.1001L67.0221 51.8363L66.9492 51.7321Z" fill="#1C5329"/>
<path d="M64.9031 49.1238C65.042 49.6514 64.6081 50.2138 63.9416 50.3873C63.2751 50.5609 62.6191 50.2763 62.4872 49.7591C62.3483 49.2314 62.7857 48.6656 63.4487 48.4921C64.1152 48.3185 64.7643 48.5997 64.9031 49.1238Z" fill="#F2BB0E"/>
<path d="M25.8831 52.124L25.8623 51.6554L25.5672 51.6484C25.3728 51.7768 25.1194 52.0893 24.9528 52.537L24.873 52.7418C24.6786 53.3562 24.6786 53.8318 24.6786 53.8318C24.6786 53.8318 25.1472 53.3632 25.4353 52.9918L25.5464 52.8217L25.8831 52.124Z" fill="#1C5329"/>
<path d="M23.3297 49.1176C22.9999 49.3537 22.1564 50.1069 22.6528 51.3045C23.229 52.6791 24.5446 52.752 24.8744 52.745L24.9542 52.5333C25.1173 52.089 25.3742 51.7766 25.5651 51.6516C25.5165 51.2455 25.4193 50.7109 25.2944 50.3881C25.1173 49.9681 24.7494 49.4266 24.5342 49.1385C24.3294 49.2461 23.9545 49.2947 23.3297 49.1176Z" fill="#EA1F29"/>
<path d="M27.2912 47.2237C27.1523 47.0398 27.0621 46.5989 27.0065 45.9498V45.8248C26.6455 45.5367 25.382 44.6655 24.174 45.6548C22.9383 46.6614 23.3895 47.9596 23.5978 48.4074L24.6288 48.7302C24.903 48.5011 25.3751 48.1401 25.8228 47.8624C26.2845 47.5778 26.8989 47.3522 27.2912 47.2237Z" fill="#EA1F29"/>
<path d="M23.4883 48.3848C22.6899 48.2668 22.1484 48.4681 22.1484 48.4681C22.1484 48.4681 22.3359 48.8361 23.3078 49.1138L23.3286 49.1173C23.9535 49.2978 24.3283 49.2457 24.5366 49.1381L24.7241 48.8708L24.6303 48.732L23.5959 48.4057L23.4883 48.3848Z" fill="#1C5329"/>
<path d="M29.405 51.3474C28.9503 51.3335 28.2491 51.3474 27.7006 51.462C27.0619 51.6043 26.267 51.941 25.8817 52.125L25.545 52.8192L25.434 52.9893C25.6318 53.2427 26.4961 54.1869 27.9575 54.0029C29.6306 53.7877 30.0506 52.6422 30.1235 52.361L30.0125 52.2256L29.405 51.3474Z" fill="#EA1F29"/>
<path d="M31.3756 48.2035L30.9348 48.4152C30.4974 48.5818 30.126 48.7311 29.8865 48.745C29.7893 48.9984 29.6886 49.3732 29.6574 49.7933C29.64 50.1959 29.7094 50.6576 29.7685 50.963C29.9663 51.1088 30.2058 51.3726 30.4905 51.7336L30.5634 51.8378L30.73 52.0981C31.2229 52.1224 32.3232 51.9836 32.5628 50.425C32.8266 48.6755 31.6186 48.2694 31.3756 48.2035Z" fill="#EA1F29"/>
<path d="M31.1815 47.7867C31.2231 47.5784 31.546 45.8845 30.036 45.107C28.9634 44.5585 28.0782 45.1243 27.6409 45.5166L27.686 45.8081C27.7485 46.3392 27.7346 46.8321 27.6409 47.1098C27.7693 47.2036 28.231 47.5542 28.7308 47.7937C29.189 48.0054 29.7548 48.1686 29.9041 48.2102L30.7198 47.9013L31.1815 47.7867Z" fill="#EA1F29"/>
<path d="M27.6871 45.8044L27.6385 45.5128C27.517 44.947 27.2463 44.8637 27.2463 44.8637C27.2463 44.8637 26.979 45.0303 27.0068 45.8252V45.9502C27.0623 46.5993 27.1526 47.0367 27.2914 47.2241L27.4789 47.3317L27.6385 47.1235L27.642 47.1096C27.7392 46.8319 27.7461 46.3355 27.6871 45.8044Z" fill="#1C5329"/>
<path d="M31.3756 48.2034C31.7575 48.002 32.181 47.7417 32.1532 47.707C32.1393 47.6827 31.6742 47.6931 31.1812 47.7868L30.7196 47.9014L29.9039 48.2103L29.5984 48.6095L29.8865 48.7449C30.126 48.731 30.4974 48.5817 30.9348 48.4151L31.3756 48.2034Z" fill="#1C5329"/>
<path d="M30.4911 51.7321C30.21 51.3711 29.967 51.1073 29.7691 50.9615L29.547 50.8227L29.3352 50.847L29.3109 51.1073L29.4046 51.3468L30.0121 52.225L30.1232 52.3569L30.21 52.4437C30.6057 52.8082 30.9632 52.8186 30.9632 52.8186C30.9632 52.8186 30.9701 52.5305 30.7272 52.1001L30.564 51.8363L30.4911 51.7321Z" fill="#1C5329"/>
<path d="M28.4439 49.1238C28.5792 49.6514 28.1488 50.2138 27.4824 50.3873C26.8159 50.5609 26.1633 50.2763 26.0314 49.7591C25.896 49.2314 26.3195 48.6656 26.9929 48.4921C27.6559 48.3185 28.312 48.5997 28.4439 49.1238Z" fill="#F2BB0E"/>
<path d="M98.8856 52.124L98.8647 51.6554L98.5766 51.6484C98.3753 51.7768 98.1254 52.0893 97.9587 52.537L97.8858 52.7418C97.6845 53.3562 97.688 53.8318 97.688 53.8318C97.688 53.8318 98.1566 53.3632 98.4343 52.9918L98.5523 52.8217L98.8856 52.124Z" fill="#1C5329"/>
<path d="M96.3332 49.1176C96.007 49.3537 95.1704 50.1069 95.6598 51.3045C96.2395 52.6791 97.5482 52.752 97.8849 52.745L97.9612 52.5333C98.1244 52.089 98.3743 51.7766 98.5756 51.6516C98.5166 51.2455 98.4229 50.7109 98.2979 50.3881C98.1278 49.9681 97.753 49.4266 97.5377 49.1385C97.3399 49.2461 96.9615 49.2947 96.3332 49.1176Z" fill="#EA1F29"/>
<path d="M100.296 47.2237C100.16 47.0398 100.07 46.5989 100.018 45.9498L100.011 45.8248C99.6605 45.5367 98.3935 44.6655 97.182 45.6548C95.9393 46.6614 96.3906 47.9596 96.6093 48.4074L97.6368 48.7302C97.911 48.5011 98.3865 48.1401 98.8308 47.8624C99.2925 47.5778 99.9034 47.3522 100.296 47.2237Z" fill="#EA1F29"/>
<path d="M96.4931 48.3848C95.6982 48.2668 95.1567 48.4681 95.1567 48.4681C95.1567 48.4681 95.3338 48.8361 96.3161 49.1138L96.3335 49.1173C96.9618 49.2978 97.3401 49.2457 97.5414 49.1381L97.7324 48.8708L97.6386 48.732L96.6112 48.4057L96.4931 48.3848Z" fill="#1C5329"/>
<path d="M102.418 51.3474C101.96 51.3335 101.251 51.3474 100.71 51.462C100.068 51.6043 99.2764 51.941 98.8876 52.125L98.5474 52.8192L98.4329 52.9893C98.6411 53.2427 99.5124 54.1869 100.97 54.0029C102.64 53.7877 103.053 52.6422 103.129 52.361L103.018 52.2256L102.418 51.3474Z" fill="#EA1F29"/>
<path d="M104.384 48.2035L103.947 48.4152C103.51 48.5818 103.128 48.7311 102.888 48.745C102.795 48.9984 102.69 49.3732 102.666 49.7933C102.645 50.1959 102.711 50.6576 102.774 50.963C102.975 51.1088 103.211 51.3726 103.499 51.7336L103.576 51.8378L103.739 52.0981C104.232 52.1224 105.332 51.9836 105.572 50.425C105.832 48.6755 104.624 48.2694 104.384 48.2035Z" fill="#EA1F29"/>
<path d="M104.19 47.7867C104.235 47.5784 104.548 45.8845 103.038 45.107C101.976 44.5585 101.087 45.1243 100.646 45.5166L100.698 45.8081C100.764 46.3392 100.747 46.8321 100.657 47.1098C100.778 47.2036 101.233 47.5542 101.74 47.7937C102.201 48.0054 102.757 48.1686 102.909 48.2102L103.729 47.9013L104.19 47.7867Z" fill="#EA1F29"/>
<path d="M100.697 45.8044L100.645 45.5128C100.527 44.947 100.257 44.8637 100.257 44.8637C100.257 44.8637 99.9789 45.0303 100.014 45.8252L100.017 45.9502C100.066 46.5993 100.159 47.0367 100.295 47.2241L100.489 47.3317L100.645 47.1235L100.656 47.1096C100.746 46.8319 100.763 46.3355 100.697 45.8044Z" fill="#1C5329"/>
<path d="M104.384 48.2034C104.763 48.002 105.186 47.7417 105.169 47.707C105.152 47.6827 104.676 47.6931 104.19 47.7868L103.728 47.9014L102.909 48.2103L102.611 48.6095L102.888 48.7449C103.128 48.731 103.51 48.5817 103.947 48.4151L104.384 48.2034Z" fill="#1C5329"/>
<path d="M103.5 51.7321C103.215 51.3711 102.972 51.1073 102.778 50.9615L102.559 50.8227L102.344 50.847L102.327 51.1073L102.417 51.3468L103.017 52.225L103.132 52.3569L103.215 52.4437C103.614 52.8082 103.972 52.8186 103.972 52.8186C103.972 52.8186 103.972 52.5305 103.739 52.1001L103.573 51.8363L103.5 51.7321Z" fill="#1C5329"/>
<path d="M101.447 49.1238C101.586 49.6514 101.156 50.2138 100.489 50.3873C99.8195 50.5609 99.1738 50.2763 99.035 49.7591C98.8996 49.2314 99.3335 48.6656 100 48.4921C100.67 48.3185 101.312 48.5997 101.447 49.1238Z" fill="#F2BB0E"/>
<path d="M62.3455 18.8204L62.3178 18.3518L62.0331 18.3483C61.8248 18.4663 61.5819 18.7787 61.4118 19.23L61.3319 19.4383C61.1341 20.0527 61.141 20.5213 61.141 20.5213C61.141 20.5213 61.6027 20.0631 61.8804 19.6847L61.9984 19.5146L62.3455 18.8204Z" fill="#1C5329"/>
<path d="M59.7943 15.813C59.4575 16.049 58.614 16.8057 59.1139 17.9998C59.6971 19.3744 60.9988 19.4473 61.332 19.4404L61.4084 19.2286C61.5819 18.7808 61.8249 18.4649 62.0332 18.3504C61.9672 17.9408 61.8735 17.4132 61.7485 17.0834C61.5819 16.6634 61.207 16.1219 60.9883 15.8338C60.7835 15.9414 60.4087 15.99 59.7943 15.813Z" fill="#EA1F29"/>
<path d="M63.7514 13.9243C63.6125 13.7334 63.5153 13.2925 63.4668 12.6469V12.5184C63.1057 12.2338 61.8422 11.3591 60.6377 12.3449C59.3916 13.355 59.8498 14.6497 60.0615 15.0975L61.082 15.4203C61.3632 15.1982 61.8353 14.8372 62.2796 14.563C62.7378 14.2749 63.3487 14.0527 63.7514 13.9243Z" fill="#EA1F29"/>
<path d="M59.9529 15.0823C59.1511 14.9643 58.6061 15.1587 58.6061 15.1587C58.6061 15.1587 58.7901 15.5301 59.7689 15.8078L59.7932 15.8147C60.4111 15.9918 60.786 15.9432 60.9908 15.8356L61.1817 15.5613L61.0845 15.4225L60.0605 15.0997L59.9529 15.0823Z" fill="#1C5329"/>
<path d="M65.8694 18.0449C65.4077 18.0345 64.7065 18.0415 64.1546 18.163C63.5159 18.3018 62.7245 18.642 62.3461 18.819L61.999 19.5132L61.881 19.6868C62.0893 19.9402 62.9605 20.8844 64.4219 20.6935C66.095 20.4852 66.5115 19.3362 66.5844 19.0551L66.4734 18.9266L65.8694 18.0449Z" fill="#EA1F29"/>
<path d="M67.8308 14.9018L67.3969 15.1101C66.9596 15.2767 66.5812 15.419 66.3382 15.4398C66.2515 15.6967 66.1508 16.0681 66.123 16.4847C66.0953 16.8943 66.1647 17.3525 66.2202 17.6545C66.425 17.8072 66.6715 18.0641 66.9492 18.4251L67.0255 18.5292L67.1887 18.7999C67.6851 18.8208 68.782 18.675 69.0145 17.1199C69.2853 15.3704 68.0738 14.9643 67.8308 14.9018Z" fill="#EA1F29"/>
<path d="M67.6389 14.4811C67.684 14.2763 68.0068 12.5789 66.4934 11.8014C65.4277 11.2599 64.5356 11.8187 64.0983 12.211L64.1434 12.5025C64.2093 13.0302 64.192 13.5265 64.1052 13.8042C64.2232 13.898 64.6884 14.252 65.1986 14.4881C65.6499 14.6998 66.2122 14.8664 66.3615 14.9046L67.1772 14.5957L67.6389 14.4811Z" fill="#EA1F29"/>
<path d="M64.145 12.4987L64.0964 12.2106C63.9749 11.6413 63.7042 11.558 63.7042 11.558C63.7042 11.558 63.4369 11.7211 63.4681 12.5195V12.6445C63.5132 13.2936 63.6104 13.7344 63.7493 13.9253L63.9367 14.0225L64.0964 13.8177L64.1033 13.8038C64.1901 13.5296 64.2075 13.0298 64.145 12.4987Z" fill="#1C5329"/>
<path d="M67.8307 14.9018C68.2125 14.697 68.636 14.4401 68.6152 14.4019C68.5978 14.3742 68.1327 14.388 67.6398 14.4818L67.1746 14.5963L66.3624 14.9053L66.0638 15.301L66.3381 15.4398C66.581 15.419 66.9594 15.2767 67.3968 15.1101L67.8307 14.9018Z" fill="#1C5329"/>
<path d="M66.9492 18.4244C66.6715 18.0669 66.425 17.8065 66.2202 17.6573L66.0085 17.5219L65.7968 17.5427L65.7725 17.8065L65.8697 18.0426L66.4702 18.9243L66.5812 19.0527L66.6715 19.1395C67.0637 19.5039 67.4178 19.5213 67.4178 19.5213C67.4178 19.5213 67.4247 19.2263 67.1887 18.7993L67.0221 18.5285L66.9492 18.4244Z" fill="#1C5329"/>
<path d="M64.9031 15.8234C65.042 16.3476 64.6081 16.9099 63.9416 17.0835C63.2751 17.257 62.6191 16.9759 62.4872 16.4482C62.3483 15.9276 62.7857 15.3618 63.4487 15.1882C64.1152 15.0146 64.7643 15.3028 64.9031 15.8234Z" fill="#F2BB0E"/>
<path d="M25.8831 18.8204L25.8623 18.3518L25.5672 18.3483C25.3728 18.4663 25.1194 18.7787 24.9528 19.23L24.873 19.4383C24.6786 20.0527 24.6786 20.5213 24.6786 20.5213C24.6786 20.5213 25.1472 20.0631 25.4353 19.6847L25.5464 19.5146L25.8831 18.8204Z" fill="#1C5329"/>
<path d="M23.3297 15.813C22.9999 16.049 22.1564 16.8057 22.6528 17.9998C23.229 19.3744 24.5446 19.4473 24.8744 19.4404L24.9542 19.2286C25.1173 18.7808 25.3742 18.4649 25.5651 18.3504C25.5165 17.9408 25.4193 17.4132 25.2944 17.0834C25.1173 16.6634 24.7494 16.1219 24.5342 15.8338C24.3294 15.9414 23.9545 15.99 23.3297 15.813Z" fill="#EA1F29"/>
<path d="M27.2912 13.9243C27.1523 13.7334 27.0621 13.2925 27.0065 12.6469V12.5184C26.6455 12.2338 25.382 11.3591 24.174 12.3449C22.9383 13.355 23.3895 14.6497 23.5978 15.0975L24.6288 15.4203C24.903 15.1982 25.3751 14.8372 25.8228 14.563C26.2845 14.2749 26.8989 14.0527 27.2912 13.9243Z" fill="#EA1F29"/>
<path d="M23.4883 15.0823C22.6899 14.9643 22.1484 15.1587 22.1484 15.1587C22.1484 15.1587 22.3359 15.5301 23.3078 15.8078L23.3286 15.8147C23.9535 15.9918 24.3283 15.9432 24.5366 15.8356L24.7241 15.5613L24.6303 15.4225L23.5959 15.0997L23.4883 15.0823Z" fill="#1C5329"/>
<path d="M29.405 18.0449C28.9503 18.0345 28.2491 18.0415 27.7006 18.163C27.0619 18.3018 26.267 18.642 25.8817 18.819L25.545 19.5132L25.434 19.6868C25.6318 19.9402 26.4961 20.8844 27.9575 20.6935C29.6306 20.4852 30.0506 19.3362 30.1235 19.0551L30.0125 18.9266L29.405 18.0449Z" fill="#EA1F29"/>
<path d="M31.3756 14.9018L30.9348 15.1101C30.4974 15.2767 30.126 15.419 29.8865 15.4398C29.7893 15.6967 29.6886 16.0681 29.6574 16.4847C29.64 16.8943 29.7094 17.3525 29.7685 17.6545C29.9663 17.8072 30.2058 18.0641 30.4905 18.4251L30.5634 18.5292L30.73 18.7999C31.2229 18.8208 32.3232 18.675 32.5628 17.1199C32.8266 15.3704 31.6186 14.9643 31.3756 14.9018Z" fill="#EA1F29"/>
<path d="M31.1815 14.4811C31.2231 14.2763 31.546 12.5789 30.036 11.8014C28.9634 11.2599 28.0782 11.8187 27.6409 12.211L27.686 12.5025C27.7485 13.0302 27.7346 13.5265 27.6409 13.8042C27.7693 13.898 28.231 14.252 28.7308 14.4881C29.189 14.6998 29.7548 14.8664 29.9041 14.9046L30.7198 14.5957L31.1815 14.4811Z" fill="#EA1F29"/>
<path d="M27.6871 12.4987L27.6385 12.2106C27.517 11.6413 27.2463 11.558 27.2463 11.558C27.2463 11.558 26.979 11.7211 27.0068 12.5195V12.6445C27.0623 13.2936 27.1526 13.7344 27.2914 13.9253L27.4789 14.0225L27.6385 13.8177L27.642 13.8038C27.7392 13.5296 27.7461 13.0298 27.6871 12.4987Z" fill="#1C5329"/>
<path d="M31.3756 14.9018C31.7575 14.697 32.181 14.4401 32.1532 14.4019C32.1393 14.3742 31.6742 14.388 31.1812 14.4818L30.7196 14.5963L29.9039 14.9053L29.5984 15.301L29.8865 15.4398C30.126 15.419 30.4974 15.2767 30.9348 15.1101L31.3756 14.9018Z" fill="#1C5329"/>
<path d="M30.4911 18.4244C30.21 18.0669 29.967 17.8065 29.7691 17.6573L29.547 17.5219L29.3352 17.5427L29.3109 17.8065L29.4046 18.0426L30.0121 18.9243L30.1232 19.0527L30.21 19.1395C30.6057 19.5039 30.9632 19.5213 30.9632 19.5213C30.9632 19.5213 30.9701 19.2263 30.7272 18.7993L30.564 18.5285L30.4911 18.4244Z" fill="#1C5329"/>
<path d="M28.4439 15.8234C28.5792 16.3476 28.1488 16.9099 27.4824 17.0835C26.8159 17.257 26.1633 16.9759 26.0314 16.4482C25.896 15.9276 26.3195 15.3618 26.9929 15.1882C27.6559 15.0146 28.312 15.3028 28.4439 15.8234Z" fill="#F2BB0E"/>
<path d="M98.8856 18.8204L98.8647 18.3518L98.5766 18.3483C98.3753 18.4663 98.1254 18.7787 97.9587 19.23L97.8858 19.4383C97.6845 20.0527 97.688 20.5213 97.688 20.5213C97.688 20.5213 98.1566 20.0631 98.4343 19.6847L98.5523 19.5146L98.8856 18.8204Z" fill="#1C5329"/>
<path d="M96.3332 15.813C96.007 16.049 95.1704 16.8057 95.6598 17.9998C96.2395 19.3744 97.5482 19.4473 97.8849 19.4404L97.9612 19.2286C98.1244 18.7808 98.3743 18.4649 98.5756 18.3504C98.5166 17.9408 98.4229 17.4132 98.2979 17.0834C98.1278 16.6634 97.753 16.1219 97.5377 15.8338C97.3399 15.9414 96.9615 15.99 96.3332 15.813Z" fill="#EA1F29"/>
<path d="M100.296 13.9243C100.16 13.7334 100.07 13.2925 100.018 12.6469L100.011 12.5184C99.6605 12.2338 98.3935 11.3591 97.182 12.3449C95.9393 13.355 96.3906 14.6497 96.6093 15.0975L97.6368 15.4203C97.911 15.1982 98.3865 14.8372 98.8308 14.563C99.2925 14.2749 99.9034 14.0527 100.296 13.9243Z" fill="#EA1F29"/>
<path d="M96.4931 15.0823C95.6982 14.9643 95.1567 15.1587 95.1567 15.1587C95.1567 15.1587 95.3338 15.5301 96.3161 15.8078L96.3335 15.8147C96.9618 15.9918 97.3401 15.9432 97.5414 15.8356L97.7324 15.5613L97.6386 15.4225L96.6112 15.0997L96.4931 15.0823Z" fill="#1C5329"/>
<path d="M102.418 18.0449C101.96 18.0345 101.251 18.0415 100.71 18.163C100.068 18.3018 99.2764 18.642 98.8876 18.819L98.5474 19.5132L98.4329 19.6868C98.6411 19.9402 99.5124 20.8844 100.97 20.6935C102.64 20.4852 103.053 19.3362 103.129 19.0551L103.018 18.9266L102.418 18.0449Z" fill="#EA1F29"/>
<path d="M104.384 14.9018L103.947 15.1101C103.51 15.2767 103.128 15.419 102.888 15.4398C102.795 15.6967 102.69 16.0681 102.666 16.4847C102.645 16.8943 102.711 17.3525 102.774 17.6545C102.975 17.8072 103.211 18.0641 103.499 18.4251L103.576 18.5292L103.739 18.7999C104.232 18.8208 105.332 18.675 105.572 17.1199C105.832 15.3704 104.624 14.9643 104.384 14.9018Z" fill="#EA1F29"/>
<path d="M104.19 14.4811C104.235 14.2763 104.548 12.5789 103.038 11.8014C101.976 11.2599 101.087 11.8187 100.646 12.211L100.698 12.5025C100.764 13.0302 100.747 13.5265 100.657 13.8042C100.778 13.898 101.233 14.252 101.74 14.4881C102.201 14.6998 102.757 14.8664 102.909 14.9046L103.729 14.5957L104.19 14.4811Z" fill="#EA1F29"/>
<path d="M100.697 12.4987L100.645 12.2106C100.527 11.6413 100.257 11.558 100.257 11.558C100.257 11.558 99.9789 11.7211 100.014 12.5195L100.017 12.6445C100.066 13.2936 100.159 13.7344 100.295 13.9253L100.489 14.0225L100.645 13.8177L100.656 13.8038C100.746 13.5296 100.763 13.0298 100.697 12.4987Z" fill="#1C5329"/>
<path d="M104.384 14.9018C104.763 14.697 105.186 14.4401 105.169 14.4019C105.152 14.3742 104.676 14.388 104.19 14.4818L103.728 14.5963L102.909 14.9053L102.611 15.301L102.888 15.4398C103.128 15.419 103.51 15.2767 103.947 15.1101L104.384 14.9018Z" fill="#1C5329"/>
<path d="M103.5 18.4244C103.215 18.0669 102.972 17.8065 102.778 17.6573L102.559 17.5219L102.344 17.5427L102.327 17.8065L102.417 18.0426L103.017 18.9243L103.132 19.0527L103.215 19.1395C103.614 19.5039 103.972 19.5213 103.972 19.5213C103.972 19.5213 103.972 19.2263 103.739 18.7993L103.573 18.5285L103.5 18.4244Z" fill="#1C5329"/>
<path d="M101.447 15.8234C101.586 16.3476 101.156 16.9099 100.489 17.0835C99.8195 17.257 99.1738 16.9759 99.035 16.4482C98.8996 15.9276 99.3335 15.3618 100 15.1882C100.67 15.0146 101.312 15.3028 101.447 15.8234Z" fill="#F2BB0E"/>
<path d="M62.3455 113.791L62.3178 113.323H62.0331C61.8248 113.444 61.5819 113.75 61.4118 114.208L61.3319 114.416C61.1341 115.027 61.141 115.496 61.141 115.496C61.141 115.496 61.6027 115.038 61.8804 114.656L61.9984 114.482L62.3455 113.791Z" fill="#1C5329"/>
<path d="M59.7943 110.788C59.4575 111.024 58.614 111.774 59.1139 112.971C59.6971 114.349 60.9988 114.419 61.332 114.415L61.4084 114.207C61.5819 113.749 61.8249 113.443 62.0332 113.325C61.9672 112.919 61.8735 112.385 61.7485 112.062C61.5819 111.638 61.207 111.1 60.9883 110.805C60.7835 110.916 60.4087 110.961 59.7943 110.788Z" fill="#EA1F29"/>
<path d="M63.7514 108.899C63.6125 108.705 63.5153 108.267 63.4668 107.618V107.497C63.1057 107.205 61.8422 106.337 60.6377 107.32C59.3916 108.333 59.8498 109.618 60.0615 110.072L61.082 110.395C61.3632 110.166 61.8353 109.809 62.2796 109.534C62.7378 109.253 63.3487 109.024 63.7514 108.899Z" fill="#EA1F29"/>
<path d="M59.9529 110.053C59.1511 109.935 58.6061 110.129 58.6061 110.129C58.6061 110.129 58.7901 110.501 59.7689 110.785L59.7932 110.789C60.4111 110.962 60.786 110.914 60.9908 110.806L61.1817 110.539L61.0845 110.393L60.0605 110.07L59.9529 110.053Z" fill="#1C5329"/>
<path d="M65.8694 113.017C65.4077 113.003 64.7065 113.017 64.1546 113.135C63.5159 113.267 62.7245 113.614 62.3461 113.791L61.999 114.485L61.881 114.655C62.0893 114.912 62.9605 115.856 64.4219 115.672C66.095 115.457 66.5115 114.308 66.5844 114.031L66.4734 113.895L65.8694 113.017Z" fill="#EA1F29"/>
<path d="M67.8308 109.876L67.3969 110.077C66.9596 110.251 66.5812 110.397 66.3382 110.414C66.2515 110.674 66.1508 111.039 66.123 111.459C66.0953 111.868 66.1647 112.323 66.2202 112.629C66.425 112.778 66.6715 113.038 66.9492 113.396L67.0255 113.503L67.1887 113.771C67.6851 113.788 68.782 113.649 69.0145 112.091C69.2853 110.345 68.0738 109.938 67.8308 109.876Z" fill="#EA1F29"/>
<path d="M67.6389 109.455C67.684 109.25 68.0068 107.549 66.4934 106.768C65.4277 106.23 64.5356 106.793 64.0983 107.188L64.1434 107.477C64.2093 108.008 64.192 108.501 64.1052 108.778C64.2232 108.879 64.6884 109.226 65.1986 109.459C65.6499 109.677 66.2122 109.84 66.3615 109.879L67.1772 109.57L67.6389 109.455Z" fill="#EA1F29"/>
<path d="M64.145 107.475L64.0964 107.19C63.9749 106.617 63.7042 106.537 63.7042 106.537C63.7042 106.537 63.4369 106.697 63.4681 107.495V107.617C63.5132 108.266 63.6104 108.707 63.7493 108.898L63.9367 108.998L64.0964 108.787L64.1033 108.78C64.1901 108.499 64.2075 108.009 64.145 107.475Z" fill="#1C5329"/>
<path d="M67.8307 109.876C68.2125 109.668 68.636 109.407 68.6152 109.373C68.5978 109.345 68.1327 109.362 67.6398 109.456L67.1746 109.57L66.3624 109.879L66.0638 110.275L66.3381 110.414C66.581 110.397 66.9594 110.251 67.3968 110.077L67.8307 109.876Z" fill="#1C5329"/>
<path d="M66.9492 113.396C66.6715 113.038 66.425 112.778 66.2202 112.629L66.0085 112.497L65.7968 112.514L65.7725 112.778L65.8697 113.017L66.4702 113.896L66.5812 114.031L66.6715 114.111C67.0637 114.472 67.4178 114.489 67.4178 114.489C67.4178 114.489 67.4247 114.197 67.1887 113.771L67.0221 113.503L66.9492 113.396Z" fill="#1C5329"/>
<path d="M64.9031 110.796C65.042 111.317 64.6081 111.883 63.9416 112.063C63.2751 112.227 62.6191 111.949 62.4872 111.425C62.3483 110.901 62.7857 110.335 63.4487 110.165C64.1152 109.991 64.7643 110.272 64.9031 110.796Z" fill="#F2BB0E"/>
<path d="M94.7526 89.7319C94.7526 89.7319 96.1758 87.729 91.1912 85.7192C87.5013 84.2335 82.4195 84.5459 79.1843 84.0981C76.4768 83.7198 76.1748 83.1088 76.3276 82.4319C76.6504 80.9359 79.1809 81.9217 80.7603 82.7687C82.4716 83.6885 85.5193 83.9905 87.7408 81.9321C88.5322 81.1893 89.6465 80.9289 89.6465 80.9289C89.6465 80.9289 88.3309 80.0958 87.2548 80.8387C86.8105 81.1407 86.4565 81.4531 85.554 81.526C83.9676 81.644 83.6726 81.1372 83.6726 81.1372C83.6726 81.1372 84.4814 81.6822 86.4704 80.6651C89.0529 79.3461 87.5013 76.4546 87.5013 76.4546C87.5013 76.4546 87.6714 77.489 86.5814 78.2006C85.0611 79.2037 83.7837 78.2874 83.7837 78.2874C83.7837 78.2874 84.3738 78.5824 85.2763 78.2422C86.4079 77.8049 86.7793 77.2182 86.3975 76.4511C86.2309 76.1248 85.6998 75.7326 85.6998 75.7326C85.6998 75.7326 86.9424 77.371 82.0377 77.0273C79.5592 76.8538 78.6984 79.353 78.6984 79.353C78.6984 79.353 77.5633 79.0684 76.7649 79.3357C76.817 78.9538 76.7615 78.3012 76.5636 77.909C76.3033 79.2037 75.314 80.0299 74.8627 80.5818C74.408 81.1337 73.4256 82.5743 74.6614 84.2682C75.8832 85.6949 78.1083 85.9031 79.5141 86.0142C81.6038 86.1704 85.0611 86.3579 88.1122 86.7779C92.2395 87.3472 91.5244 89.3257 91.0176 89.9367C90.4969 90.5719 89.5111 90.6031 86.6404 89.6034C83.7767 88.5968 80.7811 86.8091 74.7898 87.0452C66.5284 87.3645 60.6517 93.4078 57.6283 93.0816C57.6283 93.0816 57.7879 93.807 57.722 94.2999C57.4547 96.3931 55.549 97.5247 55.549 97.5247L55.2817 97.1151C55.0874 97.1428 55.2679 97.5733 54.591 98.0766C53.9419 98.5626 53.6086 99.1006 53.3726 100.073C53.3726 100.073 53.0359 99.4026 52.8346 99.9996C52.5707 100.774 52.1646 100.801 51.9529 100.892L51.7654 100.506C51.4982 100.52 51.3975 102.183 48.5095 101.909L48.2942 101.961C46.1768 102.325 45.8089 100.243 45.0556 99.5171C44.5662 99.045 43.9691 99.899 43.9691 99.899C43.9691 99.899 43.563 99.4616 43.6151 98.6528C43.6706 97.8024 43.8268 97.5177 43.4867 96.9311C43.2263 96.4903 42.1225 95.553 42.5355 93.9598C42.0322 93.9493 41.0256 93.5814 40.616 90.6205L40.97 90.6621C40.8971 90.2109 40.5014 90.0443 40.4216 89.5236C40.3105 88.7599 40.2133 87.2812 40.6299 86.7605C41.2686 85.9621 43.0319 85.6914 42.1919 84.1328L41.9177 84.5667L41.5046 84.7438L40.977 84.1745L41.2686 83.6677L41.2929 83.633C40.977 83.6052 40.7028 83.7163 40.5396 83.7892C40.5778 83.449 41.1471 81.6579 39.6302 81.2517L39.526 81.9633L39.1928 82.2688L38.502 81.9217L38.6131 81.3385L38.6756 81.1094C37.2107 81.2899 37.5093 83.1956 37.5301 83.4907C37.4919 83.0602 36.6033 81.8523 35.7459 82.3972L35.6591 82.4667L35.9403 82.7582L36.0236 83.1991L35.371 83.6087L34.9267 83.2234L34.8885 83.1748C34.5831 83.574 34.6282 84.289 35.4509 84.9138C36.6692 85.8337 37.0823 89.5757 36.8949 90.0651C36.638 90.7316 35.9854 89.7839 35.9854 89.7839C35.9854 89.7839 35.8743 90.6448 36.4887 91.5195C37.5752 93.0746 37.9015 93.7584 37.0893 93.4981L36.5825 93.1753C36.5825 93.1753 36.6311 93.9493 37.6203 94.7581C38.0126 95.0775 37.9571 95.258 37.6724 95.2267C37.3461 95.1816 37.0997 94.9768 37.0997 94.9768C37.0997 94.9768 37.3704 95.6849 37.8703 96.3584C38.7103 97.483 39.4705 97.9516 39.4705 97.9516C39.4705 97.9516 38.5263 97.8648 37.1622 97.0804C35.128 95.8967 35.9854 95.0671 35.3745 93.6612C34.7983 92.3179 34.4199 92.0992 33.8159 92.0194H33.7604L33.8402 92.3144L33.7222 92.7518L32.9551 92.8282L32.7364 92.2797C32.1636 92.5713 32.181 93.1822 32.2331 93.4669C31.8408 93.0364 31.098 92.4394 30.5842 92.3526C30.2718 92.2936 29.897 92.3804 29.5498 92.5574L29.4978 92.5713L29.6054 92.6477L29.8171 93.0434L29.3034 93.6231L28.7688 93.3766L28.6959 93.3245C28.3384 93.9667 28.4495 95.1781 30.5495 95.862C30.5495 95.862 29.536 96.0147 29.2166 96.7541L29.9178 96.8651L30.2198 97.2053L29.8588 97.8857L29.2791 97.7815L29.1854 97.7434C29.4249 98.8021 30.2823 98.9548 31.0043 98.9548C34.1387 98.9131 36.5755 100.423 36.5755 100.423C36.5755 100.423 35.8917 100.461 35.5168 100.947C35.128 101.454 35.2183 101.746 35.2183 101.746C35.2183 101.746 35.4925 101.489 36.2805 101.353C37.1101 101.211 37.2732 101.51 37.2732 101.51C37.2732 101.51 36.0653 101.954 36.5339 103.214C36.5339 103.214 37.0198 102.679 37.7731 102.412C38.3979 102.204 39.1199 102.245 39.408 102.652C39.8003 103.221 38.1237 103.776 38.1237 103.776C39.2935 104.474 41.8483 104.137 41.8483 104.137C41.8483 104.137 40.0606 104.457 40.0745 105.623C40.0745 105.623 41.1853 104.773 43.3652 105.623C46.6663 106.9 50.7102 107.515 56.0003 105.37C62.665 102.662 62.8455 96.9068 72.117 93.8417C72.419 94.2895 74.5052 96.2438 77.119 97.2088C79.2191 97.9968 82.1834 98.5209 83.0894 98.7326C84.3946 99.052 86.7064 99.5449 85.3214 102.065C84.6619 103.238 84.0579 103.592 83.4956 104.019C83.3879 103.998 82.7007 103.804 81.7114 103.45C81.1317 103.235 80.7082 103.363 80.5242 103.762L80.9651 103.839L81.2462 104.134L80.9477 104.766L80.4305 104.682L80.3888 104.672C80.4583 105.38 81.0518 105.456 81.0518 105.456C81.0518 105.456 80.368 105.713 80.375 106.355L80.7325 106.262L81.1213 106.38L81.1525 107.077L80.6492 107.251L80.7082 107.293C81.1143 107.803 82.2945 107.421 82.2945 107.421C82.2945 107.421 82.0203 108.032 82.3917 108.466L82.6416 107.997L83.0131 107.831L83.5094 108.317L83.263 108.789L83.2005 108.865L83.4053 108.886C83.978 108.803 84.7938 108.278 85.1756 107.039C85.6442 105.619 86.1059 105.311 86.1059 105.311C86.1059 105.311 87.3069 104.179 86.8487 106.196C88.0359 105.883 87.8901 104.582 87.8901 104.582L89.1328 104.79C89.5319 104.474 89.1432 103.533 89.6014 102.87C90.1116 102.138 90.4032 102.988 90.2158 103.582C90.2158 103.582 90.9447 103.356 90.9794 102.412C91.0176 101.805 90.7712 101.093 91.3474 100.569C91.7778 100.204 91.8854 100.732 91.7605 101.228C91.7605 101.228 92.3263 101.253 92.4234 100.263C92.479 99.6664 92.3367 99.4824 92.5137 99.4026L92.8816 99.8885C92.8816 99.8885 93.385 98.7569 92.3471 98.0766C90.6045 96.9415 86.1753 97.7191 83.5303 93.5502C82.5687 92.0194 83.2803 91.3182 83.2803 91.3182C83.2803 91.3182 87.9942 93.5397 90.5317 93.1753C93.6071 92.7344 93.621 91.0856 93.621 91.0856C93.621 91.0856 94.1243 91.1793 93.687 92.179C93.687 92.179 94.2458 92.0576 94.4784 91.2869C94.9192 89.8082 93.989 88.8918 93.989 88.8918C94.7353 88.8398 94.7526 89.7319 94.7526 89.7319Z" fill="#2B57AC"/>
<path d="M29.8597 97.8868L30.2207 97.2064L29.9153 96.8662L29.2141 96.7552L29.1273 96.7586C28.1762 96.8836 27.9124 97.5848 27.7666 97.9597C27.7666 97.9597 28.3567 97.4633 29.1828 97.7444L29.2766 97.7826L29.8597 97.8868Z" fill="#EA1F29"/>
<path d="M29.3033 93.6245L29.8205 93.0413L29.6018 92.649L29.4977 92.5727L28.8625 92.3575C27.9114 92.2429 27.4914 92.8608 27.2588 93.1836C27.2588 93.1836 27.953 92.8434 28.6959 93.3259L28.7653 93.378L29.3033 93.6245Z" fill="#EA1F29"/>
<path d="M32.9553 92.8264L33.7224 92.75L33.8405 92.3127L33.7606 92.0211L33.4968 91.5976C32.8824 90.8617 32.1569 91.0249 31.7543 91.1151C31.7543 91.1151 32.5596 91.3477 32.7366 92.2814L32.9553 92.8264Z" fill="#EA1F29"/>
<path d="M40.9752 84.1763L41.5028 84.7421L41.9194 84.5685L42.1936 84.1346L42.2804 83.8534C42.4817 82.9197 41.909 82.4407 41.5931 82.1838C41.5931 82.1838 41.8916 82.9301 41.2911 83.6348L41.2703 83.666L40.9752 84.1763Z" fill="#EA1F29"/>
<path d="M38.5017 81.9214L39.1924 82.2685L39.5257 81.963L39.6333 81.2514L39.6229 81.182C39.5014 80.2309 38.7967 79.9671 38.4253 79.8317C38.4253 79.8317 38.8696 80.3524 38.6787 81.1091L38.6127 81.3382L38.5017 81.9214Z" fill="#EA1F29"/>
<path d="M35.371 83.6115L36.027 83.1984L35.9368 82.7611L35.6591 82.466L35.3085 82.2612C34.4303 81.8898 33.8506 82.3619 33.5312 82.6083C33.5312 82.6083 34.3192 82.466 34.8885 83.1741L34.9267 83.2227L35.371 83.6115Z" fill="#EA1F29"/>
<path d="M80.9437 104.764L81.2457 104.132L80.9646 103.841L80.5272 103.761L80.2495 103.778C79.4025 103.914 79.1873 104.549 79.0728 104.893C79.0728 104.893 79.6073 104.41 80.3883 104.674L80.43 104.684L80.9437 104.764Z" fill="#EA1F29"/>
<path d="M81.1197 106.382L80.7309 106.261L80.3769 106.358L80.0749 106.535C79.3911 107.056 79.4987 107.712 79.5646 108.076C79.5646 108.076 79.8076 107.364 80.6476 107.253H80.6511L81.1509 107.076L81.1197 106.382Z" fill="#EA1F29"/>
<path d="M83.5076 108.319L83.0147 107.833L82.6433 107.996L82.3934 108.468L82.3448 108.652C82.199 109.492 82.7301 109.909 83.0217 110.134C83.0217 110.134 82.7474 109.499 83.1987 108.864L83.2647 108.787L83.5076 108.319Z" fill="#EA1F29"/>
<path d="M81.2299 99.2307C75.8565 98.2067 74.7422 97.5299 72.5589 95.4263C72.3367 95.5339 71.4863 97.0508 73.7738 99.2307C74.6693 100.088 75.5476 100.345 75.5476 100.345C75.5476 100.345 73.9716 100.067 71.9445 100.262C70.9968 99.9979 70.3061 98.7899 69.0391 98.3005C68.6225 98.1408 68.2685 98.1408 67.9908 98.2796L68.3622 98.5192L68.5149 98.901L68.0116 99.3661L67.5534 99.1058L67.4389 99.0051C67.366 99.3488 67.4736 99.7584 67.8936 100.185C67.3174 100.164 66.7516 100.47 66.6093 101.136L67.1508 101.025L67.5118 101.202L67.4493 101.897L66.9355 101.994L66.6648 102.025L66.6995 102.098C67.0987 103.289 68.9176 102.41 68.9176 102.41C68.9176 102.41 67.9908 103.087 68.4976 103.903L68.7058 103.577L69.0738 103.407L69.5702 103.896L69.3202 104.361L69.2057 104.528C70.4762 105.017 71.5002 103.091 71.5002 103.032C71.455 104.427 72.5554 104.746 72.5554 104.746C72.5554 104.746 72.4027 104.142 72.9719 103.754C73.6176 103.32 74.586 103.434 74.6693 103.427C74.4923 104.132 74.7561 104.455 75.1449 104.576C75.2421 103.091 78.0156 103.042 78.0156 103.042C78.1752 103.618 78.8035 103.816 78.8035 103.816C78.8035 103.816 78.7758 103.011 79.3624 102.567C79.9629 102.101 80.9591 102.081 82.0109 101.494C83.2536 100.807 82.9967 99.4703 81.2299 99.2307Z" fill="#2B57AC"/>
<path d="M69.5701 103.894L69.0703 103.405L68.7058 103.579L68.4975 103.901L68.4073 104.228C68.258 105.075 68.7891 105.488 69.0738 105.71C69.0738 105.71 68.8273 105.134 69.2057 104.526L69.3202 104.363L69.5701 103.894Z" fill="#EA1F29"/>
<path d="M67.4494 101.894L67.5119 101.2L67.1509 101.023L66.6094 101.134L66.4566 101.21C65.7103 101.634 65.7242 102.304 65.7311 102.665C65.7311 102.665 66.0088 102.141 66.6649 102.026L66.9356 101.995L67.4494 101.894Z" fill="#EA1F29"/>
<path d="M68.0101 99.368L68.5169 98.8994L68.3641 98.521L67.9927 98.2815L67.7289 98.1947C66.8889 98.0142 66.455 98.528 66.2155 98.8022C66.2155 98.8022 66.8333 98.5627 67.4408 99.007L67.5553 99.1076L68.0101 99.368Z" fill="#EA1F29"/>
<path d="M54.5062 88.8137L54.475 88.8866C54.4298 89.0081 53.9959 89.9662 53.0309 90.0668L52.9719 90.0772C52.3541 90.1293 51.757 89.7093 51.757 89.7093C51.757 89.7093 51.6598 89.6746 51.5765 90.407C51.5175 91.0006 51.153 91.0145 51.153 91.0145C51.153 91.0145 51.0628 90.1432 51.2676 89.5114C51.5314 88.7131 52.2707 88.7374 52.2707 88.7374H52.2846L52.177 89.1227C52.2083 89.4594 52.5103 89.7128 52.8539 89.6954C53.201 89.6642 53.4579 89.3622 53.4267 89.0151L53.3364 88.7478H54.4576L54.534 88.7374L54.5062 88.8137ZM51.0732 94.628C50.3199 95.2701 50.4518 96.249 50.2922 96.9259C50.0874 97.7416 49.348 98.1408 48.5288 97.9707C47.8207 97.8562 47.1507 97.4327 47.0952 96.6864C47.0327 95.829 48.4455 94.7078 47.543 93.6421C46.8071 92.7605 46.8522 92.3509 46.8522 92.3509C46.8522 92.3509 47.0431 92.6286 47.5256 92.8785C47.6992 92.9618 49.1397 93.6352 49.4244 92.5279L49.1016 91.9551L48.7648 91.7122L48.7232 91.1568C48.7232 91.1568 49.1189 91.6775 49.8201 91.7955C50.5386 91.91 51.153 91.5907 51.153 91.5907C51.153 91.5907 51.3127 92.0905 50.7365 92.1669C50.4275 92.2085 49.9694 92.2294 49.9103 92.6181C49.7298 93.906 51.5904 93.6248 52.1493 93.5415C52.597 93.4616 52.8123 93.4026 52.8123 93.4026C52.4339 93.9441 51.757 94.0413 51.0732 94.628ZM46.6683 87.3801V87.2968V87.2204L46.7342 87.2621L47.7651 87.6891L47.5742 87.9008C47.4215 88.2132 47.5395 88.5881 47.8519 88.7478L48.692 88.477L48.7406 88.0848H48.7475C48.7475 88.0848 49.4487 88.3486 49.3827 89.1886C49.3307 89.8481 48.9141 90.6187 48.9141 90.6187C48.9141 90.6187 48.5739 90.466 48.751 89.8967C48.9592 89.1851 48.8516 89.1817 48.8516 89.1817C48.8516 89.1817 48.1435 89.3413 47.5951 89.0567L47.5395 89.022C46.7238 88.4805 46.6926 87.4357 46.6995 87.3072M58.078 88.72C58.3106 86.7831 56.9673 86.9219 56.9673 86.9219C56.9673 86.9219 57.4949 86.5401 57.6823 85.8493C57.9947 84.6552 57.2936 83.0828 57.2936 83.0828C57.2936 83.0828 56.5577 84.3845 55.6899 83.4646C55.6899 83.4646 56.1793 82.9439 56.0925 81.7811C55.9988 82.1109 53.2982 84.1589 52.5311 80.4933C51.0038 80.83 51.1391 82.3191 50.195 82.2011C49.6917 82.1456 49.1883 81.7429 49.5702 80.7849C49.5702 80.7849 48.1886 80.8543 47.9873 82.2914C47.7339 84.0686 46.8661 81.6943 45.6894 81.7811C45.6755 81.7811 44.8146 82.7183 44.8667 84.7038C43.8011 84.7455 43.322 85.582 43.2179 86.9115C42.9263 90.6951 41.9266 89.4455 41.9405 89.5184C42.2703 91.8441 43.5754 90.6153 43.5754 90.6153C43.3498 92.2328 41.8884 91.3477 41.8884 91.3477C42.3154 93.8261 43.3533 93.0104 43.3533 93.0104C42.8812 95.0792 43.6657 95.6138 43.9503 96.0164C44.3078 96.5198 44.4745 96.7246 44.3426 97.6132C44.2211 98.4116 44.2731 98.6962 44.2731 98.6962C44.2731 98.6962 44.8945 98.0644 45.3457 98.5365C46.04 99.2655 46.453 101.466 48.0324 101.189C48.0324 101.189 47.8415 100.227 48.1852 100.227L48.6191 101.07C49.046 101.123 50.247 101.3 50.9066 100.453C51.3023 99.9423 51.403 99.2238 51.816 99.2551C52.1284 99.2828 52.1631 99.8764 52.1631 99.8764C52.4443 99.7063 52.4998 99.5501 52.6283 98.8593C52.7845 98.0054 53.2149 98.9114 53.2149 98.9114C53.326 98.3005 53.6488 97.7277 54.2424 97.3424C54.9887 96.8703 54.7735 95.5687 55.2108 95.2528C55.6899 94.9022 55.8044 96.2907 55.8044 96.2907C55.8044 96.2907 57.4255 95.041 56.8597 92.8854C56.6063 91.9204 56.332 91.1047 56.641 91.0214C56.936 90.952 56.877 91.8823 57.5192 92.2571C57.967 92.5244 58.6647 92.1426 58.6647 92.1426C57.8385 91.2297 57.967 89.6676 58.078 88.72Z" fill="#2B57AC"/>
<path d="M48.3677 97.5105C49.9644 97.9235 49.9887 96.2643 50.0096 95.9484C50.1172 94.258 51.28 94.1191 51.4779 93.9352C50.9364 94.0393 49.8395 94.0046 49.4889 93.3659C49.114 93.5741 48.4822 93.6818 47.7533 93.3624L48.1629 94.0532C48.3122 94.4697 48.1802 94.9661 48.0136 95.3583C47.8574 95.7367 46.9133 97.1356 48.3677 97.5105Z" fill="#EA1F29"/>
<path d="M90.5737 69.2648C77.6817 68.8344 74.4257 65.1654 74.4257 65.1654C74.4257 65.1654 72.9505 67.6125 78.8654 70.1986C78.8654 70.1986 76.8625 69.8688 75.7517 69.8237C74.4327 69.7543 73.0338 70.0111 73.0338 70.0111C73.0338 70.0111 71.5446 68.6539 70.4998 68.2721C70.1596 68.154 69.6042 67.9944 69.1148 68.2894L69.5209 68.5324L69.7084 68.9351L69.1669 69.4731L68.6566 69.1989L68.4865 69.0704C68.2227 69.782 68.6913 70.2645 69.0072 70.4589C67.5111 70.7817 67.0703 71.1601 67.0564 71.9238L67.5354 71.8023L67.9554 71.9585L67.9485 72.7221L67.3931 72.8818L67.2716 72.9026C67.584 73.4407 68.2574 73.7184 69.2016 73.399C69.6355 73.2532 69.7466 73.1803 69.7466 73.1803C69.7466 73.1803 68.9274 74.1106 69.2745 74.9992L69.5626 74.6868L69.9896 74.5792L70.4269 75.211L70.0624 75.6587L69.9444 75.7664L70.3297 75.8983C71.1559 76.1343 71.8432 75.4366 72.4055 74.7493C73.5371 73.3782 74.6514 73.7947 74.6514 73.7947C73.8912 74.548 74.5958 75.4574 74.5958 75.4574C74.5958 75.4574 75.2172 73.9995 76.2377 74.4091C76.0364 75.2977 76.9215 75.7976 76.9215 75.7976C76.9215 75.7976 77.4526 74.3709 78.1399 74.3709C79.0493 74.3709 78.5877 75.7455 78.5877 75.7455C78.5877 75.7455 79.0806 75.6865 79.8616 74.9055C80.3753 74.3952 80.8127 73.8329 81.868 73.9127C81.8367 74.0759 82.0033 75.0686 82.9232 75.5095C82.9024 72.1008 87.7134 71.6426 88.5083 71.4864C90.8132 71.0351 90.5737 69.2648 90.5737 69.2648Z" fill="#2B57AC"/>
<path d="M69.1667 69.4719L69.7047 68.9339L69.5242 68.5312L69.1146 68.2882L68.8126 68.1945C67.8858 68.0279 67.4276 68.6111 67.1742 68.9269C67.1742 68.9269 67.8268 68.6527 68.4863 69.0693L68.6564 69.1977L69.1667 69.4719Z" fill="#EA1F29"/>
<path d="M67.9499 72.7207L67.9534 71.957L67.5368 71.8008L67.0578 71.9223L66.8044 72.0646C66.0234 72.5957 66.1032 73.3247 66.1483 73.7239C66.1483 73.7239 66.433 73.0331 67.2695 72.9047L67.398 72.8838L67.9499 72.7207Z" fill="#EA1F29"/>
<path d="M70.4266 75.2119L69.9927 74.5767L69.5588 74.6912L69.2741 75.0002L69.104 75.323C68.7743 76.2047 69.2637 76.767 69.524 77.0551C69.524 77.0551 69.3644 76.3435 69.9406 75.7638L70.0621 75.6597L70.4266 75.2119Z" fill="#EA1F29"/>
<path d="M45.7255 64.8505C47.5028 65.4683 47.6868 63.5835 47.7423 63.226C48.013 61.3133 49.3529 61.2647 49.5959 61.0703C48.9676 61.1432 47.718 61.0009 47.3778 60.2407C46.937 60.4386 46.215 60.5115 45.4062 60.088L45.8123 60.9003C45.9477 61.3932 45.7464 61.9416 45.5277 62.379C45.309 62.7816 44.1114 64.2881 45.7255 64.8505Z" fill="#EA1F29"/>
<path d="M53.5027 55.5275L53.461 55.6004C53.3985 55.7323 52.8223 56.7806 51.715 56.8153L51.6421 56.8188C50.9409 56.8188 50.2918 56.2947 50.2918 56.2947C50.2918 56.2947 50.1877 56.2426 50.028 57.0687C49.9065 57.7387 49.4865 57.7213 49.4865 57.7213C49.4865 57.7213 49.4622 56.7251 49.7538 56.0204C50.1252 55.1353 50.9756 55.2325 50.9756 55.2325H50.9895L50.8298 55.656C50.8298 56.0517 51.1561 56.3675 51.5414 56.3675C51.9441 56.3675 52.2634 56.0517 52.2634 55.656L52.1767 55.3435L53.4575 55.4373H53.5478L53.5027 55.5275ZM49.0665 61.8208C48.1501 62.4907 48.2126 63.6084 47.9661 64.3617C47.6607 65.2711 46.7894 65.653 45.873 65.3926C45.0746 65.1982 44.3526 64.6533 44.3561 63.7994C44.363 62.824 46.0743 61.6681 45.1475 60.3733C44.3839 59.3111 44.4706 58.846 44.4706 58.846C44.4706 58.846 44.672 59.1757 45.1996 59.509C45.387 59.6166 46.9629 60.5226 47.3795 59.2868C47.4906 58.9709 47.2684 58.7696 47.0636 58.5995L46.713 58.2941L46.7165 57.6623C46.7165 57.6623 47.1226 58.2871 47.9002 58.4815C48.7124 58.6828 49.4379 58.3774 49.4379 58.3774C49.4379 58.3774 49.5802 58.9605 48.9172 58.9952C48.5527 59.0091 48.0286 58.9952 47.9279 59.4222C47.6086 60.8801 49.7468 60.7239 50.3925 60.6788C50.9132 60.6371 51.1561 60.585 51.1561 60.585C50.6736 61.1717 49.8926 61.2203 49.0665 61.8208ZM44.7171 53.1775L44.7206 53.0873L44.7344 52.9936L44.8073 53.0387L45.9459 53.6253L45.7098 53.8544C45.5016 54.1876 45.6057 54.632 45.9459 54.8437C46.2756 55.045 46.7165 54.9444 46.9248 54.6111L47.015 54.1633L47.0254 54.1668C47.0254 54.1668 47.7995 54.5382 47.6364 55.4859C47.5253 56.2287 46.9734 57.0687 46.9734 57.0687C46.9734 57.0687 46.6124 56.8639 46.8623 56.2356C47.1608 55.4512 47.0393 55.4303 47.0393 55.4303C47.0393 55.4303 46.2236 55.5379 45.6231 55.1665L45.5606 55.1249C44.6407 54.5174 44.7032 53.3198 44.7171 53.1775ZM57.7271 53.2053C58.2686 51.8897 57.6091 49.4911 57.6091 49.4911C57.6091 49.4911 56.533 51.1955 55.6201 50.2791C54.7801 49.4356 55.6756 48.0853 55.6756 48.0853C54.6377 47.7486 53.7699 49.1683 52.4821 48.4637C51.5831 47.9742 52.6383 46.3497 52.6383 46.3497C52.6383 46.3497 51.4685 46.3115 50.5383 46.7662C49.6323 47.2071 49.2262 47.5716 48.5979 47.5542C47.737 47.523 48.0425 46.1067 48.0425 46.1067C48.0425 46.1067 47.0185 46.079 46.411 47.1342C45.807 48.1755 45.1406 48.4498 45.1406 48.4498C44.8629 47.9985 44.2519 47.995 43.7833 47.8631C43.2661 47.7139 42.9086 47.4709 42.9086 47.4709C42.9086 47.4709 41.9575 49.3072 42.3914 50.8275C41.6729 51.0219 41.475 51.8238 41.3604 52.223C40.5274 55.2533 39.2777 53.8995 39.2882 53.9967C39.5277 56.6695 41.0723 56.5862 40.937 57.2076C40.7495 58.0476 39.3194 56.8986 39.3194 56.8986C39.3541 58.78 40.1976 58.9015 40.5447 60.0227C40.8398 60.9946 40.2288 61.6472 40.7252 63.1398C41.232 64.6845 40.8606 65.2503 40.8606 65.2503C41.9124 65.2746 42.5892 64.5144 42.5892 64.5144C42.3844 66.493 43.3113 67.4302 43.3113 67.4302C43.3113 67.4302 43.8979 66.2222 44.1409 67.0276C44.8039 69.1762 45.8834 69.9434 45.8834 69.9434C45.8834 69.9434 46.8553 69.9086 48.5805 68.0932C49.7815 66.8262 49.2435 68.4612 49.2435 68.4612C49.2435 68.4612 50.0835 68.5375 51.8261 65.3406C52.3884 64.3027 53.3256 63.7056 53.6589 65.3822C55.6548 63.2301 54.9606 60.9079 54.9606 60.0921C54.9606 59.3667 55.3146 59.2833 55.3459 59.6131C55.5507 61.5952 57.6299 60.9217 57.6299 60.9217C57.6299 60.9217 56.7829 60.0609 57.6542 57.0305C58.0846 55.5171 57.2446 54.0523 57.2446 54.0523L57.7271 53.2053Z" fill="#2B57AC"/>
<path d="M105.832 67.8506C105.832 67.8506 105.95 66.0143 104.613 65.5353C102.871 64.9001 100.614 65.7227 96.1365 65.3062C85.2543 64.2857 86.5942 60.3598 86.5942 60.3598C86.5942 60.3598 93.4359 63.3936 96.3309 61.9773C97.9276 61.1928 97.82 59.8113 97.82 59.8113C98.2678 60.3355 97.7818 61.3768 97.7818 61.3768C97.7818 61.3768 100.59 59.3149 97.2542 56.0971C96.0428 54.9378 93.8282 54.0769 92.1689 53.8617C87.3822 53.2403 85.5528 53.4972 82.1789 53.0321C79.3568 52.6364 78.7181 51.6401 78.8639 50.8487C79.2943 48.5126 84.5601 51.8345 87.4481 50.5502C88.2187 50.1996 88.8574 49.672 89.5274 49.5019C90.2285 49.3422 90.9297 49.5609 90.9297 49.5609C90.9297 49.5609 90.2494 48.3321 88.0174 48.8042C86.1811 49.1929 86.0423 48.5751 86.0423 48.5751C86.0423 48.5751 86.9031 48.648 88.0174 47.9954C88.7325 47.5823 88.9303 46.6694 89.7113 46.3292C90.6729 45.9161 91.6413 46.3049 91.6413 46.3049C91.6413 46.3049 90.3882 44.1701 87.9723 45.4198C86.3269 46.4889 85.7334 45.7009 85.7334 45.7009L87.7085 44.302C88.3159 43.0802 89.0969 42.8893 89.0969 42.8893C89.0969 42.8893 87.8612 42.2992 86.8164 43.3232C86.1395 43.9827 85.1537 44.1771 83.4632 44.1493C81.3215 44.1215 80.4606 46.6694 80.4606 46.6694C80.4606 46.6694 79.6102 46.7215 78.8778 47.0963C78.2321 47.4192 77.4928 48.1412 77.4928 48.1412L77.767 47.315C77.767 47.315 76.1737 48.103 76.1321 50.5467C76.0557 54.6635 80.5266 55.0002 81.9914 55.1148C84.1679 55.2849 88.3159 55.3925 91.4955 55.8299C95.7998 56.4234 95.9178 58.4055 95.3485 59.3288C94.7237 60.3598 92.9465 59.8321 89.9613 58.7838C86.9726 57.739 84.4455 55.9999 78.3953 56.1943C68.8495 56.4998 58.7483 63.3033 55.8256 61.5643C55.9714 62.6716 55.7111 64.9521 53.2014 66.9828C53.1077 65.2819 52.587 65.5075 52.0108 66.5315C50.414 69.4091 48.7479 69.6972 48.7479 69.6972C48.7479 69.6972 49.0533 68.7184 47.9807 69.6591C46.8942 70.6206 45.6481 70.7733 45.6481 70.7733C45.6481 70.7733 44.1242 69.6799 43.7667 67.9686L43.4578 68.5066C42.1838 67.8922 41.8888 65.8685 41.8888 65.8685C41.8888 65.8685 41.2779 66.2642 39.8824 66.0351C39.8824 66.0351 40.6669 65.1778 39.7818 62.9319C38.0323 62.9319 31.1108 61.7274 30.243 58.1521C29.9236 56.8191 29.5244 56.1804 28.6844 56.1249L28.8614 56.3783L28.8927 56.8573L28.1464 57.1975L27.7368 56.7254L27.6049 56.531C26.9245 57.0656 27.1362 58.1764 27.1362 58.1764C26.3587 57.5273 24.7585 56.4373 23.8178 57.1073L24.269 57.3815L24.4843 57.8536C24.4843 58.1972 24.2031 58.4714 23.856 58.4645L23.2728 58.1521L23.0021 57.9646C22.1759 59.308 24.8626 60.7624 24.8626 60.7624C23.8456 60.7034 22.3911 61.5087 22.4224 62.4286L22.884 62.2793L23.3318 62.4182L23.3874 63.2304L22.8111 63.4595L22.7035 63.4734C22.9673 64.0323 23.4394 64.3933 24.7585 64.0323C27.9346 63.1298 30.1006 63.7094 30.1006 63.7094C30.1006 63.7094 30.0034 64.7682 28.5594 64.487C28.49 64.4766 29.1218 65.3131 30.4165 65.3131C32.1209 65.3131 33.0234 64.6328 33.0581 64.6189C33.0581 64.6189 33.1414 65.0181 32.6554 65.2611C31.628 65.7852 32.2944 66.9099 32.2944 66.9099C32.8533 65.6568 33.8773 66.1427 33.8773 66.1427C33.6968 66.3927 33.4573 67.1251 34.0647 67.6805C34.0647 67.6805 34.1307 66.9585 35.2658 66.6704C36.0468 66.4725 36.7202 66.7537 36.7202 66.7537C36.7202 66.7537 36.0607 67.6805 36.8521 68.7323C36.8521 68.7323 37.1853 67.2188 38.2336 67.6666C38.671 67.8506 38.6155 68.3331 38.4905 68.5309L37.8136 68.9162C39.4485 69.6972 39.8616 68.4094 41.1251 69.5792C39.5041 70.3151 37.4769 70.4678 35.6059 70.3672C31.6731 70.027 30.8539 69.2564 29.9305 68.4094C28.6705 67.2015 27.6708 67.0765 27.0703 67.2605L27.2751 67.4063L27.4868 67.8749C27.4868 68.222 27.2126 68.4927 26.8724 68.4927L26.2789 68.1734L26.1365 68.0727C25.7894 68.6732 26.4316 69.2078 26.6225 69.4716L25.8936 69.3293C25.0605 69.1488 24.3593 69.4508 24.1545 70.0756L24.8175 70.1207L25.2097 70.4505L24.9147 71.2732L24.2517 71.2385L24.0191 71.2003C24.2656 72.2659 25.4978 72.3978 26.4351 72.436C25.9838 72.7102 25.5083 73.1129 25.6089 73.7481L26.0602 73.4739L26.508 73.5051L26.7301 74.2514L26.2303 74.5708L26.0741 74.6437C26.8342 75.4594 28.7017 74.3938 29.219 74.0952C30.7081 73.2552 31.9924 73.3975 32.7283 73.7655C34.1203 74.4528 32.2424 75.0255 32.2424 75.0255C32.704 75.3969 33.4434 75.2234 33.8981 75.0255C34.3181 74.8381 34.7173 74.5222 34.9186 74.8068C35.0297 74.9839 34.9707 75.2997 34.6548 75.5809L34.0578 75.8621C35.7934 76.5285 37.404 74.9318 37.404 74.9318C37.404 74.9318 37.5359 75.1505 37.3797 75.5635C37.1194 76.2404 36.4737 76.4834 36.4737 76.4834C38.3551 77.0527 39.3166 74.8138 39.3166 74.8138C39.3166 74.8138 40.2122 75.5011 39.1049 76.4834C40.6496 76.5285 40.8474 75.265 41.6111 75.751C42.0554 76.0391 41.8194 76.6709 41.1737 76.7993C42.9579 77.4067 42.8052 75.8169 44.8775 76.1641C47.9009 76.6882 51.3825 77.1325 56.7003 75.0741C64.868 71.9431 65.7046 64.7439 74.6499 63.7442C74.6499 63.7442 75.4031 65.3131 81.5298 66.9654C88.0174 68.7114 97.9936 67.3681 97.5458 70.454C97.3167 72.0264 92.8771 69.7667 92.3147 71.3322L92.2939 71.4155L92.7937 71.4051L93.1617 71.6515L92.9812 72.3978L92.4015 72.4291L92.3321 72.4187C92.5126 72.7588 92.8666 72.9428 93.2415 73.0122C92.7035 73.2934 92.3911 73.5051 92.3529 74.2098L92.3564 74.4111L92.6757 74.2341L93.12 74.2619L93.3491 74.9873L92.8666 75.3136L92.8007 75.3414C93.1339 75.6573 93.5991 75.7996 94.0295 75.6573C94.5085 75.4976 94.7237 75.331 94.8175 75.2303C94.6682 75.4802 94.3731 76.0669 94.5224 76.5355L94.7689 76.952L94.9598 76.4556L95.3416 76.2161L95.9491 76.6778L95.7477 77.2193L95.7026 77.2957C96.8446 77.3373 97.8547 75.8169 98.0526 74.4944C98.306 72.8074 98.8336 73.0608 98.8336 73.0608L99.1495 73.7065L99.8264 74.0293C99.7778 72.8838 100.628 72.5297 100.996 72.8491C101.357 73.1684 101.059 73.8627 101.059 73.8627C101.059 73.8627 101.638 74.064 102.326 72.8977C102.711 72.2798 102.68 71.4814 103.134 71.4328C103.752 71.412 103.506 72.1826 103.506 72.1826C104.939 71.412 104.044 69.1245 104.603 68.8642C105.044 68.7496 104.87 69.5827 104.87 69.5827C104.87 69.5827 105.773 69.0967 105.512 68.1109C105.12 66.6565 105.832 67.8506 105.832 67.8506Z" fill="#2B57AC"/>
<path d="M23.3877 63.23L23.3322 62.4212L22.8809 62.2789L22.4228 62.4282L22.1069 62.6191C21.3224 63.2474 21.4682 64.0215 21.5445 64.4415C21.5445 64.4415 21.7979 63.6709 22.7004 63.4765L22.8115 63.4557L23.3877 63.23Z" fill="#EA1F29"/>
<path d="M23.8585 58.4645C24.2056 58.468 24.4833 58.1972 24.4833 57.8536L24.2715 57.3815L23.8203 57.1073L23.4558 56.9997C22.3867 56.8053 21.8625 57.4683 21.5779 57.8293C21.5779 57.8293 22.2652 57.5377 23.0045 57.9647L23.2718 58.1521L23.8585 58.4645Z" fill="#EA1F29"/>
<path d="M28.1465 57.1957L28.8928 56.8555L28.8615 56.3799L28.6845 56.1231L28.2714 55.776C27.3967 55.2553 26.7233 55.6684 26.3553 55.887C26.3553 55.887 27.1017 55.8593 27.605 56.5327L27.7369 56.7236L28.1465 57.1957Z" fill="#EA1F29"/>
<path d="M26.7302 74.2521L26.5045 73.5058L26.0602 73.4746L25.609 73.7488L25.425 73.9432C24.8141 74.693 25.1091 75.3768 25.2688 75.7448C25.2688 75.7448 25.3417 75.0262 26.0741 74.6444L26.2303 74.5715L26.7302 74.2521Z" fill="#EA1F29"/>
<path d="M26.8711 68.4944C27.2113 68.4944 27.4855 68.2237 27.4855 67.8731L27.2773 67.408L27.069 67.2587L26.4581 67.0261C25.3924 66.8317 24.8648 67.4982 24.5836 67.8557C24.5836 67.8557 25.3612 67.5329 26.1352 68.071L26.2776 68.1751L26.8711 68.4944Z" fill="#EA1F29"/>
<path d="M24.9141 71.2734C25.223 71.1242 25.3584 70.7597 25.2091 70.4473L24.8169 70.1175L24.1539 70.0759L23.9144 70.1175C22.8661 70.4022 22.6786 71.2248 22.5814 71.6796C22.5814 71.6796 23.116 71.0756 24.0185 71.1971L24.2476 71.2387L24.9141 71.2734Z" fill="#EA1F29"/>
<path d="M92.9827 72.3954L93.1598 71.656L92.7918 71.4061L92.2954 71.4165L92.0108 71.4894C91.1291 71.8365 91.0458 72.5689 91.0042 72.9647C91.0042 72.9647 91.4554 72.3294 92.3301 72.4197L92.3996 72.4266L92.9827 72.3954Z" fill="#EA1F29"/>
<path d="M93.3475 74.989L93.1219 74.26L92.6776 74.2323L92.3548 74.4093L92.0493 74.7078C91.4627 75.4541 91.7681 76.1275 91.9313 76.4885C91.9313 76.4885 91.9972 75.704 92.8025 75.343L92.865 75.3118L93.3475 74.989Z" fill="#EA1F29"/>
<path d="M95.9488 76.6757L95.3414 76.214L94.963 76.4535L94.7686 76.9499L94.7374 77.2033C94.6923 78.144 95.331 78.5189 95.6677 78.7167C95.6677 78.7167 95.2754 78.0607 95.7058 77.297L95.7475 77.2172L95.9488 76.6757Z" fill="#EA1F29"/>
<path d="M23.4926 25.3267C23.8223 25.4065 24.1625 25.1983 24.2458 24.872L24.1486 24.3687L24.0098 24.1951L23.437 23.8063C22.4478 23.362 21.7778 23.8896 21.4203 24.1708C21.4203 24.1708 22.354 24.0181 22.9962 24.8824L23.017 24.9136L23.4926 25.3267Z" fill="#EA1F29"/>
<path d="M89.8139 37.425C78.5776 37.0917 74.8635 33.0166 74.8635 33.0166C74.8635 33.0166 72.9682 35.9011 77.63 37.7894C77.63 37.7894 76.7622 37.5465 75.6549 37.4562C74.3428 37.3451 73.77 37.3347 73.77 37.3347C73.77 37.3347 72.7807 35.8317 71.0382 35.5366C70.5627 35.4568 70.0906 35.4325 69.681 35.4915L69.7608 35.5644L69.9135 35.9775L69.3269 36.4704L68.8444 36.1615L68.6292 35.9844L68.5702 36.0434C68.289 36.3767 68.1641 36.8488 68.4105 37.4041C66.8103 37.6194 66.2861 38.1227 66.1577 38.7753L66.9422 38.7197L67.2997 38.9801L67.088 39.7229H66.5083L66.1577 39.6951C66.3139 40.5421 67.3275 41.1496 68.9381 40.4761C69.3339 40.313 67.9488 40.9621 68.4938 42.3784L68.6153 42.1076L68.9798 41.8507L69.6115 42.2951L69.4276 42.8366L69.2714 43.2392L69.2748 43.2427C70.6425 43.8397 72.0796 42.1944 72.2566 41.4238C72.2566 41.4238 72.392 42.4131 72.989 42.8331C72.9994 42.8366 73.0758 42.4131 73.3986 42.0694C73.9922 41.4238 73.9297 42.1944 73.9297 42.1944C73.9262 43.3746 74.676 43.569 74.676 43.569C74.676 43.569 74.5615 42.2117 75.6132 41.9931C76.0402 43.451 77.6439 41.2225 77.4807 41.8924C77.1163 43.3676 77.7688 43.8154 77.7688 43.8154C77.7688 43.8154 77.9042 42.0451 81.4483 41.8438C81.4101 42.0139 81.5385 43.0066 82.4445 43.4753C82.6944 40.0631 87.5333 40.0318 88.3317 39.8999C90.6469 39.5285 89.8139 37.425 89.8139 37.425Z" fill="#2B57AC"/>
<path d="M69.3264 36.4731L69.913 35.9768L69.7603 35.5602L69.6805 35.4908L69.0765 35.1714C68.1635 34.9285 67.6602 35.47 67.3929 35.765C67.3929 35.765 68.0178 35.5568 68.6287 35.9872L68.8439 36.1607L69.3264 36.4731Z" fill="#EA1F29"/>
<path d="M66.51 39.7222H67.0862L67.2979 38.9794L66.9439 38.719L66.1559 38.7746C65.2638 39.0766 65.1458 39.802 65.0868 40.1978C65.0868 40.1978 65.4582 39.7118 66.1559 39.6944L66.51 39.7222Z" fill="#EA1F29"/>
<path d="M69.6117 42.2934L68.9799 41.8525L68.6154 42.1094L68.4974 42.3767L68.4106 42.8696C68.4106 43.8103 69.0632 44.1609 69.4138 44.3414C69.4138 44.3414 69.1049 43.8658 69.268 43.2375L69.4242 42.8349L69.6117 42.2934Z" fill="#EA1F29"/>
<path d="M52.9886 23.5082L52.9469 23.588C52.8845 23.72 52.3187 24.7752 51.2218 24.8273L51.1454 24.8377C50.4442 24.8481 49.7847 24.3309 49.7847 24.3309C49.7847 24.3309 49.684 24.2788 49.5348 25.1154C49.4306 25.7784 49.0071 25.768 49.0071 25.768C49.0071 25.768 48.962 24.7683 49.2501 24.0705C49.6007 23.175 50.4512 23.2618 50.4512 23.2618H50.4581L50.3158 23.6852C50.3192 24.081 50.6525 24.3968 51.0413 24.3899C51.4404 24.383 51.7494 24.0532 51.7424 23.6609L51.6626 23.3485L52.9435 23.4249H53.0268L52.9886 23.5082ZM48.6565 29.8744C47.7436 30.5582 47.8304 31.6794 47.5944 32.4292C47.3063 33.349 46.4315 33.7552 45.5117 33.5018C44.7133 33.3143 43.9913 32.7832 43.9739 31.9363C43.9635 30.9609 45.6574 29.7772 44.7063 28.4928C43.9739 27.3682 44.0503 26.8996 44.0503 26.8996C44.0503 26.8996 44.2516 27.2259 44.7827 27.5452C44.984 27.6598 46.5704 28.531 46.9696 27.2918C47.0737 26.9794 46.8481 26.7746 46.6502 26.6115L46.2857 26.3095L46.2753 25.6777C46.2753 25.6777 46.6953 26.299 47.4729 26.4795C48.2886 26.6635 49.0037 26.3442 49.0037 26.3442C49.0037 26.3442 49.1564 26.9308 48.4934 26.9794C48.1359 26.9968 47.6117 26.9898 47.5145 27.4237C47.2195 28.8816 49.3612 28.6942 50.0068 28.6317C50.5171 28.5831 50.7566 28.5275 50.7566 28.5275C50.2915 29.1211 49.5174 29.1836 48.6982 29.7945M44.203 21.2311L44.2065 21.1339L44.2134 21.0437L44.2898 21.0923L45.4388 21.6581L45.2027 21.8906C45.0049 22.2273 45.1159 22.6647 45.4526 22.8695C45.7893 23.0708 46.2302 22.9563 46.4315 22.6196L46.5218 22.1787H46.5287C46.5287 22.1787 47.3063 22.5363 47.1674 23.4874C47.0598 24.2337 46.5287 25.0841 46.5287 25.0841C46.5287 25.0841 46.1538 24.8828 46.4003 24.2476C46.6849 23.4561 46.5669 23.4457 46.5669 23.4457C46.5669 23.4457 45.7442 23.5638 45.1402 23.2027L45.0847 23.1611C44.1475 22.564 44.1857 21.3665 44.203 21.2311ZM56.8937 23.3277C57.2859 21.4915 55.8419 21.4533 55.8419 21.4533C55.8419 21.4533 56.4598 21.0402 56.6993 20.2627C57.1089 18.895 56.3626 17.0726 56.3626 17.0726C56.3626 17.0726 55.8731 18.4264 54.3701 17.7738C54.3701 17.7738 55.113 16.8956 54.5263 15.2746C54.4118 15.6599 54.1028 16.0347 53.662 16.2916C52.8949 16.7394 52.0132 16.6422 51.6834 16.0833C51.3988 15.5904 51.6348 14.9101 52.2076 14.4449C51.9924 14.3859 51.0447 14.1499 50.1769 14.3998C49.2536 14.6706 47.8512 15.6008 47.8512 15.6008C47.8512 15.6008 46.8967 14.8545 47.3722 13.7681C47.3722 13.7681 45.9317 13.6188 45.4457 15.285C45.234 16.0104 44.623 16.0799 44.623 16.0799C44.623 16.0799 44.512 14.9205 43.4671 14.5977C43.4498 14.5873 41.5267 15.9619 41.5406 18.5548C40.836 18.77 40.5479 19.5892 40.4784 20.0058C39.5933 25.2959 38.2256 22.7862 38.243 22.8765C38.538 25.5423 40.3535 25.1605 40.3535 25.1605C40.0341 27.0141 38.1111 26.0283 38.1111 26.0283C38.8157 28.7289 40.4402 27.6007 40.4402 27.6007C39.2878 29.5828 40.1591 31.1066 40.777 32.6305C41.4261 34.0398 41.4052 35.2304 41.4052 35.2304C41.4052 35.2304 42.1793 34.8208 42.5993 34.8243C43.186 34.8347 42.9985 35.4665 43.0124 36.2683C43.0402 37.3964 43.4949 37.7297 43.4949 37.7297L43.7518 37.2298C44.0503 36.7681 44.2169 36.8272 44.2169 36.8272C44.2169 36.8272 44.0607 38.2434 44.9875 38.9446C44.9875 38.9446 46.2892 37.0528 47.0077 37.1882C47.4833 37.2749 47.7749 38.4274 47.7749 38.4274C51.5307 36.0496 52.0375 30.8532 52.7421 32.6999C52.9331 33.1512 52.9539 33.5885 52.9539 33.5885C52.9539 33.5885 55.2449 32.2244 55.0019 27.1668C55.0019 27.1668 55.4115 27.5764 56.1231 27.7708C56.8277 27.9687 57.2304 27.7465 57.2304 27.7465C57.2304 27.7465 56.2237 26.3893 56.8937 23.3277Z" fill="#2B57AC"/>
<path d="M45.3608 32.961C47.1519 33.5476 47.3047 31.6593 47.3463 31.3087C47.5893 29.3892 48.9292 29.3163 49.1687 29.1184C48.5404 29.2017 47.2943 29.0837 46.9367 28.327C46.5132 28.5353 45.7808 28.6186 44.9582 28.202L45.3851 29.0073C45.5274 29.5037 45.3365 30.0556 45.1178 30.493C44.9096 30.9026 43.7363 32.423 45.3608 32.961Z" fill="#EA1F29"/>
<path d="M23.3187 30.1948L23.2736 29.3756L22.8188 29.2368L22.1593 29.4971L22.0413 29.5735C21.2568 30.1983 21.4026 30.9793 21.4755 31.3924C21.4755 31.3924 21.7046 30.7086 22.4925 30.4691L22.7425 30.4066L23.3187 30.1948Z" fill="#EA1F29"/>
<path d="M28.0498 23.8814L28.8482 23.6731L28.8898 23.1941L28.8378 23.0553L28.4178 22.4999C27.6367 21.8473 26.9078 22.1354 26.5051 22.2881C26.5051 22.2881 27.3104 22.3957 27.6749 23.2427L27.7235 23.3503L28.0498 23.8814Z" fill="#EA1F29"/>
<path d="M26.7364 35.1877L27.5243 34.976L27.5764 34.5004L27.3716 34.1082L27.0974 33.8132C26.3198 33.1467 25.5909 33.4417 25.1882 33.5979C25.1882 33.5979 26.063 33.7021 26.4101 34.6567L26.4448 34.7608L26.7364 35.1877Z" fill="#EA1F29"/>
<path d="M24.2378 38.1889C24.5606 38.0709 24.7272 37.7169 24.6092 37.394L24.2482 37.0296L23.4845 36.9324L23.3526 36.9497C22.287 37.1302 22.0127 37.9355 21.8739 38.3694C21.8739 38.3694 22.4293 37.8592 23.2624 38.0119L23.5783 38.0918L24.2378 38.1889Z" fill="#EA1F29"/>
<path d="M26.7197 40.8462L26.2164 40.7282L25.6124 40.992L25.418 41.1482C24.6162 41.8807 24.8279 42.7033 24.9425 43.1442C24.9425 43.1442 25.175 42.2312 26.2268 41.9883L26.2511 41.9848L26.8342 41.7175L26.7197 40.8462Z" fill="#EA1F29"/>
<path d="M104.049 33.5425C103.268 33.1676 102.012 33.3273 100.509 33.4869C99.3285 33.6084 97.9921 33.7369 96.6418 33.598C87.5577 32.6886 86.8253 29.3493 87.1898 29.5749C87.1898 29.5749 89.1441 30.5677 92.1154 31.1474C100.21 32.7233 100.276 28.2871 100.276 28.2871C100.276 28.2871 100.547 28.485 100.627 28.9744C100.71 29.5437 100.325 30.3178 100.325 30.3178C100.325 30.3178 101.338 29.5645 101.338 28.4398C101.338 26.7563 100.238 26.1662 100.238 26.1662C100.238 26.1662 100.464 26.1419 100.866 26.4925C101.272 26.8396 101.505 27.697 101.505 27.697C101.505 27.697 101.932 26.2946 100.373 24.993C96.0274 21.3586 86.6309 22.0737 83.0139 21.5565C79.8413 21.1018 79.0117 19.7966 79.2442 18.4498C79.6295 16.2386 82.5939 16.1831 82.5939 16.1831C82.4343 18.5921 85.4299 20.1715 88.2763 19.5397C89.8661 19.1857 90.8276 18.6442 91.9557 17.7347C92.8062 17.0543 93.4796 16.7385 93.4796 16.7385C92.0147 16.4573 91.081 17.037 90.4943 17.2834C89.8626 17.5473 89.21 17.7451 88.5262 17.8007C86.7559 17.9499 86.5858 16.7697 86.5858 16.7697C86.5858 16.7697 87.9014 17.398 89.6127 16.9988C94.5418 15.8498 92.9346 11.2471 92.9346 11.2471C92.9346 11.2471 92.5007 12.9861 90.956 13.6352C89.4981 14.2392 88.2901 13.2846 88.2901 13.2846C88.2901 13.2846 90.6749 13.5276 91.1851 11.6601C91.4732 10.6014 90.4666 10.0495 90.4666 10.0495C90.4666 10.0495 90.6853 12.4238 84.989 12.0732C82.5002 11.917 82.5072 14.0448 82.5072 14.0448C82.5072 14.0448 82.1045 14.0518 81.0909 14.3503C80.1676 14.6176 79.5323 15.0619 79.5323 15.0619C79.7857 14.3746 80.7889 14.0448 80.7889 14.0448C79.4699 14.0448 78.373 15.0619 78.373 15.0619L78.5639 14.4371C78.5222 14.5134 77.0956 15.6971 76.7762 18.2241C76.6096 19.4911 76.9914 20.7963 77.8211 21.7682C79.1887 23.3754 81.8025 23.5802 83.3854 23.7051C85.7319 23.8856 89.5988 24.0939 93.0144 24.5625C97.6415 25.1978 97.9192 26.7424 97.3083 27.7282C96.6349 28.8356 94.573 28.8599 91.3691 27.7282C88.1548 26.6036 81.7122 24.2744 77.0782 24.2918C64.8388 24.3438 59.3509 29.5333 55.6957 28.5683C55.7998 33.2544 52.4432 35.1253 52.4432 35.1253C51.9364 32.5428 52.2905 37.2428 47.3128 39.6865C47.3128 39.6865 47.2746 38.5202 46.7609 38.4195C46.0909 38.2807 45.1259 40.1065 45.1259 40.1065C44.0603 39.4018 43.7271 38.3015 43.7271 38.3015L43.4702 38.8256C43.4702 38.8256 42.6406 38.305 42.4601 37.4198C42.2796 36.5173 42.5503 35.8404 42.1511 35.8231C41.6929 35.8022 40.7175 36.4652 40.7175 36.4652C40.7175 36.4652 40.8876 34.9171 40.176 33.3099C39.7838 32.279 39.211 31.3383 39.1208 30.2206C35.1775 29.4812 30.3734 27.9018 30.2693 26.3849C30.1651 24.9617 30.4185 23.5142 28.8391 23.0526L28.8877 23.1949L28.8496 23.6739L28.0512 23.8822L27.7249 23.3511L27.6763 23.24C26.7668 23.7746 27.1383 25.4095 27.1383 25.4095C26.4232 24.6805 24.9202 23.3441 24.0107 24.1946L24.1496 24.3681L24.2468 24.8715C24.1634 25.1978 23.8233 25.4095 23.49 25.3262L23.018 24.9131C22.053 26.2703 24.0385 27.8879 24.0385 27.8879C23.7434 28.0372 22.164 28.3531 22.1571 29.4951L22.8166 29.2382L23.2714 29.3736L23.3165 30.1963L22.7437 30.4115L22.4938 30.467C23.0527 31.2584 23.917 31.2515 24.4585 31.0189C26.989 29.9429 27.6312 30.5503 28.735 30.7933C29.5195 30.9599 30.2241 30.7725 30.238 31.2341C30.245 31.6125 29.877 31.8937 28.7003 31.7479C28.7003 31.7479 28.9849 32.4942 30.2693 32.6365C32.2062 32.8482 32.8136 32.3727 33.0705 32.7094C33.5391 33.3273 31.6751 33.5633 31.6751 33.5633C33.1955 34.7227 35.2053 33.8306 35.2053 33.8306C35.3094 34.5075 33.8689 34.6498 33.8689 34.6498C33.8689 34.6498 34.4416 35.2885 35.5767 35.0073C36.0037 34.8997 36.3785 34.6984 36.3785 34.6984C36.3785 34.6984 36.0384 35.8196 37.0311 36.3923C37.0311 36.3923 37.5969 34.4797 38.3884 34.9726C38.7806 35.2087 38.8327 35.6113 38.6556 35.8404C38.4057 36.1667 38.0343 36.1146 38.0343 36.1146C38.2634 36.6978 39.2839 36.6978 39.2839 36.6978C39.2839 36.6978 38.0482 37.4615 34.6048 37.4094C30.0367 37.0345 30.3005 36.5242 29.1897 35.1774C28.2976 34.0007 27.7804 33.9313 27.3743 34.1083L27.5722 34.5005L27.527 34.9761L26.7356 35.1878L26.4475 34.7609C25.8852 35.3197 25.9893 35.8231 26.2496 36.2882C26.024 36.25 23.8684 35.9411 23.4866 36.9338L24.2502 37.0276L24.6112 37.3955C24.7258 37.7183 24.5626 38.0724 24.2363 38.1869L23.5768 38.0932L23.2609 38.0099L23.2471 38.114C23.2228 39.5893 25.3749 39.6275 26.4371 39.6726C25.9858 39.9434 25.4999 40.346 25.6144 40.9916L26.2149 40.7278L26.7182 40.8424L26.8363 41.7171L26.2496 41.9844C27.6589 42.9147 28.7107 41.6234 29.221 41.3318C30.7066 40.4849 32.9872 40.582 33.5669 41.2069C33.9973 41.672 33.0462 42.2066 33.0462 42.2066C34.098 42.3419 34.8686 41.6963 34.8686 41.6963C34.8686 41.6963 34.6638 41.9289 34.584 42.4183C34.4625 43.123 34.938 43.4978 34.938 43.4978C35.8093 41.8213 36.4757 41.9323 36.809 42.2482C37.2116 42.6266 36.3994 43.1993 36.3994 43.1993C37.4095 43.7096 38.7147 42.6717 38.7147 42.6717C38.7147 42.6717 38.6209 43.5326 39.1104 44.0012C39.7734 42.7932 41.2278 42.9043 42.1893 43.0223C42.1893 43.0223 40.8113 43.963 41.3458 45.1432C42.2101 44.3066 43.2897 44.0012 44.7545 44.1817C47.7988 44.5496 53.5609 46.2783 63.4503 37.1004C70.1358 30.9009 74.5998 31.6958 74.5998 31.6958C80.539 36.5173 91.9488 36.6041 94.8715 36.8228C96.2808 36.9234 96.3017 37.8016 95.6838 38.5549C95.295 39.0165 94.7847 39.1311 94.7535 39.138C94.7535 39.138 91.9453 37.9752 90.9074 39.5372L91.4524 39.5442L91.803 39.801L91.5982 40.5161L91.0324 40.523L90.7929 40.4953C90.9178 41.0125 91.3205 41.1687 91.5982 41.2381L91.6815 41.3249C91.0845 41.8942 91.0949 42.4843 91.1192 42.6786L91.5392 42.4773L91.9592 42.5467L92.105 43.2757L91.6121 43.543L91.4593 43.5916C91.7579 44.0602 92.289 44.3448 93.1047 44.0289C93.733 43.7964 93.9031 43.661 93.9447 43.5985C93.8788 43.7269 93.667 44.1886 93.8926 44.5531L93.9898 44.6815L94.3265 44.0671L94.7257 43.9074L95.229 44.4524L94.9375 44.9349L94.809 45.1015H95.5241C96.3988 44.928 97.0792 44.1817 97.2736 42.3315C97.3465 41.7067 97.4818 41.3631 97.6381 41.1895C97.9296 40.8563 98.5961 40.6133 98.5961 40.6133C98.5961 40.6133 98.8738 41.3457 98.3948 41.8872C100.123 42.1684 100.356 39.4504 100.356 39.4504C100.356 39.4504 100.536 39.9746 100.925 40.3287C101.307 40.6827 101.849 40.7591 101.849 40.7591C101.533 38.8222 102.3 38.1592 102.664 38.0689C103.393 37.8884 103.369 38.7701 103.369 38.7701C103.369 38.7701 104.004 38.3466 103.869 37.4823C103.796 36.9894 103.536 36.5173 103.536 36.5173C103.536 36.5173 104.147 36.2153 104.473 37.038C104.473 37.038 105.125 35.9862 104.528 35.403L104.851 35.3683L105.143 35.6113C105.143 35.6113 105.441 34.2159 104.049 33.5425Z" fill="#2B57AC"/>
<path d="M91.5979 40.5153L91.8027 39.8037L91.4521 39.5434L90.9071 39.5399L90.6919 39.6024C89.8241 39.9009 89.7096 40.6055 89.6471 40.9908C89.6471 40.9908 90.0532 40.4702 90.7926 40.4945L91.0321 40.5188L91.5979 40.5153Z" fill="#EA1F29"/>
<path d="M92.1057 43.2749L91.9599 42.5425L91.5364 42.48L91.1199 42.6779L90.8838 42.8757C90.2451 43.5387 90.4673 44.2121 90.5922 44.587C90.5922 44.587 90.7207 43.8893 91.46 43.5943L91.6128 43.5422L92.1057 43.2749Z" fill="#EA1F29"/>
<path d="M95.2293 44.4537L94.7226 43.9088L94.3268 44.0684L93.9901 44.6828L93.9762 44.7453C93.768 45.6444 94.3164 46.106 94.6115 46.356C94.6115 46.356 94.372 45.7277 94.8093 45.1029L94.9378 44.9328L95.2293 44.4537Z" fill="#EA1F29"/>
</svg>
