<svg width="128" height="128" viewBox="0 0 128 128" fill="none" xmlns="http://www.w3.org/2000/svg">
<path d="M29.9479 54.8589C29.808 55.1149 29.4856 55.9975 29.2362 56.8329C28.9807 57.6616 28.6947 58.7531 28.5913 59.2584C28.4818 59.7637 28.348 60.4442 28.2811 60.7676L28.1594 61.3672C27.8066 60.1949 27.5024 59.4336 27.253 58.9215C27.0035 58.4095 26.6142 57.7627 26.3891 57.4932C26.164 57.217 25.9511 57.0014 25.9268 57.0216C25.9024 57.035 25.8294 57.3585 25.7625 57.7492C25.6713 58.3152 25.6834 58.8003 25.8173 60.2825C25.9024 61.2931 26.0363 62.3374 26.1093 62.6069C26.1823 62.8764 26.2735 63.3615 26.3161 63.6849C26.3526 64.015 26.4499 64.5472 26.529 64.8706C26.602 65.2008 26.748 65.8071 26.8515 66.2248C26.9488 66.6358 27.2043 67.5656 27.4172 68.273C27.6301 68.9872 27.8613 69.7148 27.9282 69.8967C27.9891 70.0719 28.2385 70.6581 28.4697 71.1903C28.7069 71.7226 29.0415 72.3693 29.2118 72.6254L29.5282 73.097C29.3396 74.4647 29.0902 75.5426 28.859 76.3713C28.6278 77.2068 28.3602 78.2511 28.2689 78.6957C28.1777 79.1404 28.056 79.6727 28.0012 79.8815L27.8978 80.2588C27.4111 78.9181 27.1435 78.2578 26.9914 77.9277C26.8332 77.5976 26.5108 77.0518 26.2674 76.715C26.0241 76.3781 25.7747 76.1019 25.7078 76.1019C25.6348 76.1019 25.5618 76.3107 25.5253 76.6139C25.4888 76.8969 25.4888 77.6851 25.5192 78.3724C25.5557 79.0528 25.6226 80.0028 25.6773 80.4744C25.7321 80.9528 25.8659 81.7747 25.9815 82.3137C26.0971 82.846 26.2066 83.4523 26.2309 83.6612C26.2553 83.8701 26.4499 84.692 26.6689 85.4938C26.894 86.2955 27.2408 87.5015 27.4476 88.1685C27.6545 88.8355 28.0073 89.7855 28.2324 90.2706C28.4514 90.7624 28.7799 91.3822 28.9563 91.6517L29.2727 92.1368C29.1206 93.39 29.1084 94.313 29.1388 95.0002C29.1753 95.6807 29.2179 96.4555 29.2483 96.725C29.2727 96.9945 29.3396 97.5739 29.3883 98.0186C29.443 98.4632 29.5038 98.9416 29.5343 99.0763C29.5586 99.2043 29.5465 99.3121 29.5038 99.3121C29.4613 99.3121 29.2787 99.0831 29.0902 98.8068C28.9016 98.5306 28.4453 97.9714 28.0681 97.5672C27.691 97.1629 27.3564 96.8328 27.3138 96.8328C27.2712 96.8328 27.186 96.7722 27.1191 96.6913C27.0522 96.6172 26.7906 96.4218 26.5351 96.2601L26.0728 95.9704C26.0666 96.597 26.1275 96.9743 26.2066 97.2101C26.2796 97.4459 26.4743 97.9714 26.6446 98.3689C26.8089 98.7731 26.9488 99.1235 26.9488 99.1572C26.9488 99.1841 27.2651 99.8511 27.6545 100.639C28.0377 101.428 28.4027 102.122 28.4636 102.176C28.5244 102.236 28.8407 102.782 29.1693 103.395C29.5038 104.001 29.8141 104.5 29.8689 104.5C29.9236 104.5 29.9662 104.561 29.9723 104.635C29.9723 104.709 30.1365 105.012 30.3373 105.308C30.532 105.605 30.8605 106.063 31.0673 106.332C31.2681 106.602 31.5236 106.939 31.6331 107.087C31.7426 107.242 32.2536 107.842 32.7707 108.428C33.2878 109.014 33.8231 109.553 33.957 109.627C34.0908 109.708 34.5957 110.24 35.0763 110.826C35.5569 111.406 36.2565 112.127 36.6337 112.437C37.0109 112.746 37.461 113.063 37.6375 113.144C37.8139 113.232 37.9538 113.333 37.9538 113.38C37.9477 113.427 38.0268 113.488 38.118 113.515C38.2093 113.548 38.3736 113.636 38.4831 113.703C38.5926 113.777 38.8724 114 39.1157 114.195C39.3591 114.39 39.6328 114.545 39.7241 114.545C39.8153 114.538 39.8944 114.579 39.8944 114.619C39.8883 114.667 40.1317 114.822 40.4237 114.97C40.7157 115.118 40.9347 115.28 40.9104 115.32C40.886 115.367 40.1986 115.394 39.3834 115.381C38.5196 115.367 37.6679 115.414 37.3394 115.489C36.9561 115.583 36.7493 115.684 36.6823 115.839C36.6276 115.953 36.585 116.061 36.585 116.081C36.5789 116.095 36.658 116.203 36.7554 116.324C36.8466 116.439 37.0169 116.594 37.1204 116.661C37.2299 116.728 37.4915 116.816 37.7044 116.856C37.9173 116.897 38.258 117.004 38.4587 117.085C38.6595 117.173 38.9454 117.24 39.0914 117.24C39.2374 117.24 39.6328 117.341 39.9674 117.456C40.302 117.577 40.7948 117.671 41.0625 117.671C41.3301 117.671 41.5735 117.719 41.5978 117.779C41.6221 117.84 41.8351 117.887 42.0601 117.887C42.2852 117.887 42.7172 117.934 43.0092 117.988C43.3012 118.049 43.7878 118.123 44.0799 118.157C44.3719 118.19 45.4061 118.264 46.3672 118.325C47.3284 118.379 48.5147 118.392 48.9953 118.352C49.4759 118.312 49.9139 118.271 49.9687 118.264C50.0234 118.258 50.2181 118.217 50.4067 118.177C50.5953 118.136 50.9968 118.076 51.307 118.049C51.7146 118.008 51.885 118.035 51.9397 118.143C51.9823 118.224 52.1222 118.312 52.256 118.345C52.3899 118.372 53.1138 118.581 53.8621 118.803C54.6104 119.026 55.2795 119.262 55.3525 119.329C55.4195 119.396 55.4438 119.484 55.4012 119.524C55.3586 119.565 55.1274 119.713 54.8841 119.861C54.6408 120.009 54.1602 120.299 53.8134 120.501C53.4667 120.703 52.9861 121.013 52.7427 121.182C52.4994 121.35 52.0918 121.687 51.8363 121.929C51.5747 122.172 51.2827 122.536 51.1732 122.745C51.0698 122.954 51.0089 123.149 51.0454 123.176C51.0759 123.21 51.7024 123.25 52.4325 123.27C53.1686 123.291 54.2028 123.243 54.7381 123.176C55.2734 123.102 56.1251 122.906 56.6361 122.738C57.1472 122.57 58.0962 122.192 58.7471 121.909C59.4041 121.626 59.9395 121.431 59.9395 121.478C59.9456 121.525 59.909 121.572 59.8726 121.586C59.83 121.599 59.5258 121.977 59.2034 122.421C58.8749 122.866 58.3395 123.695 58.011 124.261C57.5487 125.049 57.4148 125.372 57.4148 125.689V126.093H59.5075C59.7691 125.13 60.0125 124.49 60.2132 124.045C60.4201 123.594 60.8337 122.819 61.1318 122.313C61.436 121.808 61.9349 121.087 62.2512 120.71C62.5615 120.326 62.9386 119.949 63.0846 119.868C63.2611 119.774 63.7112 119.72 64.423 119.72C65.1348 119.72 65.5849 119.774 65.7614 119.868C65.9074 119.949 66.2845 120.326 66.5948 120.71C66.9051 121.087 67.4161 121.808 67.7202 122.313C68.0305 122.819 68.4624 123.647 68.6753 124.153C68.8883 124.651 69.1255 125.298 69.1985 125.581L69.3384 126.093H71.4312C71.4312 125.507 71.3521 125.157 71.2486 124.934C71.1513 124.712 70.8958 124.267 70.689 123.944C70.4821 123.627 70.0624 123.021 69.7582 122.596C69.454 122.172 69.1377 121.741 69.0525 121.64C68.9673 121.539 68.9004 121.424 68.9004 121.397C68.9004 121.363 69.4358 121.593 70.0928 121.896C70.7498 122.206 71.5042 122.522 71.7718 122.61C72.0395 122.698 72.4775 122.832 72.7452 122.92C73.0129 123.001 73.5178 123.108 73.8645 123.149C74.2113 123.196 75.2272 123.23 76.1215 123.23C77.0097 123.23 77.7701 123.196 77.8006 123.149C77.831 123.109 77.7823 122.933 77.691 122.772C77.5998 122.61 77.326 122.246 77.0827 121.963C76.8394 121.68 76.6082 121.451 76.5656 121.451C76.523 121.451 76.2858 121.296 76.0303 121.114C75.7748 120.926 75.1725 120.555 74.6919 120.292C74.2113 120.023 73.7185 119.713 73.5969 119.598C73.4326 119.45 73.4083 119.376 73.4995 119.302C73.5665 119.241 73.7976 119.154 74.0105 119.093C74.2235 119.032 74.6615 118.904 74.9839 118.81C75.3063 118.709 75.9816 118.514 76.4926 118.372C77.2835 118.15 77.5085 118.123 78.05 118.21C78.3967 118.264 79.2545 118.338 79.948 118.379C80.6415 118.413 81.913 118.392 82.7707 118.332C83.6285 118.271 84.7418 118.17 85.2528 118.109C85.7638 118.049 86.5912 117.921 87.1022 117.826C87.6132 117.732 88.5501 117.543 89.1949 117.402C89.8397 117.26 90.5576 117.072 90.8009 116.991C91.0443 116.91 91.5979 116.688 92.042 116.499C92.5347 116.29 92.8328 116.108 92.8146 116.027C92.7963 115.953 92.4313 115.778 92.0116 115.643C91.4154 115.455 90.8861 115.381 89.6816 115.333C88.1607 115.266 88.1303 115.259 88.4405 115.091C88.617 114.997 89.274 114.579 89.8945 114.161C90.5211 113.743 91.0747 113.353 91.1355 113.292C91.1902 113.225 91.4275 113.043 91.6526 112.888C91.8777 112.726 92.407 112.268 92.8206 111.864C93.2343 111.459 93.7514 110.88 93.9644 110.577C94.1773 110.274 94.5301 109.896 94.743 109.748C94.9559 109.593 95.5704 108.967 96.1057 108.36C96.6411 107.747 97.3042 106.959 97.5779 106.602C97.8517 106.245 98.2167 105.712 98.3992 105.416C98.5817 105.12 98.892 104.634 99.0927 104.338C99.2996 104.042 99.5186 103.725 99.5855 103.637C99.6464 103.543 99.7497 103.375 99.8045 103.26C99.8592 103.139 100.06 102.775 100.255 102.445C100.443 102.121 100.82 101.414 101.082 100.882C101.344 100.349 101.605 99.7903 101.666 99.642C101.727 99.4938 101.952 98.9548 102.165 98.4495C102.378 97.951 102.609 97.3379 102.67 97.1021C102.737 96.8663 102.773 96.5159 102.755 96.3273L102.725 95.9836C101.8 96.6035 101.38 96.9269 101.204 97.1088C101.021 97.2907 100.632 97.7286 100.34 98.079C100.042 98.4361 99.7011 98.8672 99.5794 99.0492C99.4638 99.2243 99.3421 99.3456 99.3239 99.3187C99.2996 99.285 99.3421 98.8268 99.4151 98.2878C99.4881 97.7556 99.5733 97.0549 99.5976 96.7248C99.6281 96.4014 99.6767 95.5996 99.7071 94.9461C99.7436 94.2926 99.7254 93.3898 99.6706 92.9451C99.5793 92.1703 99.5854 92.1231 99.8105 91.7863C99.9383 91.5909 100.048 91.409 100.048 91.382C100.048 91.3483 100.23 90.971 100.455 90.5466C100.674 90.1154 101.052 89.2261 101.289 88.5725C101.526 87.919 101.751 87.1914 101.794 86.9556C101.842 86.713 102.031 85.9652 102.213 85.2779C102.402 84.5975 102.627 83.6273 102.712 83.122C102.804 82.6167 102.944 81.8351 103.023 81.3905C103.108 80.9458 103.211 80.3192 103.254 79.9891C103.302 79.6657 103.339 78.7157 103.345 77.887C103.345 77.0516 103.315 76.2903 103.278 76.1892C103.241 76.0882 103.162 76.0343 103.102 76.0814C103.047 76.1219 102.804 76.425 102.56 76.7484C102.323 77.0786 102.055 77.4626 101.964 77.6108C101.879 77.7658 101.611 78.4193 101.374 79.0728L100.942 80.2587C100.778 79.5917 100.626 78.9584 100.498 78.4261C100.37 77.8871 100.23 77.2606 100.194 77.018C100.157 76.7822 99.9991 76.223 99.847 75.7783C99.6888 75.3337 99.5124 74.5454 99.4394 74.0333L99.3177 73.0969C99.7861 72.3693 100.169 71.6012 100.467 70.9208C100.772 70.2403 101.131 69.3173 101.264 68.8659C101.404 68.4212 101.642 67.5723 101.794 66.9794C101.946 66.3865 102.159 65.5106 102.268 65.039C102.378 64.5607 102.542 63.732 102.633 63.1997C102.724 62.6675 102.84 61.96 102.883 61.6367C102.931 61.3065 103.01 60.7271 103.065 60.3363C103.12 59.9523 103.169 59.5885 103.169 59.5278C103.169 59.4672 103.144 58.908 103.114 58.2882C103.083 57.6616 103.016 57.1024 102.974 57.0485C102.919 56.9811 102.749 57.1159 102.512 57.4056C102.311 57.6683 102.013 58.0793 101.861 58.3286C101.708 58.5711 101.489 59.0158 101.368 59.3122C101.246 59.6087 101.045 60.1949 100.924 60.6058L100.693 61.3672C100.364 59.7771 100.133 58.78 99.9686 58.1265C99.8044 57.4729 99.5306 56.523 99.3664 56.0177C99.2021 55.5124 98.9953 54.9599 98.904 54.7847C98.8067 54.6163 98.6911 54.4546 98.6363 54.4344C98.5816 54.4142 98.4599 54.5759 98.3565 54.8049C98.2592 55.0273 98.0341 55.6202 97.8577 56.1255C97.6508 56.7184 97.4257 57.7222 97.2311 58.935C97.0668 59.9725 96.9086 60.936 96.8843 61.0707C96.8539 61.1987 96.793 61.3133 96.7383 61.3133C96.6835 61.3133 96.422 60.7406 96.1482 60.0399C95.8744 59.3459 95.625 58.7463 95.5824 58.7194C95.546 58.6924 95.3756 58.4229 95.1992 58.1265C95.0288 57.83 94.7916 57.4595 94.6699 57.3112C94.5482 57.163 94.3718 57.0013 94.2806 56.9609C94.1346 56.8935 94.1102 56.9474 94.1102 57.291C94.1102 57.5134 94.1528 58.241 94.2076 58.908C94.2623 59.575 94.4387 60.9966 94.5969 62.0678C94.7551 63.1323 94.9254 64.116 94.9741 64.2508C95.0227 64.3855 95.1323 64.8369 95.2235 65.2546C95.3087 65.6656 95.4669 66.3259 95.5763 66.7099C95.6859 67.0939 95.844 67.6531 95.9292 67.9496C96.0144 68.246 96.1604 68.6637 96.2577 68.8659C96.355 69.0747 96.5984 69.6339 96.7991 70.1123C96.9999 70.5839 97.3284 71.2778 97.5352 71.6484C97.736 72.019 97.9063 72.3693 97.9063 72.4299C97.9063 72.4906 97.9367 72.5377 97.9793 72.5377C98.0219 72.5377 98.0888 73.0835 98.1253 73.7505C98.1983 74.9228 98.1923 75.0036 97.9124 75.9401C97.7542 76.4724 97.5109 77.5706 97.3771 78.3723C97.2432 79.1741 97.1276 79.9825 97.1276 80.1779C97.1276 80.3733 97.0972 80.5283 97.0546 80.535C97.012 80.535 96.8356 80.1577 96.6531 79.6996C96.4706 79.2347 96.2334 78.6351 96.1239 78.3723C96.0144 78.1028 95.7954 77.6649 95.6372 77.3954C95.479 77.1326 95.1688 76.7082 94.9498 76.4522C94.7308 76.1961 94.4813 75.994 94.4022 75.994C94.2806 75.994 94.2684 76.1018 94.3292 76.6678C94.3718 77.0383 94.4448 77.8805 94.4996 78.534C94.5543 79.1875 94.6395 79.9354 94.6882 80.2049C94.7369 80.4744 94.8281 81.0336 94.8889 81.4446C94.9498 81.8623 95.114 82.7112 95.2479 83.3378C95.3817 83.9576 95.5155 84.5909 95.5399 84.7391C95.5641 84.8874 95.625 85.1097 95.6676 85.2242C95.7102 85.3455 95.844 85.7565 95.9535 86.1472C96.063 86.5313 96.1543 86.9288 96.1543 87.0366C96.1543 87.1376 96.1969 87.2252 96.2516 87.2252C96.3064 87.2252 96.349 87.2993 96.349 87.3869C96.349 87.4745 96.501 87.899 96.6835 88.3302C96.8661 88.7614 97.0364 89.2128 97.0668 89.3273C97.0972 89.4486 97.4136 90.0549 97.7603 90.6815C98.3687 91.7662 98.393 91.8403 98.3991 92.5141C98.3991 93.1407 98.3626 93.2754 98.0645 93.7538C97.8759 94.0502 97.5778 94.542 97.3892 94.8385C97.2067 95.1349 96.7444 95.9704 96.3611 96.698C95.9779 97.4256 95.6372 98.0185 95.5946 98.0185C95.552 98.0185 95.4912 97.3515 95.4486 96.5363C95.4121 95.7211 95.3452 95.0271 95.3026 95.0002C95.26 94.9665 95.1748 94.7239 95.114 94.4545C95.0531 94.1917 94.9072 93.7403 94.7977 93.4573C94.6882 93.1743 94.5543 92.9453 94.4996 92.9453C94.4449 92.9453 94.3779 93.08 94.3475 93.2417C94.3171 93.4034 94.2076 93.8548 94.1042 94.2388C94.0007 94.6296 93.7817 95.5729 93.6175 96.3477C93.4532 97.1224 93.2707 98.1398 93.222 98.6114C93.1674 99.0898 93.0821 99.7231 93.0274 100.02C92.9786 100.316 92.8935 101.313 92.8388 102.229C92.7841 103.274 92.7779 104.52 92.8332 105.524C92.888 106.521 93.0096 107.565 93.1495 108.239L93.3807 109.331C92.7785 109.998 92.5108 110.308 92.3952 110.449C92.2188 110.671 92.0728 110.718 91.2758 110.786C90.777 110.826 89.7306 110.995 88.9519 111.15C88.1733 111.305 87.3459 111.453 87.1026 111.48L86.6646 111.534C87.0417 111.17 87.2851 110.941 87.4432 110.786C87.6014 110.631 87.9968 110.24 88.3193 109.91C88.6417 109.587 89.0371 109.128 89.1953 108.893C89.3535 108.657 89.5846 108.293 89.7002 108.077C89.8158 107.862 89.9131 107.599 89.9192 107.498C89.9192 107.39 89.9009 107.309 89.8766 107.309C89.8522 107.309 89.25 107.592 88.5382 107.949C87.8265 108.3 87.1147 108.657 86.9565 108.731C86.7984 108.812 86.1839 109.142 85.5938 109.479C85.0037 109.816 84.3893 110.18 84.219 110.287C84.0547 110.402 83.6167 110.685 83.2456 110.921C82.8806 111.163 82.3331 111.547 82.0411 111.79C81.7491 112.026 81.3719 112.315 81.2137 112.43C81.0556 112.538 80.575 112.928 80.1491 113.292C79.7294 113.649 78.9811 114.37 78.4944 114.882C78.0077 115.394 77.4785 116.014 77.3203 116.257C77.1621 116.499 76.9492 116.695 76.858 116.695C76.7667 116.702 76.28 116.526 75.7873 116.311C75.2945 116.095 74.8565 115.9 74.8139 115.879C74.7713 115.852 74.8504 115.704 74.9842 115.536C75.1181 115.374 75.4527 114.929 75.7264 114.539C76.0063 114.155 76.353 113.535 76.5051 113.164C76.6572 112.794 76.8275 112.295 76.8823 112.059C76.9492 111.77 76.9492 111.608 76.8823 111.574C76.8275 111.54 76.1401 111.716 75.3493 111.951C74.5584 112.187 73.5425 112.511 73.0862 112.659C72.6299 112.814 71.7965 113.083 71.2368 113.259C70.6772 113.44 69.8011 113.811 69.2901 114.087C68.5297 114.505 68.2194 114.761 67.532 115.509C67.0757 116.014 66.5039 116.715 66.2666 117.058L65.8347 117.678H63.012C62.3975 116.796 61.8074 116.088 61.3025 115.529C60.5117 114.667 60.2501 114.458 59.4592 114.04C58.9482 113.771 58.1391 113.427 57.6585 113.279C57.1779 113.13 56.0829 112.773 55.2251 112.49C54.3674 112.201 53.3088 111.871 52.8647 111.743C52.4206 111.621 52.0374 111.52 52.013 111.52C51.9887 111.52 51.9644 111.601 51.9644 111.709C51.9644 111.81 52.0435 112.187 52.1408 112.544C52.2442 112.901 52.3841 113.312 52.4511 113.461C52.5241 113.609 52.8891 114.182 53.2723 114.734C53.6495 115.286 54.0023 115.738 54.051 115.731C54.1119 115.731 54.1119 115.765 54.051 115.832C54.0023 115.893 53.5461 116.115 53.0351 116.324C52.5241 116.533 52.0435 116.701 51.9644 116.708C51.8853 116.708 51.7089 116.594 51.569 116.459C51.4351 116.324 51.2709 116.081 51.2039 115.92C51.1431 115.751 50.9363 115.509 50.7477 115.374C50.5652 115.246 50.407 115.084 50.4131 115.024C50.4131 114.97 50.1393 114.64 49.7987 114.296C49.4641 113.959 49.0139 113.541 48.7949 113.38C48.5759 113.218 48.2048 112.915 47.9675 112.706C47.7303 112.497 47.4626 112.282 47.3714 112.221C47.2801 112.16 47.0368 111.985 46.836 111.83C46.6292 111.675 46.2216 111.379 45.9296 111.17C45.6376 110.961 45.2178 110.678 45.0049 110.537C44.792 110.402 44.1106 109.991 43.4962 109.627C42.8818 109.256 42.2247 108.886 42.0361 108.792C41.8476 108.697 41.1236 108.347 40.4301 108.017C39.7366 107.68 39.11 107.41 39.0431 107.41C38.9762 107.41 38.9214 107.424 38.9214 107.444C38.9153 107.458 38.9823 107.653 39.0674 107.875C39.1465 108.098 39.4385 108.583 39.7183 108.953C39.9982 109.324 40.4666 109.883 40.7647 110.193C41.0628 110.503 41.3913 110.793 41.5008 110.833C41.6103 110.874 41.8597 111.042 42.0605 111.21C42.3282 111.433 42.3829 111.534 42.2795 111.574C42.2004 111.601 42.0361 111.628 41.9145 111.628C41.7928 111.628 41.5191 111.561 41.3061 111.48C41.0932 111.399 40.6309 111.298 40.2841 111.264C39.9374 111.224 39.4081 111.123 39.1161 111.028C38.8241 110.941 38.1488 110.833 37.6195 110.786L36.6584 110.705C35.7702 109.701 35.5147 109.337 35.5147 109.25C35.5208 109.162 35.5633 108.893 35.6181 108.657C35.6789 108.421 35.8006 107.565 35.8918 106.764C35.9892 105.915 36.0561 104.682 36.05 103.799C36.0439 102.964 35.9831 101.677 35.9162 100.936C35.8493 100.195 35.7519 99.4402 35.7033 99.265C35.6546 99.0831 35.612 98.7934 35.612 98.6115C35.612 98.4363 35.5512 97.9781 35.4782 97.5874C35.4052 97.2034 35.2713 96.597 35.1862 96.2399C35.101 95.8828 34.9854 95.3236 34.9307 95.0002C34.8759 94.6701 34.7299 94.0772 34.6143 93.673C34.4927 93.2687 34.3527 92.9588 34.298 92.979C34.2432 92.9992 34.0729 93.4035 33.9208 93.8751C33.7687 94.34 33.6045 94.8251 33.5497 94.9463C33.501 95.0609 33.4341 95.802 33.3915 96.5903C33.355 97.3785 33.2881 98.0388 33.2395 98.0523C33.1908 98.0657 32.9961 97.7491 32.8014 97.3516C32.6068 96.9473 32.2296 96.2197 31.968 95.7279C31.7003 95.236 31.3049 94.569 31.0798 94.2389C30.8608 93.9155 30.6296 93.5382 30.5627 93.4035C30.5019 93.2687 30.4532 92.8577 30.4471 92.4872C30.4471 91.8606 30.4836 91.7528 30.9156 91.005C31.1711 90.5603 31.6334 89.5968 31.9376 88.8692C32.2478 88.1416 32.4973 87.488 32.4973 87.4139C32.4912 87.3398 32.5277 87.2388 32.5703 87.1849C32.6068 87.1309 32.7224 86.8413 32.8136 86.5381C32.9109 86.2282 33.1239 85.4264 33.2881 84.7392C33.4524 84.0587 33.647 83.2098 33.714 82.8527C33.7809 82.4956 33.933 81.6467 34.0425 80.9595C34.1581 80.279 34.2493 79.5379 34.2493 79.3156C34.2493 79.0933 34.2858 78.8238 34.3345 78.7227C34.3831 78.6149 34.4379 77.9614 34.4561 77.2607C34.4866 76.2972 34.4623 75.9941 34.371 75.9941C34.3041 75.9941 34.0425 76.2501 33.787 76.5667C33.5315 76.8834 33.2212 77.3618 33.0995 77.6245C32.9718 77.8873 32.8075 78.2241 32.7345 78.3724C32.6615 78.5206 32.4425 79.0663 32.2539 79.5851C32.0653 80.1039 31.8828 80.5283 31.8402 80.5283C31.7977 80.5353 31.7125 80.1039 31.6395 79.5851C31.5726 79.0663 31.4692 78.3993 31.4144 78.1029C31.3657 77.8064 31.2806 77.3079 31.2258 76.9912C31.1772 76.6813 31.0251 76.1019 30.8851 75.6976C30.6479 75.0104 30.6418 74.9026 30.7148 73.7505C30.7574 73.0835 30.8182 72.5378 30.8426 72.5378C30.8669 72.5378 30.9764 72.3424 31.0859 72.1066C31.1954 71.8641 31.3049 71.6754 31.3292 71.6754C31.3536 71.6824 31.5908 71.1836 31.8524 70.5705C32.1079 69.9641 32.3999 69.2904 32.4912 69.0815C32.5824 68.8794 32.8379 68.0979 33.063 67.3567C33.282 66.6156 33.5923 65.4231 33.7565 64.709C33.9147 64.0015 34.1155 63.0246 34.1946 62.553C34.2736 62.0746 34.4318 60.9225 34.5413 59.986C34.6447 59.0496 34.736 57.9985 34.736 57.6414C34.736 57.1968 34.6995 56.9879 34.6143 56.9879C34.5474 56.9809 34.3406 57.1631 34.152 57.3922C33.9634 57.6145 33.6045 58.167 33.355 58.6116C33.1056 59.0563 32.771 59.7839 32.6007 60.2286C32.4364 60.6733 32.26 61.1112 32.2053 61.2055C32.1201 61.347 32.0958 61.347 32.0167 61.2055C31.968 61.1112 31.8768 60.6261 31.8159 60.1208C31.7551 59.6155 31.6395 58.8676 31.5604 58.4499C31.4813 58.0322 31.3779 57.5 31.3292 57.2641C31.2867 57.0216 31.0981 56.4152 30.9095 55.9099C30.727 55.4046 30.5141 54.8589 30.4411 54.6972C30.3681 54.5288 30.2829 54.394 30.2525 54.4008C30.2281 54.4008 30.0879 54.6096 29.9479 54.8589Z" fill="#D5B048"/>
<path d="M29.3781 35.4599H99.4639V52.6669H29.3781V35.4599Z" fill="#D6B249"/>
<path d="M38.0956 32.6284L38.1077 35.368L29.4662 35.4163C29.4722 41.1129 29.5024 42.8207 29.5446 42.8871C29.5929 42.9776 30.2265 43.0078 32.1938 43.0078H34.7766L34.7283 44.9449L29.4722 44.9932C29.4662 51.1665 29.5024 52.4881 29.5627 52.5001C29.617 52.5064 31.3309 52.5182 33.3766 52.5303C35.4223 52.5424 37.3232 52.5605 37.6008 52.5665L38.1077 52.5847C38.1077 90.1558 38.1378 97.1498 38.2163 98.0127C38.2766 98.6886 38.4275 99.6602 38.5542 100.161C38.6809 100.668 38.9525 101.41 39.1577 101.808C39.3628 102.207 39.6465 102.708 39.7913 102.919C39.9301 103.13 40.3404 103.631 40.6965 104.023C41.0525 104.415 41.6922 105.001 42.1146 105.321C42.537 105.64 43.2793 106.087 43.756 106.316C44.281 106.57 45.0414 106.829 45.6871 106.98C46.2724 107.113 47.2922 107.27 47.956 107.324C48.6198 107.372 50.4906 107.457 52.1078 107.511C54.2078 107.577 55.3423 107.656 56.0665 107.783C56.6217 107.885 57.5811 108.127 58.1906 108.326C58.8182 108.525 59.6872 108.899 60.1881 109.183C60.6829 109.46 61.4372 109.973 61.8717 110.317C62.3062 110.661 62.9217 111.253 63.2355 111.621C63.5493 111.995 63.9416 112.55 64.1105 112.858C64.2795 113.159 64.4485 113.413 64.4907 113.413C64.5329 113.413 64.5631 113.371 64.5631 113.316C64.5631 113.262 64.8166 112.84 65.1304 112.375C65.4924 111.826 65.9993 111.247 66.5545 110.746C67.0252 110.317 67.8037 109.726 68.2804 109.43C68.7571 109.14 69.608 108.718 70.1632 108.501C70.7184 108.284 71.6115 108.018 72.1425 107.915C72.6735 107.807 73.4761 107.674 73.9287 107.614C74.3813 107.559 75.8779 107.493 77.2598 107.463C78.6417 107.439 80.1202 107.39 80.5426 107.366C80.965 107.336 81.7254 107.252 82.2323 107.179C82.7392 107.101 83.5599 106.902 84.0668 106.733C84.5737 106.564 85.1349 106.352 85.322 106.256C85.509 106.159 86.0099 105.858 86.4323 105.574C86.8547 105.296 87.5125 104.753 87.8866 104.379C88.2608 103.999 88.7918 103.365 89.0573 102.967C89.3229 102.569 89.6065 102.11 89.6849 101.953C89.7634 101.79 89.9625 101.271 90.1315 100.795C90.2944 100.312 90.4755 99.636 90.5358 99.2921C90.5962 98.9481 90.6806 98.0308 90.7168 97.2645C90.7531 96.492 90.7832 86.1247 90.7832 74.2246C90.777 52.6691 90.777 52.5907 90.9703 52.5485C91.0789 52.5243 92.9677 52.5183 95.1703 52.5303C97.373 52.5424 99.2195 52.5366 99.2738 52.5183C99.3342 52.4942 99.3644 51.1605 99.3462 48.7165L99.3221 44.9449H94.1083V43.0078C97.9644 43.0078 99.1351 42.9716 99.1954 42.9354C99.2799 42.8811 99.3161 41.8975 99.3282 39.1397L99.3463 35.4164L90.7772 35.3681C90.8013 32.031 90.7893 30.806 90.7591 30.4861L90.7108 29.9068L38.0775 29.8827L38.0956 32.6284Z" fill="#D6B249"/>
<path d="M56.4056 29.9249C56.5927 29.949 56.9186 29.949 57.1298 29.9249C57.341 29.9068 57.1901 29.8887 56.7918 29.8887C56.3935 29.8887 56.2185 29.9068 56.4056 29.9249ZM90.9051 32.6585C90.9051 33.0628 90.9233 33.2318 90.9473 33.0508C90.9655 32.8637 90.9655 32.5378 90.9473 32.3206C90.9232 32.1094 90.9051 32.2602 90.9051 32.6585ZM29.5941 37.0637C29.6002 37.4862 29.6122 37.637 29.6364 37.4017C29.6545 37.1603 29.6545 36.8103 29.6364 36.6293C29.6122 36.4422 29.5941 36.6354 29.5941 37.0637Z" fill="#FFFFFE"/>
<path d="M31.5433 37.1723C31.5011 37.2086 31.4709 38.168 31.477 39.3025L31.4951 41.3663L97.7363 41.3181C97.7726 37.6913 97.7484 37.1965 97.6579 37.1603C97.5914 37.1301 82.7042 37.112 64.5825 37.112C46.4547 37.112 31.5856 37.1361 31.5433 37.1723Z" fill="white"/>
<path d="M31.5433 46.7492C31.5011 46.7854 31.4709 47.7388 31.477 48.8733L31.4951 50.9372H97.7303C97.7725 47.6001 97.7423 46.8035 97.682 46.7552C97.6277 46.719 82.7465 46.6888 64.6066 46.6828C46.4668 46.6828 31.5856 46.713 31.5433 46.7492Z" fill="white"/>
<path d="M29.5941 48.6682C29.6002 49.0906 29.6122 49.2415 29.6364 49.0061C29.6545 48.7647 29.6545 48.4147 29.6364 48.2337C29.6122 48.0466 29.5941 48.2398 29.5941 48.6682ZM99.5044 50.0682C99.5044 50.5208 99.5164 50.6958 99.5406 50.4544C99.5587 50.2191 99.5587 49.8449 99.5406 49.6337C99.5164 49.4225 99.5044 49.6156 99.5044 50.0682ZM29.6002 51.6191C29.6002 52.0656 29.6122 52.2406 29.6364 52.0053C29.6545 51.7639 29.6545 51.3958 29.6364 51.1786C29.6122 50.9674 29.6002 51.1665 29.6002 51.6191ZM30.4812 52.5544C30.6381 52.5786 30.9459 52.5786 31.1571 52.5544C31.3683 52.5363 31.2416 52.5183 30.8674 52.5183C30.4933 52.5183 30.3243 52.5364 30.4812 52.5544ZM33.3295 52.5544C33.5709 52.5786 33.9149 52.5786 34.1019 52.5544C34.289 52.5363 34.0898 52.5183 33.6674 52.5183C33.245 52.5183 33.0881 52.5364 33.3295 52.5544ZM36.2261 52.5544C36.4675 52.5786 36.8114 52.5786 36.9985 52.5544C37.1856 52.5363 36.9864 52.5183 36.564 52.5183C36.1416 52.5183 35.9847 52.5364 36.2261 52.5544ZM94.1577 52.5544C94.3991 52.5786 94.7431 52.5786 94.9302 52.5544C95.1172 52.5363 94.9181 52.5183 94.4957 52.5183C94.0733 52.5183 93.9164 52.5364 94.1577 52.5544ZM97.0543 52.5544C97.2957 52.5786 97.6397 52.5786 97.8267 52.5544C98.0138 52.5363 97.8147 52.5183 97.3923 52.5183C96.9698 52.5183 96.8129 52.5364 97.0543 52.5544Z" fill="#FFFFFE"/>
<path d="M90.9052 55.8735C90.9052 56.2717 90.9233 56.4467 90.9474 56.2597C90.9655 56.0726 90.9655 55.7467 90.9474 55.5355C90.9232 55.3183 90.9052 55.4752 90.9052 55.8735Z" fill="#FFFFFE"/>
<path d="M90.9052 64.6236C90.9114 65.046 90.9233 65.2029 90.9474 64.9615C90.9655 64.7201 90.9655 64.3761 90.9474 64.1891C90.9232 64.002 90.9052 64.1953 90.9052 64.6236Z" fill="#FFFFFE"/>
<path d="M49.3573 54.2743C49.3573 54.3527 49.5987 54.8898 49.8944 55.4631C50.1901 56.0303 50.6366 56.7846 50.884 57.1286C51.1315 57.4726 51.4634 57.901 51.6203 58.0821C51.7832 58.2631 52.1694 58.6553 52.4772 58.951C52.791 59.2528 53.2918 59.6812 53.5875 59.9045C53.8892 60.1278 54.4625 60.4717 54.8608 60.6709C55.2591 60.864 55.8867 61.1295 56.2608 61.2562C56.635 61.383 57.4376 61.6123 58.047 61.7692C58.6565 61.9261 59.5497 62.1192 60.0264 62.1976C60.5031 62.2821 61.0704 62.3485 61.2816 62.3545C61.4928 62.3545 61.7221 62.3847 61.7885 62.4269C61.879 62.4812 61.9031 65.4683 61.885 76.409L61.8609 90.3186C60.2919 90.8798 59.6402 91.1393 59.3988 91.266C59.1574 91.3867 58.7471 91.6462 58.4815 91.8454C58.216 92.0385 57.872 92.3523 57.7212 92.5333C57.5643 92.7143 57.3591 93.0342 57.2626 93.2514C57.166 93.4626 57.0876 93.8006 57.0815 93.9997C57.0815 94.2592 57.1479 94.4281 57.3229 94.6031C57.522 94.8023 57.6246 94.8325 57.9264 94.7842C58.1255 94.754 58.5902 94.5669 58.9522 94.3738C59.3203 94.1807 59.7126 93.9695 59.8212 93.9031C59.9359 93.8368 60.2859 93.7402 60.6057 93.6859C60.9255 93.6316 61.5109 93.5893 61.9092 93.5893C62.3074 93.5831 62.9592 93.6678 63.3575 93.7704C63.7557 93.8669 64.323 94.0721 64.6126 94.2169C64.9626 94.3919 65.4575 94.8083 66.0609 95.4238C66.7609 96.1359 67.1411 96.4437 67.6782 96.7152C68.0644 96.9083 68.7161 97.1558 69.1265 97.2583C69.6273 97.3911 70.1946 97.4515 70.8403 97.4515C71.3713 97.4515 72.0231 97.3972 72.2886 97.3247C72.5541 97.2523 72.9645 97.0954 73.2058 96.9747C73.4472 96.848 73.8576 96.5885 74.1231 96.3894C74.3886 96.1963 74.7265 95.8644 74.8774 95.6592C75.0524 95.4118 75.155 95.1402 75.1671 94.8807C75.1791 94.6635 75.1188 94.3678 75.0403 94.2169C74.9619 94.0721 74.7748 93.8911 74.63 93.8186C74.4852 93.7462 74.2317 93.6859 74.0748 93.6859C73.9179 93.6859 73.3808 93.8005 72.892 93.9393C72.2463 94.1204 71.8662 94.1807 71.5162 94.1445C71.2506 94.1143 70.7739 93.9635 70.4541 93.8006C70.1343 93.6437 69.3317 93.1066 68.6679 92.6178C67.992 92.1169 67.0808 91.5376 66.592 91.3083C66.1152 91.085 65.4273 90.8074 65.0713 90.6928L64.4195 90.4936V76.3728H68.2816V80.2409H71.0817V69.1192L68.3299 69.1675L68.2816 72.7943H64.4195L64.4135 62.3002C65.2764 62.1011 66.1031 61.8235 66.8092 61.564C67.5152 61.3045 68.4264 61.0088 68.8368 60.9002C69.2471 60.7976 69.9773 60.6709 70.4541 60.6166C70.973 60.5683 71.6368 60.5623 72.0955 60.6166C72.5179 60.6649 73.1274 60.7916 73.4472 60.9002C73.767 61.0088 74.2437 61.2261 74.5093 61.3769C74.7748 61.5218 75.342 61.908 75.7645 62.2278C76.1869 62.5476 76.9472 63.0666 77.4541 63.3864C77.961 63.7002 78.6128 64.0563 78.9024 64.183C79.1921 64.3037 79.6507 64.4244 79.9162 64.4485C80.218 64.4787 80.5257 64.4423 80.7369 64.352C80.924 64.2735 81.1955 64.0744 81.3404 63.9115C81.4852 63.7425 81.6361 63.4468 81.6662 63.2477C81.7024 63.0485 81.7024 62.3847 81.6723 61.7692C81.6421 61.1597 81.5335 60.3511 81.4309 59.983C81.3344 59.6088 81.1352 59.0838 80.9964 58.8183C80.8637 58.5528 80.5619 58.1002 80.3266 57.8045C80.0973 57.5148 79.6025 57.0441 79.2343 56.7666C78.8662 56.489 78.2628 56.1329 77.8886 55.976C77.5145 55.8191 76.9533 55.62 76.6335 55.5355C76.3136 55.451 75.6619 55.3364 75.1852 55.2821C74.5515 55.2036 74.0145 55.2036 73.2058 55.2821C72.5963 55.3424 71.8541 55.451 71.5644 55.5174C71.2748 55.5898 70.273 55.8915 69.3437 56.1872C68.4144 56.4829 67.1954 56.8148 66.6402 56.9234C66.0851 57.0321 65.1678 57.1709 64.6126 57.2252C64.0575 57.2795 62.6755 57.3217 61.5471 57.3217C60.2919 57.3217 59.0548 57.2674 58.3608 57.1769C57.7393 57.0985 56.7919 56.9416 56.2608 56.8269C55.7298 56.7183 54.7944 56.4769 54.1849 56.2898C53.5755 56.1028 52.616 55.7588 52.0608 55.5114C51.5056 55.27 50.8056 54.9381 50.5159 54.7752C50.2263 54.6183 49.8642 54.401 49.7194 54.3045C49.5745 54.2079 49.4297 54.1295 49.4056 54.1295C49.3814 54.1295 49.3573 54.1958 49.3573 54.2743Z" fill="white"/>
<path d="M50.0935 65.9028C50.0694 65.9451 49.5021 67.7192 48.8262 69.8434C48.1504 71.9736 47.5348 73.9288 47.4564 74.2003C47.3779 74.4659 47.2512 74.8762 47.1667 75.1176C47.0883 75.3529 46.4667 77.3142 45.7848 79.4685C45.1029 81.6228 44.4391 83.7108 44.3124 84.1091C44.1857 84.5073 43.9986 85.1048 43.896 85.4367L43.7089 86.0401L41.7296 86.0464C41.7296 88.593 41.7598 89.3473 41.802 89.3593C41.8443 89.3775 43.4796 89.3656 45.4409 89.3352L49.0073 89.2869L48.9771 86.0947C46.4728 86.0464 46.4607 86.0404 46.509 85.8291C46.5331 85.7084 46.696 85.0084 46.8711 84.2783L47.1848 82.9507C53.4004 82.9507 54.191 82.9748 54.2211 83.0713C54.2453 83.1377 54.4082 83.8136 54.5832 84.574C54.7642 85.3343 54.891 85.974 54.8668 85.9981C54.8487 86.0222 54.2694 86.0464 53.5875 86.0464H52.3504V89.2326H59.6884V86.0464C57.6005 86.0464 57.5643 86.0343 57.522 85.8292C57.4979 85.7085 56.6712 82.6731 55.6875 79.0825C54.7039 75.492 53.7565 72.0523 53.5935 71.4428C53.4246 70.8273 53.1228 69.741 52.9237 69.0229C52.7246 68.3048 52.459 67.3453 52.3444 66.8988C52.2237 66.4462 52.0789 66.0177 52.0185 65.9514C51.9461 65.8608 51.6383 65.8246 51.0289 65.8307C50.5401 65.8307 50.1176 65.8667 50.0935 65.9028ZM77.3153 65.9511C77.2912 66.0175 77.0679 66.7055 76.8265 67.4779C76.5791 68.2503 76.2472 69.2943 76.0843 69.7951C75.9274 70.302 75.6739 71.1046 75.5231 71.5874C75.3722 72.0641 75.0041 73.2409 74.7084 74.2004C74.4067 75.1538 73.9179 76.6987 73.6222 77.628C73.3325 78.5633 72.7713 80.3254 72.3791 81.5444C71.9929 82.7694 71.5101 84.2841 71.3049 84.9117L70.9368 86.0522L68.9575 86.046L69.0058 89.3831C69.567 89.3831 71.2084 89.371 73.0127 89.359L76.2955 89.3348V86.046C74.3524 86.046 73.767 86.0098 73.7489 85.9736C73.7308 85.9314 73.8576 85.3339 74.0326 84.64C74.2076 83.952 74.3524 83.2882 74.3584 83.1675C74.3645 83.0167 74.4308 82.9443 74.5817 82.9261C74.7024 82.9141 76.2955 82.9199 78.124 82.9503L81.455 82.9986C81.9197 84.9477 82.0826 85.6296 82.1188 85.7805L82.1852 86.046H79.5783L79.6266 89.184H86.9646L87.0129 86.046L84.8525 85.9977C83.9715 82.8477 83.5068 81.1701 83.2473 80.2407C82.9878 79.3114 82.6921 78.2252 82.5835 77.8209C82.4809 77.4226 82.0646 75.9019 81.6602 74.4415C81.262 72.9751 80.8154 71.3639 80.6766 70.8631C80.5438 70.3562 80.2783 69.3967 80.0973 68.7329C79.9163 68.0691 79.705 67.3087 79.6266 67.0432C79.5542 66.7777 79.4516 66.4035 79.4094 66.2165L79.3249 65.8785C77.6111 65.8302 77.3455 65.8546 77.3153 65.9511Z" fill="white"/>
<path d="M90.9052 67.4779C90.9052 67.8762 90.9233 68.0512 90.9474 67.8641C90.9655 67.677 90.9655 67.3512 90.9474 67.1399C90.9232 66.9227 90.9052 67.0796 90.9052 67.4779Z" fill="#FFFFFE"/>
<path d="M78.1903 71.1288C78.1662 71.165 78.0576 71.5029 77.955 71.877C77.8464 72.2512 77.5386 73.2952 77.267 74.2003C76.9955 75.0995 76.6636 76.1917 76.5368 76.6141C76.4101 77.0426 76.1325 77.9659 75.9153 78.6719C75.698 79.3719 75.523 79.9754 75.523 79.9995C75.523 80.0237 76.6515 80.0478 78.0334 80.0478C79.4153 80.0478 80.5438 80.0176 80.5438 79.9754C80.5499 79.9332 80.0671 77.9116 79.4757 75.4797C78.8843 73.0477 78.3653 71.0563 78.317 71.0563C78.2748 71.0563 78.2145 71.0865 78.1903 71.1288ZM50.8719 71.3158C50.8417 71.4124 50.6788 71.9494 50.5159 72.5046C50.3469 73.0658 50.0874 73.9348 49.9305 74.4417C49.7797 74.9426 49.3452 76.3788 48.9771 77.628C48.6029 78.8831 48.2952 79.9332 48.2952 79.9754C48.2952 80.0177 49.4236 80.0478 50.8055 80.0478H53.3159C53.2375 79.6375 52.7487 77.6461 52.1754 75.365C51.6081 73.0839 51.0952 71.2012 51.0348 71.177C50.9805 71.1589 50.9021 71.2192 50.8719 71.3158Z" fill="#D6B249"/>
<path d="M90.9052 76.228C90.9114 76.6564 90.9233 76.8073 90.9474 76.5659C90.9655 76.3245 90.9655 75.9806 90.9474 75.7935C90.9232 75.6064 90.9052 75.8056 90.9052 76.228ZM90.9052 79.0823C90.9052 79.4806 90.9233 79.6556 90.9474 79.4685C90.9655 79.2815 90.9655 78.9556 90.9474 78.7444C90.9232 78.5271 90.9052 78.684 90.9052 79.0823ZM90.9052 87.8324C90.9114 88.2609 90.9233 88.4117 90.9474 88.1703C90.9655 87.935 90.9655 87.585 90.9474 87.3979C90.9232 87.2109 90.9052 87.41 90.9052 87.8324ZM90.9052 90.6867C90.9052 91.085 90.9233 91.26 90.9474 91.073C90.9655 90.8859 90.9655 90.56 90.9474 90.3488C90.9232 90.1376 90.9052 90.2885 90.9052 90.6867Z" fill="#FFFFFE"/>
<path d="M64.2496 2.08325C64.179 2.23144 63.9462 2.88772 63.7274 3.53695C63.5016 4.19323 63.1911 5.13179 63.0358 5.63282C62.8735 6.1268 62.69 6.71251 62.6336 6.93128C62.5701 7.15004 62.316 7.91217 62.062 8.63197C61.815 9.34471 61.5468 9.96571 61.4622 10.0151C61.3845 10.0645 59.458 10.0927 57.1787 10.0716C54.9064 10.0574 53.0081 10.0716 52.9728 10.0998C52.9305 10.128 53.3468 10.4879 53.8902 10.8972C54.4406 11.3136 55.1393 11.8216 55.4427 12.0333C55.7532 12.2451 56.0849 12.4779 56.1766 12.5556C56.2754 12.6332 56.7059 12.9507 57.1434 13.2753C57.5809 13.5929 58.1878 14.0234 58.4983 14.228C58.8088 14.4397 59.2534 14.7784 59.4863 14.9831L59.9167 15.3571C59.585 16.3239 59.2181 17.4389 58.8935 18.4692C58.5618 19.4924 58.2513 20.438 58.2019 20.558C58.1455 20.685 57.9267 21.3836 57.7079 22.1175C57.4892 22.8444 57.3128 23.4936 57.3128 23.5571C57.3128 23.6206 57.4751 23.55 57.6797 23.3948C57.8844 23.2466 58.3572 22.9008 58.7453 22.6327C59.1264 22.3645 59.8391 21.8564 60.326 21.5106C60.8129 21.1649 61.2857 20.805 61.3775 20.7132C61.4692 20.6215 61.8785 20.3251 62.2808 20.0499C62.683 19.7817 63.2828 19.3371 63.6074 19.069C63.932 18.8008 64.2778 18.5821 64.3696 18.5821C64.4613 18.5821 64.7577 18.7655 65.0188 18.9914C65.2799 19.2172 65.5975 19.4501 65.7245 19.5136C65.8515 19.5771 65.9785 19.6618 66.0068 19.7041C66.035 19.7394 66.3455 19.9793 66.6842 20.2334C67.0229 20.4874 67.6863 20.9602 68.152 21.2778C68.6178 21.5953 69.0976 21.9482 69.2247 22.0611C69.3517 22.181 69.6763 22.4139 69.9586 22.5903C70.2408 22.7668 70.6854 23.0773 70.9465 23.289C71.3346 23.5995 71.4264 23.6348 71.4264 23.4724C71.4264 23.3666 71.1723 22.4845 70.8618 21.5248C70.5513 20.558 70.0432 18.9773 69.7327 18.0175C69.4222 17.0507 69.0906 16.0487 68.9988 15.7805L68.8295 15.3007C69.7469 14.6303 71.0594 13.6776 72.3297 12.7602C73.5999 11.8358 74.9195 10.876 75.2582 10.622L75.8722 10.1562C75.0959 10.1139 73.1412 10.0857 71.0383 10.0716L67.1994 10.0433C66.9876 9.60581 66.7124 8.81544 66.4584 8.00391C66.2043 7.19943 65.661 5.51991 65.2517 4.27791C64.8424 3.02885 64.4754 1.97033 64.4401 1.90682C64.3978 1.85037 64.3131 1.928 64.2496 2.08325Z" fill="#D5B048"/>
<path d="M45.4784 10.0994C45.4191 10.2238 45.2236 10.7749 45.0399 11.3201C44.8502 11.8713 44.5895 12.6594 44.4591 13.0801C44.3228 13.495 44.1688 13.9868 44.1214 14.1705C44.068 14.3542 43.8547 14.9942 43.6414 15.5987C43.4339 16.1972 43.2088 16.7187 43.1376 16.7602C43.0725 16.8016 41.4547 16.8254 39.5406 16.8076C37.6324 16.7957 36.0383 16.8076 36.0087 16.8313C35.9732 16.855 36.3228 17.1572 36.7791 17.5009C37.2413 17.8505 37.828 18.2772 38.0828 18.455C38.3435 18.6328 38.6221 18.8283 38.6991 18.8935C38.7821 18.9587 39.1435 19.2254 39.511 19.498C39.8784 19.7646 40.388 20.1261 40.6487 20.298C40.9095 20.4757 41.2828 20.7602 41.4784 20.932L41.8399 21.2461C41.5613 22.058 41.2532 22.9943 40.9806 23.8595C40.7021 24.7187 40.4413 25.5128 40.3999 25.6135C40.3524 25.7202 40.1687 26.3069 39.985 26.9232C39.8013 27.5336 39.6532 28.0787 39.6532 28.1321C39.6532 28.1854 39.7895 28.1261 39.9613 27.9958C40.1332 27.8713 40.5302 27.581 40.8561 27.3558C41.1762 27.1306 41.7747 26.7039 42.1836 26.4136C42.5925 26.1232 42.9895 25.821 43.0665 25.7439C43.1436 25.6669 43.4873 25.418 43.8251 25.1869C44.1628 24.9617 44.6665 24.5884 44.9391 24.3632C45.2117 24.138 45.5021 23.9543 45.5791 23.9543C45.6562 23.9543 45.9051 24.1084 46.1243 24.298C46.3436 24.4876 46.6103 24.6832 46.7169 24.7365C46.8236 24.7899 46.9303 24.861 46.954 24.8965C46.9777 24.9261 47.2384 25.1276 47.5229 25.341C47.8073 25.5543 48.3643 25.9513 48.7555 26.218C49.1466 26.4847 49.5495 26.781 49.6562 26.8758C49.7629 26.9765 50.0355 27.1721 50.2725 27.3202C50.5095 27.4684 50.8829 27.7291 51.1021 27.9069C51.4281 28.1676 51.5051 28.1973 51.5051 28.061C51.5051 27.9721 51.2918 27.2313 51.031 26.4254C50.7703 25.6136 50.3436 24.2861 50.0829 23.4802C49.8221 22.6684 49.5436 21.8269 49.4666 21.6017L49.3243 21.1987C50.0947 20.6357 51.1969 19.8357 52.2636 19.0654C53.3303 18.2891 54.4384 17.4831 54.7229 17.2698L55.2385 16.8787C54.5866 16.8431 52.9451 16.8194 51.1792 16.8076L47.9555 16.7839C47.7777 16.4165 47.5466 15.7527 47.3332 15.0713C47.1199 14.3957 46.6636 12.9853 46.3199 11.9424C45.9762 10.8935 45.668 10.0046 45.6384 9.95123C45.6028 9.90383 45.5317 9.96904 45.4784 10.0994Z" fill="#D5B048"/>
<path d="M83.0757 10.0996C83.0164 10.2241 82.8209 10.7752 82.6372 11.3204C82.4475 11.8715 82.1868 12.6596 82.0564 13.0804C81.9201 13.4952 81.7661 13.9871 81.7186 14.1708C81.6653 14.3545 81.452 14.9945 81.2386 15.5989C81.0312 16.1974 80.806 16.7189 80.7349 16.7604C80.6697 16.8019 79.052 16.8256 77.1379 16.8078C75.2297 16.796 73.6356 16.8078 73.606 16.8315C73.5705 16.8552 73.9201 17.1574 74.3764 17.5012C74.8386 17.8508 75.4253 18.2775 75.6801 18.4552C75.9408 18.633 76.2194 18.8286 76.2964 18.8938C76.3794 18.9589 76.7408 19.2256 77.1082 19.4982C77.4757 19.7649 77.9853 20.1264 78.246 20.2982C78.5068 20.476 78.8801 20.7604 79.0757 20.9323L79.4372 21.2464C79.1586 22.0582 78.8505 22.9945 78.5779 23.8597C78.2994 24.719 78.0386 25.513 77.9971 25.6138C77.9497 25.7205 77.766 26.3071 77.5823 26.9234C77.3986 27.5338 77.2505 28.079 77.2505 28.1323C77.2505 28.1857 77.3868 28.1263 77.5586 27.996C77.7305 27.8716 78.1275 27.5812 78.4534 27.356C78.7734 27.1308 79.372 26.7042 79.7809 26.4138C80.1897 26.1234 80.5868 25.8212 80.6638 25.7442C80.7409 25.6671 81.0846 25.4182 81.4223 25.1871C81.7601 24.9619 82.2638 24.5886 82.5364 24.3634C82.809 24.1382 83.0994 23.9545 83.1764 23.9545C83.2535 23.9545 83.5024 24.1086 83.7216 24.2982C83.9409 24.4879 84.2076 24.6834 84.3142 24.7367C84.4209 24.7901 84.5276 24.8612 84.5513 24.8968C84.575 24.9264 84.8357 25.1279 85.1201 25.3412C85.4046 25.5545 85.9616 25.9516 86.3527 26.2182C86.7439 26.4849 87.1468 26.7812 87.2535 26.876C87.3602 26.9768 87.6328 27.1723 87.8698 27.3205C88.1068 27.4686 88.4802 27.7294 88.6994 27.9071C89.0254 28.1679 89.1024 28.1975 89.1024 28.0612C89.1024 27.9723 88.8891 27.2316 88.6283 26.4256C88.3676 25.6138 87.9409 24.2864 87.6802 23.4804C87.4194 22.6686 87.1409 21.8271 87.0639 21.6019L86.9216 21.199C87.692 20.636 88.7942 19.836 89.8609 19.0656C90.9276 18.2893 92.0357 17.4834 92.3202 17.27L92.8357 16.8789C92.1839 16.8434 90.5424 16.8197 88.7765 16.8078L85.5527 16.7841C85.375 16.4167 85.1439 15.753 84.9305 15.0715C84.7172 14.3959 84.2609 12.9856 83.9172 11.9426C83.5735 10.8937 83.2653 10.0048 83.2357 9.95148C83.2001 9.90407 83.129 9.96928 83.0757 10.0996Z" fill="#D5B048"/>
</svg>
