<svg width="128" height="128" viewBox="0 0 128 128" fill="none" xmlns="http://www.w3.org/2000/svg">
<g clip-path="url(#clip0_203_71)">
<g clip-path="url(#clip1_203_71)">
<path d="M33.5758 105.254L33.5671 105.285L33.5758 105.258V105.254Z" fill="black"/>
<path d="M114.493 112.2H114.497L114.519 112.187L114.493 112.2Z" fill="black"/>
<path d="M109.542 102.457L109.534 102.448L109.538 102.457H109.542Z" fill="black"/>
<path d="M121.148 89.5606L121.162 89.5518L121.144 89.5606H121.148Z" fill="black"/>
<path d="M50.9026 126.669V126.7L50.907 126.669H50.9026Z" fill="black"/>
<path d="M13.235 113.428L13.2087 113.419L13.2306 113.428H13.235Z" fill="black"/>
<path d="M17.2817 100.88L17.251 100.867L17.2773 100.88H17.2817Z" fill="black"/>
<path d="M125.77 92.4554C124.55 90.2219 124.768 86.6973 121.669 86.0362C118.437 85.9424 114.965 87.2021 112.076 88.9621C110.949 90.0923 112.49 91.0661 112.548 92.1695C112.895 93.7419 113.674 95.1223 113.83 96.7572C113.109 97.0074 112.387 97.3558 111.639 97.5389C111.012 97.7623 110.478 97.4451 110.068 97.0744C108.22 96.2256 106.373 97.1994 104.837 97.9812C104.174 99.0533 102.923 98.1375 101.979 98.5217C99.2855 98.6781 95.9377 98.6155 93.6762 100.693C92.1447 102.198 93.7741 103.963 93.6183 105.656C89.3846 106.786 85.2176 108.081 80.7702 108.675C79.5459 108.899 78.2594 109.055 77.0084 109.243C73.0907 109.841 69.0796 110.284 65.3178 110.382L65.1931 110.252C65.2243 110.1 65.3846 109.975 65.3178 109.783C68.0112 106.415 71.8398 103.838 75.566 101.984C76.0957 101.702 76.6033 101.26 77.1998 101.068C77.6628 100.438 78.384 100.501 78.8915 99.9065C82.088 97.9276 85.596 95.6002 87.2254 92.0489C87.724 91.294 87.8531 90.4139 88.1692 89.5652C88.4185 88.8102 88.4185 88.1536 88.6678 87.3942C89.4558 89.3061 89.5804 91.7005 91.6149 92.8306C94.1525 94.7515 97.438 95.2518 100.545 94.1529C104.557 92.5805 106.742 88.2429 107.125 84.1198C107.317 83.5882 107.94 83.4944 108.096 82.9584C107.535 82.4581 107.25 81.6674 107.535 80.9794C107.753 80.2558 108.786 80.3809 108.884 79.6304C108.692 79.4383 108.443 79.3758 108.22 79.2149C107.472 78.6834 107.058 77.8346 107.25 76.9189C107.317 76.1952 108.252 75.9138 108.376 75.2214C107.811 75.0293 107.156 74.9399 106.809 74.4307C106.809 74.1805 107.125 74.0555 107.312 73.9884C109.218 73.6445 112.383 72.9834 113.767 75.1544C115.806 77.6738 113.264 80.5015 113.451 83.2085C113.669 83.7982 113.483 84.7139 114.106 85.0311C114.106 82.8288 116.301 82.2302 117.494 80.6578L117.81 81.1313C118.558 80.0012 117.654 78.3037 118.589 77.2003C118.869 77.0082 119.154 77.3924 119.435 77.2003V76.8519C118.656 76.1371 118.687 75.0963 118.531 74.118C118.624 73.6534 119.185 73.9661 119.377 73.5864C118.816 73.2112 118.375 72.5813 118.095 71.9559C117.903 70.7945 116.777 70.0708 115.931 69.4722L116.528 68.7486C116.746 68.1187 117.182 67.5514 117.431 66.9215C116.746 66.7384 115.9 66.5463 115.268 66.0728C116.367 64.3753 116.238 62.0479 116.305 60.3192L115.989 60.5112C115.833 59.3498 115.806 58.0588 115.268 57.1118C115.018 57.1788 115.21 57.5853 114.894 57.4915C114.297 56.2273 113.825 54.847 112.73 53.8419C112.2 53.7168 112.663 54.3154 112.356 54.4092C111.381 53.7213 110.914 52.7117 110.785 51.6083C110.504 51.6083 110.442 51.8898 110.38 52.0818C109.939 55.383 111.479 58.6842 110.571 61.8916C110.13 62.7716 110.13 63.8437 109.414 64.6254C108.692 66.6356 106.845 67.9579 105.122 69.0881C104.997 69.0612 104.841 69.1193 104.775 69.03C104.557 68.083 105.402 67.328 105.371 66.4525C104.681 66.3274 104.053 65.7556 103.679 65.224C103.524 64.3753 103.804 63.5846 104.592 63.053C104.841 62.4544 103.996 62.7358 103.742 62.4544C103.021 61.8871 102.558 60.949 102.558 59.9082C102.491 59.1532 103.337 58.6797 103.337 58.0231C102.526 58.0231 101.894 57.2324 101.52 56.5757C101.115 55.4098 101.08 53.8061 101.712 52.6447C102.46 49.3792 107.005 49.4105 107.063 45.8547C107.254 45.1623 108.323 45.886 108.759 45.1981C109.04 44.8809 108.536 44.9747 108.443 44.8809C107.499 44.3761 107.691 43.2459 107.597 42.4597C108.038 42.3034 108.287 42.768 108.692 42.5178C108.884 42.3615 109.32 42.2989 109.164 41.9862C108.568 42.0443 108.412 41.3876 108.038 41.0705C108.287 40.8784 108.536 41.1687 108.817 41.0705C109.008 41.0124 109.347 40.9454 109.222 40.597C108.657 40.2217 108.318 39.5651 108.318 38.9665H108.759C109.605 38.685 108.568 38.2115 108.63 37.738C108.697 37.6129 108.821 37.5817 108.946 37.6129C109.071 37.5191 109.169 37.3628 109.102 37.269C107.882 36.9518 108.35 35.4732 107.196 35.0667C108.069 34.3743 106.693 34.1509 106.751 33.4943C106.627 33.1458 106.288 33.1146 106.03 33.0208C106.003 32.8287 106.061 32.6723 106.222 32.5473C106.6 31.9487 105.879 31.8906 105.5 31.7655C105.5 31.3858 105.598 30.5013 104.779 30.7872C105.184 29.7241 103.875 30.0993 103.403 30.0055C103.439 29.5632 103.653 29.1567 103.497 28.7145C102.998 28.5894 102.718 28.9334 102.304 28.8976L102.246 28.0489C101.805 27.9238 101.583 28.2723 101.209 28.241C100.114 29.3399 100.265 27.294 99.3612 27.0795C99.1386 26.9545 98.7646 26.7311 98.5153 27.0125C98.64 27.5843 99.1386 28.1159 98.8581 28.7726C98.6756 29.0272 98.3595 29.465 98.0123 29.2773C97.6072 28.7368 97.1664 28.2052 96.6367 27.7049C96.3874 27.4235 96.3562 26.8562 95.8487 26.7892C95.5326 27.5441 95.6305 28.4509 95.5326 29.2729C95.0651 29.1746 94.5932 28.6743 94.157 28.9557C93.8097 30.0859 94.3128 31.158 95.1275 31.9755C94.5309 32.5071 94.0902 33.1056 93.5604 33.673C92.7724 35.2186 91.1475 36.1254 89.99 37.4789C88.7079 38.484 88.6099 40.1234 88.423 41.535C88.8949 42.3257 89.7051 42.0666 90.4263 42.4508C90.5198 42.701 90.2037 42.7948 90.1102 42.9511C89.763 43.0762 89.7051 42.5446 89.389 42.6339C88.9839 42.701 88.9171 43.1387 88.7925 43.4246C88.9483 43.706 88.8904 44.0813 89.2644 44.2734C89.9856 44.6799 90.7958 44.2734 91.428 43.7418C91.9577 43.8669 92.6211 43.5184 93.1865 43.7999V43.6748C94.3128 43.3308 94.7847 41.946 95.911 41.4457C96.3517 41.5976 96.7569 41.1643 97.0373 41.6646C96.1247 42.9556 94.4374 43.3353 93.3111 44.3404C91.2722 45.5286 89.3935 47.5433 88.423 49.6517C88.0445 50.1833 88.1425 51.0008 87.5771 51.4118C86.4775 49.6517 86.0679 47.5701 84.7546 45.9664C83.9755 45.3097 82.7824 45.2785 81.8387 45.6492C79.9644 47.0028 77.645 47.2261 75.8242 48.6422L75.6995 48.5171C75.6684 47.9498 75.4191 47.4763 75.0451 47.0028C74.4486 46.7213 73.852 46.5292 73.1664 46.5024C72.1291 46.4042 71.1275 47.2261 70.157 46.5605C69.9344 46.1183 69.8097 45.6805 69.7786 45.1802C69.596 44.7379 69.9032 43.7016 69.2488 43.5408C68.7457 42.7278 68.8437 41.6557 68.7769 40.6461C68.719 40.4272 68.4385 40.6461 68.3362 40.454C67.8954 38.9173 68.1536 37.059 68.0201 35.6161C68.2115 34.9506 67.5571 34.1375 68.3362 33.731C68.4608 33.539 68.5587 33.1637 68.2783 33.0654C68.1803 32.9716 68.1803 32.7572 68.3362 32.6902C69.6227 32.5651 69.3734 30.6443 70.7491 30.8364C70.9405 30.68 70.9049 30.3941 71.0028 30.2065C70.936 29.4828 71.221 28.7949 70.936 28.0355L68.9327 28.1025L68.7769 27.9774C68.5276 26.9366 68.6522 25.6813 69.4402 24.9577C70.0946 24.7656 70.6244 24.3591 71.2877 24.703C71.7507 24.9845 72.0089 25.4937 72.0668 25.9896C71.911 26.3067 71.6038 26.4944 71.2877 26.405C70.66 26.1504 70.7847 25.2659 70.2193 25.2659C70.0635 26.2129 70.3751 27.151 71.1987 27.6915C71.6038 27.9104 72.2582 27.9104 72.6322 27.6915C73.2287 27.3118 73.576 26.7758 73.7006 26.0566C73.2288 24.8907 74.7691 25.6813 75.1742 25.1408C76.3005 24.6986 75.9533 23.6041 76.0201 22.6571C76.0201 22.0675 76.8971 21.652 76.8971 21.1517C76.5187 20.9954 76.1091 20.9284 75.704 20.9596C74.7691 20.9596 74.7914 22.0317 74.2616 22.532L74.2037 21.4331C73.9811 21.0266 73.576 20.5844 73.1664 20.361C72.8503 20.3923 72.5031 20.0796 72.2538 20.361C72.1959 20.7675 72.6277 20.7407 72.7524 21.0266C72.6277 22.1255 71.3768 21.9066 70.6244 22.2238C69.6227 22.3757 69.5292 23.6041 68.5854 23.7962C67.152 24.6762 67.1163 26.5301 67.2989 28.0355C66.5198 28.2276 67.1742 29.0406 66.7112 29.4828C66.1147 29.3265 65.9856 28.6028 65.7986 28.1025C65.4513 27.0974 65.6072 25.8064 65.6739 24.703C65.8921 23.1664 67.5793 22.2506 68.4608 21.0266C67.931 19.9545 69.3734 19.7044 69.4358 18.7931C69.1553 18.5742 68.8392 19.0164 68.5854 18.668C68.5854 18.5429 68.5855 18.3866 68.6522 18.2928C70.4107 17.9756 69.1553 16.3719 69.9032 15.3356C69.8453 14.8352 69.5604 14.6789 69.2488 14.2947C68.9015 14.4198 68.5854 14.1384 68.5276 13.7631C68.1536 13.1646 67.4324 12.9457 66.7691 13.0395C66.4886 12.9144 66.1725 12.6642 65.8565 12.8474C65.202 13.6693 64.2004 13.9508 63.635 14.9603L63.3857 14.737C63.0073 15.2418 62.5354 15.8091 62.5354 16.5327C62.8515 17.3458 61.7563 17.3145 61.409 17.8193C60.8437 18.4179 60.9683 19.3336 60.3139 19.7982C59.5615 18.5742 58.3106 17.9443 57.714 16.6534C57.7452 14.9916 55.5504 14.0758 56.463 12.1907C60.6656 9.61322 65.4558 11.8423 70.0279 12.0657C76.6478 13.0037 85.0084 13.1065 89.3311 7.09378C89.3623 6.68727 89.8698 6.2763 89.6472 5.92787C87.5504 7.21886 84.8259 7.21886 82.3462 7.40648C80.6545 7.33947 78.709 7.37521 77.3334 6.9017C73.8876 6.45945 70.7491 5.2042 67.7396 3.75686C65.0774 2.53288 62.0056 2.05937 58.9383 2.55968C58.6222 2.59095 58.2438 2.81431 58.0256 2.62669C58.1814 1.99683 57.8342 1.37144 57.487 0.804118C57.0551 0.549494 56.6144 0.0134431 56.1425 0.0134431C55.2076 -0.142905 54.295 0.236798 53.6673 0.929196C53.1019 1.6216 53.0395 2.81431 53.4491 3.56478C53.7919 4.16337 54.3528 4.57881 54.8247 4.91831C54.9806 8.78234 54.8247 12.0925 54.9494 15.6081C54.8247 16.1754 54.384 16.8633 54.8247 17.4351C54.9182 19.8563 54.9182 22.9653 54.8247 25.5429L54.6333 25.7975C54.4775 26.0476 54.6066 26.3291 54.758 26.5212L54.8247 46.489C54.4196 46.8955 53.9121 47.1144 53.6628 47.6505C53.5693 48.1195 53.6628 48.6824 53.9121 49.0978C55.172 50.7953 56.9839 50.2548 58.8003 50.0716L58.9294 50.1967C58.6133 50.9204 58.6756 51.9925 59.1475 52.6179C59.3389 53.2478 58.7068 53.7213 58.2705 54.0652C55.9511 55.3205 53.1642 55.7047 50.6578 55.1061C49.3089 54.914 50.7157 53.8151 50.4664 53.0289C50.2171 51.93 49.6205 50.7015 48.3695 50.4826C47.2699 50.2012 45.9833 50.5496 45.2977 51.4564C45.2666 50.5496 45.3957 49.4105 46.3662 48.9727C47.2699 49.1291 48.1469 49.3882 48.9038 50.0136C49.4691 50.706 49.8743 51.242 50.7824 51.2688C51.2232 52.0595 51.0629 52.9976 50.9071 53.8776L51.1297 54.0697C52.2248 54.2931 53.4491 54.1948 54.5754 54.3869C55.2299 53.346 56.3562 54.637 56.9883 53.413C57.2109 53.1897 57.7763 53.5068 57.7763 53.0333C56.7079 51.3358 54.7624 50.5541 53.32 49.3569C51.6639 47.1234 48.6856 47.1234 46.5532 45.5822C42.6088 44.6084 42.8003 49.4463 41.0729 51.4609L40.8192 51.117C39.724 47.3423 36.0557 44.4476 32.7346 42.8126C32.3295 42.5312 31.7329 42.2453 31.6083 41.7137C33.3979 40.798 34.0835 43.7239 35.8732 43.7865C37.1909 43.3174 37.7518 44.7915 39.1942 44.4521C39.4747 44.3538 39.6572 44.1706 39.7596 43.8535C39.9154 43.4738 39.8175 42.9377 39.4435 42.7501C39.0384 42.4419 38.8782 43.0985 38.4686 42.9422C38.3439 42.8171 38.1258 42.6607 38.2193 42.4999C38.9138 42.2185 39.9422 42.3436 40.2894 41.4368C40.4452 39.0424 38.5665 37.2824 36.8437 35.835C35.2766 34.8925 34.9294 33.0386 33.4558 31.9665C33.9589 31.493 34.3328 30.9927 34.5554 30.3941C34.4619 29.7955 34.7735 29.2639 34.3016 28.8217C33.8698 28.9468 33.5226 29.1389 33.1174 29.322C32.8681 28.9155 33.0507 28.2812 32.9928 27.7853C32.8949 27.4369 32.9616 26.6552 32.4541 26.8472C32.1469 27.9774 31.0473 28.3839 30.5131 29.4248H30.3217C29.1019 28.9513 29.9477 27.6603 29.9744 26.9411C28.9461 26.8741 28.5053 27.9462 28.0334 28.6386C27.5304 28.3214 26.9961 28.1382 26.404 28.04C25.9366 28.2633 26.4708 28.6386 26.2215 28.9557C25.8431 28.9244 25.527 28.7056 25.1531 28.7056C24.6545 29.0808 25.3089 29.6794 25.0284 30.211C24.7123 30.0546 24.2093 30.0546 23.8665 30.1172C23.8665 30.6487 23.6483 31.091 23.0785 30.9972C22.8604 31.2786 23.1764 31.5958 23.0785 31.8459C22.798 31.9397 22.4241 31.8459 22.2326 32.1631C22.2638 32.5071 22.3885 32.7885 22.4819 33.0699C21.4803 33.0118 22.0501 34.2671 21.1063 34.3922C20.8882 34.6736 21.231 34.8657 21.3289 35.1158C20.1358 35.5223 20.6344 37.0009 19.4146 37.3181C19.2588 37.7604 19.7307 37.6665 19.8865 37.8497C19.8553 38.2651 19.3834 38.417 19.4146 38.828C19.4725 39.3596 20.069 38.8861 20.2605 39.2345C19.9444 39.708 19.8865 40.4004 19.29 40.6461C19.2232 41.5261 20.1358 40.9275 20.4742 41.1777C20.1981 41.6512 19.8197 42.0577 19.29 42.156C19.606 42.8126 20.3851 42.5982 20.9817 42.6205C21.1375 43.1611 20.7012 43.4112 20.857 43.9428C20.6077 44.4476 20.4163 45.14 19.6995 45.1087C19.9488 45.8324 20.8259 45.551 21.4536 45.7073C21.4224 46.9045 21.8943 48.1285 23.0206 48.9147C25.1842 49.9198 27.1876 52.0595 27.4369 54.4762C27.2454 55.6421 27.4057 56.9286 26.3417 57.7506C25.9945 58.0007 25.6205 58.1571 25.2154 58.2509C25.3712 58.7825 25.9054 59.0996 25.9945 59.6402C26.1859 60.7033 25.8386 61.7754 25.024 62.5348C24.7079 62.718 24.2716 62.6912 23.9867 62.9771C24.5521 63.6025 25.0551 64.3574 25.024 65.2732C24.7747 65.6797 24.4274 66.1532 24.0535 66.314C21.8587 66.783 24.7747 68.1946 23.7374 69.3248C21.6984 68.351 19.7262 66.4391 18.8492 64.3619C17.5315 61.8156 17.5893 59.1086 17.9054 56.2496C18.3462 55.2445 18.1592 54.1724 18.2527 53.1673C18.3105 52.7028 18.1592 52.0684 17.7808 51.787C17.5315 52.8591 17.0952 53.958 16.1514 54.6147C16.0267 54.5566 16.1247 54.4315 16.0935 54.3333C16.0624 54.2394 16.0935 53.958 15.9021 54.025C14.5576 54.8738 14.246 56.4775 13.556 57.764C13.4269 57.6076 13.4001 57.3485 13.1419 57.2905C12.9238 57.8891 12.8615 58.5457 12.7012 59.1756C12.5187 59.6491 12.7991 60.3728 12.4519 60.681C12.3584 60.5872 12.2338 60.5559 12.1091 60.5559V60.748C12.2026 62.7582 12.3584 64.7148 13.2354 66.3765C12.8882 66.658 12.4474 66.6267 12.1091 66.9081C11.8286 67.1895 11.0718 66.8813 11.1341 67.4486C11.8286 68.1723 11.8553 69.1461 12.6433 69.8698C10.5376 70.4684 10.8848 72.7645 9.19758 73.8589C9.22875 74.3324 9.82084 73.984 10.0434 74.3637C9.94995 75.4626 9.76297 76.4677 9.09964 77.3164C9.13081 77.8838 9.6027 77.3834 9.88762 77.5085C10.2616 77.8257 10.2349 78.2992 10.4174 78.7057C10.6979 79.6215 10.1102 80.6533 10.6667 81.4396C11.0139 81.6897 10.8581 81.1581 11.0807 81.0331C12.0512 82.257 13.8053 82.9807 14.4018 84.5174C14.5576 84.772 14.335 85.2142 14.5843 85.3706C14.9316 85.1472 15.0562 84.772 14.9984 84.4548C16 81.9041 13.4001 79.4249 14.2104 76.7178C14.6155 75.4626 15.7774 74.2073 17.1842 73.984C18.8492 73.8902 20.4474 73.8008 21.8231 74.5513C21.5738 75.1499 20.9104 75.342 20.3228 75.4045C20.1314 75.6859 20.4163 75.9048 20.6033 76.0612C21.2265 76.4096 21.4758 77.1333 21.4491 77.8212C21.2933 78.728 20.5365 79.5187 19.753 79.9252C19.7841 80.4925 20.3807 80.4657 20.7279 80.7159C21.1019 81.1581 21.3512 81.5959 21.2577 82.2213C21.1642 82.5697 20.8837 82.8512 20.6033 83.137C20.63 83.6418 21.133 83.9277 21.4491 84.236C21.8542 87.4121 22.9227 90.338 25.3044 92.6966C28.0646 95.3054 32.4452 95.5243 35.8019 93.9831C38.7179 93.0451 39.3456 90.0521 40.1603 87.5997C40.3784 87.9481 40.285 88.5467 40.4764 88.9532C41.2555 94.9212 47.5281 98.6959 52.167 101.407C56.3918 103.511 60.5632 106.058 63.7596 110.02V110.239C59.842 110.556 55.9555 109.77 52.0379 109.363C47.2165 108.765 42.7335 107.849 38.1258 106.629C36.9995 106.156 35.7396 106 34.6133 105.526C34.8047 103.829 35.9978 101.568 34.2393 100.215C31.448 98.1107 27.5971 98.5172 24.2404 98.3922C22.5487 97.195 20.4207 96.315 18.315 96.8778C17.8164 97.0029 17.5359 97.6953 16.8815 97.4764C16.0045 97.1592 15.0607 97.0699 14.2816 96.5607C14.9049 94.3896 15.5682 92.1874 16.5031 90.1504C16.7524 89.3954 16.187 88.7969 15.7151 88.3546H15.4346C13.271 87.0323 10.7691 86.4695 8.32502 85.8084C6.88261 85.5537 5.09296 85.9022 4.21595 87.3808C3.46803 89.0783 2.84032 90.807 2.27493 92.5671C1.52257 95.426 -0.293792 98.0393 0.0490012 101.18C1.52257 105.044 5.60048 107.438 9.04622 109.229C9.70064 109.609 10.364 109.895 11.0852 110.083C11.6817 110.65 12.492 110.614 13.0885 111.088C12.492 112.749 11.8954 114.987 13.369 116.435C15.2165 117.913 17.4113 118.57 19.4191 119.642C24.6545 122.086 30.3885 123.283 35.931 124.953C37.0574 125.204 38.3439 125.521 39.3768 125.677C46.9316 127.357 54.8782 127.982 62.6333 127.982C63.862 127.982 65.0818 127.964 66.2972 127.937C75.5126 127.87 84.3807 126.839 92.906 124.828C96.2271 123.631 99.7663 123.001 103.087 121.804C103.742 121.523 104.463 121.335 105.126 121.022C108.416 119.892 111.648 118.414 114.555 116.493C116.122 115.112 115.468 112.852 114.903 111.213L115.152 110.931C116.314 110.681 117.28 109.926 118.415 109.578C122.012 107.599 126.5 105.204 128 101.055C128.031 97.9454 126.5 95.3009 125.774 92.442L125.77 92.4554ZM124.928 92.4554H124.955H124.924H124.928ZM111.292 98.3966C115.334 97.0744 119.537 95.3456 121.856 91.1912C122.137 90.4988 122.199 89.6545 121.856 88.9621C121.411 88.3635 120.85 88.2385 120.24 88.2385C119.862 88.2385 119.461 88.2876 119.065 88.2965C117.436 88.7701 115.811 89.1766 114.426 90.2174L114.244 90.6596C114.867 92.3303 115.339 94.0278 115.869 95.7208C115.553 95.9442 115.116 96.0961 114.774 96.2882C114.088 95.2831 113.963 93.9027 113.393 92.7726C113.336 91.5754 111.644 90.0387 113.211 89.1542C115.557 87.9258 118.13 86.9832 120.824 86.7286C121.669 86.7599 122.604 87.1083 123.174 87.9258C124.327 90.5346 122.702 93.0227 120.882 94.7827C118.535 96.8555 115.686 98.0527 112.797 98.9908L111.421 99.1828C111.546 98.8657 111.172 98.7093 111.297 98.4011L111.292 98.3966ZM117.89 94.6175L116.728 95.3411L116.697 95.359L116.683 95.3277C116.056 93.9072 115.521 92.3035 115.116 90.7311V90.7132L115.121 90.6998C116.385 89.6233 117.992 89.3374 119.582 88.9309H119.599C119.875 89.0693 120.169 89.047 120.436 89.0738C120.712 89.1006 120.975 89.1855 121.149 89.5473V89.5563C121.402 91.6603 119.386 93.5141 117.881 94.6175H117.89ZM113.202 99.6876L113.184 99.6608L113.202 99.6831V99.6921V99.6876ZM111.635 100.157L111.604 100.166L111.631 100.152L111.635 100.157ZM88.6099 84.4906C88.6099 84.4906 88.5521 83.1817 88.3695 82.5117C88.187 81.8416 88.1291 80.774 89.0685 80.2647L89.1264 79.8984C89.1264 79.8984 88.2137 79.6885 88.2137 79.1345C88.2137 78.5806 88.975 78.4957 88.975 78.0714C88.975 77.647 88.4319 77.5264 88.276 77.4951C88.1247 77.4683 87.3055 77.437 86.9449 76.0924C86.5799 74.7568 85.458 70.5577 85.458 70.5577C85.458 70.5577 86.0011 70.0976 86.0368 69.2489C86.0635 68.3957 86.1881 67.4531 86.9716 67.0868C87.7641 66.7205 87.7908 66.8098 87.7908 66.8098C87.7908 66.8098 89.251 69.2757 89.7051 69.9189C90.1592 70.5577 92.3718 73.4167 93.5916 75.3643C93.5916 75.3643 88.8281 79.5053 88.6099 84.4995V84.4906ZM105.024 78.3617C103.773 80.0592 101.641 80.564 99.5704 80.1843C98.7246 79.9341 98.1904 79.4606 97.6561 78.7682C100.479 79.0809 103.671 78.1071 104.957 75.342C105.269 75.4671 105.238 75.9406 105.429 76.1907C105.678 76.9144 105.554 77.8257 105.02 78.3617H105.024ZM105.901 78.2366C106.244 78.929 106.311 79.9341 105.807 80.5953C104.619 82.1364 102.424 82.2928 100.732 81.9801C100.26 81.7925 99.9488 81.3189 99.6995 80.9124C102.019 81.2564 104.588 80.4389 105.905 78.2411L105.901 78.2366ZM101.137 77.7006C99.6328 78.1428 97.6294 78.393 96.374 77.2628L95.5905 76.3515C96.8414 76.3203 98.5999 76.4766 99.8821 75.945C100.884 75.7261 101.885 75.0338 102.829 74.4977C103.363 74.0287 103.644 73.305 104.272 72.9253C104.552 73.3005 104.521 73.8366 104.775 74.2475C104.521 75.9138 102.642 77.2673 101.137 77.7051V77.7006ZM102.829 73.707C100.541 75.4358 97.0329 76.6017 94.335 74.9667C93.9922 74.462 93.5827 73.9929 93.3022 73.4569C94.7758 73.5819 96.7168 74.0867 98.315 73.5194C99.7574 73.2067 100.977 72.4518 102.17 71.5092C102.482 71.1608 102.798 70.6292 103.203 70.5041L103.737 71.5718C103.987 72.5143 103.203 73.0504 102.829 73.7115V73.707ZM102.549 69.9323C101.516 71.8487 99.3211 72.6349 97.2822 72.9834C95.0562 72.9521 92.1447 73.4881 91.2009 70.7811L91.1386 70.7185C91.7351 70.656 92.5498 71.125 93.3645 71.0312C96.5921 71.2814 99.7262 69.9323 101.765 67.5112C102.268 67.5737 102.144 68.1098 102.424 68.3599C102.673 68.8022 102.642 69.4276 102.549 69.9323ZM101.2 67.2297C99.005 69.6196 95.9689 70.5935 92.8348 70.3746C92.0512 70.2182 91.517 69.9949 90.7691 69.7134C89.9544 69.3025 89.6739 68.4225 89.2644 67.6988C92.6478 68.4225 96.098 67.7301 98.8537 66.0638C99.4814 65.5278 100.136 65.0275 100.795 64.4914C101.106 65.3402 101.828 66.314 101.2 67.2253V67.2297ZM89.9188 89.0827C89.3222 87.7292 89.0729 85.7816 89.3846 83.9233C89.4469 84.303 89.5092 84.7095 89.8565 84.8971C90.3907 84.5799 89.6383 83.7982 89.9811 83.1996C89.9811 82.0024 90.0746 80.6846 90.8893 79.7421C90.8893 80.7472 90.5465 81.8818 91.1386 82.6055C91.2944 82.668 91.4235 82.5429 91.4858 82.4178C91.2677 80.6578 91.6728 78.7995 92.7057 77.3879C92.768 78.393 92.2382 79.5902 93.1776 80.2468L93.3022 80.1218C93.2087 78.6744 93.3022 77.102 94.2104 76.0031C95.1809 76.6955 94.1792 78.1741 95.0562 78.8352C95.4035 78.3617 94.9316 77.8301 95.1809 77.3254C95.5905 77.6068 95.9956 77.9552 96.1514 78.4243C92.6122 80.9392 89.6339 84.5889 89.9143 89.0827H89.9188ZM93.5426 83.2711C93.6361 80.7606 95.3901 80.0012 96.8058 79.1479C96.8058 79.1479 100.14 82.4491 100.55 83.1773C100.964 83.9054 101.632 85.2008 101.636 85.5582C101.636 85.5582 101.137 87.6577 98.4575 87.7873C95.7685 87.9258 93.4491 85.7816 93.5426 83.2711ZM99.0985 93.9876C97.625 93.9563 96.1826 94.5192 95.1809 93.2952C94.9895 92.8217 95.2121 92.3482 95.5192 91.973C97.2154 90.7177 99.2232 90.7177 101.129 89.927L101.195 90.0253C100.755 90.9008 99.7886 91.6558 98.9739 92.1606V92.3437C99.8465 92.6251 100.381 91.6513 101.195 91.495C101.289 92.0355 101.885 92.0355 102.233 92.0936C102.291 92.0355 102.424 91.9685 102.424 91.8434C102.077 91.5933 101.672 91.4637 101.569 90.9947C101.725 90.5211 101.792 90.0208 102.233 89.6724C102.513 90.1146 103.047 90.2978 103.55 90.3961C103.8 90.204 104.147 90.271 104.396 90.3291C103.047 92.1829 101.2 93.6034 99.103 93.9787L99.0985 93.9876ZM101.641 85.652C101.641 85.7101 101.641 85.7548 101.641 85.652V85.652ZM104.775 89.7394C104.053 89.8645 103.208 89.8958 102.705 89.2972C102.518 88.8237 102.268 88.4797 102.549 87.9749C103.519 88.2876 104.65 88.511 105.621 88.0374C105.465 88.6673 105.117 89.1989 104.775 89.7349V89.7394ZM105.963 87.1306C105.086 87.8543 103.706 87.698 102.767 87.2557C102.393 86.9743 102.518 86.7197 102.486 86.2819C103.55 86.599 105.117 86.8492 106.155 86.0943C106.186 86.407 106.124 86.8179 105.968 87.1306H105.963ZM106.088 85.4331C105.117 86.0317 103.582 85.9692 102.486 85.4957C102.299 85.2142 101.983 84.8971 102.112 84.5844C103.648 84.8703 105.215 84.4593 106.466 83.6731C106.342 84.1153 106.747 85.0892 106.088 85.4331ZM106.275 83.0745C105.02 83.9545 103.141 84.2047 101.698 83.6106C101.356 83.4855 101.324 83.0745 101.133 82.8244C102.985 82.8869 105.113 82.668 106.337 80.908C106.618 81.5378 106.68 82.5117 106.275 83.079V83.0745ZM107.78 79.8671L107.121 80.5908C106.965 79.961 106.934 79.2685 106.867 78.6119C107.09 79.1792 107.588 79.273 107.775 79.8716L107.78 79.8671ZM109.004 72.3535C109.694 71.88 110.696 71.4422 110.851 70.4997C110.758 70.1244 110.727 69.6822 110.509 69.3382C109.725 68.6145 108.848 69.0881 107.904 68.9317L106.524 69.0881C108.999 67.4218 110.878 64.6835 111.35 61.6682C111.662 59.122 111.096 56.3837 110.847 53.8999H110.972C111.568 54.4985 111.973 55.2847 112.788 55.66C112.975 55.6287 113.073 55.4411 113.135 55.2803C113.981 56.2541 114.324 57.6076 114.827 58.8003C114.952 58.8003 115.107 58.8316 115.201 58.6753C115.548 59.5866 115.326 60.404 115.388 61.4761C116.016 62.5125 115.611 63.9286 115.263 64.9649C115.045 65.8449 113.981 66.0326 113.759 66.9126C114.075 67.2923 114.324 66.9126 114.667 66.85C115.419 66.725 115.98 67.0064 116.514 67.3861C116.265 68.1723 115.762 69.021 114.947 69.3963C114.76 69.4588 114.698 69.6464 114.76 69.8698C115.388 70.3433 116.296 70.1512 116.826 70.9062C117.485 71.5986 117.734 72.4473 118.081 73.2648C117.454 73.5775 118.112 74.1448 118.019 74.6183C117.925 75.342 118.896 76.2533 118.081 76.8519C117.859 77.6693 117.578 78.4555 117.609 79.3356C116.919 80.153 116.701 81.1581 115.668 81.6316C115.103 81.9756 114.569 82.5742 114.164 83.079C113.852 82.4491 114.444 81.7567 114.413 81.0331C114.885 79.5232 115.824 78.0446 115.196 76.2845C114.791 74.6496 113.411 73.3899 111.813 72.9834C110.246 72.7957 108.617 72.7957 107.237 73.2022C106.983 73.2648 106.702 73.3273 106.453 73.3899C106.204 72.5411 108.488 71.3127 106.453 71.1563C106.075 70.9062 105.607 70.656 105.42 70.1825C106.64 69.9011 107.895 69.709 109.213 69.5839C109.4 69.709 109.685 69.6464 109.841 69.8653C110.215 70.0529 110.121 70.6203 110.059 70.9642C109.716 71.3082 109.338 71.7504 108.995 71.938C108.995 72.0631 108.746 72.2552 108.995 72.349L109.004 72.3535ZM106.15 71.8174C106.026 72.5724 105.304 73.2335 105.745 74.051C106.088 74.6808 106.653 75.2437 107.25 75.5609C106.965 76.0969 106.809 76.7223 106.591 77.3209C105.776 75.0561 105.367 72.6037 104.459 70.3701C104.93 70.9687 105.589 71.3439 106.15 71.8174ZM102.357 58.3894C102.139 59.3319 101.636 60.7167 102.295 61.6593C102.575 62.2891 103.141 62.7269 103.613 63.1692C103.114 64.0179 102.673 65.0543 103.332 65.9343C103.742 66.6892 105.273 66.7205 104.334 67.7569C104.085 68.3242 104.116 68.7932 104.116 69.4544C102.393 65.6484 100.764 61.5297 100.982 57.1609C101.391 57.5987 101.828 58.1973 102.362 58.3849L102.357 58.3894ZM99.2232 29.3354C99.3167 28.9915 99.5704 28.6743 99.5036 28.2365C99.7262 28.3929 99.8509 28.7413 99.9444 29.0227C100.131 29.6526 99.3167 30.2199 99.8821 30.5951C100.572 30.0904 100.541 28.7726 101.636 28.71C101.636 29.4337 101.195 30.1261 101.071 30.8498L101.195 31.0061C101.979 30.5326 101.979 29.4962 102.954 29.3399C103.016 30.1574 102.42 30.8498 102.17 31.5734C102.669 31.7923 102.829 31.1312 103.265 30.9123C103.546 30.8185 103.769 30.5683 104.111 30.6621C103.862 31.3233 102.985 31.7923 103.141 32.4847C103.769 32.4847 104.049 31.4484 104.77 31.5109C104.454 32.2033 103.452 32.5785 103.737 33.3335C104.427 33.2084 104.77 32.2658 105.554 32.4222C105.367 33.0833 104.018 33.5211 104.454 34.3386C104.926 34.2135 105.238 33.6149 105.803 33.74C105.331 34.1152 104.392 34.5262 104.583 35.2498C105.273 35.0622 105.834 34.2135 106.587 34.5262C106.493 34.7451 106.084 34.8389 106.146 35.1873C106.208 35.5313 106.587 35.4375 106.805 35.6296C106.275 35.3481 105.71 35.5983 105.3 35.911C105.425 36.4158 106.021 35.9735 106.275 36.2907C106.119 36.3532 105.897 36.2907 105.803 36.4783C105.959 36.9518 106.555 37.0769 107.054 37.0769C107.588 37.327 107.838 37.8631 108.091 38.3321C107.214 38.3321 106.836 37.5459 106.021 37.4834C105.834 37.4834 105.741 37.7648 105.897 37.8586C106.618 38.6136 107.998 39.0871 108.029 40.2798C107.245 39.9046 106.555 39.2747 105.616 39.2434C105.362 39.8733 106.213 39.9046 106.524 40.2173C106.961 40.6238 107.339 41.066 107.432 41.602C106.867 41.0347 106.115 40.3423 105.3 40.4093C105.175 40.5031 105.238 40.6908 105.238 40.8158C105.331 41.0973 105.647 40.9409 105.803 41.066C107.152 41.946 106.929 43.6122 107.526 44.872C106.213 44.4297 106.275 42.7948 105.02 42.3257C104.583 42.768 105.491 43.1745 105.616 43.6167C106.244 44.7469 106.649 46.3193 106.021 47.5477C104.267 49.3078 101.605 50.1253 101.071 52.7028C100.287 54.4941 97.5626 54.1814 97.6561 56.4462C97.2198 56.0665 97.5003 55.4411 97.5938 54.9989C98.2838 53.6766 100.163 54.2126 100.541 52.7653C100.447 52.609 100.287 52.6402 100.131 52.6402C98.9739 53.5828 96.9038 53.8061 96.6856 55.66C96.6233 56.1335 96.9349 56.4775 97.0284 56.9152C96.4363 56.6338 95.9956 55.9101 95.9021 55.2803C95.9644 54.4003 96.374 53.6453 97.2198 53.2388C98.4397 52.9261 99.8821 52.6715 100.919 51.6664C100.951 51.5413 100.919 51.4162 100.795 51.3537C99.98 51.6351 99.0095 51.921 98.1325 51.6039C97.1931 51.2242 96.1247 51.6977 95.31 52.2025C95.31 51.6977 95.7819 51.3224 96.1559 51.0053C97.7541 50.4067 99.3211 51.5101 101.075 51.2242C101.262 51.0365 101.454 50.7819 101.391 50.438C101.703 50.3129 102.112 50.1565 102.237 49.8394C101.921 49.683 101.329 49.8394 100.919 49.7143C99.8242 49.3033 99.9177 47.7666 98.5688 47.7309H97.4113C97.8164 47.3557 98.4441 47.3557 98.9783 47.4807C100.421 47.9855 100.732 50.2816 102.611 49.4329C102.829 49.2765 103.176 49.3703 103.332 49.0532L103.083 48.803C102.455 48.7092 101.703 48.9593 101.2 48.5841C100.608 47.8292 100.541 46.7928 99.6328 46.2255C100.1 46.1629 100.603 46.3506 101.075 46.5695C101.952 47.5745 102.927 48.7717 104.396 48.2669C104.583 48.1419 104.868 48.1419 105.024 47.856L104.962 47.6684C104.053 47.5433 102.642 47.856 102.175 46.6945C102.019 46.4756 102.175 46.2568 102.237 46.0334C102.896 46.7258 103.898 47.6371 105.122 47.2931C105.434 47.0117 106.124 47.1055 106.155 46.5069C105.75 45.9709 105.402 46.6633 104.966 46.632C104.432 46.6633 103.902 46.632 103.555 46.2255C102.896 44.528 104.935 43.4559 104.717 41.6646C105.376 38.1758 104.561 33.8963 101.271 31.6985C100.425 31.225 99.517 30.8185 98.5732 30.5371C98.3239 30.0323 99.0139 29.6883 99.2321 29.3399L99.2232 29.3354ZM99.5036 57.1029C99.3167 57.3843 99.0362 57.1029 98.8448 57.1029C98.4664 56.8527 98.2482 56.4105 98.4352 55.9727C98.591 55.7538 98.6533 55.4054 98.9071 55.2803C99.2187 55.1552 99.1876 55.5662 99.3434 55.5974C99.5971 56.0352 99.4369 56.6025 99.4992 57.1073L99.5036 57.1029ZM95.6483 50.6256L95.8976 50.438H96.0846L95.6483 50.6256ZM96.1469 49.5579C96.7435 48.8968 97.6517 48.9593 98.4352 49.1157C99.1252 49.3658 99.3434 50.3754 100.127 50.438C98.8136 50.8132 97.714 48.7092 96.1469 49.5579ZM96.0846 28.1114C96.5254 28.6162 96.8681 29.1478 96.9305 29.8089L96.5565 29.4337L96.3695 29.6839C96.463 29.7464 96.4007 29.8715 96.4319 29.934C96.2137 29.3667 96.0223 28.7056 96.0846 28.1114ZM94.9895 30.5326V30.8453C94.709 30.5326 94.4241 30.1216 94.6155 29.6839C94.9583 29.7464 95.3055 30.0591 95.4614 30.4075C95.5237 30.5326 95.0829 30.1574 94.9895 30.5326ZM91.6817 42.6339C91.2454 42.8171 91.3033 43.103 91.2588 43.1745C91.2588 43.1745 90.5465 43.8803 89.941 43.8803C89.3356 43.8803 89.4157 43.7909 89.3623 43.5765C89.3133 43.3621 89.576 43.304 89.7274 43.3934C89.8787 43.4827 90.2438 43.6971 90.7602 42.9958C91.2766 42.2944 92.1002 41.8343 92.3851 41.9147C92.3851 41.9147 92.1136 42.4508 91.6817 42.6339ZM87.8131 53.0467C88.5343 49.2095 91.606 45.4706 95.2388 43.8624C95.9288 43.6122 96.6188 42.5714 97.4024 43.2951C97.527 43.2951 97.6517 43.2638 97.714 43.17C97.7763 42.8886 97.4647 42.9511 97.4024 42.759C97.8743 42.3168 98.4975 43.103 99.2187 42.8216C99.3434 42.7903 99.2811 42.6652 99.2811 42.5714C99.0629 42.3838 98.7824 42.4151 98.5599 42.1649C99.2499 42.3838 100.033 42.1336 100.412 41.6601C100.065 41.4412 99.7218 41.8165 99.4413 41.535C99.6283 41.1285 100.131 40.6863 100.541 40.3423C100.946 39.431 101.859 38.551 101.511 37.4789C101.008 37.6353 101.102 38.2651 100.915 38.6404C100.603 39.0513 100.572 39.708 99.9444 39.8018C99.4102 39.8018 98.9739 39.7705 98.5643 40.2753C98.0657 39.8644 97.6873 40.8114 97.1531 40.4629C96.1514 40.2441 96.276 38.9843 95.4614 38.5778C95.0206 39.0513 95.773 40.0877 94.8025 40.2128C94.3306 40.3066 93.8008 40.4942 93.6094 40.999C93.6405 41.5976 93.6717 42.2587 93.0484 42.5089L92.8259 42.4463C93.0484 42.0354 93.3912 41.5976 93.1731 41.0615C93.1108 40.7176 92.7012 40.5612 92.4519 40.4004C91.1341 40.2441 90.3551 42.6652 89.0685 41.1241C88.8503 37.5057 93.2977 36.3756 94.3974 33.4183C95.399 32.4758 96.561 31.4081 98.0034 31.502C98.5999 31.8817 99.0985 32.5383 99.9444 32.4132C101.293 32.8197 102.544 34.2358 103.016 35.5581C103.924 39.0781 103.608 43.0405 100.541 45.3678C99.6328 45.5867 98.4085 45.3678 98.0034 46.3729C98.0969 46.7794 98.5376 46.3729 98.7246 46.6856C97.6561 46.5605 96.7479 47.3155 96.0267 48.1329C95.9644 48.4769 95.6528 48.8253 95.7774 49.1693C95.1497 49.7053 94.6511 50.2995 94.7446 51.1214C94.8069 51.2465 94.9316 51.2778 95.0562 51.2778C94.5888 51.9389 94.2727 52.8502 94.6823 53.5426C94.7446 53.6364 94.8069 53.7302 94.9316 53.6989C95.3367 52.9753 95.8398 52.4705 96.6233 52.2516H97.5938C96.7479 52.5017 95.7151 52.8502 95.399 53.824C94.9895 54.5789 94.9895 55.5528 95.399 56.3077C96.1514 57.3753 97.4024 58.0677 98.8448 57.9427L99.5036 57.755C99.566 58.9835 100.256 60.4889 99.1609 61.4047C97.941 62.8207 96.1826 63.0083 94.522 63.3836C94.4597 63.4461 94.335 63.5087 94.335 63.6337C94.8069 64.0134 95.3679 63.4774 95.9644 63.5712C97.4068 63.1334 98.8492 62.7225 99.9444 61.4672C100.287 62.2847 100.666 63.3836 100.131 64.2323C99.5036 64.956 98.6266 65.6797 97.7185 65.9924C95.5281 67.0287 92.8615 67.5648 90.2927 67.1538H90.1058C89.9811 66.9975 89.6695 66.9975 89.4469 66.9036C89.2287 66.591 88.5699 66.8098 88.601 66.3051C90.7023 65.8315 92.8303 64.7326 93.8364 62.718C94.433 61.7442 96.187 62.3427 96.3117 60.8016C95.9644 60.5514 95.6528 61.0205 95.31 61.1456C94.5576 61.3332 93.9611 61.6191 93.1776 61.4583C92.2382 61.8335 91.7663 62.8743 91.5482 63.7543C91.1386 63.7856 90.9516 64.2591 90.64 64.4155C90.1681 63.7231 89.7006 64.8577 89.1976 64.9515C88.7301 65.0766 88.4452 64.9828 88.0089 65.2017C86.8158 65.9254 85.093 66.4927 84.6878 68.0651C84.8125 69.4499 83.6862 70.5801 84.1225 71.8085C84.2471 73.1308 85.5337 74.4798 84.4964 75.8021C84.3718 76.0835 84.6834 76.3069 84.8748 76.3381C85.2799 76.1818 85.3111 76.5883 85.4714 76.7804C86.0012 77.4102 86.7535 77.9106 87.3812 78.4779C86.66 78.5404 85.97 77.9418 85.5337 77.4415C85.4402 77.5353 85.2176 77.5353 85.2176 77.6917C85.6895 78.5091 86.0635 79.608 87.034 79.9252C87.1631 80.019 87.0651 80.2066 87.221 80.2379C87.2833 79.8939 87.6884 80.1128 87.8798 80.1128C87.9422 80.2066 88.0356 80.2379 88.0045 80.3317C86.5309 80.7427 85.9967 79.139 85.2755 78.2277C85.3067 77.9463 85.182 77.6917 84.9639 77.5666C84.6834 77.5666 84.3673 77.5666 84.305 77.8167C84.6211 79.3892 85.0574 81.0554 86.4374 82.2213C84.6834 81.4351 84.8392 79.3266 84.0245 77.915C83.8375 77.8212 83.6773 78.0401 83.6461 78.1652C83.7084 79.7689 83.8999 81.3413 84.6166 82.6635C83.615 82.4759 83.5482 81.31 83.33 80.5238C83.1742 78.7012 83.7396 76.9367 82.9872 75.333C83.0184 73.4167 83.2365 71.1518 82.8003 69.1997C82.9561 68.351 82.9294 67.4084 83.3345 66.6535C84.0557 65.7109 84.7769 64.7996 85.6539 64.0134L85.7474 64.076L85.9967 63.5712L89.0061 60.5514C89.162 59.2605 88.7257 57.7193 89.0685 56.3702C89.0685 56.1514 89.4424 55.8967 89.1308 55.7091C88.5966 55.928 88.5343 56.5579 88.3473 57.0314C88.2226 58.2598 88.5966 59.4525 88.0045 60.4889C87.5326 60.7078 87.3456 60.4576 87.221 60.0154C87.221 59.0416 86.9405 58.1615 87.221 57.2815C87.2521 57.0626 87.1898 56.8706 87.034 56.6829C86.3751 56.8393 86.6912 57.6255 86.5354 58.0677V61.5253C85.783 58.6306 86.0011 55.5528 87.8175 53.0333L87.8131 53.0467ZM87.2165 81.3145V81.5646C87.123 81.5959 87.0919 81.5021 87.0295 81.4396V81.1894C87.123 81.1581 87.1586 81.2519 87.2165 81.3145ZM86.3083 81.1894C86.0546 80.7829 85.7429 80.4032 85.5871 79.9341C85.7429 80.4389 86.7134 80.5327 86.3083 81.1894ZM82.6088 66.314C81.7006 68.2974 82.3284 70.8123 82.3907 72.7287C82.2037 73.9661 82.2037 75.3643 82.4975 76.7044C81.024 71.1161 78.5443 65.2017 81.0418 59.457C81.7318 58.3268 82.8314 57.0984 84.2382 57.0984L84.4252 57.286C84.6122 58.7021 85.3022 59.8948 85.5871 61.2796C84.9594 61.8156 84.1447 60.9669 83.7084 61.8156C82.6712 63.1066 84.207 65.2419 82.6088 66.314ZM65.2466 54.8068C64.4942 53.5158 64.6812 51.4743 65.5893 50.2771C66.2171 49.6473 67.1252 49.3346 68.0023 49.5535C68.3451 49.8349 68.8481 50.0895 69.0351 50.5586C69.0351 51.2197 69.0974 52.0684 68.5632 52.5688C68.3762 53.5426 69.3156 54.1412 69.9433 54.7398C72.6678 56.2809 76.8704 56.8125 79.7819 55.3383C79.9377 54.7085 79.5638 54.4896 79.3412 54.0161C79.31 53.1986 79.123 52.6313 79.7196 51.9702C80.3161 51.4028 81.1931 51.1527 82.0078 51.4654C83.2276 52.3141 83.5126 53.9178 83.2276 55.3339C82.6934 57.0626 81.0017 58.1973 79.3412 58.7289C79.0607 58.7289 78.6823 58.9165 78.3395 59.0416C73.4513 59.9216 68.0601 58.8852 65.2421 54.7978L65.2466 54.8068ZM74.2349 60.6855V96.507C74.2349 96.507 69.093 99.3883 68.5009 99.8395L68.4564 58.988C68.4564 58.988 70.7045 59.8635 71.9154 60.0467C73.1264 60.2253 74.128 60.3549 74.2349 60.6855ZM65.0551 49.2408V49.4909C63.4257 49.8974 62.1748 48.5171 61.3245 47.3512C61.7919 46.9402 62.4196 47.2887 62.9538 47.2887C63.8309 47.6013 64.6456 48.3876 65.0507 49.2363L65.0551 49.2408ZM64.9928 47.6058C65.4335 47.3557 66.1191 47.0385 66.6845 47.3557C67.1564 47.5433 67.468 47.9855 67.7173 48.392C67.1831 48.4546 66.6222 48.803 66.0256 48.8655L64.9928 47.6058ZM69.9611 50.6747C69.9611 50.6747 70.4152 50.8981 71.0963 50.7685C71.7774 50.63 72.5966 50.2637 72.5966 50.2637L73.2376 50.63L71.0963 52.7296C71.0963 52.7296 70.5977 53.4577 71.1408 53.4577C71.684 53.4577 71.822 53.6409 71.9154 53.8731C72.0089 54.0965 72.6901 54.1903 73.0551 54.0965C73.4157 54.0116 74.1414 54.2796 74.2349 54.5566L77.694 54.0965L77.921 53.7793C77.921 53.7793 77.556 52.1801 77.783 51.5905C78.01 50.9919 78.5576 51.452 79.1008 50.7685C79.6528 50.0761 81.0596 48.9415 82.0167 48.9861C82.9739 49.0308 83.241 49.9466 83.428 51.3582C83.428 51.3582 82.6533 50.1208 81.2466 50.3084C79.8309 50.4916 78.6511 50.6747 78.1926 53.3192C78.1926 53.3192 78.2371 54.235 78.6511 54.7844C78.6511 54.7844 77.2888 55.3294 75.6506 55.3294C74.0123 55.3294 71.4614 54.8291 70.7357 54.369C70.0011 53.9133 69.6405 53.1405 69.6895 52.9083C69.734 52.676 70.2326 51.8093 69.9655 50.6747H69.9611ZM74.8314 53.2343C74.8003 53.3907 74.7691 53.5783 74.7068 53.7079C74.5509 53.6141 74.6756 53.3639 74.8314 53.2343ZM76.2293 49.0844C76.5988 48.8253 77.0974 48.4724 77.4358 48.1508C79.8442 47.7934 81.7674 44.8362 84.2649 46.2702L84.3317 46.4578C84.3317 46.5203 84.305 46.6141 84.3985 46.6454L84.4608 46.5203C85.3912 47.7934 85.3601 49.5847 86.108 50.9874C86.1837 51.7736 86.7936 52.5464 86.3974 53.279C85.7607 54.5164 85.6272 55.9325 85.369 57.2905C84.6389 55.1329 84.5053 52.6179 84.0913 50.3933C84.3362 49.9466 84.6389 49.3792 84.3139 48.8789C84.1848 48.7226 83.9978 48.6645 83.7797 48.7003C83.0496 48.2089 82.1948 47.7845 81.2288 48.0838C79.9822 48.5439 79.0251 49.4105 78.2594 50.4916C78.1659 50.3665 77.9433 50.4335 77.8186 50.438C77.0173 51.2376 76.7858 52.3767 76.9639 53.4398C76.7457 53.6319 76.4964 53.6989 76.2471 53.6721C76.167 52.6045 76.7813 51.8406 76.857 50.8311L76.6344 50.6434C75.8019 51.3805 75.9488 52.6045 75.5882 53.5872L75.4636 53.6855C75.4814 52.7742 76.029 51.8808 76.1358 50.907C76.0379 50.7506 75.8821 50.7864 75.7262 50.7864C74.9872 51.5547 74.4708 52.5375 74.079 53.489C73.9232 53.5872 73.6383 53.4354 73.4825 53.3103C73.665 52.9931 73.8787 52.6447 74.0612 52.3231C74.1814 51.9121 75.1163 51.5815 74.7602 51.0544C73.9588 51.7289 73.0284 52.4035 72.512 53.3282C72.2894 53.2075 72.098 53.0199 71.8442 52.9619C72.1158 52.3901 72.7079 52.064 73.1397 51.6173C73.5448 51.5771 73.6339 51.2018 73.9767 51.0053C74.8804 50.6122 75.6506 49.9376 76.2338 49.08L76.2293 49.0844ZM73.7363 47.3557C74.0167 47.5745 74.4575 47.6684 74.6444 48.0793C74.8314 48.3608 74.8314 48.8968 74.6444 49.1782C74.2972 49.4284 73.9544 49.8394 73.5137 49.5535C72.6678 49.1112 72.4185 48.325 71.8843 47.6058C72.512 47.2931 73.0774 47.3557 73.7363 47.3557ZM70.0679 47.4807C70.571 47.6996 71.0384 48.0481 71.3857 48.5171C71.3857 48.8655 71.9511 48.9906 71.822 49.3659C71.2254 49.7768 70.4419 49.7143 69.8186 49.4284C69.0974 49.0844 68.6611 48.2312 68.3139 47.5433C68.9728 47.1368 69.3156 47.512 70.0679 47.4807ZM68.6255 44.5235C68.8125 44.8675 68.8125 45.4661 68.6255 45.7832C65.7719 45.6269 62.6066 45.8458 59.6951 45.5956C59.5393 45.2829 59.6951 44.8094 59.8197 44.4655C62.8292 44.3716 65.8342 44.3716 68.6255 44.528V44.5235ZM58.3016 31.5913C58.6444 32.0693 59.2632 32.7929 59.842 32.7483V33.329C59.842 33.329 59.9399 33.7623 60.1314 33.7623C60.3228 33.7623 60.4742 33.8606 60.4742 34.2492C60.4742 34.6379 60.1314 40.186 60.1314 40.186L59.6016 40.5746L59.1698 43.4202C59.1698 43.4202 58.6934 43.3665 58.6444 43.9473C58.591 44.5325 58.404 46.0245 58.1592 46.1227C57.9188 46.221 57.5359 46.221 57.2955 46.3148C57.0551 46.4131 56.7658 46.5561 56.4764 46.3684C56.4764 46.3684 56.0891 32.0291 56.4764 27.8255C56.4764 27.8255 58.7379 27.8702 59.2677 27.6826V28.0266C59.2677 28.0266 58.9783 28.1695 58.591 28.1204C58.2126 28.0757 57.438 28.0266 57.1041 28.2633V31.0642C57.1041 31.0642 57.9678 31.1089 58.3016 31.5958V31.5913ZM66.5599 35.3749L61.5471 35.3124C61.2354 34.9372 61.5159 34.4636 61.5471 34.0527C63.1764 33.9589 65.1174 33.9589 66.8759 34.0527L67.0006 34.1777C66.8759 34.5887 67.3745 35.5625 66.5599 35.3749ZM61.4536 36.0361L61.6717 35.911L66.8715 35.9735L67.0585 36.2907L67.2143 40.8828C65.5849 40.9454 63.359 40.8828 61.2621 40.8203C61.3245 39.3104 61.1063 37.4253 61.4491 36.0405L61.4536 36.0361ZM67.6595 41.5395C67.9711 42.0443 67.753 42.7992 67.9132 43.3621L67.6595 43.4872L60.5454 43.4246C60.4207 42.826 60.5454 42.1694 60.67 41.602C63.1453 41.3206 65.2777 41.5708 67.6595 41.5395ZM68.256 24.7164C68.6656 23.9615 69.6984 24.1804 69.8854 23.2691C70.9182 22.2953 72.8637 22.8939 73.3311 21.2232C73.5804 21.2232 73.5804 21.5046 73.7407 21.6297C73.803 21.9111 73.6472 22.2908 73.3935 22.541C72.8637 23.0145 71.8576 22.8849 71.7018 23.6399C72.2671 24.1134 72.6723 23.421 73.2065 23.3897C73.6428 23.421 74.0835 23.3585 74.4575 23.1396C74.9605 22.6973 75.1163 22.1345 75.3656 21.5672C75.5215 21.4421 75.7396 21.5046 75.9266 21.5046C75.1431 22.4159 76.2115 24.2072 74.8314 24.7745C74.3907 24.9621 73.7363 24.8683 73.3267 24.5244C73.0462 24.2429 72.7925 23.8945 72.4185 23.9258C72.0445 24.5869 73.2332 24.9309 73.1397 25.6233C73.2332 26.2531 72.9527 26.8204 72.4185 27.1331H71.5103C71.822 26.9455 72.3562 26.883 72.5432 26.4095C72.8281 25.7796 72.325 25.3106 72.2315 24.7745C71.7596 24.1759 70.9761 23.9258 70.4152 24.0509C69.5381 24.2697 68.4385 24.7433 68.2516 25.7483C68.1269 26.472 68.1269 27.4458 68.0646 28.0444C67.5304 27.1019 67.5927 25.6545 68.2516 24.712L68.256 24.7164ZM67.5348 29.6839V29.0853C68.2872 28.7726 69.1642 29.1478 69.9477 29.0227C70.1035 29.2729 70.2282 29.59 70.0724 29.8715C69.7296 29.9965 69.2265 29.8715 69.1019 30.345C69.1019 30.881 68.7279 31.3501 68.3183 31.569C67.9755 31.8817 67.192 31.4752 67.2232 32.1676C67.1609 32.4177 67.3167 32.7349 67.0674 32.8912C65.1531 33.1101 63.0251 32.985 61.2087 32.8287C60.955 32.516 61.2399 31.8236 60.6122 31.6315C60.0779 31.4752 59.3612 31.569 59.0451 31.0016C58.9516 30.6889 59.0139 30.3405 58.6711 30.1216C58.4842 29.9653 58.1369 30.2154 58.0123 29.934C57.6695 28.3929 59.6728 29.0853 60.4252 29.0853C60.6122 29.4292 60.3005 29.9653 60.6745 30.2154C61.458 30.1216 62.7758 30.7515 63.0874 29.6794V29.1433C63.6528 28.9557 64.3384 29.0183 64.9349 29.0808C65.1887 29.4248 64.8726 30.1797 65.438 30.211C66.0969 29.9295 67.2855 30.5549 67.5348 29.6749V29.6839ZM63.2432 21.4465C62.7134 22.0764 62.0234 22.7063 61.5515 23.3942C61.1775 22.5767 62.9627 21.9469 62.7134 20.7229C63.497 20.8167 64.0935 19.0566 64.8103 20.2494C64.3072 20.9105 63.8709 21.4465 63.8709 22.2283C63.9956 22.3846 64.1514 22.4472 64.3384 22.4159C63.9021 23.421 62.7402 23.2646 62.0501 23.9258C62.0813 23.0145 63.4925 22.6035 63.5548 21.5672C63.4614 21.4421 63.3679 21.4108 63.2388 21.4421L63.2432 21.4465ZM64.6723 18.1141L64.9661 18.333C64.9661 18.333 64.8949 18.735 64.7479 18.5519C64.601 18.3687 64.6767 18.1141 64.6767 18.1141H64.6723ZM64.5921 24.3725C65.2198 24.3412 64.6856 24.8773 64.8726 25.1587C64.6856 25.8511 64.6233 26.95 64.9349 27.6424V28.1159C64.0891 28.2723 62.9316 28.0534 62.3039 28.3035C62.1481 28.7458 62.3662 29.0897 62.1169 29.4962L61.3334 29.4337C61.0841 29.0227 61.6138 28.2723 60.8926 28.1114C60.7368 28.174 60.4875 28.174 60.3629 27.9864C60.3005 27.419 60.8303 27.294 61.2087 27.0751C61.8008 26.3201 62.7446 26.07 63.3679 25.3776C63.8709 25.2838 64.3072 24.8728 64.5921 24.3725ZM65.7808 22.8626L65.5938 23.2736C65.7496 22.6124 64.4986 22.0764 65.5003 21.5761C65.6873 21.9871 65.9678 22.4248 65.7808 22.8671V22.8626ZM65.5938 18.5563C65.7185 18.5876 65.8743 18.5251 65.9678 18.6189C65.9366 18.7752 65.7808 18.8378 65.7185 18.9628H65.438C65.3757 18.7752 65.5626 18.6814 65.5938 18.5519V18.5563ZM65.7808 20.915C66.0924 21.0713 66.4085 21.4823 66.3773 21.8888C66.0612 21.6074 66.1592 21.1651 65.7808 20.915ZM67.6595 21.1651C67.3167 20.8211 67.566 19.9367 66.9383 19.749C66.5331 20.0305 66.9071 20.4727 66.8759 20.8479C66.5955 20.5353 65.9678 20.3744 66.2171 19.8741C66.5287 19.6865 66.6533 19.1817 67.0629 19.0879L67.4057 19.749C67.6862 19.9992 67.9399 20.2538 67.9088 20.6603L67.7841 20.5978C67.753 20.7854 67.9088 20.973 67.6595 21.1651ZM66.4931 17.9131C66.4931 17.9131 66.6444 17.6048 66.7335 17.109C66.7335 17.5646 66.8804 17.8059 66.8804 17.8059C66.8804 17.8059 67.1876 17.7925 67.2944 17.7835C67.0006 17.7925 66.6222 18.0739 66.6222 18.0739L66.4931 17.9131ZM68.1937 19.5302C67.8509 19.5302 67.8197 19.1549 67.7218 18.9003C67.7218 18.7752 67.753 18.5563 67.9088 18.6189C67.9088 18.9003 68.1269 19.1862 68.3762 19.28C68.4697 19.4676 68.2516 19.4676 68.1892 19.5302H68.1937ZM66.1592 13.4594C66.6266 13.5532 66.8804 14.0892 67.3478 14.1205C67.566 13.9954 67.5348 13.647 67.8509 13.7765C68.4786 14.1831 68.1314 15.5991 69.2265 15.2239C69.6049 15.885 67.8821 15.7599 68.5676 16.5461C68.7902 16.4836 69.1019 16.4211 69.1642 16.7338C69.133 17.0465 69.2265 17.4887 68.8526 17.5825H68.6967C68.6967 17.3323 69.0395 17.0152 68.6344 16.8588C68.354 16.7963 68.2605 17.0152 68.1358 16.7338C68.167 16.5774 68.4474 16.4211 68.2605 16.1977C67.9177 16.1352 67.6016 15.5366 67.2276 15.9476C67.0095 15.8225 67.1341 15.4428 66.8181 15.474C66.5688 15.4115 66.2883 15.5991 66.0969 15.818C66.0034 15.0005 65.941 14.3394 66.1592 13.4594ZM63.3055 18.3017C62.8693 17.9577 62.522 18.6144 62.1169 18.7439L61.458 18.9628C61.3957 18.6501 61.6762 18.3642 61.8676 18.1141C62.2415 17.989 62.6823 17.5468 63.0874 17.8327C63.4302 17.8014 63.2744 17.3592 63.2432 17.1715C62.9004 16.8588 63.0251 16.4479 63.1809 16.0726L63.3055 15.9476C63.4614 16.1977 63.7151 16.4523 64.0267 16.4836C64.4052 16.1084 63.7774 15.4472 64.276 15.0363C64.5298 15.2239 64.9972 15.1301 64.7168 15.6349C64.7168 15.7287 64.7168 15.9788 64.9349 16.0771H65.1219C65.1842 16.2647 64.9349 16.2334 64.9349 16.3898C64.9038 16.7025 65.1531 16.9884 65.438 17.0509C65.5448 17.0643 65.6339 17.0643 65.714 17.0509C65.8075 17.0018 65.8921 16.9571 65.9678 16.9258C65.8876 16.9929 65.803 17.0286 65.714 17.0509C65.5092 17.1581 65.2777 17.2653 65.0596 17.1805C64.5921 16.9616 65.1842 16.1441 64.5298 16.0816C64.0891 16.4568 64.3384 17.1805 64.0267 17.5289C63.9021 18.065 63.399 18.534 63.684 19.1639C63.5281 19.7937 62.9627 19.8563 62.4597 20.0751C61.8943 20.2002 61.3022 20.2002 60.8303 20.4504C61.0529 19.1281 62.9627 19.6954 63.3055 18.3106V18.3017ZM60.6745 21.5716C60.8615 21.0043 61.458 20.8792 61.9922 20.8479C62.2104 21.7592 60.955 22.1077 60.768 22.8626C60.4563 22.4561 60.5187 22.1077 60.6745 21.5716ZM61.3334 23.8052C61.2399 24.2474 60.955 24.8728 61.3334 25.2838C61.8008 25.3463 61.9922 24.7477 62.3974 24.5914L63.8086 24.3099C63.1809 24.7209 62.5843 25.3463 61.9299 25.6947C61.7073 25.8198 61.645 25.5071 61.458 25.5071C61.0841 25.726 61.1775 26.3246 60.6745 26.4809C60.8303 26.1995 60.9861 25.8511 60.8926 25.5697C60.7991 25.5071 60.7368 25.382 60.6122 25.4446C60.2694 25.7573 60.2694 26.1995 59.891 26.4809C59.7975 26.2933 59.891 25.9136 59.5793 25.7573C59.0451 25.8198 59.3256 27.2046 58.6711 26.3559C58.3239 26.3246 58.1681 26.7668 57.8876 26.8607C58.0123 26.7668 58.0123 26.2308 57.6339 26.1683L56.975 26.673L56.9127 26.0744C56.4096 25.8556 56.098 26.4854 55.7196 26.673C55.5326 26.3291 56.8503 26.1057 56.1291 25.6367C55.7196 25.5741 55.5326 26.0789 55.1586 26.0789C55.3456 25.4803 56.0668 25.7037 56.2582 25.1676C56.8236 25.5116 57.6695 25.3865 58.1992 25.0425C59.0139 24.1 60.2382 23.8454 61.3334 23.8141V23.8052ZM55.7641 44.9166L55.5727 46.4622C55.5727 46.4622 55.3812 43.8579 55.3812 42.4553V28.0221C55.3812 28.0221 55.3812 27.5888 55.7196 27.5888L55.7685 44.9211L55.7641 44.9166ZM55.4703 18.7439C55.6261 18.7439 55.8442 18.7752 55.8442 18.9628C55.8754 20.6916 55.8131 22.675 55.7819 24.3099C55.7196 24.435 55.5949 24.3725 55.4703 24.3725C55.3768 22.3936 55.3768 20.5978 55.4703 18.7439ZM57.5671 22.2417C57.8164 22.6482 57.251 23.2468 57.8164 23.5327C58.1636 23.4344 58.6355 23.2155 58.9739 23.4657C58.9427 23.7158 58.5999 23.7828 58.4085 23.9392C58.0345 24.5065 57.4959 24.8773 56.8414 24.7879C56.4007 24.6316 56.561 24.3144 56.4363 23.9972L56.561 21.1696C56.6545 21.1696 56.6856 21.2634 56.7791 21.3259C56.6856 21.451 56.5966 21.6074 56.6233 21.7682C56.9127 22.0183 57.1931 22.2104 57.5671 22.2417ZM56.975 16.5417C57.6027 18.4581 60.6389 19.5927 60.0468 21.9513C59.5482 22.5186 60.7368 23.3048 59.7663 23.3361C59.517 22.0764 57.6695 23.4612 58.1369 21.8888C58.0123 21.6386 57.4469 21.6699 57.5715 21.384C57.8876 21.2902 58.2304 21.04 58.4174 20.7229C58.0746 20.0617 57.4157 21.0043 57.0373 20.5978C57.1308 20.5978 57.8832 20.6603 58.0701 20.2538C58.0078 19.5302 57.0685 20.0662 56.6277 19.8116L56.5031 19.9992C56.285 18.9941 56.8815 18.2079 56.7836 17.3279C56.5343 17.0152 56.9082 16.7918 56.9705 16.5417H56.975ZM56.6277 15.3445C55.8754 15.6259 56.7836 16.4747 56.1291 16.8544C56.1603 17.3904 56.3161 17.8282 56.0045 18.3017C55.5326 17.989 55.3144 17.4217 55.0963 16.9169C55.2833 16.2871 55.4435 15.5634 55.8487 15.0943L56.0089 14.6208C56.3206 14.7146 56.4141 15.1256 56.6367 15.3445H56.6277ZM55.9377 13.8346C55.7819 13.991 55.7507 14.3394 55.4703 14.3081C55.4391 9.93932 55.221 6.16463 55.4079 2.20232C55.6261 2.20232 55.9377 2.17105 55.9377 2.45247L55.7819 3.30122C55.8442 6.82129 55.9689 10.2207 55.9377 13.8346ZM66.689 9.46581C66.689 7.83085 66.6266 6.44605 66.7513 4.4984L66.9383 4.21697C73.0195 7.04464 79.9778 9.02803 86.9627 7.58069L88.2805 7.36181V7.48688C85.8988 10.5066 82.4219 11.1365 79.0028 11.7619C74.7112 12.4543 70.8559 11.3867 66.8136 10.9131C66.5643 10.4396 66.7201 10.0331 66.689 9.46581ZM60.5454 5.47223V3.30122C60.9817 2.95726 61.6405 3.17614 62.1748 3.1136L62.2994 3.4263C62.5487 4.18124 61.9878 5.5035 63.0206 5.65984C64.0846 5.94127 65.2154 5.87873 66.0924 6.57113L66.0301 7.57623C64.9038 7.32607 63.8041 6.94637 62.5843 6.9151C62.1169 7.48242 62.3974 8.48751 62.3039 9.11737L62.1792 10.252C61.5203 10.0019 60.1759 10.8506 60.4875 9.52834C60.4252 8.77341 61.0841 7.54942 60.1091 6.9821C58.9205 7.16972 57.665 7.32607 56.5699 7.76831V6.57113C57.763 6.06635 58.9828 5.69111 60.3629 5.65984L60.5498 5.47223H60.5454ZM54.3083 1.79135C53.8053 2.57755 54.62 3.20741 54.6823 3.83727C54.3083 3.64965 54.0234 3.36376 53.8364 2.98852C53.6806 2.4212 53.7741 1.82708 54.0857 1.35357C54.7758 0.973867 55.6216 0.379744 56.4363 0.880059C56.7479 1.16149 56.9705 1.41611 57.1575 1.72881C57.3757 2.01023 57.3133 2.48374 57.2198 2.79644C57.064 2.98406 56.9082 3.07787 56.7168 3.10914C56.8103 2.70263 57.0952 2.32293 56.9038 1.88069C56.5565 1.47418 56.1514 0.938131 55.586 0.938131C55.0518 1.00067 54.5843 1.3491 54.3039 1.78688L54.3083 1.79135ZM58.1325 49.2408C56.9438 49.5222 55.4391 49.683 54.6867 48.5796C54.5621 48.2669 54.6556 47.8872 54.8114 47.6058C56.1603 46.9447 57.3178 47.9543 58.1325 49.0532V49.2408ZM57.8832 47.4807L57.9455 47.2931C59.1653 47.0742 60.2338 47.512 60.8926 48.4546C60.2338 48.4546 59.9844 48.9593 59.3879 49.0532L57.8832 47.4807ZM45.8186 52.4481C46.0724 51.9434 46.6645 51.4743 47.261 51.4118C47.9199 51.2242 48.3562 51.7245 48.8281 51.9121C49.2644 52.2918 49.3311 52.8234 49.487 53.2969C49.7363 54.1456 47.8576 55.2445 49.487 55.7181C49.7986 55.7806 50.1147 55.8431 50.4575 55.9057C51.241 56.2184 52.1803 56.1246 53.0574 56.2496C55.6261 56.062 58.5109 55.651 60.0468 53.2924C60.4875 52.5688 59.4814 52.064 59.6417 51.4073C59.5482 50.9025 59.7663 50.5586 59.9845 50.0851C60.4252 49.4239 61.2087 49.3614 61.9299 49.4865C62.5265 49.7992 63.2477 50.1476 63.5593 50.8087C63.684 51.3135 63.9333 51.7513 63.9644 52.3186C64.0267 53.011 63.8398 53.5738 63.6216 54.1412C62.9004 56.3122 60.5187 57.755 58.5465 58.5413C55.1275 59.6402 51.152 59.8322 47.9244 58.1973C46.6378 57.286 45.1686 56.1201 45.3556 54.3288C45.1686 53.5738 45.6984 53.1048 45.8231 52.4437L45.8186 52.4481ZM60.2293 58.9924V99.6206C60.2293 99.6206 60.1492 99.8618 59.5393 99.3794C58.9383 98.8925 54.3706 96.4132 54.3706 96.4132L54.4374 60.5068C54.4374 60.5068 58.8003 59.7697 60.2293 58.9924ZM48.2315 60.8775C49.7674 66.6311 47.5415 72.0408 46.197 77.3254C46.4152 76.1595 46.6021 74.7791 46.5398 73.5194C45.8498 71.5092 47.2922 69.6196 46.4152 67.7658C46.4775 66.9483 46.0412 66.1621 45.4447 65.5322C45.3823 64.1162 45.6316 62.5438 44.7235 61.4761C44.2204 61.5387 43.566 61.695 43.1564 61.3511C43.5037 59.9037 44.0023 58.5502 44.443 57.1699C46.3528 57.3887 47.7329 59.18 48.236 60.8775H48.2315ZM53.8409 53.1718C53.9344 53.3282 54.059 53.5158 54.0902 53.7079C53.9967 53.6141 53.7786 53.3952 53.8409 53.1718ZM42.3729 52.1354C42.8759 50.6881 43.1564 49.1157 43.5971 47.6058C43.7218 46.7883 44.5365 46.1585 45.2888 45.9709C47.5771 46.1272 49.2376 47.7622 51.3701 48.2669C52.6878 49.0219 53.1241 50.3754 54.5042 50.8757C55.3501 51.3805 56.2582 52.0372 56.9171 52.7608C56.601 52.8546 56.4452 53.1673 56.1336 53.1673C55.5682 52.2561 54.6912 51.5324 53.8453 50.9963C53.7207 51.6575 54.66 52.0014 54.8782 52.5688L55.2877 53.2299C55.0651 53.2924 54.5354 53.7972 54.5042 53.1673C54.0946 52.3186 53.7207 51.4386 52.9371 50.7462C52.7813 50.7462 52.5587 50.7462 52.5276 50.9338L53.3111 53.48L53.1865 53.6364C52.719 52.7564 52.9995 51.2778 52.029 50.6792C51.6817 51.1527 52.0601 51.6843 52.2159 52.1265C52.3094 52.5956 52.4029 53.1003 52.5276 53.5426C52.3718 53.8285 52.0601 53.5738 51.8064 53.5426C51.8999 52.4124 51.6817 51.2465 50.8359 50.429C49.8965 50.6166 49.803 49.3614 48.9572 48.9817C47.9555 48.3831 46.6378 47.5969 45.5114 48.3831C45.0707 48.9817 43.7574 48.7271 44.256 49.8304L44.5721 50.6792C44.1002 52.944 44.2248 55.2088 43.4725 57.3441C43.2543 56.5891 43.1297 55.7091 42.8136 54.9229C42.7201 53.9804 41.8743 53.1003 42.3729 52.1265V52.1354ZM39.2388 43.4246C39.2388 43.4246 39.5237 43.9115 38.6467 43.9115C37.7696 43.9115 37.3111 43.2727 37.0707 42.8439C36.8259 42.4195 36.5231 42.281 36.2961 42.2274L36.2338 41.9773C36.2338 41.9773 37.0084 42.0532 37.2799 42.4195C37.5515 42.7858 38.2861 43.9115 39.2388 43.4246ZM33.9455 29.7464C34.1013 30.1886 33.852 30.5951 33.5715 30.9078V30.4656H33.0996C33.3178 30.2154 33.5715 29.7732 33.9455 29.7419V29.7464ZM32.3784 28.2365H32.5343C32.5031 28.8664 32.3784 29.3354 32.1915 29.8089C32.1291 29.934 32.3161 29.4962 32.0668 29.5588C31.8798 29.465 31.7196 29.6839 31.6572 29.8089C31.5014 29.2729 32.1603 28.7726 32.3784 28.2365ZM30.3128 31.694C31.5949 31.1267 32.6634 32.3239 33.6962 32.9538C33.9767 33.5166 34.6979 33.9276 34.7914 34.5887C36.4831 36.724 39.5237 38.1713 39.6172 41.066C39.2076 41.3519 38.709 41.8835 38.0501 41.602C37.4536 41.1955 36.8926 40.1234 35.9845 40.5344C35.5126 40.8158 35.2321 41.3832 35.4502 41.9192C35.6372 42.1068 35.6372 42.3615 35.6995 42.5803C35.2009 42.4865 35.0095 41.9505 34.9472 41.544C35.0718 41.2 34.7602 40.664 34.4174 40.4138C34.0078 40.3513 33.6027 40.2887 33.2866 40.0341C32.8815 39.5606 33.9143 38.5868 32.9127 38.7118C32.2538 39.4042 32.1603 40.9141 30.8737 40.5344C30.4998 39.9046 29.7474 40.7846 29.4625 39.9046C29.0217 40.0296 28.5543 39.9358 28.207 39.6857C27.6105 39.0558 27.517 38.2383 27.1119 37.5459H26.9872C27.0184 39.0245 27.6773 40.5344 29.1197 41.3832L29.182 41.602C28.9015 41.946 28.2115 41.4457 28.1492 41.9147C28.7146 42.2274 29.3734 42.4195 30.0279 42.2274C29.9032 42.6652 28.8392 42.4776 29.4625 42.9511C30.0279 43.0136 30.5265 42.6339 31.0918 42.7635V42.9511C30.9672 42.9511 30.9049 43.1075 30.8069 43.17C30.8069 43.2638 30.9316 43.3263 31.0295 43.4202C31.4658 43.4827 31.8442 42.759 32.2493 43.2951C36.354 45.0238 40.1781 49.0174 40.9928 53.422C42.2126 54.7442 42.3729 56.5668 42.6222 58.2018C42.6845 59.4257 42.5599 60.5604 42.2438 61.5967C42.088 60.4978 42.4931 59.0818 42.2438 58.0141C42.1503 57.5719 42.1814 56.9465 41.7095 56.7544C41.2109 57.1654 41.6161 57.5094 41.5849 58.0141C41.4914 58.9567 41.8387 60.1851 40.9928 60.6855C40.4586 60.6855 40.5209 60.1181 40.3339 59.7742C40.3651 58.577 40.7079 56.5668 39.5504 55.7806C39.3322 56.0933 39.675 56.5043 39.7374 56.817C39.7685 57.9471 39.7062 59.0192 39.5504 60.0243C39.5816 60.5604 39.9555 60.9043 40.2716 61.284C42.0256 63.0128 44.2516 64.9962 45.6316 67.1002C46.7936 69.3963 45.0039 71.6924 45.8809 74.1135C45.9121 75.1499 45.6316 76.2533 45.3512 77.2584C45.3512 78.8933 46.1035 81.6897 44.3183 82.7618C44.9149 81.3457 45.2577 79.6483 45.1019 78.1071C44.9772 78.0758 44.8837 77.8525 44.7902 78.0446C44.4786 78.6119 44.354 79.273 44.1314 79.8671C44.069 79.0809 44.9149 78.4511 44.3183 77.6961C44.0379 77.6961 43.793 77.6961 43.606 77.9106C43.606 77.9195 43.606 77.9195 43.5971 77.915C43.5971 77.915 43.6016 77.915 43.606 77.9106C43.6105 77.8659 43.5482 77.6247 43.4102 77.5711C42.9427 77.6649 42.689 78.2947 42.2527 78.4198C41.9722 78.4198 41.7808 78.7012 41.5315 78.7012C42.2215 77.9463 43.192 77.3834 43.6639 76.4677C43.9755 76.4989 44.3851 76.4364 44.3228 76.0567C44.167 75.6189 44.1002 75.1142 43.8821 74.7032C44.4474 72.9744 45.3245 70.866 44.1314 69.1372C44.4474 66.8724 42.0969 66.0862 40.6233 65.2687C39.8398 65.1749 39.0562 64.7684 38.3974 64.2323L38.1169 64.545C37.8053 64.3887 37.6138 63.9152 37.2087 63.8839C36.8971 63.0039 36.394 61.9318 35.4547 61.5878C34.3595 61.838 33.4157 61.2751 32.5387 60.8016C32.3206 60.9267 32.3829 61.2126 32.4452 61.3377C32.9171 62.7224 34.64 61.7754 35.1386 63.1602C35.891 64.4467 36.8303 65.425 38.2727 65.8003C38.8381 66.1442 39.5593 66.18 40.1558 66.4927C38.9004 67.4352 37.1464 67.5916 35.6417 67.2789C34.2304 67.2789 32.7613 66.8679 31.4124 66.4301C31.0696 66.18 30.5665 66.18 30.2549 65.8628C29.4714 65.2955 28.3406 64.7326 28.2783 63.6293C28.1225 62.8431 28.5009 62.3115 28.7502 61.5878C30.0991 63.1602 32.1336 63.7275 34.2349 63.8839C34.266 63.8214 34.3907 63.7901 34.3595 63.6963C33.5137 63.129 32.3829 63.2228 31.4747 62.8475C30.473 62.4366 29.2488 61.7174 28.8748 60.5514C28.8437 59.6402 29.1553 58.854 29.1241 57.9427C30.7535 58.2866 32.5075 57.8176 33.3846 56.3702C33.763 55.3964 33.576 54.0116 32.7925 53.1629C32.2582 52.8189 31.724 52.5017 31.1008 52.4392C31.6305 52.2516 32.2582 52.3767 32.7925 52.6894C33.5137 52.8144 33.5448 54.5745 34.1725 53.3505C34.266 52.6581 34.0479 51.9657 33.6428 51.4028C34.3328 51.184 33.6739 50.5541 33.7051 50.1431C33.2955 49.6428 32.5743 49.3256 32.7969 48.6332C32.2315 47.5343 31.0117 46.6499 29.8498 46.7481C30.0991 46.6231 30.4463 46.7794 30.6333 46.498C30.0368 45.0506 28.1581 46.3729 27.4369 44.9256C24.6812 42.3481 24.7435 38.9218 25.6205 35.4911C26.0612 34.3922 27.0006 33.4139 28.0334 32.6277C28.7546 32.4088 29.8186 32.6277 30.3217 31.6851L30.3128 31.694ZM44.0067 79.9967C44.0379 80.908 43.192 81.7254 42.502 82.2928C43.1297 81.6942 43.6639 80.8454 44.0067 79.9967ZM43.0985 80.1843C43.1297 80.6265 42.6622 80.8142 42.5643 81.1894C42.1903 80.7829 42.9427 80.5908 43.0985 80.1843ZM28.3361 80.5908C26.2393 80.6846 24.1692 79.8046 23.1987 77.9195C22.9494 77.1333 23.3545 76.3158 23.5771 75.5609C25.0507 78.3305 28.029 79.273 31.034 78.9559C30.4063 80.0235 29.4358 80.4032 28.3361 80.5908ZM28.995 81.1894C28.3361 82.668 26.6444 82.3553 25.202 82.2928C24.0089 82.0381 22.758 81.1581 22.473 79.9341C22.5977 79.4919 22.473 78.929 22.7891 78.5493C24.1692 80.7204 26.7068 81.4753 28.995 81.1894ZM29.6539 78.2992C27.5838 78.2679 25.2376 77.3254 24.1692 75.342C23.5415 74.587 24.2939 73.9929 24.423 73.2067H24.5788C26.6444 75.9093 29.8097 76.8831 33.1041 76.4766C32.4141 77.7944 31.1008 78.393 29.6584 78.2992H29.6539ZM32.1291 75.9406C29.7474 76.0344 27.5215 75.342 25.7363 73.7696C25.4246 73.171 24.6723 72.6394 24.9527 71.8219C25.2376 71.4779 25.1397 70.9732 25.5493 70.6605C27.6506 73.0816 30.6556 74.4977 33.8876 73.8678C34.2304 73.7428 34.7023 73.8053 35.0139 73.774C35.1074 73.7428 35.0451 73.6177 35.2009 73.6489H35.3879C34.8225 75.0025 33.5715 75.8825 32.1291 75.945V75.9406ZM30.9717 73.0816C29.0885 72.6707 27.0228 71.9783 26.1458 70.1244C25.8297 69.2444 26.3328 68.3957 26.8359 67.7033C29.4046 70.6292 33.0729 71.6343 36.7057 71.0982L37.5515 70.7855C37.5515 71.3529 36.8303 71.7594 36.581 72.2954C34.9828 73.3005 32.9171 73.4569 30.9717 73.0816ZM36.7057 70.379C34.0434 70.7855 31.3144 70.4103 29.1241 68.9317C28.2159 68.1142 26.867 67.328 27.3078 65.8807C27.5882 65.5367 27.5571 64.621 28.1536 64.813C28.6255 65.3491 29.1241 65.8181 29.7207 66.0683C31.3189 67.1047 33.1041 67.9534 35.0807 67.9534C36.492 68.3957 38.1525 67.9847 39.5014 67.8283C39.0919 69.1193 37.9655 70.0619 36.7101 70.3746L36.7057 70.379ZM29.6539 55.4098C29.9344 55.4411 30.059 55.7538 30.1881 55.9771C30.2816 56.4194 30.2816 56.9822 29.8409 57.1743C29.6539 57.3307 29.4669 57.3932 29.182 57.3619C29.0574 56.6695 29.1197 55.8521 29.6539 55.4143V55.4098ZM33.2866 51.0053C33.0061 50.7238 32.5966 50.5675 32.3161 50.3441C32.6945 50.5005 33.0685 50.7194 33.2866 51.0053ZM32.0045 49.6562C31.4079 49.4999 30.7179 49.75 30.1258 50.0314C29.6227 50.2816 29.1508 50.7238 28.6211 50.5675C29.5604 50.0314 30.2504 48.5841 31.8175 49.2452L32.3784 49.6562C32.4096 49.7188 32.2226 49.6249 32.0045 49.6562ZM27.1163 51.7289C26.177 49.6249 23.6706 49.4016 22.4152 47.5477C21.6316 45.7877 22.6021 44.1528 23.6706 42.8305C23.6706 42.6741 23.6394 42.4553 23.4525 42.4553C22.2594 42.96 22.2905 44.6575 20.9772 45.0015C21.6049 43.648 21.4135 41.5127 23.2031 41.0705C23.2655 40.9454 23.359 40.8516 23.3278 40.664C22.798 40.2575 22.2015 40.8828 21.6984 41.1375C21.4491 41.3251 21.2621 41.6735 20.9772 41.7361C21.2888 41.0124 21.9477 40.1324 22.7313 39.9135C22.8871 39.8197 22.9494 39.6321 23.0117 39.5025C22.7001 39.2211 22.3528 39.5025 22.01 39.5025L20.5365 40.4138C20.443 39.1541 22.0412 38.7476 22.6689 37.7425C22.1659 37.5236 21.6316 38.0864 21.1019 38.2785L20.3807 38.4662C20.4118 38.1535 20.8169 37.805 21.0395 37.4923C21.5381 37.1796 22.1347 37.0501 22.6689 36.8312C22.7312 36.6436 22.5754 36.5498 22.4819 36.4247H22.1703C22.4508 36.2058 23.0473 36.3622 23.2031 36.0495C22.798 35.7368 22.295 35.5447 21.7607 35.7055C21.7607 35.6742 22.4819 35.6117 22.3573 35.1382C22.2015 35.0131 22.0768 34.7942 21.8898 34.7317V34.6066C22.6734 34.419 23.3011 35.1069 23.9244 35.3928C24.0178 35.3303 24.049 35.2052 24.049 35.0756C23.7997 34.477 23.172 34.2269 22.6689 33.8829C23.1364 33.6953 23.5771 34.2269 24.049 34.419C24.4586 33.539 23.2343 33.3826 22.9538 32.6589C23.675 32.2524 24.1425 33.3201 24.7702 33.5077C25.0195 33.4139 24.8637 33.1324 24.8325 32.9761C24.5521 32.44 24.049 32.1899 23.7374 31.6538C24.3962 31.4975 24.7079 32.4088 25.3668 32.6589C25.4914 32.4713 25.3668 32.0916 25.2109 31.8727C24.8325 31.5913 24.6456 31.1178 24.3651 30.7426C25.1798 30.68 25.6161 31.5288 26.2749 31.7789C26.3061 30.9927 25.3979 30.3941 25.5537 29.4516C26.5554 29.4828 26.6177 30.7113 27.3701 31.0865C27.4947 30.3003 26.9338 29.6392 26.8403 28.853C27.152 28.6654 27.4992 29.1031 27.842 29.2282C28.2159 29.6705 28.0601 30.8319 28.8748 30.4879C28.6255 29.7955 28.4697 28.8842 28.9995 28.2544C29.1553 28.9468 29.409 29.7643 30.0323 30.2378V30.5505C27.6506 31.2116 25.0195 33.0967 24.2983 35.643C23.2299 38.6627 23.359 42.7188 25.2065 45.3901C25.3 45.9887 25.113 46.364 24.7034 46.6499C24.1069 46.8687 23.2922 46.8062 22.7936 46.4622C22.6378 46.431 22.4152 46.4622 22.4152 46.6499C22.5087 47.3735 23.3545 47.3423 23.9199 47.4986C24.9216 47.4986 25.8297 46.9 26.3328 46.0513C26.5509 46.3684 26.364 46.6499 26.3328 46.9626C25.7986 48.0927 24.3295 47.5299 23.5148 47.9364C23.8887 48.7539 24.8637 48.3786 25.487 48.4099C26.867 48.0659 27.3033 45.9887 28.9327 46.3997C27.5838 46.9983 28.2427 49.1023 26.4575 49.071C26.0212 49.071 25.5493 48.7583 25.2065 49.1336C25.6739 49.6071 26.4263 49.8572 27.1787 49.6696C28.5276 49.2274 28.9327 46.9626 30.7491 47.6237C30.9049 47.6862 31.034 47.8113 31.221 47.8113C30.4998 47.8113 29.7162 47.8113 29.0573 48.2848C28.4608 48.8209 28.3361 50.0136 27.3033 49.9198C26.9605 50.0761 26.4263 49.5758 26.3328 50.1074C26.5821 50.5809 27.5838 50.3575 27.241 51.0812C27.9934 51.7111 29.1508 51.3358 29.9655 51.1438L30.0279 51.2376C30.4686 51.1125 30.8737 50.9249 31.3456 50.8936C32.0668 51.0499 32.9438 51.175 33.2866 51.9925L33.3801 52.3365C32.4096 51.7066 30.936 51.3314 29.9032 51.863C29.0573 51.8942 28.5231 51.7066 27.7708 51.4877C27.5838 51.5503 27.5838 51.7691 27.7084 51.863C29.182 53.7481 33.2555 52.4615 32.6589 55.9191C32.4363 56.3613 32.1247 56.8616 31.6572 57.0492C31.9422 56.5445 32.0045 55.9191 31.8798 55.3518C31.3144 53.7168 29.5292 53.7481 28.3985 52.7742C28.2738 52.7742 28.1803 52.8055 28.0868 52.9306C27.9622 53.4354 28.5899 53.623 28.8704 53.8419C29.6539 54.2484 30.7802 54.2484 31.1586 55.3518C31.1898 55.6957 31.3456 56.2318 31.034 56.5132C31.0028 55.727 30.3128 54.8157 29.4669 54.3422C28.2738 53.9982 27.3656 52.9931 27.1163 51.7334V51.7289ZM24.8281 66.6044C25.2688 66.3229 25.487 65.8494 25.6739 65.4072C26.0835 64.3708 24.138 63.3925 25.6739 62.7984C26.6133 61.9184 26.8982 60.4398 26.4575 59.3409C26.2705 59.1845 26.3328 58.9031 26.1458 58.7423C26.7424 58.3313 27.2098 57.7997 27.7129 57.2324C27.7752 61.5074 26.5198 65.2508 24.8904 68.8022L24.5788 69.5884C24.8904 68.4895 23.0429 67.1047 24.8281 66.5999V66.6044ZM15.2388 73.9304C13.5159 74.9667 13.1375 76.9501 13.2978 78.7102C13.5782 80.3451 14.522 81.7299 14.522 83.4587C13.5515 82.0113 11.3256 81.4798 10.9516 79.5589C10.9828 78.4913 10.7023 77.5487 10.1681 76.7312C10.3551 75.8825 10.542 75.0025 10.7335 74.1225C10.7646 73.9036 10.7023 73.716 10.5465 73.5864H10.4842V73.3988C10.9872 71.9827 11.9889 70.4103 13.6806 70.3165C14.246 69.6241 12.9906 69.5928 12.7724 69.0925C12.394 68.6815 12.3005 68.1812 12.0512 67.7077C12.6166 67.2387 13.4313 66.9528 14.1525 67.2387C14.2772 67.3012 14.4018 67.4263 14.5932 67.395C14.9049 67.2387 14.7179 66.9841 14.6556 66.7964C13.1197 65.8226 12.6834 63.8392 12.8392 62.1417C13.4981 61.3242 12.8392 60.0333 13.2443 58.9969C13.3067 58.8718 13.4625 59.1845 13.6851 59.0594C14.1258 57.8623 14.6244 56.6695 15.2521 55.5394L15.4391 55.4768C15.4391 55.6332 15.5014 55.7583 15.6572 55.8565H15.911L17.6027 54.0965C17.8832 55.5438 17.0996 56.9912 17.1308 58.5636C16.975 61.7084 17.3801 64.6969 19.5437 67.0555C20.3272 67.873 21.1108 68.6279 22.019 69.2891C20.7947 69.3829 19.3256 68.7843 18.1325 69.5392C17.7585 69.9502 17.7585 70.6069 17.852 71.1116C18.3195 71.8666 18.9472 72.3088 19.6995 72.6215L19.7619 72.559C19.4191 71.7415 18.039 71.4288 18.5732 70.3254C19.2321 69.5705 20.0468 70.1691 20.9238 70.0753C21.645 70.2942 22.4908 70.2004 23.2121 70.388C22.9004 71.2367 21.8676 71.3305 21.3334 71.8979C21.3957 72.5902 22.4285 72.8404 22.1792 73.6579C20.0779 73.0593 17.1976 72.7779 15.2521 73.9438L15.2388 73.9304ZM21.3823 75.878C22.1659 75.5028 23.0117 74.6853 23.0117 73.707C23.074 73.1084 22.6689 72.6707 22.4775 72.1346C22.9806 71.5986 23.7329 71.2546 24.1692 70.5622C23.261 72.7957 22.7891 75.2794 22.1035 77.513C21.8542 76.9457 21.7919 76.3515 21.3823 75.878ZM21.5693 80.7829C21.3823 80.7829 21.1019 80.2468 20.8481 80.0592C21.1642 79.7778 21.5693 79.3043 21.8231 78.8978C21.7607 79.5276 21.7607 80.22 21.5693 80.7829ZM22.2905 81.1894C23.5148 82.9182 25.5804 83.1728 27.5571 83.0745C27.4324 83.4497 27.152 83.892 26.7112 83.9858C25.6472 84.3923 24.2671 84.2672 23.2031 83.9233C22.8292 83.6731 22.3261 83.3872 22.1703 82.9494C22.0145 82.3508 22.1392 81.721 22.295 81.1894H22.2905ZM22.2282 83.9903C23.4525 84.8703 25.1442 85.0579 26.6444 84.839C26.6444 85.2455 26.4575 85.5627 26.1458 85.8128C25.3 86.0943 24.0757 86.4427 23.1364 86.0317C22.7001 85.9379 22.4775 85.5582 22.2282 85.2455V83.9903ZM22.4775 86.4114C23.6083 86.9475 25.0774 87.1038 26.2705 86.5365C26.3016 86.9743 26.2393 87.4165 25.7986 87.6041C24.8281 88.0464 23.6661 88.2027 22.7891 87.4478C22.473 87.1976 22.6021 86.7554 22.473 86.4114H22.4775ZM23.1364 88.3591C24.1069 88.8639 25.2065 88.6092 26.2082 88.2965L26.3328 88.5154C26.4886 88.9577 26.0212 89.1453 26.0523 89.5518C25.6428 89.8377 25.2376 90.2129 24.7034 90.1504C24.4853 90.0878 24.138 90.0566 23.8576 90.0253C23.6083 89.458 23.2299 88.9889 23.1364 88.3591ZM33.5715 93.6168C32.1291 94.9034 30.2148 94.2154 28.5543 93.934C26.8982 93.2684 25.3311 92.107 24.2939 90.6016C25.0151 90.8204 25.9499 90.6016 26.4575 90.0342C26.8982 90.1861 26.9294 90.7579 27.1787 91.1331C27.3701 91.9819 26.0523 91.6647 26.4575 92.3571C26.9561 92.5135 27.2365 92.174 27.5526 91.9149V91.7898C28.3406 91.9462 28.9015 92.7949 29.7162 92.7056C29.8409 92.6385 29.783 92.4867 29.783 92.3571C29.1553 92.0132 28.4653 91.6067 28.0245 90.9455C27.8999 90.6954 27.6194 90.5033 27.6194 90.2219C29.4981 91.1957 31.9778 90.8517 33.5092 92.5179C33.6027 92.8351 33.8565 93.3086 33.576 93.6213L33.5715 93.6168ZM35.2499 83.7267C35.2054 84.3253 35.1564 87.4746 30.473 87.9749C30.3617 87.9749 27.3924 87.9436 27.1163 85.8754C26.9739 84.7765 29.2933 81.9041 29.8809 81.3994C30.4775 80.899 32.0713 79.3356 32.0713 79.3356C32.0713 79.3356 34.4486 80.8588 35.0807 81.8863C35.0807 81.8863 35.3033 83.137 35.2588 83.7267H35.2499ZM38.9004 89.2391C39.1809 84.839 36.207 81.0956 32.6634 78.7057C32.7257 78.2679 33.162 77.7319 33.6339 77.513C33.7274 78.0178 33.3801 78.7057 33.8208 79.0229C34.5732 78.2992 33.6027 76.6642 34.6667 76.1907L35.1341 77.1333C35.3567 78.1384 35.7619 79.273 35.5126 80.3407C35.606 80.4032 35.6684 80.497 35.793 80.4657L36.0468 77.446C37.2043 78.862 37.3289 80.841 37.4269 82.6635C37.4892 82.8199 37.6138 82.8199 37.7429 82.7573C38.4018 82.0024 37.8053 80.9348 37.9922 79.9922C38.9316 81.377 38.9004 83.3872 38.7758 84.9596C38.8693 85.0222 38.9316 85.1472 39.0562 85.0847C39.2788 84.8658 39.4035 84.5799 39.4346 84.236C39.7463 85.8396 39.497 87.6622 38.9004 89.2346V89.2391ZM39.7329 80.1709C39.8887 80.4881 40.2315 80.9929 40.4141 81.1983C40.5966 81.4038 40.6188 81.7254 40.5521 81.9756C40.4853 82.2258 40.3695 82.3642 40.3473 82.6859C40.3206 83.003 40.2093 84.0751 40.2093 84.0751C40.2093 84.0751 39.7952 81.1358 37.3378 77.8033C36.3005 76.3962 35.1564 75.5609 35.1564 75.5609C35.1564 75.5609 35.2232 75.1722 35.7262 74.6094C36.2248 74.0376 39.5459 69.2176 39.9778 68.5073C40.4096 67.806 40.8236 67.0019 41.2109 67.0019C41.4781 67.0019 42.3907 67.5737 42.6177 67.9177C42.6177 67.9177 42.7112 69.8832 43.2989 70.8436C43.2989 70.8436 41.6428 76.8921 41.5226 77.0529C41.4113 77.2092 40.0668 77.8078 39.9778 77.8748C39.8843 77.9418 39.7018 78.0803 40.049 78.5136C40.3918 78.9469 40.7969 79.3356 40.5476 79.5455C40.2983 79.751 40.2093 79.8135 40.2093 79.8135C40.2093 79.8135 39.5727 79.8582 39.7285 80.1798L39.7329 80.1709ZM40.8103 80.4657C41.1887 80.153 41.8119 80.2781 42.2527 79.9297C42.7869 79.4562 42.9739 78.8308 43.4725 78.2947C42.9427 79.206 42.3773 80.4345 41.1842 80.5283L40.8058 80.4657H40.8103ZM41.8476 81.377L41.6606 81.7523C41.5048 81.6897 41.6606 81.5021 41.7229 81.377H41.8476ZM54.4419 101.47C53.182 100.938 52.1225 100.09 50.8982 99.4911C50.1503 98.9237 49.2688 98.5753 48.5521 97.9186C44.069 95.3679 41.1531 91.3431 41.2466 86.1568C41.4959 85.25 41.0284 83.9545 41.4024 83.137C41.4914 83.0834 41.5938 83.0656 41.7051 83.0656C42.0479 83.0656 42.4619 83.2398 42.8136 83.079L43.0941 82.9494C43.1609 83.1728 42.8759 83.5793 43.2855 83.8027C43.7886 83.8295 44.1981 83.6731 44.67 83.5123C44.1002 88.8639 46.7357 93.456 51.3078 95.9085C55.822 98.419 60.5855 100.621 64.4141 104.615C65.0062 104.646 65.0061 103.958 65.3846 103.677C69.734 99.4285 75.379 97.673 80.049 94.0814C83.1831 91.3476 84.6211 87.5148 84.1269 83.3917C84.6923 83.3917 85.3779 83.9903 85.8186 83.3917L85.596 82.668C86.0679 83.0834 86.7891 83.1102 87.2922 82.8244C87.5727 83.2398 87.5727 83.9858 87.5727 84.5219C87.9778 89.8064 85.7518 94.4656 81.3 97.0744C75.7218 101.157 69.2043 103.641 64.5387 109.247L64.3473 109.305C61.7118 105.91 57.8609 103.744 54.4463 101.474L54.4419 101.47ZM17.714 98.5172C18.088 97.7936 18.7735 97.5121 19.5304 97.3513C23.4168 97.4764 25.4202 101.975 29.1152 102.631C30.2504 102.882 31.684 103.105 32.5343 102.189C32.7836 101.533 31.9956 101.215 31.6572 100.934C29.9032 100.085 27.6817 100.179 25.6695 100.085C25.3623 99.835 25.0462 99.6429 24.7658 99.2945C27.2098 99.0131 29.8097 99.4509 32.1291 99.9601C32.877 100.492 34.1013 100.653 34.2927 101.783C34.4486 102.506 34.0701 103.172 33.5048 103.418C31.684 104.173 30.1213 103.735 28.2115 103.476C26.3328 103.136 24.7301 102.064 23.3233 100.554C22.2237 99.4821 21.0351 98.1286 19.5304 98.6334C19.2499 98.9148 19.2143 99.3883 19.3389 99.7636L19.6862 100.331C22.1614 102.283 24.9794 103.351 27.8331 104.329C28.8704 104.637 29.9967 105.146 31.1542 105.459C38.1481 107.313 44.7591 109.484 52.2159 110.239C55.3233 110.77 58.9249 110.896 62.059 111.213L62.1837 111.088C71.399 111.114 79.6394 110.047 88.2226 107.938C90.0702 107.438 91.6684 106.933 93.5515 106.491C97.6873 105.459 101.828 104.012 105.741 102.185C106.903 101.305 109.16 100.929 108.812 98.9774C108.563 98.477 107.9 98.5708 107.437 98.6334C104.895 99.7636 103.426 103.033 100.603 103.413C98.3506 103.663 95.6216 104.794 93.9611 102.69C93.9344 102.149 93.9344 101.586 94.2772 101.175C95.7863 99.7278 97.8832 99.6966 99.8865 99.3526H103.493C102.896 100.956 101.048 99.8529 100.011 100.268C98.6355 100.487 97.0373 100.518 95.911 101.524C95.7863 101.774 95.5638 102.122 95.8442 102.372C97.3846 103.538 99.4814 102.497 101.08 101.966C103.898 100.518 105.968 96.4936 109.663 97.7846C110.135 97.9678 110.451 98.5083 110.509 98.9774C110.482 100.175 109.663 101.211 108.692 101.845C106.564 103.507 104.053 104.423 101.574 105.397C93.0841 108.255 84.0245 110.395 74.8448 111.592C72.187 111.717 69.4847 112.124 66.7602 112.258C60.305 112.316 53.9433 111.816 47.6439 110.686C47.1408 110.811 46.6734 110.462 46.1347 110.494C37.9255 108.64 29.7474 106.844 22.0991 103.418C20.3183 102.377 17.3044 101.122 17.714 98.5128V98.5172ZM27.8064 101.086H27.8999C29.1197 101.153 30.3528 101.153 31.359 101.756H31.3768V101.783C31.3768 101.881 31.3456 101.952 31.2833 101.988C31.2254 102.019 31.1542 102.028 31.0785 102.028C30.936 102.024 30.7758 101.997 30.7045 102.06L30.6912 102.073L30.6778 102.064C29.8008 101.872 28.6344 101.783 27.8732 101.144L27.8019 101.086H27.8064ZM33.941 104.347L33.9143 104.405C33.7897 104.668 33.9277 105.12 33.5804 105.271H33.5626L32.0624 104.829L31.9644 104.798L32.0624 104.771C32.6589 104.579 33.2866 104.517 33.8787 104.356L33.9455 104.342L33.941 104.347ZM22.6244 101.099L22.5932 101.153C21.8053 100.836 20.7991 100.304 20.5098 99.5625L20.4831 99.5045L20.5409 99.5223C21.369 99.777 22.0234 100.505 22.62 101.095C22.62 101.095 22.62 101.095 22.6244 101.099ZM94.3662 104.458V104.418H94.4063L96.1647 104.834L96.2493 104.852L96.1692 104.892C95.8531 105.048 95.1586 105.271 94.5265 105.271H94.5131L94.5042 105.258C94.335 105.053 94.3751 104.673 94.3662 104.454V104.458ZM107.143 100.362C106.64 100.679 106.168 100.992 105.629 101.215L105.536 101.247L105.589 101.166C105.91 100.653 106.885 99.8976 107.704 99.6429L107.757 99.6295L107.744 99.6831C107.677 99.978 107.361 100.233 107.139 100.358L107.143 100.362ZM100.479 101.18L100.496 101.211C99.3567 101.876 98.1636 102.162 96.8726 102.064H96.8459L96.837 102.046C96.8058 101.948 96.8192 101.863 96.8726 101.809C96.926 101.756 96.9973 101.729 97.0729 101.702C97.2288 101.658 97.4202 101.622 97.5048 101.51V101.501L97.5181 101.497C98.5287 101.215 99.379 101.215 100.474 101.148V101.175L100.479 101.18ZM4.61661 88.7164C4.80804 87.6756 5.80971 86.7956 6.84255 86.608C6.88706 86.608 6.93158 86.608 6.9761 86.608C9.02841 86.608 11.0184 87.345 12.8348 87.9972C13.8053 88.4976 14.9004 88.7477 15.7196 89.6277C15.497 91.017 14.8069 92.1784 14.4597 93.5007C14.019 94.3494 13.9878 95.3545 13.4892 96.172C13.0841 96.105 12.6745 95.8281 12.394 95.6404C12.4875 94.8498 12.8615 93.9429 13.0173 93.1567C13.3645 92.3661 13.7385 91.5843 13.9299 90.7356C14.1213 90.07 13.3645 89.8198 12.9594 89.5697C11.2632 88.5914 9.16642 87.9302 7.22095 88.1223C6.75351 88.2474 6.28606 88.6539 6.1258 89.0961C5.75184 91.9908 8.47638 94.001 10.542 95.5154C12.5231 96.7036 14.5843 97.5613 16.7479 98.285C16.9038 98.5038 16.7479 98.8791 16.6233 99.1337C14.0857 98.6289 11.704 97.6551 9.51367 96.3016C6.75351 94.7649 4.15362 91.9283 4.61661 88.7254V88.7164ZM7.23876 89.181C8.43631 88.5914 9.77633 89.181 10.9383 89.4624C11.6773 89.7751 12.4207 90.204 13.0395 90.615L11.4947 95.082C9.56709 94.1395 7.77744 92.4822 6.99836 90.3961C6.9672 89.9672 6.97165 89.5071 7.23876 89.1766V89.181ZM16.4675 100.041H16.4363V100.036H16.463L16.4675 100.041ZM12.9772 109.944H12.9728V109.962L12.9639 109.971L12.9728 109.94C9.2421 108.716 5.71177 106.92 2.76909 103.945C1.48695 102.497 0.307209 100.715 0.992796 98.7897C1.64722 96.306 2.80471 94.0144 3.52591 91.5307L3.77521 91.0885C4.14917 92.1382 4.74127 93.1567 5.44911 94.0189C8.27605 97.5121 12.4697 98.7406 16.4096 100.058C16.3117 101.206 15.7819 102.328 15.5326 103.485C14.9716 105.334 14.3751 107.152 13.7786 108.979C13.5871 109.144 13.5916 109.493 13.5248 109.752C13.4981 109.877 13.4536 109.975 13.3823 110.02C13.3556 110.033 13.3245 110.042 13.2844 110.042C13.2132 110.042 13.1108 110.016 12.9728 109.94L12.9772 109.944ZM114.017 116.162C105.425 121.076 96.049 123.368 86.3306 125.507C84.3584 125.726 82.226 126.137 80.2805 126.423C73.2287 127.303 65.4246 127.486 58.1503 127.303C55.6394 127.205 53.3556 126.986 50.9071 126.705C47.2966 126.548 43.9132 125.789 40.4675 125.19C31.4035 123.238 22.2816 120.884 14.2549 116.354C13.2399 115.617 13.0173 114.532 13.2087 113.428V113.419C14.1525 109.962 15.497 106.692 16.4675 103.234C16.6901 102.421 16.8459 101.6 17.2555 100.867L17.2822 100.827L17.3089 100.858C20.3094 104.155 24.3161 105.285 28.1714 106.67C33.438 108.211 38.6378 109.815 44.0824 110.851H44.0913C48.4096 112.008 53.2043 112.356 57.9054 112.83C64.7658 113.71 71.7196 112.638 78.2371 111.981C83.3078 111.257 88.2315 110.096 93.0529 108.707C98.7602 107.103 104.552 105.754 109.525 102.43L110.785 100.983L110.802 100.965L110.829 100.983L111.078 101.233H111.083V101.251C112.027 104.995 113.247 108.604 114.529 112.187C114.845 113.482 115.165 115.193 114.017 116.158V116.162ZM127.007 101.407C124.951 105.825 120.107 107.867 116.065 109.756C115.597 109.882 115.165 110.065 114.649 110.069C113.469 106.848 112.561 103.534 111.688 100.183C112.085 99.978 112.757 100.036 113.233 99.7189C117.52 98.276 122.462 96.0469 124.292 91.3118C124.572 91.5307 124.701 92.0712 124.91 92.4733C125.605 95.4349 127.533 98.0661 127.007 101.407Z" fill="black"/>
<path d="M116.715 95.3189L116.732 95.3408L116.719 95.3145L116.715 95.3189Z" fill="black"/>
<path d="M97.5357 101.541H97.5401L97.527 101.51L97.5314 101.541H97.5357Z" fill="black"/>
<path d="M105.62 101.197L105.634 101.228L105.625 101.202L105.62 101.197Z" fill="black"/>
<path d="M96.1602 104.877L96.1646 104.842L96.1558 104.873L96.1602 104.877Z" fill="black"/>
<path d="M22.611 101.135L22.6286 101.108L22.611 101.126V101.135Z" fill="black"/>
<path d="M22.6108 101.135H22.6064L22.5977 101.161L22.6108 101.135Z" fill="black"/>
<path d="M44.0735 110.877L44.0779 110.873V110.855L44.0735 110.877Z" fill="black"/>
<path d="M111.047 101.26L111.065 101.233L111.043 101.255L111.047 101.26Z" fill="black"/>
<path d="M97.2287 33.8692C96.7257 34.6554 96.098 33.8379 95.537 33.8066C95.1274 33.9317 94.7847 34.2444 94.5354 34.5928C94.3795 34.9368 94.0946 35.2227 94.0323 35.5667C95.537 36.2903 96.5699 34.9055 97.8876 34.5928C98.0123 34.4365 98.4174 34.4052 98.2616 34.0568C97.9811 33.8379 97.5715 33.7441 97.2287 33.8692ZM95.8576 35.2182C95.675 35.3969 95.3322 35.4461 95.1319 35.4505C94.9182 35.4595 94.6422 35.3121 94.6422 35.3121L94.9627 34.977C94.9627 34.977 95.0874 35.2718 95.3589 35.2852C95.7463 35.2986 95.8308 34.9413 95.8308 34.9413C95.8932 35.0172 95.9466 35.0351 96.0267 35.0485C95.9555 35.0932 95.9065 35.1736 95.8486 35.2182H95.8576Z" fill="black"/>
<path d="M109.013 72.3584C108.234 72.6934 107.695 72.9436 106.475 73.3948C106.725 73.3322 108.252 72.823 109.013 72.3584Z" fill="black"/>
<path d="M111.488 66.4486C112.895 63.2725 113.304 59.3102 112.147 55.8527C112.085 55.7901 111.991 55.665 111.893 55.665C111.737 56.1386 111.862 56.6076 112.018 57.0498C112.864 59.815 112.24 62.7409 111.297 65.2871C111.043 65.7607 110.575 66.2922 110.794 66.797C111.074 67.0159 111.359 66.7032 111.484 66.4531L111.488 66.4486Z" fill="black"/>
<path d="M114.368 60.877C114.368 60.7832 114.275 60.752 114.181 60.752V61.0959H114.368V60.877Z" fill="black"/>
<path d="M112.018 67.1676C112.895 67.0426 113.117 66.0687 113.585 65.4701C113.994 64.2104 114.368 62.8614 114.306 61.4766L114.119 61.6016C113.839 62.8614 113.678 64.1479 112.993 65.2155C112.837 66.0017 111.644 66.3457 112.022 67.1676H112.018Z" fill="black"/>
<path d="M116.906 75.7523C117.062 76.1275 116.844 76.4447 117.093 76.7887C117.436 75.4664 117.093 73.9297 116.403 72.7951C115.931 72.1652 115.401 71.6024 114.774 71.1601C114.457 71.0663 114.333 71.3478 114.364 71.5711C115.869 72.6388 116.621 74.1486 116.902 75.7523H116.906Z" fill="black"/>
<path d="M115.748 77.2628C115.624 78.4868 115.214 79.5902 114.903 80.7203C114.871 81.1268 114.684 81.444 114.555 81.7567C114.555 81.9443 114.587 82.1007 114.68 82.1677C115.464 80.8454 115.838 79.273 116.122 77.8257C116.345 76.1282 115.748 74.1135 114.181 73.0771C113.994 73.1084 113.932 73.296 113.994 73.4524C114.996 74.5513 115.686 75.8423 115.748 77.2583V77.2628Z" fill="black"/>
<path d="M115.151 90.7256L115.129 90.6992L115.147 90.7256L115.121 90.7344L115.147 90.7256H115.151Z" fill="black"/>
<path d="M25.5136 110.855L25.5982 110.636L23.724 109.873L23.6394 110.091C24.3205 110.431 24.3161 110.762 24.0979 111.289L23.0295 113.938L23.0161 113.929L21.4936 108.97L19.6505 108.22L19.5659 108.439C19.6772 108.483 19.8063 108.568 20.0512 109.372L18.3818 113.513C18.1503 114.089 17.8831 114.054 17.3356 113.902L17.251 114.125L19.2276 114.929L19.3122 114.71C18.6978 114.375 18.5776 114.139 18.8314 113.509L20.2426 110.007L20.2604 110.02L22.2282 116.332L22.4775 116.43L24.5476 111.275C24.7168 110.86 24.8503 110.677 25.5092 110.855H25.5136Z" fill="black"/>
<path d="M25.6027 110.918C26.0033 111.074 26.3684 111.222 26.1814 111.811L24.7791 116.149C24.5966 116.707 24.3072 116.64 23.7819 116.528L23.7106 116.752L28.9416 118.454L29.9032 116.707L29.6539 116.627C28.6522 117.797 27.6639 117.73 26.7824 117.449C26.2037 117.257 26.0701 117.096 26.1992 116.698L26.8982 114.527C27.7841 114.818 28.1491 115.233 27.8954 116.39L28.1313 116.47L29.1152 113.433L28.8792 113.361C28.3895 114.433 27.8553 114.514 27.0006 114.223L27.6772 112.146C27.8019 111.758 27.9711 111.78 28.4652 111.936C29.6717 112.329 30.2326 112.767 30.0323 114.107L30.2549 114.179L30.8381 112.37L25.6828 110.686L25.6116 110.918H25.6027Z" fill="black"/>
<path d="M39.7908 114.791L39.8442 114.559L38.1747 114.17L38.1213 114.398C38.4285 114.492 38.749 114.576 38.6644 114.952C38.6199 115.144 38.5576 115.233 38.5086 115.318L36.7724 118.213H36.759L36.483 114.92C36.4652 114.737 36.443 114.492 36.4697 114.389C36.5409 114.072 36.8125 114.125 37.2087 114.192L37.2621 113.964L34.3996 113.299L34.3461 113.527C34.7869 113.643 34.8626 113.768 34.9338 114L35.0495 114.961L33.3311 117.511H33.3133L32.9839 113.942C32.9705 113.83 32.9661 113.723 32.9928 113.621C33.0729 113.286 33.3356 113.326 33.6695 113.37L33.7229 113.138L31.0295 112.513L30.9761 112.745C31.35 112.888 31.4213 113 31.4747 113.482L32.1425 119.463L32.3962 119.522L35.0584 115.608L35.1163 115.622L35.6683 120.277L35.9176 120.335L39.025 115.224C39.2076 114.907 39.4658 114.737 39.7908 114.782V114.791Z" fill="black"/>
<path d="M44.5409 120.308C43.6372 121.058 42.8893 121.224 42.1681 121.112C41.8787 121.067 41.1664 120.808 40.8859 120.071C40.6366 119.419 40.7212 118.521 40.8147 117.963C41.064 116.39 41.6472 115.019 43.005 115.233C44.0601 115.403 44.67 116.623 44.8659 117.48L45.1018 117.512L45.4446 115.336L45.1953 115.296C45.0662 115.515 44.9549 115.698 44.7056 115.653C44.4652 115.622 43.8197 115.05 42.9827 114.916C41.0373 114.608 39.4658 115.845 39.1675 117.739C38.8915 119.482 39.8219 121.197 41.9855 121.541C42.1636 121.572 42.3372 121.586 42.5019 121.586C43.419 121.586 44.1135 121.161 44.7902 120.598L44.5498 120.317L44.5409 120.308Z" fill="black"/>
<path d="M49.8564 120.929L48.3829 115.747L48.1202 115.716L45.4224 120.594C45.0529 121.259 44.8837 121.559 44.3762 121.572L44.3495 121.809L46.2415 122.041L46.2682 121.804C45.9522 121.751 45.507 121.666 45.5559 121.313C45.5737 121.161 45.7741 120.799 46.1124 120.156L48.2093 120.411C48.3072 120.728 48.5164 121.456 48.4897 121.715C48.4497 122.023 48.2805 122.01 47.6973 121.983L47.6706 122.22L50.6934 122.595L50.7201 122.358C50.2749 122.318 50.1636 121.983 49.8609 120.933L49.8564 120.929ZM46.2905 119.803L47.4524 117.632L48.1158 120.027L46.2949 119.803H46.2905Z" fill="black"/>
<path d="M53.5916 116.501C54.7001 116.582 55.1853 117.703 55.31 118.377L55.5726 118.395L55.7151 116.349L55.4346 116.331C55.3768 116.51 55.3144 116.64 55.1007 116.626C54.8336 116.608 54.4107 116.264 53.6583 116.211C51.8776 116.086 51.4947 117.35 51.4547 117.922C51.428 118.355 51.3701 119.164 52.9238 120.052L53.5248 120.396C54.1169 120.731 54.5398 120.986 54.4953 121.62C54.4908 121.746 54.3751 122.675 53.2488 122.594C52.0557 122.509 51.5927 121.406 51.468 120.446L51.2009 120.428L51.0362 122.755L51.3122 122.768C51.3567 122.626 51.4191 122.46 51.6149 122.474C51.9043 122.492 52.305 122.84 53.1953 122.907C53.2799 122.911 53.3645 122.916 53.4491 122.916C54.9939 122.916 55.6038 121.888 55.6617 121.098C55.7329 120.07 55.0607 119.481 54.7491 119.298L53.4179 118.516C52.6567 118.06 52.492 117.846 52.5276 117.332C52.5721 116.729 53.1108 116.479 53.596 116.51L53.5916 116.501Z" fill="black"/>
<path d="M56.0935 118.476H56.3606C56.601 116.984 57.5715 116.971 58.2348 116.957L58.0568 121.92C58.0301 122.715 57.8075 122.724 57.113 122.756L57.1041 122.992L60.4608 123.108V122.872C59.7796 122.8 59.5481 122.773 59.5838 121.969L59.7529 117.006C60.4029 117.064 61.3645 117.145 61.5025 118.664H61.7696L61.8231 116.779L56.1825 116.582L56.0891 118.476H56.0935Z" fill="black"/>
<path d="M65.2643 122.88C64.6366 122.88 64.4274 122.809 64.4274 122.353V117.904C64.4274 117.078 64.7212 117.064 65.3756 117.038V116.801H62.0946V117.038C62.522 117.064 62.9048 117.082 62.9048 117.708V122.268C62.9048 122.84 62.6244 122.872 62.0946 122.939V123.175H67.5348L67.9221 121.031H67.6461C67.2142 122.094 66.6889 122.876 65.2688 122.876L65.2643 122.88Z" fill="black"/>
<path d="M71.1719 122.688C70.562 122.72 70.3795 122.621 70.3572 122.21L70.2415 119.928C71.1675 119.883 71.6616 120.138 71.8353 121.308L72.0757 121.295L71.9109 118.114L71.6705 118.128C71.5904 119.302 71.1274 119.575 70.2237 119.606L70.1079 117.422C70.0901 117.015 70.2593 116.966 70.7757 116.944C72.04 116.877 72.7212 117.073 73.0017 118.405L73.2376 118.391L73.1397 116.497L67.7217 116.787L67.7351 117.024C68.1669 117.024 68.5676 117.024 68.5988 117.65L68.8347 122.206C68.8659 122.791 68.572 122.831 68.0423 122.916L68.0556 123.153L73.5448 122.863L73.8208 120.884L73.5581 120.897C73.0417 122.349 72.0979 122.648 71.1719 122.693V122.688Z" fill="black"/>
<path d="M81.8653 115.934L81.8386 115.697L79.7819 115.916L79.8086 116.153C80.6144 116.108 80.7657 116.416 80.8236 116.988L81.1174 119.847C81.1842 120.446 81.3133 121.884 79.6706 122.054C78.3216 122.197 78.1881 120.906 78.1302 120.37L77.8008 117.234C77.7162 116.408 78.0056 116.367 78.6199 116.274L78.5932 116.041L75.4368 116.372L75.4635 116.609C75.9889 116.609 76.2382 116.6 76.3138 117.39L76.6433 120.522C76.7546 121.536 77.0306 121.835 77.4669 122.152C77.9432 122.496 78.5398 122.568 78.9894 122.568C79.163 122.568 79.31 122.559 79.4257 122.545C79.9911 122.487 80.7835 122.224 81.1975 121.665C81.5448 121.196 81.5893 120.352 81.5314 119.798L81.2153 116.805C81.1486 116.189 81.3534 116.064 81.8653 115.93V115.934Z" fill="black"/>
<path d="M88.2493 114.871L88.2092 114.644L86.2103 114.961L86.2504 115.197C87.0117 115.13 87.1764 115.421 87.261 115.979L87.7062 118.807H87.6884L83.8419 115.34L81.8831 115.649L81.9143 115.885C82.0389 115.868 82.1903 115.868 82.8136 116.426L83.5081 120.844C83.606 121.46 83.3567 121.568 82.8136 121.719L82.8447 121.956L84.9549 121.621L84.9148 121.384C84.2204 121.425 83.9978 121.273 83.8865 120.603L83.3033 116.882H83.3211L88.2493 121.268L88.5075 121.228L87.6438 115.738C87.5726 115.291 87.5993 115.068 88.2537 114.876L88.2493 114.871Z" fill="black"/>
<path d="M91.7218 119.397L90.778 114.934C90.6489 114.309 91.0852 114.206 91.5125 114.095L91.468 113.862L88.2449 114.555L88.2983 114.783C88.7257 114.716 89.162 114.644 89.2955 115.256L90.2393 119.723C90.3551 120.295 90.0078 120.407 89.5181 120.558L89.5715 120.791L92.7902 120.107L92.7457 119.879C92.2293 119.951 91.8553 119.996 91.7307 119.406L91.7218 119.397Z" fill="black"/>
<path d="M96.4452 118.007L95.1631 113.201C95.8041 113.071 96.7479 112.866 97.3178 114.273L97.5849 114.206L97.0729 112.379L91.6283 113.844L92.0868 115.68L92.3495 115.613C92.1447 114.099 93.0707 113.804 93.694 113.594L94.9761 118.401C95.1809 119.164 94.9716 119.24 94.3217 119.473L94.3795 119.7L97.6161 118.834L97.5582 118.602C96.877 118.731 96.6544 118.78 96.4452 118.003V118.007Z" fill="black"/>
<path d="M104.2 114.608C104.102 116.144 103.27 116.689 102.397 116.993C101.823 117.19 101.618 117.145 101.48 116.752L100.741 114.594C101.627 114.291 102.17 114.402 102.656 115.483L102.891 115.398L101.854 112.388L101.623 112.468C101.863 113.621 101.494 114.005 100.639 114.295L99.9265 112.227C99.7974 111.847 99.9443 111.753 100.43 111.584C101.627 111.168 102.335 111.177 102.981 112.374L103.203 112.294L102.589 110.498L97.4557 112.271L97.5359 112.495C97.9544 112.383 98.3372 112.271 98.5331 112.857L100.016 117.176C100.207 117.73 99.9443 117.846 99.4502 118.079L99.5303 118.302L104.726 116.506L104.45 114.527L104.2 114.612V114.608Z" fill="black"/>
<path d="M105.661 109.117L103.038 110.287L103.136 110.506C103.484 110.39 103.871 110.238 104.107 110.761L105.986 115.009C106.128 115.331 106.07 115.652 105.527 115.898L105.625 116.117L108.336 114.902C110.473 113.87 110.802 112.11 110.099 110.524C109.511 109.197 108.06 108.045 105.656 109.121L105.661 109.117ZM108.087 114.652C107.673 114.835 107.53 114.71 107.379 114.37L105.46 110.046C105.362 109.863 105.264 109.653 105.816 109.403C106.043 109.3 106.257 109.26 106.462 109.26C107.588 109.26 108.354 110.618 108.657 111.279C109.569 113.338 109.057 114.223 108.091 114.661L108.087 114.652Z" fill="black"/>
<path d="M32.325 35.5041C32.9527 36.0401 33.9232 35.5979 34.6133 35.6292C34.3328 35.0931 33.9855 34.432 33.5181 34.0568C33.1085 33.8379 32.6099 33.8379 32.2627 34.1818C31.8575 34.4633 31.5726 33.9942 31.2298 33.8691C30.8826 33.8691 30.571 33.8691 30.384 34.1193C30.2593 34.2131 30.3528 34.3695 30.384 34.4633C31.074 34.7447 31.7641 34.9368 32.325 35.4996V35.5041ZM32.6099 34.9323C32.6099 34.9323 32.6767 35.2941 33.0685 35.2941C33.3445 35.2941 33.4736 35.0038 33.4736 35.0038L33.7852 35.3477L33.1397 35.4282C32.9661 35.4505 32.7568 35.3969 32.5788 35.2093C32.5209 35.1601 32.4764 35.0797 32.4096 35.0351C32.4942 35.0217 32.5476 35.0082 32.6099 34.9323Z" fill="black"/>
<path d="M37.7474 39.9041C37.9967 40.0917 37.9655 40.4402 38.2771 40.5965C38.4641 40.6903 38.8114 40.7529 38.9983 40.534C38.9983 40.123 39.2476 39.7165 38.9049 39.3725C38.6555 39.2162 38.2771 39.1536 37.9967 39.1849C37.9655 39.0911 38.0902 39.0598 38.1213 38.966C38.1213 38.8722 38.1836 38.7159 38.059 38.6533C37.8097 38.6846 37.5871 38.8409 37.4313 39.0286C37.182 39.2162 36.8659 38.9973 36.7101 38.966C36.8659 39.4708 37.1508 39.9086 37.4313 40.3508C37.7162 40.4134 37.6183 40.0381 37.7474 39.9086V39.9041Z" fill="black"/>
<path d="M90.4886 38.6497C90.4574 38.8685 90.6756 39.0919 90.5821 39.2482L90.4263 39.1232C90.2393 39.0919 90.079 39.1544 89.9232 39.1857C89.2955 39.3108 89.7051 40.0032 89.5804 40.4142C89.7674 40.6018 89.9855 40.6643 90.2393 40.6018C90.6177 40.4454 90.68 40.0345 90.8982 39.753C90.9605 39.9406 90.9605 40.3203 91.2766 40.2265C91.4012 39.753 91.8063 39.3152 91.9354 38.9043H91.7485C91.2499 39.4403 91.0584 38.3995 90.4975 38.6541L90.4886 38.6497Z" fill="black"/>
<path d="M19.6951 72.6084C20.2115 72.7737 21.7029 73.4437 22.1703 73.6448C21.5693 73.2517 20.0423 72.6352 19.6951 72.6084Z" fill="black"/>
<path d="M17.9099 66.6673C17.2198 65.3138 16.5921 63.9647 16.4363 62.3923C15.7151 60.1588 16.5921 58.0235 16.6856 55.915H16.4986C15.3412 59.2788 15.4658 63.1473 16.877 66.3234C17.0952 66.6048 17.1575 67.1721 17.6606 67.1096C17.8476 67.0783 17.9722 66.8907 17.9099 66.6673Z" fill="black"/>
<path d="M14.4018 61.3518V61.1642C14.4329 61.0078 14.3083 61.0704 14.2771 60.9766C14.1525 61.0391 14.1213 61.1642 14.1525 61.2893C14.1836 61.4143 14.3083 61.3518 14.4018 61.3518Z" fill="black"/>
<path d="M14.4641 61.8875C14.3394 61.825 14.2771 61.6999 14.1525 61.825C14.2771 63.4287 14.5264 65.0011 15.3099 66.3234C15.6216 66.7343 15.9065 67.391 16.4986 67.4535C16.6233 67.391 16.8147 67.2347 16.7479 67.047C15.3055 65.5997 14.8069 63.7771 14.4596 61.8875H14.4641Z" fill="black"/>
<path d="M13.5559 72.4833C13.7741 72.0724 14.2771 72.1394 14.2771 71.6346C14.1525 71.5408 14.059 71.3844 13.8676 71.447C12.02 72.671 11.0495 74.7482 11.3923 77.138H11.517C11.7663 75.4093 12.1759 73.6805 13.5559 72.4833Z" fill="black"/>
<path d="M13.4936 74.1178C11.5481 76.2263 12.6477 79.4649 13.4936 81.694C13.6182 81.9754 13.6806 82.4177 14.0278 82.4802C13.5559 79.9965 11.9889 77.2627 13.8097 74.837C13.9343 74.301 15.0651 73.957 14.4062 73.3271C14.0278 73.4522 13.8097 73.8632 13.498 74.1134L13.4936 74.1178Z" fill="black"/>
</g>
</g>
<defs>
<clipPath id="clip0_203_71">
<rect width="128" height="128" fill="white"/>
</clipPath>
<clipPath id="clip1_203_71">
<rect width="128" height="128" fill="white"/>
</clipPath>
</defs>
</svg>
