<svg width="128" height="128" viewBox="0 0 128 128" fill="none" xmlns="http://www.w3.org/2000/svg">
<path d="M113.297 10.496C113.212 9.81333 112.612 9.216 111.927 9.04533L110.471 8.78933L97.9642 6.4L64.7281 0H63.3575L30.0358 6.4L17.5295 8.78933L16.0733 9.04533C15.388 9.216 14.874 9.728 14.7027 10.496V10.752V70.3147C14.7027 84.48 20.7846 97.9627 31.4064 107.264L32.1773 107.947L62.7579 128H65.2421L95.8227 108.032L96.5936 107.349C107.215 98.048 113.297 84.5653 113.297 70.4V10.752V10.496ZM31.6634 10.8373L63.8715 4.69333H64.2141L96.4223 10.8373L103.275 12.1173L64.0428 92.16L24.8106 12.2027L31.6634 10.8373ZM108.415 70.144V71.168C108.158 83.5413 102.761 95.232 93.5098 103.339L92.9959 103.851L64.4711 122.539H63.7858L35.2611 103.851L34.7471 103.339C25.4959 95.232 20.0993 83.5413 19.8423 71.168V70.144V13.1413H20.0136L64.0428 103.339L108.243 13.1413H108.415V70.144Z" fill="black"/>
</svg>
